%TF.GenerationSoftware,KiCad,Pcbnew,(6.0.7)*%
%TF.CreationDate,2022-09-05T18:40:36-05:00*%
%TF.ProjectId,Red Canary,52656420-4361-46e6-9172-792e6b696361,rev?*%
%TF.SameCoordinates,Original*%
%TF.FileFunction,Soldermask,Top*%
%TF.FilePolarity,Negative*%
%FSLAX46Y46*%
G04 Gerber Fmt 4.6, Leading zero omitted, Abs format (unit mm)*
G04 Created by KiCad (PCBNEW (6.0.7)) date 2022-09-05 18:40:36*
%MOMM*%
%LPD*%
G01*
G04 APERTURE LIST*
G04 Aperture macros list*
%AMRoundRect*
0 Rectangle with rounded corners*
0 $1 Rounding radius*
0 $2 $3 $4 $5 $6 $7 $8 $9 X,Y pos of 4 corners*
0 Add a 4 corners polygon primitive as box body*
4,1,4,$2,$3,$4,$5,$6,$7,$8,$9,$2,$3,0*
0 Add four circle primitives for the rounded corners*
1,1,$1+$1,$2,$3*
1,1,$1+$1,$4,$5*
1,1,$1+$1,$6,$7*
1,1,$1+$1,$8,$9*
0 Add four rect primitives between the rounded corners*
20,1,$1+$1,$2,$3,$4,$5,0*
20,1,$1+$1,$4,$5,$6,$7,0*
20,1,$1+$1,$6,$7,$8,$9,0*
20,1,$1+$1,$8,$9,$2,$3,0*%
G04 Aperture macros list end*
%ADD10C,0.010000*%
%ADD11O,2.127200X2.127200*%
%ADD12RoundRect,0.200000X-0.863600X0.863600X-0.863600X-0.863600X0.863600X-0.863600X0.863600X0.863600X0*%
%ADD13C,2.127200*%
G04 APERTURE END LIST*
%TO.C,G\u002A\u002A\u002A*%
G36*
X139262866Y-108548687D02*
G01*
X139259950Y-108510407D01*
X139257289Y-108463368D01*
X139254871Y-108406006D01*
X139252684Y-108336756D01*
X139250717Y-108254052D01*
X139248958Y-108156330D01*
X139247396Y-108042024D01*
X139246018Y-107909569D01*
X139244814Y-107757401D01*
X139243772Y-107583953D01*
X139242880Y-107387662D01*
X139242126Y-107166962D01*
X139241498Y-106920288D01*
X139240986Y-106646075D01*
X139240577Y-106342758D01*
X139240260Y-106008772D01*
X139240023Y-105642551D01*
X139239855Y-105242532D01*
X139239744Y-104807147D01*
X139239677Y-104334834D01*
X139239645Y-103824026D01*
X139239634Y-103273159D01*
X139239634Y-103010084D01*
X139239639Y-102440399D01*
X139239664Y-101911484D01*
X139239719Y-101421778D01*
X139239816Y-100969715D01*
X139239917Y-100687041D01*
X140149604Y-100687041D01*
X140149623Y-101118442D01*
X140149692Y-101587322D01*
X140149765Y-102095298D01*
X140149800Y-102643983D01*
X140149800Y-102646347D01*
X140149822Y-103100826D01*
X140149888Y-103544040D01*
X140149995Y-103974136D01*
X140150141Y-104389259D01*
X140150325Y-104787557D01*
X140150544Y-105167176D01*
X140150796Y-105526262D01*
X140151080Y-105862963D01*
X140151393Y-106175423D01*
X140151734Y-106461790D01*
X140152100Y-106720211D01*
X140152490Y-106948832D01*
X140152901Y-107145798D01*
X140153331Y-107309258D01*
X140153780Y-107437357D01*
X140154243Y-107528241D01*
X140154720Y-107580058D01*
X140155092Y-107592169D01*
X140175651Y-107586505D01*
X140235378Y-107569892D01*
X140332671Y-107542778D01*
X140465927Y-107505612D01*
X140633543Y-107458840D01*
X140833917Y-107402911D01*
X141065447Y-107338271D01*
X141326530Y-107265369D01*
X141615563Y-107184652D01*
X141930945Y-107096568D01*
X142271071Y-107001564D01*
X142634340Y-106900087D01*
X143019150Y-106792586D01*
X143423897Y-106679508D01*
X143846980Y-106561301D01*
X144286795Y-106438412D01*
X144741740Y-106311289D01*
X145210213Y-106180379D01*
X145690611Y-106046130D01*
X146087050Y-105935339D01*
X152013717Y-104279007D01*
X152013717Y-97591417D01*
X151967978Y-97492448D01*
X151888935Y-97364294D01*
X151780526Y-97248485D01*
X151655707Y-97158263D01*
X151625157Y-97142089D01*
X151505717Y-97083417D01*
X146161134Y-97077803D01*
X145526275Y-97077210D01*
X144933237Y-97076808D01*
X144381505Y-97076598D01*
X143870568Y-97076584D01*
X143399912Y-97076766D01*
X142969023Y-97077145D01*
X142577390Y-97077724D01*
X142224499Y-97078504D01*
X141909837Y-97079487D01*
X141632891Y-97080674D01*
X141393149Y-97082066D01*
X141190096Y-97083666D01*
X141023221Y-97085474D01*
X140892010Y-97087494D01*
X140795951Y-97089725D01*
X140734530Y-97092169D01*
X140708251Y-97094592D01*
X140571041Y-97141281D01*
X140438743Y-97219162D01*
X140326822Y-97318428D01*
X140295322Y-97356415D01*
X140279650Y-97375983D01*
X140265140Y-97392635D01*
X140251746Y-97407986D01*
X140239424Y-97423652D01*
X140228130Y-97441248D01*
X140217819Y-97462392D01*
X140208447Y-97488698D01*
X140199970Y-97521782D01*
X140192342Y-97563260D01*
X140185519Y-97614749D01*
X140179457Y-97677863D01*
X140174112Y-97754219D01*
X140169439Y-97845433D01*
X140165394Y-97953120D01*
X140161932Y-98078896D01*
X140159008Y-98224377D01*
X140156579Y-98391178D01*
X140154600Y-98580917D01*
X140153025Y-98795208D01*
X140151812Y-99035667D01*
X140150916Y-99303910D01*
X140150291Y-99601553D01*
X140149894Y-99930212D01*
X140149680Y-100291503D01*
X140149604Y-100687041D01*
X139239917Y-100687041D01*
X139239966Y-100553735D01*
X139240180Y-100172273D01*
X139240470Y-99823767D01*
X139240847Y-99506654D01*
X139241323Y-99219371D01*
X139241909Y-98960355D01*
X139242616Y-98728043D01*
X139243456Y-98520873D01*
X139244440Y-98337281D01*
X139245579Y-98175704D01*
X139246885Y-98034579D01*
X139248369Y-97912345D01*
X139250042Y-97807437D01*
X139251917Y-97718292D01*
X139254003Y-97643349D01*
X139256313Y-97581043D01*
X139258858Y-97529813D01*
X139261650Y-97488094D01*
X139264699Y-97454325D01*
X139268017Y-97426942D01*
X139271615Y-97404382D01*
X139275505Y-97385083D01*
X139279699Y-97367481D01*
X139280695Y-97363557D01*
X139364203Y-97119738D01*
X139483598Y-96896592D01*
X139636576Y-96696525D01*
X139820834Y-96521945D01*
X140034067Y-96375260D01*
X140273973Y-96258877D01*
X140372050Y-96222964D01*
X140520217Y-96173250D01*
X146023550Y-96167374D01*
X146597305Y-96166777D01*
X147130269Y-96166261D01*
X147623986Y-96165834D01*
X148079998Y-96165503D01*
X148499848Y-96165276D01*
X148885079Y-96165162D01*
X149237234Y-96165167D01*
X149557856Y-96165301D01*
X149848487Y-96165570D01*
X150110671Y-96165983D01*
X150345950Y-96166548D01*
X150555867Y-96167271D01*
X150741965Y-96168162D01*
X150905787Y-96169227D01*
X151048876Y-96170476D01*
X151172774Y-96171915D01*
X151279025Y-96173552D01*
X151369170Y-96175396D01*
X151444754Y-96177454D01*
X151507319Y-96179733D01*
X151558408Y-96182243D01*
X151599563Y-96184990D01*
X151632328Y-96187983D01*
X151658245Y-96191229D01*
X151678858Y-96194736D01*
X151685634Y-96196142D01*
X151935873Y-96271391D01*
X152164777Y-96383146D01*
X152371830Y-96531113D01*
X152515185Y-96668607D01*
X152676050Y-96870729D01*
X152798586Y-97088508D01*
X152884195Y-97325047D01*
X152934275Y-97583450D01*
X152936438Y-97602000D01*
X152938554Y-97642531D01*
X152940525Y-97724321D01*
X152942348Y-97846292D01*
X152944020Y-98007371D01*
X152945539Y-98206482D01*
X152946902Y-98442550D01*
X152948106Y-98714499D01*
X152949148Y-99021254D01*
X152950025Y-99361740D01*
X152950736Y-99734882D01*
X152951276Y-100139604D01*
X152951643Y-100574831D01*
X152951834Y-101039488D01*
X152951847Y-101532500D01*
X152951679Y-102052790D01*
X152951327Y-102599285D01*
X152950813Y-103147667D01*
X152945050Y-108513417D01*
X152898092Y-108678236D01*
X152805689Y-108928703D01*
X152678895Y-109155542D01*
X152519750Y-109356694D01*
X152330291Y-109530098D01*
X152112556Y-109673694D01*
X151868582Y-109785421D01*
X151769721Y-109818999D01*
X151611550Y-109867924D01*
X146161134Y-109870814D01*
X145682351Y-109871007D01*
X145213999Y-109871076D01*
X144757891Y-109871025D01*
X144315838Y-109870858D01*
X143889653Y-109870581D01*
X143481147Y-109870196D01*
X143092134Y-109869708D01*
X142724425Y-109869121D01*
X142379832Y-109868440D01*
X142060168Y-109867669D01*
X141767245Y-109866812D01*
X141502874Y-109865872D01*
X141268869Y-109864855D01*
X141067041Y-109863764D01*
X140899203Y-109862605D01*
X140767167Y-109861380D01*
X140672744Y-109860094D01*
X140617747Y-109858751D01*
X140604387Y-109857915D01*
X140365991Y-109802651D01*
X140126189Y-109706989D01*
X140075717Y-109681864D01*
X139923646Y-109586945D01*
X139770954Y-109461787D01*
X139627991Y-109316877D01*
X139505109Y-109162697D01*
X139413206Y-109010834D01*
X139366005Y-108906076D01*
X139321264Y-108789982D01*
X139287170Y-108684177D01*
X139281676Y-108663489D01*
X139277311Y-108645525D01*
X139273260Y-108626628D01*
X139269509Y-108605232D01*
X139267835Y-108592912D01*
X140238028Y-108592912D01*
X140238811Y-108595618D01*
X140307597Y-108691217D01*
X140405134Y-108783959D01*
X140518490Y-108863597D01*
X140634734Y-108919883D01*
X140657800Y-108927623D01*
X140683374Y-108929039D01*
X140749485Y-108930394D01*
X140854337Y-108931684D01*
X140996134Y-108932906D01*
X141173080Y-108934055D01*
X141383379Y-108935127D01*
X141625236Y-108936117D01*
X141896852Y-108937023D01*
X142196434Y-108937838D01*
X142522185Y-108938560D01*
X142872308Y-108939184D01*
X143245007Y-108939706D01*
X143638488Y-108940122D01*
X144050952Y-108940427D01*
X144480605Y-108940617D01*
X144925651Y-108940689D01*
X145384292Y-108940638D01*
X145854734Y-108940460D01*
X146118800Y-108940306D01*
X151526884Y-108936750D01*
X151637301Y-108878544D01*
X151783433Y-108779456D01*
X151897086Y-108653272D01*
X151958264Y-108546997D01*
X152013717Y-108428750D01*
X152019532Y-106843936D01*
X152025346Y-105259123D01*
X151977198Y-105271493D01*
X151953045Y-105278150D01*
X151889749Y-105295743D01*
X151788936Y-105323818D01*
X151652235Y-105361919D01*
X151481274Y-105409593D01*
X151277682Y-105466386D01*
X151043085Y-105531841D01*
X150779113Y-105605506D01*
X150487393Y-105686926D01*
X150169553Y-105775646D01*
X149827222Y-105871212D01*
X149462028Y-105973170D01*
X149075597Y-106081064D01*
X148669560Y-106194440D01*
X148245543Y-106312845D01*
X147805175Y-106435823D01*
X147350083Y-106562920D01*
X146881897Y-106693682D01*
X146402243Y-106827653D01*
X146073140Y-106919579D01*
X145493782Y-107081421D01*
X144953827Y-107232290D01*
X144451898Y-107372578D01*
X143986622Y-107502683D01*
X143556623Y-107622998D01*
X143160525Y-107733919D01*
X142796953Y-107835841D01*
X142464532Y-107929159D01*
X142161887Y-108014268D01*
X141887642Y-108091564D01*
X141640421Y-108161440D01*
X141418851Y-108224293D01*
X141221554Y-108280518D01*
X141047157Y-108330509D01*
X140894283Y-108374661D01*
X140761557Y-108413371D01*
X140647605Y-108447032D01*
X140551050Y-108476040D01*
X140470517Y-108500790D01*
X140404632Y-108521677D01*
X140352019Y-108539096D01*
X140311302Y-108553443D01*
X140281106Y-108565112D01*
X140260056Y-108574498D01*
X140246776Y-108581997D01*
X140239892Y-108588003D01*
X140238028Y-108592912D01*
X139267835Y-108592912D01*
X139266049Y-108579774D01*
X139262866Y-108548687D01*
G37*
D10*
X139262866Y-108548687D02*
X139259950Y-108510407D01*
X139257289Y-108463368D01*
X139254871Y-108406006D01*
X139252684Y-108336756D01*
X139250717Y-108254052D01*
X139248958Y-108156330D01*
X139247396Y-108042024D01*
X139246018Y-107909569D01*
X139244814Y-107757401D01*
X139243772Y-107583953D01*
X139242880Y-107387662D01*
X139242126Y-107166962D01*
X139241498Y-106920288D01*
X139240986Y-106646075D01*
X139240577Y-106342758D01*
X139240260Y-106008772D01*
X139240023Y-105642551D01*
X139239855Y-105242532D01*
X139239744Y-104807147D01*
X139239677Y-104334834D01*
X139239645Y-103824026D01*
X139239634Y-103273159D01*
X139239634Y-103010084D01*
X139239639Y-102440399D01*
X139239664Y-101911484D01*
X139239719Y-101421778D01*
X139239816Y-100969715D01*
X139239917Y-100687041D01*
X140149604Y-100687041D01*
X140149623Y-101118442D01*
X140149692Y-101587322D01*
X140149765Y-102095298D01*
X140149800Y-102643983D01*
X140149800Y-102646347D01*
X140149822Y-103100826D01*
X140149888Y-103544040D01*
X140149995Y-103974136D01*
X140150141Y-104389259D01*
X140150325Y-104787557D01*
X140150544Y-105167176D01*
X140150796Y-105526262D01*
X140151080Y-105862963D01*
X140151393Y-106175423D01*
X140151734Y-106461790D01*
X140152100Y-106720211D01*
X140152490Y-106948832D01*
X140152901Y-107145798D01*
X140153331Y-107309258D01*
X140153780Y-107437357D01*
X140154243Y-107528241D01*
X140154720Y-107580058D01*
X140155092Y-107592169D01*
X140175651Y-107586505D01*
X140235378Y-107569892D01*
X140332671Y-107542778D01*
X140465927Y-107505612D01*
X140633543Y-107458840D01*
X140833917Y-107402911D01*
X141065447Y-107338271D01*
X141326530Y-107265369D01*
X141615563Y-107184652D01*
X141930945Y-107096568D01*
X142271071Y-107001564D01*
X142634340Y-106900087D01*
X143019150Y-106792586D01*
X143423897Y-106679508D01*
X143846980Y-106561301D01*
X144286795Y-106438412D01*
X144741740Y-106311289D01*
X145210213Y-106180379D01*
X145690611Y-106046130D01*
X146087050Y-105935339D01*
X152013717Y-104279007D01*
X152013717Y-97591417D01*
X151967978Y-97492448D01*
X151888935Y-97364294D01*
X151780526Y-97248485D01*
X151655707Y-97158263D01*
X151625157Y-97142089D01*
X151505717Y-97083417D01*
X146161134Y-97077803D01*
X145526275Y-97077210D01*
X144933237Y-97076808D01*
X144381505Y-97076598D01*
X143870568Y-97076584D01*
X143399912Y-97076766D01*
X142969023Y-97077145D01*
X142577390Y-97077724D01*
X142224499Y-97078504D01*
X141909837Y-97079487D01*
X141632891Y-97080674D01*
X141393149Y-97082066D01*
X141190096Y-97083666D01*
X141023221Y-97085474D01*
X140892010Y-97087494D01*
X140795951Y-97089725D01*
X140734530Y-97092169D01*
X140708251Y-97094592D01*
X140571041Y-97141281D01*
X140438743Y-97219162D01*
X140326822Y-97318428D01*
X140295322Y-97356415D01*
X140279650Y-97375983D01*
X140265140Y-97392635D01*
X140251746Y-97407986D01*
X140239424Y-97423652D01*
X140228130Y-97441248D01*
X140217819Y-97462392D01*
X140208447Y-97488698D01*
X140199970Y-97521782D01*
X140192342Y-97563260D01*
X140185519Y-97614749D01*
X140179457Y-97677863D01*
X140174112Y-97754219D01*
X140169439Y-97845433D01*
X140165394Y-97953120D01*
X140161932Y-98078896D01*
X140159008Y-98224377D01*
X140156579Y-98391178D01*
X140154600Y-98580917D01*
X140153025Y-98795208D01*
X140151812Y-99035667D01*
X140150916Y-99303910D01*
X140150291Y-99601553D01*
X140149894Y-99930212D01*
X140149680Y-100291503D01*
X140149604Y-100687041D01*
X139239917Y-100687041D01*
X139239966Y-100553735D01*
X139240180Y-100172273D01*
X139240470Y-99823767D01*
X139240847Y-99506654D01*
X139241323Y-99219371D01*
X139241909Y-98960355D01*
X139242616Y-98728043D01*
X139243456Y-98520873D01*
X139244440Y-98337281D01*
X139245579Y-98175704D01*
X139246885Y-98034579D01*
X139248369Y-97912345D01*
X139250042Y-97807437D01*
X139251917Y-97718292D01*
X139254003Y-97643349D01*
X139256313Y-97581043D01*
X139258858Y-97529813D01*
X139261650Y-97488094D01*
X139264699Y-97454325D01*
X139268017Y-97426942D01*
X139271615Y-97404382D01*
X139275505Y-97385083D01*
X139279699Y-97367481D01*
X139280695Y-97363557D01*
X139364203Y-97119738D01*
X139483598Y-96896592D01*
X139636576Y-96696525D01*
X139820834Y-96521945D01*
X140034067Y-96375260D01*
X140273973Y-96258877D01*
X140372050Y-96222964D01*
X140520217Y-96173250D01*
X146023550Y-96167374D01*
X146597305Y-96166777D01*
X147130269Y-96166261D01*
X147623986Y-96165834D01*
X148079998Y-96165503D01*
X148499848Y-96165276D01*
X148885079Y-96165162D01*
X149237234Y-96165167D01*
X149557856Y-96165301D01*
X149848487Y-96165570D01*
X150110671Y-96165983D01*
X150345950Y-96166548D01*
X150555867Y-96167271D01*
X150741965Y-96168162D01*
X150905787Y-96169227D01*
X151048876Y-96170476D01*
X151172774Y-96171915D01*
X151279025Y-96173552D01*
X151369170Y-96175396D01*
X151444754Y-96177454D01*
X151507319Y-96179733D01*
X151558408Y-96182243D01*
X151599563Y-96184990D01*
X151632328Y-96187983D01*
X151658245Y-96191229D01*
X151678858Y-96194736D01*
X151685634Y-96196142D01*
X151935873Y-96271391D01*
X152164777Y-96383146D01*
X152371830Y-96531113D01*
X152515185Y-96668607D01*
X152676050Y-96870729D01*
X152798586Y-97088508D01*
X152884195Y-97325047D01*
X152934275Y-97583450D01*
X152936438Y-97602000D01*
X152938554Y-97642531D01*
X152940525Y-97724321D01*
X152942348Y-97846292D01*
X152944020Y-98007371D01*
X152945539Y-98206482D01*
X152946902Y-98442550D01*
X152948106Y-98714499D01*
X152949148Y-99021254D01*
X152950025Y-99361740D01*
X152950736Y-99734882D01*
X152951276Y-100139604D01*
X152951643Y-100574831D01*
X152951834Y-101039488D01*
X152951847Y-101532500D01*
X152951679Y-102052790D01*
X152951327Y-102599285D01*
X152950813Y-103147667D01*
X152945050Y-108513417D01*
X152898092Y-108678236D01*
X152805689Y-108928703D01*
X152678895Y-109155542D01*
X152519750Y-109356694D01*
X152330291Y-109530098D01*
X152112556Y-109673694D01*
X151868582Y-109785421D01*
X151769721Y-109818999D01*
X151611550Y-109867924D01*
X146161134Y-109870814D01*
X145682351Y-109871007D01*
X145213999Y-109871076D01*
X144757891Y-109871025D01*
X144315838Y-109870858D01*
X143889653Y-109870581D01*
X143481147Y-109870196D01*
X143092134Y-109869708D01*
X142724425Y-109869121D01*
X142379832Y-109868440D01*
X142060168Y-109867669D01*
X141767245Y-109866812D01*
X141502874Y-109865872D01*
X141268869Y-109864855D01*
X141067041Y-109863764D01*
X140899203Y-109862605D01*
X140767167Y-109861380D01*
X140672744Y-109860094D01*
X140617747Y-109858751D01*
X140604387Y-109857915D01*
X140365991Y-109802651D01*
X140126189Y-109706989D01*
X140075717Y-109681864D01*
X139923646Y-109586945D01*
X139770954Y-109461787D01*
X139627991Y-109316877D01*
X139505109Y-109162697D01*
X139413206Y-109010834D01*
X139366005Y-108906076D01*
X139321264Y-108789982D01*
X139287170Y-108684177D01*
X139281676Y-108663489D01*
X139277311Y-108645525D01*
X139273260Y-108626628D01*
X139269509Y-108605232D01*
X139267835Y-108592912D01*
X140238028Y-108592912D01*
X140238811Y-108595618D01*
X140307597Y-108691217D01*
X140405134Y-108783959D01*
X140518490Y-108863597D01*
X140634734Y-108919883D01*
X140657800Y-108927623D01*
X140683374Y-108929039D01*
X140749485Y-108930394D01*
X140854337Y-108931684D01*
X140996134Y-108932906D01*
X141173080Y-108934055D01*
X141383379Y-108935127D01*
X141625236Y-108936117D01*
X141896852Y-108937023D01*
X142196434Y-108937838D01*
X142522185Y-108938560D01*
X142872308Y-108939184D01*
X143245007Y-108939706D01*
X143638488Y-108940122D01*
X144050952Y-108940427D01*
X144480605Y-108940617D01*
X144925651Y-108940689D01*
X145384292Y-108940638D01*
X145854734Y-108940460D01*
X146118800Y-108940306D01*
X151526884Y-108936750D01*
X151637301Y-108878544D01*
X151783433Y-108779456D01*
X151897086Y-108653272D01*
X151958264Y-108546997D01*
X152013717Y-108428750D01*
X152019532Y-106843936D01*
X152025346Y-105259123D01*
X151977198Y-105271493D01*
X151953045Y-105278150D01*
X151889749Y-105295743D01*
X151788936Y-105323818D01*
X151652235Y-105361919D01*
X151481274Y-105409593D01*
X151277682Y-105466386D01*
X151043085Y-105531841D01*
X150779113Y-105605506D01*
X150487393Y-105686926D01*
X150169553Y-105775646D01*
X149827222Y-105871212D01*
X149462028Y-105973170D01*
X149075597Y-106081064D01*
X148669560Y-106194440D01*
X148245543Y-106312845D01*
X147805175Y-106435823D01*
X147350083Y-106562920D01*
X146881897Y-106693682D01*
X146402243Y-106827653D01*
X146073140Y-106919579D01*
X145493782Y-107081421D01*
X144953827Y-107232290D01*
X144451898Y-107372578D01*
X143986622Y-107502683D01*
X143556623Y-107622998D01*
X143160525Y-107733919D01*
X142796953Y-107835841D01*
X142464532Y-107929159D01*
X142161887Y-108014268D01*
X141887642Y-108091564D01*
X141640421Y-108161440D01*
X141418851Y-108224293D01*
X141221554Y-108280518D01*
X141047157Y-108330509D01*
X140894283Y-108374661D01*
X140761557Y-108413371D01*
X140647605Y-108447032D01*
X140551050Y-108476040D01*
X140470517Y-108500790D01*
X140404632Y-108521677D01*
X140352019Y-108539096D01*
X140311302Y-108553443D01*
X140281106Y-108565112D01*
X140260056Y-108574498D01*
X140246776Y-108581997D01*
X140239892Y-108588003D01*
X140238028Y-108592912D01*
X139267835Y-108592912D01*
X139266049Y-108579774D01*
X139262866Y-108548687D01*
%TD*%
D11*
%TO.C,X1*%
X130489000Y-108808200D03*
D12*
X130489000Y-111348200D03*
D11*
X133029000Y-108808200D03*
X133029000Y-111348200D03*
D13*
X135569000Y-108808200D03*
X135569000Y-111348200D03*
%TD*%
M02*
