%TF.GenerationSoftware,KiCad,Pcbnew,(6.0.7)*%
%TF.CreationDate,2022-09-05T18:40:36-05:00*%
%TF.ProjectId,Red Canary,52656420-4361-46e6-9172-792e6b696361,rev?*%
%TF.SameCoordinates,Original*%
%TF.FileFunction,Copper,L2,Bot*%
%TF.FilePolarity,Positive*%
%FSLAX46Y46*%
G04 Gerber Fmt 4.6, Leading zero omitted, Abs format (unit mm)*
G04 Created by KiCad (PCBNEW (6.0.7)) date 2022-09-05 18:40:36*
%MOMM*%
%LPD*%
G01*
G04 APERTURE LIST*
%TA.AperFunction,EtchedComponent*%
%ADD10C,0.010000*%
%TD*%
%TA.AperFunction,ComponentPad*%
%ADD11O,1.727200X1.727200*%
%TD*%
%TA.AperFunction,ComponentPad*%
%ADD12R,1.727200X1.727200*%
%TD*%
%TA.AperFunction,ComponentPad*%
%ADD13C,1.727200*%
%TD*%
G04 APERTURE END LIST*
%TO.C,G\u002A\u002A\u002A*%
G36*
X177547372Y-105115140D02*
G01*
X177633560Y-105234094D01*
X177773394Y-105427089D01*
X177879854Y-105609292D01*
X177944435Y-105719822D01*
X177983592Y-105803221D01*
X177989740Y-105817703D01*
X178058540Y-105979766D01*
X178138082Y-106183183D01*
X178207982Y-106377223D01*
X178210470Y-106384130D01*
X178217231Y-106403940D01*
X178272462Y-106570545D01*
X178310320Y-106703699D01*
X178334149Y-106825723D01*
X178345218Y-106937908D01*
X178347292Y-106958936D01*
X178349960Y-107035600D01*
X178353094Y-107125661D01*
X178354897Y-107348216D01*
X178355175Y-107428151D01*
X178354148Y-107594318D01*
X178351946Y-107638748D01*
X178347077Y-107737045D01*
X178330304Y-107858036D01*
X178329402Y-107864543D01*
X178296566Y-107985023D01*
X178244009Y-108106696D01*
X178167172Y-108237773D01*
X178105081Y-108325139D01*
X178061498Y-108386465D01*
X178022137Y-108435857D01*
X177922426Y-108560983D01*
X177773262Y-108736709D01*
X177745397Y-108769537D01*
X177525854Y-109020340D01*
X177259237Y-109321600D01*
X177221074Y-109364910D01*
X177040896Y-109580060D01*
X177009953Y-109617009D01*
X176940300Y-109712369D01*
X176853917Y-109830634D01*
X176845467Y-109842203D01*
X176715720Y-110060109D01*
X176686934Y-110122104D01*
X176608819Y-110290344D01*
X176512868Y-110552523D01*
X176506391Y-110572062D01*
X176506169Y-110572734D01*
X176474726Y-110669754D01*
X176456814Y-110725026D01*
X176450238Y-110747908D01*
X176420798Y-110850360D01*
X176395694Y-110966253D01*
X176379073Y-111090221D01*
X176375650Y-111138677D01*
X176369576Y-111224680D01*
X176368510Y-111239783D01*
X176362833Y-111397524D01*
X176361577Y-111432455D01*
X176355846Y-111685754D01*
X176355742Y-111690155D01*
X176355547Y-111698416D01*
X176351086Y-111887734D01*
X176344641Y-112100308D01*
X176337715Y-112277519D01*
X176330875Y-112405106D01*
X176324689Y-112468809D01*
X176322180Y-112475508D01*
X176271952Y-112529560D01*
X176170683Y-112608187D01*
X176033720Y-112701692D01*
X175876408Y-112800377D01*
X175714095Y-112894544D01*
X175562125Y-112974494D01*
X175435846Y-113030529D01*
X175328384Y-113071050D01*
X175328384Y-112599231D01*
X175327798Y-112509500D01*
X175315645Y-112247765D01*
X175284583Y-112053083D01*
X175230414Y-111917762D01*
X175148939Y-111834109D01*
X175035959Y-111794433D01*
X174887276Y-111791042D01*
X174867017Y-111792622D01*
X174766554Y-111810738D01*
X174704231Y-111857908D01*
X174647806Y-111956396D01*
X174636086Y-111982012D01*
X174608995Y-112061894D01*
X174588516Y-112165547D01*
X174572984Y-112306566D01*
X174560738Y-112498548D01*
X174550113Y-112755087D01*
X174527308Y-113400367D01*
X174390538Y-113436113D01*
X174317205Y-113454474D01*
X174172540Y-113488717D01*
X174019308Y-113523315D01*
X173916303Y-113543394D01*
X173753693Y-113567279D01*
X173622516Y-113577878D01*
X173460187Y-113580985D01*
X173446670Y-113041859D01*
X173440280Y-112840801D01*
X173430030Y-112665255D01*
X173415130Y-112542148D01*
X173393803Y-112457596D01*
X173364275Y-112397711D01*
X173305326Y-112329086D01*
X173182678Y-112264060D01*
X173047485Y-112263048D01*
X172917678Y-112324462D01*
X172811188Y-112446712D01*
X172809856Y-112449003D01*
X172776213Y-112517844D01*
X172753653Y-112597784D01*
X172740026Y-112705574D01*
X172733182Y-112857971D01*
X172730970Y-113071728D01*
X172729769Y-113561446D01*
X172573461Y-113571413D01*
X172521532Y-113571078D01*
X172384060Y-113557477D01*
X172210539Y-113530327D01*
X172026384Y-113493259D01*
X171635615Y-113405139D01*
X171634746Y-112760369D01*
X171633984Y-112584540D01*
X171630432Y-112379753D01*
X171622913Y-112230881D01*
X171610221Y-112124639D01*
X171591149Y-112047747D01*
X171564490Y-111986921D01*
X171538393Y-111952298D01*
X174117000Y-111952298D01*
X174117001Y-111952737D01*
X174139500Y-111978736D01*
X174203635Y-111943515D01*
X174305406Y-111849262D01*
X174343725Y-111807535D01*
X174397901Y-111736117D01*
X174409713Y-111698416D01*
X174405324Y-111696813D01*
X174359303Y-111718812D01*
X174285795Y-111774152D01*
X174206464Y-111844041D01*
X174142977Y-111909687D01*
X174117000Y-111952298D01*
X171538393Y-111952298D01*
X171493703Y-111893009D01*
X171367451Y-111811754D01*
X171225291Y-111786335D01*
X171121757Y-111811150D01*
X171087704Y-111819312D01*
X170975171Y-111913248D01*
X170960166Y-111934593D01*
X170930361Y-111991774D01*
X170909674Y-112066603D01*
X170895829Y-112174208D01*
X170886547Y-112329714D01*
X170879550Y-112548248D01*
X170871487Y-112769696D01*
X170858999Y-112940632D01*
X170842285Y-113040505D01*
X170820935Y-113072979D01*
X170819706Y-113072908D01*
X170766375Y-113052536D01*
X170660902Y-113001091D01*
X170517985Y-112926043D01*
X170352324Y-112834861D01*
X170257294Y-112780783D01*
X170093871Y-112681992D01*
X169983893Y-112603799D01*
X169915595Y-112537254D01*
X169877210Y-112473405D01*
X169876519Y-112471726D01*
X169853771Y-112377739D01*
X169838075Y-112222341D01*
X169829065Y-112000027D01*
X169827157Y-111790773D01*
X170452724Y-111790773D01*
X170461548Y-111810057D01*
X170515049Y-111851233D01*
X170573211Y-111836363D01*
X170592895Y-111811150D01*
X170588962Y-111763274D01*
X170518667Y-111744369D01*
X170471986Y-111753902D01*
X170452724Y-111790773D01*
X169827157Y-111790773D01*
X169826377Y-111705292D01*
X171381615Y-111705292D01*
X171382063Y-111714136D01*
X171398848Y-111744369D01*
X171405116Y-111742571D01*
X171440231Y-111705292D01*
X171446337Y-111690155D01*
X171422998Y-111666216D01*
X171411656Y-111667717D01*
X171381615Y-111705292D01*
X169826377Y-111705292D01*
X169824884Y-111535292D01*
X174198339Y-111535292D01*
X174213085Y-111585462D01*
X174233353Y-111605141D01*
X174304921Y-111625896D01*
X174330692Y-111624479D01*
X174344604Y-111610042D01*
X174295699Y-111567684D01*
X174283295Y-111560388D01*
X174538260Y-111560388D01*
X174580347Y-111610042D01*
X174602611Y-111636309D01*
X174633435Y-111654978D01*
X174671436Y-111657740D01*
X174723309Y-111625248D01*
X174810615Y-111548390D01*
X174896988Y-111461320D01*
X174930308Y-111397524D01*
X174896197Y-111363593D01*
X174794154Y-111353600D01*
X174702994Y-111363664D01*
X174598191Y-111409690D01*
X174563806Y-111451292D01*
X174540033Y-111480056D01*
X174538260Y-111560388D01*
X174283295Y-111560388D01*
X174234785Y-111531855D01*
X174198339Y-111535292D01*
X169824884Y-111535292D01*
X169824306Y-111469487D01*
X169823472Y-111451292D01*
X171342538Y-111451292D01*
X171362077Y-111470831D01*
X171381615Y-111451292D01*
X171362077Y-111431754D01*
X171342538Y-111451292D01*
X169823472Y-111451292D01*
X169808287Y-111120053D01*
X169803447Y-111079084D01*
X170566337Y-111079084D01*
X170575512Y-111134168D01*
X170639154Y-111158216D01*
X170684579Y-111165543D01*
X170717308Y-111197292D01*
X170718443Y-111206633D01*
X170756384Y-111236369D01*
X170773640Y-111235951D01*
X170791631Y-111224680D01*
X170784841Y-111181892D01*
X170770313Y-111138677D01*
X175250231Y-111138677D01*
X175269769Y-111158216D01*
X175289308Y-111138677D01*
X175269769Y-111119139D01*
X175250231Y-111138677D01*
X170770313Y-111138677D01*
X170752759Y-111086458D01*
X170727412Y-111023513D01*
X170690575Y-110987430D01*
X170635528Y-111003848D01*
X170612230Y-111018555D01*
X170566337Y-111079084D01*
X169803447Y-111079084D01*
X169772848Y-110820054D01*
X169756931Y-110747908D01*
X170756384Y-110747908D01*
X170775923Y-110767446D01*
X170795461Y-110747908D01*
X175758231Y-110747908D01*
X175777769Y-110767446D01*
X175797308Y-110747908D01*
X175777769Y-110728369D01*
X175758231Y-110747908D01*
X170795461Y-110747908D01*
X170775923Y-110728369D01*
X170756384Y-110747908D01*
X169756931Y-110747908D01*
X169748818Y-110711137D01*
X174234231Y-110711137D01*
X174235247Y-110715037D01*
X174273308Y-110728369D01*
X174284018Y-110726779D01*
X174312384Y-110686986D01*
X174309316Y-110672852D01*
X174273308Y-110669754D01*
X174261613Y-110677774D01*
X174234231Y-110711137D01*
X169748818Y-110711137D01*
X169730306Y-110627228D01*
X174828087Y-110627228D01*
X174857256Y-110671529D01*
X174920157Y-110682674D01*
X174960544Y-110669754D01*
X175641000Y-110669754D01*
X175660538Y-110689292D01*
X175680077Y-110669754D01*
X175660538Y-110650216D01*
X175641000Y-110669754D01*
X174960544Y-110669754D01*
X174986977Y-110661298D01*
X175027902Y-110608040D01*
X175034196Y-110576816D01*
X175022887Y-110551738D01*
X175805656Y-110551738D01*
X175808186Y-110576816D01*
X175810333Y-110598113D01*
X175822087Y-110604226D01*
X175836384Y-110572062D01*
X175833564Y-110551374D01*
X175810333Y-110546010D01*
X175805656Y-110551738D01*
X175022887Y-110551738D01*
X175017960Y-110540813D01*
X174944662Y-110540453D01*
X174872174Y-110563934D01*
X174829283Y-110612285D01*
X174828087Y-110627228D01*
X169730306Y-110627228D01*
X169713722Y-110552062D01*
X169626642Y-110298646D01*
X169557190Y-110149458D01*
X170589952Y-110149458D01*
X170668962Y-110228469D01*
X170681744Y-110239962D01*
X170781940Y-110297692D01*
X170904142Y-110336037D01*
X170998937Y-110349443D01*
X171044023Y-110340133D01*
X171048107Y-110302251D01*
X171042926Y-110272988D01*
X171032913Y-110191962D01*
X171005040Y-110142220D01*
X170935208Y-110081958D01*
X170880283Y-110051992D01*
X172562416Y-110051992D01*
X172597841Y-110192590D01*
X172667518Y-110302251D01*
X172679034Y-110320377D01*
X172807287Y-110449030D01*
X172928950Y-110529734D01*
X173098766Y-110572813D01*
X173265559Y-110546653D01*
X173414467Y-110454335D01*
X173530631Y-110298945D01*
X173576022Y-110189157D01*
X173602864Y-110025035D01*
X174450132Y-110025035D01*
X174456027Y-110087420D01*
X174459916Y-110095764D01*
X174505503Y-110134129D01*
X174559714Y-110140109D01*
X174585923Y-110107923D01*
X174585425Y-110101771D01*
X174561074Y-110060774D01*
X175445615Y-110060774D01*
X175464974Y-110107923D01*
X175470517Y-110121424D01*
X175543483Y-110176080D01*
X175631231Y-110190375D01*
X175701822Y-110167006D01*
X175709592Y-110122104D01*
X175646651Y-110049637D01*
X175624099Y-110033087D01*
X175546445Y-110008748D01*
X175476199Y-110018573D01*
X175445615Y-110060774D01*
X174561074Y-110060774D01*
X174554872Y-110050333D01*
X174501098Y-110010921D01*
X174458020Y-110009606D01*
X174455010Y-110015493D01*
X174450132Y-110025035D01*
X173602864Y-110025035D01*
X173604425Y-110015493D01*
X173596887Y-109939150D01*
X174664318Y-109939150D01*
X174691856Y-109946831D01*
X174726746Y-109933310D01*
X174786292Y-109878446D01*
X174812385Y-109844238D01*
X174814913Y-109830634D01*
X174761769Y-109867389D01*
X174708046Y-109906590D01*
X174667333Y-109935773D01*
X174664318Y-109939150D01*
X173596887Y-109939150D01*
X173584713Y-109815843D01*
X173550010Y-109692045D01*
X176626272Y-109692045D01*
X176630949Y-109738421D01*
X176642702Y-109744534D01*
X176657000Y-109712369D01*
X176654180Y-109691682D01*
X176630949Y-109686318D01*
X176626272Y-109692045D01*
X173550010Y-109692045D01*
X173522198Y-109592832D01*
X174156077Y-109592832D01*
X174160111Y-109614475D01*
X174199607Y-109654082D01*
X174248319Y-109646179D01*
X174258928Y-109634012D01*
X174268585Y-109580060D01*
X174214692Y-109556062D01*
X174187762Y-109560199D01*
X174156077Y-109592832D01*
X173522198Y-109592832D01*
X173516548Y-109572675D01*
X173414280Y-109295302D01*
X173364146Y-109184831D01*
X173960692Y-109184831D01*
X173980231Y-109204369D01*
X173999769Y-109184831D01*
X173980231Y-109165292D01*
X173960692Y-109184831D01*
X173364146Y-109184831D01*
X173312364Y-109070727D01*
X173216639Y-108918491D01*
X173125381Y-108835891D01*
X173036866Y-108820221D01*
X173031568Y-108821329D01*
X172994056Y-108837052D01*
X172957702Y-108873149D01*
X172916880Y-108940215D01*
X172865963Y-109048846D01*
X172799324Y-109209637D01*
X172711335Y-109433183D01*
X172623699Y-109677654D01*
X172571466Y-109884905D01*
X172567053Y-109966369D01*
X172562416Y-110051992D01*
X170880283Y-110051992D01*
X170867301Y-110044909D01*
X170805242Y-110044594D01*
X170715223Y-110084678D01*
X170589952Y-110149458D01*
X169557190Y-110149458D01*
X169507340Y-110042376D01*
X169464523Y-109966369D01*
X170717308Y-109966369D01*
X170736846Y-109985908D01*
X170756384Y-109966369D01*
X170736846Y-109946831D01*
X170717308Y-109966369D01*
X169464523Y-109966369D01*
X169351550Y-109765823D01*
X169231253Y-109565276D01*
X169529474Y-109423651D01*
X169827696Y-109282027D01*
X170031175Y-109398446D01*
X170042700Y-109404986D01*
X170324316Y-109529020D01*
X170601732Y-109578852D01*
X170886572Y-109556630D01*
X171088341Y-109504082D01*
X171398653Y-109362921D01*
X171665646Y-109158706D01*
X171887445Y-108893882D01*
X172062178Y-108570893D01*
X172187973Y-108192184D01*
X172262956Y-107760198D01*
X172267401Y-107719693D01*
X172286580Y-107595427D01*
X172290883Y-107584118D01*
X173910526Y-107584118D01*
X173916852Y-107926238D01*
X173976660Y-108246985D01*
X174019753Y-108376602D01*
X174154192Y-108663736D01*
X174330308Y-108931396D01*
X174536043Y-109164980D01*
X174560015Y-109184831D01*
X174759337Y-109349889D01*
X174988128Y-109471520D01*
X175305469Y-109556493D01*
X175611536Y-109567508D01*
X175899733Y-109502481D01*
X176169404Y-109361560D01*
X176215602Y-109321600D01*
X177008692Y-109321600D01*
X177015305Y-109339577D01*
X177067308Y-109360677D01*
X177094272Y-109356268D01*
X177125923Y-109321600D01*
X177119310Y-109303624D01*
X177067308Y-109282523D01*
X177040343Y-109286932D01*
X177008692Y-109321600D01*
X176215602Y-109321600D01*
X176419895Y-109144894D01*
X176455034Y-109106997D01*
X176627082Y-108886696D01*
X176684897Y-108774395D01*
X177146919Y-108774395D01*
X177152238Y-108811009D01*
X177183016Y-108776987D01*
X177183190Y-108776710D01*
X177236391Y-108753543D01*
X177327355Y-108756050D01*
X177388175Y-108759940D01*
X177431018Y-108736709D01*
X177411193Y-108691143D01*
X177328549Y-108638257D01*
X177277053Y-108599919D01*
X177240516Y-108501488D01*
X177234990Y-108472102D01*
X177216080Y-108499404D01*
X177210257Y-108518217D01*
X177185356Y-108598677D01*
X177175361Y-108637754D01*
X177167016Y-108670387D01*
X177146919Y-108774395D01*
X176684897Y-108774395D01*
X176747267Y-108653246D01*
X176752013Y-108637754D01*
X177047769Y-108637754D01*
X177067308Y-108657292D01*
X177086846Y-108637754D01*
X177067308Y-108618216D01*
X177047769Y-108637754D01*
X176752013Y-108637754D01*
X176781232Y-108542368D01*
X177047769Y-108542368D01*
X177048888Y-108551092D01*
X177086846Y-108579139D01*
X177105521Y-108571683D01*
X177125923Y-108518217D01*
X177120300Y-108490305D01*
X177086846Y-108481446D01*
X177076174Y-108489445D01*
X177047769Y-108542368D01*
X176781232Y-108542368D01*
X176810259Y-108447610D01*
X177484527Y-108447610D01*
X177516692Y-108461908D01*
X177537379Y-108459088D01*
X177542743Y-108435857D01*
X177537016Y-108431180D01*
X177490641Y-108435857D01*
X177484527Y-108447610D01*
X176810259Y-108447610D01*
X176832435Y-108375215D01*
X176842708Y-108325139D01*
X177243154Y-108325139D01*
X177262692Y-108344677D01*
X177282231Y-108325139D01*
X177262692Y-108305600D01*
X177243154Y-108325139D01*
X176842708Y-108325139D01*
X176857840Y-108251381D01*
X176889274Y-107858036D01*
X176869416Y-107676365D01*
X177213388Y-107676365D01*
X177214543Y-107762941D01*
X177221449Y-107797600D01*
X177244284Y-107766201D01*
X177260293Y-107690194D01*
X177264456Y-107604047D01*
X177257073Y-107565683D01*
X177956119Y-107565683D01*
X177966077Y-107602216D01*
X177967348Y-107604047D01*
X177974105Y-107613783D01*
X178009766Y-107641292D01*
X178015111Y-107638748D01*
X178005154Y-107602216D01*
X177997125Y-107590648D01*
X177961464Y-107563139D01*
X177956119Y-107565683D01*
X177257073Y-107565683D01*
X177252567Y-107542269D01*
X177243754Y-107530195D01*
X177224445Y-107547343D01*
X177214445Y-107641439D01*
X177213388Y-107676365D01*
X176869416Y-107676365D01*
X176847268Y-107473752D01*
X176734360Y-107107729D01*
X176668578Y-106984866D01*
X176855339Y-106984866D01*
X176875554Y-107055474D01*
X176894800Y-107096089D01*
X176919896Y-107111812D01*
X176958007Y-107059324D01*
X176965618Y-107046758D01*
X176975330Y-107016062D01*
X177594846Y-107016062D01*
X177601459Y-107034038D01*
X177653461Y-107055139D01*
X177680426Y-107050730D01*
X177694239Y-107035600D01*
X177751154Y-107035600D01*
X177770692Y-107055139D01*
X177790231Y-107035600D01*
X177770692Y-107016062D01*
X177751154Y-107035600D01*
X177694239Y-107035600D01*
X177712077Y-107016062D01*
X177705464Y-106998085D01*
X177653461Y-106976985D01*
X177626497Y-106981393D01*
X177617928Y-106990778D01*
X177594846Y-107016062D01*
X176975330Y-107016062D01*
X176983329Y-106990778D01*
X176942645Y-106960002D01*
X176908800Y-106950752D01*
X176860191Y-106956152D01*
X176855339Y-106984866D01*
X176668578Y-106984866D01*
X176643436Y-106937908D01*
X177145461Y-106937908D01*
X177153460Y-106948580D01*
X177206383Y-106976985D01*
X177215107Y-106975866D01*
X177243154Y-106937908D01*
X177235698Y-106919233D01*
X177182232Y-106898831D01*
X177154320Y-106904454D01*
X177145461Y-106937908D01*
X176643436Y-106937908D01*
X176553089Y-106769165D01*
X176305993Y-106467257D01*
X176298706Y-106459978D01*
X176232987Y-106406670D01*
X177612843Y-106406670D01*
X177613327Y-106467273D01*
X177622733Y-106480568D01*
X177682286Y-106504679D01*
X177761008Y-106453548D01*
X177814903Y-106423543D01*
X177920107Y-106419026D01*
X177929977Y-106420821D01*
X178003642Y-106420019D01*
X178024692Y-106377223D01*
X178019338Y-106344824D01*
X177969754Y-106284074D01*
X177894740Y-106263195D01*
X177827758Y-106295445D01*
X177827150Y-106295738D01*
X177790905Y-106325825D01*
X177728212Y-106336317D01*
X177719278Y-106333760D01*
X177657566Y-106351444D01*
X177612843Y-106406670D01*
X176232987Y-106406670D01*
X176094766Y-106294553D01*
X177146138Y-106294553D01*
X177186737Y-106327652D01*
X177236003Y-106345026D01*
X177274813Y-106342998D01*
X177282231Y-106295445D01*
X177273321Y-106248325D01*
X177228572Y-106215442D01*
X177168430Y-106249928D01*
X177146138Y-106294553D01*
X176094766Y-106294553D01*
X176036269Y-106247103D01*
X175754627Y-106104071D01*
X175462955Y-106030031D01*
X175170428Y-106024132D01*
X174886221Y-106085524D01*
X174619508Y-106213354D01*
X174379464Y-106406771D01*
X174175265Y-106664925D01*
X174047250Y-106924002D01*
X173954916Y-107242687D01*
X173910526Y-107584118D01*
X172290883Y-107584118D01*
X172319620Y-107508593D01*
X172381861Y-107429974D01*
X172488644Y-107330352D01*
X172643807Y-107186787D01*
X172878380Y-106957009D01*
X173132927Y-106696299D01*
X173391841Y-106421303D01*
X173639512Y-106148669D01*
X173860332Y-105895047D01*
X173914005Y-105829456D01*
X176781143Y-105829456D01*
X176813308Y-105843754D01*
X176833995Y-105840934D01*
X176839359Y-105817703D01*
X176833631Y-105813026D01*
X176787256Y-105817703D01*
X176781143Y-105829456D01*
X173914005Y-105829456D01*
X174038692Y-105677083D01*
X174054677Y-105656894D01*
X174138352Y-105561074D01*
X174201024Y-105505400D01*
X174230167Y-105501369D01*
X174284637Y-105574807D01*
X174380769Y-105608694D01*
X174407719Y-105588969D01*
X174633349Y-105588969D01*
X174638026Y-105635344D01*
X174649779Y-105641457D01*
X174664077Y-105609292D01*
X174661257Y-105588605D01*
X174638026Y-105583241D01*
X174633349Y-105588969D01*
X174407719Y-105588969D01*
X174418256Y-105581257D01*
X174428277Y-105513135D01*
X174410484Y-105436262D01*
X174366849Y-105382666D01*
X174355590Y-105373909D01*
X174348149Y-105343394D01*
X174367970Y-105289202D01*
X174420352Y-105201922D01*
X174460922Y-105143576D01*
X176774231Y-105143576D01*
X176774298Y-105144937D01*
X176804052Y-105151103D01*
X176871621Y-105117435D01*
X176941094Y-105085733D01*
X177018434Y-105077082D01*
X177067826Y-105097109D01*
X177065832Y-105142757D01*
X177050171Y-105158512D01*
X176988058Y-105164895D01*
X176960037Y-105161082D01*
X176896904Y-105192426D01*
X176885919Y-105213749D01*
X176914967Y-105234022D01*
X177011278Y-105239838D01*
X177043866Y-105239707D01*
X177130320Y-105237718D01*
X177165000Y-105234094D01*
X177162722Y-105226036D01*
X177142405Y-105165483D01*
X177107875Y-105066440D01*
X177094998Y-105026348D01*
X177071156Y-104914240D01*
X177071749Y-104836835D01*
X177079699Y-104810525D01*
X177080827Y-104790923D01*
X177048778Y-104837523D01*
X176997724Y-104881037D01*
X176904501Y-104905908D01*
X176877939Y-104906623D01*
X176824188Y-104925867D01*
X176824620Y-104984023D01*
X176829856Y-105033480D01*
X176809639Y-105084021D01*
X176802468Y-105089235D01*
X176774231Y-105143576D01*
X174460922Y-105143576D01*
X174510592Y-105072144D01*
X174643991Y-104890458D01*
X174786766Y-104693291D01*
X174859461Y-104693291D01*
X174859842Y-104698754D01*
X174882462Y-104707359D01*
X174921808Y-104665409D01*
X174931316Y-104643571D01*
X174904576Y-104648176D01*
X174887217Y-104660239D01*
X174859461Y-104693291D01*
X174786766Y-104693291D01*
X174793730Y-104683674D01*
X174951844Y-104456523D01*
X175015769Y-104456523D01*
X175035308Y-104476062D01*
X175054846Y-104456523D01*
X175035308Y-104436985D01*
X175015769Y-104456523D01*
X174951844Y-104456523D01*
X174960846Y-104443591D01*
X175031978Y-104337762D01*
X176453772Y-104337762D01*
X176459173Y-104372019D01*
X176478179Y-104398558D01*
X176494006Y-104456523D01*
X176500692Y-104481015D01*
X176501330Y-104488196D01*
X176541172Y-104551099D01*
X176623927Y-104609969D01*
X176661494Y-104628095D01*
X176701663Y-104643571D01*
X176758847Y-104665603D01*
X176800391Y-104663217D01*
X176780651Y-104620567D01*
X176760967Y-104580843D01*
X176758199Y-104493567D01*
X176763934Y-104462578D01*
X176743279Y-104365108D01*
X176666260Y-104308275D01*
X176546930Y-104304645D01*
X176519675Y-104310615D01*
X176453772Y-104337762D01*
X175031978Y-104337762D01*
X175120891Y-104205480D01*
X175198125Y-104085292D01*
X176129461Y-104085292D01*
X176137482Y-104096987D01*
X176170845Y-104124369D01*
X176174744Y-104123353D01*
X176188077Y-104085292D01*
X176186487Y-104074582D01*
X176146694Y-104046216D01*
X176132560Y-104049284D01*
X176129461Y-104085292D01*
X175198125Y-104085292D01*
X175253436Y-103999219D01*
X175272505Y-103968529D01*
X175372130Y-103809066D01*
X175455399Y-103677196D01*
X175514077Y-103585888D01*
X175539927Y-103548109D01*
X175552337Y-103546129D01*
X175621298Y-103569020D01*
X175736025Y-103623457D01*
X175882881Y-103701751D01*
X176048225Y-103796218D01*
X176218420Y-103899170D01*
X176379826Y-104002921D01*
X176498012Y-104085292D01*
X176518805Y-104099784D01*
X176684713Y-104229106D01*
X176988502Y-104499638D01*
X177147486Y-104663217D01*
X177280898Y-104800486D01*
X177547372Y-105115140D01*
G37*
D10*
X177547372Y-105115140D02*
X177633560Y-105234094D01*
X177773394Y-105427089D01*
X177879854Y-105609292D01*
X177944435Y-105719822D01*
X177983592Y-105803221D01*
X177989740Y-105817703D01*
X178058540Y-105979766D01*
X178138082Y-106183183D01*
X178207982Y-106377223D01*
X178210470Y-106384130D01*
X178217231Y-106403940D01*
X178272462Y-106570545D01*
X178310320Y-106703699D01*
X178334149Y-106825723D01*
X178345218Y-106937908D01*
X178347292Y-106958936D01*
X178349960Y-107035600D01*
X178353094Y-107125661D01*
X178354897Y-107348216D01*
X178355175Y-107428151D01*
X178354148Y-107594318D01*
X178351946Y-107638748D01*
X178347077Y-107737045D01*
X178330304Y-107858036D01*
X178329402Y-107864543D01*
X178296566Y-107985023D01*
X178244009Y-108106696D01*
X178167172Y-108237773D01*
X178105081Y-108325139D01*
X178061498Y-108386465D01*
X178022137Y-108435857D01*
X177922426Y-108560983D01*
X177773262Y-108736709D01*
X177745397Y-108769537D01*
X177525854Y-109020340D01*
X177259237Y-109321600D01*
X177221074Y-109364910D01*
X177040896Y-109580060D01*
X177009953Y-109617009D01*
X176940300Y-109712369D01*
X176853917Y-109830634D01*
X176845467Y-109842203D01*
X176715720Y-110060109D01*
X176686934Y-110122104D01*
X176608819Y-110290344D01*
X176512868Y-110552523D01*
X176506391Y-110572062D01*
X176506169Y-110572734D01*
X176474726Y-110669754D01*
X176456814Y-110725026D01*
X176450238Y-110747908D01*
X176420798Y-110850360D01*
X176395694Y-110966253D01*
X176379073Y-111090221D01*
X176375650Y-111138677D01*
X176369576Y-111224680D01*
X176368510Y-111239783D01*
X176362833Y-111397524D01*
X176361577Y-111432455D01*
X176355846Y-111685754D01*
X176355742Y-111690155D01*
X176355547Y-111698416D01*
X176351086Y-111887734D01*
X176344641Y-112100308D01*
X176337715Y-112277519D01*
X176330875Y-112405106D01*
X176324689Y-112468809D01*
X176322180Y-112475508D01*
X176271952Y-112529560D01*
X176170683Y-112608187D01*
X176033720Y-112701692D01*
X175876408Y-112800377D01*
X175714095Y-112894544D01*
X175562125Y-112974494D01*
X175435846Y-113030529D01*
X175328384Y-113071050D01*
X175328384Y-112599231D01*
X175327798Y-112509500D01*
X175315645Y-112247765D01*
X175284583Y-112053083D01*
X175230414Y-111917762D01*
X175148939Y-111834109D01*
X175035959Y-111794433D01*
X174887276Y-111791042D01*
X174867017Y-111792622D01*
X174766554Y-111810738D01*
X174704231Y-111857908D01*
X174647806Y-111956396D01*
X174636086Y-111982012D01*
X174608995Y-112061894D01*
X174588516Y-112165547D01*
X174572984Y-112306566D01*
X174560738Y-112498548D01*
X174550113Y-112755087D01*
X174527308Y-113400367D01*
X174390538Y-113436113D01*
X174317205Y-113454474D01*
X174172540Y-113488717D01*
X174019308Y-113523315D01*
X173916303Y-113543394D01*
X173753693Y-113567279D01*
X173622516Y-113577878D01*
X173460187Y-113580985D01*
X173446670Y-113041859D01*
X173440280Y-112840801D01*
X173430030Y-112665255D01*
X173415130Y-112542148D01*
X173393803Y-112457596D01*
X173364275Y-112397711D01*
X173305326Y-112329086D01*
X173182678Y-112264060D01*
X173047485Y-112263048D01*
X172917678Y-112324462D01*
X172811188Y-112446712D01*
X172809856Y-112449003D01*
X172776213Y-112517844D01*
X172753653Y-112597784D01*
X172740026Y-112705574D01*
X172733182Y-112857971D01*
X172730970Y-113071728D01*
X172729769Y-113561446D01*
X172573461Y-113571413D01*
X172521532Y-113571078D01*
X172384060Y-113557477D01*
X172210539Y-113530327D01*
X172026384Y-113493259D01*
X171635615Y-113405139D01*
X171634746Y-112760369D01*
X171633984Y-112584540D01*
X171630432Y-112379753D01*
X171622913Y-112230881D01*
X171610221Y-112124639D01*
X171591149Y-112047747D01*
X171564490Y-111986921D01*
X171538393Y-111952298D01*
X174117000Y-111952298D01*
X174117001Y-111952737D01*
X174139500Y-111978736D01*
X174203635Y-111943515D01*
X174305406Y-111849262D01*
X174343725Y-111807535D01*
X174397901Y-111736117D01*
X174409713Y-111698416D01*
X174405324Y-111696813D01*
X174359303Y-111718812D01*
X174285795Y-111774152D01*
X174206464Y-111844041D01*
X174142977Y-111909687D01*
X174117000Y-111952298D01*
X171538393Y-111952298D01*
X171493703Y-111893009D01*
X171367451Y-111811754D01*
X171225291Y-111786335D01*
X171121757Y-111811150D01*
X171087704Y-111819312D01*
X170975171Y-111913248D01*
X170960166Y-111934593D01*
X170930361Y-111991774D01*
X170909674Y-112066603D01*
X170895829Y-112174208D01*
X170886547Y-112329714D01*
X170879550Y-112548248D01*
X170871487Y-112769696D01*
X170858999Y-112940632D01*
X170842285Y-113040505D01*
X170820935Y-113072979D01*
X170819706Y-113072908D01*
X170766375Y-113052536D01*
X170660902Y-113001091D01*
X170517985Y-112926043D01*
X170352324Y-112834861D01*
X170257294Y-112780783D01*
X170093871Y-112681992D01*
X169983893Y-112603799D01*
X169915595Y-112537254D01*
X169877210Y-112473405D01*
X169876519Y-112471726D01*
X169853771Y-112377739D01*
X169838075Y-112222341D01*
X169829065Y-112000027D01*
X169827157Y-111790773D01*
X170452724Y-111790773D01*
X170461548Y-111810057D01*
X170515049Y-111851233D01*
X170573211Y-111836363D01*
X170592895Y-111811150D01*
X170588962Y-111763274D01*
X170518667Y-111744369D01*
X170471986Y-111753902D01*
X170452724Y-111790773D01*
X169827157Y-111790773D01*
X169826377Y-111705292D01*
X171381615Y-111705292D01*
X171382063Y-111714136D01*
X171398848Y-111744369D01*
X171405116Y-111742571D01*
X171440231Y-111705292D01*
X171446337Y-111690155D01*
X171422998Y-111666216D01*
X171411656Y-111667717D01*
X171381615Y-111705292D01*
X169826377Y-111705292D01*
X169824884Y-111535292D01*
X174198339Y-111535292D01*
X174213085Y-111585462D01*
X174233353Y-111605141D01*
X174304921Y-111625896D01*
X174330692Y-111624479D01*
X174344604Y-111610042D01*
X174295699Y-111567684D01*
X174283295Y-111560388D01*
X174538260Y-111560388D01*
X174580347Y-111610042D01*
X174602611Y-111636309D01*
X174633435Y-111654978D01*
X174671436Y-111657740D01*
X174723309Y-111625248D01*
X174810615Y-111548390D01*
X174896988Y-111461320D01*
X174930308Y-111397524D01*
X174896197Y-111363593D01*
X174794154Y-111353600D01*
X174702994Y-111363664D01*
X174598191Y-111409690D01*
X174563806Y-111451292D01*
X174540033Y-111480056D01*
X174538260Y-111560388D01*
X174283295Y-111560388D01*
X174234785Y-111531855D01*
X174198339Y-111535292D01*
X169824884Y-111535292D01*
X169824306Y-111469487D01*
X169823472Y-111451292D01*
X171342538Y-111451292D01*
X171362077Y-111470831D01*
X171381615Y-111451292D01*
X171362077Y-111431754D01*
X171342538Y-111451292D01*
X169823472Y-111451292D01*
X169808287Y-111120053D01*
X169803447Y-111079084D01*
X170566337Y-111079084D01*
X170575512Y-111134168D01*
X170639154Y-111158216D01*
X170684579Y-111165543D01*
X170717308Y-111197292D01*
X170718443Y-111206633D01*
X170756384Y-111236369D01*
X170773640Y-111235951D01*
X170791631Y-111224680D01*
X170784841Y-111181892D01*
X170770313Y-111138677D01*
X175250231Y-111138677D01*
X175269769Y-111158216D01*
X175289308Y-111138677D01*
X175269769Y-111119139D01*
X175250231Y-111138677D01*
X170770313Y-111138677D01*
X170752759Y-111086458D01*
X170727412Y-111023513D01*
X170690575Y-110987430D01*
X170635528Y-111003848D01*
X170612230Y-111018555D01*
X170566337Y-111079084D01*
X169803447Y-111079084D01*
X169772848Y-110820054D01*
X169756931Y-110747908D01*
X170756384Y-110747908D01*
X170775923Y-110767446D01*
X170795461Y-110747908D01*
X175758231Y-110747908D01*
X175777769Y-110767446D01*
X175797308Y-110747908D01*
X175777769Y-110728369D01*
X175758231Y-110747908D01*
X170795461Y-110747908D01*
X170775923Y-110728369D01*
X170756384Y-110747908D01*
X169756931Y-110747908D01*
X169748818Y-110711137D01*
X174234231Y-110711137D01*
X174235247Y-110715037D01*
X174273308Y-110728369D01*
X174284018Y-110726779D01*
X174312384Y-110686986D01*
X174309316Y-110672852D01*
X174273308Y-110669754D01*
X174261613Y-110677774D01*
X174234231Y-110711137D01*
X169748818Y-110711137D01*
X169730306Y-110627228D01*
X174828087Y-110627228D01*
X174857256Y-110671529D01*
X174920157Y-110682674D01*
X174960544Y-110669754D01*
X175641000Y-110669754D01*
X175660538Y-110689292D01*
X175680077Y-110669754D01*
X175660538Y-110650216D01*
X175641000Y-110669754D01*
X174960544Y-110669754D01*
X174986977Y-110661298D01*
X175027902Y-110608040D01*
X175034196Y-110576816D01*
X175022887Y-110551738D01*
X175805656Y-110551738D01*
X175808186Y-110576816D01*
X175810333Y-110598113D01*
X175822087Y-110604226D01*
X175836384Y-110572062D01*
X175833564Y-110551374D01*
X175810333Y-110546010D01*
X175805656Y-110551738D01*
X175022887Y-110551738D01*
X175017960Y-110540813D01*
X174944662Y-110540453D01*
X174872174Y-110563934D01*
X174829283Y-110612285D01*
X174828087Y-110627228D01*
X169730306Y-110627228D01*
X169713722Y-110552062D01*
X169626642Y-110298646D01*
X169557190Y-110149458D01*
X170589952Y-110149458D01*
X170668962Y-110228469D01*
X170681744Y-110239962D01*
X170781940Y-110297692D01*
X170904142Y-110336037D01*
X170998937Y-110349443D01*
X171044023Y-110340133D01*
X171048107Y-110302251D01*
X171042926Y-110272988D01*
X171032913Y-110191962D01*
X171005040Y-110142220D01*
X170935208Y-110081958D01*
X170880283Y-110051992D01*
X172562416Y-110051992D01*
X172597841Y-110192590D01*
X172667518Y-110302251D01*
X172679034Y-110320377D01*
X172807287Y-110449030D01*
X172928950Y-110529734D01*
X173098766Y-110572813D01*
X173265559Y-110546653D01*
X173414467Y-110454335D01*
X173530631Y-110298945D01*
X173576022Y-110189157D01*
X173602864Y-110025035D01*
X174450132Y-110025035D01*
X174456027Y-110087420D01*
X174459916Y-110095764D01*
X174505503Y-110134129D01*
X174559714Y-110140109D01*
X174585923Y-110107923D01*
X174585425Y-110101771D01*
X174561074Y-110060774D01*
X175445615Y-110060774D01*
X175464974Y-110107923D01*
X175470517Y-110121424D01*
X175543483Y-110176080D01*
X175631231Y-110190375D01*
X175701822Y-110167006D01*
X175709592Y-110122104D01*
X175646651Y-110049637D01*
X175624099Y-110033087D01*
X175546445Y-110008748D01*
X175476199Y-110018573D01*
X175445615Y-110060774D01*
X174561074Y-110060774D01*
X174554872Y-110050333D01*
X174501098Y-110010921D01*
X174458020Y-110009606D01*
X174455010Y-110015493D01*
X174450132Y-110025035D01*
X173602864Y-110025035D01*
X173604425Y-110015493D01*
X173596887Y-109939150D01*
X174664318Y-109939150D01*
X174691856Y-109946831D01*
X174726746Y-109933310D01*
X174786292Y-109878446D01*
X174812385Y-109844238D01*
X174814913Y-109830634D01*
X174761769Y-109867389D01*
X174708046Y-109906590D01*
X174667333Y-109935773D01*
X174664318Y-109939150D01*
X173596887Y-109939150D01*
X173584713Y-109815843D01*
X173550010Y-109692045D01*
X176626272Y-109692045D01*
X176630949Y-109738421D01*
X176642702Y-109744534D01*
X176657000Y-109712369D01*
X176654180Y-109691682D01*
X176630949Y-109686318D01*
X176626272Y-109692045D01*
X173550010Y-109692045D01*
X173522198Y-109592832D01*
X174156077Y-109592832D01*
X174160111Y-109614475D01*
X174199607Y-109654082D01*
X174248319Y-109646179D01*
X174258928Y-109634012D01*
X174268585Y-109580060D01*
X174214692Y-109556062D01*
X174187762Y-109560199D01*
X174156077Y-109592832D01*
X173522198Y-109592832D01*
X173516548Y-109572675D01*
X173414280Y-109295302D01*
X173364146Y-109184831D01*
X173960692Y-109184831D01*
X173980231Y-109204369D01*
X173999769Y-109184831D01*
X173980231Y-109165292D01*
X173960692Y-109184831D01*
X173364146Y-109184831D01*
X173312364Y-109070727D01*
X173216639Y-108918491D01*
X173125381Y-108835891D01*
X173036866Y-108820221D01*
X173031568Y-108821329D01*
X172994056Y-108837052D01*
X172957702Y-108873149D01*
X172916880Y-108940215D01*
X172865963Y-109048846D01*
X172799324Y-109209637D01*
X172711335Y-109433183D01*
X172623699Y-109677654D01*
X172571466Y-109884905D01*
X172567053Y-109966369D01*
X172562416Y-110051992D01*
X170880283Y-110051992D01*
X170867301Y-110044909D01*
X170805242Y-110044594D01*
X170715223Y-110084678D01*
X170589952Y-110149458D01*
X169557190Y-110149458D01*
X169507340Y-110042376D01*
X169464523Y-109966369D01*
X170717308Y-109966369D01*
X170736846Y-109985908D01*
X170756384Y-109966369D01*
X170736846Y-109946831D01*
X170717308Y-109966369D01*
X169464523Y-109966369D01*
X169351550Y-109765823D01*
X169231253Y-109565276D01*
X169529474Y-109423651D01*
X169827696Y-109282027D01*
X170031175Y-109398446D01*
X170042700Y-109404986D01*
X170324316Y-109529020D01*
X170601732Y-109578852D01*
X170886572Y-109556630D01*
X171088341Y-109504082D01*
X171398653Y-109362921D01*
X171665646Y-109158706D01*
X171887445Y-108893882D01*
X172062178Y-108570893D01*
X172187973Y-108192184D01*
X172262956Y-107760198D01*
X172267401Y-107719693D01*
X172286580Y-107595427D01*
X172290883Y-107584118D01*
X173910526Y-107584118D01*
X173916852Y-107926238D01*
X173976660Y-108246985D01*
X174019753Y-108376602D01*
X174154192Y-108663736D01*
X174330308Y-108931396D01*
X174536043Y-109164980D01*
X174560015Y-109184831D01*
X174759337Y-109349889D01*
X174988128Y-109471520D01*
X175305469Y-109556493D01*
X175611536Y-109567508D01*
X175899733Y-109502481D01*
X176169404Y-109361560D01*
X176215602Y-109321600D01*
X177008692Y-109321600D01*
X177015305Y-109339577D01*
X177067308Y-109360677D01*
X177094272Y-109356268D01*
X177125923Y-109321600D01*
X177119310Y-109303624D01*
X177067308Y-109282523D01*
X177040343Y-109286932D01*
X177008692Y-109321600D01*
X176215602Y-109321600D01*
X176419895Y-109144894D01*
X176455034Y-109106997D01*
X176627082Y-108886696D01*
X176684897Y-108774395D01*
X177146919Y-108774395D01*
X177152238Y-108811009D01*
X177183016Y-108776987D01*
X177183190Y-108776710D01*
X177236391Y-108753543D01*
X177327355Y-108756050D01*
X177388175Y-108759940D01*
X177431018Y-108736709D01*
X177411193Y-108691143D01*
X177328549Y-108638257D01*
X177277053Y-108599919D01*
X177240516Y-108501488D01*
X177234990Y-108472102D01*
X177216080Y-108499404D01*
X177210257Y-108518217D01*
X177185356Y-108598677D01*
X177175361Y-108637754D01*
X177167016Y-108670387D01*
X177146919Y-108774395D01*
X176684897Y-108774395D01*
X176747267Y-108653246D01*
X176752013Y-108637754D01*
X177047769Y-108637754D01*
X177067308Y-108657292D01*
X177086846Y-108637754D01*
X177067308Y-108618216D01*
X177047769Y-108637754D01*
X176752013Y-108637754D01*
X176781232Y-108542368D01*
X177047769Y-108542368D01*
X177048888Y-108551092D01*
X177086846Y-108579139D01*
X177105521Y-108571683D01*
X177125923Y-108518217D01*
X177120300Y-108490305D01*
X177086846Y-108481446D01*
X177076174Y-108489445D01*
X177047769Y-108542368D01*
X176781232Y-108542368D01*
X176810259Y-108447610D01*
X177484527Y-108447610D01*
X177516692Y-108461908D01*
X177537379Y-108459088D01*
X177542743Y-108435857D01*
X177537016Y-108431180D01*
X177490641Y-108435857D01*
X177484527Y-108447610D01*
X176810259Y-108447610D01*
X176832435Y-108375215D01*
X176842708Y-108325139D01*
X177243154Y-108325139D01*
X177262692Y-108344677D01*
X177282231Y-108325139D01*
X177262692Y-108305600D01*
X177243154Y-108325139D01*
X176842708Y-108325139D01*
X176857840Y-108251381D01*
X176889274Y-107858036D01*
X176869416Y-107676365D01*
X177213388Y-107676365D01*
X177214543Y-107762941D01*
X177221449Y-107797600D01*
X177244284Y-107766201D01*
X177260293Y-107690194D01*
X177264456Y-107604047D01*
X177257073Y-107565683D01*
X177956119Y-107565683D01*
X177966077Y-107602216D01*
X177967348Y-107604047D01*
X177974105Y-107613783D01*
X178009766Y-107641292D01*
X178015111Y-107638748D01*
X178005154Y-107602216D01*
X177997125Y-107590648D01*
X177961464Y-107563139D01*
X177956119Y-107565683D01*
X177257073Y-107565683D01*
X177252567Y-107542269D01*
X177243754Y-107530195D01*
X177224445Y-107547343D01*
X177214445Y-107641439D01*
X177213388Y-107676365D01*
X176869416Y-107676365D01*
X176847268Y-107473752D01*
X176734360Y-107107729D01*
X176668578Y-106984866D01*
X176855339Y-106984866D01*
X176875554Y-107055474D01*
X176894800Y-107096089D01*
X176919896Y-107111812D01*
X176958007Y-107059324D01*
X176965618Y-107046758D01*
X176975330Y-107016062D01*
X177594846Y-107016062D01*
X177601459Y-107034038D01*
X177653461Y-107055139D01*
X177680426Y-107050730D01*
X177694239Y-107035600D01*
X177751154Y-107035600D01*
X177770692Y-107055139D01*
X177790231Y-107035600D01*
X177770692Y-107016062D01*
X177751154Y-107035600D01*
X177694239Y-107035600D01*
X177712077Y-107016062D01*
X177705464Y-106998085D01*
X177653461Y-106976985D01*
X177626497Y-106981393D01*
X177617928Y-106990778D01*
X177594846Y-107016062D01*
X176975330Y-107016062D01*
X176983329Y-106990778D01*
X176942645Y-106960002D01*
X176908800Y-106950752D01*
X176860191Y-106956152D01*
X176855339Y-106984866D01*
X176668578Y-106984866D01*
X176643436Y-106937908D01*
X177145461Y-106937908D01*
X177153460Y-106948580D01*
X177206383Y-106976985D01*
X177215107Y-106975866D01*
X177243154Y-106937908D01*
X177235698Y-106919233D01*
X177182232Y-106898831D01*
X177154320Y-106904454D01*
X177145461Y-106937908D01*
X176643436Y-106937908D01*
X176553089Y-106769165D01*
X176305993Y-106467257D01*
X176298706Y-106459978D01*
X176232987Y-106406670D01*
X177612843Y-106406670D01*
X177613327Y-106467273D01*
X177622733Y-106480568D01*
X177682286Y-106504679D01*
X177761008Y-106453548D01*
X177814903Y-106423543D01*
X177920107Y-106419026D01*
X177929977Y-106420821D01*
X178003642Y-106420019D01*
X178024692Y-106377223D01*
X178019338Y-106344824D01*
X177969754Y-106284074D01*
X177894740Y-106263195D01*
X177827758Y-106295445D01*
X177827150Y-106295738D01*
X177790905Y-106325825D01*
X177728212Y-106336317D01*
X177719278Y-106333760D01*
X177657566Y-106351444D01*
X177612843Y-106406670D01*
X176232987Y-106406670D01*
X176094766Y-106294553D01*
X177146138Y-106294553D01*
X177186737Y-106327652D01*
X177236003Y-106345026D01*
X177274813Y-106342998D01*
X177282231Y-106295445D01*
X177273321Y-106248325D01*
X177228572Y-106215442D01*
X177168430Y-106249928D01*
X177146138Y-106294553D01*
X176094766Y-106294553D01*
X176036269Y-106247103D01*
X175754627Y-106104071D01*
X175462955Y-106030031D01*
X175170428Y-106024132D01*
X174886221Y-106085524D01*
X174619508Y-106213354D01*
X174379464Y-106406771D01*
X174175265Y-106664925D01*
X174047250Y-106924002D01*
X173954916Y-107242687D01*
X173910526Y-107584118D01*
X172290883Y-107584118D01*
X172319620Y-107508593D01*
X172381861Y-107429974D01*
X172488644Y-107330352D01*
X172643807Y-107186787D01*
X172878380Y-106957009D01*
X173132927Y-106696299D01*
X173391841Y-106421303D01*
X173639512Y-106148669D01*
X173860332Y-105895047D01*
X173914005Y-105829456D01*
X176781143Y-105829456D01*
X176813308Y-105843754D01*
X176833995Y-105840934D01*
X176839359Y-105817703D01*
X176833631Y-105813026D01*
X176787256Y-105817703D01*
X176781143Y-105829456D01*
X173914005Y-105829456D01*
X174038692Y-105677083D01*
X174054677Y-105656894D01*
X174138352Y-105561074D01*
X174201024Y-105505400D01*
X174230167Y-105501369D01*
X174284637Y-105574807D01*
X174380769Y-105608694D01*
X174407719Y-105588969D01*
X174633349Y-105588969D01*
X174638026Y-105635344D01*
X174649779Y-105641457D01*
X174664077Y-105609292D01*
X174661257Y-105588605D01*
X174638026Y-105583241D01*
X174633349Y-105588969D01*
X174407719Y-105588969D01*
X174418256Y-105581257D01*
X174428277Y-105513135D01*
X174410484Y-105436262D01*
X174366849Y-105382666D01*
X174355590Y-105373909D01*
X174348149Y-105343394D01*
X174367970Y-105289202D01*
X174420352Y-105201922D01*
X174460922Y-105143576D01*
X176774231Y-105143576D01*
X176774298Y-105144937D01*
X176804052Y-105151103D01*
X176871621Y-105117435D01*
X176941094Y-105085733D01*
X177018434Y-105077082D01*
X177067826Y-105097109D01*
X177065832Y-105142757D01*
X177050171Y-105158512D01*
X176988058Y-105164895D01*
X176960037Y-105161082D01*
X176896904Y-105192426D01*
X176885919Y-105213749D01*
X176914967Y-105234022D01*
X177011278Y-105239838D01*
X177043866Y-105239707D01*
X177130320Y-105237718D01*
X177165000Y-105234094D01*
X177162722Y-105226036D01*
X177142405Y-105165483D01*
X177107875Y-105066440D01*
X177094998Y-105026348D01*
X177071156Y-104914240D01*
X177071749Y-104836835D01*
X177079699Y-104810525D01*
X177080827Y-104790923D01*
X177048778Y-104837523D01*
X176997724Y-104881037D01*
X176904501Y-104905908D01*
X176877939Y-104906623D01*
X176824188Y-104925867D01*
X176824620Y-104984023D01*
X176829856Y-105033480D01*
X176809639Y-105084021D01*
X176802468Y-105089235D01*
X176774231Y-105143576D01*
X174460922Y-105143576D01*
X174510592Y-105072144D01*
X174643991Y-104890458D01*
X174786766Y-104693291D01*
X174859461Y-104693291D01*
X174859842Y-104698754D01*
X174882462Y-104707359D01*
X174921808Y-104665409D01*
X174931316Y-104643571D01*
X174904576Y-104648176D01*
X174887217Y-104660239D01*
X174859461Y-104693291D01*
X174786766Y-104693291D01*
X174793730Y-104683674D01*
X174951844Y-104456523D01*
X175015769Y-104456523D01*
X175035308Y-104476062D01*
X175054846Y-104456523D01*
X175035308Y-104436985D01*
X175015769Y-104456523D01*
X174951844Y-104456523D01*
X174960846Y-104443591D01*
X175031978Y-104337762D01*
X176453772Y-104337762D01*
X176459173Y-104372019D01*
X176478179Y-104398558D01*
X176494006Y-104456523D01*
X176500692Y-104481015D01*
X176501330Y-104488196D01*
X176541172Y-104551099D01*
X176623927Y-104609969D01*
X176661494Y-104628095D01*
X176701663Y-104643571D01*
X176758847Y-104665603D01*
X176800391Y-104663217D01*
X176780651Y-104620567D01*
X176760967Y-104580843D01*
X176758199Y-104493567D01*
X176763934Y-104462578D01*
X176743279Y-104365108D01*
X176666260Y-104308275D01*
X176546930Y-104304645D01*
X176519675Y-104310615D01*
X176453772Y-104337762D01*
X175031978Y-104337762D01*
X175120891Y-104205480D01*
X175198125Y-104085292D01*
X176129461Y-104085292D01*
X176137482Y-104096987D01*
X176170845Y-104124369D01*
X176174744Y-104123353D01*
X176188077Y-104085292D01*
X176186487Y-104074582D01*
X176146694Y-104046216D01*
X176132560Y-104049284D01*
X176129461Y-104085292D01*
X175198125Y-104085292D01*
X175253436Y-103999219D01*
X175272505Y-103968529D01*
X175372130Y-103809066D01*
X175455399Y-103677196D01*
X175514077Y-103585888D01*
X175539927Y-103548109D01*
X175552337Y-103546129D01*
X175621298Y-103569020D01*
X175736025Y-103623457D01*
X175882881Y-103701751D01*
X176048225Y-103796218D01*
X176218420Y-103899170D01*
X176379826Y-104002921D01*
X176498012Y-104085292D01*
X176518805Y-104099784D01*
X176684713Y-104229106D01*
X176988502Y-104499638D01*
X177147486Y-104663217D01*
X177280898Y-104800486D01*
X177547372Y-105115140D01*
G36*
X174307240Y-104150345D02*
G01*
X174215127Y-104278496D01*
X174171429Y-104339292D01*
X174124997Y-104403891D01*
X174068870Y-104479742D01*
X173956708Y-104631320D01*
X173929802Y-104667682D01*
X173898497Y-104708805D01*
X173766135Y-104882685D01*
X173727493Y-104933448D01*
X173611128Y-105081754D01*
X173580306Y-105121037D01*
X173523905Y-105192920D01*
X173487220Y-105238062D01*
X173376074Y-105374831D01*
X173324877Y-105437831D01*
X173292574Y-105476122D01*
X173259403Y-105515443D01*
X173228909Y-105550336D01*
X173121073Y-105673733D01*
X172963778Y-105848246D01*
X172796406Y-106029677D01*
X172627849Y-106208724D01*
X172466993Y-106376080D01*
X172322730Y-106522443D01*
X172203948Y-106638507D01*
X172119536Y-106714968D01*
X172078383Y-106742523D01*
X172070411Y-106739846D01*
X172015649Y-106697823D01*
X171928258Y-106615390D01*
X171823070Y-106506270D01*
X171811415Y-106493801D01*
X171679077Y-106364375D01*
X171540761Y-106246512D01*
X171424594Y-106164347D01*
X171349683Y-106122917D01*
X171265379Y-106088655D01*
X171169452Y-106069264D01*
X171039739Y-106060640D01*
X170854077Y-106058677D01*
X170682043Y-106060197D01*
X170547975Y-106068115D01*
X170447041Y-106087000D01*
X170355765Y-106121410D01*
X170250675Y-106175908D01*
X170154294Y-106235380D01*
X169994504Y-106352889D01*
X169898907Y-106436960D01*
X169856472Y-106474279D01*
X169821863Y-106513389D01*
X169709119Y-106640797D01*
X169512168Y-106947652D01*
X169394574Y-107230985D01*
X169371607Y-107286324D01*
X169291618Y-107641957D01*
X169276380Y-107999693D01*
X169299666Y-108149292D01*
X169330077Y-108344677D01*
X169347176Y-108408836D01*
X169377215Y-108543691D01*
X169375580Y-108635639D01*
X169332792Y-108704302D01*
X169239374Y-108769299D01*
X169085846Y-108850251D01*
X168890029Y-108944258D01*
X168752404Y-108995521D01*
X168672229Y-109003632D01*
X168646231Y-108969480D01*
X168631208Y-108940976D01*
X168571822Y-108864250D01*
X168477784Y-108755284D01*
X168360361Y-108627556D01*
X168277328Y-108538410D01*
X168153857Y-108401145D01*
X168052480Y-108282897D01*
X167989363Y-108202202D01*
X167959489Y-108149292D01*
X168138231Y-108149292D01*
X168139366Y-108158633D01*
X168177308Y-108188369D01*
X168186648Y-108187234D01*
X168216384Y-108149292D01*
X168215249Y-108139952D01*
X168177308Y-108110216D01*
X168167967Y-108111351D01*
X168138231Y-108149292D01*
X167959489Y-108149292D01*
X167922315Y-108083452D01*
X167841473Y-107839232D01*
X167799132Y-107544518D01*
X167797729Y-107230985D01*
X167942846Y-107230985D01*
X167962384Y-107250523D01*
X167981923Y-107230985D01*
X167962384Y-107211446D01*
X167942846Y-107230985D01*
X167797729Y-107230985D01*
X167797642Y-107211446D01*
X167803182Y-107130605D01*
X167816475Y-107001764D01*
X168066989Y-107001764D01*
X168099154Y-107016062D01*
X168119841Y-107013242D01*
X168125205Y-106990010D01*
X168119478Y-106985334D01*
X168073102Y-106990010D01*
X168066989Y-107001764D01*
X167816475Y-107001764D01*
X167823425Y-106934402D01*
X168216384Y-106934402D01*
X168222285Y-106981383D01*
X168231287Y-106990010D01*
X168262062Y-107019507D01*
X168333915Y-106996266D01*
X168431473Y-106914666D01*
X168548368Y-106777712D01*
X168556326Y-106767202D01*
X168646656Y-106638799D01*
X168694523Y-106552412D01*
X168699123Y-106513389D01*
X168659651Y-106527080D01*
X168575300Y-106598834D01*
X168555888Y-106616919D01*
X168479009Y-106679011D01*
X168429169Y-106704746D01*
X168394735Y-106713660D01*
X168314487Y-106770661D01*
X168245619Y-106854406D01*
X168216384Y-106934402D01*
X167823425Y-106934402D01*
X167823705Y-106931689D01*
X167852170Y-106735063D01*
X167885556Y-106555834D01*
X167906444Y-106468985D01*
X168450846Y-106468985D01*
X168452074Y-106492958D01*
X168470199Y-106503106D01*
X168529000Y-106468985D01*
X168536485Y-106464089D01*
X168564482Y-106436960D01*
X168519231Y-106430506D01*
X168483066Y-106436141D01*
X168450846Y-106468985D01*
X167906444Y-106468985D01*
X167920845Y-106409109D01*
X167955017Y-106309995D01*
X167985055Y-106273600D01*
X168008054Y-106252062D01*
X168021000Y-106181158D01*
X168021696Y-106170562D01*
X168044943Y-106081819D01*
X168094513Y-105953004D01*
X168161371Y-105808131D01*
X168207353Y-105718875D01*
X168270697Y-105612139D01*
X168316178Y-105564744D01*
X168350581Y-105568081D01*
X168402359Y-105591600D01*
X168407345Y-105586155D01*
X170720222Y-105586155D01*
X170748399Y-105584077D01*
X170770876Y-105571329D01*
X172229102Y-105571329D01*
X172230789Y-105611709D01*
X172293528Y-105660124D01*
X172351263Y-105694346D01*
X172393177Y-105692505D01*
X172427559Y-105633270D01*
X172432918Y-105621079D01*
X172444927Y-105550336D01*
X172397690Y-105501177D01*
X172392787Y-105498177D01*
X172327027Y-105480990D01*
X172263658Y-105528031D01*
X172229102Y-105571329D01*
X170770876Y-105571329D01*
X170812209Y-105547886D01*
X170856742Y-105508450D01*
X170870701Y-105476122D01*
X170842523Y-105478200D01*
X170778714Y-105514391D01*
X170734181Y-105553828D01*
X170720222Y-105586155D01*
X168407345Y-105586155D01*
X168433522Y-105557571D01*
X168426840Y-105468635D01*
X168426088Y-105465328D01*
X168442849Y-105369683D01*
X168451520Y-105354507D01*
X168889041Y-105354507D01*
X168893718Y-105400882D01*
X168905471Y-105406996D01*
X168919769Y-105374831D01*
X168916949Y-105354144D01*
X168893718Y-105348780D01*
X168889041Y-105354507D01*
X168451520Y-105354507D01*
X168522404Y-105230451D01*
X168562963Y-105178363D01*
X170918506Y-105178363D01*
X170948260Y-105233833D01*
X170997111Y-105281371D01*
X171050346Y-105285792D01*
X171076785Y-105238062D01*
X173179154Y-105238062D01*
X173198692Y-105257600D01*
X173218231Y-105238062D01*
X173198692Y-105218523D01*
X173179154Y-105238062D01*
X171076785Y-105238062D01*
X171089787Y-105214590D01*
X171092033Y-105207145D01*
X171094243Y-105121037D01*
X171048910Y-105086784D01*
X170970682Y-105116456D01*
X170951189Y-105131395D01*
X170918506Y-105178363D01*
X168562963Y-105178363D01*
X168638190Y-105081754D01*
X168685308Y-105081754D01*
X168704846Y-105101292D01*
X168724384Y-105081754D01*
X168704846Y-105062216D01*
X168685308Y-105081754D01*
X168638190Y-105081754D01*
X168663703Y-105048989D01*
X168771181Y-104930687D01*
X170411604Y-104930687D01*
X170443769Y-104944985D01*
X170464456Y-104942165D01*
X170467769Y-104927817D01*
X171271879Y-104927817D01*
X171280186Y-104941054D01*
X171342538Y-104905908D01*
X171370023Y-104882685D01*
X171354614Y-104867429D01*
X171340992Y-104868755D01*
X171283923Y-104905908D01*
X171276762Y-104918933D01*
X171271879Y-104927817D01*
X170467769Y-104927817D01*
X170469820Y-104918933D01*
X170464093Y-104914257D01*
X170417718Y-104918933D01*
X170411604Y-104930687D01*
X168771181Y-104930687D01*
X168865694Y-104826655D01*
X168968326Y-104723936D01*
X172726756Y-104723936D01*
X172743203Y-104765365D01*
X172760368Y-104771527D01*
X172809136Y-104747638D01*
X172821891Y-104708805D01*
X172797787Y-104676566D01*
X172745251Y-104698949D01*
X172726756Y-104723936D01*
X168968326Y-104723936D01*
X169016657Y-104675564D01*
X171467184Y-104675564D01*
X171493653Y-104714421D01*
X171558644Y-104719528D01*
X171635152Y-104686491D01*
X171642813Y-104680778D01*
X171685071Y-104631320D01*
X171661747Y-104584255D01*
X171597470Y-104563016D01*
X171521509Y-104592021D01*
X171470213Y-104659654D01*
X171467184Y-104675564D01*
X169016657Y-104675564D01*
X169127324Y-104564804D01*
X169166078Y-104528973D01*
X173276968Y-104528973D01*
X173294763Y-104572752D01*
X173320602Y-104576583D01*
X173360103Y-104535469D01*
X173372643Y-104479742D01*
X173351742Y-104452538D01*
X173300055Y-104491177D01*
X173276968Y-104528973D01*
X169166078Y-104528973D01*
X169294573Y-104410168D01*
X169383779Y-104339292D01*
X173374538Y-104339292D01*
X173394077Y-104358831D01*
X173413615Y-104339292D01*
X173394077Y-104319754D01*
X173374538Y-104339292D01*
X169383779Y-104339292D01*
X169482145Y-104261139D01*
X170170231Y-104261139D01*
X170171365Y-104276711D01*
X170203623Y-104318537D01*
X170260348Y-104294765D01*
X170270249Y-104278496D01*
X170258029Y-104228379D01*
X170207001Y-104202523D01*
X170190108Y-104209118D01*
X170170231Y-104261139D01*
X169482145Y-104261139D01*
X169604625Y-104163827D01*
X172878732Y-104163827D01*
X172911350Y-104206894D01*
X172971178Y-104233380D01*
X173060155Y-104233095D01*
X173115131Y-104182985D01*
X173127020Y-104130490D01*
X173105367Y-104052166D01*
X173100356Y-104048869D01*
X173667250Y-104048869D01*
X173684429Y-104088415D01*
X173741659Y-104097889D01*
X173811686Y-104069870D01*
X173817072Y-104065859D01*
X173853151Y-104018124D01*
X173824962Y-103956553D01*
X173819929Y-103949853D01*
X173777179Y-103916422D01*
X173733140Y-103941598D01*
X173673924Y-104032352D01*
X173667250Y-104048869D01*
X173100356Y-104048869D01*
X173045001Y-104012447D01*
X172969628Y-104021692D01*
X172902956Y-104090262D01*
X172901535Y-104092933D01*
X172878732Y-104163827D01*
X169604625Y-104163827D01*
X169755634Y-104043848D01*
X170101322Y-103823556D01*
X170685950Y-103823556D01*
X170712068Y-103894260D01*
X170768714Y-103907307D01*
X170851647Y-103847869D01*
X170872544Y-103824159D01*
X170891310Y-103772677D01*
X174038846Y-103772677D01*
X174039294Y-103781520D01*
X174056078Y-103811754D01*
X174062347Y-103809956D01*
X174097461Y-103772677D01*
X174103567Y-103757540D01*
X174080229Y-103733600D01*
X174068887Y-103735102D01*
X174052897Y-103755102D01*
X174038846Y-103772677D01*
X170891310Y-103772677D01*
X170897717Y-103755102D01*
X170858121Y-103715869D01*
X170763429Y-103720435D01*
X170703122Y-103751451D01*
X170685950Y-103823556D01*
X170101322Y-103823556D01*
X170250915Y-103728227D01*
X170765416Y-103472209D01*
X171284138Y-103284696D01*
X171536592Y-103212980D01*
X171756870Y-103156445D01*
X171954845Y-103115106D01*
X172150607Y-103085995D01*
X172364247Y-103066147D01*
X172615858Y-103052596D01*
X172925530Y-103042375D01*
X172961834Y-103041378D01*
X173227879Y-103034909D01*
X173435834Y-103032671D01*
X173603583Y-103035784D01*
X173749009Y-103045371D01*
X173889996Y-103062551D01*
X174044426Y-103088448D01*
X174230182Y-103124181D01*
X174350240Y-103148021D01*
X174540831Y-103187001D01*
X174671509Y-103216838D01*
X174753539Y-103241255D01*
X174798185Y-103263972D01*
X174816712Y-103288713D01*
X174820385Y-103319199D01*
X174819889Y-103325694D01*
X174789957Y-103403984D01*
X174717890Y-103533863D01*
X174609523Y-103707063D01*
X174575872Y-103757540D01*
X174470694Y-103915313D01*
X174399193Y-104018124D01*
X174321048Y-104130490D01*
X174307240Y-104150345D01*
G37*
X174307240Y-104150345D02*
X174215127Y-104278496D01*
X174171429Y-104339292D01*
X174124997Y-104403891D01*
X174068870Y-104479742D01*
X173956708Y-104631320D01*
X173929802Y-104667682D01*
X173898497Y-104708805D01*
X173766135Y-104882685D01*
X173727493Y-104933448D01*
X173611128Y-105081754D01*
X173580306Y-105121037D01*
X173523905Y-105192920D01*
X173487220Y-105238062D01*
X173376074Y-105374831D01*
X173324877Y-105437831D01*
X173292574Y-105476122D01*
X173259403Y-105515443D01*
X173228909Y-105550336D01*
X173121073Y-105673733D01*
X172963778Y-105848246D01*
X172796406Y-106029677D01*
X172627849Y-106208724D01*
X172466993Y-106376080D01*
X172322730Y-106522443D01*
X172203948Y-106638507D01*
X172119536Y-106714968D01*
X172078383Y-106742523D01*
X172070411Y-106739846D01*
X172015649Y-106697823D01*
X171928258Y-106615390D01*
X171823070Y-106506270D01*
X171811415Y-106493801D01*
X171679077Y-106364375D01*
X171540761Y-106246512D01*
X171424594Y-106164347D01*
X171349683Y-106122917D01*
X171265379Y-106088655D01*
X171169452Y-106069264D01*
X171039739Y-106060640D01*
X170854077Y-106058677D01*
X170682043Y-106060197D01*
X170547975Y-106068115D01*
X170447041Y-106087000D01*
X170355765Y-106121410D01*
X170250675Y-106175908D01*
X170154294Y-106235380D01*
X169994504Y-106352889D01*
X169898907Y-106436960D01*
X169856472Y-106474279D01*
X169821863Y-106513389D01*
X169709119Y-106640797D01*
X169512168Y-106947652D01*
X169394574Y-107230985D01*
X169371607Y-107286324D01*
X169291618Y-107641957D01*
X169276380Y-107999693D01*
X169299666Y-108149292D01*
X169330077Y-108344677D01*
X169347176Y-108408836D01*
X169377215Y-108543691D01*
X169375580Y-108635639D01*
X169332792Y-108704302D01*
X169239374Y-108769299D01*
X169085846Y-108850251D01*
X168890029Y-108944258D01*
X168752404Y-108995521D01*
X168672229Y-109003632D01*
X168646231Y-108969480D01*
X168631208Y-108940976D01*
X168571822Y-108864250D01*
X168477784Y-108755284D01*
X168360361Y-108627556D01*
X168277328Y-108538410D01*
X168153857Y-108401145D01*
X168052480Y-108282897D01*
X167989363Y-108202202D01*
X167959489Y-108149292D01*
X168138231Y-108149292D01*
X168139366Y-108158633D01*
X168177308Y-108188369D01*
X168186648Y-108187234D01*
X168216384Y-108149292D01*
X168215249Y-108139952D01*
X168177308Y-108110216D01*
X168167967Y-108111351D01*
X168138231Y-108149292D01*
X167959489Y-108149292D01*
X167922315Y-108083452D01*
X167841473Y-107839232D01*
X167799132Y-107544518D01*
X167797729Y-107230985D01*
X167942846Y-107230985D01*
X167962384Y-107250523D01*
X167981923Y-107230985D01*
X167962384Y-107211446D01*
X167942846Y-107230985D01*
X167797729Y-107230985D01*
X167797642Y-107211446D01*
X167803182Y-107130605D01*
X167816475Y-107001764D01*
X168066989Y-107001764D01*
X168099154Y-107016062D01*
X168119841Y-107013242D01*
X168125205Y-106990010D01*
X168119478Y-106985334D01*
X168073102Y-106990010D01*
X168066989Y-107001764D01*
X167816475Y-107001764D01*
X167823425Y-106934402D01*
X168216384Y-106934402D01*
X168222285Y-106981383D01*
X168231287Y-106990010D01*
X168262062Y-107019507D01*
X168333915Y-106996266D01*
X168431473Y-106914666D01*
X168548368Y-106777712D01*
X168556326Y-106767202D01*
X168646656Y-106638799D01*
X168694523Y-106552412D01*
X168699123Y-106513389D01*
X168659651Y-106527080D01*
X168575300Y-106598834D01*
X168555888Y-106616919D01*
X168479009Y-106679011D01*
X168429169Y-106704746D01*
X168394735Y-106713660D01*
X168314487Y-106770661D01*
X168245619Y-106854406D01*
X168216384Y-106934402D01*
X167823425Y-106934402D01*
X167823705Y-106931689D01*
X167852170Y-106735063D01*
X167885556Y-106555834D01*
X167906444Y-106468985D01*
X168450846Y-106468985D01*
X168452074Y-106492958D01*
X168470199Y-106503106D01*
X168529000Y-106468985D01*
X168536485Y-106464089D01*
X168564482Y-106436960D01*
X168519231Y-106430506D01*
X168483066Y-106436141D01*
X168450846Y-106468985D01*
X167906444Y-106468985D01*
X167920845Y-106409109D01*
X167955017Y-106309995D01*
X167985055Y-106273600D01*
X168008054Y-106252062D01*
X168021000Y-106181158D01*
X168021696Y-106170562D01*
X168044943Y-106081819D01*
X168094513Y-105953004D01*
X168161371Y-105808131D01*
X168207353Y-105718875D01*
X168270697Y-105612139D01*
X168316178Y-105564744D01*
X168350581Y-105568081D01*
X168402359Y-105591600D01*
X168407345Y-105586155D01*
X170720222Y-105586155D01*
X170748399Y-105584077D01*
X170770876Y-105571329D01*
X172229102Y-105571329D01*
X172230789Y-105611709D01*
X172293528Y-105660124D01*
X172351263Y-105694346D01*
X172393177Y-105692505D01*
X172427559Y-105633270D01*
X172432918Y-105621079D01*
X172444927Y-105550336D01*
X172397690Y-105501177D01*
X172392787Y-105498177D01*
X172327027Y-105480990D01*
X172263658Y-105528031D01*
X172229102Y-105571329D01*
X170770876Y-105571329D01*
X170812209Y-105547886D01*
X170856742Y-105508450D01*
X170870701Y-105476122D01*
X170842523Y-105478200D01*
X170778714Y-105514391D01*
X170734181Y-105553828D01*
X170720222Y-105586155D01*
X168407345Y-105586155D01*
X168433522Y-105557571D01*
X168426840Y-105468635D01*
X168426088Y-105465328D01*
X168442849Y-105369683D01*
X168451520Y-105354507D01*
X168889041Y-105354507D01*
X168893718Y-105400882D01*
X168905471Y-105406996D01*
X168919769Y-105374831D01*
X168916949Y-105354144D01*
X168893718Y-105348780D01*
X168889041Y-105354507D01*
X168451520Y-105354507D01*
X168522404Y-105230451D01*
X168562963Y-105178363D01*
X170918506Y-105178363D01*
X170948260Y-105233833D01*
X170997111Y-105281371D01*
X171050346Y-105285792D01*
X171076785Y-105238062D01*
X173179154Y-105238062D01*
X173198692Y-105257600D01*
X173218231Y-105238062D01*
X173198692Y-105218523D01*
X173179154Y-105238062D01*
X171076785Y-105238062D01*
X171089787Y-105214590D01*
X171092033Y-105207145D01*
X171094243Y-105121037D01*
X171048910Y-105086784D01*
X170970682Y-105116456D01*
X170951189Y-105131395D01*
X170918506Y-105178363D01*
X168562963Y-105178363D01*
X168638190Y-105081754D01*
X168685308Y-105081754D01*
X168704846Y-105101292D01*
X168724384Y-105081754D01*
X168704846Y-105062216D01*
X168685308Y-105081754D01*
X168638190Y-105081754D01*
X168663703Y-105048989D01*
X168771181Y-104930687D01*
X170411604Y-104930687D01*
X170443769Y-104944985D01*
X170464456Y-104942165D01*
X170467769Y-104927817D01*
X171271879Y-104927817D01*
X171280186Y-104941054D01*
X171342538Y-104905908D01*
X171370023Y-104882685D01*
X171354614Y-104867429D01*
X171340992Y-104868755D01*
X171283923Y-104905908D01*
X171276762Y-104918933D01*
X171271879Y-104927817D01*
X170467769Y-104927817D01*
X170469820Y-104918933D01*
X170464093Y-104914257D01*
X170417718Y-104918933D01*
X170411604Y-104930687D01*
X168771181Y-104930687D01*
X168865694Y-104826655D01*
X168968326Y-104723936D01*
X172726756Y-104723936D01*
X172743203Y-104765365D01*
X172760368Y-104771527D01*
X172809136Y-104747638D01*
X172821891Y-104708805D01*
X172797787Y-104676566D01*
X172745251Y-104698949D01*
X172726756Y-104723936D01*
X168968326Y-104723936D01*
X169016657Y-104675564D01*
X171467184Y-104675564D01*
X171493653Y-104714421D01*
X171558644Y-104719528D01*
X171635152Y-104686491D01*
X171642813Y-104680778D01*
X171685071Y-104631320D01*
X171661747Y-104584255D01*
X171597470Y-104563016D01*
X171521509Y-104592021D01*
X171470213Y-104659654D01*
X171467184Y-104675564D01*
X169016657Y-104675564D01*
X169127324Y-104564804D01*
X169166078Y-104528973D01*
X173276968Y-104528973D01*
X173294763Y-104572752D01*
X173320602Y-104576583D01*
X173360103Y-104535469D01*
X173372643Y-104479742D01*
X173351742Y-104452538D01*
X173300055Y-104491177D01*
X173276968Y-104528973D01*
X169166078Y-104528973D01*
X169294573Y-104410168D01*
X169383779Y-104339292D01*
X173374538Y-104339292D01*
X173394077Y-104358831D01*
X173413615Y-104339292D01*
X173394077Y-104319754D01*
X173374538Y-104339292D01*
X169383779Y-104339292D01*
X169482145Y-104261139D01*
X170170231Y-104261139D01*
X170171365Y-104276711D01*
X170203623Y-104318537D01*
X170260348Y-104294765D01*
X170270249Y-104278496D01*
X170258029Y-104228379D01*
X170207001Y-104202523D01*
X170190108Y-104209118D01*
X170170231Y-104261139D01*
X169482145Y-104261139D01*
X169604625Y-104163827D01*
X172878732Y-104163827D01*
X172911350Y-104206894D01*
X172971178Y-104233380D01*
X173060155Y-104233095D01*
X173115131Y-104182985D01*
X173127020Y-104130490D01*
X173105367Y-104052166D01*
X173100356Y-104048869D01*
X173667250Y-104048869D01*
X173684429Y-104088415D01*
X173741659Y-104097889D01*
X173811686Y-104069870D01*
X173817072Y-104065859D01*
X173853151Y-104018124D01*
X173824962Y-103956553D01*
X173819929Y-103949853D01*
X173777179Y-103916422D01*
X173733140Y-103941598D01*
X173673924Y-104032352D01*
X173667250Y-104048869D01*
X173100356Y-104048869D01*
X173045001Y-104012447D01*
X172969628Y-104021692D01*
X172902956Y-104090262D01*
X172901535Y-104092933D01*
X172878732Y-104163827D01*
X169604625Y-104163827D01*
X169755634Y-104043848D01*
X170101322Y-103823556D01*
X170685950Y-103823556D01*
X170712068Y-103894260D01*
X170768714Y-103907307D01*
X170851647Y-103847869D01*
X170872544Y-103824159D01*
X170891310Y-103772677D01*
X174038846Y-103772677D01*
X174039294Y-103781520D01*
X174056078Y-103811754D01*
X174062347Y-103809956D01*
X174097461Y-103772677D01*
X174103567Y-103757540D01*
X174080229Y-103733600D01*
X174068887Y-103735102D01*
X174052897Y-103755102D01*
X174038846Y-103772677D01*
X170891310Y-103772677D01*
X170897717Y-103755102D01*
X170858121Y-103715869D01*
X170763429Y-103720435D01*
X170703122Y-103751451D01*
X170685950Y-103823556D01*
X170101322Y-103823556D01*
X170250915Y-103728227D01*
X170765416Y-103472209D01*
X171284138Y-103284696D01*
X171536592Y-103212980D01*
X171756870Y-103156445D01*
X171954845Y-103115106D01*
X172150607Y-103085995D01*
X172364247Y-103066147D01*
X172615858Y-103052596D01*
X172925530Y-103042375D01*
X172961834Y-103041378D01*
X173227879Y-103034909D01*
X173435834Y-103032671D01*
X173603583Y-103035784D01*
X173749009Y-103045371D01*
X173889996Y-103062551D01*
X174044426Y-103088448D01*
X174230182Y-103124181D01*
X174350240Y-103148021D01*
X174540831Y-103187001D01*
X174671509Y-103216838D01*
X174753539Y-103241255D01*
X174798185Y-103263972D01*
X174816712Y-103288713D01*
X174820385Y-103319199D01*
X174819889Y-103325694D01*
X174789957Y-103403984D01*
X174717890Y-103533863D01*
X174609523Y-103707063D01*
X174575872Y-103757540D01*
X174470694Y-103915313D01*
X174399193Y-104018124D01*
X174321048Y-104130490D01*
X174307240Y-104150345D01*
G36*
X176418909Y-107912376D02*
G01*
X176400743Y-107943000D01*
X176347975Y-107957155D01*
X176246101Y-107959537D01*
X176080615Y-107954844D01*
X175836384Y-107946791D01*
X175836384Y-108158760D01*
X175834317Y-108243365D01*
X175824860Y-108345995D01*
X175810333Y-108396780D01*
X175794106Y-108410371D01*
X175759922Y-108417874D01*
X175707274Y-108397625D01*
X175621735Y-108342903D01*
X175488881Y-108246985D01*
X175466460Y-108230542D01*
X175353353Y-108149623D01*
X175269117Y-108092669D01*
X175230582Y-108071139D01*
X175228910Y-108071616D01*
X175216315Y-108112788D01*
X175211154Y-108200092D01*
X175211141Y-108203150D01*
X175197292Y-108306028D01*
X175165191Y-108375009D01*
X175115750Y-108402446D01*
X175064100Y-108373465D01*
X175028826Y-108283092D01*
X175015769Y-108140497D01*
X175015769Y-107945886D01*
X174756507Y-107959666D01*
X174684707Y-107962818D01*
X174564440Y-107961072D01*
X174494497Y-107943991D01*
X174455927Y-107908337D01*
X174435698Y-107857581D01*
X174437602Y-107852657D01*
X175280519Y-107852657D01*
X175392375Y-107944291D01*
X175501484Y-108031380D01*
X175580337Y-108079549D01*
X175621956Y-108069091D01*
X175638218Y-107995753D01*
X175641000Y-107855284D01*
X175640415Y-107740222D01*
X175630778Y-107654050D01*
X175598549Y-107631629D01*
X175530129Y-107666942D01*
X175411913Y-107753975D01*
X175280519Y-107852657D01*
X174437602Y-107852657D01*
X174464497Y-107783116D01*
X174473623Y-107773265D01*
X174526058Y-107745286D01*
X174615964Y-107737078D01*
X174762964Y-107746217D01*
X175011544Y-107769430D01*
X175023426Y-107539284D01*
X175029083Y-107451324D01*
X175042994Y-107360459D01*
X175068798Y-107319000D01*
X175113461Y-107309139D01*
X175158084Y-107319027D01*
X175191326Y-107368645D01*
X175211154Y-107477388D01*
X175230692Y-107645638D01*
X175475228Y-107463555D01*
X175501288Y-107444296D01*
X175644448Y-107347847D01*
X175741091Y-107307906D01*
X175799663Y-107326413D01*
X175828612Y-107405310D01*
X175836384Y-107546536D01*
X175836384Y-107766847D01*
X176403000Y-107738985D01*
X176415365Y-107846446D01*
X176416376Y-107855284D01*
X176416981Y-107860585D01*
X176418909Y-107912376D01*
G37*
X176418909Y-107912376D02*
X176400743Y-107943000D01*
X176347975Y-107957155D01*
X176246101Y-107959537D01*
X176080615Y-107954844D01*
X175836384Y-107946791D01*
X175836384Y-108158760D01*
X175834317Y-108243365D01*
X175824860Y-108345995D01*
X175810333Y-108396780D01*
X175794106Y-108410371D01*
X175759922Y-108417874D01*
X175707274Y-108397625D01*
X175621735Y-108342903D01*
X175488881Y-108246985D01*
X175466460Y-108230542D01*
X175353353Y-108149623D01*
X175269117Y-108092669D01*
X175230582Y-108071139D01*
X175228910Y-108071616D01*
X175216315Y-108112788D01*
X175211154Y-108200092D01*
X175211141Y-108203150D01*
X175197292Y-108306028D01*
X175165191Y-108375009D01*
X175115750Y-108402446D01*
X175064100Y-108373465D01*
X175028826Y-108283092D01*
X175015769Y-108140497D01*
X175015769Y-107945886D01*
X174756507Y-107959666D01*
X174684707Y-107962818D01*
X174564440Y-107961072D01*
X174494497Y-107943991D01*
X174455927Y-107908337D01*
X174435698Y-107857581D01*
X174437602Y-107852657D01*
X175280519Y-107852657D01*
X175392375Y-107944291D01*
X175501484Y-108031380D01*
X175580337Y-108079549D01*
X175621956Y-108069091D01*
X175638218Y-107995753D01*
X175641000Y-107855284D01*
X175640415Y-107740222D01*
X175630778Y-107654050D01*
X175598549Y-107631629D01*
X175530129Y-107666942D01*
X175411913Y-107753975D01*
X175280519Y-107852657D01*
X174437602Y-107852657D01*
X174464497Y-107783116D01*
X174473623Y-107773265D01*
X174526058Y-107745286D01*
X174615964Y-107737078D01*
X174762964Y-107746217D01*
X175011544Y-107769430D01*
X175023426Y-107539284D01*
X175029083Y-107451324D01*
X175042994Y-107360459D01*
X175068798Y-107319000D01*
X175113461Y-107309139D01*
X175158084Y-107319027D01*
X175191326Y-107368645D01*
X175211154Y-107477388D01*
X175230692Y-107645638D01*
X175475228Y-107463555D01*
X175501288Y-107444296D01*
X175644448Y-107347847D01*
X175741091Y-107307906D01*
X175799663Y-107326413D01*
X175828612Y-107405310D01*
X175836384Y-107546536D01*
X175836384Y-107766847D01*
X176403000Y-107738985D01*
X176415365Y-107846446D01*
X176416376Y-107855284D01*
X176416981Y-107860585D01*
X176418909Y-107912376D01*
%TD*%
D11*
%TO.P,X1,1,VCC*%
%TO.N,unconnected-(X1-Pad1)*%
X130489000Y-108808200D03*
D12*
%TO.P,X1,2,GND*%
%TO.N,unconnected-(X1-Pad2)*%
X130489000Y-111348200D03*
D11*
%TO.P,X1,3,SDA*%
%TO.N,unconnected-(X1-Pad3)*%
X133029000Y-108808200D03*
%TO.P,X1,4,SCL*%
%TO.N,unconnected-(X1-Pad4)*%
X133029000Y-111348200D03*
D13*
%TO.P,X1,5,GPIO1*%
%TO.N,unconnected-(X1-Pad5)*%
X135569000Y-108808200D03*
%TO.P,X1,6,GPIO2*%
%TO.N,unconnected-(X1-Pad6)*%
X135569000Y-111348200D03*
%TD*%
%TA.AperFunction,NonConductor*%
G36*
X175277578Y-106539897D02*
G01*
X175379254Y-106541948D01*
X175407714Y-106545795D01*
X175482807Y-106564856D01*
X175554745Y-106583118D01*
X175615849Y-106619265D01*
X175647712Y-106682710D01*
X175640215Y-106753310D01*
X175595739Y-106808649D01*
X175573411Y-106821042D01*
X175539703Y-106835500D01*
X175538203Y-106836131D01*
X175515373Y-106845566D01*
X175504029Y-106849630D01*
X175501913Y-106850276D01*
X175493043Y-106851652D01*
X175484919Y-106855461D01*
X175476328Y-106858082D01*
X175475507Y-106855390D01*
X175419570Y-106863999D01*
X175382034Y-106850579D01*
X175381469Y-106851873D01*
X175373238Y-106848281D01*
X175365607Y-106843562D01*
X175356959Y-106841175D01*
X175356952Y-106841172D01*
X175326561Y-106832784D01*
X175314233Y-106828687D01*
X175312771Y-106828116D01*
X175312763Y-106828114D01*
X175308227Y-106826341D01*
X175288519Y-106821974D01*
X175285960Y-106821407D01*
X175279695Y-106819850D01*
X175232473Y-106806816D01*
X175232469Y-106806816D01*
X175223819Y-106804428D01*
X175214841Y-106804565D01*
X175210498Y-106804010D01*
X175198770Y-106801945D01*
X175169878Y-106795433D01*
X175107824Y-106760947D01*
X175074264Y-106698383D01*
X175079855Y-106627607D01*
X175122824Y-106571089D01*
X175170975Y-106549358D01*
X175187469Y-106545795D01*
X175205728Y-106541851D01*
X175234870Y-106539036D01*
X175277578Y-106539897D01*
G37*
%TD.AperFunction*%
%TA.AperFunction,NonConductor*%
G36*
X170854853Y-106572214D02*
G01*
X171016469Y-106573923D01*
X171023465Y-106574192D01*
X171087693Y-106578462D01*
X171140325Y-106593931D01*
X171145162Y-106596607D01*
X171156916Y-106603983D01*
X171220717Y-106649109D01*
X171229647Y-106656050D01*
X171329334Y-106740996D01*
X171335709Y-106746817D01*
X171396022Y-106805802D01*
X171435119Y-106844038D01*
X171439271Y-106848099D01*
X171441882Y-106850729D01*
X171450011Y-106859162D01*
X171451208Y-106860423D01*
X171473109Y-106883853D01*
X171475596Y-106885851D01*
X171478237Y-106888443D01*
X171488982Y-106899589D01*
X171534542Y-106946852D01*
X171543353Y-106957028D01*
X171546813Y-106961485D01*
X171550357Y-106964827D01*
X171550358Y-106964829D01*
X171564857Y-106978505D01*
X171569115Y-106982717D01*
X171584147Y-106998311D01*
X171587683Y-107001064D01*
X171587690Y-107001070D01*
X171589216Y-107002258D01*
X171598266Y-107010019D01*
X171650462Y-107059254D01*
X171655166Y-107063932D01*
X171667944Y-107077328D01*
X171667953Y-107077336D01*
X171671305Y-107080850D01*
X171677223Y-107085391D01*
X171686522Y-107093309D01*
X171686854Y-107093580D01*
X171690121Y-107096662D01*
X171693782Y-107099243D01*
X171693789Y-107099248D01*
X171709990Y-107110666D01*
X171714111Y-107113698D01*
X171729988Y-107125882D01*
X171740336Y-107134753D01*
X171768696Y-107161866D01*
X171776771Y-107166054D01*
X171776856Y-107166135D01*
X171783968Y-107171220D01*
X171783234Y-107172246D01*
X171828033Y-107215168D01*
X171844606Y-107284203D01*
X171838128Y-107313504D01*
X171838846Y-107313682D01*
X171832402Y-107339688D01*
X171823955Y-107363093D01*
X171819409Y-107369852D01*
X171806887Y-107409270D01*
X171802350Y-107423551D01*
X171800029Y-107430206D01*
X171798300Y-107434752D01*
X171793536Y-107447273D01*
X171792551Y-107451650D01*
X171791623Y-107455773D01*
X171788786Y-107466250D01*
X171785190Y-107477571D01*
X171784447Y-107482385D01*
X171784446Y-107482389D01*
X171782509Y-107494939D01*
X171780910Y-107503379D01*
X171771392Y-107545679D01*
X171771392Y-107545685D01*
X171769422Y-107554438D01*
X171769988Y-107563392D01*
X171769279Y-107572344D01*
X171769081Y-107572328D01*
X171768470Y-107585902D01*
X171765366Y-107606016D01*
X171762808Y-107618111D01*
X171762601Y-107619207D01*
X171761329Y-107623918D01*
X171760797Y-107628761D01*
X171760797Y-107628764D01*
X171758495Y-107649744D01*
X171757772Y-107655220D01*
X171754286Y-107677805D01*
X171754237Y-107682283D01*
X171753869Y-107686761D01*
X171753535Y-107686734D01*
X171752428Y-107698840D01*
X171708131Y-107954045D01*
X171690192Y-108057391D01*
X171685624Y-108075561D01*
X171592563Y-108355724D01*
X171583809Y-108375959D01*
X171468831Y-108588493D01*
X171466533Y-108592740D01*
X171452307Y-108613688D01*
X171317461Y-108774692D01*
X171297418Y-108793867D01*
X171175371Y-108887218D01*
X171144338Y-108910954D01*
X171119962Y-108925564D01*
X170925945Y-109013822D01*
X170905527Y-109021064D01*
X170812040Y-109045411D01*
X170790086Y-109049096D01*
X170717515Y-109054758D01*
X170643713Y-109060516D01*
X170611642Y-109058913D01*
X170490087Y-109037079D01*
X170461576Y-109028375D01*
X170279959Y-108948383D01*
X170268175Y-108942437D01*
X170095939Y-108843894D01*
X170091095Y-108840976D01*
X170047921Y-108813632D01*
X170047917Y-108813630D01*
X170040333Y-108808827D01*
X170031707Y-108806346D01*
X170031705Y-108806345D01*
X169999596Y-108797110D01*
X169987984Y-108793148D01*
X169969812Y-108785943D01*
X169913860Y-108742242D01*
X169890416Y-108675228D01*
X169891325Y-108652416D01*
X169893156Y-108638467D01*
X169893156Y-108638465D01*
X169894324Y-108629567D01*
X169892948Y-108620701D01*
X169892843Y-108611719D01*
X169892968Y-108611718D01*
X169892318Y-108594720D01*
X169892480Y-108592634D01*
X169894437Y-108583874D01*
X169891355Y-108536313D01*
X169891111Y-108525943D01*
X169891289Y-108515957D01*
X169889154Y-108498894D01*
X169888446Y-108491422D01*
X169888093Y-108485972D01*
X169887128Y-108471087D01*
X169885112Y-108462038D01*
X169883075Y-108450305D01*
X169877653Y-108406962D01*
X169872528Y-108395137D01*
X169865152Y-108372428D01*
X169856345Y-108332889D01*
X169854810Y-108323535D01*
X169854173Y-108320096D01*
X169853657Y-108315248D01*
X169846760Y-108289369D01*
X169845524Y-108284315D01*
X169841349Y-108265571D01*
X169841349Y-108265570D01*
X169840376Y-108261203D01*
X169838795Y-108257020D01*
X169837508Y-108252712D01*
X169837669Y-108252664D01*
X169832229Y-108232042D01*
X169815007Y-108121389D01*
X169813510Y-108101246D01*
X169813591Y-108087862D01*
X169813646Y-108078885D01*
X169804250Y-108046010D01*
X169800902Y-108030779D01*
X169793489Y-107983158D01*
X169792104Y-107958414D01*
X169802216Y-107721038D01*
X169805173Y-107698752D01*
X169854644Y-107478802D01*
X169855972Y-107472896D01*
X169862800Y-107452771D01*
X169865511Y-107448588D01*
X169868082Y-107439991D01*
X169868084Y-107439987D01*
X169877271Y-107409270D01*
X169881612Y-107397075D01*
X169964664Y-107196967D01*
X169975001Y-107177209D01*
X170114648Y-106959633D01*
X170126326Y-106944191D01*
X170177534Y-106886323D01*
X170189647Y-106874369D01*
X170205999Y-106860280D01*
X170206001Y-106860278D01*
X170212797Y-106854422D01*
X170217730Y-106846812D01*
X170241212Y-106819895D01*
X170285191Y-106782000D01*
X170285193Y-106781998D01*
X170289841Y-106777993D01*
X170291071Y-106776096D01*
X170292624Y-106774537D01*
X170312652Y-106756923D01*
X170321210Y-106750035D01*
X170437582Y-106664456D01*
X170446062Y-106658735D01*
X170456367Y-106652376D01*
X170500051Y-106625420D01*
X170508207Y-106620797D01*
X170558663Y-106594632D01*
X170572196Y-106588596D01*
X170574610Y-106587685D01*
X170575501Y-106587349D01*
X170596811Y-106581388D01*
X170597808Y-106581202D01*
X170602775Y-106580273D01*
X170618505Y-106578345D01*
X170692743Y-106573960D01*
X170696317Y-106573749D01*
X170702630Y-106573535D01*
X170729113Y-106573301D01*
X170852408Y-106572212D01*
X170854853Y-106572214D01*
G37*
%TD.AperFunction*%
%TA.AperFunction,NonConductor*%
G36*
X131848032Y-109515016D02*
G01*
X131868125Y-109539999D01*
X131915275Y-109616943D01*
X131915279Y-109616948D01*
X131917975Y-109621347D01*
X132065702Y-109791887D01*
X132171231Y-109879499D01*
X132232612Y-109930458D01*
X132239299Y-109936010D01*
X132243751Y-109938612D01*
X132243756Y-109938615D01*
X132293069Y-109967431D01*
X132341792Y-110019070D01*
X132354863Y-110088853D01*
X132328131Y-110154625D01*
X132297595Y-110181983D01*
X132295335Y-110183160D01*
X132114905Y-110318630D01*
X132111333Y-110322368D01*
X132051411Y-110385072D01*
X131989887Y-110420501D01*
X131918975Y-110417044D01*
X131861188Y-110375798D01*
X131842336Y-110342250D01*
X131806367Y-110246303D01*
X131803215Y-110237895D01*
X131715861Y-110121339D01*
X131599305Y-110033985D01*
X131590896Y-110030833D01*
X131590895Y-110030832D01*
X131494838Y-109994822D01*
X131438073Y-109952181D01*
X131413373Y-109885619D01*
X131428580Y-109816270D01*
X131450127Y-109787589D01*
X131513688Y-109724249D01*
X131537487Y-109700533D01*
X131658370Y-109532307D01*
X131714364Y-109488659D01*
X131785068Y-109482213D01*
X131848032Y-109515016D01*
G37*
%TD.AperFunction*%
%TA.AperFunction,NonConductor*%
G36*
X134388032Y-109515016D02*
G01*
X134408125Y-109539999D01*
X134455275Y-109616943D01*
X134455279Y-109616948D01*
X134457975Y-109621347D01*
X134605702Y-109791887D01*
X134711231Y-109879499D01*
X134772612Y-109930458D01*
X134779299Y-109936010D01*
X134783751Y-109938612D01*
X134783756Y-109938615D01*
X134833069Y-109967431D01*
X134881792Y-110019070D01*
X134894863Y-110088853D01*
X134868131Y-110154625D01*
X134837595Y-110181983D01*
X134835335Y-110183160D01*
X134654905Y-110318630D01*
X134499024Y-110481750D01*
X134496109Y-110486024D01*
X134496106Y-110486027D01*
X134402503Y-110623243D01*
X134347592Y-110668246D01*
X134277067Y-110676417D01*
X134213320Y-110645163D01*
X134192623Y-110620679D01*
X134122634Y-110512491D01*
X134122632Y-110512488D01*
X134119826Y-110508151D01*
X133967977Y-110341271D01*
X133963926Y-110338072D01*
X133963922Y-110338068D01*
X133794966Y-110204634D01*
X133794962Y-110204632D01*
X133790911Y-110201432D01*
X133767535Y-110188528D01*
X133717564Y-110138096D01*
X133702792Y-110068653D01*
X133727908Y-110002247D01*
X133755259Y-109975641D01*
X133774026Y-109962255D01*
X133805355Y-109939908D01*
X133913455Y-109862801D01*
X133913459Y-109862797D01*
X133917667Y-109859796D01*
X134077487Y-109700533D01*
X134198370Y-109532307D01*
X134254364Y-109488659D01*
X134325068Y-109482213D01*
X134388032Y-109515016D01*
G37*
%TD.AperFunction*%
%TA.AperFunction,NonConductor*%
G36*
X177663386Y-93676326D02*
G01*
X177815372Y-93691530D01*
X177840049Y-93696527D01*
X177931206Y-93724716D01*
X177949079Y-93730243D01*
X177971844Y-93739816D01*
X178070394Y-93793174D01*
X178090559Y-93806760D01*
X178176654Y-93877752D01*
X178193732Y-93894836D01*
X178228008Y-93936431D01*
X178264710Y-93980971D01*
X178278272Y-94001106D01*
X178305796Y-94051943D01*
X178331684Y-94099757D01*
X178341258Y-94122524D01*
X178375012Y-94231679D01*
X178380005Y-94256305D01*
X178395269Y-94408203D01*
X178395900Y-94420801D01*
X178395900Y-105022408D01*
X178375898Y-105090529D01*
X178322242Y-105137022D01*
X178251968Y-105147126D01*
X178187388Y-105117632D01*
X178167867Y-105096336D01*
X178072855Y-104965203D01*
X178072854Y-104965201D01*
X178061792Y-104949934D01*
X178057262Y-104943240D01*
X178033421Y-104905454D01*
X178028631Y-104897862D01*
X178021902Y-104891919D01*
X178016084Y-104885083D01*
X178016367Y-104884843D01*
X178007768Y-104875371D01*
X177978290Y-104834686D01*
X177972790Y-104826430D01*
X177967621Y-104817965D01*
X177967614Y-104817955D01*
X177965080Y-104813806D01*
X177954863Y-104801741D01*
X177948998Y-104794259D01*
X177941564Y-104783999D01*
X177938451Y-104780783D01*
X177938446Y-104780778D01*
X177930711Y-104772790D01*
X177925080Y-104766574D01*
X177898076Y-104734688D01*
X177690838Y-104489981D01*
X177684201Y-104481423D01*
X177679828Y-104475254D01*
X177677012Y-104471281D01*
X177664393Y-104458297D01*
X177658612Y-104451928D01*
X177648929Y-104440494D01*
X177639011Y-104431692D01*
X177632304Y-104425280D01*
X177562446Y-104353403D01*
X177551012Y-104338883D01*
X177547345Y-104334574D01*
X177542557Y-104326985D01*
X177535834Y-104321047D01*
X177535831Y-104321044D01*
X177505304Y-104294084D01*
X177498369Y-104287472D01*
X177375430Y-104160980D01*
X177368535Y-104153275D01*
X177359875Y-104142757D01*
X177347216Y-104131484D01*
X177340674Y-104125221D01*
X177334158Y-104118516D01*
X177334157Y-104118515D01*
X177331040Y-104115308D01*
X177319600Y-104106477D01*
X177312810Y-104100844D01*
X177047820Y-103864864D01*
X177039803Y-103857059D01*
X177031948Y-103848698D01*
X177028109Y-103845706D01*
X177028103Y-103845700D01*
X177016898Y-103836965D01*
X177010582Y-103831702D01*
X176998681Y-103821104D01*
X176988473Y-103814338D01*
X176980620Y-103808689D01*
X176860307Y-103714908D01*
X176850677Y-103706586D01*
X176848745Y-103704738D01*
X176845234Y-103701380D01*
X176841252Y-103698605D01*
X176841245Y-103698599D01*
X176826436Y-103688278D01*
X176821024Y-103684287D01*
X176813154Y-103678153D01*
X176807204Y-103673215D01*
X176789560Y-103657632D01*
X176789559Y-103657632D01*
X176782834Y-103651692D01*
X176765289Y-103643455D01*
X176746799Y-103632773D01*
X176704467Y-103603270D01*
X176698689Y-103598719D01*
X176698655Y-103598764D01*
X176694773Y-103595822D01*
X176691133Y-103592592D01*
X176687040Y-103589961D01*
X176687036Y-103589958D01*
X176667556Y-103577437D01*
X176663638Y-103574814D01*
X176646876Y-103563131D01*
X176646870Y-103563127D01*
X176643192Y-103560564D01*
X176639187Y-103558547D01*
X176635910Y-103556594D01*
X176628933Y-103552610D01*
X176529404Y-103488633D01*
X176524208Y-103485106D01*
X176522144Y-103483629D01*
X176518422Y-103480504D01*
X176491654Y-103464312D01*
X176488734Y-103462491D01*
X176468834Y-103449699D01*
X176468833Y-103449698D01*
X176465066Y-103447277D01*
X176460996Y-103445415D01*
X176457398Y-103443448D01*
X176452617Y-103440697D01*
X176347637Y-103377196D01*
X176342089Y-103373639D01*
X176341498Y-103373238D01*
X176337692Y-103370200D01*
X176309892Y-103354317D01*
X176307182Y-103352724D01*
X176286296Y-103340090D01*
X176286291Y-103340087D01*
X176282455Y-103337767D01*
X176278324Y-103336011D01*
X176276413Y-103335034D01*
X176271292Y-103332263D01*
X176172291Y-103275700D01*
X176167118Y-103272578D01*
X176163648Y-103270369D01*
X176159754Y-103267443D01*
X176155459Y-103265153D01*
X176155454Y-103265150D01*
X176132722Y-103253031D01*
X176129495Y-103251249D01*
X176109506Y-103239829D01*
X176105605Y-103237600D01*
X176101429Y-103235947D01*
X176097396Y-103234009D01*
X176097464Y-103233867D01*
X176092232Y-103231444D01*
X176008339Y-103186718D01*
X175996736Y-103179705D01*
X175996315Y-103179418D01*
X175996313Y-103179417D01*
X175992291Y-103176680D01*
X175969662Y-103165943D01*
X175964411Y-103163298D01*
X175949030Y-103155098D01*
X175949026Y-103155096D01*
X175945068Y-103152986D01*
X175940856Y-103151460D01*
X175940844Y-103151455D01*
X175939254Y-103150879D01*
X175928170Y-103146255D01*
X175851752Y-103109996D01*
X175848207Y-103108243D01*
X175825367Y-103096498D01*
X175825365Y-103096497D01*
X175821032Y-103094269D01*
X175816411Y-103092735D01*
X175816025Y-103092573D01*
X175811893Y-103091083D01*
X175808117Y-103089291D01*
X175783641Y-103081698D01*
X175771855Y-103077236D01*
X175765285Y-103073069D01*
X175756663Y-103070583D01*
X175756659Y-103070581D01*
X175705875Y-103055938D01*
X175701088Y-103054455D01*
X175683369Y-103048573D01*
X175683367Y-103048573D01*
X175679118Y-103047162D01*
X175674701Y-103046366D01*
X175672264Y-103045746D01*
X175663107Y-103043606D01*
X175643648Y-103037995D01*
X175623954Y-103032316D01*
X175608768Y-103032373D01*
X175585957Y-103030377D01*
X175571014Y-103027685D01*
X175538040Y-103031201D01*
X175530495Y-103032006D01*
X175517606Y-103032715D01*
X175511349Y-103032738D01*
X175510933Y-103032740D01*
X175510933Y-103032685D01*
X175503346Y-103032851D01*
X175501332Y-103032776D01*
X175485534Y-103032188D01*
X175462528Y-103037996D01*
X175445069Y-103041115D01*
X175424752Y-103043282D01*
X175406458Y-103050817D01*
X175389327Y-103056476D01*
X175387468Y-103056945D01*
X175382768Y-103058132D01*
X175311825Y-103055419D01*
X175253609Y-103014782D01*
X175249459Y-103008680D01*
X175248670Y-103006687D01*
X175244154Y-103000883D01*
X175244143Y-103000866D01*
X175241956Y-102998055D01*
X175233770Y-102986189D01*
X175221857Y-102966612D01*
X175217188Y-102958938D01*
X175210554Y-102952885D01*
X175210552Y-102952882D01*
X175207328Y-102949940D01*
X175191410Y-102932400D01*
X175189806Y-102930258D01*
X175189798Y-102930248D01*
X175187115Y-102926666D01*
X175184595Y-102924144D01*
X175181938Y-102920909D01*
X175163865Y-102897677D01*
X175163864Y-102897676D01*
X175158353Y-102890592D01*
X175140459Y-102877678D01*
X175125066Y-102864568D01*
X175109474Y-102848964D01*
X175101604Y-102844651D01*
X175079480Y-102832527D01*
X175074394Y-102829584D01*
X175070661Y-102827306D01*
X175066704Y-102824450D01*
X175050351Y-102816129D01*
X175044718Y-102812841D01*
X175040448Y-102809033D01*
X175014738Y-102796811D01*
X175008304Y-102793523D01*
X174980482Y-102778276D01*
X174974168Y-102776885D01*
X174967154Y-102773797D01*
X174953549Y-102766874D01*
X174949303Y-102765427D01*
X174946665Y-102764313D01*
X174943257Y-102762784D01*
X174942763Y-102762594D01*
X174938372Y-102760507D01*
X174933710Y-102759119D01*
X174933704Y-102759117D01*
X174913018Y-102752960D01*
X174908353Y-102751472D01*
X174849576Y-102731442D01*
X174844835Y-102731234D01*
X174834060Y-102728105D01*
X174833977Y-102728372D01*
X174829329Y-102726925D01*
X174824808Y-102725125D01*
X174820068Y-102724043D01*
X174820056Y-102724039D01*
X174806025Y-102720836D01*
X174798132Y-102718763D01*
X174782668Y-102714160D01*
X174770745Y-102712394D01*
X174761169Y-102710594D01*
X174693229Y-102695082D01*
X174687251Y-102693545D01*
X174682911Y-102691930D01*
X174678140Y-102690954D01*
X174678132Y-102690952D01*
X174655664Y-102686358D01*
X174650838Y-102685371D01*
X174648126Y-102684784D01*
X174619190Y-102678177D01*
X174614711Y-102677808D01*
X174614225Y-102677733D01*
X174608244Y-102676659D01*
X174491717Y-102652826D01*
X174490629Y-102652562D01*
X174489486Y-102652145D01*
X174452014Y-102644704D01*
X174451506Y-102644602D01*
X174417011Y-102637547D01*
X174415789Y-102637474D01*
X174414702Y-102637295D01*
X174368780Y-102628177D01*
X174367663Y-102627913D01*
X174366462Y-102627482D01*
X174363079Y-102626831D01*
X174363074Y-102626830D01*
X174346822Y-102623704D01*
X174328925Y-102620261D01*
X174328511Y-102620180D01*
X174294032Y-102613334D01*
X174292766Y-102613266D01*
X174291591Y-102613080D01*
X174179901Y-102591594D01*
X174173396Y-102590162D01*
X174168799Y-102588635D01*
X174136927Y-102583290D01*
X174133965Y-102582757D01*
X174109615Y-102578073D01*
X174109614Y-102578073D01*
X174105222Y-102577228D01*
X174100756Y-102577015D01*
X174099369Y-102576849D01*
X174093477Y-102576004D01*
X174009875Y-102561984D01*
X173996731Y-102559032D01*
X173996501Y-102558986D01*
X173991815Y-102557660D01*
X173986986Y-102557072D01*
X173986983Y-102557071D01*
X173966359Y-102554558D01*
X173960763Y-102553748D01*
X173942974Y-102550765D01*
X173942971Y-102550765D01*
X173938560Y-102550025D01*
X173932998Y-102549892D01*
X173920777Y-102549003D01*
X173842993Y-102539525D01*
X173830702Y-102537406D01*
X173827443Y-102536676D01*
X173827441Y-102536676D01*
X173822700Y-102535614D01*
X173800477Y-102534149D01*
X173793523Y-102533497D01*
X173778982Y-102531725D01*
X173778978Y-102531725D01*
X173774524Y-102531182D01*
X173770036Y-102531276D01*
X173770034Y-102531276D01*
X173765536Y-102531370D01*
X173754614Y-102531125D01*
X173711480Y-102528282D01*
X173671961Y-102525677D01*
X173658565Y-102524070D01*
X173653103Y-102523115D01*
X173636667Y-102522810D01*
X173628233Y-102522653D01*
X173622287Y-102522402D01*
X173608233Y-102521476D01*
X173600572Y-102520971D01*
X173594248Y-102521455D01*
X173582298Y-102521801D01*
X173485312Y-102520000D01*
X173479291Y-102519745D01*
X173475128Y-102519468D01*
X173470305Y-102518770D01*
X173465439Y-102518822D01*
X173465434Y-102518822D01*
X173439654Y-102519099D01*
X173435967Y-102519084D01*
X173412985Y-102518658D01*
X173412982Y-102518658D01*
X173408499Y-102518575D01*
X173404053Y-102519128D01*
X173399567Y-102519364D01*
X173399559Y-102519204D01*
X173393805Y-102519594D01*
X173334747Y-102520229D01*
X173261254Y-102521019D01*
X173258183Y-102520954D01*
X173255384Y-102520588D01*
X173250527Y-102520706D01*
X173250524Y-102520706D01*
X173219738Y-102521455D01*
X173218029Y-102521485D01*
X173202534Y-102521652D01*
X173185486Y-102521835D01*
X173182700Y-102522264D01*
X173179560Y-102522431D01*
X173008320Y-102526596D01*
X172988989Y-102527066D01*
X172988390Y-102527058D01*
X172987722Y-102526973D01*
X172985818Y-102527025D01*
X172985795Y-102527025D01*
X172950810Y-102527986D01*
X172949734Y-102527977D01*
X172948568Y-102527835D01*
X172937937Y-102528186D01*
X172924591Y-102528626D01*
X172923503Y-102528658D01*
X172915089Y-102528863D01*
X172912497Y-102528926D01*
X172912455Y-102527197D01*
X172911658Y-102527043D01*
X172911724Y-102529051D01*
X172910415Y-102529094D01*
X172909739Y-102529114D01*
X172877786Y-102529992D01*
X172877763Y-102529994D01*
X172874578Y-102530081D01*
X172873421Y-102530279D01*
X172872318Y-102530352D01*
X172637871Y-102538090D01*
X172632422Y-102538116D01*
X172628184Y-102537688D01*
X172623334Y-102537949D01*
X172623327Y-102537949D01*
X172594842Y-102539483D01*
X172592227Y-102539596D01*
X172577583Y-102540080D01*
X172562070Y-102540592D01*
X172557893Y-102541332D01*
X172552267Y-102541777D01*
X172523103Y-102543348D01*
X172373931Y-102551381D01*
X172366293Y-102551351D01*
X172366293Y-102551375D01*
X172361433Y-102551450D01*
X172356573Y-102551149D01*
X172351729Y-102551599D01*
X172351728Y-102551599D01*
X172329121Y-102553699D01*
X172324245Y-102554057D01*
X172321294Y-102554216D01*
X172299816Y-102555373D01*
X172295416Y-102556247D01*
X172293060Y-102556543D01*
X172283404Y-102557947D01*
X172142943Y-102570996D01*
X172135200Y-102571715D01*
X172122683Y-102572252D01*
X172119514Y-102572230D01*
X172119509Y-102572230D01*
X172114641Y-102572197D01*
X172092474Y-102575493D01*
X172085614Y-102576322D01*
X172083565Y-102576512D01*
X172070856Y-102577692D01*
X172070849Y-102577693D01*
X172066394Y-102578107D01*
X172062042Y-102579148D01*
X172062026Y-102579151D01*
X172057780Y-102580167D01*
X172046995Y-102582255D01*
X171910185Y-102602600D01*
X171898121Y-102603805D01*
X171889040Y-102604272D01*
X171878669Y-102606437D01*
X171868118Y-102608640D01*
X171860903Y-102609929D01*
X171842847Y-102612614D01*
X171833345Y-102615448D01*
X171823102Y-102618040D01*
X171729681Y-102637547D01*
X171686440Y-102646576D01*
X171672861Y-102648646D01*
X171672808Y-102648651D01*
X171672805Y-102648651D01*
X171667959Y-102649122D01*
X171663251Y-102650330D01*
X171663247Y-102650331D01*
X171658681Y-102651503D01*
X171643274Y-102655457D01*
X171637724Y-102656748D01*
X171620204Y-102660406D01*
X171620197Y-102660408D01*
X171615820Y-102661322D01*
X171611608Y-102662851D01*
X171611603Y-102662852D01*
X171610442Y-102663273D01*
X171598777Y-102666878D01*
X171447067Y-102705814D01*
X171440728Y-102707267D01*
X171439569Y-102707501D01*
X171434748Y-102708094D01*
X171404097Y-102716801D01*
X171401050Y-102717624D01*
X171377574Y-102723649D01*
X171377560Y-102723654D01*
X171373226Y-102724766D01*
X171369090Y-102726483D01*
X171366552Y-102727331D01*
X171361063Y-102729026D01*
X171170252Y-102783231D01*
X171159916Y-102785702D01*
X171147185Y-102788182D01*
X171142605Y-102789838D01*
X171142600Y-102789839D01*
X171130646Y-102794160D01*
X171122256Y-102796865D01*
X171108352Y-102800815D01*
X171095747Y-102806429D01*
X171087337Y-102809816D01*
X170844286Y-102897677D01*
X170603713Y-102984642D01*
X170598995Y-102986243D01*
X170572463Y-102994662D01*
X170568103Y-102996831D01*
X170564412Y-102998325D01*
X170564483Y-102998485D01*
X170560394Y-103000301D01*
X170556173Y-103001827D01*
X170530522Y-103015480D01*
X170527491Y-103017040D01*
X170036875Y-103261172D01*
X170031305Y-103263776D01*
X170013143Y-103271733D01*
X170013139Y-103271735D01*
X170008686Y-103273686D01*
X170003472Y-103277009D01*
X169996708Y-103280832D01*
X169993150Y-103282931D01*
X169989144Y-103284924D01*
X169985456Y-103287469D01*
X169967986Y-103299523D01*
X169964141Y-103302073D01*
X169493964Y-103601696D01*
X169488522Y-103604974D01*
X169471756Y-103614506D01*
X169467517Y-103616916D01*
X169462252Y-103621099D01*
X169454356Y-103626728D01*
X169452364Y-103628207D01*
X169448581Y-103630617D01*
X169445185Y-103633534D01*
X169445179Y-103633538D01*
X169429514Y-103646992D01*
X169425803Y-103650058D01*
X169416270Y-103657632D01*
X168995480Y-103991957D01*
X168987393Y-103997873D01*
X168979380Y-104003258D01*
X168979372Y-104003264D01*
X168975339Y-104005975D01*
X168971766Y-104009278D01*
X168971764Y-104009280D01*
X168963550Y-104016875D01*
X168956392Y-104023013D01*
X168949779Y-104028267D01*
X168949775Y-104028271D01*
X168946272Y-104031054D01*
X168943196Y-104034309D01*
X168935742Y-104042196D01*
X168929705Y-104048167D01*
X168805980Y-104162561D01*
X168799968Y-104167511D01*
X168799973Y-104167516D01*
X168796267Y-104170692D01*
X168792343Y-104173562D01*
X168772981Y-104192940D01*
X168769437Y-104196349D01*
X168751649Y-104212796D01*
X168748823Y-104216274D01*
X168747660Y-104217514D01*
X168740576Y-104225373D01*
X168675094Y-104290910D01*
X168526908Y-104439222D01*
X168516897Y-104448223D01*
X168512520Y-104451754D01*
X168509250Y-104455353D01*
X168509242Y-104455361D01*
X168495830Y-104470125D01*
X168491704Y-104474456D01*
X168476382Y-104489790D01*
X168472546Y-104494914D01*
X168464947Y-104504120D01*
X168300880Y-104684710D01*
X168293942Y-104691768D01*
X168283121Y-104701945D01*
X168273463Y-104714349D01*
X168267306Y-104721666D01*
X168258841Y-104730983D01*
X168250043Y-104743975D01*
X168245144Y-104750717D01*
X168121596Y-104909381D01*
X168120757Y-104910447D01*
X168096397Y-104940969D01*
X168094736Y-104943876D01*
X168094595Y-104944057D01*
X168093744Y-104945545D01*
X168093743Y-104945547D01*
X168082507Y-104965201D01*
X168040077Y-105039418D01*
X168040042Y-105039562D01*
X168039938Y-105039779D01*
X168012027Y-105088626D01*
X168005728Y-105098546D01*
X167980365Y-105134648D01*
X167977474Y-105143145D01*
X167971179Y-105161648D01*
X167950523Y-105199474D01*
X167944432Y-105207135D01*
X167930630Y-105221891D01*
X167928902Y-105223464D01*
X167921469Y-105228508D01*
X167915752Y-105235434D01*
X167915751Y-105235435D01*
X167889528Y-105267204D01*
X167883268Y-105274236D01*
X167874666Y-105283200D01*
X167872060Y-105286831D01*
X167872054Y-105286838D01*
X167866085Y-105295155D01*
X167860907Y-105301878D01*
X167849520Y-105315673D01*
X167847035Y-105319861D01*
X167847033Y-105319863D01*
X167843537Y-105325753D01*
X167837549Y-105334911D01*
X167832132Y-105342459D01*
X167810615Y-105372437D01*
X167807638Y-105380904D01*
X167807637Y-105380907D01*
X167807173Y-105382227D01*
X167796663Y-105404739D01*
X167781426Y-105430415D01*
X167774871Y-105440356D01*
X167772052Y-105444220D01*
X167772049Y-105444226D01*
X167769186Y-105448150D01*
X167759981Y-105466017D01*
X167759639Y-105466681D01*
X167755987Y-105473278D01*
X167749232Y-105484660D01*
X167749229Y-105484666D01*
X167746946Y-105488513D01*
X167745228Y-105492652D01*
X167745226Y-105492657D01*
X167742945Y-105498154D01*
X167738577Y-105507566D01*
X167721343Y-105541019D01*
X167715323Y-105551265D01*
X167714585Y-105552586D01*
X167711886Y-105556644D01*
X167709848Y-105561060D01*
X167700929Y-105580386D01*
X167698542Y-105585278D01*
X167688001Y-105605739D01*
X167686535Y-105609972D01*
X167686534Y-105609974D01*
X167686348Y-105610512D01*
X167681692Y-105622072D01*
X167640442Y-105711455D01*
X167635276Y-105721449D01*
X167629638Y-105731254D01*
X167627890Y-105735797D01*
X167622744Y-105749170D01*
X167619555Y-105756715D01*
X167612819Y-105771311D01*
X167611535Y-105775610D01*
X167611535Y-105775611D01*
X167609353Y-105782920D01*
X167606212Y-105792127D01*
X167571009Y-105883606D01*
X167568941Y-105888653D01*
X167558340Y-105913001D01*
X167557106Y-105917711D01*
X167556728Y-105918803D01*
X167555277Y-105923306D01*
X167555380Y-105923338D01*
X167554074Y-105927618D01*
X167552461Y-105931809D01*
X167546272Y-105958838D01*
X167545364Y-105962535D01*
X167543149Y-105970989D01*
X167540244Y-105980079D01*
X167536592Y-105986694D01*
X167534634Y-105995449D01*
X167534071Y-105997968D01*
X167522492Y-106029372D01*
X167510208Y-106052599D01*
X167506404Y-106059287D01*
X167478309Y-106105343D01*
X167475974Y-106114005D01*
X167475974Y-106114006D01*
X167464738Y-106155695D01*
X167462198Y-106163974D01*
X167441708Y-106223405D01*
X167439104Y-106230296D01*
X167430936Y-106250141D01*
X167428765Y-106259168D01*
X167425376Y-106270776D01*
X167423371Y-106276591D01*
X167422527Y-106280985D01*
X167422524Y-106280996D01*
X167419147Y-106298575D01*
X167417917Y-106304268D01*
X167394065Y-106403441D01*
X167390406Y-106415823D01*
X167389684Y-106417874D01*
X167389682Y-106417883D01*
X167388064Y-106422476D01*
X167387173Y-106427260D01*
X167383773Y-106445514D01*
X167382409Y-106451906D01*
X167377672Y-106471602D01*
X167376938Y-106479402D01*
X167375363Y-106490663D01*
X167354105Y-106604782D01*
X167352091Y-106612970D01*
X167351129Y-106617253D01*
X167349699Y-106621905D01*
X167349001Y-106626727D01*
X167345820Y-106648700D01*
X167344989Y-106653722D01*
X167340602Y-106677274D01*
X167340414Y-106681752D01*
X167340306Y-106682705D01*
X167339241Y-106694143D01*
X167320758Y-106821814D01*
X167318943Y-106830747D01*
X167318261Y-106834491D01*
X167317022Y-106839201D01*
X167314446Y-106864173D01*
X167314262Y-106865952D01*
X167313628Y-106871065D01*
X167310220Y-106894607D01*
X167310213Y-106899091D01*
X167310177Y-106899589D01*
X167309550Y-106911628D01*
X167304597Y-106959633D01*
X167296374Y-107039331D01*
X167295277Y-107046008D01*
X167295401Y-107046026D01*
X167294693Y-107050848D01*
X167293618Y-107055592D01*
X167293286Y-107060441D01*
X167293285Y-107060446D01*
X167291635Y-107084529D01*
X167291265Y-107088845D01*
X167290459Y-107096662D01*
X167288610Y-107114579D01*
X167288787Y-107119060D01*
X167288645Y-107123537D01*
X167288596Y-107123535D01*
X167288498Y-107130307D01*
X167287162Y-107149804D01*
X167286042Y-107160015D01*
X167284696Y-107168923D01*
X167284695Y-107168931D01*
X167283968Y-107173745D01*
X167283990Y-107178610D01*
X167284043Y-107190434D01*
X167283750Y-107199596D01*
X167282823Y-107213121D01*
X167283908Y-107227790D01*
X167284248Y-107236490D01*
X167285602Y-107538977D01*
X167285603Y-107539178D01*
X167285595Y-107541169D01*
X167285163Y-107577949D01*
X167285796Y-107582355D01*
X167285802Y-107583683D01*
X167292437Y-107628580D01*
X167316787Y-107798068D01*
X167322969Y-107841096D01*
X167323405Y-107846341D01*
X167322829Y-107851143D01*
X167324306Y-107860001D01*
X167334039Y-107918373D01*
X167334460Y-107921082D01*
X167338435Y-107948750D01*
X167339659Y-107952928D01*
X167340536Y-107957503D01*
X167340617Y-107957832D01*
X167341417Y-107962628D01*
X167350143Y-107988987D01*
X167351434Y-107993129D01*
X167369312Y-108054166D01*
X167373233Y-108060292D01*
X167376537Y-108068723D01*
X167412212Y-108176496D01*
X167415112Y-108187039D01*
X167415733Y-108195292D01*
X167418892Y-108203696D01*
X167437481Y-108253150D01*
X167439155Y-108257889D01*
X167446415Y-108279821D01*
X167448413Y-108283834D01*
X167449340Y-108286085D01*
X167453137Y-108294802D01*
X167455500Y-108301089D01*
X167466598Y-108320744D01*
X167469668Y-108326529D01*
X167491365Y-108370114D01*
X167491367Y-108370117D01*
X167495368Y-108378154D01*
X167501463Y-108384744D01*
X167505215Y-108390180D01*
X167511236Y-108399805D01*
X167537261Y-108445898D01*
X167537499Y-108446321D01*
X167560249Y-108487059D01*
X167569520Y-108498911D01*
X167580099Y-108512436D01*
X167580685Y-108513191D01*
X167627361Y-108573804D01*
X167626796Y-108574239D01*
X167630662Y-108579055D01*
X167631167Y-108578686D01*
X167634047Y-108582623D01*
X167636603Y-108586753D01*
X167639764Y-108590439D01*
X167639769Y-108590447D01*
X167653280Y-108606207D01*
X167656866Y-108610585D01*
X167667965Y-108624775D01*
X167667973Y-108624784D01*
X167670724Y-108628301D01*
X167674748Y-108632162D01*
X167683170Y-108641069D01*
X167738519Y-108705629D01*
X167742692Y-108710770D01*
X167745332Y-108714816D01*
X167748583Y-108718430D01*
X167748586Y-108718434D01*
X167766990Y-108738893D01*
X167768938Y-108741110D01*
X167788011Y-108763358D01*
X167791382Y-108766314D01*
X167792289Y-108767231D01*
X167796375Y-108771563D01*
X167869567Y-108852931D01*
X167872303Y-108856162D01*
X167874312Y-108859128D01*
X167877631Y-108862691D01*
X167877637Y-108862699D01*
X167897804Y-108884351D01*
X167899264Y-108885945D01*
X167920210Y-108909231D01*
X167922952Y-108911523D01*
X167926013Y-108914636D01*
X167951908Y-108942437D01*
X167983223Y-108976058D01*
X167983738Y-108976614D01*
X168039324Y-109037079D01*
X168092964Y-109095426D01*
X168095595Y-109098380D01*
X168171930Y-109186834D01*
X168176179Y-109192031D01*
X168191063Y-109211260D01*
X168202889Y-109229635D01*
X168207057Y-109237544D01*
X168207067Y-109237560D01*
X168209153Y-109241518D01*
X168210409Y-109243250D01*
X168210873Y-109244049D01*
X168211095Y-109244392D01*
X168213419Y-109248686D01*
X168216373Y-109252566D01*
X168216374Y-109252568D01*
X168219747Y-109256999D01*
X168221334Y-109259390D01*
X168222396Y-109262055D01*
X168227079Y-109268043D01*
X168227082Y-109268048D01*
X168243537Y-109289089D01*
X168246291Y-109292745D01*
X168273627Y-109330450D01*
X168277583Y-109333514D01*
X168281169Y-109337685D01*
X168283264Y-109340438D01*
X168283269Y-109340443D01*
X168285976Y-109344000D01*
X168287768Y-109345766D01*
X168289363Y-109347688D01*
X168313007Y-109377921D01*
X168329225Y-109389563D01*
X168332333Y-109391794D01*
X168347281Y-109404391D01*
X168364229Y-109421087D01*
X168392570Y-109436327D01*
X168406356Y-109444933D01*
X168432496Y-109463698D01*
X168454952Y-109471594D01*
X168472820Y-109479484D01*
X168493775Y-109490753D01*
X168525256Y-109497427D01*
X168540896Y-109501815D01*
X168571257Y-109512491D01*
X168586300Y-109513299D01*
X168595021Y-109513767D01*
X168614389Y-109516324D01*
X168621993Y-109517936D01*
X168684484Y-109551627D01*
X168718842Y-109613756D01*
X168720398Y-109622021D01*
X168721193Y-109627184D01*
X168722009Y-109633563D01*
X168727789Y-109690404D01*
X168731167Y-109698721D01*
X168732229Y-109702994D01*
X168733518Y-109707237D01*
X168734885Y-109716112D01*
X168738687Y-109724246D01*
X168738688Y-109724249D01*
X168759065Y-109767841D01*
X168761656Y-109773777D01*
X168767267Y-109787589D01*
X168770325Y-109795118D01*
X168772824Y-109799284D01*
X168772832Y-109799300D01*
X168773736Y-109800806D01*
X168779829Y-109812262D01*
X168781703Y-109816270D01*
X168797172Y-109849364D01*
X168803102Y-109856102D01*
X168803105Y-109856106D01*
X168807473Y-109861069D01*
X168820940Y-109879499D01*
X168906684Y-110022441D01*
X168908412Y-110025414D01*
X169047805Y-110272858D01*
X169052251Y-110281516D01*
X169146976Y-110484992D01*
X169151908Y-110497223D01*
X169216249Y-110684468D01*
X169220129Y-110698268D01*
X169264542Y-110899571D01*
X169266631Y-110911935D01*
X169295639Y-111157494D01*
X169296377Y-111166506D01*
X169307314Y-111405061D01*
X169310804Y-111481198D01*
X169310930Y-111485837D01*
X169312470Y-111661027D01*
X169312547Y-111669841D01*
X169312545Y-111669904D01*
X169312534Y-111669978D01*
X169312890Y-111708966D01*
X169313221Y-111746669D01*
X169313232Y-111746740D01*
X169313234Y-111746796D01*
X169315224Y-111964976D01*
X169314902Y-111971149D01*
X169315098Y-111971156D01*
X169314919Y-111976021D01*
X169314366Y-111980855D01*
X169314563Y-111985714D01*
X169314563Y-111985715D01*
X169315581Y-112010824D01*
X169315679Y-112014781D01*
X169315923Y-112041577D01*
X169316598Y-112046004D01*
X169316958Y-112050479D01*
X169316846Y-112050488D01*
X169317437Y-112056633D01*
X169323757Y-112212557D01*
X169323678Y-112224437D01*
X169323416Y-112229293D01*
X169323416Y-112229300D01*
X169323155Y-112234148D01*
X169323644Y-112238988D01*
X169325239Y-112254782D01*
X169325774Y-112262338D01*
X169326489Y-112279974D01*
X169327302Y-112284372D01*
X169328405Y-112290343D01*
X169329864Y-112300574D01*
X169342073Y-112421442D01*
X169342277Y-112423659D01*
X169344869Y-112454815D01*
X169345272Y-112459659D01*
X169346406Y-112464346D01*
X169346576Y-112466025D01*
X169347448Y-112469543D01*
X169347449Y-112469549D01*
X169356676Y-112506787D01*
X169356836Y-112507438D01*
X169368080Y-112553893D01*
X169370954Y-112570650D01*
X169373869Y-112599029D01*
X169377256Y-112607343D01*
X169377256Y-112607344D01*
X169386169Y-112629226D01*
X169386296Y-112629575D01*
X169386439Y-112630167D01*
X169397634Y-112657368D01*
X169399781Y-112662637D01*
X169400055Y-112663318D01*
X169423488Y-112722039D01*
X169423490Y-112722043D01*
X169426816Y-112730377D01*
X169432349Y-112737444D01*
X169432349Y-112737445D01*
X169439405Y-112746458D01*
X169452980Y-112770624D01*
X169453269Y-112770466D01*
X169457586Y-112778335D01*
X169460744Y-112786740D01*
X169466135Y-112793921D01*
X169485408Y-112819595D01*
X169490929Y-112827793D01*
X169492190Y-112829588D01*
X169494499Y-112833429D01*
X169509452Y-112851787D01*
X169512488Y-112855669D01*
X169528598Y-112877129D01*
X169532087Y-112880529D01*
X169535299Y-112884182D01*
X169535286Y-112884194D01*
X169540422Y-112889809D01*
X169563870Y-112918596D01*
X169571262Y-112923683D01*
X169571266Y-112923687D01*
X169579690Y-112929484D01*
X169596196Y-112943042D01*
X169633260Y-112979163D01*
X169653743Y-112999125D01*
X169657708Y-113001944D01*
X169657721Y-113001955D01*
X169680442Y-113018110D01*
X169681675Y-113018997D01*
X169701578Y-113033513D01*
X169740698Y-113062045D01*
X169743214Y-113062951D01*
X169745475Y-113064347D01*
X169775026Y-113085358D01*
X169783006Y-113091527D01*
X169793991Y-113100745D01*
X169798154Y-113103262D01*
X169798160Y-113103266D01*
X169807877Y-113109140D01*
X169815690Y-113114269D01*
X169826368Y-113121860D01*
X169830342Y-113123908D01*
X169830352Y-113123914D01*
X169839864Y-113128815D01*
X169847325Y-113132986D01*
X169872721Y-113148338D01*
X169957857Y-113199803D01*
X169963259Y-113203259D01*
X169964748Y-113204266D01*
X169968559Y-113207297D01*
X169996039Y-113222935D01*
X169998881Y-113224603D01*
X170023197Y-113239302D01*
X170027328Y-113241056D01*
X170030282Y-113242566D01*
X170035232Y-113245238D01*
X170064562Y-113261929D01*
X170067330Y-113263622D01*
X170069674Y-113265432D01*
X170073940Y-113267780D01*
X170073943Y-113267782D01*
X170100752Y-113282538D01*
X170102313Y-113283411D01*
X170130397Y-113299393D01*
X170133148Y-113300476D01*
X170136090Y-113301988D01*
X170212488Y-113344038D01*
X170236286Y-113357137D01*
X170240600Y-113359676D01*
X170243838Y-113362077D01*
X170273741Y-113377780D01*
X170275841Y-113378909D01*
X170298748Y-113391518D01*
X170298759Y-113391523D01*
X170302676Y-113393679D01*
X170306424Y-113395094D01*
X170311080Y-113397387D01*
X170386729Y-113437112D01*
X170391956Y-113440018D01*
X170395845Y-113442302D01*
X170399839Y-113445083D01*
X170427250Y-113458453D01*
X170430564Y-113460131D01*
X170454775Y-113472844D01*
X170505788Y-113522222D01*
X170522007Y-113591342D01*
X170498282Y-113658257D01*
X170442146Y-113701723D01*
X170396198Y-113710400D01*
X126523802Y-113710400D01*
X126511204Y-113709769D01*
X126359307Y-113694505D01*
X126334680Y-113689512D01*
X126225521Y-113655756D01*
X126202756Y-113646182D01*
X126104115Y-113592776D01*
X126083978Y-113579214D01*
X125997833Y-113508229D01*
X125980751Y-113491153D01*
X125921795Y-113419654D01*
X125909763Y-113405062D01*
X125896175Y-113384894D01*
X125842876Y-113286452D01*
X125833288Y-113263639D01*
X125833269Y-113263577D01*
X125799587Y-113154506D01*
X125794610Y-113129928D01*
X125794499Y-113128815D01*
X125779331Y-112977807D01*
X125778700Y-112965215D01*
X125778700Y-108774562D01*
X129112609Y-108774562D01*
X129112906Y-108779714D01*
X129112906Y-108779718D01*
X129120911Y-108918552D01*
X129125597Y-108999814D01*
X129126734Y-109004860D01*
X129126735Y-109004866D01*
X129155227Y-109131291D01*
X129175200Y-109219920D01*
X129177142Y-109224702D01*
X129177143Y-109224706D01*
X129241482Y-109383154D01*
X129260086Y-109428969D01*
X129288197Y-109474842D01*
X129346961Y-109570736D01*
X129377975Y-109621347D01*
X129522909Y-109788662D01*
X129522909Y-109788663D01*
X129525702Y-109791887D01*
X129525036Y-109792464D01*
X129557456Y-109850387D01*
X129553131Y-109921252D01*
X129511181Y-109978530D01*
X129478851Y-109996438D01*
X129387105Y-110030832D01*
X129387104Y-110030833D01*
X129378695Y-110033985D01*
X129262139Y-110121339D01*
X129174785Y-110237895D01*
X129123655Y-110374284D01*
X129116900Y-110436466D01*
X129116900Y-112259934D01*
X129123655Y-112322116D01*
X129174785Y-112458505D01*
X129262139Y-112575061D01*
X129378695Y-112662415D01*
X129515084Y-112713545D01*
X129577266Y-112720300D01*
X131400734Y-112720300D01*
X131462916Y-112713545D01*
X131599305Y-112662415D01*
X131715861Y-112575061D01*
X131803215Y-112458505D01*
X131808771Y-112443686D01*
X131841213Y-112357146D01*
X131883854Y-112300381D01*
X131950416Y-112275681D01*
X132019765Y-112290888D01*
X132054431Y-112318876D01*
X132065702Y-112331887D01*
X132163433Y-112413025D01*
X132235127Y-112472546D01*
X132239299Y-112476010D01*
X132243751Y-112478612D01*
X132243756Y-112478615D01*
X132381820Y-112559293D01*
X132434103Y-112589845D01*
X132644884Y-112670334D01*
X132649952Y-112671365D01*
X132649955Y-112671366D01*
X132715224Y-112684645D01*
X132865981Y-112715317D01*
X132871156Y-112715507D01*
X132871158Y-112715507D01*
X133086292Y-112723396D01*
X133086296Y-112723396D01*
X133091456Y-112723585D01*
X133096576Y-112722929D01*
X133096578Y-112722929D01*
X133191485Y-112710771D01*
X133315253Y-112694916D01*
X133320202Y-112693431D01*
X133320208Y-112693430D01*
X133526413Y-112631565D01*
X133526412Y-112631565D01*
X133531363Y-112630080D01*
X133658327Y-112567881D01*
X133729331Y-112533097D01*
X133729336Y-112533094D01*
X133733982Y-112530818D01*
X133738192Y-112527815D01*
X133738197Y-112527812D01*
X133913455Y-112402801D01*
X133913459Y-112402797D01*
X133917667Y-112399796D01*
X134077487Y-112240533D01*
X134198370Y-112072307D01*
X134254364Y-112028659D01*
X134325068Y-112022213D01*
X134388032Y-112055016D01*
X134408125Y-112079999D01*
X134455275Y-112156943D01*
X134455283Y-112156953D01*
X134457975Y-112161347D01*
X134605702Y-112331887D01*
X134703433Y-112413025D01*
X134775127Y-112472546D01*
X134779299Y-112476010D01*
X134783751Y-112478612D01*
X134783756Y-112478615D01*
X134921820Y-112559293D01*
X134974103Y-112589845D01*
X135184884Y-112670334D01*
X135189952Y-112671365D01*
X135189955Y-112671366D01*
X135255224Y-112684645D01*
X135405981Y-112715317D01*
X135411156Y-112715507D01*
X135411158Y-112715507D01*
X135626292Y-112723396D01*
X135626296Y-112723396D01*
X135631456Y-112723585D01*
X135636576Y-112722929D01*
X135636578Y-112722929D01*
X135731485Y-112710771D01*
X135855253Y-112694916D01*
X135860202Y-112693431D01*
X135860208Y-112693430D01*
X136066413Y-112631565D01*
X136066412Y-112631565D01*
X136071363Y-112630080D01*
X136198327Y-112567881D01*
X136269331Y-112533097D01*
X136269336Y-112533094D01*
X136273982Y-112530818D01*
X136278192Y-112527815D01*
X136278197Y-112527812D01*
X136453455Y-112402801D01*
X136453459Y-112402797D01*
X136457667Y-112399796D01*
X136617487Y-112240533D01*
X136749150Y-112057305D01*
X136849118Y-111855035D01*
X136914708Y-111639152D01*
X136935002Y-111485004D01*
X136943721Y-111418778D01*
X136943722Y-111418772D01*
X136944158Y-111415456D01*
X136944320Y-111408824D01*
X136945720Y-111351564D01*
X136945720Y-111351560D01*
X136945802Y-111348200D01*
X136927315Y-111123332D01*
X136872349Y-110904504D01*
X136782380Y-110697591D01*
X136734282Y-110623243D01*
X136662634Y-110512491D01*
X136662632Y-110512488D01*
X136659826Y-110508151D01*
X136507977Y-110341271D01*
X136503926Y-110338072D01*
X136503922Y-110338068D01*
X136334966Y-110204634D01*
X136334962Y-110204632D01*
X136330911Y-110201432D01*
X136307535Y-110188528D01*
X136257564Y-110138096D01*
X136242792Y-110068653D01*
X136267908Y-110002247D01*
X136295259Y-109975641D01*
X136314026Y-109962255D01*
X136345355Y-109939908D01*
X136453455Y-109862801D01*
X136453459Y-109862797D01*
X136457667Y-109859796D01*
X136617487Y-109700533D01*
X136749150Y-109517305D01*
X136811181Y-109391794D01*
X136846824Y-109319677D01*
X136846825Y-109319675D01*
X136849118Y-109315035D01*
X136904628Y-109132330D01*
X136913206Y-109104096D01*
X136913206Y-109104095D01*
X136914708Y-109099152D01*
X136915473Y-109093339D01*
X136943721Y-108878778D01*
X136943722Y-108878772D01*
X136944158Y-108875456D01*
X136944576Y-108858353D01*
X136945720Y-108811564D01*
X136945720Y-108811560D01*
X136945802Y-108808200D01*
X136927315Y-108583332D01*
X136872349Y-108364504D01*
X136782380Y-108157591D01*
X136734282Y-108083243D01*
X136662634Y-107972491D01*
X136662632Y-107972488D01*
X136659826Y-107968151D01*
X136507977Y-107801271D01*
X136503926Y-107798072D01*
X136503922Y-107798068D01*
X136334966Y-107664634D01*
X136334962Y-107664632D01*
X136330911Y-107661432D01*
X136314706Y-107652486D01*
X136230525Y-107606016D01*
X136133383Y-107552391D01*
X135920698Y-107477076D01*
X135870297Y-107468098D01*
X135703657Y-107438414D01*
X135703653Y-107438414D01*
X135698569Y-107437508D01*
X135626574Y-107436629D01*
X135478129Y-107434815D01*
X135478127Y-107434815D01*
X135472959Y-107434752D01*
X135249929Y-107468880D01*
X135035468Y-107538977D01*
X135030876Y-107541367D01*
X135030877Y-107541367D01*
X134863689Y-107628400D01*
X134835335Y-107643160D01*
X134831202Y-107646263D01*
X134831199Y-107646265D01*
X134659040Y-107775525D01*
X134654905Y-107778630D01*
X134651333Y-107782368D01*
X134521364Y-107918373D01*
X134499024Y-107941750D01*
X134496112Y-107946019D01*
X134496106Y-107946027D01*
X134402503Y-108083243D01*
X134347592Y-108128246D01*
X134277067Y-108136417D01*
X134213320Y-108105163D01*
X134192623Y-108080679D01*
X134191463Y-108078885D01*
X134150972Y-108016296D01*
X134122634Y-107972491D01*
X134122632Y-107972488D01*
X134119826Y-107968151D01*
X133967977Y-107801271D01*
X133963926Y-107798072D01*
X133963922Y-107798068D01*
X133794966Y-107664634D01*
X133794962Y-107664632D01*
X133790911Y-107661432D01*
X133774706Y-107652486D01*
X133690525Y-107606016D01*
X133593383Y-107552391D01*
X133380698Y-107477076D01*
X133330297Y-107468098D01*
X133163657Y-107438414D01*
X133163653Y-107438414D01*
X133158569Y-107437508D01*
X133086574Y-107436629D01*
X132938129Y-107434815D01*
X132938127Y-107434815D01*
X132932959Y-107434752D01*
X132709929Y-107468880D01*
X132495468Y-107538977D01*
X132490876Y-107541367D01*
X132490877Y-107541367D01*
X132323689Y-107628400D01*
X132295335Y-107643160D01*
X132291202Y-107646263D01*
X132291199Y-107646265D01*
X132119040Y-107775525D01*
X132114905Y-107778630D01*
X132111333Y-107782368D01*
X131981364Y-107918373D01*
X131959024Y-107941750D01*
X131956112Y-107946019D01*
X131956106Y-107946027D01*
X131862503Y-108083243D01*
X131807592Y-108128246D01*
X131737067Y-108136417D01*
X131673320Y-108105163D01*
X131652623Y-108080679D01*
X131651463Y-108078885D01*
X131610972Y-108016296D01*
X131582634Y-107972491D01*
X131582632Y-107972488D01*
X131579826Y-107968151D01*
X131427977Y-107801271D01*
X131423926Y-107798072D01*
X131423922Y-107798068D01*
X131254966Y-107664634D01*
X131254962Y-107664632D01*
X131250911Y-107661432D01*
X131234706Y-107652486D01*
X131150525Y-107606016D01*
X131053383Y-107552391D01*
X130840698Y-107477076D01*
X130790297Y-107468098D01*
X130623657Y-107438414D01*
X130623653Y-107438414D01*
X130618569Y-107437508D01*
X130546574Y-107436629D01*
X130398129Y-107434815D01*
X130398127Y-107434815D01*
X130392959Y-107434752D01*
X130169929Y-107468880D01*
X129955468Y-107538977D01*
X129950876Y-107541367D01*
X129950877Y-107541367D01*
X129783689Y-107628400D01*
X129755335Y-107643160D01*
X129751202Y-107646263D01*
X129751199Y-107646265D01*
X129579040Y-107775525D01*
X129574905Y-107778630D01*
X129571333Y-107782368D01*
X129441364Y-107918373D01*
X129419024Y-107941750D01*
X129291878Y-108128140D01*
X129289704Y-108132824D01*
X129289702Y-108132827D01*
X129199789Y-108326529D01*
X129196881Y-108332793D01*
X129136585Y-108550213D01*
X129112609Y-108774562D01*
X125778700Y-108774562D01*
X125778700Y-94420802D01*
X125779331Y-94408204D01*
X125794608Y-94256178D01*
X125799586Y-94231600D01*
X125833288Y-94122459D01*
X125842878Y-94099643D01*
X125896176Y-94001205D01*
X125909763Y-93981039D01*
X125980814Y-93894870D01*
X125997865Y-93877818D01*
X126084042Y-93806760D01*
X126104203Y-93793176D01*
X126202758Y-93739816D01*
X126225524Y-93730242D01*
X126234424Y-93727490D01*
X126334559Y-93696525D01*
X126359235Y-93691527D01*
X126511125Y-93676326D01*
X126523672Y-93675700D01*
X177650845Y-93675700D01*
X177663386Y-93676326D01*
G37*
%TD.AperFunction*%
%TA.AperFunction,NonConductor*%
G36*
X178305799Y-109025528D02*
G01*
X178365398Y-109064110D01*
X178394676Y-109128788D01*
X178395900Y-109146306D01*
X178395900Y-112965215D01*
X178395269Y-112977808D01*
X178380002Y-113129798D01*
X178375009Y-113154429D01*
X178341257Y-113263577D01*
X178331683Y-113286344D01*
X178292465Y-113358780D01*
X178278276Y-113384986D01*
X178264714Y-113405122D01*
X178193796Y-113491186D01*
X178176691Y-113508292D01*
X178090620Y-113579216D01*
X178070488Y-113592774D01*
X177971842Y-113646184D01*
X177949076Y-113655758D01*
X177920459Y-113664607D01*
X177839929Y-113689509D01*
X177815298Y-113694502D01*
X177663307Y-113709769D01*
X177650714Y-113710400D01*
X175764331Y-113710400D01*
X175696210Y-113690398D01*
X175649717Y-113636742D01*
X175639613Y-113566468D01*
X175669107Y-113501888D01*
X175713223Y-113469231D01*
X175744311Y-113455436D01*
X175754587Y-113451407D01*
X175761193Y-113449145D01*
X175761197Y-113449143D01*
X175765807Y-113447565D01*
X175782343Y-113438866D01*
X175789885Y-113435213D01*
X175799996Y-113430727D01*
X175800002Y-113430724D01*
X175804101Y-113428905D01*
X175814834Y-113422178D01*
X175823072Y-113417439D01*
X175920827Y-113366011D01*
X175929651Y-113361987D01*
X175932650Y-113360544D01*
X175937181Y-113358780D01*
X175960342Y-113345343D01*
X175964902Y-113342822D01*
X175966649Y-113341903D01*
X175985804Y-113331826D01*
X175989432Y-113329200D01*
X175989580Y-113329108D01*
X176000039Y-113322313D01*
X176100601Y-113263971D01*
X176106673Y-113260920D01*
X176106616Y-113260811D01*
X176110933Y-113258547D01*
X176115404Y-113256626D01*
X176139946Y-113241230D01*
X176143615Y-113239016D01*
X176165983Y-113226039D01*
X176169499Y-113223265D01*
X176173211Y-113220743D01*
X176173236Y-113220779D01*
X176178803Y-113216855D01*
X176274926Y-113156555D01*
X176281611Y-113152882D01*
X176281598Y-113152860D01*
X176285825Y-113150429D01*
X176290215Y-113148338D01*
X176313015Y-113132772D01*
X176317080Y-113130110D01*
X176337833Y-113117092D01*
X176341250Y-113114199D01*
X176343186Y-113112784D01*
X176350926Y-113106891D01*
X176435200Y-113049356D01*
X176445196Y-113043194D01*
X176454003Y-113038317D01*
X176470151Y-113025780D01*
X176476363Y-113021254D01*
X176486970Y-113014013D01*
X176486974Y-113014010D01*
X176490662Y-113011492D01*
X176498684Y-113004149D01*
X176506475Y-112997577D01*
X176529210Y-112979924D01*
X176530563Y-112979013D01*
X176532127Y-112978383D01*
X176592424Y-112930847D01*
X176593023Y-112930379D01*
X176601642Y-112923687D01*
X176615988Y-112912549D01*
X176617118Y-112911379D01*
X176620885Y-112908410D01*
X176629166Y-112899498D01*
X176642423Y-112885233D01*
X176644121Y-112883441D01*
X176688209Y-112837824D01*
X176688211Y-112837821D01*
X176692325Y-112833565D01*
X176693015Y-112832252D01*
X176698974Y-112825343D01*
X176727155Y-112797826D01*
X176727156Y-112797825D01*
X176733576Y-112791556D01*
X176737978Y-112783737D01*
X176737981Y-112783734D01*
X176754948Y-112753601D01*
X176761211Y-112743603D01*
X176780932Y-112715174D01*
X176780933Y-112715172D01*
X176786050Y-112707796D01*
X176789497Y-112697465D01*
X176795977Y-112683294D01*
X176799235Y-112675446D01*
X176803818Y-112667726D01*
X176813675Y-112629326D01*
X176815698Y-112622895D01*
X176815657Y-112622883D01*
X176816925Y-112618591D01*
X176818499Y-112614388D01*
X176819543Y-112609632D01*
X176823088Y-112596777D01*
X176829759Y-112576783D01*
X176829760Y-112576778D01*
X176832600Y-112568265D01*
X176832997Y-112557697D01*
X176835839Y-112535410D01*
X176840130Y-112515866D01*
X176840130Y-112515861D01*
X176842054Y-112507099D01*
X176841037Y-112492245D01*
X176841652Y-112472546D01*
X176841497Y-112472538D01*
X176841936Y-112464346D01*
X176842899Y-112446399D01*
X176843307Y-112440974D01*
X176845101Y-112422496D01*
X176845534Y-112418040D01*
X176845306Y-112413025D01*
X176845356Y-112400544D01*
X176845397Y-112399796D01*
X176848397Y-112343838D01*
X176848680Y-112340504D01*
X176849261Y-112337541D01*
X176850645Y-112302133D01*
X176850728Y-112300340D01*
X176851264Y-112290343D01*
X176852452Y-112268193D01*
X176852185Y-112265193D01*
X176852222Y-112261775D01*
X176852348Y-112258566D01*
X176856221Y-112159474D01*
X176856353Y-112157668D01*
X176856693Y-112155850D01*
X176857819Y-112118685D01*
X176857857Y-112117594D01*
X176859014Y-112088008D01*
X176859014Y-112088002D01*
X176859189Y-112083521D01*
X176858999Y-112081686D01*
X176858997Y-112079839D01*
X176863159Y-111942579D01*
X176863248Y-111941226D01*
X176863501Y-111939818D01*
X176864395Y-111901893D01*
X176864416Y-111901099D01*
X176865352Y-111870234D01*
X176865467Y-111866443D01*
X176865308Y-111865026D01*
X176865296Y-111863659D01*
X176867205Y-111782643D01*
X176867542Y-111778732D01*
X176868629Y-111775097D01*
X176868676Y-111767329D01*
X176868824Y-111766836D01*
X176868947Y-111746796D01*
X176869073Y-111726090D01*
X176869254Y-111696543D01*
X176869286Y-111694374D01*
X176869858Y-111670190D01*
X176870074Y-111661027D01*
X176870048Y-111660811D01*
X176870046Y-111660629D01*
X176874020Y-111485004D01*
X176874556Y-111478749D01*
X176875915Y-111474205D01*
X176876253Y-111418778D01*
X176876314Y-111408824D01*
X176876394Y-111405061D01*
X176879476Y-111319422D01*
X176880468Y-111308684D01*
X176882658Y-111301361D01*
X176882957Y-111252338D01*
X176885851Y-111232984D01*
X176884833Y-111232832D01*
X176886159Y-111223962D01*
X176888732Y-111215358D01*
X176889059Y-111161779D01*
X176889369Y-111153692D01*
X176889884Y-111146406D01*
X176890684Y-111138580D01*
X176901241Y-111059842D01*
X176902975Y-111049941D01*
X176918155Y-110979861D01*
X176920200Y-110971735D01*
X176941760Y-110896709D01*
X176942124Y-110895467D01*
X176942487Y-110894251D01*
X176944297Y-110889464D01*
X176945663Y-110887357D01*
X176965158Y-110822170D01*
X176966013Y-110819427D01*
X176967942Y-110813475D01*
X176967945Y-110813466D01*
X176972706Y-110798775D01*
X176974661Y-110793780D01*
X176977328Y-110789665D01*
X176979900Y-110781064D01*
X176979902Y-110781060D01*
X176996083Y-110726953D01*
X176998475Y-110719751D01*
X177081821Y-110492016D01*
X177085864Y-110482259D01*
X177133621Y-110379401D01*
X177142171Y-110363929D01*
X177152987Y-110347242D01*
X177157871Y-110339707D01*
X177164175Y-110318630D01*
X177164499Y-110317548D01*
X177176953Y-110289191D01*
X177269170Y-110134315D01*
X177271696Y-110130251D01*
X177275545Y-110124312D01*
X177279533Y-110118519D01*
X177298617Y-110092391D01*
X177311532Y-110074710D01*
X177319095Y-110066518D01*
X177318532Y-110066027D01*
X177324436Y-110059259D01*
X177331234Y-110053402D01*
X177361931Y-110006043D01*
X177365913Y-110000259D01*
X177376711Y-109985475D01*
X177376712Y-109985474D01*
X177393671Y-109962255D01*
X177401460Y-109951592D01*
X177420955Y-109930464D01*
X177431830Y-109921093D01*
X177450750Y-109891903D01*
X177459882Y-109879537D01*
X177609597Y-109700762D01*
X177611638Y-109698387D01*
X177615251Y-109694286D01*
X177627532Y-109682140D01*
X177650171Y-109662633D01*
X177655050Y-109655105D01*
X177655053Y-109655102D01*
X177664295Y-109640843D01*
X177675672Y-109625871D01*
X177884269Y-109390171D01*
X177885006Y-109389396D01*
X177885887Y-109388658D01*
X177911109Y-109359845D01*
X177911482Y-109359422D01*
X177921861Y-109347695D01*
X177934824Y-109333047D01*
X177935460Y-109332082D01*
X177936146Y-109331244D01*
X178106171Y-109137008D01*
X178108602Y-109134399D01*
X178110997Y-109132330D01*
X178132282Y-109107254D01*
X178146091Y-109093342D01*
X178164196Y-109077742D01*
X178169080Y-109070208D01*
X178174950Y-109063478D01*
X178234803Y-109025293D01*
X178305799Y-109025528D01*
G37*
%TD.AperFunction*%
M02*
