<?xml version="1.0" encoding="UTF-8" standalone="no"?>
<svg
   xmlns:dc="http://purl.org/dc/elements/1.1/"
   xmlns:cc="http://creativecommons.org/ns#"
   xmlns:rdf="http://www.w3.org/1999/02/22-rdf-syntax-ns#"
   xmlns:svg="http://www.w3.org/2000/svg"
   xmlns="http://www.w3.org/2000/svg"
   xmlns:sodipodi="http://sodipodi.sourceforge.net/DTD/sodipodi-0.dtd"
   xmlns:inkscape="http://www.inkscape.org/namespaces/inkscape"
   width="100.0mm"
   height="100.0mm"
   viewBox="0 0 100.0 100.0"
   version="1.1"
   id="svg4073"
   sodipodi:docname="Arista-TGS.svg"
   inkscape:version="1.0.2 (e86c8708, 2021-01-15)">
  <defs
     id="defs4067">
    <inkscape:path-effect
       effect="powerstroke"
       id="path-effect6483"
       is_visible="true"
       lpeversion="1"
       offset_points="0,12.8498"
       sort_points="true"
       interpolator_type="CubicBezierJohan"
       interpolator_beta="0.2"
       start_linecap_type="zerowidth"
       linejoin_type="extrp_arc"
       miter_limit="4"
       scale_width="1"
       end_linecap_type="zerowidth" />
    <inkscape:path-effect
       effect="powerstroke"
       id="path-effect5088"
       is_visible="true"
       lpeversion="1"
       offset_points="3.9923887e-08,-7.6935533"
       sort_points="true"
       interpolator_type="CubicBezierJohan"
       interpolator_beta="0.2"
       start_linecap_type="zerowidth"
       linejoin_type="extrp_arc"
       miter_limit="4"
       scale_width="1"
       end_linecap_type="zerowidth" />
    <clipPath
       clipPathUnits="userSpaceOnUse"
       id="clipPath4674">
      <path
         d="M 0,514.638 H 1280 V 0 H 0 Z"
         id="path4672" />
    </clipPath>
    <clipPath
       clipPathUnits="userSpaceOnUse"
       id="clipPath4674-5">
      <path
         d="M 0,514.638 H 1280 V 0 H 0 Z"
         id="path4672-6" />
    </clipPath>
    <clipPath
       clipPathUnits="userSpaceOnUse"
       id="clipPath4674-5-7">
      <path
         d="M 0,514.638 H 1280 V 0 H 0 Z"
         id="path4672-6-5" />
    </clipPath>
    <clipPath
       clipPathUnits="userSpaceOnUse"
       id="clipPath4674-0">
      <path
         d="M 0,514.638 H 1280 V 0 H 0 Z"
         id="path4672-2" />
    </clipPath>
  </defs>
  <sodipodi:namedview
     id="base"
     pagecolor="#ffffff"
     bordercolor="#666666"
     borderopacity="1.0"
     inkscape:pageopacity="0.0"
     inkscape:pageshadow="2"
     inkscape:zoom="5.2753497"
     inkscape:cx="240.05018"
     inkscape:cy="304.98427"
     inkscape:document-units="mm"
     inkscape:current-layer="g5244"
     inkscape:document-rotation="0"
     showgrid="false"
     inkscape:window-width="2279"
     inkscape:window-height="1424"
     inkscape:window-x="0"
     inkscape:window-y="25"
     inkscape:window-maximized="0" />
  <metadata
     id="metadata4070">
    <rdf:RDF>
      <cc:Work
         rdf:about="">
        <dc:format>image/svg+xml</dc:format>
        <dc:type
           rdf:resource="http://purl.org/dc/dcmitype/StillImage" />
        <dc:title />
      </cc:Work>
    </rdf:RDF>
  </metadata>
  <g
     inkscape:label="[fixed] BG"
     inkscape:groupmode="layer"
     sodipodi:insensitive="true"
     id="g5230"
     style="display:inline">
    <rect
       x="0"
       y="0"
       width="100"
       height="100"
       style="fill:#ffffff;fill-opacity:1;stroke:none"
       id="rect5228" />
  </g>
  <g
     inkscape:label="Edge.Cuts"
     inkscape:groupmode="layer"
     id="g5232">
    <path
       style="display:inline;fill:#000000;stroke-width:0.282278"
       d="m 91.5519,63.6977 0.4346,0.1225 0.4355,0.1706 0.4287,0.2134 0.4139,0.2511 0.3914,0.2836 0.3611,0.3109 0.323,0.333 0.2771,0.3499 0.1965,0.2935 0.1499,0.2862 0.0531,0.1476 0.0359,0.1543 0.0171,0.1639 -0.0036,0.1764 -0.0262,0.1918 -0.0504,0.2099 -0.0766,0.231 -0.1046,0.2549 -0.3003,0.5929 -0.4339,0.7229 -0.582,0.8755 -0.7447,1.0511 -0.9219,1.2496 -1.1136,1.4709 -2.8604,3.697 -3.8016,4.8563 -4.239,5.3709 -3.6019,4.4991 -1.443,1.7752 -1.1409,1.3805 -0.7911,0.9268 -0.2495,0.2749 -0.1442,0.1394 -0.3494,0.2414 -0.378,0.2091 -0.4025,0.1768 -0.4231,0.1446 -0.4394,0.1122 -0.4518,0.08 L 69.536,97.737 69.0717,97.7524 68.6073,97.7356 68.1468,97.6865 67.6943,97.6052 67.2539,97.4916 66.8296,97.3458 66.4255,97.1677 66.0457,96.9575 65.6943,96.715 65.5485,96.5747 65.2976,96.2989 64.5041,95.3708 63.3614,93.9895 61.9172,92.214 58.3147,87.716 54.0778,82.3482 50.9167,78.3099 48.4303,75.1125 46.5384,72.6464 45.1612,70.802 44.2184,69.4697 43.885,68.9614 43.6302,68.54 43.4441,68.1919 43.3165,67.9033 43.2376,67.6606 43.1973,67.45 l -0.0204,-0.2498 8e-4,-0.2434 0.0221,-0.2373 0.0438,-0.2313 0.0654,-0.2256 0.0874,-0.2203 0.1094,-0.2152 0.1318,-0.2103 0.1541,-0.2056 0.1768,-0.2014 0.1997,-0.1972 0.2226,-0.1934 0.2457,-0.1899 0.2692,-0.1865 0.609,-0.3642 0.1696,-0.0884 0.1866,-0.0776 0.2361,-0.0675 0.3182,-0.0582 0.433,-0.0497 0.5803,-0.042 1.7333,-0.0639 2.7142,-0.0424 3.9561,-0.0272 12.6816,-0.0334 h 8.6485 l 7.2246,0.032 5.0451,0.0583 1.4691,0.0372 0.4298,0.0204 0.2111,0.0214 v 10e-5"
       id="path6608" />
  </g>
  <g
     inkscape:label="B.Cu"
     inkscape:groupmode="layer"
     id="g5234" />
  <g
     inkscape:label="B.Mask"
     inkscape:groupmode="layer"
     id="g5236" />
  <g
     inkscape:label="B.SilkS"
     inkscape:groupmode="layer"
     id="g5238" />
  <g
     inkscape:label="F.Cu"
     inkscape:groupmode="layer"
     id="g5240">
    <path
       style="display:inline;fill:#ff0000;stroke-width:0.0144272"
       d="m 57.986238,73.649687 c -0.05016,-0.02127 -0.114494,-0.06479 -0.155705,-0.105337 -0.07795,-0.07671 -0.08157,-0.08213 -0.423008,-0.631294 -0.133034,-0.213972 -0.453041,-0.717121 -0.711126,-1.118105 -0.258087,-0.400984 -0.69571,-1.086133 -0.972496,-1.522556 -0.276785,-0.436424 -0.519099,-0.809579 -0.538476,-0.829237 l -0.03523,-0.03574 -0.03517,0.03574 c -0.06171,0.06271 -1.104579,1.703215 -1.104579,1.737574 0,0.0042 0.474628,0.0078 1.054731,0.0078 0.896437,0 1.053569,0.0028 1.047005,0.02014 -0.01071,0.02784 -0.390677,0.646656 -0.458135,0.74607 -0.09669,0.142504 -0.01635,0.133015 -1.172239,0.138426 -1.066007,0.005 -1.049786,0.004 -1.107452,0.07134 -0.01259,0.0147 -0.08335,0.124109 -0.157252,0.243134 -0.266264,0.428778 -0.754695,1.183866 -0.790909,1.222706 l -0.03699,0.03967 h -0.5241 -0.524103 l 0.04216,-0.08352 c 0.0371,-0.07352 0.856702,-1.36428 2.333355,-3.674767 0.253564,-0.396747 0.564638,-0.886323 0.691272,-1.087943 0.253143,-0.403038 0.34877,-0.51844 0.482719,-0.582534 0.119297,-0.05708 0.252385,-0.07699 0.369893,-0.05535 0.197703,0.03644 0.276507,0.103828 0.474459,0.405732 0.152829,0.23309 3.1652,4.949364 3.213705,5.031485 l 0.0277,0.04689 h -0.280484 c -0.154271,0 -0.357795,0.0036 -0.452276,0.0079 -0.160703,0.0074 -0.177297,0.0057 -0.257254,-0.02826 z m 1.849196,0.02369 -0.42921,-0.0037 v -2.748148 -2.748165 h 2.277971 c 1.473171,0 2.329607,0.0052 2.424128,0.01499 0.485711,0.04985 0.931932,0.325185 1.20082,0.740972 0.164645,0.254596 0.241389,0.504131 0.253356,0.823808 0.0083,0.221244 -0.0106,0.362979 -0.07564,0.568056 -0.158947,0.501083 -0.607593,0.926204 -1.1208,1.062023 -0.176821,0.04679 -0.370345,0.0627 -0.660528,0.05428 -0.241719,-0.007 -0.361231,0.0075 -0.360168,0.04385 3.55e-4,0.0096 0.0085,0.03086 0.01804,0.04726 0.0096,0.01637 0.299935,0.2985 0.645106,0.62693 1.211921,1.153147 1.558128,1.488495 1.550106,1.501478 -0.0047,0.0075 -0.267762,0.01311 -0.617021,0.01311 -0.552896,0 -0.613127,-0.0022 -0.654627,-0.02526 -0.02514,-0.01388 -0.268498,-0.239661 -0.540796,-0.501728 -0.272297,-0.26206 -0.939808,-0.901088 -1.483353,-1.420052 -0.543544,-0.518969 -1.036955,-0.992729 -1.096467,-1.052805 l -0.108213,-0.109285 1.507642,-0.0076 c 1.645018,-0.0084 1.540407,-0.0026 1.720905,-0.09676 0.173487,-0.09063 0.304757,-0.253611 0.362449,-0.450027 0.02987,-0.101698 0.02989,-0.304158 3e-5,-0.405937 -0.06964,-0.237366 -0.288587,-0.441218 -0.550394,-0.512448 -0.07348,-0.01999 -0.28921,-0.02236 -1.872028,-0.02068 -1.164353,0.0013 -1.794013,0.007 -1.803402,0.01624 -0.0095,0.0095 -0.01459,0.786594 -0.0149,2.271572 -4.84e-4,2.225224 -8.62e-4,2.257603 -0.02886,2.284193 -0.03903,0.0371 -0.05798,0.03829 -0.54414,0.03397 z m 6.845048,-0.03632 c -0.03083,-0.03281 -0.03097,-0.03638 -0.03929,-1.013509 -0.0089,-1.045979 0.01331,-4.354185 0.02951,-4.395939 0.0052,-0.01373 0.03014,-0.02996 0.05514,-0.03607 0.02501,-0.0061 0.235597,-0.0078 0.467998,-0.004 0.354452,0.0061 0.424745,0.01071 0.436202,0.02887 0.0085,0.0134 0.01373,1.054506 0.01387,2.73756 l 1.71e-4,2.71592 H 67.177719 66.71135 Z m 2.161134,0.02523 c 0,-0.02323 0.09555,-0.189075 0.244936,-0.425123 0.09291,-0.146796 0.186906,-0.297958 0.208905,-0.335916 0.022,-0.03796 0.05841,-0.07853 0.08091,-0.09017 0.03535,-0.01827 0.299921,-0.02116 1.943371,-0.02116 1.29489,0 1.929795,-0.0049 1.988064,-0.01554 0.332722,-0.06032 0.583343,-0.360938 0.583343,-0.699726 0,-0.251058 -0.147675,-0.495669 -0.366864,-0.607672 -0.174825,-0.08934 -0.04049,-0.08247 -1.790001,-0.09153 -1.433684,-0.0074 -1.615733,-0.01091 -1.738082,-0.03328 -0.352425,-0.06445 -0.632446,-0.207052 -0.866822,-0.441428 -0.295078,-0.295078 -0.460879,-0.694901 -0.460879,-1.111392 0,-0.269121 0.05076,-0.478488 0.176823,-0.729209 0.257846,-0.512864 0.713054,-0.807884 1.344148,-0.871136 0.18862,-0.01892 4.188828,-0.02207 4.218367,-0.0034 0.01422,0.009 -0.03414,0.09651 -0.193177,0.349636 -0.245223,0.390302 -0.316291,0.497165 -0.341475,0.513461 -0.01,0.0064 -0.849112,0.01496 -1.864786,0.01892 l -1.846681,0.0073 -0.09724,0.033 c -0.139333,0.04728 -0.263898,0.137502 -0.353788,0.256247 -0.09521,0.125785 -0.135128,0.228039 -0.144179,0.369408 -0.0195,0.304312 0.171892,0.602397 0.455727,0.709833 0.08136,0.03081 0.09025,0.031 1.726473,0.03977 1.445172,0.0077 1.657777,0.01162 1.752491,0.03234 0.626675,0.136827 1.084131,0.569195 1.242466,1.174318 0.03817,0.145887 0.05236,0.460216 0.02823,0.62529 -0.08667,0.592689 -0.492434,1.075713 -1.067109,1.270268 -0.261603,0.08856 -0.139075,0.08459 -2.606892,0.08459 -1.240942,0 -2.256263,-0.0034 -2.256263,-0.0077 z m 8.555333,-2.256439 c 0,-1.436198 -0.0051,-2.277663 -0.01409,-2.301139 l -0.01409,-0.037 h -1.205028 c -0.662765,0 -1.20503,-0.0035 -1.20503,-0.0078 0,-0.04069 0.485903,-0.778963 0.555112,-0.843415 l 0.03872,-0.03606 2.4695,-0.0041 c 1.358223,-0.0022 2.490595,-3.24e-4 2.516385,0.0042 l 0.04689,0.0083 -1.67e-4,0.399701 c -1.45e-4,0.219833 -0.005,0.406842 -0.01079,0.415572 -0.03382,0.05065 -0.06473,0.05232 -1.105669,0.05979 -0.647553,0.0047 -1.032381,0.01266 -1.043766,0.02172 -0.0143,0.01138 -0.01805,0.488626 -0.01805,2.299305 l -2e-6,2.284946 h -0.504946 -0.504954 z m 1.878894,2.231672 c 0.01162,-0.01785 0.05554,-0.08765 0.09761,-0.155093 0.18287,-0.293119 3.018125,-4.744595 3.139653,-4.929393 0.154474,-0.234886 0.230239,-0.301897 0.399447,-0.353292 0.261822,-0.07953 0.514144,0.02459 0.690281,0.284846 0.02103,0.0311 0.260684,0.407103 0.532544,0.835591 0.271861,0.428488 1.00612,1.579007 1.631695,2.55671 0.625573,0.977704 1.137407,1.78112 1.137407,1.785367 0,0.0042 -0.236865,0.0077 -0.526364,0.0077 H 85.85175 l -0.04234,-0.03967 c -0.02329,-0.02182 -0.582386,-0.89016 -1.242449,-1.92964 -0.660061,-1.039479 -1.255462,-1.976338 -1.323111,-2.081904 -0.110295,-0.172116 -0.12683,-0.191486 -0.160089,-0.187551 -0.03184,0.0037 -0.116265,0.127393 -0.596878,0.874112 -0.307884,0.478353 -0.559792,0.872756 -0.559792,0.876452 0,0.0037 0.473932,0.0069 1.053186,0.0069 0.579254,0 1.053188,0.0034 1.053188,0.0076 0,0.05282 -0.478641,0.835079 -0.532582,0.870414 -0.03243,0.02124 -0.139178,0.02387 -1.063354,0.0262 -1.095271,0.0029 -1.071956,0.0013 -1.132049,0.07168 -0.01253,0.0147 -0.07714,0.114365 -0.143549,0.221492 -0.210706,0.339912 -0.78084,1.232512 -0.80402,1.258775 -0.02049,0.02321 -0.06612,0.02524 -0.562729,0.02524 h -0.540443 z"
       id="path4832" />
  </g>
  <g
     inkscape:label="F.Mask"
     inkscape:groupmode="layer"
     id="g5242">
    <path
       style="display:inline;fill:#ff0000;stroke-width:0.0144272"
       d="m 57.986238,73.649687 c -0.05016,-0.02127 -0.114494,-0.06479 -0.155705,-0.105337 -0.07795,-0.07671 -0.08157,-0.08213 -0.423008,-0.631294 -0.133034,-0.213972 -0.453041,-0.717121 -0.711126,-1.118105 -0.258087,-0.400984 -0.69571,-1.086133 -0.972496,-1.522556 -0.276785,-0.436424 -0.519099,-0.809579 -0.538476,-0.829237 l -0.03523,-0.03574 -0.03517,0.03574 c -0.06171,0.06271 -1.104579,1.703215 -1.104579,1.737574 0,0.0042 0.474628,0.0078 1.054731,0.0078 0.896437,0 1.053569,0.0028 1.047005,0.02014 -0.01071,0.02784 -0.390677,0.646656 -0.458135,0.74607 -0.09669,0.142504 -0.01635,0.133015 -1.172239,0.138426 -1.066007,0.005 -1.049786,0.004 -1.107452,0.07134 -0.01259,0.0147 -0.08335,0.124109 -0.157252,0.243134 -0.266264,0.428778 -0.754695,1.183866 -0.790909,1.222706 l -0.03699,0.03967 h -0.5241 -0.524103 l 0.04216,-0.08352 c 0.0371,-0.07352 0.856702,-1.36428 2.333355,-3.674767 0.253564,-0.396747 0.564638,-0.886323 0.691272,-1.087943 0.253143,-0.403038 0.34877,-0.51844 0.482719,-0.582534 0.119297,-0.05708 0.252385,-0.07699 0.369893,-0.05535 0.197703,0.03644 0.276507,0.103828 0.474459,0.405732 0.152829,0.23309 3.1652,4.949364 3.213705,5.031485 l 0.0277,0.04689 h -0.280484 c -0.154271,0 -0.357795,0.0036 -0.452276,0.0079 -0.160703,0.0074 -0.177297,0.0057 -0.257254,-0.02826 z m 1.849196,0.02369 -0.42921,-0.0037 v -2.748148 -2.748165 h 2.277971 c 1.473171,0 2.329607,0.0052 2.424128,0.01499 0.485711,0.04985 0.931932,0.325185 1.20082,0.740972 0.164645,0.254596 0.241389,0.504131 0.253356,0.823808 0.0083,0.221244 -0.0106,0.362979 -0.07564,0.568056 -0.158947,0.501083 -0.607593,0.926204 -1.1208,1.062023 -0.176821,0.04679 -0.370345,0.0627 -0.660528,0.05428 -0.241719,-0.007 -0.361231,0.0075 -0.360168,0.04385 3.55e-4,0.0096 0.0085,0.03086 0.01804,0.04726 0.0096,0.01637 0.299935,0.2985 0.645106,0.62693 1.211921,1.153147 1.558128,1.488495 1.550106,1.501478 -0.0047,0.0075 -0.267762,0.01311 -0.617021,0.01311 -0.552896,0 -0.613127,-0.0022 -0.654627,-0.02526 -0.02514,-0.01388 -0.268498,-0.239661 -0.540796,-0.501728 -0.272297,-0.26206 -0.939808,-0.901088 -1.483353,-1.420052 -0.543544,-0.518969 -1.036955,-0.992729 -1.096467,-1.052805 l -0.108213,-0.109285 1.507642,-0.0076 c 1.645018,-0.0084 1.540407,-0.0026 1.720905,-0.09676 0.173487,-0.09063 0.304757,-0.253611 0.362449,-0.450027 0.02987,-0.101698 0.02989,-0.304158 3e-5,-0.405937 -0.06964,-0.237366 -0.288587,-0.441218 -0.550394,-0.512448 -0.07348,-0.01999 -0.28921,-0.02236 -1.872028,-0.02068 -1.164353,0.0013 -1.794013,0.007 -1.803402,0.01624 -0.0095,0.0095 -0.01459,0.786594 -0.0149,2.271572 -4.84e-4,2.225224 -8.62e-4,2.257603 -0.02886,2.284193 -0.03903,0.0371 -0.05798,0.03829 -0.54414,0.03397 z m 6.845048,-0.03632 c -0.03083,-0.03281 -0.03097,-0.03638 -0.03929,-1.013509 -0.0089,-1.045979 0.01331,-4.354185 0.02951,-4.395939 0.0052,-0.01373 0.03014,-0.02996 0.05514,-0.03607 0.02501,-0.0061 0.235597,-0.0078 0.467998,-0.004 0.354452,0.0061 0.424745,0.01071 0.436202,0.02887 0.0085,0.0134 0.01373,1.054506 0.01387,2.73756 l 1.71e-4,2.71592 H 67.177719 66.71135 Z m 2.161134,0.02523 c 0,-0.02323 0.09555,-0.189075 0.244936,-0.425123 0.09291,-0.146796 0.186906,-0.297958 0.208905,-0.335916 0.022,-0.03796 0.05841,-0.07853 0.08091,-0.09017 0.03535,-0.01827 0.299921,-0.02116 1.943371,-0.02116 1.29489,0 1.929795,-0.0049 1.988064,-0.01554 0.332722,-0.06032 0.583343,-0.360938 0.583343,-0.699726 0,-0.251058 -0.147675,-0.495669 -0.366864,-0.607672 -0.174825,-0.08934 -0.04049,-0.08247 -1.790001,-0.09153 -1.433684,-0.0074 -1.615733,-0.01091 -1.738082,-0.03328 -0.352425,-0.06445 -0.632446,-0.207052 -0.866822,-0.441428 -0.295078,-0.295078 -0.460879,-0.694901 -0.460879,-1.111392 0,-0.269121 0.05076,-0.478488 0.176823,-0.729209 0.257846,-0.512864 0.713054,-0.807884 1.344148,-0.871136 0.18862,-0.01892 4.188828,-0.02207 4.218367,-0.0034 0.01422,0.009 -0.03414,0.09651 -0.193177,0.349636 -0.245223,0.390302 -0.316291,0.497165 -0.341475,0.513461 -0.01,0.0064 -0.849112,0.01496 -1.864786,0.01892 l -1.846681,0.0073 -0.09724,0.033 c -0.139333,0.04728 -0.263898,0.137502 -0.353788,0.256247 -0.09521,0.125785 -0.135128,0.228039 -0.144179,0.369408 -0.0195,0.304312 0.171892,0.602397 0.455727,0.709833 0.08136,0.03081 0.09025,0.031 1.726473,0.03977 1.445172,0.0077 1.657777,0.01162 1.752491,0.03234 0.626675,0.136827 1.084131,0.569195 1.242466,1.174318 0.03817,0.145887 0.05236,0.460216 0.02823,0.62529 -0.08667,0.592689 -0.492434,1.075713 -1.067109,1.270268 -0.261603,0.08856 -0.139075,0.08459 -2.606892,0.08459 -1.240942,0 -2.256263,-0.0034 -2.256263,-0.0077 z m 8.555333,-2.256439 c 0,-1.436198 -0.0051,-2.277663 -0.01409,-2.301139 l -0.01409,-0.037 h -1.205028 c -0.662765,0 -1.20503,-0.0035 -1.20503,-0.0078 0,-0.04069 0.485903,-0.778963 0.555112,-0.843415 l 0.03872,-0.03606 2.4695,-0.0041 c 1.358223,-0.0022 2.490595,-3.24e-4 2.516385,0.0042 l 0.04689,0.0083 -1.67e-4,0.399701 c -1.45e-4,0.219833 -0.005,0.406842 -0.01079,0.415572 -0.03382,0.05065 -0.06473,0.05232 -1.105669,0.05979 -0.647553,0.0047 -1.032381,0.01266 -1.043766,0.02172 -0.0143,0.01138 -0.01805,0.488626 -0.01805,2.299305 l -2e-6,2.284946 h -0.504946 -0.504954 z m 1.878894,2.231672 c 0.01162,-0.01785 0.05554,-0.08765 0.09761,-0.155093 0.18287,-0.293119 3.018125,-4.744595 3.139653,-4.929393 0.154474,-0.234886 0.230239,-0.301897 0.399447,-0.353292 0.261822,-0.07953 0.514144,0.02459 0.690281,0.284846 0.02103,0.0311 0.260684,0.407103 0.532544,0.835591 0.271861,0.428488 1.00612,1.579007 1.631695,2.55671 0.625573,0.977704 1.137407,1.78112 1.137407,1.785367 0,0.0042 -0.236865,0.0077 -0.526364,0.0077 H 85.85175 l -0.04234,-0.03967 c -0.02329,-0.02182 -0.582386,-0.89016 -1.242449,-1.92964 -0.660061,-1.039479 -1.255462,-1.976338 -1.323111,-2.081904 -0.110295,-0.172116 -0.12683,-0.191486 -0.160089,-0.187551 -0.03184,0.0037 -0.116265,0.127393 -0.596878,0.874112 -0.307884,0.478353 -0.559792,0.872756 -0.559792,0.876452 0,0.0037 0.473932,0.0069 1.053186,0.0069 0.579254,0 1.053188,0.0034 1.053188,0.0076 0,0.05282 -0.478641,0.835079 -0.532582,0.870414 -0.03243,0.02124 -0.139178,0.02387 -1.063354,0.0262 -1.095271,0.0029 -1.071956,0.0013 -1.132049,0.07168 -0.01253,0.0147 -0.07714,0.114365 -0.143549,0.221492 -0.210706,0.339912 -0.78084,1.232512 -0.80402,1.258775 -0.02049,0.02321 -0.06612,0.02524 -0.562729,0.02524 h -0.540443 z"
       id="path5627" />
  </g>
  <g
     inkscape:label="F.SilkS"
     inkscape:groupmode="layer"
     id="g5244">
    <g
       id="g4658"
       inkscape:label="TGS-logo"
       transform="matrix(0.01473769,0,0,-0.01473769,59.690624,83.321779)"
       style="display:inline;fill:#0000ff">
      <g
         id="g4660"
         transform="translate(799.2896,159.6209)"
         style="fill:#0000ff">
        <path
           d="M 0,0 V 161.797 H -223.975 V 98.95 H -66.189 V 0 Z"
           style="fill:#0000ff;fill-opacity:1;fill-rule:nonzero;stroke:none"
           id="path4662" />
      </g>
      <g
         id="g4664"
         transform="translate(1.6713,514.638)"
         style="fill:#0000ff">
        <path
           d="m 0,0 v -64.852 h 189.209 v -380.423 h 64.852 V -64.852 H 414.657 797.619 V 0 Z m 414.109,-64.852 h 0.548 z"
           style="fill:#0000ff;fill-opacity:1;fill-rule:nonzero;stroke:none"
           id="path4666" />
      </g>
      <g
         id="g4668"
         style="fill:#0000ff">
        <g
           id="g4670"
           clip-path="url(#clipPath4674-0)"
           style="fill:#0000ff">
          <g
             id="g4676"
             transform="translate(959.9966,449.786)"
             style="fill:#0000ff">
            <path
               d="M 0,0 H 320.003 V 64.852 H 0 c -35.114,0 -65.04,-13.515 -89.791,-38.261 -24.744,-24.747 -37.112,-55.249 -37.112,-90.355 0,-35.113 12.368,-65.315 37.112,-90.062 24.751,-24.743 54.677,-37.389 89.791,-37.389 h 190.358 c 17.557,0 32.52,-6.2 44.896,-18.571 12.375,-12.374 18.56,-27.352 18.56,-44.902 0,-17.561 -6.185,-33.241 -18.56,-45.613 -12.376,-12.374 -27.339,-19.281 -44.896,-19.281 h -597.14 c -35.578,6.686 -66.555,20.293 -92.885,46.636 -30.99,30.982 -46.48,69.01 -46.48,112.792 0,43.781 15.49,81.8 46.48,112.783 5.575,5.577 11.368,11.936 17.359,15.948 h -88.258 c -25.986,-38.11 -39.034,-79.671 -39.034,-127.151 0,-61.343 23.664,-114.163 67.023,-157.519 38.6,-38.6 83.014,-60.402 139.175,-64.673 v 0.343 h 593.76 c 35.108,0 65.04,11.786 89.791,36.531 24.744,24.746 37.12,54.377 37.12,89.491 0,35.103 -12.376,64.602 -37.12,89.35 -24.751,24.745 -54.683,36.683 -89.791,36.683 H 0 c -17.557,0 -32.52,6.474 -44.889,18.848 -12.375,12.374 -18.566,27.483 -18.566,45.041 0,17.552 6.191,33.032 18.566,45.406 C -32.52,-6.701 -17.557,0 0,0"
               style="fill:#0000ff;fill-opacity:1;fill-rule:nonzero;stroke:none"
               id="path4678" />
          </g>
          <g
             id="g4680"
             transform="translate(9.6109,0.741)"
             style="fill:#0000ff">
            <path
               d="m 0,0 v 26.796 h -9.611 v 7.083 H 17.801 V 26.796 H 8.13 V 0 Z"
               style="fill:#0000ff;fill-opacity:1;fill-rule:nonzero;stroke:none"
               id="path4682" />
          </g>
          <g
             id="g4684"
             transform="translate(48.357,0.741)"
             style="fill:#0000ff">
            <path
               d="M 0,0 V 33.879 H 25.563 V 26.796 H 8.13 V 20.758 H 25.195 V 13.672 H 8.13 V 7.086 H 25.563 V 0 Z"
               style="fill:#0000ff;fill-opacity:1;fill-rule:nonzero;stroke:none"
               id="path4686" />
          </g>
          <g
             id="g4688"
             transform="translate(94.3096,17.6776)"
             style="fill:#0000ff">
            <path
               d="m 0,0 c 0,10.476 7.882,17.682 18.479,17.682 7.269,0 12.069,-3.945 14.6,-8.627 L 26.301,5.796 c -1.415,2.771 -4.372,4.74 -7.822,4.74 C 12.566,10.536 8.255,6.041 8.255,0 c 0,-5.975 4.311,-10.532 10.224,-10.532 3.45,0 6.467,1.974 7.822,4.745 l 6.838,-3.207 c -2.591,-4.74 -7.391,-8.684 -14.66,-8.684 C 7.882,-17.678 0,-10.409 0,0"
               style="fill:#0000ff;fill-opacity:1;fill-rule:nonzero;stroke:none"
               id="path4690" />
          </g>
          <g
             id="g4692"
             transform="translate(172.293,0.741)"
             style="fill:#0000ff">
            <path
               d="M 0,0 V 13.804 H -16.078 V 0 h -8.132 v 33.879 h 8.132 V 20.881 H 0 V 33.879 H 8.132 V 0 Z"
               style="fill:#0000ff;fill-opacity:1;fill-rule:nonzero;stroke:none"
               id="path4694" />
          </g>
          <g
             id="g4696"
             transform="translate(227.918,0.741)"
             style="fill:#0000ff">
            <path
               d="M 0,0 -15.771,21.251 V 0 h -8.133 v 33.879 h 8.749 L 0.184,13.43 V 33.879 H 8.316 V 0 Z"
               style="fill:#0000ff;fill-opacity:1;fill-rule:nonzero;stroke:none"
               id="path4698" />
          </g>
          <g
             id="g4700"
             transform="translate(257.9136,17.6776)"
             style="fill:#0000ff">
            <path
               d="M 0,0 C 0,10.233 7.39,17.682 18.174,17.682 28.89,17.682 36.406,10.233 36.406,0 36.406,-10.161 28.89,-17.678 18.174,-17.678 7.39,-17.678 0,-10.161 0,0 m 28.09,0 c 0,5.979 -3.88,10.536 -9.916,10.536 -6.041,0 -9.919,-4.557 -9.919,-10.536 0,-5.91 3.878,-10.532 9.919,-10.532 6.036,0 9.916,4.622 9.916,10.532"
               style="fill:#0000ff;fill-opacity:1;fill-rule:nonzero;stroke:none"
               id="path4702" />
          </g>
          <g
             id="g4704"
             transform="translate(316.004,0.741)"
             style="fill:#0000ff">
            <path
               d="M 0,0 V 33.879 H 8.13 V 7.086 H 23.035 V 0 Z"
               style="fill:#0000ff;fill-opacity:1;fill-rule:nonzero;stroke:none"
               id="path4706" />
          </g>
          <g
             id="g4708"
             transform="translate(358.8121,17.6776)"
             style="fill:#0000ff">
            <path
               d="m 0,0 c 0,10.233 7.393,17.682 18.174,17.682 10.719,0 18.232,-7.449 18.232,-17.682 0,-10.161 -7.513,-17.678 -18.232,-17.678 C 7.393,-17.678 0,-10.161 0,0 m 28.09,0 c 0,5.979 -3.88,10.536 -9.916,10.536 -6.035,0 -9.919,-4.557 -9.919,-10.536 0,-5.91 3.884,-10.532 9.919,-10.532 6.036,0 9.916,4.622 9.916,10.532"
               style="fill:#0000ff;fill-opacity:1;fill-rule:nonzero;stroke:none"
               id="path4710" />
          </g>
          <g
             id="g4712"
             transform="translate(414.9908,17.6776)"
             style="fill:#0000ff">
            <path
               d="m 0,0 c 0,10.719 8.135,17.682 18.605,17.682 6.652,0 11.458,-3.385 14.106,-7.269 L 26.122,6.593 C 24.518,8.81 21.87,10.476 18.605,10.476 12.567,10.476 8.316,6.102 8.316,0 c 0,-6.035 4.251,-10.532 10.289,-10.532 3.02,0 5.297,1.232 6.652,2.402 v 3.57 h -8.07 V 2.158 H 33.39 V -11.206 C 29.692,-15.149 24.641,-17.678 18.605,-17.678 8.135,-17.678 0,-10.657 0,0"
               style="fill:#0000ff;fill-opacity:1;fill-rule:nonzero;stroke:none"
               id="path4714" />
          </g>
          <g
             id="g4716"
             transform="translate(480.2271,0.741)"
             style="fill:#0000ff">
            <path
               d="M 0,0 V 13.921 L -13.739,33.879 H -4.56 L 4.063,20.82 12.5,33.879 h 9.179 L 8.068,13.921 V 0 Z"
               style="fill:#0000ff;fill-opacity:1;fill-rule:nonzero;stroke:none"
               id="path4718" />
          </g>
          <g
             id="g4720"
             transform="translate(551.0577,17.6776)"
             style="fill:#0000ff">
            <path
               d="m 0,0 c 0,10.719 8.13,17.682 18.611,17.682 6.652,0 11.457,-3.385 14.108,-7.269 L 26.122,6.593 C 24.523,8.81 21.873,10.476 18.611,10.476 12.57,10.476 8.323,6.102 8.323,0 c 0,-6.035 4.247,-10.532 10.288,-10.532 3.014,0 5.291,1.232 6.652,2.402 v 3.57 H 17.195 V 2.158 H 33.39 V -11.206 C 29.697,-15.149 24.641,-17.678 18.611,-17.678 8.13,-17.678 0,-10.657 0,0"
               style="fill:#0000ff;fill-opacity:1;fill-rule:nonzero;stroke:none"
               id="path4722" />
          </g>
          <g
             id="g4724"
             transform="translate(626.772,0.741)"
             style="fill:#0000ff">
            <path
               d="m 0,0 -6.714,11.646 h -5.18 V 0 h -8.122 v 33.879 h 17.12 c 7.513,0 11.885,-4.991 11.885,-11.092 0,-6.155 -3.881,-9.546 -7.756,-10.345 L 9.3,0 Z m 0.739,22.787 c 0,2.348 -1.726,4.009 -4.623,4.009 h -8.01 v -8.07 h 8.01 c 2.959,0 4.623,1.664 4.623,4.061"
               style="fill:#0000ff;fill-opacity:1;fill-rule:nonzero;stroke:none"
               id="path4726" />
          </g>
          <g
             id="g4728"
             transform="translate(656.0328,17.6776)"
             style="fill:#0000ff">
            <path
               d="m 0,0 c 0,10.233 7.388,17.682 18.165,17.682 10.718,0 18.239,-7.449 18.239,-17.682 0,-10.161 -7.521,-17.678 -18.239,-17.678 C 7.388,-17.678 0,-10.161 0,0 m 28.08,0 c 0,5.979 -3.877,10.536 -9.915,10.536 C 12.135,10.536 8.25,5.979 8.25,0 c 0,-5.91 3.885,-10.532 9.915,-10.532 6.038,0 9.915,4.622 9.915,10.532"
               style="fill:#0000ff;fill-opacity:1;fill-rule:nonzero;stroke:none"
               id="path4730" />
          </g>
          <g
             id="g4732"
             transform="translate(714.1255,14.1707)"
             style="fill:#0000ff">
            <path
               d="M 0,0 V 20.449 H 8.184 V 0.736 c 0,-4.617 2.774,-7.761 7.822,-7.761 4.994,0 7.823,3.144 7.823,7.761 v 19.713 h 8.19 V 0.058 c 0,-8.433 -5.168,-14.229 -16.013,-14.229 C 5.235,-14.171 0,-8.375 0,0"
               style="fill:#0000ff;fill-opacity:1;fill-rule:nonzero;stroke:none"
               id="path4734" />
          </g>
          <g
             id="g4736"
             transform="translate(769.7452,0.741)"
             style="fill:#0000ff">
            <path
               d="m 0,0 v 33.879 h 17.122 c 7.635,0 11.888,-5.113 11.888,-11.092 0,-6.033 -3.938,-11.141 -11.888,-11.141 H 8.123 V 0 Z m 20.692,22.787 c 0,2.348 -1.664,4.009 -4.553,4.009 H 8.123 v -8.07 h 8.016 c 2.956,0 4.553,1.664 4.553,4.061"
               style="fill:#0000ff;fill-opacity:1;fill-rule:nonzero;stroke:none"
               id="path4738" />
          </g>
          <g
             id="g4740"
             transform="translate(848.584,5.1131)"
             style="fill:#0000ff">
            <path
               d="M 0,0 3.697,6.287 C 6.031,4.007 10.41,1.85 14.903,1.85 c 4.199,0 6.044,1.541 6.044,3.629 0,5.616 -19.837,1.487 -19.837,14.232 0,5.729 5.302,10.535 13.612,10.535 5.79,0 10.403,-1.847 13.793,-4.868 l -3.817,-5.854 c -2.588,2.407 -6.713,3.759 -10.096,3.759 -3.203,0 -5.182,-1.352 -5.182,-3.327 0,-4.988 19.837,-1.167 19.837,-14.166 0,-6.528 -5.108,-10.903 -14.595,-10.903 C 8.19,-5.113 2.955,-2.896 0,0"
               style="fill:#0000ff;fill-opacity:1;fill-rule:nonzero;stroke:none"
               id="path4742" />
          </g>
          <g
             id="g4744"
             transform="translate(897.063,17.6776)"
             style="fill:#0000ff">
            <path
               d="m 0,0 c 0,10.233 7.395,17.682 18.166,17.682 10.723,0 18.238,-7.449 18.238,-17.682 0,-10.161 -7.515,-17.678 -18.238,-17.678 C 7.395,-17.678 0,-10.161 0,0 m 28.087,0 c 0,5.979 -3.878,10.536 -9.921,10.536 -6.024,0 -9.909,-4.557 -9.909,-10.536 0,-5.91 3.885,-10.532 9.909,-10.532 6.043,0 9.921,4.622 9.921,10.532"
               style="fill:#0000ff;fill-opacity:1;fill-rule:nonzero;stroke:none"
               id="path4746" />
          </g>
          <g
             id="g4748"
             transform="translate(955.1563,0.741)"
             style="fill:#0000ff">
            <path
               d="M 0,0 V 33.879 H 8.13 V 7.086 H 23.039 V 0 Z"
               style="fill:#0000ff;fill-opacity:1;fill-rule:nonzero;stroke:none"
               id="path4750" />
          </g>
          <g
             id="g4752"
             transform="translate(999.8775,14.1707)"
             style="fill:#0000ff">
            <path
               d="M 0,0 V 20.449 H 8.19 V 0.736 c 0,-4.617 2.768,-7.761 7.816,-7.761 4.994,0 7.829,3.144 7.829,7.761 v 19.713 h 8.19 V 0.058 c 0,-8.433 -5.168,-14.229 -16.019,-14.229 C 5.229,-14.171 0,-8.375 0,0"
               style="fill:#0000ff;fill-opacity:1;fill-rule:nonzero;stroke:none"
               id="path4754" />
          </g>
          <g
             id="g4756"
             transform="translate(1062.5171,0.741)"
             style="fill:#0000ff">
            <path
               d="m 0,0 v 26.796 h -9.608 v 7.083 H 17.804 V 26.796 H 8.137 V 0 Z"
               style="fill:#0000ff;fill-opacity:1;fill-rule:nonzero;stroke:none"
               id="path4758" />
          </g>
          <path
             d="m 1101.261,34.62 h 8.137 V 0.741 h -8.137 z"
             style="fill:#0000ff;fill-opacity:1;fill-rule:nonzero;stroke:none"
             id="path4760" />
          <g
             id="g4762"
             transform="translate(1131.0732,17.6776)"
             style="fill:#0000ff">
            <path
               d="M 0,0 C 0,10.233 7.395,17.682 18.179,17.682 28.89,17.682 36.411,10.233 36.411,0 36.411,-10.161 28.89,-17.678 18.179,-17.678 7.395,-17.678 0,-10.161 0,0 m 28.094,0 c 0,5.979 -3.878,10.536 -9.915,10.536 -6.037,0 -9.922,-4.557 -9.922,-10.536 0,-5.91 3.885,-10.532 9.922,-10.532 6.037,0 9.915,4.622 9.915,10.532"
               style="fill:#0000ff;fill-opacity:1;fill-rule:nonzero;stroke:none"
               id="path4764" />
          </g>
          <g
             id="g4766"
             transform="translate(1213.0615,0.741)"
             style="fill:#0000ff">
            <path
               d="M 0,0 -15.772,21.251 V 0 h -8.123 v 33.879 h 8.745 L 0.194,13.43 v 20.449 h 8.13 V 0 Z"
               style="fill:#0000ff;fill-opacity:1;fill-rule:nonzero;stroke:none"
               id="path4768" />
          </g>
          <g
             id="g4770"
             transform="translate(1242.2051,5.1131)"
             style="fill:#0000ff">
            <path
               d="M 0,0 3.697,6.287 C 6.031,4.007 10.41,1.85 14.903,1.85 c 4.192,0 6.044,1.541 6.044,3.629 0,5.616 -19.837,1.487 -19.837,14.232 0,5.729 5.295,10.535 13.612,10.535 5.79,0 10.403,-1.847 13.793,-4.868 l -3.818,-5.854 c -2.587,2.407 -6.712,3.759 -10.095,3.759 -3.203,0 -5.175,-1.352 -5.175,-3.327 0,-4.988 19.83,-1.167 19.83,-14.166 0,-6.528 -5.108,-10.903 -14.602,-10.903 C 8.19,-5.113 2.948,-2.896 0,0"
               style="fill:#0000ff;fill-opacity:1;fill-rule:nonzero;stroke:none"
               id="path4772" />
          </g>
        </g>
      </g>
    </g>
  </g>
  <g
     inkscape:label="Dwgs.User"
     inkscape:groupmode="layer"
     id="g5246" />
  <g
     inkscape:label="Drill"
     inkscape:groupmode="layer"
     id="g5248" />
</svg>
