<?xml version="1.0" encoding="UTF-8" standalone="no"?>
<svg
   xmlns:dc="http://purl.org/dc/elements/1.1/"
   xmlns:cc="http://creativecommons.org/ns#"
   xmlns:rdf="http://www.w3.org/1999/02/22-rdf-syntax-ns#"
   xmlns:svg="http://www.w3.org/2000/svg"
   xmlns="http://www.w3.org/2000/svg"
   xmlns:sodipodi="http://sodipodi.sourceforge.net/DTD/sodipodi-0.dtd"
   xmlns:inkscape="http://www.inkscape.org/namespaces/inkscape"
   width="100.0mm"
   height="100.0mm"
   viewBox="0 0 100.0 100.0"
   version="1.1"
   id="svg1646"
   sodipodi:docname="Corelight SAO.svg"
   inkscape:version="1.0.2 (e86c8708, 2021-01-15)">
  <defs
     id="defs1640">
    <clipPath
       clipPathUnits="userSpaceOnUse"
       id="clipPath2262">
      <path
         d="M 0,400 H 400 V 0 H 0 Z"
         id="path2260" />
    </clipPath>
  </defs>
  <sodipodi:namedview
     id="base"
     pagecolor="#ffffff"
     bordercolor="#666666"
     borderopacity="1.0"
     inkscape:pageopacity="0.0"
     inkscape:pageshadow="2"
     inkscape:zoom="3.3163747"
     inkscape:cx="184.9078"
     inkscape:cy="268.92412"
     inkscape:document-units="mm"
     inkscape:current-layer="g2228"
     inkscape:document-rotation="0"
     showgrid="false"
     inkscape:window-width="2301"
     inkscape:window-height="1217"
     inkscape:window-x="0"
     inkscape:window-y="25"
     inkscape:window-maximized="0" />
  <metadata
     id="metadata1643">
    <rdf:RDF>
      <cc:Work
         rdf:about="">
        <dc:format>image/svg+xml</dc:format>
        <dc:type
           rdf:resource="http://purl.org/dc/dcmitype/StillImage" />
        <dc:title />
      </cc:Work>
    </rdf:RDF>
  </metadata>
  <g
     inkscape:label="[fixed] BG"
     inkscape:groupmode="layer"
     sodipodi:insensitive="true"
     id="g2214">
    <rect
       x="0"
       y="0"
       width="100.0"
       height="100.0"
       style="fill:#FFFFFF;fill-opacity:1;stroke:none"
       id="rect2212" />
  </g>
  <g
     inkscape:label="Edge.Cuts"
     inkscape:groupmode="layer"
     id="g2216">
    <path
       id="path2402"
       style="font-variation-settings:normal;display:inline;opacity:1;vector-effect:none;fill:#000000;fill-opacity:1;fill-rule:evenodd;stroke:none;stroke-width:1.8501;stroke-linecap:butt;stroke-linejoin:miter;stroke-miterlimit:0;stroke-dasharray:none;stroke-dashoffset:0;stroke-opacity:1;stop-color:#000000;stop-opacity:1"
       d="m 95.1036,66.3801 -0.0092,0.7449 -0.0277,0.7427 -0.0459,0.7402 -0.064,0.7373 -0.0821,0.7342 -0.0999,0.7308 -0.1177,0.727 -0.1353,0.7229 -0.1528,0.7186 -0.1702,0.7139 -0.1874,0.7089 -0.2046,0.7036 -0.2215,0.6981 -0.2384,0.6921 -0.2552,0.6859 -0.2717,0.6794 -0.2883,0.6726 -0.3046,0.6654 -0.3208,0.658 -0.3369,0.6502 -0.3529,0.6422 -0.3687,0.6338 -0.3845,0.6251 -0.4001,0.6162 -0.4155,0.6069 -0.4308,0.5973 -0.4461,0.5873 -0.4611,0.5772 -0.4761,0.5667 -0.491,0.5558 -0.5056,0.5447 -0.5202,0.5333 -0.5333,0.5202 -0.5447,0.5056 -0.5558,0.491 -0.5667,0.4761 -0.5771,0.4611 -0.5874,0.4461 -0.5973,0.4308 -0.6069,0.4155 -0.6162,0.4001 -0.6251,0.3845 -0.6338,0.3687 -0.6422,0.3529 -0.6502,0.3369 -0.658,0.3208 -0.6654,0.3046 -0.6726,0.2883 -0.6794,0.2717 -0.6859,0.2552 -0.6921,0.2384 -0.6981,0.2215 -0.7036,0.2046 -0.7089,0.1874 -0.7139,0.1702 -0.7186,0.1528 -0.7229,0.1353 -0.727,0.1177 -0.7308,0.0999 -0.7342,0.0821 -0.7373,0.064 -0.7402,0.0459 -0.7427,0.0277 -0.7449,0.0092 -0.7743,-0.0098 -0.7695,-0.0292 -0.7644,-0.0485 -0.7591,-0.0674 -0.7536,-0.0861 -0.7478,-0.1047 -0.7418,-0.1229 -0.7356,-0.1409 -0.729,-0.1587 -0.7224,-0.1763 -0.7154,-0.1936 -0.7082,-0.2107 -0.7008,-0.2275 -0.6931,-0.2441 -0.6853,-0.2605 -0.6771,-0.2767 -0.6687,-0.2925 -0.6601,-0.3082 -0.6514,-0.3237 -0.6422,-0.3388 -0.6329,-0.3539 -0.6234,-0.3685 -0.6136,-0.383 -0.6036,-0.3973 -0.5933,-0.4114 -0.5829,-0.425 -0.5721,-0.4387 -0.5612,-0.452 -0.55,-0.465 -0.5385,-0.4779 -0.5269,-0.4905 -0.515,-0.5028 -0.5029,-0.515 -0.4905,-0.5269 -0.4778,-0.5385 -0.4651,-0.55 -0.4519,-0.5612 -0.4387,-0.5721 -0.4251,-0.5829 -0.4113,-0.5933 -0.3973,-0.6036 -0.383,-0.6136 -0.3686,-0.6234 -0.3538,-0.6329 -0.3388,-0.6423 -0.3237,-0.6513 -0.3082,-0.6601 -0.2926,-0.6688 -0.2766,-0.6771 -0.2605,-0.6852 -0.2441,-0.6931 -0.2276,-0.7008 -0.2106,-0.7082 -0.1936,-0.7154 -0.1763,-0.7224 -0.1587,-0.7291 -0.1409,-0.7355 -0.1229,-0.7418 -0.1047,-0.7478 -0.0861,-0.7536 -0.0674,-0.7591 -0.0485,-0.7644 -0.0292,-0.7695 -0.0098,-0.7743 0.0092,-0.7449 0.0277,-0.7427 0.0459,-0.7402 0.064,-0.7373 0.082,-0.7342 0.1,-0.7308 0.1176,-0.727 0.1354,-0.723 0.1528,-0.7185 0.1702,-0.7139 0.1874,-0.7089 0.2045,-0.7037 0.2216,-0.698 0.2384,-0.6921 0.2551,-0.6859 0.2718,-0.6794 0.2882,-0.6726 0.3046,-0.6654 0.3209,-0.658 0.3369,-0.6502 0.3529,-0.6422 0.3687,-0.6338 0.3845,-0.6252 0.4,-0.6161 0.4156,-0.6069 0.4308,-0.5973 0.4461,-0.5874 0.4611,-0.5771 0.4761,-0.5667 0.491,-0.5558 0.5056,-0.5447 0.5202,-0.5333 0.5333,-0.5202 0.5447,-0.5056 0.5558,-0.491 0.5667,-0.4761 0.5771,-0.4611 0.5874,-0.4461 0.5973,-0.4308 0.6069,-0.4156 0.6161,-0.4 0.6252,-0.3845 0.6338,-0.3687 0.6422,-0.3529 0.6502,-0.3369 0.658,-0.3209 0.6654,-0.3046 0.6726,-0.2882 0.6794,-0.2718 0.6859,-0.2551 0.6921,-0.2384 0.698,-0.2216 0.7037,-0.2045 0.7089,-0.1874 0.7139,-0.1702 0.7186,-0.1528 0.7229,-0.1354 0.727,-0.1176 0.7308,-0.1 0.7342,-0.082 0.7373,-0.064 0.7402,-0.0459 0.7427,-0.0277 0.7449,-0.0092 0.7449,0.0092 0.7427,0.0277 0.7402,0.0459 0.7373,0.064 0.7342,0.082 0.7308,0.1 0.727,0.1176 0.7229,0.1354 0.7186,0.1528 0.7139,0.1702 0.7089,0.1874 0.7036,0.2045 0.6981,0.2216 0.6921,0.2384 0.6859,0.2551 0.6794,0.2718 0.6726,0.2882 0.6654,0.3046 0.658,0.3209 0.6502,0.3369 0.6422,0.3529 0.6338,0.3687 0.6251,0.3845 0.6162,0.4 0.6069,0.4156 0.5973,0.4308 0.5874,0.4461 0.5771,0.4611 0.5667,0.4761 0.5558,0.491 0.5447,0.5056 0.5333,0.5202 0.5202,0.5333 0.5056,0.5447 0.491,0.5558 0.4761,0.5667 0.4611,0.5771 0.4461,0.5874 0.4308,0.5973 0.4155,0.6069 0.4001,0.6161 0.3845,0.6252 0.3687,0.6338 0.3529,0.6422 0.3369,0.6502 0.3208,0.658 0.3046,0.6654 0.2883,0.6726 0.2717,0.6794 0.2552,0.6859 0.2384,0.6921 0.2215,0.698 0.2046,0.7037 0.1874,0.7089 0.1702,0.7139 0.1528,0.7185 0.1353,0.723 0.1177,0.727 0.0999,0.7308 0.0821,0.7342 0.064,0.7373 0.0459,0.7402 0.0277,0.7427 0.0092,0.7449 v 0" />
  </g>
  <g
     inkscape:label="B.Cu"
     inkscape:groupmode="layer"
     id="g2218" />
  <g
     inkscape:label="B.Mask"
     inkscape:groupmode="layer"
     id="g2220" />
  <g
     inkscape:label="B.SilkS"
     inkscape:groupmode="layer"
     id="g2222" />
  <g
     inkscape:label="F.Cu"
     inkscape:groupmode="layer"
     id="g2224">
    <g
       id="g2264"
       transform="matrix(0.13888889,0,0,-0.13888889,84.673037,67.922127)">
      <path
         d="m 0,0 c -3.5,-75 -65.2,-134.8 -141.1,-134.8 -68.2,0 -125.2,48.3 -138.5,112.6 -1.8,9.1 -2.8,18.6 -2.8,28.2 0,78.1 63.3,141.5 141.4,141.5 v 39.2 C -240.4,186.6 -320.9,106 -320.9,6.6 c 0,-99.4 80.6,-180.1 180.1,-180.1 97.2,0 176.5,77.1 179.9,173.5 z"
         style="fill:#00ab49;fill-opacity:1;fill-rule:nonzero;stroke:none"
         id="path2266" />
    </g>
  </g>
  <g
     inkscape:label="F.Mask"
     inkscape:groupmode="layer"
     id="g2226">
    <g
       id="g2430"
       transform="matrix(0.13888889,0,0,-0.13888889,84.673037,67.922127)"
       style="fill:#ff0000">
      <path
         d="m 0,0 c -3.5,-75 -65.2,-134.8 -141.1,-134.8 -68.2,0 -125.2,48.3 -138.5,112.6 -1.8,9.1 -2.8,18.6 -2.8,28.2 0,78.1 63.3,141.5 141.4,141.5 v 39.2 C -240.4,186.6 -320.9,106 -320.9,6.6 c 0,-99.4 80.6,-180.1 180.1,-180.1 97.2,0 176.5,77.1 179.9,173.5 z"
         style="fill:#ff0000;fill-opacity:1;fill-rule:nonzero;stroke:none"
         id="path2428" />
    </g>
  </g>
  <g
     inkscape:label="F.SilkS"
     inkscape:groupmode="layer"
     id="g2228">
    <g
       id="g2454"
       transform="translate(0.7966045)">
      <path
         d="m 71.890318,68.297126 c -0.361111,0.333333 -0.708333,0.5 -1.027778,0.5 -0.375,0 -0.555555,-0.180556 -0.555555,-0.555556 v -3.652777 c 0,-0.402778 0.166666,-0.583334 0.541666,-0.583334 0.319445,0 0.652778,0.180556 1.041667,0.569445 z m 0.444444,-5.069444 h -0.02778 c -0.277778,0 -0.430556,0.152777 -0.430556,0.430555 -0.361111,-0.319444 -0.763889,-0.486111 -1.180555,-0.486111 -0.847223,0 -1.291667,0.458333 -1.291667,1.333333 v 3.819445 c 0,0.847222 0.472222,1.333333 1.291667,1.333333 0.375,0 0.777777,-0.166667 1.166666,-0.486111 v 1.819444 c 0,0.375 -0.180555,0.541667 -0.555555,0.541667 H 70.86254 c -0.402778,0 -0.583333,-0.166667 -0.583333,-0.527778 v -0.05555 c 0,-0.166667 -0.06945,-0.361111 -0.402778,-0.361111 h -0.04167 c -0.263888,0 -0.402777,0.138889 -0.402777,0.388889 v 0.05555 c 0,0.875 0.472222,1.319445 1.402777,1.319445 h 0.444445 c 0.972222,0 1.486111,-0.5 1.486111,-1.444445 v -7.25 c 0.01389,-0.291667 -0.138889,-0.430555 -0.430556,-0.430555"
         style="fill:#0000ff;fill-opacity:1;fill-rule:nonzero;stroke:none;stroke-width:0.138889"
         id="path2270" />
      <path
         d="m 67.515319,70.352682 c 0.291667,0 0.444444,-0.152778 0.444444,-0.444444 v -6.208334 c 0,-0.291667 -0.152777,-0.444444 -0.444444,-0.444444 h -0.02778 c -0.291666,0 -0.444444,0.152777 -0.444444,0.444444 v 6.208334 c 0,0.291666 0.152778,0.444444 0.444444,0.444444 z"
         style="fill:#0000ff;fill-opacity:1;fill-rule:nonzero;stroke:none;stroke-width:0.138889"
         id="path2274" />
      <path
         d="m 67.515319,61.199903 h -0.02778 c -0.291666,0 -0.458333,0.166667 -0.458333,0.458333 v 0.305556 c 0,0.291667 0.166667,0.458333 0.458333,0.458333 h 0.02778 c 0.291667,0 0.458333,-0.166666 0.458333,-0.458333 v -0.305556 c 0,-0.291666 -0.166666,-0.458333 -0.458333,-0.458333"
         style="fill:#0000ff;fill-opacity:1;fill-rule:nonzero;stroke:none;stroke-width:0.138889"
         id="path2278" />
      <path
         d="m 64.959762,70.352682 c 0.291667,0 0.444444,-0.152778 0.444444,-0.444444 v -8.430556 c 0,-0.291667 -0.152777,-0.444445 -0.444444,-0.444445 h -0.02778 c -0.291666,0 -0.444444,0.152778 -0.444444,0.444445 v 8.430556 c 0,0.291666 0.152778,0.444444 0.444444,0.444444 z"
         style="fill:#0000ff;fill-opacity:1;fill-rule:nonzero;stroke:none;stroke-width:0.138889"
         id="path2282" />
      <path
         d="m 60.751429,64.769349 c 0,-0.472222 0.222222,-0.694444 0.694444,-0.694444 h 0.138889 c 0.472223,0 0.680556,0.222222 0.680556,0.694444 v 1.541667 H 60.73754 v -1.541667 z m 1.916667,2.416667 c 0.319444,0 0.5,-0.180556 0.5,-0.5 v -1.888889 c 0,-1.041667 -0.527778,-1.583334 -1.583334,-1.583334 h -0.180555 c -1.041667,0 -1.583334,0.527778 -1.583334,1.583334 v 4.027778 c 0,1.041666 0.527778,1.583333 1.583334,1.583333 h 0.180555 c 1.041667,0 1.583334,-0.527778 1.583334,-1.583333 v -0.458334 c 0,-0.277778 -0.152778,-0.430555 -0.430556,-0.430555 h -0.02778 c -0.277777,0 -0.430555,0.152777 -0.430555,0.430555 v 0.486111 c 0,0.472223 -0.222222,0.680556 -0.694445,0.680556 h -0.152777 c -0.472223,0 -0.694445,-0.222222 -0.694445,-0.680556 v -1.666666 z"
         style="fill:#0000ff;fill-opacity:1;fill-rule:nonzero;stroke:none;stroke-width:0.138889"
         id="path2286" />
      <path
         d="m 57.445873,63.269347 h -0.02778 c -0.277778,0 -0.430555,0.152778 -0.430555,0.416667 v 6.236111 c 0,0.291666 0.152777,0.444444 0.430555,0.444444 h 0.02778 c 0.291667,0 0.444444,-0.152778 0.444444,-0.444444 v -5.208334 c 0.222223,-0.208333 0.486112,-0.361111 0.791667,-0.458333 0.388889,-0.111111 0.472222,-0.347222 0.472222,-0.527778 v -0.08333 c 0,-0.361111 -0.222222,-0.444444 -0.402777,-0.444444 -0.263889,0 -0.541667,0.194444 -0.847223,0.583333 v -0.125 c -0.02778,-0.25 -0.180555,-0.388889 -0.458333,-0.388889"
         style="fill:#0000ff;fill-opacity:1;fill-rule:nonzero;stroke:none;stroke-width:0.138889"
         id="path2290" />
      <path
         d="m 54.87643,68.852682 c 0,0.472222 -0.222222,0.680556 -0.680556,0.680556 h -0.25 c -0.472222,0 -0.680555,-0.222223 -0.680555,-0.680556 v -4.083333 c 0,-0.472223 0.222222,-0.694445 0.680555,-0.694445 h 0.25 c 0.472223,0 0.680556,0.222222 0.680556,0.694445 z m -0.680556,-5.638889 h -0.263888 c -1.041667,0 -1.583334,0.527778 -1.583334,1.583333 v 4.027778 c 0,1.041667 0.527778,1.583334 1.583334,1.583334 h 0.263888 c 1.041667,0 1.569445,-0.527778 1.569445,-1.583334 v -4.027778 c 0,-1.055555 -0.527778,-1.583333 -1.569445,-1.583333"
         style="fill:#0000ff;fill-opacity:1;fill-rule:nonzero;stroke:none;stroke-width:0.138889"
         id="path2294" />
      <path
         d="m 50.73754,65.97768 h 0.02778 c 0.291666,0 0.444444,-0.152778 0.444444,-0.444444 v -0.763889 c 0,-1.027778 -0.527778,-1.555556 -1.555555,-1.555556 h -0.222223 c -1.041666,0 -1.583333,0.527778 -1.583333,1.583333 v 4.027778 c 0,1.041667 0.527778,1.583334 1.583333,1.583334 h 0.222223 c 1.041666,0 1.569444,-0.527778 1.569444,-1.583334 V 67.85268 c 0,-0.277778 -0.152778,-0.430556 -0.444444,-0.430556 h -0.02778 c -0.277778,0 -0.430556,0.152778 -0.430556,0.430556 v 1 c 0,0.472222 -0.222222,0.680556 -0.680555,0.680556 h -0.194445 c -0.472222,0 -0.680555,-0.222223 -0.680555,-0.680556 v -4.083333 c 0,-0.472223 0.222222,-0.694445 0.680555,-0.694445 h 0.180556 c 0.472222,0 0.680555,0.222222 0.680555,0.694445 v 0.763889 c 0,0.291666 0.152778,0.444444 0.430556,0.444444"
         style="fill:#0000ff;fill-opacity:1;fill-rule:nonzero;stroke:none;stroke-width:0.138889"
         id="path2298" />
      <path
         d="m 76.209763,63.213792 c -0.402778,0 -0.805556,0.166667 -1.194444,0.513889 V 61.49157 c 0,-0.291667 -0.152778,-0.444445 -0.444445,-0.444445 h -0.02778 c -0.277777,0 -0.430555,0.152778 -0.430555,0.444445 v 8.430555 c 0,0.291667 0.152778,0.444445 0.430555,0.444445 h 0.02778 c 0.291667,0 0.444445,-0.152778 0.444445,-0.444445 v -5.333333 c 0.416666,-0.361111 0.75,-0.527778 1.041666,-0.527778 0.347222,0 0.513889,0.180556 0.513889,0.555556 v 5.305555 c 0,0.291667 0.152778,0.444445 0.444445,0.444445 h 0.02778 c 0.277778,0 0.430556,-0.152778 0.430556,-0.444445 v -5.444444 c -0.01389,-0.833333 -0.444445,-1.263889 -1.263889,-1.263889"
         style="fill:#0000ff;fill-opacity:1;fill-rule:nonzero;stroke:none;stroke-width:0.138889"
         id="path2302" />
      <path
         d="m 79.473653,70.352682 h -0.02778 c -0.291666,0 -0.444444,-0.152778 -0.444444,-0.444444 V 64.13046 H 78.89032 c -0.263889,0 -0.416667,-0.152778 -0.416667,-0.416667 v -0.02778 c 0,-0.263889 0.152778,-0.402778 0.416667,-0.402778 h 0.125 v -0.736111 c 0,-0.291666 0.152777,-0.444444 0.444444,-0.444444 h 0.02778 c 0.291667,0 0.444444,0.152778 0.444444,0.444444 v 0.736111 h 0.430556 c 0.263889,0 0.402778,0.138889 0.402778,0.402778 v 0.02778 c 0,0.263889 -0.138889,0.416667 -0.402778,0.416667 h -0.430556 v 5.777778 c -0.01389,0.291666 -0.166666,0.444444 -0.458333,0.444444"
         style="fill:#0000ff;fill-opacity:1;fill-rule:nonzero;stroke:none;stroke-width:0.138889"
         id="path2306" />
    </g>
  </g>
  <g
     inkscape:label="Dwgs.User"
     inkscape:groupmode="layer"
     id="g2230" />
  <g
     inkscape:label="Drill"
     inkscape:groupmode="layer"
     id="g2232" />
</svg>
