<?xml version="1.0" encoding="UTF-8" standalone="no"?>
<svg
   xmlns:dc="http://purl.org/dc/elements/1.1/"
   xmlns:cc="http://creativecommons.org/ns#"
   xmlns:rdf="http://www.w3.org/1999/02/22-rdf-syntax-ns#"
   xmlns:svg="http://www.w3.org/2000/svg"
   xmlns="http://www.w3.org/2000/svg"
   xmlns:sodipodi="http://sodipodi.sourceforge.net/DTD/sodipodi-0.dtd"
   xmlns:inkscape="http://www.inkscape.org/namespaces/inkscape"
   width="100.0mm"
   height="100.0mm"
   viewBox="0 0 100.0 100.0"
   version="1.1"
   id="svg3259"
   sodipodi:docname="Red Canary.svg"
   inkscape:version="1.0.2 (e86c8708, 2021-01-15)">
  <defs
     id="defs3253" />
  <sodipodi:namedview
     id="base"
     pagecolor="#ffffff"
     bordercolor="#666666"
     borderopacity="1.0"
     inkscape:pageopacity="0.0"
     inkscape:pageshadow="2"
     inkscape:zoom="3.4368076"
     inkscape:cx="251.19327"
     inkscape:cy="309.03326"
     inkscape:document-units="mm"
     inkscape:current-layer="g3829"
     inkscape:document-rotation="0"
     showgrid="false"
     inkscape:window-width="1252"
     inkscape:window-height="1146"
     inkscape:window-x="488"
     inkscape:window-y="31"
     inkscape:window-maximized="0" />
  <metadata
     id="metadata3256">
    <rdf:RDF>
      <cc:Work
         rdf:about="">
        <dc:format>image/svg+xml</dc:format>
        <dc:type
           rdf:resource="http://purl.org/dc/dcmitype/StillImage" />
        <dc:title />
      </cc:Work>
    </rdf:RDF>
  </metadata>
  <g
     inkscape:label="[fixed] BG"
     inkscape:groupmode="layer"
     sodipodi:insensitive="true"
     id="g3827">
    <rect
       x="0"
       y="0"
       width="100.0"
       height="100.0"
       style="fill:#FFFFFF;fill-opacity:1;stroke:none"
       id="rect3825" />
  </g>
  <g
     inkscape:label="Edge.Cuts"
     inkscape:groupmode="layer"
     id="g3829">
    <path
       id="rect3953"
       style="font-variation-settings:normal;opacity:1;vector-effect:none;fill:#000000;fill-opacity:1;fill-rule:evenodd;stroke:none;stroke-width:0.588681;stroke-linecap:butt;stroke-linejoin:miter;stroke-miterlimit:0;stroke-dasharray:none;stroke-dashoffset:0;stroke-opacity:1;stop-color:#000000;stop-opacity:1"
       d="m 41.6127,55.0267 h 51.1905 l 0.2469,0.0247 0.2296,0.071 0.2076,0.1124 0.1807,0.149 0.1489,0.1807 0.1124,0.2076 0.071,0.2296 0.0248,0.2468 v 18.608 l -0.0248,0.2469 -0.071,0.2296 -0.1124,0.2076 -0.1489,0.1807 -0.1807,0.1489 -0.2076,0.1124 -0.2296,0.071 -0.2469,0.0248 H 41.6127 L 41.3659,76.0536 41.1363,75.9826 40.9287,75.8702 40.748,75.7213 40.599,75.5406 40.4866,75.333 40.4157,75.1034 40.3909,74.8565 v -18.608 l 0.0248,-0.2468 0.0709,-0.2296 0.1124,-0.2076 0.149,-0.1807 0.1807,-0.149 0.2076,-0.1124 0.2296,-0.071 0.2468,-0.0247 v 0" />
  </g>
  <g
     inkscape:label="B.Cu"
     inkscape:groupmode="layer"
     id="g3831" />
  <g
     inkscape:label="B.Mask"
     inkscape:groupmode="layer"
     id="g3833" />
  <g
     inkscape:label="B.SilkS"
     inkscape:groupmode="layer"
     id="g3835" />
  <g
     inkscape:label="F.Cu"
     inkscape:groupmode="layer"
     id="g3837">
    <path
       d="m 55.955525,58.929687 h -0.0098 l -0.0045,1.07e-4 -0.0045,1.06e-4 -0.0046,1.07e-4 -0.0045,2.12e-4 -0.0045,1.07e-4 -0.0044,3.19e-4 -0.0045,2.13e-4 -0.0044,2.13e-4 -0.0045,3.19e-4 -0.0044,3.2e-4 -0.0045,4.26e-4 -0.0044,3.19e-4 -0.0044,4.26e-4 -0.0044,4.26e-4 -0.0042,4.26e-4 -0.0044,4.26e-4 -0.0044,6.38e-4 -0.0044,4.26e-4 -0.0042,6.39e-4 -0.0044,6.39e-4 -0.0042,5.32e-4 -0.0042,6.39e-4 -0.0042,7.45e-4 -0.0044,6.39e-4 -0.0041,7.46e-4 -0.0042,6.38e-4 -0.0042,8.14e-4 -0.0041,8.13e-4 -0.0042,7.45e-4 -0.0041,8.14e-4 -0.0042,8.13e-4 -0.0041,8.13e-4 -0.0042,9.77e-4 -0.0041,9.76e-4 -0.0041,0.0011 -0.0041,9.76e-4 -0.0041,9.76e-4 -0.0041,0.0011 -0.0041,0.0011 -0.0041,0.0011 -0.0041,0.0011 -0.0041,0.0011 -0.0041,0.0011 -0.0041,0.0011 -0.0041,0.0013 -0.0041,0.0011 -0.0041,0.0014 -0.0039,0.0011 -0.0041,0.0014 -0.0039,0.0014 -0.0039,0.0014 -0.0041,0.0013 -0.0039,0.0015 -0.0039,0.0014 -0.0039,0.0015 -0.0039,0.0015 -0.0039,0.0014 -0.0038,0.0017 -0.0039,0.0015 -0.0039,0.0016 -0.0038,0.0015 -0.0038,0.0017 -0.0038,0.0016 -0.0038,0.0017 -0.0038,0.0017 -0.0038,0.0016 -0.0038,0.0018 -0.0037,0.0017 -0.0038,0.002 -0.0038,0.0017 -0.0037,0.0018 -0.0037,0.0018 -0.0037,0.002 -0.0038,0.002 -0.0037,0.0018 -0.0036,0.002 -0.0037,0.002 -0.0036,0.002 -0.0036,0.002 -0.0037,0.0021 -0.0035,0.002 -0.0037,0.002 -0.0036,0.002 -0.0035,0.0022 -0.0037,0.0021 -0.0036,0.0021 -0.0034,0.0022 -0.0036,0.0022 -0.0035,0.0021 -0.0035,0.0022 -0.0035,0.0022 -0.0034,0.0022 -0.0035,0.0024 -0.0035,0.0024 -0.0034,0.0024 -0.0034,0.0022 -0.0034,0.0024 -0.0034,0.0024 -0.0034,0.0025 -0.0033,0.0024 -0.0034,0.0024 -0.0033,0.0024 -0.0034,0.0027 -0.0032,0.0024 -0.0034,0.0027 -0.0032,0.0024 -0.0033,0.0027 -0.0032,0.0025 -0.0033,0.0025 -0.0031,0.0027 -0.0033,0.0028 -0.0031,0.0025 -0.0032,0.0028 -0.0032,0.0028 -0.0031,0.0027 -0.0031,0.0028 -0.0031,0.0028 -0.0032,0.0028 -0.003,0.0028 -0.0031,0.0028 -0.0031,0.0028 -0.003,0.0028 -0.003,0.0028 -0.003,0.0028 -0.003,0.003 -0.0028,0.003 -0.003,0.0028 -0.0028,0.003 -0.003,0.003 -0.0028,0.003 -0.0028,0.0031 -0.0028,0.003 -0.0028,0.003 -0.0028,0.0031 -0.0028,0.0032 -0.0028,0.0031 -0.0028,0.0031 -0.0028,0.0031 -0.0028,0.0032 -0.0027,0.0031 -0.0025,0.0032 -0.0028,0.0033 -0.0027,0.0031 -0.0025,0.0033 -0.0025,0.0032 -0.0027,0.0033 -0.0025,0.0033 -0.0025,0.0033 -0.0024,0.0032 -0.0025,0.0035 -0.0024,0.0033 -0.0024,0.0033 -0.0024,0.0034 -0.0025,0.0033 -0.0024,0.0034 -0.0024,0.0034 -0.0022,0.0034 -0.0024,0.0034 -0.0024,0.0036 -0.0022,0.0034 -0.0022,0.0034 -0.0024,0.0035 -0.0022,0.0035 -0.0021,0.0035 -0.0022,0.0035 -0.0021,0.0037 -0.0021,0.0035 -0.0021,0.0036 -0.0022,0.0035 -0.002,0.0036 -0.002,0.0037 -0.002,0.0035 -0.0021,0.0037 -0.002,0.0037 -0.002,0.0035 -0.002,0.0037 -0.002,0.0036 -0.002,0.0037 -0.0018,0.0038 -0.002,0.0037 -0.0018,0.0037 -0.0018,0.0038 -0.002,0.0037 -0.0017,0.0037 -0.0017,0.0038 -0.0017,0.0037 -0.0018,0.0038 -0.0016,0.0039 -0.0017,0.0038 -0.0016,0.0038 -0.0017,0.0038 -0.0016,0.0039 -0.0015,0.0038 -0.0016,0.0039 -0.0016,0.0038 -0.0014,0.0039 -0.0015,0.0038 -0.0015,0.0041 -0.0014,0.0039 -0.0015,0.0039 -0.0014,0.0041 -0.0013,0.0039 -0.0014,0.0039 -0.0014,0.0041 -0.0013,0.0039 -0.0013,0.0039 -0.0011,0.0041 -0.0013,0.0041 -0.0011,0.0041 -0.0011,0.0041 -0.0011,0.0041 -0.0011,0.0041 -0.0011,0.0041 -0.0011,0.0041 -0.0011,0.0041 -0.0011,0.0041 -9.76e-4,0.0041 -9.76e-4,0.0041 -9.76e-4,0.0041 -9.76e-4,0.0041 -8.14e-4,0.0041 -8.13e-4,0.0042 -8.14e-4,0.0041 -8.13e-4,0.0042 -7.45e-4,0.0041 -8.14e-4,0.0041 -7.45e-4,0.0044 -6.39e-4,0.0041 -7.45e-4,0.0044 -6.39e-4,0.0042 -6.38e-4,0.0042 -6.4e-4,0.0042 -5.32e-4,0.0044 -6.38e-4,0.0042 -4.26e-4,0.0044 -6.39e-4,0.0044 -4.26e-4,0.0044 -4.26e-4,0.0044 -4.26e-4,0.0044 -4.25e-4,0.0044 -4.27e-4,0.0042 -3.19e-4,0.0045 -3.19e-4,0.0044 -3.2e-4,0.0045 -3.19e-4,0.0045 -1.06e-4,0.0044 -3.2e-4,0.0044 -1.07e-4,0.0046 -2.12e-4,0.0044 -1.06e-4,0.0046 v 0.0045 0.0045 0.0046 0.0052 10.510125 0.0053 0.0044 l 1.06e-4,0.0046 v 0.0045 l 2.12e-4,0.0046 1.07e-4,0.0045 2.13e-4,0.0044 2.13e-4,0.0045 2.13e-4,0.0044 2.13e-4,0.0045 3.19e-4,0.0045 3.2e-4,0.0044 4.25e-4,0.0045 3.2e-4,0.0044 4.26e-4,0.0044 4.26e-4,0.0044 4.25e-4,0.0044 5.33e-4,0.0043 5.32e-4,0.0044 5.32e-4,0.0044 5.33e-4,0.0042 6.38e-4,0.0042 6.39e-4,0.0044 5.33e-4,0.0043 7.45e-4,0.0044 6.38e-4,0.0041 7.46e-4,0.0044 7.45e-4,0.0041 7.46e-4,0.0044 8.13e-4,0.0041 7.45e-4,0.0041 9.76e-4,0.0042 8.14e-4,0.0041 8.13e-4,0.0041 9.76e-4,0.0042 8.14e-4,0.0041 0.0011,0.0041 9.76e-4,0.0041 0.0011,0.0041 9.76e-4,0.0041 0.0011,0.0041 9.76e-4,0.0041 0.0011,0.0041 0.0011,0.0041 0.0011,0.0041 0.0011,0.004 0.0013,0.0041 0.0011,0.004 0.0013,0.0041 0.0013,0.0041 0.0013,0.004 0.0014,0.0041 0.0014,0.004 0.0014,0.0041 0.0014,0.004 0.0015,0.0039 0.0014,0.004 0.0015,0.004 0.0016,0.0038 0.0015,0.004 0.0015,0.0039 0.0016,0.004 0.0016,0.0038 0.0016,0.0038 0.0017,0.0039 0.0016,0.0039 0.0017,0.0037 0.0018,0.0038 0.0016,0.0038 0.0018,0.0037 0.0018,0.0037 0.0017,0.0039 0.002,0.0038 0.0018,0.0037 0.002,0.0037 0.002,0.0037 0.0018,0.0036 0.002,0.0037 0.002,0.0037 0.002,0.0036 0.002,0.0037 0.002,0.0037 0.0021,0.0037 0.002,0.0035 0.0021,0.0036 0.0021,0.0037 0.0021,0.0036 0.0021,0.0035 0.0022,0.0035 0.0021,0.0036 0.0022,0.0035 0.0022,0.0035 0.0022,0.0035 0.0022,0.0034 0.0024,0.0035 0.0024,0.0035 0.0024,0.0034 0.0024,0.0033 0.0024,0.0035 0.0025,0.0034 0.0024,0.0034 0.0024,0.0033 0.0024,0.0034 0.0025,0.0033 0.0025,0.0034 0.0025,0.0032 0.0024,0.0033 0.0025,0.0033 0.0025,0.0033 0.0027,0.0032 0.0025,0.0033 0.0027,0.0031 0.0027,0.0033 0.0028,0.0032 0.0025,0.0031 0.0028,0.0032 0.0028,0.0031 0.0027,0.0032 0.0028,0.0031 0.0028,0.0031 0.0028,0.0031 0.0028,0.003 0.0028,0.0031 0.0028,0.0029 0.003,0.0031 0.0028,0.0029 0.0028,0.0029 0.003,0.0029 0.0028,0.003 0.003,0.0028 0.0031,0.0028 0.0028,0.0028 0.0031,0.0028 0.003,0.0028 0.0031,0.0028 0.0031,0.0028 0.0031,0.0028 0.0031,0.0028 0.0031,0.0028 0.0032,0.0027 0.0031,0.0028 0.0032,0.0027 0.0032,0.0027 0.0032,0.0027 0.0032,0.0026 0.0033,0.0028 0.0032,0.0024 0.0032,0.0027 0.0034,0.0026 0.0032,0.0025 0.0034,0.0024 0.0033,0.0025 0.0033,0.0024 0.0033,0.0024 0.0034,0.0024 0.0034,0.0024 0.0033,0.0024 0.0035,0.0024 0.0033,0.0024 0.0037,0.0024 0.0034,0.0024 0.0034,0.0024 0.0035,0.0022 0.0034,0.0024 0.0036,0.0023 0.0034,0.0023 0.0037,0.0021 0.0035,0.0021 0.0035,0.0023 0.0036,0.0021 0.0036,0.002 0.0036,0.0021 0.0037,0.0021 0.0036,0.002 0.0036,0.0021 0.0037,0.002 0.0036,0.002 0.0036,0.002 0.0037,0.002 0.0037,0.0018 0.0037,0.002 0.0037,0.002 0.0036,0.0019 0.0038,0.0018 0.0038,0.0018 0.0037,0.0018 0.0037,0.0019 0.0038,0.0015 0.0038,0.0018 0.0038,0.0017 0.0038,0.0015 0.0038,0.0017 0.0039,0.0016 0.0038,0.0015 0.0039,0.0015 0.0038,0.0015 0.0039,0.0016 0.0038,0.0014 0.0039,0.0015 0.0039,0.0015 0.0041,0.0015 0.0039,0.0014 0.0039,0.0014 0.0039,0.0013 0.0041,0.0014 0.0039,0.0014 0.0041,0.0013 0.0041,0.0013 0.0041,0.0011 0.0041,0.0013 0.0041,0.0011 0.0041,0.0011 0.0041,0.0011 0.0041,0.0011 0.0042,0.0011 0.0041,0.0011 0.0041,9.76e-4 0.0041,0.0011 0.0041,9.76e-4 0.0041,0.0011 0.0041,8.14e-4 0.0042,9.76e-4 0.0041,8.95e-4 0.0041,8.13e-4 0.0042,9.76e-4 0.0041,7.49e-4 0.0042,7.48e-4 0.0042,8.95e-4 0.0041,6.23e-4 0.0042,7.49e-4 0.0042,7.49e-4 0.0042,6.23e-4 0.0044,6.24e-4 0.0042,6.66e-4 0.0042,5.41e-4 0.0044,6.23e-4 0.0044,5.4e-4 0.0042,5.41e-4 0.0044,4.99e-4 0.0044,4.58e-4 0.0044,4.15e-4 0.0044,3.34e-4 0.0044,4.15e-4 0.0044,2.92e-4 0.0045,3.31e-4 0.0044,3.34e-4 0.0045,2.07e-4 0.0044,3.34e-4 0.0045,2.07e-4 0.0045,8.3e-5 0.0045,2.08e-4 0.0045,1.26e-4 h 0.0045 0.0046 0.0045 0.0052 10.510349 0.0053 0.0044 0.0046 l 0.0044,-1.26e-4 0.0046,-2.08e-4 0.0045,-8.3e-5 0.0045,-2.07e-4 0.0045,-2.51e-4 0.0044,-2.07e-4 0.0045,-2.08e-4 0.0044,-2.92e-4 0.0045,-3.31e-4 0.0044,-3.34e-4 0.0044,-4.15e-4 0.0044,-4.16e-4 0.0045,-4.58e-4 0.0042,-4.15e-4 0.0044,-4.17e-4 0.0044,-6.23e-4 0.0042,-4.58e-4 0.0044,-6.24e-4 0.0042,-5.4e-4 0.0044,-7.5e-4 0.0042,-4.98e-4 0.0042,-6.65e-4 0.0042,-7.49e-4 0.0042,-7.49e-4 0.0041,-6.23e-4 0.0042,-8.95e-4 0.0042,-7.07e-4 0.0042,-8.95e-4 0.0041,-8.13e-4 0.0042,-8.95e-4 0.0041,-9.76e-4 0.0041,-8.14e-4 0.0041,-9.76e-4 0.0041,-0.0011 0.0041,-8.95e-4 0.0041,-0.0011 0.0041,-0.0011 0.0041,-0.0011 0.0041,-0.0011 0.0041,-0.0011 0.0041,-0.0011 0.0041,-0.0011 0.0041,-0.0011 0.0041,-0.0014 0.0041,-0.0011 0.0041,-0.0012 0.0041,-0.0014 0.0041,-0.0013 0.0039,-0.0014 0.0039,-0.0014 0.0041,-0.0013 0.0038,-0.0015 0.0041,-0.0014 0.0038,-0.0015 0.0039,-0.0015 0.0039,-0.0014 0.0039,-0.0015 0.0039,-0.0016 0.0038,-0.0015 0.0038,-0.0015 0.0039,-0.0017 0.0038,-0.0015 0.0038,-0.0017 0.0037,-0.0017 0.0039,-0.0017 0.0037,-0.0017 0.0037,-0.0017 0.0039,-0.0019 0.0037,-0.0018 0.0037,-0.0019 0.0037,-0.002 0.0037,-0.0018 0.0037,-0.002 0.0037,-0.0019 0.0037,-0.002 0.0037,-0.002 0.0036,-0.002 0.0036,-0.002 0.0037,-0.002 0.0036,-0.0021 0.0036,-0.002 0.0037,-0.0021 0.0036,-0.0021 0.0035,-0.002 0.0035,-0.0023 0.0036,-0.0021 0.0035,-0.0021 0.0036,-0.0023 0.0034,-0.0023 0.0035,-0.0024 0.0035,-0.0023 0.0034,-0.0024 0.0035,-0.0023 0.0034,-0.0024 0.0034,-0.0024 0.0034,-0.0024 0.0034,-0.0024 0.0034,-0.0024 0.0034,-0.0024 0.0032,-0.0024 0.0034,-0.0024 0.0033,-0.0026 0.0034,-0.0024 0.0032,-0.0027 0.0033,-0.0024 0.0033,-0.0027 0.0032,-0.0026 0.0033,-0.0027 0.0032,-0.0027 0.0032,-0.0025 0.0032,-0.0028 0.0031,-0.0027 0.0032,-0.0027 0.0031,-0.0028 0.0031,-0.0028 0.0032,-0.0028 0.0031,-0.0027 0.0031,-0.003 0.003,-0.0028 0.003,-0.0028 0.0031,-0.0028 0.0031,-0.003 0.0028,-0.0028 0.003,-0.0028 0.003,-0.003 0.0028,-0.003 0.003,-0.0028 0.0028,-0.0029 0.0028,-0.003 0.0028,-0.0031 0.0028,-0.0028 0.0028,-0.0031 0.0028,-0.0032 0.0028,-0.003 0.0028,-0.0032 0.0028,-0.0031 0.0027,-0.0031 0.0027,-0.0031 0.0028,-0.0033 0.0025,-0.0031 0.0027,-0.0032 0.0027,-0.0033 0.0027,-0.0033 0.0025,-0.0031 0.0027,-0.0033 0.0025,-0.0032 0.0024,-0.0033 0.0025,-0.0033 0.0025,-0.0033 0.0024,-0.0033 0.0024,-0.0034 0.0024,-0.0033 0.0025,-0.0035 0.0024,-0.0034 0.0024,-0.0033 0.0022,-0.0034 0.0024,-0.0035 0.0022,-0.0034 0.0024,-0.0035 0.0022,-0.0035 0.0022,-0.0035 0.0022,-0.0034 0.0022,-0.0034 0.0022,-0.0036 0.0021,-0.0036 0.0021,-0.0035 0.0022,-0.0037 0.0021,-0.0036 0.002,-0.0037 0.0022,-0.0037 0.002,-0.0036 0.002,-0.0036 0.002,-0.0036 0.002,-0.0037 0.002,-0.0036 0.002,-0.0037 0.002,-0.0037 0.002,-0.0037 0.002,-0.0037 0.0018,-0.0037 0.0018,-0.0038 0.0018,-0.0038 0.0018,-0.0037 0.0017,-0.0038 0.0018,-0.0037 0.0016,-0.0039 0.0017,-0.0037 0.0017,-0.0038 0.0017,-0.0041 0.0015,-0.0037 0.0016,-0.0038 0.0017,-0.004 0.0015,-0.004 0.0015,-0.004 0.0016,-0.0039 0.0014,-0.004 0.0014,-0.0038 0.0015,-0.004 0.0015,-0.0041 0.0013,-0.004 0.0014,-0.004 0.0014,-0.004 0.0014,-0.004 0.0011,-0.004 0.0013,-0.0041 0.0013,-0.0041 0.0011,-0.0041 0.0011,-0.0041 0.0011,-0.0041 0.0013,-0.0041 0.0011,-0.004 0.0011,-0.0041 0.0011,-0.0042 0.0011,-0.0041 9.76e-4,-0.0041 0.0011,-0.0042 9.76e-4,-0.0041 9.76e-4,-0.0041 9.76e-4,-0.0041 8.13e-4,-0.0041 8.14e-4,-0.0043 8.13e-4,-0.0041 8.14e-4,-0.0041 7.45e-4,-0.0044 7.45e-4,-0.0041 7.46e-4,-0.0043 7.45e-4,-0.0042 7.45e-4,-0.0042 6.39e-4,-0.0043 6.39e-4,-0.0044 6.39e-4,-0.0041 5.32e-4,-0.0045 5.32e-4,-0.0043 6.39e-4,-0.0042 5.32e-4,-0.0044 4.26e-4,-0.0044 4.26e-4,-0.0042 4.26e-4,-0.0044 4.26e-4,-0.0045 4.26e-4,-0.0042 3.19e-4,-0.0045 3.19e-4,-0.0044 3.2e-4,-0.0045 2.13e-4,-0.0044 2.13e-4,-0.0045 3.19e-4,-0.0045 1.06e-4,-0.0045 2.14e-4,-0.0045 1.06e-4,-0.0046 1.07e-4,-0.0044 1.05e-4,-0.0046 v -0.0045 -0.0053 -10.510136 -0.0052 -0.0045 l -1.05e-4,-0.0045 -1.07e-4,-0.0046 -1.06e-4,-0.0045 -2.14e-4,-0.0045 -1.06e-4,-0.0045 -3.19e-4,-0.0045 -2.13e-4,-0.0044 -2.13e-4,-0.0044 -3.2e-4,-0.0045 -3.19e-4,-0.0044 -3.19e-4,-0.0045 -4.26e-4,-0.0044 -4.26e-4,-0.0044 -4.26e-4,-0.0044 -4.26e-4,-0.0044 -4.26e-4,-0.0044 -5.32e-4,-0.0044 -6.39e-4,-0.0042 -5.32e-4,-0.0044 -5.32e-4,-0.0042 -6.39e-4,-0.0042 -6.39e-4,-0.0044 -6.39e-4,-0.0042 -7.45e-4,-0.0041 -7.45e-4,-0.0044 -7.46e-4,-0.0042 -7.45e-4,-0.0041 -7.45e-4,-0.0042 -8.14e-4,-0.0041 -8.13e-4,-0.0042 -8.14e-4,-0.0041 -8.13e-4,-0.0042 -9.76e-4,-0.0041 -9.76e-4,-0.0041 -9.76e-4,-0.0041 -0.0011,-0.0044 -9.76e-4,-0.0039 -0.0011,-0.0041 -0.0011,-0.0041 -0.0011,-0.0041 -0.0011,-0.0041 -0.0013,-0.0041 -0.0011,-0.0041 -0.0013,-0.0039 -0.0011,-0.0041 -0.0013,-0.0041 -0.0013,-0.0041 -0.0011,-0.0039 -0.0014,-0.0041 -0.0014,-0.0041 -0.0014,-0.0039 -0.0013,-0.0039 -0.0015,-0.0039 -0.0015,-0.0041 -0.0014,-0.0039 -0.0014,-0.0038 -0.0016,-0.0039 -0.0015,-0.0041 -0.0015,-0.0038 -0.0017,-0.0038 -0.0016,-0.0038 -0.0015,-0.0038 -0.0017,-0.0039 -0.0017,-0.0038 -0.0017,-0.0038 -0.0016,-0.0038 -0.0018,-0.0037 -0.0017,-0.0038 -0.0018,-0.0037 -0.0018,-0.0037 -0.0018,-0.0038 -0.0018,-0.0038 -0.002,-0.0037 -0.002,-0.0036 -0.002,-0.0037 -0.002,-0.0037 -0.002,-0.0037 -0.002,-0.0035 -0.002,-0.0037 -0.002,-0.0036 -0.002,-0.0036 -0.0021,-0.0037 -0.002,-0.0035 -0.0021,-0.0037 -0.0022,-0.0036 -0.0021,-0.0035 -0.0021,-0.0035 -0.0022,-0.0036 -0.0022,-0.0034 -0.0022,-0.0035 -0.0022,-0.0035 -0.0022,-0.0035 -0.0024,-0.0034 -0.0022,-0.0035 -0.0024,-0.0035 -0.0024,-0.0033 -0.0024,-0.0034 -0.0024,-0.0034 -0.0024,-0.0035 -0.0024,-0.0033 -0.0024,-0.0033 -0.0024,-0.0033 -0.0025,-0.0034 -0.0025,-0.0033 -0.0024,-0.0033 -0.0025,-0.0033 -0.0025,-0.0033 -0.0027,-0.0032 -0.0027,-0.0032 -0.0027,-0.0032 -0.0025,-0.0033 -0.0027,-0.0031 -0.0028,-0.0032 -0.0027,-0.0031 -0.0027,-0.0032 -0.0028,-0.0031 -0.0027,-0.0032 -0.0028,-0.003 -0.0028,-0.0031 -0.0028,-0.0031 -0.0028,-0.003 -0.003,-0.003 -0.0028,-0.0031 -0.0028,-0.0028 -0.003,-0.003 -0.0028,-0.0028 -0.003,-0.0031 -0.003,-0.0028 -0.0028,-0.0028 -0.0031,-0.0028 -0.0031,-0.0028 -0.003,-0.0028 -0.003,-0.0028 -0.0031,-0.0028 -0.0031,-0.0027 -0.0031,-0.0028 -0.0032,-0.0028 -0.0031,-0.0027 -0.0031,-0.0028 -0.0032,-0.0027 -0.0032,-0.0028 -0.0032,-0.0024 -0.0032,-0.0028 -0.0033,-0.0025 -0.0032,-0.0025 -0.0033,-0.0027 -0.0033,-0.0025 -0.0032,-0.0025 -0.0034,-0.0024 -0.0032,-0.0027 -0.0035,-0.0024 -0.0033,-0.0025 -0.0033,-0.0024 -0.0034,-0.0024 -0.0034,-0.0024 -0.0034,-0.0024 -0.0034,-0.0024 -0.0034,-0.0022 -0.0035,-0.0024 -0.0034,-0.0022 -0.0035,-0.0022 -0.0035,-0.0024 -0.0034,-0.0022 -0.0036,-0.0022 -0.0035,-0.0021 -0.0036,-0.0021 -0.0035,-0.0022 -0.0035,-0.0021 -0.0037,-0.0021 -0.0035,-0.002 -0.0036,-0.0021 -0.0036,-0.002 -0.0037,-0.002 -0.0036,-0.002 -0.0036,-0.002 -0.0037,-0.002 -0.0037,-0.002 -0.0037,-0.002 -0.0037,-0.0018 -0.0037,-0.002 -0.0037,-0.0018 -0.0037,-0.002 -0.0037,-0.0017 -0.0038,-0.0018 -0.0038,-0.0018 -0.0037,-0.0017 -0.0039,-0.0017 -0.0037,-0.0017 -0.0038,-0.0016 -0.0038,-0.0017 -0.0039,-0.0016 -0.0038,-0.0016 -0.0038,-0.0016 -0.0039,-0.0015 -0.0039,-0.0016 -0.0038,-0.0015 -0.0041,-0.0015 -0.0038,-0.0014 -0.0041,-0.0015 -0.0038,-0.0014 -0.0041,-0.0014 -0.0039,-0.0014 -0.0039,-0.0013 -0.0041,-0.0014 -0.0039,-0.0013 -0.0039,-0.0013 -0.0041,-0.0011 -0.0041,-0.0013 -0.0041,-0.0011 -0.0041,-0.0011 -0.0041,-0.0011 -0.0041,-0.0011 -0.0041,-0.0011 -0.0041,-9.76e-4 -0.0041,-0.0011 -0.0041,-0.0011 -0.0041,-9.76e-4 -0.0041,-0.0011 -0.0041,-9.77e-4 -0.0041,-8.13e-4 -0.0041,-8.13e-4 -0.0042,-8.14e-4 -0.0041,-8.13e-4 -0.0042,-8.14e-4 -0.0041,-8.13e-4 -0.0044,-7.45e-4 -0.0041,-7.45e-4 -0.0042,-7.46e-4 -0.0042,-6.38e-4 -0.0042,-6.39e-4 -0.0042,-6.39e-4 -0.0044,-6.39e-4 -0.0042,-5.32e-4 -0.0042,-6.39e-4 -0.0044,-5.32e-4 -0.0044,-5.33e-4 -0.0044,-4.25e-4 -0.0042,-4.26e-4 -0.0045,-5.32e-4 -0.0044,-4.27e-4 -0.0044,-3.19e-4 -0.0044,-4.26e-4 -0.0045,-2.13e-4 -0.0044,-3.19e-4 -0.0045,-3.19e-4 -0.0044,-2.14e-4 -0.0045,-2.13e-4 -0.0045,-2.12e-4 -0.0045,-1.07e-4 -0.0046,-2.13e-4 -0.0044,-1.06e-4 h -0.0046 -0.0044 -0.0053 -10.510349 z m 10.521314,-0.902931 h 0.01011 l 0.01022,2.13e-4 0.01033,2.13e-4 0.01022,3.19e-4 0.01011,3.19e-4 0.01011,4.27e-4 0.01022,4.26e-4 0.01011,5.32e-4 0.01011,6.38e-4 0.01011,6.39e-4 0.01011,8.13e-4 0.01011,7.45e-4 0.01,7.46e-4 0.01011,0.0011 0.01001,9.76e-4 0.01001,0.0011 0.01,0.0011 0.01001,0.0011 0.0099,0.0013 0.01001,0.0013 0.0099,0.0014 0.0099,0.0014 0.01,0.0015 0.0099,0.0016 0.0099,0.0016 0.0097,0.0016 0.0099,0.0018 0.0098,0.0018 0.0098,0.0017 0.0098,0.002 0.0097,0.002 0.0098,0.002 0.0097,0.002 0.0097,0.0021 0.0097,0.0022 0.0096,0.0022 0.0097,0.0024 0.0095,0.0024 0.0097,0.0025 0.0096,0.0024 0.0095,0.0025 0.0095,0.0027 0.0095,0.0025 0.0095,0.0028 0.0095,0.0028 0.0094,0.0028 0.0094,0.003 0.0094,0.0028 0.0094,0.0031 0.0094,0.003 0.0093,0.0031 0.0092,0.0032 0.0093,0.0032 0.0092,0.0033 0.0093,0.0033 0.0092,0.0034 0.009,0.0035 0.0092,0.0034 0.0091,0.0036 0.009,0.0035 0.009,0.0036 0.009,0.0037 0.0089,0.0038 0.0088,0.0038 0.0089,0.0038 0.0089,0.0039 0.0088,0.0039 0.0088,0.0041 0.0087,0.0041 0.0087,0.0041 0.0088,0.0041 0.0086,0.0041 0.0087,0.0044 0.0085,0.0044 0.0087,0.0042 0.0085,0.0045 0.0086,0.0045 0.0084,0.0045 0.0085,0.0047 0.0084,0.0046 0.0085,0.0047 0.0083,0.0047 0.0084,0.0048 0.0083,0.0048 0.0083,0.0049 0.0083,0.0049 0.0082,0.005 0.0082,0.005 0.0081,0.0051 0.0082,0.0051 0.0081,0.0051 0.0081,0.0052 0.008,0.0052 0.008,0.0053 0.008,0.0053 0.0079,0.0054 0.0079,0.0055 0.0079,0.0054 0.0079,0.0055 0.0078,0.0055 0.0078,0.0058 0.0076,0.0056 0.0076,0.0056 0.0076,0.0058 0.0076,0.0058 0.0076,0.0059 0.0075,0.0059 0.0075,0.0059 0.0075,0.0061 0.0075,0.0059 0.0075,0.0062 0.0072,0.0061 0.0073,0.0062 0.0072,0.0062 0.0073,0.0062 0.0072,0.0064 0.0072,0.0063 0.0072,0.0063 0.0072,0.0065 0.007,0.0064 0.0069,0.0064 0.007,0.0066 0.0069,0.0066 0.0069,0.0065 0.0068,0.0068 0.0068,0.0066 0.0067,0.0066 0.0068,0.0068 0.0067,0.0068 0.0066,0.0069 0.0066,0.0068 0.0065,0.0069 0.0066,0.007 0.0065,0.007 0.0063,0.0069 0.0065,0.0072 0.0064,0.0072 0.0062,0.0072 0.0063,0.0072 0.0064,0.0073 0.0062,0.0072 0.0061,0.0073 0.0061,0.0073 0.0061,0.0073 0.0061,0.0075 0.0059,0.0075 0.0059,0.0076 0.0059,0.0075 0.0059,0.0076 0.0058,0.0076 0.0058,0.0076 0.0058,0.0076 0.0056,0.0078 0.0056,0.0078 0.0054,0.0078 0.0056,0.0078 0.0055,0.0079 0.0054,0.0079 0.0054,0.008 0.0053,0.0079 0.0052,0.008 0.0053,0.0081 0.0051,0.0079 0.0052,0.0083 0.0052,0.0081 0.005,0.0081 0.005,0.0082 0.0049,0.0083 0.0049,0.0082 0.0049,0.0083 0.0049,0.0084 0.0047,0.0083 0.0048,0.0083 0.0047,0.0085 0.0047,0.0084 0.0045,0.0085 0.0046,0.0085 0.0045,0.0085 0.0045,0.0086 0.0044,0.0086 0.0042,0.0086 0.0042,0.0086 0.0042,0.0087 0.0041,0.0087 0.0041,0.0087 0.0041,0.0088 0.0041,0.0087 0.0039,0.0089 0.0039,0.0089 0.0038,0.0088 0.0038,0.0089 0.0037,0.0089 0.0037,0.0089 0.0036,0.009 0.0036,0.009 0.0036,0.009 0.0034,0.009 0.0035,0.0093 0.0033,0.009 0.0034,0.0092 0.0033,0.0093 0.0032,0.0094 0.0031,0.0092 0.0032,0.0093 0.0031,0.0093 0.0028,0.0095 0.003,0.0093 0.0028,0.0094 0.0028,0.0095 0.0028,0.0095 0.0027,0.0094 0.0028,0.0095 0.0025,0.0096 0.0024,0.0096 0.0025,0.0094 0.0024,0.0097 0.0024,0.0097 0.0022,0.0095 0.0024,0.0096 0.0021,0.0097 0.0022,0.0097 0.002,0.0098 0.002,0.0097 0.002,0.0097 0.002,0.0099 0.0018,0.0097 0.0018,0.0098 0.0018,0.0099 0.0016,0.0098 0.0016,0.0099 0.0015,0.0098 0.0015,0.01 0.0015,0.0099 0.0014,0.0099 0.0011,0.0099 0.0013,0.01011 0.0011,0.0098 0.0011,0.01011 0.0011,0.01011 9.76e-4,0.01001 9.76e-4,0.01011 8.14e-4,0.01001 7.45e-4,0.01001 7.45e-4,0.01022 6.39e-4,0.01001 6.39e-4,0.01011 5.32e-4,0.01022 5.33e-4,0.01011 4.25e-4,0.01022 3.2e-4,0.01011 3.18e-4,0.01022 2.14e-4,0.01011 2.13e-4,0.01033 v 0.01022 0.0095 10.513117 0.0095 0.01023 l -1.07e-4,0.01032 -2.13e-4,0.01023 -3.19e-4,0.0101 -3.2e-4,0.0101 -4.26e-4,0.01023 -5.32e-4,0.01011 -5.32e-4,0.01022 -6.39e-4,0.01003 -6.39e-4,0.01018 -7.45e-4,0.0101 -8.13e-4,0.01003 -7.45e-4,0.0101 -0.0011,0.01014 -9.76e-4,0.0099 -9.76e-4,0.0101 -0.0011,0.0101 -0.0011,0.0098 -0.0013,0.0101 -0.0011,0.0099 -0.0014,0.0099 -0.0015,0.01003 -0.0015,0.0099 -0.0015,0.0098 -0.0017,0.01002 -0.0016,0.0097 -0.0018,0.0099 -0.0017,0.0099 -0.0018,0.0097 -0.002,0.0098 -0.002,0.0097 -0.002,0.0097 -0.002,0.0098 -0.0021,0.0097 -0.0022,0.0097 -0.0022,0.0097 -0.0022,0.0095 -0.0024,0.0096 -0.0024,0.0096 -0.0025,0.0095 -0.0024,0.0095 -0.0027,0.0096 -0.0027,0.0096 -0.0027,0.0094 -0.0028,0.0094 -0.0028,0.0095 -0.0028,0.0095 -0.003,0.0092 -0.003,0.0094 -0.003,0.0093 -0.0032,0.0093 -0.0031,0.0092 -0.0033,0.0091 -0.0032,0.0093 -0.0034,0.0092 -0.0033,0.0092 -0.0035,0.0092 -0.0035,0.0091 -0.0035,0.009 -0.0036,0.0091 -0.0037,0.0089 -0.0037,0.0089 -0.0037,0.0091 -0.0037,0.0088 -0.0041,0.0089 -0.0038,0.0089 -0.0039,0.0089 -0.0041,0.0088 -0.0041,0.0089 -0.0041,0.0087 -0.0041,0.0087 -0.0042,0.0086 -0.0042,0.0087 -0.0042,0.0086 -0.0045,0.0086 -0.0044,0.0086 -0.0045,0.0085 -0.0046,0.0085 -0.0046,0.0085 -0.0046,0.0084 -0.0047,0.0084 -0.0047,0.0084 -0.0048,0.0083 -0.0049,0.0084 -0.0049,0.0083 -0.0049,0.0082 -0.0049,0.0082 -0.005,0.0083 -0.005,0.0081 -0.0052,0.0082 -0.0052,0.0081 -0.0052,0.008 -0.0051,0.0081 -0.0053,0.008 -0.0053,0.0079 -0.0054,0.008 -0.0054,0.0079 -0.0055,0.0079 -0.0055,0.0078 -0.0055,0.0077 -0.0058,0.0078 -0.0056,0.0078 -0.0056,0.0076 -0.0058,0.0078 -0.0058,0.0076 -0.0059,0.0076 -0.0059,0.0076 -0.0059,0.0075 -0.0059,0.0076 -0.0061,0.0073 -0.0061,0.0073 -0.0061,0.0075 -0.0062,0.0072 -0.0062,0.0072 -0.0062,0.0073 -0.0063,0.0072 -0.0063,0.007 -0.0064,0.0072 -0.0064,0.007 -0.0065,0.0071 -0.0064,0.0069 -0.0066,0.007 -0.0065,0.0069 -0.0066,0.0068 -0.0067,0.0069 -0.0066,0.0068 -0.0068,0.0068 -0.0067,0.0067 -0.0068,0.0067 -0.0069,0.0067 -0.0069,0.0066 -0.0068,0.0065 -0.007,0.0065 -0.007,0.0065 -0.0069,0.0065 -0.0072,0.0065 -0.0072,0.0063 -0.0072,0.0063 -0.0072,0.0063 -0.0072,0.0063 -0.0073,0.0061 -0.0072,0.0062 -0.0073,0.0062 -0.0075,0.0061 -0.0075,0.0059 -0.0073,0.006 -0.0076,0.0059 -0.0076,0.0059 -0.0076,0.0059 -0.0076,0.0058 -0.0076,0.0059 -0.0076,0.0056 -0.0078,0.0057 -0.0076,0.0057 -0.0078,0.0055 -0.0079,0.0055 -0.0079,0.0054 -0.0078,0.0054 -0.008,0.0055 -0.008,0.0052 -0.008,0.0053 -0.0081,0.0053 -0.0081,0.005 -0.008,0.0052 -0.0081,0.0051 -0.0082,0.005 -0.0082,0.005 -0.0082,0.0051 -0.0083,0.0048 -0.0083,0.0049 -0.0083,0.0048 -0.0084,0.0048 -0.0083,0.0046 -0.0084,0.0047 -0.0085,0.0047 -0.0085,0.0046 -0.0084,0.0045 -0.0086,0.0045 -0.0086,0.0044 -0.0085,0.0045 -0.0087,0.0044 -0.0086,0.0044 -0.0086,0.0041 -0.0088,0.0043 -0.0087,0.0041 -0.0087,0.0041 -0.0089,0.0041 -0.0087,0.004 -0.0088,0.004 -0.009,0.0038 -0.0089,0.0038 -0.0089,0.0037 -0.0089,0.0037 -0.009,0.0036 -0.009,0.0036 -0.009,0.0035 -0.009,0.0035 -0.0092,0.0034 -0.0092,0.0034 -0.0092,0.0034 -0.0093,0.0032 -0.0093,0.0032 -0.0093,0.0033 -0.0093,0.003 -0.0093,0.0031 -0.0094,0.0029 -0.0094,0.003 -0.0095,0.0028 -0.0094,0.0028 -0.0094,0.0028 -0.0095,0.0027 -0.0095,0.0027 -0.0096,0.0027 -0.0095,0.0025 -0.0096,0.0024 -0.0095,0.0024 -0.0097,0.0024 -0.0096,0.0024 -0.0097,0.0023 -0.0096,0.0022 -0.0098,0.0021 -0.0097,0.0022 -0.0097,0.002 -0.0097,0.002 -0.0098,0.002 -0.0098,0.0019 -0.0098,0.0018 -0.0099,0.0017 -0.0098,0.0017 -0.0099,0.0016 -0.0099,0.0015 -0.0099,0.0015 -0.0099,0.0015 -0.0099,0.0013 -0.01001,0.0014 -0.0099,0.0011 -0.01011,0.0012 -0.01,0.0011 -0.0099,0.0011 -0.01011,9.76e-4 -0.01001,9.76e-4 -0.01011,7.08e-4 -0.01,8.94e-4 -0.01022,7.49e-4 -0.01001,6.24e-4 -0.01023,6.65e-4 -0.01001,6.24e-4 -0.01022,4.16e-4 -0.01011,4.16e-4 -0.01022,3.33e-4 -0.01022,3.32e-4 -0.01011,2.08e-4 -0.01033,8.4e-5 -0.01022,1.24e-4 h -0.0095 -10.513223 l -0.0096,-1.24e-4 h -0.01022 l -0.01023,-2.09e-4 -0.01022,-2.08e-4 -0.01011,-2.91e-4 -0.01022,-3.33e-4 -0.01011,-4.15e-4 -0.01022,-4.58e-4 -0.01011,-6.23e-4 -0.01022,-6.24e-4 -0.01,-5.41e-4 -0.01011,-8.95e-4 -0.01011,-8.14e-4 -0.01001,-7.48e-4 -0.01,-9.76e-4 -0.01011,-9.76e-4 -0.01001,-0.0011 -0.01,-0.0011 -0.01,-0.0011 -0.01001,-0.0012 -0.0099,-0.0013 -0.01001,-0.0014 -0.0098,-0.0015 -0.0099,-0.0015 -0.01001,-0.0015 -0.0098,-0.0015 -0.0099,-0.0017 -0.0098,-0.0017 -0.0098,-0.0017 -0.0098,-0.0019 -0.0098,-0.002 -0.0098,-0.002 -0.0097,-0.002 -0.0097,-0.0021 -0.0097,-0.0021 -0.0097,-0.0023 -0.0096,-0.0023 -0.0096,-0.0023 -0.0097,-0.0024 -0.0096,-0.0024 -0.0095,-0.0024 -0.0096,-0.0026 -0.0095,-0.0027 -0.0096,-0.0025 -0.0093,-0.0028 -0.0096,-0.0028 -0.0094,-0.0028 -0.0094,-0.0028 -0.0094,-0.003 -0.0094,-0.003 -0.0093,-0.0029 -0.0094,-0.0031 -0.0093,-0.0032 -0.0092,-0.0032 -0.0093,-0.0033 -0.0092,-0.0034 -0.0092,-0.0033 -0.0092,-0.0034 -0.0092,-0.0036 -0.009,-0.0034 -0.009,-0.0037 -0.009,-0.0035 -0.0088,-0.0037 -0.009,-0.0038 -0.0088,-0.0038 -0.0089,-0.0038 -0.0089,-0.004 -0.0087,-0.0039 -0.0089,-0.0041 -0.0088,-0.0041 -0.0087,-0.0041 -0.0086,-0.0041 -0.0088,-0.0041 -0.0086,-0.0043 -0.0087,-0.0044 -0.0085,-0.0044 -0.0085,-0.0044 -0.0086,-0.0045 -0.0085,-0.0045 -0.0085,-0.0047 -0.0084,-0.0046 -0.0084,-0.0047 -0.0084,-0.0048 -0.0084,-0.0048 -0.0083,-0.0048 -0.0082,-0.0049 -0.0083,-0.0048 -0.0082,-0.005 -0.0082,-0.0051 -0.0082,-0.005 -0.0081,-0.0051 -0.0081,-0.0051 -0.0081,-0.0052 -0.008,-0.0052 -0.0081,-0.0053 -0.0079,-0.0053 -0.008,-0.0055 -0.0078,-0.0054 -0.008,-0.0055 -0.0078,-0.0055 -0.0078,-0.0055 -0.0078,-0.0055 -0.0076,-0.0058 -0.0078,-0.0057 -0.0076,-0.0059 -0.0075,-0.0056 -0.0076,-0.006 -0.0076,-0.0059 -0.0075,-0.0059 -0.0075,-0.0061 -0.0073,-0.006 -0.0075,-0.0061 -0.0073,-0.0061 -0.0073,-0.0062 -0.0072,-0.0062 -0.0072,-0.0063 -0.0072,-0.0062 -0.0072,-0.0063 -0.007,-0.0064 -0.0072,-0.0065 -0.0072,-0.0065 -0.0069,-0.0064 -0.007,-0.0065 -0.0069,-0.0066 -0.0068,-0.0066 -0.0068,-0.0066 -0.0068,-0.0067 -0.0068,-0.0067 -0.0068,-0.0068 -0.0067,-0.0068 -0.0067,-0.0069 -0.0065,-0.0068 -0.0066,-0.0069 -0.0065,-0.0069 -0.0065,-0.007 -0.0064,-0.007 -0.0063,-0.0072 -0.0064,-0.007 -0.0063,-0.0072 -0.0063,-0.0071 -0.0062,-0.0072 -0.0063,-0.0072 -0.0061,-0.0073 -0.0062,-0.0073 -0.006,-0.0075 -0.006,-0.0073 -0.006,-0.0075 -0.0059,-0.0075 -0.0059,-0.0076 -0.0059,-0.0076 -0.0059,-0.0076 -0.0058,-0.0076 -0.0057,-0.0076 -0.0057,-0.0078 -0.0056,-0.0077 -0.0055,-0.0079 -0.0056,-0.0078 -0.0054,-0.0078 -0.0054,-0.008 -0.0055,-0.0079 -0.0052,-0.008 -0.0053,-0.0079 -0.0053,-0.0081 -0.0052,-0.008 -0.0052,-0.0082 -0.005,-0.0082 -0.0051,-0.0081 -0.005,-0.0082 -0.005,-0.0082 -0.005,-0.0083 -0.0048,-0.0083 -0.0048,-0.0083 -0.0048,-0.0084 -0.0047,-0.0083 -0.0046,-0.0085 -0.0046,-0.0084 -0.0046,-0.0085 -0.0046,-0.0084 -0.0045,-0.0086 -0.0045,-0.0086 -0.0044,-0.0085 -0.0042,-0.0086 -0.0043,-0.0087 -0.0042,-0.0087 -0.0041,-0.0086 -0.0041,-0.0089 -0.0041,-0.0088 -0.0041,-0.0089 -0.004,-0.0088 -0.0039,-0.0089 -0.0037,-0.0089 -0.0038,-0.0089 -0.0037,-0.0089 -0.0037,-0.0089 -0.0037,-0.0091 -0.0036,-0.0089 -0.0035,-0.0092 -0.0035,-0.009 -0.0034,-0.0092 -0.0034,-0.0093 -0.0033,-0.0092 -0.0033,-0.0092 -0.0032,-0.0091 -0.0032,-0.0094 -0.0031,-0.0093 -0.003,-0.0092 -0.003,-0.0095 -0.0029,-0.0093 -0.0028,-0.0094 -0.0028,-0.0095 -0.0028,-0.0095 -0.0027,-0.0094 -0.0027,-0.0096 -0.0026,-0.0094 -0.0026,-0.0096 -0.0025,-0.0095 -0.0024,-0.0096 -0.0024,-0.0097 -0.0023,-0.0095 -0.0023,-0.0097 -0.0022,-0.0097 -0.0022,-0.0097 -0.002,-0.0097 -0.002,-0.0097 -0.002,-0.0098 -0.0019,-0.0098 -0.0019,-0.0098 -0.0017,-0.0098 -0.0017,-0.0098 -0.0017,-0.0099 -0.0016,-0.0098 -0.0015,-0.0099 -0.0015,-0.0099 -0.0015,-0.0099 -0.0014,-0.01002 -0.0012,-0.0099 -0.0013,-0.01 -0.0011,-0.0099 -0.0011,-0.0101 -0.0011,-0.01 -9.76e-4,-0.01003 -9.76e-4,-0.0101 -7.89e-4,-0.01002 -8.13e-4,-0.01011 -7.87e-4,-0.01002 -5.75e-4,-0.01018 -7.14e-4,-0.01003 -5e-4,-0.01022 -5e-4,-0.01023 -4.15e-4,-0.01011 -2.88e-4,-0.01023 -2.87e-4,-0.0101 -2.99e-4,-0.01032 -1.17e-4,-0.01022 -1.28e-4,-0.01023 v -0.0094 -10.513032 l 1.28e-4,-0.0096 3.2e-5,-0.01023 2.13e-4,-0.01022 2.13e-4,-0.01022 2.88e-4,-0.01022 3.29e-4,-0.01011 4.16e-4,-0.01011 4.57e-4,-0.01022 5.86e-4,-0.01011 6.17e-4,-0.01011 6.29e-4,-0.01011 8.13e-4,-0.01011 7.88e-4,-0.01011 7.56e-4,-0.01011 9.76e-4,-0.01001 8.95e-4,-0.01011 0.0011,-0.0099 0.0011,-0.01011 0.0011,-0.01001 0.0012,-0.0099 0.0013,-0.01001 0.0014,-0.0099 0.0014,-0.0099 0.0015,-0.0099 0.0015,-0.0099 0.0015,-0.0099 0.0017,-0.0098 0.0017,-0.0099 0.0018,-0.0098 0.0018,-0.0097 0.0019,-0.0099 0.002,-0.0097 0.002,-0.0097 0.0021,-0.0097 0.0021,-0.0097 0.0023,-0.0097 0.0022,-0.0096 0.0024,-0.0097 0.0024,-0.0096 0.0025,-0.0096 0.0024,-0.0096 0.0025,-0.0095 0.0026,-0.0095 0.0027,-0.0096 0.0027,-0.0094 0.0028,-0.0095 0.0028,-0.0094 0.0029,-0.0094 0.0029,-0.0095 0.003,-0.0093 0.0031,-0.0094 0.003,-0.0092 0.0033,-0.0094 0.0032,-0.0093 0.0033,-0.0092 0.0033,-0.0093 0.0034,-0.0092 0.0034,-0.009 0.0034,-0.0092 0.0035,-0.009 0.0037,-0.009 0.0036,-0.0089 0.0037,-0.0089 0.0037,-0.009 0.0038,-0.0089 0.0039,-0.0089 0.004,-0.0088 0.0039,-0.0088 0.0041,-0.0088 0.0041,-0.0088 0.0041,-0.0087 0.0041,-0.0088 0.0042,-0.0086 0.0043,-0.0086 0.0043,-0.0086 0.0044,-0.0086 0.0045,-0.0086 0.0045,-0.0085 0.0046,-0.0085 0.0046,-0.0085 0.0046,-0.0084 0.0046,-0.0084 0.0048,-0.0084 0.0048,-0.0084 0.0048,-0.0083 0.0048,-0.0083 0.005,-0.0082 0.005,-0.0082 0.005,-0.0082 0.005,-0.0083 0.0051,-0.0081 0.0052,-0.0081 0.0051,-0.0081 0.0052,-0.0079 0.0054,-0.0081 0.0053,-0.0079 0.0054,-0.008 0.0054,-0.0079 0.0055,-0.0079 0.0055,-0.0078 0.0055,-0.0079 0.0056,-0.0076 0.0057,-0.0076 0.0057,-0.0076 0.0057,-0.0076 0.0059,-0.0076 0.0058,-0.0076 0.0059,-0.0076 0.006,-0.0075 0.006,-0.0075 0.0059,-0.0075 0.0061,-0.0073 0.0062,-0.0073 0.0062,-0.0072 0.0062,-0.0073 0.0063,-0.0072 0.0063,-0.0072 0.0063,-0.0072 0.0063,-0.0072 0.0064,-0.007 0.0064,-0.007 0.0064,-0.007 0.0066,-0.007 0.0066,-0.0069 0.0066,-0.0068 0.0066,-0.0068 0.0067,-0.0069 0.0067,-0.0067 0.0068,-0.0067 0.0069,-0.0067 0.0068,-0.0066 0.0068,-0.0066 0.0069,-0.0066 0.007,-0.0065 0.0069,-0.0065 0.0072,-0.0065 0.0072,-0.0063 0.007,-0.0065 0.0072,-0.0063 0.0072,-0.0063 0.0072,-0.0062 0.0072,-0.0062 0.0073,-0.0062 0.0073,-0.0062 0.0073,-0.0059 0.0075,-0.0059 0.0075,-0.0059 0.0076,-0.0061 0.0075,-0.0059 0.0076,-0.0058 0.0076,-0.0059 0.0076,-0.0058 0.0076,-0.0056 0.0078,-0.0058 0.0076,-0.0055 0.0079,-0.0055 0.0078,-0.0056 0.0079,-0.0055 0.0079,-0.0054 0.008,-0.0053 0.0079,-0.0054 0.008,-0.0052 0.0081,-0.0053 0.0081,-0.0052 0.008,-0.0051 0.0082,-0.0051 0.0082,-0.0051 0.0081,-0.0049 0.0083,-0.005 0.0082,-0.005 0.0083,-0.0048 0.0084,-0.0048 0.0083,-0.0048 0.0084,-0.0048 0.0084,-0.0047 0.0084,-0.0046 0.0085,-0.0046 0.0086,-0.0046 0.0085,-0.0045 0.0084,-0.0044 0.0087,-0.0045 0.0086,-0.0042 0.0086,-0.0042 0.0087,-0.0042 0.0087,-0.0041 0.0087,-0.0041 0.0088,-0.0041 0.0088,-0.0041 0.0088,-0.0039 0.0089,-0.0039 0.0088,-0.0038 0.0089,-0.0038 0.0089,-0.0037 0.0089,-0.0038 0.009,-0.0036 0.009,-0.0035 0.009,-0.0035 0.0092,-0.0036 0.0092,-0.0034 0.0092,-0.0033 0.0092,-0.0034 0.0092,-0.0033 0.0093,-0.0032 0.0094,-0.0031 0.0092,-0.0032 0.0094,-0.003 0.0094,-0.003 0.0093,-0.003 0.0095,-0.0028 0.0094,-0.0028 0.0095,-0.0028 0.0094,-0.0028 0.0095,-0.0025 0.0096,-0.0027 0.0095,-0.0025 0.0096,-0.0024 0.0096,-0.0024 0.0096,-0.0024 0.0096,-0.0022 0.0097,-0.0022 0.0097,-0.0022 0.0097,-0.0021 0.0097,-0.0021 0.0097,-0.002 0.0098,-0.002 0.0098,-0.002 0.0097,-0.002 0.0099,-0.0017 0.0098,-0.0017 0.0098,-0.0017 0.0099,-0.0016 0.0099,-0.0015 0.0099,-0.0015 0.0099,-0.0015 0.01,-0.0014 0.0099,-0.0011 0.01,-0.0014 0.01,-0.0011 0.0099,-0.0011 0.01,-0.0011 0.01011,-9.76e-4 0.01011,-9.76e-4 0.01,-7.45e-4 0.01011,-8.14e-4 0.01011,-7.46e-4 0.01011,-6.38e-4 0.01011,-6.39e-4 0.01011,-5.32e-4 0.01022,-5.32e-4 0.01001,-4.26e-4 0.01022,-3.2e-4 0.01022,-2.13e-4 0.01032,-3.19e-4 0.01011,-1.06e-4 0.01022,-1.07e-4 0.0096,-1.06e-4 h 10.513117 0.0096 l -1.06e-4,2.13e-4"
       style="display:inline;fill:#ff0000;fill-opacity:1;fill-rule:evenodd;stroke:none;stroke-width:0.0106465"
       id="path4009" />
    <path
       d="m 55.101461,70.470832 12.464198,-3.482114 -0.229646,-0.89402 -12.463879,3.482156 0.229327,0.893978 v 0"
       style="fill:#ff0000;fill-opacity:1;fill-rule:nonzero;stroke:none;stroke-width:0.0106465"
       id="path4011" />
  </g>
  <g
     inkscape:label="F.Mask"
     inkscape:groupmode="layer"
     id="g3839">
    <path
       d="m 55.955525,58.929687 h -0.0098 l -0.0045,1.07e-4 -0.0045,1.06e-4 -0.0046,1.07e-4 -0.0045,2.12e-4 -0.0045,1.07e-4 -0.0044,3.19e-4 -0.0045,2.13e-4 -0.0044,2.13e-4 -0.0045,3.19e-4 -0.0044,3.2e-4 -0.0045,4.26e-4 -0.0044,3.19e-4 -0.0044,4.26e-4 -0.0044,4.26e-4 -0.0042,4.26e-4 -0.0044,4.26e-4 -0.0044,6.38e-4 -0.0044,4.26e-4 -0.0042,6.39e-4 -0.0044,6.39e-4 -0.0042,5.32e-4 -0.0042,6.39e-4 -0.0042,7.45e-4 -0.0044,6.39e-4 -0.0041,7.46e-4 -0.0042,6.38e-4 -0.0042,8.14e-4 -0.0041,8.13e-4 -0.0042,7.45e-4 -0.0041,8.14e-4 -0.0042,8.13e-4 -0.0041,8.13e-4 -0.0042,9.77e-4 -0.0041,9.76e-4 -0.0041,0.0011 -0.0041,9.76e-4 -0.0041,9.76e-4 -0.0041,0.0011 -0.0041,0.0011 -0.0041,0.0011 -0.0041,0.0011 -0.0041,0.0011 -0.0041,0.0011 -0.0041,0.0011 -0.0041,0.0013 -0.0041,0.0011 -0.0041,0.0014 -0.0039,0.0011 -0.0041,0.0014 -0.0039,0.0014 -0.0039,0.0014 -0.0041,0.0013 -0.0039,0.0015 -0.0039,0.0014 -0.0039,0.0015 -0.0039,0.0015 -0.0039,0.0014 -0.0038,0.0017 -0.0039,0.0015 -0.0039,0.0016 -0.0038,0.0015 -0.0038,0.0017 -0.0038,0.0016 -0.0038,0.0017 -0.0038,0.0017 -0.0038,0.0016 -0.0038,0.0018 -0.0037,0.0017 -0.0038,0.002 -0.0038,0.0017 -0.0037,0.0018 -0.0037,0.0018 -0.0037,0.002 -0.0038,0.002 -0.0037,0.0018 -0.0036,0.002 -0.0037,0.002 -0.0036,0.002 -0.0036,0.002 -0.0037,0.0021 -0.0035,0.002 -0.0037,0.002 -0.0036,0.002 -0.0035,0.0022 -0.0037,0.0021 -0.0036,0.0021 -0.0034,0.0022 -0.0036,0.0022 -0.0035,0.0021 -0.0035,0.0022 -0.0035,0.0022 -0.0034,0.0022 -0.0035,0.0024 -0.0035,0.0024 -0.0034,0.0024 -0.0034,0.0022 -0.0034,0.0024 -0.0034,0.0024 -0.0034,0.0025 -0.0033,0.0024 -0.0034,0.0024 -0.0033,0.0024 -0.0034,0.0027 -0.0032,0.0024 -0.0034,0.0027 -0.0032,0.0024 -0.0033,0.0027 -0.0032,0.0025 -0.0033,0.0025 -0.0031,0.0027 -0.0033,0.0028 -0.0031,0.0025 -0.0032,0.0028 -0.0032,0.0028 -0.0031,0.0027 -0.0031,0.0028 -0.0031,0.0028 -0.0032,0.0028 -0.003,0.0028 -0.0031,0.0028 -0.0031,0.0028 -0.003,0.0028 -0.003,0.0028 -0.003,0.0028 -0.003,0.003 -0.0028,0.003 -0.003,0.0028 -0.0028,0.003 -0.003,0.003 -0.0028,0.003 -0.0028,0.0031 -0.0028,0.003 -0.0028,0.003 -0.0028,0.0031 -0.0028,0.0032 -0.0028,0.0031 -0.0028,0.0031 -0.0028,0.0031 -0.0028,0.0032 -0.0027,0.0031 -0.0025,0.0032 -0.0028,0.0033 -0.0027,0.0031 -0.0025,0.0033 -0.0025,0.0032 -0.0027,0.0033 -0.0025,0.0033 -0.0025,0.0033 -0.0024,0.0032 -0.0025,0.0035 -0.0024,0.0033 -0.0024,0.0033 -0.0024,0.0034 -0.0025,0.0033 -0.0024,0.0034 -0.0024,0.0034 -0.0022,0.0034 -0.0024,0.0034 -0.0024,0.0036 -0.0022,0.0034 -0.0022,0.0034 -0.0024,0.0035 -0.0022,0.0035 -0.0021,0.0035 -0.0022,0.0035 -0.0021,0.0037 -0.0021,0.0035 -0.0021,0.0036 -0.0022,0.0035 -0.002,0.0036 -0.002,0.0037 -0.002,0.0035 -0.0021,0.0037 -0.002,0.0037 -0.002,0.0035 -0.002,0.0037 -0.002,0.0036 -0.002,0.0037 -0.0018,0.0038 -0.002,0.0037 -0.0018,0.0037 -0.0018,0.0038 -0.002,0.0037 -0.0017,0.0037 -0.0017,0.0038 -0.0017,0.0037 -0.0018,0.0038 -0.0016,0.0039 -0.0017,0.0038 -0.0016,0.0038 -0.0017,0.0038 -0.0016,0.0039 -0.0015,0.0038 -0.0016,0.0039 -0.0016,0.0038 -0.0014,0.0039 -0.0015,0.0038 -0.0015,0.0041 -0.0014,0.0039 -0.0015,0.0039 -0.0014,0.0041 -0.0013,0.0039 -0.0014,0.0039 -0.0014,0.0041 -0.0013,0.0039 -0.0013,0.0039 -0.0011,0.0041 -0.0013,0.0041 -0.0011,0.0041 -0.0011,0.0041 -0.0011,0.0041 -0.0011,0.0041 -0.0011,0.0041 -0.0011,0.0041 -0.0011,0.0041 -0.0011,0.0041 -9.76e-4,0.0041 -9.76e-4,0.0041 -9.76e-4,0.0041 -9.76e-4,0.0041 -8.14e-4,0.0041 -8.13e-4,0.0042 -8.14e-4,0.0041 -8.13e-4,0.0042 -7.45e-4,0.0041 -8.14e-4,0.0041 -7.45e-4,0.0044 -6.39e-4,0.0041 -7.45e-4,0.0044 -6.39e-4,0.0042 -6.38e-4,0.0042 -6.4e-4,0.0042 -5.32e-4,0.0044 -6.38e-4,0.0042 -4.26e-4,0.0044 -6.39e-4,0.0044 -4.26e-4,0.0044 -4.26e-4,0.0044 -4.26e-4,0.0044 -4.25e-4,0.0044 -4.27e-4,0.0042 -3.19e-4,0.0045 -3.19e-4,0.0044 -3.2e-4,0.0045 -3.19e-4,0.0045 -1.06e-4,0.0044 -3.2e-4,0.0044 -1.07e-4,0.0046 -2.12e-4,0.0044 -1.06e-4,0.0046 v 0.0045 0.0045 0.0046 0.0052 10.510125 0.0053 0.0044 l 1.06e-4,0.0046 v 0.0045 l 2.12e-4,0.0046 1.07e-4,0.0045 2.13e-4,0.0044 2.13e-4,0.0045 2.13e-4,0.0044 2.13e-4,0.0045 3.19e-4,0.0045 3.2e-4,0.0044 4.25e-4,0.0045 3.2e-4,0.0044 4.26e-4,0.0044 4.26e-4,0.0044 4.25e-4,0.0044 5.33e-4,0.0043 5.32e-4,0.0044 5.32e-4,0.0044 5.33e-4,0.0042 6.38e-4,0.0042 6.39e-4,0.0044 5.33e-4,0.0043 7.45e-4,0.0044 6.38e-4,0.0041 7.46e-4,0.0044 7.45e-4,0.0041 7.46e-4,0.0044 8.13e-4,0.0041 7.45e-4,0.0041 9.76e-4,0.0042 8.14e-4,0.0041 8.13e-4,0.0041 9.76e-4,0.0042 8.14e-4,0.0041 0.0011,0.0041 9.76e-4,0.0041 0.0011,0.0041 9.76e-4,0.0041 0.0011,0.0041 9.76e-4,0.0041 0.0011,0.0041 0.0011,0.0041 0.0011,0.0041 0.0011,0.004 0.0013,0.0041 0.0011,0.004 0.0013,0.0041 0.0013,0.0041 0.0013,0.004 0.0014,0.0041 0.0014,0.004 0.0014,0.0041 0.0014,0.004 0.0015,0.0039 0.0014,0.004 0.0015,0.004 0.0016,0.0038 0.0015,0.004 0.0015,0.0039 0.0016,0.004 0.0016,0.0038 0.0016,0.0038 0.0017,0.0039 0.0016,0.0039 0.0017,0.0037 0.0018,0.0038 0.0016,0.0038 0.0018,0.0037 0.0018,0.0037 0.0017,0.0039 0.002,0.0038 0.0018,0.0037 0.002,0.0037 0.002,0.0037 0.0018,0.0036 0.002,0.0037 0.002,0.0037 0.002,0.0036 0.002,0.0037 0.002,0.0037 0.0021,0.0037 0.002,0.0035 0.0021,0.0036 0.0021,0.0037 0.0021,0.0036 0.0021,0.0035 0.0022,0.0035 0.0021,0.0036 0.0022,0.0035 0.0022,0.0035 0.0022,0.0035 0.0022,0.0034 0.0024,0.0035 0.0024,0.0035 0.0024,0.0034 0.0024,0.0033 0.0024,0.0035 0.0025,0.0034 0.0024,0.0034 0.0024,0.0033 0.0024,0.0034 0.0025,0.0033 0.0025,0.0034 0.0025,0.0032 0.0024,0.0033 0.0025,0.0033 0.0025,0.0033 0.0027,0.0032 0.0025,0.0033 0.0027,0.0031 0.0027,0.0033 0.0028,0.0032 0.0025,0.0031 0.0028,0.0032 0.0028,0.0031 0.0027,0.0032 0.0028,0.0031 0.0028,0.0031 0.0028,0.0031 0.0028,0.003 0.0028,0.0031 0.0028,0.0029 0.003,0.0031 0.0028,0.0029 0.0028,0.0029 0.003,0.0029 0.0028,0.003 0.003,0.0028 0.0031,0.0028 0.0028,0.0028 0.0031,0.0028 0.003,0.0028 0.0031,0.0028 0.0031,0.0028 0.0031,0.0028 0.0031,0.0028 0.0031,0.0028 0.0032,0.0027 0.0031,0.0028 0.0032,0.0027 0.0032,0.0027 0.0032,0.0027 0.0032,0.0026 0.0033,0.0028 0.0032,0.0024 0.0032,0.0027 0.0034,0.0026 0.0032,0.0025 0.0034,0.0024 0.0033,0.0025 0.0033,0.0024 0.0033,0.0024 0.0034,0.0024 0.0034,0.0024 0.0033,0.0024 0.0035,0.0024 0.0033,0.0024 0.0037,0.0024 0.0034,0.0024 0.0034,0.0024 0.0035,0.0022 0.0034,0.0024 0.0036,0.0023 0.0034,0.0023 0.0037,0.0021 0.0035,0.0021 0.0035,0.0023 0.0036,0.0021 0.0036,0.002 0.0036,0.0021 0.0037,0.0021 0.0036,0.002 0.0036,0.0021 0.0037,0.002 0.0036,0.002 0.0036,0.002 0.0037,0.002 0.0037,0.0018 0.0037,0.002 0.0037,0.002 0.0036,0.0019 0.0038,0.0018 0.0038,0.0018 0.0037,0.0018 0.0037,0.0019 0.0038,0.0015 0.0038,0.0018 0.0038,0.0017 0.0038,0.0015 0.0038,0.0017 0.0039,0.0016 0.0038,0.0015 0.0039,0.0015 0.0038,0.0015 0.0039,0.0016 0.0038,0.0014 0.0039,0.0015 0.0039,0.0015 0.0041,0.0015 0.0039,0.0014 0.0039,0.0014 0.0039,0.0013 0.0041,0.0014 0.0039,0.0014 0.0041,0.0013 0.0041,0.0013 0.0041,0.0011 0.0041,0.0013 0.0041,0.0011 0.0041,0.0011 0.0041,0.0011 0.0041,0.0011 0.0042,0.0011 0.0041,0.0011 0.0041,9.76e-4 0.0041,0.0011 0.0041,9.76e-4 0.0041,0.0011 0.0041,8.14e-4 0.0042,9.76e-4 0.0041,8.95e-4 0.0041,8.13e-4 0.0042,9.76e-4 0.0041,7.49e-4 0.0042,7.48e-4 0.0042,8.95e-4 0.0041,6.23e-4 0.0042,7.49e-4 0.0042,7.49e-4 0.0042,6.23e-4 0.0044,6.24e-4 0.0042,6.66e-4 0.0042,5.41e-4 0.0044,6.23e-4 0.0044,5.4e-4 0.0042,5.41e-4 0.0044,4.99e-4 0.0044,4.58e-4 0.0044,4.15e-4 0.0044,3.34e-4 0.0044,4.15e-4 0.0044,2.92e-4 0.0045,3.31e-4 0.0044,3.34e-4 0.0045,2.07e-4 0.0044,3.34e-4 0.0045,2.07e-4 0.0045,8.3e-5 0.0045,2.08e-4 0.0045,1.26e-4 h 0.0045 0.0046 0.0045 0.0052 10.510349 0.0053 0.0044 0.0046 l 0.0044,-1.26e-4 0.0046,-2.08e-4 0.0045,-8.3e-5 0.0045,-2.07e-4 0.0045,-2.51e-4 0.0044,-2.07e-4 0.0045,-2.08e-4 0.0044,-2.92e-4 0.0045,-3.31e-4 0.0044,-3.34e-4 0.0044,-4.15e-4 0.0044,-4.16e-4 0.0045,-4.58e-4 0.0042,-4.15e-4 0.0044,-4.17e-4 0.0044,-6.23e-4 0.0042,-4.58e-4 0.0044,-6.24e-4 0.0042,-5.4e-4 0.0044,-7.5e-4 0.0042,-4.98e-4 0.0042,-6.65e-4 0.0042,-7.49e-4 0.0042,-7.49e-4 0.0041,-6.23e-4 0.0042,-8.95e-4 0.0042,-7.07e-4 0.0042,-8.95e-4 0.0041,-8.13e-4 0.0042,-8.95e-4 0.0041,-9.76e-4 0.0041,-8.14e-4 0.0041,-9.76e-4 0.0041,-0.0011 0.0041,-8.95e-4 0.0041,-0.0011 0.0041,-0.0011 0.0041,-0.0011 0.0041,-0.0011 0.0041,-0.0011 0.0041,-0.0011 0.0041,-0.0011 0.0041,-0.0011 0.0041,-0.0014 0.0041,-0.0011 0.0041,-0.0012 0.0041,-0.0014 0.0041,-0.0013 0.0039,-0.0014 0.0039,-0.0014 0.0041,-0.0013 0.0038,-0.0015 0.0041,-0.0014 0.0038,-0.0015 0.0039,-0.0015 0.0039,-0.0014 0.0039,-0.0015 0.0039,-0.0016 0.0038,-0.0015 0.0038,-0.0015 0.0039,-0.0017 0.0038,-0.0015 0.0038,-0.0017 0.0037,-0.0017 0.0039,-0.0017 0.0037,-0.0017 0.0037,-0.0017 0.0039,-0.0019 0.0037,-0.0018 0.0037,-0.0019 0.0037,-0.002 0.0037,-0.0018 0.0037,-0.002 0.0037,-0.0019 0.0037,-0.002 0.0037,-0.002 0.0036,-0.002 0.0036,-0.002 0.0037,-0.002 0.0036,-0.0021 0.0036,-0.002 0.0037,-0.0021 0.0036,-0.0021 0.0035,-0.002 0.0035,-0.0023 0.0036,-0.0021 0.0035,-0.0021 0.0036,-0.0023 0.0034,-0.0023 0.0035,-0.0024 0.0035,-0.0023 0.0034,-0.0024 0.0035,-0.0023 0.0034,-0.0024 0.0034,-0.0024 0.0034,-0.0024 0.0034,-0.0024 0.0034,-0.0024 0.0034,-0.0024 0.0032,-0.0024 0.0034,-0.0024 0.0033,-0.0026 0.0034,-0.0024 0.0032,-0.0027 0.0033,-0.0024 0.0033,-0.0027 0.0032,-0.0026 0.0033,-0.0027 0.0032,-0.0027 0.0032,-0.0025 0.0032,-0.0028 0.0031,-0.0027 0.0032,-0.0027 0.0031,-0.0028 0.0031,-0.0028 0.0032,-0.0028 0.0031,-0.0027 0.0031,-0.003 0.003,-0.0028 0.003,-0.0028 0.0031,-0.0028 0.0031,-0.003 0.0028,-0.0028 0.003,-0.0028 0.003,-0.003 0.0028,-0.003 0.003,-0.0028 0.0028,-0.0029 0.0028,-0.003 0.0028,-0.0031 0.0028,-0.0028 0.0028,-0.0031 0.0028,-0.0032 0.0028,-0.003 0.0028,-0.0032 0.0028,-0.0031 0.0027,-0.0031 0.0027,-0.0031 0.0028,-0.0033 0.0025,-0.0031 0.0027,-0.0032 0.0027,-0.0033 0.0027,-0.0033 0.0025,-0.0031 0.0027,-0.0033 0.0025,-0.0032 0.0024,-0.0033 0.0025,-0.0033 0.0025,-0.0033 0.0024,-0.0033 0.0024,-0.0034 0.0024,-0.0033 0.0025,-0.0035 0.0024,-0.0034 0.0024,-0.0033 0.0022,-0.0034 0.0024,-0.0035 0.0022,-0.0034 0.0024,-0.0035 0.0022,-0.0035 0.0022,-0.0035 0.0022,-0.0034 0.0022,-0.0034 0.0022,-0.0036 0.0021,-0.0036 0.0021,-0.0035 0.0022,-0.0037 0.0021,-0.0036 0.002,-0.0037 0.0022,-0.0037 0.002,-0.0036 0.002,-0.0036 0.002,-0.0036 0.002,-0.0037 0.002,-0.0036 0.002,-0.0037 0.002,-0.0037 0.002,-0.0037 0.002,-0.0037 0.0018,-0.0037 0.0018,-0.0038 0.0018,-0.0038 0.0018,-0.0037 0.0017,-0.0038 0.0018,-0.0037 0.0016,-0.0039 0.0017,-0.0037 0.0017,-0.0038 0.0017,-0.0041 0.0015,-0.0037 0.0016,-0.0038 0.0017,-0.004 0.0015,-0.004 0.0015,-0.004 0.0016,-0.0039 0.0014,-0.004 0.0014,-0.0038 0.0015,-0.004 0.0015,-0.0041 0.0013,-0.004 0.0014,-0.004 0.0014,-0.004 0.0014,-0.004 0.0011,-0.004 0.0013,-0.0041 0.0013,-0.0041 0.0011,-0.0041 0.0011,-0.0041 0.0011,-0.0041 0.0013,-0.0041 0.0011,-0.004 0.0011,-0.0041 0.0011,-0.0042 0.0011,-0.0041 9.76e-4,-0.0041 0.0011,-0.0042 9.76e-4,-0.0041 9.76e-4,-0.0041 9.76e-4,-0.0041 8.13e-4,-0.0041 8.14e-4,-0.0043 8.13e-4,-0.0041 8.14e-4,-0.0041 7.45e-4,-0.0044 7.45e-4,-0.0041 7.46e-4,-0.0043 7.45e-4,-0.0042 7.45e-4,-0.0042 6.39e-4,-0.0043 6.39e-4,-0.0044 6.39e-4,-0.0041 5.32e-4,-0.0045 5.32e-4,-0.0043 6.39e-4,-0.0042 5.32e-4,-0.0044 4.26e-4,-0.0044 4.26e-4,-0.0042 4.26e-4,-0.0044 4.26e-4,-0.0045 4.26e-4,-0.0042 3.19e-4,-0.0045 3.19e-4,-0.0044 3.2e-4,-0.0045 2.13e-4,-0.0044 2.13e-4,-0.0045 3.19e-4,-0.0045 1.06e-4,-0.0045 2.14e-4,-0.0045 1.06e-4,-0.0046 1.07e-4,-0.0044 1.05e-4,-0.0046 v -0.0045 -0.0053 -10.510136 -0.0052 -0.0045 l -1.05e-4,-0.0045 -1.07e-4,-0.0046 -1.06e-4,-0.0045 -2.14e-4,-0.0045 -1.06e-4,-0.0045 -3.19e-4,-0.0045 -2.13e-4,-0.0044 -2.13e-4,-0.0044 -3.2e-4,-0.0045 -3.19e-4,-0.0044 -3.19e-4,-0.0045 -4.26e-4,-0.0044 -4.26e-4,-0.0044 -4.26e-4,-0.0044 -4.26e-4,-0.0044 -4.26e-4,-0.0044 -5.32e-4,-0.0044 -6.39e-4,-0.0042 -5.32e-4,-0.0044 -5.32e-4,-0.0042 -6.39e-4,-0.0042 -6.39e-4,-0.0044 -6.39e-4,-0.0042 -7.45e-4,-0.0041 -7.45e-4,-0.0044 -7.46e-4,-0.0042 -7.45e-4,-0.0041 -7.45e-4,-0.0042 -8.14e-4,-0.0041 -8.13e-4,-0.0042 -8.14e-4,-0.0041 -8.13e-4,-0.0042 -9.76e-4,-0.0041 -9.76e-4,-0.0041 -9.76e-4,-0.0041 -0.0011,-0.0044 -9.76e-4,-0.0039 -0.0011,-0.0041 -0.0011,-0.0041 -0.0011,-0.0041 -0.0011,-0.0041 -0.0013,-0.0041 -0.0011,-0.0041 -0.0013,-0.0039 -0.0011,-0.0041 -0.0013,-0.0041 -0.0013,-0.0041 -0.0011,-0.0039 -0.0014,-0.0041 -0.0014,-0.0041 -0.0014,-0.0039 -0.0013,-0.0039 -0.0015,-0.0039 -0.0015,-0.0041 -0.0014,-0.0039 -0.0014,-0.0038 -0.0016,-0.0039 -0.0015,-0.0041 -0.0015,-0.0038 -0.0017,-0.0038 -0.0016,-0.0038 -0.0015,-0.0038 -0.0017,-0.0039 -0.0017,-0.0038 -0.0017,-0.0038 -0.0016,-0.0038 -0.0018,-0.0037 -0.0017,-0.0038 -0.0018,-0.0037 -0.0018,-0.0037 -0.0018,-0.0038 -0.0018,-0.0038 -0.002,-0.0037 -0.002,-0.0036 -0.002,-0.0037 -0.002,-0.0037 -0.002,-0.0037 -0.002,-0.0035 -0.002,-0.0037 -0.002,-0.0036 -0.002,-0.0036 -0.0021,-0.0037 -0.002,-0.0035 -0.0021,-0.0037 -0.0022,-0.0036 -0.0021,-0.0035 -0.0021,-0.0035 -0.0022,-0.0036 -0.0022,-0.0034 -0.0022,-0.0035 -0.0022,-0.0035 -0.0022,-0.0035 -0.0024,-0.0034 -0.0022,-0.0035 -0.0024,-0.0035 -0.0024,-0.0033 -0.0024,-0.0034 -0.0024,-0.0034 -0.0024,-0.0035 -0.0024,-0.0033 -0.0024,-0.0033 -0.0024,-0.0033 -0.0025,-0.0034 -0.0025,-0.0033 -0.0024,-0.0033 -0.0025,-0.0033 -0.0025,-0.0033 -0.0027,-0.0032 -0.0027,-0.0032 -0.0027,-0.0032 -0.0025,-0.0033 -0.0027,-0.0031 -0.0028,-0.0032 -0.0027,-0.0031 -0.0027,-0.0032 -0.0028,-0.0031 -0.0027,-0.0032 -0.0028,-0.003 -0.0028,-0.0031 -0.0028,-0.0031 -0.0028,-0.003 -0.003,-0.003 -0.0028,-0.0031 -0.0028,-0.0028 -0.003,-0.003 -0.0028,-0.0028 -0.003,-0.0031 -0.003,-0.0028 -0.0028,-0.0028 -0.0031,-0.0028 -0.0031,-0.0028 -0.003,-0.0028 -0.003,-0.0028 -0.0031,-0.0028 -0.0031,-0.0027 -0.0031,-0.0028 -0.0032,-0.0028 -0.0031,-0.0027 -0.0031,-0.0028 -0.0032,-0.0027 -0.0032,-0.0028 -0.0032,-0.0024 -0.0032,-0.0028 -0.0033,-0.0025 -0.0032,-0.0025 -0.0033,-0.0027 -0.0033,-0.0025 -0.0032,-0.0025 -0.0034,-0.0024 -0.0032,-0.0027 -0.0035,-0.0024 -0.0033,-0.0025 -0.0033,-0.0024 -0.0034,-0.0024 -0.0034,-0.0024 -0.0034,-0.0024 -0.0034,-0.0024 -0.0034,-0.0022 -0.0035,-0.0024 -0.0034,-0.0022 -0.0035,-0.0022 -0.0035,-0.0024 -0.0034,-0.0022 -0.0036,-0.0022 -0.0035,-0.0021 -0.0036,-0.0021 -0.0035,-0.0022 -0.0035,-0.0021 -0.0037,-0.0021 -0.0035,-0.002 -0.0036,-0.0021 -0.0036,-0.002 -0.0037,-0.002 -0.0036,-0.002 -0.0036,-0.002 -0.0037,-0.002 -0.0037,-0.002 -0.0037,-0.002 -0.0037,-0.0018 -0.0037,-0.002 -0.0037,-0.0018 -0.0037,-0.002 -0.0037,-0.0017 -0.0038,-0.0018 -0.0038,-0.0018 -0.0037,-0.0017 -0.0039,-0.0017 -0.0037,-0.0017 -0.0038,-0.0016 -0.0038,-0.0017 -0.0039,-0.0016 -0.0038,-0.0016 -0.0038,-0.0016 -0.0039,-0.0015 -0.0039,-0.0016 -0.0038,-0.0015 -0.0041,-0.0015 -0.0038,-0.0014 -0.0041,-0.0015 -0.0038,-0.0014 -0.0041,-0.0014 -0.0039,-0.0014 -0.0039,-0.0013 -0.0041,-0.0014 -0.0039,-0.0013 -0.0039,-0.0013 -0.0041,-0.0011 -0.0041,-0.0013 -0.0041,-0.0011 -0.0041,-0.0011 -0.0041,-0.0011 -0.0041,-0.0011 -0.0041,-0.0011 -0.0041,-9.76e-4 -0.0041,-0.0011 -0.0041,-0.0011 -0.0041,-9.76e-4 -0.0041,-0.0011 -0.0041,-9.77e-4 -0.0041,-8.13e-4 -0.0041,-8.13e-4 -0.0042,-8.14e-4 -0.0041,-8.13e-4 -0.0042,-8.14e-4 -0.0041,-8.13e-4 -0.0044,-7.45e-4 -0.0041,-7.45e-4 -0.0042,-7.46e-4 -0.0042,-6.38e-4 -0.0042,-6.39e-4 -0.0042,-6.39e-4 -0.0044,-6.39e-4 -0.0042,-5.32e-4 -0.0042,-6.39e-4 -0.0044,-5.32e-4 -0.0044,-5.33e-4 -0.0044,-4.25e-4 -0.0042,-4.26e-4 -0.0045,-5.32e-4 -0.0044,-4.27e-4 -0.0044,-3.19e-4 -0.0044,-4.26e-4 -0.0045,-2.13e-4 -0.0044,-3.19e-4 -0.0045,-3.19e-4 -0.0044,-2.14e-4 -0.0045,-2.13e-4 -0.0045,-2.12e-4 -0.0045,-1.07e-4 -0.0046,-2.13e-4 -0.0044,-1.06e-4 h -0.0046 -0.0044 -0.0053 -10.510349 z m 10.521314,-0.902931 h 0.01011 l 0.01022,2.13e-4 0.01033,2.13e-4 0.01022,3.19e-4 0.01011,3.19e-4 0.01011,4.27e-4 0.01022,4.26e-4 0.01011,5.32e-4 0.01011,6.38e-4 0.01011,6.39e-4 0.01011,8.13e-4 0.01011,7.45e-4 0.01,7.46e-4 0.01011,0.0011 0.01001,9.76e-4 0.01001,0.0011 0.01,0.0011 0.01001,0.0011 0.0099,0.0013 0.01001,0.0013 0.0099,0.0014 0.0099,0.0014 0.01,0.0015 0.0099,0.0016 0.0099,0.0016 0.0097,0.0016 0.0099,0.0018 0.0098,0.0018 0.0098,0.0017 0.0098,0.002 0.0097,0.002 0.0098,0.002 0.0097,0.002 0.0097,0.0021 0.0097,0.0022 0.0096,0.0022 0.0097,0.0024 0.0095,0.0024 0.0097,0.0025 0.0096,0.0024 0.0095,0.0025 0.0095,0.0027 0.0095,0.0025 0.0095,0.0028 0.0095,0.0028 0.0094,0.0028 0.0094,0.003 0.0094,0.0028 0.0094,0.0031 0.0094,0.003 0.0093,0.0031 0.0092,0.0032 0.0093,0.0032 0.0092,0.0033 0.0093,0.0033 0.0092,0.0034 0.009,0.0035 0.0092,0.0034 0.0091,0.0036 0.009,0.0035 0.009,0.0036 0.009,0.0037 0.0089,0.0038 0.0088,0.0038 0.0089,0.0038 0.0089,0.0039 0.0088,0.0039 0.0088,0.0041 0.0087,0.0041 0.0087,0.0041 0.0088,0.0041 0.0086,0.0041 0.0087,0.0044 0.0085,0.0044 0.0087,0.0042 0.0085,0.0045 0.0086,0.0045 0.0084,0.0045 0.0085,0.0047 0.0084,0.0046 0.0085,0.0047 0.0083,0.0047 0.0084,0.0048 0.0083,0.0048 0.0083,0.0049 0.0083,0.0049 0.0082,0.005 0.0082,0.005 0.0081,0.0051 0.0082,0.0051 0.0081,0.0051 0.0081,0.0052 0.008,0.0052 0.008,0.0053 0.008,0.0053 0.0079,0.0054 0.0079,0.0055 0.0079,0.0054 0.0079,0.0055 0.0078,0.0055 0.0078,0.0058 0.0076,0.0056 0.0076,0.0056 0.0076,0.0058 0.0076,0.0058 0.0076,0.0059 0.0075,0.0059 0.0075,0.0059 0.0075,0.0061 0.0075,0.0059 0.0075,0.0062 0.0072,0.0061 0.0073,0.0062 0.0072,0.0062 0.0073,0.0062 0.0072,0.0064 0.0072,0.0063 0.0072,0.0063 0.0072,0.0065 0.007,0.0064 0.0069,0.0064 0.007,0.0066 0.0069,0.0066 0.0069,0.0065 0.0068,0.0068 0.0068,0.0066 0.0067,0.0066 0.0068,0.0068 0.0067,0.0068 0.0066,0.0069 0.0066,0.0068 0.0065,0.0069 0.0066,0.007 0.0065,0.007 0.0063,0.0069 0.0065,0.0072 0.0064,0.0072 0.0062,0.0072 0.0063,0.0072 0.0064,0.0073 0.0062,0.0072 0.0061,0.0073 0.0061,0.0073 0.0061,0.0073 0.0061,0.0075 0.0059,0.0075 0.0059,0.0076 0.0059,0.0075 0.0059,0.0076 0.0058,0.0076 0.0058,0.0076 0.0058,0.0076 0.0056,0.0078 0.0056,0.0078 0.0054,0.0078 0.0056,0.0078 0.0055,0.0079 0.0054,0.0079 0.0054,0.008 0.0053,0.0079 0.0052,0.008 0.0053,0.0081 0.0051,0.0079 0.0052,0.0083 0.0052,0.0081 0.005,0.0081 0.005,0.0082 0.0049,0.0083 0.0049,0.0082 0.0049,0.0083 0.0049,0.0084 0.0047,0.0083 0.0048,0.0083 0.0047,0.0085 0.0047,0.0084 0.0045,0.0085 0.0046,0.0085 0.0045,0.0085 0.0045,0.0086 0.0044,0.0086 0.0042,0.0086 0.0042,0.0086 0.0042,0.0087 0.0041,0.0087 0.0041,0.0087 0.0041,0.0088 0.0041,0.0087 0.0039,0.0089 0.0039,0.0089 0.0038,0.0088 0.0038,0.0089 0.0037,0.0089 0.0037,0.0089 0.0036,0.009 0.0036,0.009 0.0036,0.009 0.0034,0.009 0.0035,0.0093 0.0033,0.009 0.0034,0.0092 0.0033,0.0093 0.0032,0.0094 0.0031,0.0092 0.0032,0.0093 0.0031,0.0093 0.0028,0.0095 0.003,0.0093 0.0028,0.0094 0.0028,0.0095 0.0028,0.0095 0.0027,0.0094 0.0028,0.0095 0.0025,0.0096 0.0024,0.0096 0.0025,0.0094 0.0024,0.0097 0.0024,0.0097 0.0022,0.0095 0.0024,0.0096 0.0021,0.0097 0.0022,0.0097 0.002,0.0098 0.002,0.0097 0.002,0.0097 0.002,0.0099 0.0018,0.0097 0.0018,0.0098 0.0018,0.0099 0.0016,0.0098 0.0016,0.0099 0.0015,0.0098 0.0015,0.01 0.0015,0.0099 0.0014,0.0099 0.0011,0.0099 0.0013,0.01011 0.0011,0.0098 0.0011,0.01011 0.0011,0.01011 9.76e-4,0.01001 9.76e-4,0.01011 8.14e-4,0.01001 7.45e-4,0.01001 7.45e-4,0.01022 6.39e-4,0.01001 6.39e-4,0.01011 5.32e-4,0.01022 5.33e-4,0.01011 4.25e-4,0.01022 3.2e-4,0.01011 3.18e-4,0.01022 2.14e-4,0.01011 2.13e-4,0.01033 v 0.01022 0.0095 10.513117 0.0095 0.01023 l -1.07e-4,0.01032 -2.13e-4,0.01023 -3.19e-4,0.0101 -3.2e-4,0.0101 -4.26e-4,0.01023 -5.32e-4,0.01011 -5.32e-4,0.01022 -6.39e-4,0.01003 -6.39e-4,0.01018 -7.45e-4,0.0101 -8.13e-4,0.01003 -7.45e-4,0.0101 -0.0011,0.01014 -9.76e-4,0.0099 -9.76e-4,0.0101 -0.0011,0.0101 -0.0011,0.0098 -0.0013,0.0101 -0.0011,0.0099 -0.0014,0.0099 -0.0015,0.01003 -0.0015,0.0099 -0.0015,0.0098 -0.0017,0.01002 -0.0016,0.0097 -0.0018,0.0099 -0.0017,0.0099 -0.0018,0.0097 -0.002,0.0098 -0.002,0.0097 -0.002,0.0097 -0.002,0.0098 -0.0021,0.0097 -0.0022,0.0097 -0.0022,0.0097 -0.0022,0.0095 -0.0024,0.0096 -0.0024,0.0096 -0.0025,0.0095 -0.0024,0.0095 -0.0027,0.0096 -0.0027,0.0096 -0.0027,0.0094 -0.0028,0.0094 -0.0028,0.0095 -0.0028,0.0095 -0.003,0.0092 -0.003,0.0094 -0.003,0.0093 -0.0032,0.0093 -0.0031,0.0092 -0.0033,0.0091 -0.0032,0.0093 -0.0034,0.0092 -0.0033,0.0092 -0.0035,0.0092 -0.0035,0.0091 -0.0035,0.009 -0.0036,0.0091 -0.0037,0.0089 -0.0037,0.0089 -0.0037,0.0091 -0.0037,0.0088 -0.0041,0.0089 -0.0038,0.0089 -0.0039,0.0089 -0.0041,0.0088 -0.0041,0.0089 -0.0041,0.0087 -0.0041,0.0087 -0.0042,0.0086 -0.0042,0.0087 -0.0042,0.0086 -0.0045,0.0086 -0.0044,0.0086 -0.0045,0.0085 -0.0046,0.0085 -0.0046,0.0085 -0.0046,0.0084 -0.0047,0.0084 -0.0047,0.0084 -0.0048,0.0083 -0.0049,0.0084 -0.0049,0.0083 -0.0049,0.0082 -0.0049,0.0082 -0.005,0.0083 -0.005,0.0081 -0.0052,0.0082 -0.0052,0.0081 -0.0052,0.008 -0.0051,0.0081 -0.0053,0.008 -0.0053,0.0079 -0.0054,0.008 -0.0054,0.0079 -0.0055,0.0079 -0.0055,0.0078 -0.0055,0.0077 -0.0058,0.0078 -0.0056,0.0078 -0.0056,0.0076 -0.0058,0.0078 -0.0058,0.0076 -0.0059,0.0076 -0.0059,0.0076 -0.0059,0.0075 -0.0059,0.0076 -0.0061,0.0073 -0.0061,0.0073 -0.0061,0.0075 -0.0062,0.0072 -0.0062,0.0072 -0.0062,0.0073 -0.0063,0.0072 -0.0063,0.007 -0.0064,0.0072 -0.0064,0.007 -0.0065,0.0071 -0.0064,0.0069 -0.0066,0.007 -0.0065,0.0069 -0.0066,0.0068 -0.0067,0.0069 -0.0066,0.0068 -0.0068,0.0068 -0.0067,0.0067 -0.0068,0.0067 -0.0069,0.0067 -0.0069,0.0066 -0.0068,0.0065 -0.007,0.0065 -0.007,0.0065 -0.0069,0.0065 -0.0072,0.0065 -0.0072,0.0063 -0.0072,0.0063 -0.0072,0.0063 -0.0072,0.0063 -0.0073,0.0061 -0.0072,0.0062 -0.0073,0.0062 -0.0075,0.0061 -0.0075,0.0059 -0.0073,0.006 -0.0076,0.0059 -0.0076,0.0059 -0.0076,0.0059 -0.0076,0.0058 -0.0076,0.0059 -0.0076,0.0056 -0.0078,0.0057 -0.0076,0.0057 -0.0078,0.0055 -0.0079,0.0055 -0.0079,0.0054 -0.0078,0.0054 -0.008,0.0055 -0.008,0.0052 -0.008,0.0053 -0.0081,0.0053 -0.0081,0.005 -0.008,0.0052 -0.0081,0.0051 -0.0082,0.005 -0.0082,0.005 -0.0082,0.0051 -0.0083,0.0048 -0.0083,0.0049 -0.0083,0.0048 -0.0084,0.0048 -0.0083,0.0046 -0.0084,0.0047 -0.0085,0.0047 -0.0085,0.0046 -0.0084,0.0045 -0.0086,0.0045 -0.0086,0.0044 -0.0085,0.0045 -0.0087,0.0044 -0.0086,0.0044 -0.0086,0.0041 -0.0088,0.0043 -0.0087,0.0041 -0.0087,0.0041 -0.0089,0.0041 -0.0087,0.004 -0.0088,0.004 -0.009,0.0038 -0.0089,0.0038 -0.0089,0.0037 -0.0089,0.0037 -0.009,0.0036 -0.009,0.0036 -0.009,0.0035 -0.009,0.0035 -0.0092,0.0034 -0.0092,0.0034 -0.0092,0.0034 -0.0093,0.0032 -0.0093,0.0032 -0.0093,0.0033 -0.0093,0.003 -0.0093,0.0031 -0.0094,0.0029 -0.0094,0.003 -0.0095,0.0028 -0.0094,0.0028 -0.0094,0.0028 -0.0095,0.0027 -0.0095,0.0027 -0.0096,0.0027 -0.0095,0.0025 -0.0096,0.0024 -0.0095,0.0024 -0.0097,0.0024 -0.0096,0.0024 -0.0097,0.0023 -0.0096,0.0022 -0.0098,0.0021 -0.0097,0.0022 -0.0097,0.002 -0.0097,0.002 -0.0098,0.002 -0.0098,0.0019 -0.0098,0.0018 -0.0099,0.0017 -0.0098,0.0017 -0.0099,0.0016 -0.0099,0.0015 -0.0099,0.0015 -0.0099,0.0015 -0.0099,0.0013 -0.01001,0.0014 -0.0099,0.0011 -0.01011,0.0012 -0.01,0.0011 -0.0099,0.0011 -0.01011,9.76e-4 -0.01001,9.76e-4 -0.01011,7.08e-4 -0.01,8.94e-4 -0.01022,7.49e-4 -0.01001,6.24e-4 -0.01023,6.65e-4 -0.01001,6.24e-4 -0.01022,4.16e-4 -0.01011,4.16e-4 -0.01022,3.33e-4 -0.01022,3.32e-4 -0.01011,2.08e-4 -0.01033,8.4e-5 -0.01022,1.24e-4 h -0.0095 -10.513223 l -0.0096,-1.24e-4 h -0.01022 l -0.01023,-2.09e-4 -0.01022,-2.08e-4 -0.01011,-2.91e-4 -0.01022,-3.33e-4 -0.01011,-4.15e-4 -0.01022,-4.58e-4 -0.01011,-6.23e-4 -0.01022,-6.24e-4 -0.01,-5.41e-4 -0.01011,-8.95e-4 -0.01011,-8.14e-4 -0.01001,-7.48e-4 -0.01,-9.76e-4 -0.01011,-9.76e-4 -0.01001,-0.0011 -0.01,-0.0011 -0.01,-0.0011 -0.01001,-0.0012 -0.0099,-0.0013 -0.01001,-0.0014 -0.0098,-0.0015 -0.0099,-0.0015 -0.01001,-0.0015 -0.0098,-0.0015 -0.0099,-0.0017 -0.0098,-0.0017 -0.0098,-0.0017 -0.0098,-0.0019 -0.0098,-0.002 -0.0098,-0.002 -0.0097,-0.002 -0.0097,-0.0021 -0.0097,-0.0021 -0.0097,-0.0023 -0.0096,-0.0023 -0.0096,-0.0023 -0.0097,-0.0024 -0.0096,-0.0024 -0.0095,-0.0024 -0.0096,-0.0026 -0.0095,-0.0027 -0.0096,-0.0025 -0.0093,-0.0028 -0.0096,-0.0028 -0.0094,-0.0028 -0.0094,-0.0028 -0.0094,-0.003 -0.0094,-0.003 -0.0093,-0.0029 -0.0094,-0.0031 -0.0093,-0.0032 -0.0092,-0.0032 -0.0093,-0.0033 -0.0092,-0.0034 -0.0092,-0.0033 -0.0092,-0.0034 -0.0092,-0.0036 -0.009,-0.0034 -0.009,-0.0037 -0.009,-0.0035 -0.0088,-0.0037 -0.009,-0.0038 -0.0088,-0.0038 -0.0089,-0.0038 -0.0089,-0.004 -0.0087,-0.0039 -0.0089,-0.0041 -0.0088,-0.0041 -0.0087,-0.0041 -0.0086,-0.0041 -0.0088,-0.0041 -0.0086,-0.0043 -0.0087,-0.0044 -0.0085,-0.0044 -0.0085,-0.0044 -0.0086,-0.0045 -0.0085,-0.0045 -0.0085,-0.0047 -0.0084,-0.0046 -0.0084,-0.0047 -0.0084,-0.0048 -0.0084,-0.0048 -0.0083,-0.0048 -0.0082,-0.0049 -0.0083,-0.0048 -0.0082,-0.005 -0.0082,-0.0051 -0.0082,-0.005 -0.0081,-0.0051 -0.0081,-0.0051 -0.0081,-0.0052 -0.008,-0.0052 -0.0081,-0.0053 -0.0079,-0.0053 -0.008,-0.0055 -0.0078,-0.0054 -0.008,-0.0055 -0.0078,-0.0055 -0.0078,-0.0055 -0.0078,-0.0055 -0.0076,-0.0058 -0.0078,-0.0057 -0.0076,-0.0059 -0.0075,-0.0056 -0.0076,-0.006 -0.0076,-0.0059 -0.0075,-0.0059 -0.0075,-0.0061 -0.0073,-0.006 -0.0075,-0.0061 -0.0073,-0.0061 -0.0073,-0.0062 -0.0072,-0.0062 -0.0072,-0.0063 -0.0072,-0.0062 -0.0072,-0.0063 -0.007,-0.0064 -0.0072,-0.0065 -0.0072,-0.0065 -0.0069,-0.0064 -0.007,-0.0065 -0.0069,-0.0066 -0.0068,-0.0066 -0.0068,-0.0066 -0.0068,-0.0067 -0.0068,-0.0067 -0.0068,-0.0068 -0.0067,-0.0068 -0.0067,-0.0069 -0.0065,-0.0068 -0.0066,-0.0069 -0.0065,-0.0069 -0.0065,-0.007 -0.0064,-0.007 -0.0063,-0.0072 -0.0064,-0.007 -0.0063,-0.0072 -0.0063,-0.0071 -0.0062,-0.0072 -0.0063,-0.0072 -0.0061,-0.0073 -0.0062,-0.0073 -0.006,-0.0075 -0.006,-0.0073 -0.006,-0.0075 -0.0059,-0.0075 -0.0059,-0.0076 -0.0059,-0.0076 -0.0059,-0.0076 -0.0058,-0.0076 -0.0057,-0.0076 -0.0057,-0.0078 -0.0056,-0.0077 -0.0055,-0.0079 -0.0056,-0.0078 -0.0054,-0.0078 -0.0054,-0.008 -0.0055,-0.0079 -0.0052,-0.008 -0.0053,-0.0079 -0.0053,-0.0081 -0.0052,-0.008 -0.0052,-0.0082 -0.005,-0.0082 -0.0051,-0.0081 -0.005,-0.0082 -0.005,-0.0082 -0.005,-0.0083 -0.0048,-0.0083 -0.0048,-0.0083 -0.0048,-0.0084 -0.0047,-0.0083 -0.0046,-0.0085 -0.0046,-0.0084 -0.0046,-0.0085 -0.0046,-0.0084 -0.0045,-0.0086 -0.0045,-0.0086 -0.0044,-0.0085 -0.0042,-0.0086 -0.0043,-0.0087 -0.0042,-0.0087 -0.0041,-0.0086 -0.0041,-0.0089 -0.0041,-0.0088 -0.0041,-0.0089 -0.004,-0.0088 -0.0039,-0.0089 -0.0037,-0.0089 -0.0038,-0.0089 -0.0037,-0.0089 -0.0037,-0.0089 -0.0037,-0.0091 -0.0036,-0.0089 -0.0035,-0.0092 -0.0035,-0.009 -0.0034,-0.0092 -0.0034,-0.0093 -0.0033,-0.0092 -0.0033,-0.0092 -0.0032,-0.0091 -0.0032,-0.0094 -0.0031,-0.0093 -0.003,-0.0092 -0.003,-0.0095 -0.0029,-0.0093 -0.0028,-0.0094 -0.0028,-0.0095 -0.0028,-0.0095 -0.0027,-0.0094 -0.0027,-0.0096 -0.0026,-0.0094 -0.0026,-0.0096 -0.0025,-0.0095 -0.0024,-0.0096 -0.0024,-0.0097 -0.0023,-0.0095 -0.0023,-0.0097 -0.0022,-0.0097 -0.0022,-0.0097 -0.002,-0.0097 -0.002,-0.0097 -0.002,-0.0098 -0.0019,-0.0098 -0.0019,-0.0098 -0.0017,-0.0098 -0.0017,-0.0098 -0.0017,-0.0099 -0.0016,-0.0098 -0.0015,-0.0099 -0.0015,-0.0099 -0.0015,-0.0099 -0.0014,-0.01002 -0.0012,-0.0099 -0.0013,-0.01 -0.0011,-0.0099 -0.0011,-0.0101 -0.0011,-0.01 -9.76e-4,-0.01003 -9.76e-4,-0.0101 -7.89e-4,-0.01002 -8.13e-4,-0.01011 -7.87e-4,-0.01002 -5.75e-4,-0.01018 -7.14e-4,-0.01003 -5e-4,-0.01022 -5e-4,-0.01023 -4.15e-4,-0.01011 -2.88e-4,-0.01023 -2.87e-4,-0.0101 -2.99e-4,-0.01032 -1.17e-4,-0.01022 -1.28e-4,-0.01023 v -0.0094 -10.513032 l 1.28e-4,-0.0096 3.2e-5,-0.01023 2.13e-4,-0.01022 2.13e-4,-0.01022 2.88e-4,-0.01022 3.29e-4,-0.01011 4.16e-4,-0.01011 4.57e-4,-0.01022 5.86e-4,-0.01011 6.17e-4,-0.01011 6.29e-4,-0.01011 8.13e-4,-0.01011 7.88e-4,-0.01011 7.56e-4,-0.01011 9.76e-4,-0.01001 8.95e-4,-0.01011 0.0011,-0.0099 0.0011,-0.01011 0.0011,-0.01001 0.0012,-0.0099 0.0013,-0.01001 0.0014,-0.0099 0.0014,-0.0099 0.0015,-0.0099 0.0015,-0.0099 0.0015,-0.0099 0.0017,-0.0098 0.0017,-0.0099 0.0018,-0.0098 0.0018,-0.0097 0.0019,-0.0099 0.002,-0.0097 0.002,-0.0097 0.0021,-0.0097 0.0021,-0.0097 0.0023,-0.0097 0.0022,-0.0096 0.0024,-0.0097 0.0024,-0.0096 0.0025,-0.0096 0.0024,-0.0096 0.0025,-0.0095 0.0026,-0.0095 0.0027,-0.0096 0.0027,-0.0094 0.0028,-0.0095 0.0028,-0.0094 0.0029,-0.0094 0.0029,-0.0095 0.003,-0.0093 0.0031,-0.0094 0.003,-0.0092 0.0033,-0.0094 0.0032,-0.0093 0.0033,-0.0092 0.0033,-0.0093 0.0034,-0.0092 0.0034,-0.009 0.0034,-0.0092 0.0035,-0.009 0.0037,-0.009 0.0036,-0.0089 0.0037,-0.0089 0.0037,-0.009 0.0038,-0.0089 0.0039,-0.0089 0.004,-0.0088 0.0039,-0.0088 0.0041,-0.0088 0.0041,-0.0088 0.0041,-0.0087 0.0041,-0.0088 0.0042,-0.0086 0.0043,-0.0086 0.0043,-0.0086 0.0044,-0.0086 0.0045,-0.0086 0.0045,-0.0085 0.0046,-0.0085 0.0046,-0.0085 0.0046,-0.0084 0.0046,-0.0084 0.0048,-0.0084 0.0048,-0.0084 0.0048,-0.0083 0.0048,-0.0083 0.005,-0.0082 0.005,-0.0082 0.005,-0.0082 0.005,-0.0083 0.0051,-0.0081 0.0052,-0.0081 0.0051,-0.0081 0.0052,-0.0079 0.0054,-0.0081 0.0053,-0.0079 0.0054,-0.008 0.0054,-0.0079 0.0055,-0.0079 0.0055,-0.0078 0.0055,-0.0079 0.0056,-0.0076 0.0057,-0.0076 0.0057,-0.0076 0.0057,-0.0076 0.0059,-0.0076 0.0058,-0.0076 0.0059,-0.0076 0.006,-0.0075 0.006,-0.0075 0.0059,-0.0075 0.0061,-0.0073 0.0062,-0.0073 0.0062,-0.0072 0.0062,-0.0073 0.0063,-0.0072 0.0063,-0.0072 0.0063,-0.0072 0.0063,-0.0072 0.0064,-0.007 0.0064,-0.007 0.0064,-0.007 0.0066,-0.007 0.0066,-0.0069 0.0066,-0.0068 0.0066,-0.0068 0.0067,-0.0069 0.0067,-0.0067 0.0068,-0.0067 0.0069,-0.0067 0.0068,-0.0066 0.0068,-0.0066 0.0069,-0.0066 0.007,-0.0065 0.0069,-0.0065 0.0072,-0.0065 0.0072,-0.0063 0.007,-0.0065 0.0072,-0.0063 0.0072,-0.0063 0.0072,-0.0062 0.0072,-0.0062 0.0073,-0.0062 0.0073,-0.0062 0.0073,-0.0059 0.0075,-0.0059 0.0075,-0.0059 0.0076,-0.0061 0.0075,-0.0059 0.0076,-0.0058 0.0076,-0.0059 0.0076,-0.0058 0.0076,-0.0056 0.0078,-0.0058 0.0076,-0.0055 0.0079,-0.0055 0.0078,-0.0056 0.0079,-0.0055 0.0079,-0.0054 0.008,-0.0053 0.0079,-0.0054 0.008,-0.0052 0.0081,-0.0053 0.0081,-0.0052 0.008,-0.0051 0.0082,-0.0051 0.0082,-0.0051 0.0081,-0.0049 0.0083,-0.005 0.0082,-0.005 0.0083,-0.0048 0.0084,-0.0048 0.0083,-0.0048 0.0084,-0.0048 0.0084,-0.0047 0.0084,-0.0046 0.0085,-0.0046 0.0086,-0.0046 0.0085,-0.0045 0.0084,-0.0044 0.0087,-0.0045 0.0086,-0.0042 0.0086,-0.0042 0.0087,-0.0042 0.0087,-0.0041 0.0087,-0.0041 0.0088,-0.0041 0.0088,-0.0041 0.0088,-0.0039 0.0089,-0.0039 0.0088,-0.0038 0.0089,-0.0038 0.0089,-0.0037 0.0089,-0.0038 0.009,-0.0036 0.009,-0.0035 0.009,-0.0035 0.0092,-0.0036 0.0092,-0.0034 0.0092,-0.0033 0.0092,-0.0034 0.0092,-0.0033 0.0093,-0.0032 0.0094,-0.0031 0.0092,-0.0032 0.0094,-0.003 0.0094,-0.003 0.0093,-0.003 0.0095,-0.0028 0.0094,-0.0028 0.0095,-0.0028 0.0094,-0.0028 0.0095,-0.0025 0.0096,-0.0027 0.0095,-0.0025 0.0096,-0.0024 0.0096,-0.0024 0.0096,-0.0024 0.0096,-0.0022 0.0097,-0.0022 0.0097,-0.0022 0.0097,-0.0021 0.0097,-0.0021 0.0097,-0.002 0.0098,-0.002 0.0098,-0.002 0.0097,-0.002 0.0099,-0.0017 0.0098,-0.0017 0.0098,-0.0017 0.0099,-0.0016 0.0099,-0.0015 0.0099,-0.0015 0.0099,-0.0015 0.01,-0.0014 0.0099,-0.0011 0.01,-0.0014 0.01,-0.0011 0.0099,-0.0011 0.01,-0.0011 0.01011,-9.76e-4 0.01011,-9.76e-4 0.01,-7.45e-4 0.01011,-8.14e-4 0.01011,-7.46e-4 0.01011,-6.38e-4 0.01011,-6.39e-4 0.01011,-5.32e-4 0.01022,-5.32e-4 0.01001,-4.26e-4 0.01022,-3.2e-4 0.01022,-2.13e-4 0.01032,-3.19e-4 0.01011,-1.06e-4 0.01022,-1.07e-4 0.0096,-1.06e-4 h 10.513117 0.0096 l -1.06e-4,2.13e-4"
       style="display:inline;fill:#ff0000;fill-opacity:1;fill-rule:evenodd;stroke:none;stroke-width:0.0106465"
       id="path3873" />
    <path
       d="m 55.101461,70.470832 12.464198,-3.482114 -0.229646,-0.89402 -12.463879,3.482156 0.229327,0.893978 v 0"
       style="fill:#ff0000;fill-opacity:1;fill-rule:nonzero;stroke:none;stroke-width:0.0106465"
       id="path3875" />
  </g>
  <g
     inkscape:label="F.SilkS"
     inkscape:groupmode="layer"
     id="g3841">
    <path
       d="m 56.425461,60.706059 c 0.162999,-0.207927 0.512524,-0.40691 0.758565,-0.507519 1.568658,-1.153445 2.306888,-0.0462 3.368133,1.245791 1.90711,1.214991 2.627985,3.268896 3.537305,5.582565 0.603551,0.662619 0.745895,0.948371 1.353491,1.615066 -0.06974,0.03984 -0.171302,0.0247 -0.2849,-0.021 0.306832,0.344969 0.667217,0.843907 0.807645,1.241193 -0.227303,-0.05564 -0.448538,-0.22674 -0.64848,-0.441831 0.207288,0.45335 0.422987,1.034543 0.325678,1.205303 -0.09593,0.03589 -0.194406,-0.05706 -0.293525,-0.217093 -0.007,0.145144 -0.02779,0.269369 -0.04493,0.355707 -0.130633,0 -0.205158,-0.09719 -0.261478,-0.292317 -0.515292,-1.518844 -1.731976,-2.606907 -2.743821,-3.328081 -0.0084,0.186729 0.0062,0.384563 0.07793,0.626559 0.0094,0.142279 0.0592,0.479391 -0.03992,0.553703 -0.0028,-0.204732 -0.124139,-0.577615 -0.216337,-0.758852 -0.116579,0.281878 -0.29214,1.035705 -0.461314,0.985346 -0.05632,0.104134 -0.09805,0.293653 -0.05632,0.419494 -0.09731,-0.07186 -0.106678,-0.329584 -0.04631,-0.484618 -0.07165,-0.02824 0.195044,-0.479061 0.164062,-0.653643 -0.117963,0.174582 -0.146283,0.215347 -0.235713,0.348801 -0.0084,-0.18707 0.120625,-0.465285 0.235713,-0.61538 0.211015,-0.141481 0.352081,-0.317819 0.43012,-0.525501 -0.08357,-0.0581 -0.16566,-0.113503 -0.245296,-0.166564 -0.474941,0.04467 -1.059329,0.0028 -1.593145,-0.155536 0.04461,0.132911 0.02204,0.297102 -0.262756,0.478795 -0.269783,0.273989 -0.469192,0.548552 -0.697347,0.904625 -0.0086,0.02154 -0.03088,0.05386 -0.03066,0.107753 0.02736,0.165521 0.09593,0.809178 0.102527,0.976573 -0.06697,-0.149807 -0.200794,-0.561561 -0.256369,-0.717937 -0.176839,0.229645 -0.292034,0.588347 -0.379228,0.884406 -0.02576,0.04354 -0.0643,0.05178 -0.105082,0.05029 -0.04205,0.125843 -0.07122,0.313328 -0.03918,0.439255 -0.06058,-0.131794 -0.11658,-0.359405 -0.06346,-0.499929 -0.0076,-0.0097 -0.0076,-0.0344 -0.0027,-0.0692 0.04333,-0.190807 0.133295,-0.405654 0.210376,-0.589221 -0.105082,0.07424 -0.18674,0.186985 -0.228368,0.35371 -0.06643,-0.195055 0.05153,-0.569345 0.279577,-0.730501 0.420325,-0.330989 0.710016,-0.815161 0.992042,-1.240937 -0.07633,-0.173378 -0.09891,-0.381198 -0.102951,-0.582939 -0.06367,-0.0341 -0.125309,-0.07024 -0.184398,-0.109042 -1.338906,-1.076426 -1.899019,-2.223504 -1.986427,-4.462477 -0.230603,-0.1846 -0.39999,-0.50242 -0.374225,-0.825435 -0.201858,-0.115015 -0.569163,-0.244796 -0.758565,-0.379367 v 0"
       style="display:inline;fill:#0000ff;fill-opacity:1;fill-rule:nonzero;stroke:none;stroke-width:0.0106465"
       id="path3877" />
    <path
       d="m 46.190666,64.702293 c -0.376205,0 -0.745969,0.0065 -1.102708,0.03896 v 2.28322 H 44.186331 V 64.02124 c 0.570795,-0.103804 1.401103,-0.201081 2.004335,-0.201081 v 0.882127"
       style="fill:#0000ff;fill-opacity:1;fill-rule:nonzero;stroke:none;stroke-width:0.0106465"
       id="path3879" />
    <path
       d="m 47.312702,65.156389 h 1.465984 c -0.01943,-0.382733 -0.311369,-0.642156 -0.71353,-0.642156 -0.402151,0 -0.668112,0.25294 -0.752454,0.642156 z m 2.270253,0.01293 c 0,0.285423 -0.01293,0.369754 -0.05836,0.629188 h -2.172922 c 0.116686,0.33083 0.42157,0.538394 0.882117,0.538394 0.25294,0 0.577329,-0.05195 1.102702,-0.162157 l 0.123223,0.707089 c -0.48645,0.15562 -0.895095,0.239962 -1.251881,0.239962 -1.193528,0 -1.803254,-0.726508 -1.803254,-1.654129 0,-1.00534 0.707046,-1.654032 1.641107,-1.654032 0.875634,0 1.524327,0.544889 1.537262,1.355685"
       style="fill:#0000ff;fill-opacity:1;fill-rule:nonzero;stroke:none;stroke-width:0.0106465"
       id="path3881" />
    <path
       d="m 50.886526,65.441725 c 0,0.5579 0.259508,0.927621 0.823816,0.927621 0.103804,0 0.350249,-0.01293 0.720056,-0.05186 v -1.680074 c -0.220585,-0.04537 -0.499556,-0.07132 -0.674638,-0.07132 -0.66167,0 -0.869234,0.376205 -0.869234,0.875633 z m 2.445409,1.537294 c -0.979437,0.123276 -1.362084,0.116866 -1.829158,0.116866 -0.830268,0 -1.491885,-0.570834 -1.491885,-1.65416 0.0064,-0.97291 0.538394,-1.62156 1.621635,-1.62156 0.240004,0 0.58377,0.03244 0.797871,0.07133 v -1.472424 h 0.901537 v 4.559946"
       style="fill:#0000ff;fill-opacity:1;fill-rule:nonzero;stroke:none;stroke-width:0.0106465"
       id="path3883" />
    <path
       d="m 71.575563,64.669896 c -0.363259,-0.07785 -0.655187,-0.12976 -0.875783,-0.12976 -0.61622,0 -0.985867,0.376248 -0.985867,0.91461 0,0.544879 0.382635,0.895181 0.934019,0.895181 0.214101,0 0.577254,-0.05195 0.933913,-0.136287 l 0.116898,0.71352 c -0.35027,0.116867 -0.765378,0.194639 -1.115648,0.194639 -1.024835,0 -1.757953,-0.655176 -1.757953,-1.67359 0,-1.018318 0.726518,-1.660516 1.790318,-1.660516 0.304916,0 0.733013,0.05843 1.083283,0.175125 l -0.12318,0.707078"
       style="fill:#0000ff;fill-opacity:1;fill-rule:nonzero;stroke:none;stroke-width:0.0106465"
       id="path3885" />
    <path
       d="m 72.885617,65.480734 c 0,0.518891 0.298315,0.888612 0.758884,0.888612 0.259456,0 0.519018,-0.08438 0.784968,-0.304884 v -1.459489 c -0.207608,-0.01946 -0.441192,-0.03888 -0.726625,-0.03888 -0.603232,0 -0.817227,0.395666 -0.817227,0.914641 z m 2.445399,-1.511433 v 3.055179 h -0.901547 v -0.220585 c -0.252962,0.194628 -0.557878,0.317904 -0.934126,0.317904 -0.862687,0 -1.492003,-0.642209 -1.492003,-1.667053 0.01959,-0.985931 0.570973,-1.634581 1.55684,-1.634581 0.661681,0 1.02494,0.05186 1.770836,0.149136"
       style="fill:#0000ff;fill-opacity:1;fill-rule:nonzero;stroke:none;stroke-width:0.0106465"
       id="path3887" />
    <path
       d="m 79.313559,65.013618 v 2.010862 h -0.901654 v -1.744826 c 0,-0.39571 -0.259456,-0.642241 -0.622715,-0.642241 -0.22709,0 -0.473557,0.01951 -0.733013,0.04546 v 2.341606 H 76.15463 V 63.9693 c 0.402119,-0.05839 1.251712,-0.149136 1.848661,-0.149136 0.784756,0 1.310268,0.473483 1.310268,1.193454"
       style="fill:#0000ff;fill-opacity:1;fill-rule:nonzero;stroke:none;stroke-width:0.0106465"
       id="path3889" />
    <path
       d="m 80.753287,65.480734 c 0,0.518891 0.298422,0.888612 0.758884,0.888612 0.259455,0 0.519017,-0.08438 0.784967,-0.304884 v -1.459489 c -0.207606,-0.01946 -0.441191,-0.03888 -0.726518,-0.03888 -0.603232,0 -0.817333,0.395666 -0.817333,0.914641 z m 2.445399,-1.511433 v 3.055179 h -0.901548 v -0.220585 c -0.25296,0.194628 -0.557877,0.317904 -0.934124,0.317904 -0.862688,0 -1.491898,-0.642209 -1.491898,-1.667053 0.01938,-0.985931 0.57076,-1.634581 1.556841,-1.634581 0.661575,0 1.024834,0.05186 1.770729,0.149136"
       style="fill:#0000ff;fill-opacity:1;fill-rule:nonzero;stroke:none;stroke-width:0.0106465"
       id="path3891" />
    <path
       d="m 86.026614,64.702293 c -0.376248,0 -0.746108,0.0065 -1.102766,0.03896 v 2.28322 H 84.022194 V 64.02124 c 0.570867,-0.103804 1.401082,-0.201081 2.00442,-0.201081 v 0.882127"
       style="fill:#0000ff;fill-opacity:1;fill-rule:nonzero;stroke:none;stroke-width:0.0106465"
       id="path3893" />
    <path
       d="m 88.050198,68.516451 h -1.005351 l 0.810732,-1.718998 -1.504885,-2.880011 h 1.031435 l 0.953502,1.861597 0.87557,-1.861597 h 1.018445 l -2.179448,4.599009"
       style="fill:#0000ff;fill-opacity:1;fill-rule:nonzero;stroke:none;stroke-width:0.0106465"
       id="path3895" />
  </g>
  <g
     inkscape:label="Dwgs.User"
     inkscape:groupmode="layer"
     id="g3843" />
  <g
     inkscape:label="Drill"
     inkscape:groupmode="layer"
     id="g3845" />
</svg>
