<?xml version="1.0" encoding="UTF-8" standalone="no"?>
<svg
   xmlns:dc="http://purl.org/dc/elements/1.1/"
   xmlns:cc="http://creativecommons.org/ns#"
   xmlns:rdf="http://www.w3.org/1999/02/22-rdf-syntax-ns#"
   xmlns:svg="http://www.w3.org/2000/svg"
   xmlns="http://www.w3.org/2000/svg"
   xmlns:sodipodi="http://sodipodi.sourceforge.net/DTD/sodipodi-0.dtd"
   xmlns:inkscape="http://www.inkscape.org/namespaces/inkscape"
   width="100.0mm"
   height="100.0mm"
   viewBox="0 0 100.0 100.0"
   version="1.1"
   id="svg8"
   sodipodi:docname="Tines SAO.svg"
   inkscape:version="1.0.2 (e86c8708, 2021-01-15)">
  <defs
     id="defs2" />
  <sodipodi:namedview
     id="base"
     pagecolor="#ffffff"
     bordercolor="#666666"
     borderopacity="1.0"
     inkscape:pageopacity="0.0"
     inkscape:pageshadow="2"
     inkscape:zoom="3.0405958"
     inkscape:cx="187.64702"
     inkscape:cy="253.92166"
     inkscape:document-units="mm"
     inkscape:current-layer="g897"
     inkscape:document-rotation="0"
     showgrid="false"
     inkscape:window-width="2301"
     inkscape:window-height="1217"
     inkscape:window-x="0"
     inkscape:window-y="25"
     inkscape:window-maximized="0" />
  <metadata
     id="metadata5">
    <rdf:RDF>
      <cc:Work
         rdf:about="">
        <dc:format>image/svg+xml</dc:format>
        <dc:type
           rdf:resource="http://purl.org/dc/dcmitype/StillImage" />
        <dc:title />
      </cc:Work>
    </rdf:RDF>
  </metadata>
  <g
     inkscape:label="[fixed] BG"
     inkscape:groupmode="layer"
     sodipodi:insensitive="true"
     id="g883">
    <rect
       x="0"
       y="0"
       width="100.0"
       height="100.0"
       style="fill:#FFFFFF;fill-opacity:1;stroke:none"
       id="rect881" />
  </g>
  <g
     inkscape:label="Edge.Cuts"
     inkscape:groupmode="layer"
     id="g885">
    <path
       id="rect942"
       style="font-variation-settings:normal;display:inline;opacity:1;vector-effect:none;fill:#000000;fill-opacity:1;fill-rule:evenodd;stroke:none;stroke-width:0.444247;stroke-linecap:butt;stroke-linejoin:miter;stroke-miterlimit:0;stroke-dasharray:none;stroke-dashoffset:0;stroke-opacity:1;stop-color:#000000;stop-opacity:1"
       d="m 41.5193,75.0217 h 53.7426 l 0.0896,0.009 0.0833,0.0257 0.0753,0.0408 0.0656,0.0541 0.0541,0.0655 0.0407,0.0754 0.0258,0.0833 0.009,0.0896 V 93.839 l -0.009,0.0896 -0.0258,0.0833 -0.0407,0.0753 -0.0541,0.0656 -0.0656,0.054 -0.0753,0.0408 -0.0833,0.0258 -0.0896,0.0089 H 41.5193 L 41.4298,94.2734 41.3464,94.2476 41.2711,94.2068 41.2056,94.1528 41.1515,94.0872 41.1107,94.0119 41.085,93.9286 41.076,93.839 V 75.4651 l 0.009,-0.0896 0.0257,-0.0833 0.0408,-0.0754 0.0541,-0.0655 0.0655,-0.0541 0.0753,-0.0408 0.0834,-0.0257 0.0895,-0.009 v 0" />
  </g>
  <g
     inkscape:label="B.Cu"
     inkscape:groupmode="layer"
     id="g887" />
  <g
     inkscape:label="B.Mask"
     inkscape:groupmode="layer"
     id="g889" />
  <g
     inkscape:label="B.SilkS"
     inkscape:groupmode="layer"
     id="g891" />
  <g
     inkscape:label="F.Cu"
     inkscape:groupmode="layer"
     id="g893">
    <g
       style="fill:#0000ff"
       id="g957"
       transform="matrix(0.10564124,0,0,0.10564124,42.176128,76.517653)">
      <path
         d="M 211.288,50.6068 H 197 v 14.8653 h 14.288 v 32.4727 c 0,16.1642 10.391,25.4012 26.267,25.4012 h 11.69 v -16.02 h -9.67 c -6.639,0 -10.535,-3.753 -10.535,-11.1131 V 65.4721 h 20.205 V 50.6068 H 229.04 V 28.6697 h -17.752 z"
         fill="#32313b"
         id="path945"
         style="fill:#0000ff" />
      <path
         d="m 257.518,39.2053 h 19.628 V 19 h -19.628 z m 18.617,84.1407 V 50.6068 h -17.751 v 72.7392 z"
         fill="#32313b"
         id="path947"
         style="fill:#0000ff" />
      <path
         d="M 304.769,123.346 V 83.6568 c 0,-10.6799 6.927,-18.4734 16.886,-18.4734 9.092,0 15.154,6.9276 15.154,16.8859 V 123.346 H 354.56 V 78.3169 c 0,-17.0302 -10.68,-28.8647 -27.132,-28.8647 -10.392,0 -18.618,4.474 -22.659,12.4118 V 50.6068 h -17.752 v 72.7392 z"
         fill="#32313b"
         id="path949"
         style="fill:#0000ff" />
      <path
         d="m 415.483,99.0994 c -1.876,6.9276 -7.794,10.6796 -16.886,10.6796 -11.257,0 -18.762,-7.504 -20.061,-19.1947 h 53.688 c 0.145,-1.4432 0.289,-3.6081 0.289,-6.0615 0,-17.3188 -10.969,-35.0706 -35.359,-35.0706 -23.814,0 -35.648,18.0404 -35.648,37.2354 0,19.0504 13.278,37.8124 37.091,37.8124 17.896,0 31.462,-9.958 34.205,-25.4006 z M 397.154,62.7299 c 10.535,0 16.886,6.9276 17.607,16.1642 h -35.792 c 1.876,-10.9685 8.226,-16.1642 18.185,-16.1642 z"
         fill="#32313b"
         id="path951"
         style="fill:#0000ff" />
      <path
         d="m 468.15,124.5 c 17.03,0 28.143,-8.948 28.143,-22.658 0,-32.9062 -40.411,-15.5874 -40.411,-31.3186 0,-4.907 4.185,-7.7935 10.536,-7.7935 5.628,0 11.834,3.4638 12.844,10.247 h 16.165 c -0.722,-14.1437 -12.412,-23.5247 -29.442,-23.5247 -15.01,0 -26.123,8.948 -26.123,21.6485 0,30.7413 39.833,15.2983 39.833,31.4623 0,4.33 -4.618,7.794 -11.545,7.794 -7.938,0 -13.278,-4.33 -14,-11.2576 H 437.986 C 438.852,114.686 450.542,124.5 468.15,124.5 Z"
         fill="#32313b"
         id="path953"
         style="fill:#0000ff" />
      <path
         fill-rule="evenodd"
         clip-rule="evenodd"
         d="M 54.7964,0 C 36.5705,0 20.4554,11.8267 15.0008,29.2055 L 0,77 15.0008,124.794 C 20.4554,142.173 36.5705,154 54.7964,154 h 40.4072 c 18.2264,0 34.3414,-11.827 39.7954,-29.206 L 150,77 134.999,29.2055 C 129.545,11.8267 113.43,0 95.2036,0 Z m 40.4078,12.0136 c 12.9728,0 24.4428,8.4178 28.3248,20.7873 l 3.678,11.7177 c -7.399,-6.1074 -16.768,-9.5451 -26.56,-9.5458 L 49.2436,34.9714 c -9.7263,8e-4 -19.035,3.3923 -26.4101,9.423 L 26.4722,32.8009 C 30.3545,20.4314 41.8246,12.0136 54.797,12.0136 Z m -69.5959,46.6922 -9.3404,12.2877 117.3541,-1e-4 -9.34,-12.2862 C 118.67,51.3235 109.925,46.9871 100.646,46.9864 H 48.9638 c -9.1742,0.0872 -17.7994,4.4102 -23.3555,11.7194 z m 107.9947,24.3013 -9.321,12.2751 c -5.614,7.3918 -14.365,11.7338 -23.65,11.7328 l -51.3745,-0.002 c -9.2856,10e-4 -18.0366,-4.34 -23.6498,-11.7322 L 16.2876,83.0071 Z M 26.4715,121.199 c 3.8823,12.37 15.3524,20.787 28.3248,20.787 h 40.4072 c 12.9725,0 24.4425,-8.417 28.3245,-20.787 l 3.681,-11.726 c -7.402,6.115 -16.778,9.556 -26.578,9.555 l -51.3726,-0.001 c -9.7344,0.001 -19.0507,-3.395 -26.4294,-9.433 z"
         fill="#32313b"
         id="path955"
         style="fill:#0000ff" />
    </g>
  </g>
  <g
     inkscape:label="F.Mask"
     inkscape:groupmode="layer"
     id="g895" />
  <g
     inkscape:label="F.SilkS"
     inkscape:groupmode="layer"
     id="g897">
    <g
       style="fill:#0000ff"
       id="g859"
       transform="matrix(0.10564124,0,0,0.10564124,42.176128,76.517653)">
      <path
         d="M 211.288,50.6068 H 197 v 14.8653 h 14.288 v 32.4727 c 0,16.1642 10.391,25.4012 26.267,25.4012 h 11.69 v -16.02 h -9.67 c -6.639,0 -10.535,-3.753 -10.535,-11.1131 V 65.4721 h 20.205 V 50.6068 H 229.04 V 28.6697 h -17.752 z"
         fill="#32313b"
         id="path833"
         style="fill:#0000ff" />
      <path
         d="m 257.518,39.2053 h 19.628 V 19 h -19.628 z m 18.617,84.1407 V 50.6068 h -17.751 v 72.7392 z"
         fill="#32313b"
         id="path835"
         style="fill:#0000ff" />
      <path
         d="M 304.769,123.346 V 83.6568 c 0,-10.6799 6.927,-18.4734 16.886,-18.4734 9.092,0 15.154,6.9276 15.154,16.8859 V 123.346 H 354.56 V 78.3169 c 0,-17.0302 -10.68,-28.8647 -27.132,-28.8647 -10.392,0 -18.618,4.474 -22.659,12.4118 V 50.6068 h -17.752 v 72.7392 z"
         fill="#32313b"
         id="path837"
         style="fill:#0000ff" />
      <path
         d="m 415.483,99.0994 c -1.876,6.9276 -7.794,10.6796 -16.886,10.6796 -11.257,0 -18.762,-7.504 -20.061,-19.1947 h 53.688 c 0.145,-1.4432 0.289,-3.6081 0.289,-6.0615 0,-17.3188 -10.969,-35.0706 -35.359,-35.0706 -23.814,0 -35.648,18.0404 -35.648,37.2354 0,19.0504 13.278,37.8124 37.091,37.8124 17.896,0 31.462,-9.958 34.205,-25.4006 z M 397.154,62.7299 c 10.535,0 16.886,6.9276 17.607,16.1642 h -35.792 c 1.876,-10.9685 8.226,-16.1642 18.185,-16.1642 z"
         fill="#32313b"
         id="path839"
         style="fill:#0000ff" />
      <path
         d="m 468.15,124.5 c 17.03,0 28.143,-8.948 28.143,-22.658 0,-32.9062 -40.411,-15.5874 -40.411,-31.3186 0,-4.907 4.185,-7.7935 10.536,-7.7935 5.628,0 11.834,3.4638 12.844,10.247 h 16.165 c -0.722,-14.1437 -12.412,-23.5247 -29.442,-23.5247 -15.01,0 -26.123,8.948 -26.123,21.6485 0,30.7413 39.833,15.2983 39.833,31.4623 0,4.33 -4.618,7.794 -11.545,7.794 -7.938,0 -13.278,-4.33 -14,-11.2576 H 437.986 C 438.852,114.686 450.542,124.5 468.15,124.5 Z"
         fill="#32313b"
         id="path841"
         style="fill:#0000ff" />
      <path
         fill-rule="evenodd"
         clip-rule="evenodd"
         d="M 54.7964,0 C 36.5705,0 20.4554,11.8267 15.0008,29.2055 L 0,77 15.0008,124.794 C 20.4554,142.173 36.5705,154 54.7964,154 h 40.4072 c 18.2264,0 34.3414,-11.827 39.7954,-29.206 L 150,77 134.999,29.2055 C 129.545,11.8267 113.43,0 95.2036,0 Z m 40.4078,12.0136 c 12.9728,0 24.4428,8.4178 28.3248,20.7873 l 3.678,11.7177 c -7.399,-6.1074 -16.768,-9.5451 -26.56,-9.5458 L 49.2436,34.9714 c -9.7263,8e-4 -19.035,3.3923 -26.4101,9.423 L 26.4722,32.8009 C 30.3545,20.4314 41.8246,12.0136 54.797,12.0136 Z m -69.5959,46.6922 -9.3404,12.2877 117.3541,-1e-4 -9.34,-12.2862 C 118.67,51.3235 109.925,46.9871 100.646,46.9864 H 48.9638 c -9.1742,0.0872 -17.7994,4.4102 -23.3555,11.7194 z m 107.9947,24.3013 -9.321,12.2751 c -5.614,7.3918 -14.365,11.7338 -23.65,11.7328 l -51.3745,-0.002 c -9.2856,10e-4 -18.0366,-4.34 -23.6498,-11.7322 L 16.2876,83.0071 Z M 26.4715,121.199 c 3.8823,12.37 15.3524,20.787 28.3248,20.787 h 40.4072 c 12.9725,0 24.4425,-8.417 28.3245,-20.787 l 3.681,-11.726 c -7.402,6.115 -16.778,9.556 -26.578,9.555 l -51.3726,-0.001 c -9.7344,0.001 -19.0507,-3.395 -26.4294,-9.433 z"
         fill="#32313b"
         id="path843"
         style="fill:#0000ff" />
    </g>
  </g>
  <g
     inkscape:label="Dwgs.User"
     inkscape:groupmode="layer"
     id="g899" />
  <g
     inkscape:label="Drill"
     inkscape:groupmode="layer"
     id="g901" />
</svg>
