%TF.GenerationSoftware,KiCad,Pcbnew,(6.0.7)*%
%TF.CreationDate,2022-09-05T18:23:19-05:00*%
%TF.ProjectId,Arista-TGS,41726973-7461-42d5-9447-532e6b696361,rev?*%
%TF.SameCoordinates,Original*%
%TF.FileFunction,Legend,Bot*%
%TF.FilePolarity,Positive*%
%FSLAX46Y46*%
G04 Gerber Fmt 4.6, Leading zero omitted, Abs format (unit mm)*
G04 Created by KiCad (PCBNEW (6.0.7)) date 2022-09-05 18:23:19*
%MOMM*%
%LPD*%
G01*
G04 APERTURE LIST*
%ADD10C,0.300000*%
%ADD11C,0.150000*%
%ADD12C,0.500000*%
G04 APERTURE END LIST*
D10*
X141185849Y-107126476D02*
X140998732Y-106999955D01*
X140898581Y-106986770D01*
X140741762Y-107017068D01*
X140571758Y-107147517D01*
X140501905Y-107291151D01*
X140488720Y-107391302D01*
X140519017Y-107548121D01*
X140866881Y-108001466D01*
X142056911Y-107088323D01*
X141752530Y-106691647D01*
X141608896Y-106621793D01*
X141508745Y-106608608D01*
X141351926Y-106638906D01*
X141238590Y-106725872D01*
X141168737Y-106869506D01*
X141155552Y-106969657D01*
X141185849Y-107126476D01*
X141490230Y-107523153D01*
X140053890Y-106824621D02*
X139866773Y-106698099D01*
X139649358Y-106414759D01*
X139619060Y-106257940D01*
X139632245Y-106157789D01*
X139702099Y-106014155D01*
X139815435Y-105927189D01*
X139972254Y-105896891D01*
X140072405Y-105910076D01*
X140216039Y-105979929D01*
X140446639Y-106163119D01*
X140590273Y-106232972D01*
X140690424Y-106246157D01*
X140847243Y-106215859D01*
X140960579Y-106128893D01*
X141030433Y-105985259D01*
X141043618Y-105885108D01*
X141013320Y-105728289D01*
X140795905Y-105444949D01*
X140608788Y-105318427D01*
X139084080Y-105678074D02*
X139877433Y-105069312D01*
X140274110Y-104764931D02*
X140260925Y-104865083D01*
X140160774Y-104851897D01*
X140173959Y-104751746D01*
X140274110Y-104764931D01*
X140160774Y-104851897D01*
X138257903Y-104601380D02*
X139447933Y-103688238D01*
X138314572Y-104557897D02*
X138344869Y-104714716D01*
X138518801Y-104941388D01*
X138662435Y-105011242D01*
X138762586Y-105024427D01*
X138919405Y-104994129D01*
X139259414Y-104733231D01*
X139329267Y-104589597D01*
X139342452Y-104489446D01*
X139312155Y-104332627D01*
X139138223Y-104105955D01*
X138994589Y-104036101D01*
X137531878Y-103537871D02*
X137562176Y-103694690D01*
X137736108Y-103921363D01*
X137879742Y-103991216D01*
X138036561Y-103960918D01*
X138489906Y-103613054D01*
X138559759Y-103469420D01*
X138529461Y-103312601D01*
X138355529Y-103085929D01*
X138211895Y-103016076D01*
X138055076Y-103046373D01*
X137941740Y-103133339D01*
X138263233Y-103786986D01*
X137140532Y-103027858D02*
X136996898Y-102958005D01*
X136822966Y-102731333D01*
X136792668Y-102574513D01*
X136862521Y-102430879D01*
X136919189Y-102387397D01*
X137076008Y-102357099D01*
X137219642Y-102426952D01*
X137350091Y-102596956D01*
X137493725Y-102666809D01*
X137650545Y-102636512D01*
X137707213Y-102593029D01*
X137777066Y-102449395D01*
X137746768Y-102292575D01*
X137616319Y-102122571D01*
X137472685Y-102052718D01*
X135605443Y-101144626D02*
X136795473Y-100231484D01*
X135083647Y-100464609D02*
X136155011Y-100452826D01*
X136273677Y-99551467D02*
X136115456Y-100753279D01*
X134283841Y-99187613D02*
X134270656Y-99287764D01*
X134344437Y-99501251D01*
X134431403Y-99614587D01*
X134618520Y-99741109D01*
X134818822Y-99767479D01*
X134975641Y-99737181D01*
X135245797Y-99619917D01*
X135415801Y-99489469D01*
X135598990Y-99258869D01*
X135668844Y-99115235D01*
X135695214Y-98914932D01*
X135621433Y-98701445D01*
X135534467Y-98588109D01*
X135347350Y-98461588D01*
X135247199Y-98448403D01*
X134203608Y-97088368D02*
X134216793Y-96988217D01*
X134186495Y-96831398D01*
X133969081Y-96548058D01*
X133825447Y-96478204D01*
X133725296Y-96465019D01*
X133568476Y-96495317D01*
X133455140Y-96582283D01*
X133328619Y-96769400D01*
X133170397Y-97971213D01*
X132605119Y-97234527D01*
X133229870Y-95584700D02*
X133142904Y-95471364D01*
X132999270Y-95401511D01*
X132899119Y-95388325D01*
X132742300Y-95418623D01*
X132472145Y-95535887D01*
X132188804Y-95753302D01*
X132005615Y-95983902D01*
X131935762Y-96127536D01*
X131922577Y-96227687D01*
X131952874Y-96384506D01*
X132039840Y-96497842D01*
X132183474Y-96567695D01*
X132283625Y-96580880D01*
X132440445Y-96550583D01*
X132710600Y-96433319D01*
X132993940Y-96215904D01*
X133177130Y-95985304D01*
X133246983Y-95841670D01*
X133260168Y-95741519D01*
X133229870Y-95584700D01*
X132464290Y-94821644D02*
X132477475Y-94721493D01*
X132447177Y-94564674D01*
X132229762Y-94281334D01*
X132086128Y-94211481D01*
X131985977Y-94198295D01*
X131829158Y-94228593D01*
X131715822Y-94315559D01*
X131589301Y-94502676D01*
X131431079Y-95704489D01*
X130865800Y-94967804D01*
X131594631Y-93688283D02*
X131607816Y-93588131D01*
X131577518Y-93431312D01*
X131360103Y-93147972D01*
X131216469Y-93078119D01*
X131116318Y-93064933D01*
X130959499Y-93095231D01*
X130846163Y-93182197D01*
X130719641Y-93369314D01*
X130561420Y-94571127D01*
X129996141Y-93834442D01*
D11*
%TO.C,X1*%
X157973161Y-116965361D02*
X157877923Y-117012980D01*
X157687447Y-117012980D01*
X157592209Y-116965361D01*
X157544590Y-116870123D01*
X157544590Y-116822504D01*
X157592209Y-116727266D01*
X157687447Y-116679647D01*
X157830304Y-116679647D01*
X157925542Y-116632028D01*
X157973161Y-116536790D01*
X157973161Y-116489171D01*
X157925542Y-116393933D01*
X157830304Y-116346314D01*
X157687447Y-116346314D01*
X157592209Y-116393933D01*
X156687447Y-117012980D02*
X156687447Y-116489171D01*
X156735066Y-116393933D01*
X156830304Y-116346314D01*
X157020780Y-116346314D01*
X157116019Y-116393933D01*
X156687447Y-116965361D02*
X156782685Y-117012980D01*
X157020780Y-117012980D01*
X157116019Y-116965361D01*
X157163638Y-116870123D01*
X157163638Y-116774885D01*
X157116019Y-116679647D01*
X157020780Y-116632028D01*
X156782685Y-116632028D01*
X156687447Y-116584409D01*
X156068400Y-117012980D02*
X156163638Y-116965361D01*
X156211257Y-116917742D01*
X156258876Y-116822504D01*
X156258876Y-116536790D01*
X156211257Y-116441552D01*
X156163638Y-116393933D01*
X156068400Y-116346314D01*
X155925542Y-116346314D01*
X155830304Y-116393933D01*
X155782685Y-116441552D01*
X155735066Y-116536790D01*
X155735066Y-116822504D01*
X155782685Y-116917742D01*
X155830304Y-116965361D01*
X155925542Y-117012980D01*
X156068400Y-117012980D01*
X155544590Y-117108219D02*
X154782685Y-117108219D01*
X154639828Y-116346314D02*
X154401733Y-117012980D01*
X154163638Y-116346314D01*
X153258876Y-117012980D02*
X153830304Y-117012980D01*
X153544590Y-117012980D02*
X153544590Y-116012980D01*
X153639828Y-116155838D01*
X153735066Y-116251076D01*
X153830304Y-116298695D01*
X152401733Y-116012980D02*
X152592209Y-116012980D01*
X152687447Y-116060600D01*
X152735066Y-116108219D01*
X152830304Y-116251076D01*
X152877923Y-116441552D01*
X152877923Y-116822504D01*
X152830304Y-116917742D01*
X152782685Y-116965361D01*
X152687447Y-117012980D01*
X152496971Y-117012980D01*
X152401733Y-116965361D01*
X152354114Y-116917742D01*
X152306495Y-116822504D01*
X152306495Y-116584409D01*
X152354114Y-116489171D01*
X152401733Y-116441552D01*
X152496971Y-116393933D01*
X152687447Y-116393933D01*
X152782685Y-116441552D01*
X152830304Y-116489171D01*
X152877923Y-116584409D01*
X151830304Y-117012980D02*
X151639828Y-117012980D01*
X151544590Y-116965361D01*
X151496971Y-116917742D01*
X151401733Y-116774885D01*
X151354114Y-116584409D01*
X151354114Y-116203457D01*
X151401733Y-116108219D01*
X151449352Y-116060600D01*
X151544590Y-116012980D01*
X151735066Y-116012980D01*
X151830304Y-116060600D01*
X151877923Y-116108219D01*
X151925542Y-116203457D01*
X151925542Y-116441552D01*
X151877923Y-116536790D01*
X151830304Y-116584409D01*
X151735066Y-116632028D01*
X151544590Y-116632028D01*
X151449352Y-116584409D01*
X151401733Y-116536790D01*
X151354114Y-116441552D01*
X150925542Y-117012980D02*
X150925542Y-116012980D01*
X150925542Y-116393933D02*
X150830304Y-116346314D01*
X150639828Y-116346314D01*
X150544590Y-116393933D01*
X150496971Y-116441552D01*
X150449352Y-116536790D01*
X150449352Y-116822504D01*
X150496971Y-116917742D01*
X150544590Y-116965361D01*
X150639828Y-117012980D01*
X150830304Y-117012980D01*
X150925542Y-116965361D01*
X150020780Y-117012980D02*
X150020780Y-116346314D01*
X150020780Y-116012980D02*
X150068400Y-116060600D01*
X150020780Y-116108219D01*
X149973161Y-116060600D01*
X150020780Y-116012980D01*
X150020780Y-116108219D01*
X149592209Y-116965361D02*
X149496971Y-117012980D01*
X149306495Y-117012980D01*
X149211257Y-116965361D01*
X149163638Y-116870123D01*
X149163638Y-116822504D01*
X149211257Y-116727266D01*
X149306495Y-116679647D01*
X149449352Y-116679647D01*
X149544590Y-116632028D01*
X149592209Y-116536790D01*
X149592209Y-116489171D01*
X149544590Y-116393933D01*
X149449352Y-116346314D01*
X149306495Y-116346314D01*
X149211257Y-116393933D01*
X151647400Y-108631485D02*
X151397400Y-109381485D01*
X151147400Y-108631485D01*
X150468828Y-109310057D02*
X150504542Y-109345771D01*
X150611685Y-109381485D01*
X150683114Y-109381485D01*
X150790257Y-109345771D01*
X150861685Y-109274342D01*
X150897400Y-109202914D01*
X150933114Y-109060057D01*
X150933114Y-108952914D01*
X150897400Y-108810057D01*
X150861685Y-108738628D01*
X150790257Y-108667200D01*
X150683114Y-108631485D01*
X150611685Y-108631485D01*
X150504542Y-108667200D01*
X150468828Y-108702914D01*
X149718828Y-109310057D02*
X149754542Y-109345771D01*
X149861685Y-109381485D01*
X149933114Y-109381485D01*
X150040257Y-109345771D01*
X150111685Y-109274342D01*
X150147400Y-109202914D01*
X150183114Y-109060057D01*
X150183114Y-108952914D01*
X150147400Y-108810057D01*
X150111685Y-108738628D01*
X150040257Y-108667200D01*
X149933114Y-108631485D01*
X149861685Y-108631485D01*
X149754542Y-108667200D01*
X149718828Y-108702914D01*
X157621942Y-114280600D02*
X157693371Y-114244885D01*
X157800514Y-114244885D01*
X157907657Y-114280600D01*
X157979085Y-114352028D01*
X158014800Y-114423457D01*
X158050514Y-114566314D01*
X158050514Y-114673457D01*
X158014800Y-114816314D01*
X157979085Y-114887742D01*
X157907657Y-114959171D01*
X157800514Y-114994885D01*
X157729085Y-114994885D01*
X157621942Y-114959171D01*
X157586228Y-114923457D01*
X157586228Y-114673457D01*
X157729085Y-114673457D01*
X157264800Y-114994885D02*
X157264800Y-114244885D01*
X156979085Y-114244885D01*
X156907657Y-114280600D01*
X156871942Y-114316314D01*
X156836228Y-114387742D01*
X156836228Y-114494885D01*
X156871942Y-114566314D01*
X156907657Y-114602028D01*
X156979085Y-114637742D01*
X157264800Y-114637742D01*
X156514800Y-114994885D02*
X156514800Y-114244885D01*
X156014800Y-114244885D02*
X155871942Y-114244885D01*
X155800514Y-114280600D01*
X155729085Y-114352028D01*
X155693371Y-114494885D01*
X155693371Y-114744885D01*
X155729085Y-114887742D01*
X155800514Y-114959171D01*
X155871942Y-114994885D01*
X156014800Y-114994885D01*
X156086228Y-114959171D01*
X156157657Y-114887742D01*
X156193371Y-114744885D01*
X156193371Y-114494885D01*
X156157657Y-114352028D01*
X156086228Y-114280600D01*
X156014800Y-114244885D01*
X155407657Y-114316314D02*
X155371942Y-114280600D01*
X155300514Y-114244885D01*
X155121942Y-114244885D01*
X155050514Y-114280600D01*
X155014800Y-114316314D01*
X154979085Y-114387742D01*
X154979085Y-114459171D01*
X155014800Y-114566314D01*
X155443371Y-114994885D01*
X154979085Y-114994885D01*
X151269628Y-114306000D02*
X151341057Y-114270285D01*
X151448200Y-114270285D01*
X151555342Y-114306000D01*
X151626771Y-114377428D01*
X151662485Y-114448857D01*
X151698200Y-114591714D01*
X151698200Y-114698857D01*
X151662485Y-114841714D01*
X151626771Y-114913142D01*
X151555342Y-114984571D01*
X151448200Y-115020285D01*
X151376771Y-115020285D01*
X151269628Y-114984571D01*
X151233914Y-114948857D01*
X151233914Y-114698857D01*
X151376771Y-114698857D01*
X150912485Y-115020285D02*
X150912485Y-114270285D01*
X150483914Y-115020285D01*
X150483914Y-114270285D01*
X150126771Y-115020285D02*
X150126771Y-114270285D01*
X149948200Y-114270285D01*
X149841057Y-114306000D01*
X149769628Y-114377428D01*
X149733914Y-114448857D01*
X149698200Y-114591714D01*
X149698200Y-114698857D01*
X149733914Y-114841714D01*
X149769628Y-114913142D01*
X149841057Y-114984571D01*
X149948200Y-115020285D01*
X150126771Y-115020285D01*
X157494942Y-108641800D02*
X157566371Y-108606085D01*
X157673514Y-108606085D01*
X157780657Y-108641800D01*
X157852085Y-108713228D01*
X157887800Y-108784657D01*
X157923514Y-108927514D01*
X157923514Y-109034657D01*
X157887800Y-109177514D01*
X157852085Y-109248942D01*
X157780657Y-109320371D01*
X157673514Y-109356085D01*
X157602085Y-109356085D01*
X157494942Y-109320371D01*
X157459228Y-109284657D01*
X157459228Y-109034657D01*
X157602085Y-109034657D01*
X157137800Y-109356085D02*
X157137800Y-108606085D01*
X156852085Y-108606085D01*
X156780657Y-108641800D01*
X156744942Y-108677514D01*
X156709228Y-108748942D01*
X156709228Y-108856085D01*
X156744942Y-108927514D01*
X156780657Y-108963228D01*
X156852085Y-108998942D01*
X157137800Y-108998942D01*
X156387800Y-109356085D02*
X156387800Y-108606085D01*
X155887800Y-108606085D02*
X155744942Y-108606085D01*
X155673514Y-108641800D01*
X155602085Y-108713228D01*
X155566371Y-108856085D01*
X155566371Y-109106085D01*
X155602085Y-109248942D01*
X155673514Y-109320371D01*
X155744942Y-109356085D01*
X155887800Y-109356085D01*
X155959228Y-109320371D01*
X156030657Y-109248942D01*
X156066371Y-109106085D01*
X156066371Y-108856085D01*
X156030657Y-108713228D01*
X155959228Y-108641800D01*
X155887800Y-108606085D01*
X154852085Y-109356085D02*
X155280657Y-109356085D01*
X155066371Y-109356085D02*
X155066371Y-108606085D01*
X155137800Y-108713228D01*
X155209228Y-108784657D01*
X155280657Y-108820371D01*
X154352114Y-109320371D02*
X154244971Y-109356085D01*
X154066400Y-109356085D01*
X153994971Y-109320371D01*
X153959257Y-109284657D01*
X153923542Y-109213228D01*
X153923542Y-109141800D01*
X153959257Y-109070371D01*
X153994971Y-109034657D01*
X154066400Y-108998942D01*
X154209257Y-108963228D01*
X154280685Y-108927514D01*
X154316400Y-108891800D01*
X154352114Y-108820371D01*
X154352114Y-108748942D01*
X154316400Y-108677514D01*
X154280685Y-108641800D01*
X154209257Y-108606085D01*
X154030685Y-108606085D01*
X153923542Y-108641800D01*
X153602114Y-109356085D02*
X153602114Y-108606085D01*
X153423542Y-108606085D01*
X153316400Y-108641800D01*
X153244971Y-108713228D01*
X153209257Y-108784657D01*
X153173542Y-108927514D01*
X153173542Y-109034657D01*
X153209257Y-109177514D01*
X153244971Y-109248942D01*
X153316400Y-109320371D01*
X153423542Y-109356085D01*
X153602114Y-109356085D01*
X152887828Y-109141800D02*
X152530685Y-109141800D01*
X152959257Y-109356085D02*
X152709257Y-108606085D01*
X152459257Y-109356085D01*
X154080257Y-114984571D02*
X153973114Y-115020285D01*
X153794542Y-115020285D01*
X153723114Y-114984571D01*
X153687400Y-114948857D01*
X153651685Y-114877428D01*
X153651685Y-114806000D01*
X153687400Y-114734571D01*
X153723114Y-114698857D01*
X153794542Y-114663142D01*
X153937400Y-114627428D01*
X154008828Y-114591714D01*
X154044542Y-114556000D01*
X154080257Y-114484571D01*
X154080257Y-114413142D01*
X154044542Y-114341714D01*
X154008828Y-114306000D01*
X153937400Y-114270285D01*
X153758828Y-114270285D01*
X153651685Y-114306000D01*
X152901685Y-114948857D02*
X152937400Y-114984571D01*
X153044542Y-115020285D01*
X153115971Y-115020285D01*
X153223114Y-114984571D01*
X153294542Y-114913142D01*
X153330257Y-114841714D01*
X153365971Y-114698857D01*
X153365971Y-114591714D01*
X153330257Y-114448857D01*
X153294542Y-114377428D01*
X153223114Y-114306000D01*
X153115971Y-114270285D01*
X153044542Y-114270285D01*
X152937400Y-114306000D01*
X152901685Y-114341714D01*
X152223114Y-115020285D02*
X152580257Y-115020285D01*
X152580257Y-114270285D01*
D12*
X151307800Y-107645200D02*
X151307800Y-108153200D01*
X160197800Y-115392200D02*
X160197800Y-108280200D01*
X146862800Y-115392200D02*
X160197800Y-115392200D01*
X155625800Y-108153200D02*
X155625800Y-107645200D01*
X146862800Y-108280200D02*
X146862800Y-115392200D01*
X160070800Y-108280200D02*
X146862800Y-108280200D01*
X155625800Y-107645200D02*
X151307800Y-107645200D01*
X151307800Y-108026200D02*
X155625800Y-108026200D01*
X148056600Y-109118400D02*
G75*
G03*
X148056600Y-109118400I-254000J0D01*
G01*
%TD*%
M02*
