%TF.GenerationSoftware,KiCad,Pcbnew,(6.0.7)*%
%TF.CreationDate,2022-09-05T18:23:19-05:00*%
%TF.ProjectId,Arista-TGS,41726973-7461-42d5-9447-532e6b696361,rev?*%
%TF.SameCoordinates,Original*%
%TF.FileFunction,Profile,NP*%
%FSLAX46Y46*%
G04 Gerber Fmt 4.6, Leading zero omitted, Abs format (unit mm)*
G04 Created by KiCad (PCBNEW (6.0.7)) date 2022-09-05 18:23:19*
%MOMM*%
%LPD*%
G01*
G04 APERTURE LIST*
%TA.AperFunction,Profile*%
%ADD10C,0.100000*%
%TD*%
G04 APERTURE END LIST*
D10*
X152882600Y-87045800D02*
X161531100Y-87045800D01*
X127803000Y-91709400D02*
X127675400Y-91420800D01*
X127536600Y-90474300D02*
X127558700Y-90237000D01*
X149907400Y-120092200D02*
X149656500Y-119816400D01*
X175070800Y-97322600D02*
X172210400Y-101019600D01*
X151612800Y-121009100D02*
X151188500Y-120863300D01*
X168408800Y-105875900D02*
X164169800Y-111246800D01*
X175269900Y-87173300D02*
X175699700Y-87193700D01*
X150784400Y-120685200D02*
X150404600Y-120475000D01*
X179425000Y-90472100D02*
X179398800Y-90663900D01*
X176184400Y-95851700D02*
X175070800Y-97322600D01*
X178014900Y-88256400D02*
X178376000Y-88567300D01*
X159124900Y-117521100D02*
X157984000Y-118901600D01*
X130465900Y-87362600D02*
X130784100Y-87304400D01*
X135275600Y-101827400D02*
X132789200Y-98630000D01*
X136244900Y-87106400D02*
X140201000Y-87079200D01*
X175699700Y-87193700D02*
X175910800Y-87215100D01*
X140201000Y-87079200D02*
X152882600Y-87045800D01*
X179411500Y-90131800D02*
X179428600Y-90295700D01*
X130229800Y-87430100D02*
X130465900Y-87362600D01*
X142673600Y-111233500D02*
X138436700Y-105865700D01*
X149656500Y-119816400D02*
X148863000Y-118888300D01*
X152966200Y-121253100D02*
X152505700Y-121204000D01*
X173800800Y-87136100D02*
X175269900Y-87173300D01*
X160567900Y-115745900D02*
X159124900Y-117521100D01*
X178866900Y-91952600D02*
X178433000Y-92675500D01*
X130043200Y-87507700D02*
X130229800Y-87430100D01*
X127596500Y-91178100D02*
X127556200Y-90967500D01*
X131217100Y-87254700D02*
X131797400Y-87212700D01*
X177623500Y-87972800D02*
X178014900Y-88256400D01*
X127989100Y-92057500D02*
X127803000Y-91709400D01*
X157192900Y-119828400D02*
X156943400Y-120103300D01*
X179398800Y-90663900D02*
X179348400Y-90873800D01*
X152505700Y-121204000D02*
X152053200Y-121122700D01*
X179375600Y-89977500D02*
X179411500Y-90131800D01*
X178699000Y-88900300D02*
X178976100Y-89250200D01*
X133530700Y-87148800D02*
X136244900Y-87106400D01*
X150053200Y-120232500D02*
X149907400Y-120092200D01*
X153894900Y-121254500D02*
X153430600Y-121269900D01*
X130897300Y-96163900D02*
X129520100Y-94319500D01*
X127558700Y-90237000D02*
X127602500Y-90005700D01*
X129520100Y-94319500D02*
X128577300Y-92987200D01*
X148863000Y-118888300D02*
X147720300Y-117507000D01*
X127755300Y-89559800D02*
X127864700Y-89344600D01*
X147720300Y-117507000D02*
X146276100Y-115731500D01*
X178433000Y-92675500D02*
X177851000Y-93551000D01*
X156799200Y-120242700D02*
X156449800Y-120484100D01*
X127996500Y-89134300D02*
X128150600Y-88928700D01*
X129873600Y-87596100D02*
X130043200Y-87507700D01*
X175910800Y-87215200D02*
X176345400Y-87337700D01*
X151188500Y-120863300D02*
X150784400Y-120685200D01*
X176345400Y-87337700D02*
X176780900Y-87508300D01*
X129264600Y-87960300D02*
X129873600Y-87596100D01*
X127535800Y-90717700D02*
X127536600Y-90474300D01*
X178376000Y-88567300D02*
X178699000Y-88900300D01*
X164169800Y-111246800D02*
X160567900Y-115745900D01*
X153430600Y-121269900D02*
X152966200Y-121253100D01*
X172210400Y-101019600D02*
X168408800Y-105875900D01*
X127675400Y-91420800D02*
X127596500Y-91178100D01*
X156943400Y-120103300D02*
X156799200Y-120242700D01*
X128577300Y-92987200D02*
X128243900Y-92478900D01*
X156071800Y-120693200D02*
X155669300Y-120870000D01*
X168755700Y-87077800D02*
X173800800Y-87136100D01*
X154806800Y-121126800D02*
X154355000Y-121206800D01*
X131797400Y-87212700D02*
X133530700Y-87148800D01*
X179428600Y-90295700D02*
X179425000Y-90472100D01*
X130784100Y-87304400D02*
X131217100Y-87254700D01*
X179322500Y-89829900D02*
X179375600Y-89977500D01*
X127556200Y-90967500D02*
X127535800Y-90717700D01*
X161531100Y-87045800D02*
X168755700Y-87077800D01*
X176780900Y-87508300D02*
X177209600Y-87721700D01*
X155246200Y-121014600D02*
X154806800Y-121126800D01*
X179172600Y-89543700D02*
X179322500Y-89829900D01*
X128749700Y-88336700D02*
X128995400Y-88146800D01*
X138436700Y-105865700D02*
X135275600Y-101827400D01*
X155669300Y-120870000D02*
X155246200Y-121014600D01*
X128243900Y-92478900D02*
X127989100Y-92057500D01*
X150404600Y-120475000D02*
X150053200Y-120232500D01*
X127667900Y-89780100D02*
X127755300Y-89559800D01*
X154355000Y-121206800D02*
X153894900Y-121254500D01*
X157984000Y-118901600D02*
X157192900Y-119828400D01*
X156449800Y-120484100D02*
X156071800Y-120693200D01*
X132789200Y-98630000D02*
X130897300Y-96163900D01*
X127864700Y-89344600D02*
X127996500Y-89134300D01*
X179348400Y-90873800D02*
X179271800Y-91104800D01*
X152053200Y-121122700D02*
X151612800Y-121009100D01*
X178976100Y-89250200D02*
X179172600Y-89543700D01*
X177106300Y-94602100D02*
X176184400Y-95851700D01*
X179167200Y-91359700D02*
X178866900Y-91952600D01*
X179271800Y-91104800D02*
X179167200Y-91359700D01*
X127602500Y-90005700D02*
X127667900Y-89780100D01*
X177209600Y-87721700D02*
X177623500Y-87972800D01*
X128150600Y-88928700D02*
X128327400Y-88727300D01*
X146276100Y-115731500D02*
X142673600Y-111233500D01*
X128327400Y-88727300D02*
X128527100Y-88530100D01*
X175910800Y-87215200D02*
X175910800Y-87215200D01*
X177851000Y-93551000D02*
X177106300Y-94602100D01*
X128995400Y-88146800D02*
X129264600Y-87960300D01*
X175910800Y-87215100D02*
X175910800Y-87215200D01*
X128527100Y-88530100D02*
X128749700Y-88336700D01*
M02*
