%TF.GenerationSoftware,KiCad,Pcbnew,(6.0.7)*%
%TF.CreationDate,2022-09-05T18:23:19-05:00*%
%TF.ProjectId,Arista-TGS,41726973-7461-42d5-9447-532e6b696361,rev?*%
%TF.SameCoordinates,Original*%
%TF.FileFunction,Legend,Top*%
%TF.FilePolarity,Positive*%
%FSLAX46Y46*%
G04 Gerber Fmt 4.6, Leading zero omitted, Abs format (unit mm)*
G04 Created by KiCad (PCBNEW (6.0.7)) date 2022-09-05 18:23:19*
%MOMM*%
%LPD*%
G01*
G04 APERTURE LIST*
%ADD10C,0.010000*%
G04 APERTURE END LIST*
%TO.C,G\u002A\u002A\u002A*%
G36*
X151052021Y-106331121D02*
G01*
X151090073Y-106354374D01*
X151122900Y-106399917D01*
X151155448Y-106446243D01*
X151181198Y-106472072D01*
X151186400Y-106474000D01*
X151207600Y-106457622D01*
X151239072Y-106416691D01*
X151249900Y-106399917D01*
X151286126Y-106350965D01*
X151325342Y-106329976D01*
X151379178Y-106325834D01*
X151462669Y-106325834D01*
X151356285Y-106477320D01*
X151302904Y-106556466D01*
X151270830Y-106614851D01*
X151254915Y-106664762D01*
X151250012Y-106718488D01*
X151249900Y-106731320D01*
X151248388Y-106792711D01*
X151239271Y-106822866D01*
X151215679Y-106832875D01*
X151186400Y-106833834D01*
X151147493Y-106831118D01*
X151128971Y-106815347D01*
X151123288Y-106775088D01*
X151122900Y-106737628D01*
X151118896Y-106683142D01*
X151103602Y-106631225D01*
X151072099Y-106570138D01*
X151019467Y-106488146D01*
X151016422Y-106483628D01*
X150909943Y-106325834D01*
X150993529Y-106325834D01*
X151052021Y-106331121D01*
G37*
D10*
X151052021Y-106331121D02*
X151090073Y-106354374D01*
X151122900Y-106399917D01*
X151155448Y-106446243D01*
X151181198Y-106472072D01*
X151186400Y-106474000D01*
X151207600Y-106457622D01*
X151239072Y-106416691D01*
X151249900Y-106399917D01*
X151286126Y-106350965D01*
X151325342Y-106329976D01*
X151379178Y-106325834D01*
X151462669Y-106325834D01*
X151356285Y-106477320D01*
X151302904Y-106556466D01*
X151270830Y-106614851D01*
X151254915Y-106664762D01*
X151250012Y-106718488D01*
X151249900Y-106731320D01*
X151248388Y-106792711D01*
X151239271Y-106822866D01*
X151215679Y-106832875D01*
X151186400Y-106833834D01*
X151147493Y-106831118D01*
X151128971Y-106815347D01*
X151123288Y-106775088D01*
X151122900Y-106737628D01*
X151118896Y-106683142D01*
X151103602Y-106631225D01*
X151072099Y-106570138D01*
X151019467Y-106488146D01*
X151016422Y-106483628D01*
X150909943Y-106325834D01*
X150993529Y-106325834D01*
X151052021Y-106331121D01*
G36*
X162912734Y-100208667D02*
G01*
X160568525Y-100209086D01*
X160194960Y-100209347D01*
X159845487Y-100209980D01*
X159521904Y-100210972D01*
X159226003Y-100212305D01*
X158959582Y-100213966D01*
X158724433Y-100215937D01*
X158522354Y-100218205D01*
X158355137Y-100220754D01*
X158224580Y-100223568D01*
X158132475Y-100226631D01*
X158080620Y-100229929D01*
X158076150Y-100230481D01*
X157888148Y-100277944D01*
X157715560Y-100364740D01*
X157559103Y-100490504D01*
X157551046Y-100498479D01*
X157427470Y-100649283D01*
X157341016Y-100813463D01*
X157290599Y-100986167D01*
X157275131Y-101162546D01*
X157293526Y-101337749D01*
X157344698Y-101506924D01*
X157427561Y-101665221D01*
X157541027Y-101807790D01*
X157684012Y-101929779D01*
X157855428Y-102026338D01*
X157897137Y-102043801D01*
X157917091Y-102050636D01*
X157941945Y-102056640D01*
X157974575Y-102061891D01*
X158017858Y-102066470D01*
X158074669Y-102070454D01*
X158147885Y-102073924D01*
X158240382Y-102076958D01*
X158355036Y-102079636D01*
X158494722Y-102082035D01*
X158662319Y-102084237D01*
X158860700Y-102086319D01*
X159092743Y-102088361D01*
X159361324Y-102090441D01*
X159669318Y-102092640D01*
X159674234Y-102092674D01*
X161356984Y-102104361D01*
X161546695Y-102163143D01*
X161786043Y-102253273D01*
X162001140Y-102369727D01*
X162162377Y-102484656D01*
X162364225Y-102668786D01*
X162536066Y-102876801D01*
X162675272Y-103103910D01*
X162779215Y-103345320D01*
X162845267Y-103596237D01*
X162867217Y-103770112D01*
X162871021Y-104067241D01*
X162838594Y-104343342D01*
X162769263Y-104600362D01*
X162662350Y-104840250D01*
X162517181Y-105064954D01*
X162351817Y-105257310D01*
X162162955Y-105430812D01*
X161962502Y-105570776D01*
X161741256Y-105682751D01*
X161505150Y-105767733D01*
X161489268Y-105772120D01*
X161470517Y-105776172D01*
X161447189Y-105779908D01*
X161417577Y-105783345D01*
X161379972Y-105786502D01*
X161332668Y-105789396D01*
X161273956Y-105792046D01*
X161202129Y-105794469D01*
X161115479Y-105796685D01*
X161012298Y-105798710D01*
X160890880Y-105800563D01*
X160749515Y-105802262D01*
X160586498Y-105803825D01*
X160400118Y-105805270D01*
X160188671Y-105806615D01*
X159950446Y-105807879D01*
X159683738Y-105809079D01*
X159386837Y-105810234D01*
X159058037Y-105811361D01*
X158695630Y-105812479D01*
X158297908Y-105813605D01*
X157863164Y-105814758D01*
X157389689Y-105815956D01*
X156875777Y-105817217D01*
X156816734Y-105817360D01*
X156379221Y-105818393D01*
X155952345Y-105819346D01*
X155538083Y-105820218D01*
X155138413Y-105821006D01*
X154755314Y-105821708D01*
X154390766Y-105822321D01*
X154046745Y-105822844D01*
X153725230Y-105823275D01*
X153428201Y-105823610D01*
X153157634Y-105823848D01*
X152915510Y-105823986D01*
X152703806Y-105824023D01*
X152524501Y-105823956D01*
X152379572Y-105823783D01*
X152271000Y-105823501D01*
X152200761Y-105823109D01*
X152170835Y-105822604D01*
X152170650Y-105822592D01*
X151986957Y-105800162D01*
X151780794Y-105758504D01*
X151565249Y-105701365D01*
X151353407Y-105632493D01*
X151158354Y-105555636D01*
X151035915Y-105497592D01*
X150737812Y-105320650D01*
X150452615Y-105107595D01*
X150185798Y-104863992D01*
X149942839Y-104595404D01*
X149729212Y-104307397D01*
X149550393Y-104005534D01*
X149531841Y-103969255D01*
X149460969Y-103811660D01*
X149391578Y-103627367D01*
X149328720Y-103431858D01*
X149277446Y-103240616D01*
X149247601Y-103097917D01*
X149227912Y-102946106D01*
X149215508Y-102765857D01*
X149210415Y-102570435D01*
X149212658Y-102373109D01*
X149222265Y-102187145D01*
X149239260Y-102025812D01*
X149245422Y-101986415D01*
X149329158Y-101619197D01*
X149452226Y-101267539D01*
X149614954Y-100930552D01*
X149664429Y-100844165D01*
X149777503Y-100653167D01*
X151108706Y-100653167D01*
X150866470Y-100901875D01*
X150776780Y-100996496D01*
X150691014Y-101091532D01*
X150616695Y-101178329D01*
X150561344Y-101248230D01*
X150543615Y-101273402D01*
X150391085Y-101543162D01*
X150276851Y-101826655D01*
X150200867Y-102119892D01*
X150163089Y-102418885D01*
X150163475Y-102719645D01*
X150201978Y-103018185D01*
X150278556Y-103310517D01*
X150393164Y-103592651D01*
X150545758Y-103860600D01*
X150572731Y-103900496D01*
X150662181Y-104016068D01*
X150776418Y-104143238D01*
X150904380Y-104271088D01*
X151035006Y-104388697D01*
X151157235Y-104485146D01*
X151183843Y-104503764D01*
X151339750Y-104598179D01*
X151522208Y-104689957D01*
X151715679Y-104771920D01*
X151904625Y-104836894D01*
X151906067Y-104837323D01*
X152107150Y-104897084D01*
X161208817Y-104897084D01*
X161343720Y-104834813D01*
X161519868Y-104732797D01*
X161668422Y-104603790D01*
X161785414Y-104452151D01*
X161866873Y-104282241D01*
X161878094Y-104247961D01*
X161913214Y-104072701D01*
X161916878Y-103891635D01*
X161889816Y-103717221D01*
X161838676Y-103573905D01*
X161747343Y-103426110D01*
X161625073Y-103290017D01*
X161483264Y-103177090D01*
X161391726Y-103124325D01*
X161252142Y-103055584D01*
X159590063Y-103043129D01*
X159275173Y-103040763D01*
X158999497Y-103038554D01*
X158759916Y-103036298D01*
X158553311Y-103033790D01*
X158376565Y-103030824D01*
X158226559Y-103027194D01*
X158100174Y-103022696D01*
X157994293Y-103017124D01*
X157905796Y-103010272D01*
X157831566Y-103001936D01*
X157768485Y-102991910D01*
X157713433Y-102979989D01*
X157663292Y-102965966D01*
X157614945Y-102949638D01*
X157565272Y-102930799D01*
X157511156Y-102909242D01*
X157502152Y-102905638D01*
X157261180Y-102787184D01*
X157035658Y-102632709D01*
X156831568Y-102447455D01*
X156654894Y-102236662D01*
X156545503Y-102067629D01*
X156465066Y-101898005D01*
X156398949Y-101700892D01*
X156349969Y-101489542D01*
X156320942Y-101277208D01*
X156314686Y-101077139D01*
X156319232Y-101003057D01*
X156357052Y-100755685D01*
X156422043Y-100516254D01*
X156510792Y-100294862D01*
X156619889Y-100101607D01*
X156627648Y-100090194D01*
X156757153Y-99926570D01*
X156914673Y-99767145D01*
X157090122Y-99620147D01*
X157273410Y-99493803D01*
X157454451Y-99396338D01*
X157505015Y-99374681D01*
X157551100Y-99355971D01*
X157592639Y-99339201D01*
X157632079Y-99324258D01*
X157671864Y-99311030D01*
X157714439Y-99299403D01*
X157762249Y-99289267D01*
X157817739Y-99280507D01*
X157883353Y-99273013D01*
X157961535Y-99266671D01*
X158054732Y-99261368D01*
X158165388Y-99256994D01*
X158295948Y-99253434D01*
X158448855Y-99250577D01*
X158626556Y-99248310D01*
X158831495Y-99246521D01*
X159066117Y-99245097D01*
X159332867Y-99243926D01*
X159634189Y-99242895D01*
X159972528Y-99241893D01*
X160350330Y-99240805D01*
X160420359Y-99240599D01*
X162912734Y-99233209D01*
X162912734Y-100208667D01*
G37*
X162912734Y-100208667D02*
X160568525Y-100209086D01*
X160194960Y-100209347D01*
X159845487Y-100209980D01*
X159521904Y-100210972D01*
X159226003Y-100212305D01*
X158959582Y-100213966D01*
X158724433Y-100215937D01*
X158522354Y-100218205D01*
X158355137Y-100220754D01*
X158224580Y-100223568D01*
X158132475Y-100226631D01*
X158080620Y-100229929D01*
X158076150Y-100230481D01*
X157888148Y-100277944D01*
X157715560Y-100364740D01*
X157559103Y-100490504D01*
X157551046Y-100498479D01*
X157427470Y-100649283D01*
X157341016Y-100813463D01*
X157290599Y-100986167D01*
X157275131Y-101162546D01*
X157293526Y-101337749D01*
X157344698Y-101506924D01*
X157427561Y-101665221D01*
X157541027Y-101807790D01*
X157684012Y-101929779D01*
X157855428Y-102026338D01*
X157897137Y-102043801D01*
X157917091Y-102050636D01*
X157941945Y-102056640D01*
X157974575Y-102061891D01*
X158017858Y-102066470D01*
X158074669Y-102070454D01*
X158147885Y-102073924D01*
X158240382Y-102076958D01*
X158355036Y-102079636D01*
X158494722Y-102082035D01*
X158662319Y-102084237D01*
X158860700Y-102086319D01*
X159092743Y-102088361D01*
X159361324Y-102090441D01*
X159669318Y-102092640D01*
X159674234Y-102092674D01*
X161356984Y-102104361D01*
X161546695Y-102163143D01*
X161786043Y-102253273D01*
X162001140Y-102369727D01*
X162162377Y-102484656D01*
X162364225Y-102668786D01*
X162536066Y-102876801D01*
X162675272Y-103103910D01*
X162779215Y-103345320D01*
X162845267Y-103596237D01*
X162867217Y-103770112D01*
X162871021Y-104067241D01*
X162838594Y-104343342D01*
X162769263Y-104600362D01*
X162662350Y-104840250D01*
X162517181Y-105064954D01*
X162351817Y-105257310D01*
X162162955Y-105430812D01*
X161962502Y-105570776D01*
X161741256Y-105682751D01*
X161505150Y-105767733D01*
X161489268Y-105772120D01*
X161470517Y-105776172D01*
X161447189Y-105779908D01*
X161417577Y-105783345D01*
X161379972Y-105786502D01*
X161332668Y-105789396D01*
X161273956Y-105792046D01*
X161202129Y-105794469D01*
X161115479Y-105796685D01*
X161012298Y-105798710D01*
X160890880Y-105800563D01*
X160749515Y-105802262D01*
X160586498Y-105803825D01*
X160400118Y-105805270D01*
X160188671Y-105806615D01*
X159950446Y-105807879D01*
X159683738Y-105809079D01*
X159386837Y-105810234D01*
X159058037Y-105811361D01*
X158695630Y-105812479D01*
X158297908Y-105813605D01*
X157863164Y-105814758D01*
X157389689Y-105815956D01*
X156875777Y-105817217D01*
X156816734Y-105817360D01*
X156379221Y-105818393D01*
X155952345Y-105819346D01*
X155538083Y-105820218D01*
X155138413Y-105821006D01*
X154755314Y-105821708D01*
X154390766Y-105822321D01*
X154046745Y-105822844D01*
X153725230Y-105823275D01*
X153428201Y-105823610D01*
X153157634Y-105823848D01*
X152915510Y-105823986D01*
X152703806Y-105824023D01*
X152524501Y-105823956D01*
X152379572Y-105823783D01*
X152271000Y-105823501D01*
X152200761Y-105823109D01*
X152170835Y-105822604D01*
X152170650Y-105822592D01*
X151986957Y-105800162D01*
X151780794Y-105758504D01*
X151565249Y-105701365D01*
X151353407Y-105632493D01*
X151158354Y-105555636D01*
X151035915Y-105497592D01*
X150737812Y-105320650D01*
X150452615Y-105107595D01*
X150185798Y-104863992D01*
X149942839Y-104595404D01*
X149729212Y-104307397D01*
X149550393Y-104005534D01*
X149531841Y-103969255D01*
X149460969Y-103811660D01*
X149391578Y-103627367D01*
X149328720Y-103431858D01*
X149277446Y-103240616D01*
X149247601Y-103097917D01*
X149227912Y-102946106D01*
X149215508Y-102765857D01*
X149210415Y-102570435D01*
X149212658Y-102373109D01*
X149222265Y-102187145D01*
X149239260Y-102025812D01*
X149245422Y-101986415D01*
X149329158Y-101619197D01*
X149452226Y-101267539D01*
X149614954Y-100930552D01*
X149664429Y-100844165D01*
X149777503Y-100653167D01*
X151108706Y-100653167D01*
X150866470Y-100901875D01*
X150776780Y-100996496D01*
X150691014Y-101091532D01*
X150616695Y-101178329D01*
X150561344Y-101248230D01*
X150543615Y-101273402D01*
X150391085Y-101543162D01*
X150276851Y-101826655D01*
X150200867Y-102119892D01*
X150163089Y-102418885D01*
X150163475Y-102719645D01*
X150201978Y-103018185D01*
X150278556Y-103310517D01*
X150393164Y-103592651D01*
X150545758Y-103860600D01*
X150572731Y-103900496D01*
X150662181Y-104016068D01*
X150776418Y-104143238D01*
X150904380Y-104271088D01*
X151035006Y-104388697D01*
X151157235Y-104485146D01*
X151183843Y-104503764D01*
X151339750Y-104598179D01*
X151522208Y-104689957D01*
X151715679Y-104771920D01*
X151904625Y-104836894D01*
X151906067Y-104837323D01*
X152107150Y-104897084D01*
X161208817Y-104897084D01*
X161343720Y-104834813D01*
X161519868Y-104732797D01*
X161668422Y-104603790D01*
X161785414Y-104452151D01*
X161866873Y-104282241D01*
X161878094Y-104247961D01*
X161913214Y-104072701D01*
X161916878Y-103891635D01*
X161889816Y-103717221D01*
X161838676Y-103573905D01*
X161747343Y-103426110D01*
X161625073Y-103290017D01*
X161483264Y-103177090D01*
X161391726Y-103124325D01*
X161252142Y-103055584D01*
X159590063Y-103043129D01*
X159275173Y-103040763D01*
X158999497Y-103038554D01*
X158759916Y-103036298D01*
X158553311Y-103033790D01*
X158376565Y-103030824D01*
X158226559Y-103027194D01*
X158100174Y-103022696D01*
X157994293Y-103017124D01*
X157905796Y-103010272D01*
X157831566Y-103001936D01*
X157768485Y-102991910D01*
X157713433Y-102979989D01*
X157663292Y-102965966D01*
X157614945Y-102949638D01*
X157565272Y-102930799D01*
X157511156Y-102909242D01*
X157502152Y-102905638D01*
X157261180Y-102787184D01*
X157035658Y-102632709D01*
X156831568Y-102447455D01*
X156654894Y-102236662D01*
X156545503Y-102067629D01*
X156465066Y-101898005D01*
X156398949Y-101700892D01*
X156349969Y-101489542D01*
X156320942Y-101277208D01*
X156314686Y-101077139D01*
X156319232Y-101003057D01*
X156357052Y-100755685D01*
X156422043Y-100516254D01*
X156510792Y-100294862D01*
X156619889Y-100101607D01*
X156627648Y-100090194D01*
X156757153Y-99926570D01*
X156914673Y-99767145D01*
X157090122Y-99620147D01*
X157273410Y-99493803D01*
X157454451Y-99396338D01*
X157505015Y-99374681D01*
X157551100Y-99355971D01*
X157592639Y-99339201D01*
X157632079Y-99324258D01*
X157671864Y-99311030D01*
X157714439Y-99299403D01*
X157762249Y-99289267D01*
X157817739Y-99280507D01*
X157883353Y-99273013D01*
X157961535Y-99266671D01*
X158054732Y-99261368D01*
X158165388Y-99256994D01*
X158295948Y-99253434D01*
X158448855Y-99250577D01*
X158626556Y-99248310D01*
X158831495Y-99246521D01*
X159066117Y-99245097D01*
X159332867Y-99243926D01*
X159634189Y-99242895D01*
X159972528Y-99241893D01*
X160350330Y-99240805D01*
X160420359Y-99240599D01*
X162912734Y-99233209D01*
X162912734Y-100208667D01*
G36*
X152575794Y-106340378D02*
G01*
X152624488Y-106377424D01*
X152672346Y-106428367D01*
X152608836Y-106461209D01*
X152563067Y-106481385D01*
X152536583Y-106479141D01*
X152519438Y-106462859D01*
X152472132Y-106435363D01*
X152411979Y-106438254D01*
X152354398Y-106470410D01*
X152349319Y-106475248D01*
X152316935Y-106531079D01*
X152314629Y-106593317D01*
X152336628Y-106652118D01*
X152377158Y-106697638D01*
X152430449Y-106720031D01*
X152487539Y-106710964D01*
X152531774Y-106682082D01*
X152535833Y-106658063D01*
X152500546Y-106644545D01*
X152477567Y-106643334D01*
X152432185Y-106637638D01*
X152415583Y-106613428D01*
X152414067Y-106590417D01*
X152416756Y-106561090D01*
X152431450Y-106545256D01*
X152468090Y-106538774D01*
X152536615Y-106537501D01*
X152541067Y-106537500D01*
X152668067Y-106537500D01*
X152668067Y-106649353D01*
X152665606Y-106717038D01*
X152654186Y-106757086D01*
X152627749Y-106784097D01*
X152606593Y-106797520D01*
X152524832Y-106826054D01*
X152426372Y-106832712D01*
X152330627Y-106817706D01*
X152274797Y-106793924D01*
X152210562Y-106731951D01*
X152172857Y-106648154D01*
X152163206Y-106554865D01*
X152183130Y-106464419D01*
X152225856Y-106397480D01*
X152302345Y-106342081D01*
X152394457Y-106313680D01*
X152489753Y-106312904D01*
X152575794Y-106340378D01*
G37*
X152575794Y-106340378D02*
X152624488Y-106377424D01*
X152672346Y-106428367D01*
X152608836Y-106461209D01*
X152563067Y-106481385D01*
X152536583Y-106479141D01*
X152519438Y-106462859D01*
X152472132Y-106435363D01*
X152411979Y-106438254D01*
X152354398Y-106470410D01*
X152349319Y-106475248D01*
X152316935Y-106531079D01*
X152314629Y-106593317D01*
X152336628Y-106652118D01*
X152377158Y-106697638D01*
X152430449Y-106720031D01*
X152487539Y-106710964D01*
X152531774Y-106682082D01*
X152535833Y-106658063D01*
X152500546Y-106644545D01*
X152477567Y-106643334D01*
X152432185Y-106637638D01*
X152415583Y-106613428D01*
X152414067Y-106590417D01*
X152416756Y-106561090D01*
X152431450Y-106545256D01*
X152468090Y-106538774D01*
X152536615Y-106537501D01*
X152541067Y-106537500D01*
X152668067Y-106537500D01*
X152668067Y-106649353D01*
X152665606Y-106717038D01*
X152654186Y-106757086D01*
X152627749Y-106784097D01*
X152606593Y-106797520D01*
X152524832Y-106826054D01*
X152426372Y-106832712D01*
X152330627Y-106817706D01*
X152274797Y-106793924D01*
X152210562Y-106731951D01*
X152172857Y-106648154D01*
X152163206Y-106554865D01*
X152183130Y-106464419D01*
X152225856Y-106397480D01*
X152302345Y-106342081D01*
X152394457Y-106313680D01*
X152489753Y-106312904D01*
X152575794Y-106340378D01*
G36*
X161682767Y-106328644D02*
G01*
X161716714Y-106342017D01*
X161750905Y-106373365D01*
X161795338Y-106430101D01*
X161813689Y-106455295D01*
X161907317Y-106584756D01*
X161913619Y-106455295D01*
X161919920Y-106325834D01*
X162066067Y-106325834D01*
X162066067Y-106833834D01*
X161992693Y-106833834D01*
X161953514Y-106830368D01*
X161920176Y-106815359D01*
X161883836Y-106781892D01*
X161835656Y-106723051D01*
X161812776Y-106693094D01*
X161706234Y-106552354D01*
X161706234Y-106833834D01*
X161558067Y-106833834D01*
X161558067Y-106325834D01*
X161639064Y-106325834D01*
X161682767Y-106328644D01*
G37*
X161682767Y-106328644D02*
X161716714Y-106342017D01*
X161750905Y-106373365D01*
X161795338Y-106430101D01*
X161813689Y-106455295D01*
X161907317Y-106584756D01*
X161913619Y-106455295D01*
X161919920Y-106325834D01*
X162066067Y-106325834D01*
X162066067Y-106833834D01*
X161992693Y-106833834D01*
X161953514Y-106830368D01*
X161920176Y-106815359D01*
X161883836Y-106781892D01*
X161835656Y-106723051D01*
X161812776Y-106693094D01*
X161706234Y-106552354D01*
X161706234Y-106833834D01*
X161558067Y-106833834D01*
X161558067Y-106325834D01*
X161639064Y-106325834D01*
X161682767Y-106328644D01*
G36*
X155843067Y-100208667D02*
G01*
X147820900Y-100208667D01*
X147820900Y-105817834D01*
X146847234Y-105817834D01*
X146847234Y-100208667D01*
X144052439Y-100208667D01*
X144058128Y-99727125D01*
X144063817Y-99245584D01*
X149953442Y-99240254D01*
X155843067Y-99234925D01*
X155843067Y-100208667D01*
G37*
X155843067Y-100208667D02*
X147820900Y-100208667D01*
X147820900Y-105817834D01*
X146847234Y-105817834D01*
X146847234Y-100208667D01*
X144052439Y-100208667D01*
X144058128Y-99727125D01*
X144063817Y-99245584D01*
X149953442Y-99240254D01*
X155843067Y-99234925D01*
X155843067Y-100208667D01*
G36*
X157301804Y-106435815D02*
G01*
X157342364Y-106383100D01*
X157424474Y-106326993D01*
X157515596Y-106305914D01*
X157607261Y-106316386D01*
X157690999Y-106354931D01*
X157758340Y-106418073D01*
X157800815Y-106502334D01*
X157811255Y-106575593D01*
X157794559Y-106669062D01*
X157749401Y-106753450D01*
X157701145Y-106800799D01*
X157637718Y-106825652D01*
X157552880Y-106834838D01*
X157464160Y-106828800D01*
X157389084Y-106807981D01*
X157362203Y-106792218D01*
X157299026Y-106717756D01*
X157267534Y-106625965D01*
X157267970Y-106568485D01*
X157409400Y-106568485D01*
X157424878Y-106642262D01*
X157464832Y-106693802D01*
X157519542Y-106718816D01*
X157579290Y-106713015D01*
X157634355Y-106672110D01*
X157636942Y-106668901D01*
X157659928Y-106610553D01*
X157658969Y-106539842D01*
X157635010Y-106478645D01*
X157628370Y-106470375D01*
X157573315Y-106435299D01*
X157512811Y-106434160D01*
X157458016Y-106461958D01*
X157420093Y-106513692D01*
X157409400Y-106568485D01*
X157267970Y-106568485D01*
X157268276Y-106528200D01*
X157301804Y-106435815D01*
G37*
X157301804Y-106435815D02*
X157342364Y-106383100D01*
X157424474Y-106326993D01*
X157515596Y-106305914D01*
X157607261Y-106316386D01*
X157690999Y-106354931D01*
X157758340Y-106418073D01*
X157800815Y-106502334D01*
X157811255Y-106575593D01*
X157794559Y-106669062D01*
X157749401Y-106753450D01*
X157701145Y-106800799D01*
X157637718Y-106825652D01*
X157552880Y-106834838D01*
X157464160Y-106828800D01*
X157389084Y-106807981D01*
X157362203Y-106792218D01*
X157299026Y-106717756D01*
X157267534Y-106625965D01*
X157267970Y-106568485D01*
X157409400Y-106568485D01*
X157424878Y-106642262D01*
X157464832Y-106693802D01*
X157519542Y-106718816D01*
X157579290Y-106713015D01*
X157634355Y-106672110D01*
X157636942Y-106668901D01*
X157659928Y-106610553D01*
X157658969Y-106539842D01*
X157635010Y-106478645D01*
X157628370Y-106470375D01*
X157573315Y-106435299D01*
X157512811Y-106434160D01*
X157458016Y-106461958D01*
X157420093Y-106513692D01*
X157409400Y-106568485D01*
X157267970Y-106568485D01*
X157268276Y-106528200D01*
X157301804Y-106435815D01*
G36*
X160742773Y-106440201D02*
G01*
X160804340Y-106367000D01*
X160888684Y-106321696D01*
X160984752Y-106306737D01*
X161081490Y-106324573D01*
X161136587Y-106352927D01*
X161214339Y-106427837D01*
X161255920Y-106519193D01*
X161259299Y-106619322D01*
X161230104Y-106706600D01*
X161181425Y-106775310D01*
X161116465Y-106815675D01*
X161025739Y-106832561D01*
X160982191Y-106833834D01*
X160905415Y-106830417D01*
X160853127Y-106816501D01*
X160807776Y-106786584D01*
X160794320Y-106774939D01*
X160739211Y-106699358D01*
X160713177Y-106605157D01*
X160713809Y-106593145D01*
X160863457Y-106593145D01*
X160876849Y-106655918D01*
X160909238Y-106692763D01*
X160923067Y-106700592D01*
X160994836Y-106716695D01*
X161059578Y-106694986D01*
X161087109Y-106668901D01*
X161111648Y-106609933D01*
X161110597Y-106541961D01*
X161085823Y-106483517D01*
X161066524Y-106464617D01*
X160995618Y-106434064D01*
X160933265Y-106441140D01*
X160886875Y-106481157D01*
X160863853Y-106549426D01*
X160863457Y-106593145D01*
X160713809Y-106593145D01*
X160718381Y-106506397D01*
X160742773Y-106440201D01*
G37*
X160742773Y-106440201D02*
X160804340Y-106367000D01*
X160888684Y-106321696D01*
X160984752Y-106306737D01*
X161081490Y-106324573D01*
X161136587Y-106352927D01*
X161214339Y-106427837D01*
X161255920Y-106519193D01*
X161259299Y-106619322D01*
X161230104Y-106706600D01*
X161181425Y-106775310D01*
X161116465Y-106815675D01*
X161025739Y-106832561D01*
X160982191Y-106833834D01*
X160905415Y-106830417D01*
X160853127Y-106816501D01*
X160807776Y-106786584D01*
X160794320Y-106774939D01*
X160739211Y-106699358D01*
X160713177Y-106605157D01*
X160713809Y-106593145D01*
X160863457Y-106593145D01*
X160876849Y-106655918D01*
X160909238Y-106692763D01*
X160923067Y-106700592D01*
X160994836Y-106716695D01*
X161059578Y-106694986D01*
X161087109Y-106668901D01*
X161111648Y-106609933D01*
X161110597Y-106541961D01*
X161085823Y-106483517D01*
X161066524Y-106464617D01*
X160995618Y-106434064D01*
X160933265Y-106441140D01*
X160886875Y-106481157D01*
X160863853Y-106549426D01*
X160863457Y-106593145D01*
X160713809Y-106593145D01*
X160718381Y-106506397D01*
X160742773Y-106440201D01*
G36*
X158256067Y-106706834D02*
G01*
X158361900Y-106706834D01*
X158424551Y-106708221D01*
X158455793Y-106716751D01*
X158466545Y-106738976D01*
X158467734Y-106770334D01*
X158467734Y-106833834D01*
X158107900Y-106833834D01*
X158107900Y-106325834D01*
X158256067Y-106325834D01*
X158256067Y-106706834D01*
G37*
X158256067Y-106706834D02*
X158361900Y-106706834D01*
X158424551Y-106708221D01*
X158455793Y-106716751D01*
X158466545Y-106738976D01*
X158467734Y-106770334D01*
X158467734Y-106833834D01*
X158107900Y-106833834D01*
X158107900Y-106325834D01*
X158256067Y-106325834D01*
X158256067Y-106706834D01*
G36*
X145796630Y-106323123D02*
G01*
X145852930Y-106352292D01*
X145910913Y-106398539D01*
X145929992Y-106434295D01*
X145911180Y-106463169D01*
X145887714Y-106476228D01*
X145838587Y-106488868D01*
X145793139Y-106470743D01*
X145786091Y-106465948D01*
X145736419Y-106440178D01*
X145699524Y-106431667D01*
X145647511Y-106450402D01*
X145603419Y-106497229D01*
X145578985Y-106558076D01*
X145577234Y-106578297D01*
X145593442Y-106640341D01*
X145634508Y-106686711D01*
X145689092Y-106712366D01*
X145745856Y-106712268D01*
X145793460Y-106681376D01*
X145797442Y-106676174D01*
X145823170Y-106660304D01*
X145868546Y-106669183D01*
X145876817Y-106672206D01*
X145922529Y-106694678D01*
X145932666Y-106719789D01*
X145907559Y-106756111D01*
X145881059Y-106781928D01*
X145812159Y-106820181D01*
X145722790Y-106835321D01*
X145628301Y-106826799D01*
X145544039Y-106794072D01*
X145543797Y-106793924D01*
X145475177Y-106728633D01*
X145438019Y-106639288D01*
X145435123Y-106535458D01*
X145466694Y-106441662D01*
X145527666Y-106369569D01*
X145609003Y-106323141D01*
X145701669Y-106306338D01*
X145796630Y-106323123D01*
G37*
X145796630Y-106323123D02*
X145852930Y-106352292D01*
X145910913Y-106398539D01*
X145929992Y-106434295D01*
X145911180Y-106463169D01*
X145887714Y-106476228D01*
X145838587Y-106488868D01*
X145793139Y-106470743D01*
X145786091Y-106465948D01*
X145736419Y-106440178D01*
X145699524Y-106431667D01*
X145647511Y-106450402D01*
X145603419Y-106497229D01*
X145578985Y-106558076D01*
X145577234Y-106578297D01*
X145593442Y-106640341D01*
X145634508Y-106686711D01*
X145689092Y-106712366D01*
X145745856Y-106712268D01*
X145793460Y-106681376D01*
X145797442Y-106676174D01*
X145823170Y-106660304D01*
X145868546Y-106669183D01*
X145876817Y-106672206D01*
X145922529Y-106694678D01*
X145932666Y-106719789D01*
X145907559Y-106756111D01*
X145881059Y-106781928D01*
X145812159Y-106820181D01*
X145722790Y-106835321D01*
X145628301Y-106826799D01*
X145544039Y-106794072D01*
X145543797Y-106793924D01*
X145475177Y-106728633D01*
X145438019Y-106639288D01*
X145435123Y-106535458D01*
X145466694Y-106441662D01*
X145527666Y-106369569D01*
X145609003Y-106323141D01*
X145701669Y-106306338D01*
X145796630Y-106323123D01*
G36*
X153163947Y-106325834D02*
G01*
X153251924Y-106326692D01*
X153308335Y-106331131D01*
X153343942Y-106341944D01*
X153369505Y-106361925D01*
X153388109Y-106384035D01*
X153419859Y-106453766D01*
X153420627Y-106531051D01*
X153391720Y-106599863D01*
X153368532Y-106624490D01*
X153343827Y-106647512D01*
X153339871Y-106669265D01*
X153357935Y-106703821D01*
X153378472Y-106734492D01*
X153410044Y-106783419D01*
X153428281Y-106816450D01*
X153430067Y-106822127D01*
X153411349Y-106829643D01*
X153364943Y-106833596D01*
X153350692Y-106833776D01*
X153296669Y-106828826D01*
X153262073Y-106806700D01*
X153229886Y-106756334D01*
X153228984Y-106754651D01*
X153194229Y-106703531D01*
X153158942Y-106672069D01*
X153149609Y-106668490D01*
X153125589Y-106671400D01*
X153114752Y-106698791D01*
X153112567Y-106747615D01*
X153110175Y-106802545D01*
X153097092Y-106827215D01*
X153064455Y-106833657D01*
X153049067Y-106833834D01*
X152985567Y-106833834D01*
X152985567Y-106484584D01*
X153112567Y-106484584D01*
X153118035Y-106520254D01*
X153142721Y-106534943D01*
X153187314Y-106537500D01*
X153249886Y-106527437D01*
X153275065Y-106503614D01*
X153271753Y-106465761D01*
X153232903Y-106440541D01*
X153170775Y-106431991D01*
X153127914Y-106438685D01*
X153113347Y-106467152D01*
X153112567Y-106484584D01*
X152985567Y-106484584D01*
X152985567Y-106325834D01*
X153163947Y-106325834D01*
G37*
X153163947Y-106325834D02*
X153251924Y-106326692D01*
X153308335Y-106331131D01*
X153343942Y-106341944D01*
X153369505Y-106361925D01*
X153388109Y-106384035D01*
X153419859Y-106453766D01*
X153420627Y-106531051D01*
X153391720Y-106599863D01*
X153368532Y-106624490D01*
X153343827Y-106647512D01*
X153339871Y-106669265D01*
X153357935Y-106703821D01*
X153378472Y-106734492D01*
X153410044Y-106783419D01*
X153428281Y-106816450D01*
X153430067Y-106822127D01*
X153411349Y-106829643D01*
X153364943Y-106833596D01*
X153350692Y-106833776D01*
X153296669Y-106828826D01*
X153262073Y-106806700D01*
X153229886Y-106756334D01*
X153228984Y-106754651D01*
X153194229Y-106703531D01*
X153158942Y-106672069D01*
X153149609Y-106668490D01*
X153125589Y-106671400D01*
X153114752Y-106698791D01*
X153112567Y-106747615D01*
X153110175Y-106802545D01*
X153097092Y-106827215D01*
X153064455Y-106833657D01*
X153049067Y-106833834D01*
X152985567Y-106833834D01*
X152985567Y-106484584D01*
X153112567Y-106484584D01*
X153118035Y-106520254D01*
X153142721Y-106534943D01*
X153187314Y-106537500D01*
X153249886Y-106527437D01*
X153275065Y-106503614D01*
X153271753Y-106465761D01*
X153232903Y-106440541D01*
X153170775Y-106431991D01*
X153127914Y-106438685D01*
X153113347Y-106467152D01*
X153112567Y-106484584D01*
X152985567Y-106484584D01*
X152985567Y-106325834D01*
X153163947Y-106325834D01*
G36*
X148836900Y-106706834D02*
G01*
X148942734Y-106706834D01*
X149005384Y-106708221D01*
X149036626Y-106716751D01*
X149047378Y-106738976D01*
X149048567Y-106770334D01*
X149048567Y-106833834D01*
X148688734Y-106833834D01*
X148688734Y-106325834D01*
X148836900Y-106325834D01*
X148836900Y-106706834D01*
G37*
X148836900Y-106706834D02*
X148942734Y-106706834D01*
X149005384Y-106708221D01*
X149036626Y-106716751D01*
X149047378Y-106738976D01*
X149048567Y-106770334D01*
X149048567Y-106833834D01*
X148688734Y-106833834D01*
X148688734Y-106325834D01*
X148836900Y-106325834D01*
X148836900Y-106706834D01*
G36*
X160415067Y-106833834D02*
G01*
X160266900Y-106833834D01*
X160266900Y-106325834D01*
X160415067Y-106325834D01*
X160415067Y-106833834D01*
G37*
X160415067Y-106833834D02*
X160266900Y-106833834D01*
X160266900Y-106325834D01*
X160415067Y-106325834D01*
X160415067Y-106833834D01*
G36*
X146331837Y-106327867D02*
G01*
X146353392Y-106341648D01*
X146359943Y-106378697D01*
X146360400Y-106421084D01*
X146360400Y-106516334D01*
X146572067Y-106516334D01*
X146572067Y-106421084D01*
X146573648Y-106362558D01*
X146584367Y-106334844D01*
X146613183Y-106326421D01*
X146646150Y-106325834D01*
X146720234Y-106325834D01*
X146720234Y-106833834D01*
X146572067Y-106833834D01*
X146572067Y-106622167D01*
X146360400Y-106622167D01*
X146360400Y-106833834D01*
X146212234Y-106833834D01*
X146212234Y-106325834D01*
X146286317Y-106325834D01*
X146331837Y-106327867D01*
G37*
X146331837Y-106327867D02*
X146353392Y-106341648D01*
X146359943Y-106378697D01*
X146360400Y-106421084D01*
X146360400Y-106516334D01*
X146572067Y-106516334D01*
X146572067Y-106421084D01*
X146573648Y-106362558D01*
X146584367Y-106334844D01*
X146613183Y-106326421D01*
X146646150Y-106325834D01*
X146720234Y-106325834D01*
X146720234Y-106833834D01*
X146572067Y-106833834D01*
X146572067Y-106622167D01*
X146360400Y-106622167D01*
X146360400Y-106833834D01*
X146212234Y-106833834D01*
X146212234Y-106325834D01*
X146286317Y-106325834D01*
X146331837Y-106327867D01*
G36*
X162660056Y-106318480D02*
G01*
X162712330Y-106335337D01*
X162765313Y-106361668D01*
X162781887Y-106387253D01*
X162766341Y-106423003D01*
X162753666Y-106440518D01*
X162724781Y-106467560D01*
X162689752Y-106465133D01*
X162668676Y-106456393D01*
X162611424Y-106437703D01*
X162558826Y-106432135D01*
X162523136Y-106439587D01*
X162515704Y-106457660D01*
X162539761Y-106478848D01*
X162590249Y-106501811D01*
X162615864Y-106510144D01*
X162707457Y-106546237D01*
X162762036Y-106593059D01*
X162784515Y-106655474D01*
X162785734Y-106678364D01*
X162773363Y-106751815D01*
X162733609Y-106800308D01*
X162662510Y-106826677D01*
X162568193Y-106833834D01*
X162468550Y-106827197D01*
X162400557Y-106808180D01*
X162389035Y-106801415D01*
X162357434Y-106771335D01*
X162358380Y-106736606D01*
X162366556Y-106716748D01*
X162387735Y-106678367D01*
X162412051Y-106667457D01*
X162453012Y-106681596D01*
X162481689Y-106696120D01*
X162556065Y-106724376D01*
X162609919Y-106719077D01*
X162636508Y-106697526D01*
X162644843Y-106677999D01*
X162627785Y-106661354D01*
X162578590Y-106642593D01*
X162550914Y-106634121D01*
X162448325Y-106593962D01*
X162385651Y-106544928D01*
X162360944Y-106484426D01*
X162372255Y-106409864D01*
X162375549Y-106400865D01*
X162415251Y-106352010D01*
X162483323Y-106320551D01*
X162568634Y-106308652D01*
X162660056Y-106318480D01*
G37*
X162660056Y-106318480D02*
X162712330Y-106335337D01*
X162765313Y-106361668D01*
X162781887Y-106387253D01*
X162766341Y-106423003D01*
X162753666Y-106440518D01*
X162724781Y-106467560D01*
X162689752Y-106465133D01*
X162668676Y-106456393D01*
X162611424Y-106437703D01*
X162558826Y-106432135D01*
X162523136Y-106439587D01*
X162515704Y-106457660D01*
X162539761Y-106478848D01*
X162590249Y-106501811D01*
X162615864Y-106510144D01*
X162707457Y-106546237D01*
X162762036Y-106593059D01*
X162784515Y-106655474D01*
X162785734Y-106678364D01*
X162773363Y-106751815D01*
X162733609Y-106800308D01*
X162662510Y-106826677D01*
X162568193Y-106833834D01*
X162468550Y-106827197D01*
X162400557Y-106808180D01*
X162389035Y-106801415D01*
X162357434Y-106771335D01*
X162358380Y-106736606D01*
X162366556Y-106716748D01*
X162387735Y-106678367D01*
X162412051Y-106667457D01*
X162453012Y-106681596D01*
X162481689Y-106696120D01*
X162556065Y-106724376D01*
X162609919Y-106719077D01*
X162636508Y-106697526D01*
X162644843Y-106677999D01*
X162627785Y-106661354D01*
X162578590Y-106642593D01*
X162550914Y-106634121D01*
X162448325Y-106593962D01*
X162385651Y-106544928D01*
X162360944Y-106484426D01*
X162372255Y-106409864D01*
X162375549Y-106400865D01*
X162415251Y-106352010D01*
X162483323Y-106320551D01*
X162568634Y-106308652D01*
X162660056Y-106318480D01*
G36*
X144339790Y-106326156D02*
G01*
X144401241Y-106328410D01*
X144435818Y-106334529D01*
X144451248Y-106346444D01*
X144455260Y-106366089D01*
X144455400Y-106378750D01*
X144448566Y-106416568D01*
X144419514Y-106430403D01*
X144391900Y-106431667D01*
X144328400Y-106431667D01*
X144328400Y-106833834D01*
X144180234Y-106833834D01*
X144180234Y-106431667D01*
X144106150Y-106431667D01*
X144056051Y-106427713D01*
X144035541Y-106409922D01*
X144032067Y-106378750D01*
X144033355Y-106354736D01*
X144042372Y-106339373D01*
X144066847Y-106330729D01*
X144114509Y-106326872D01*
X144193087Y-106325869D01*
X144243734Y-106325834D01*
X144339790Y-106326156D01*
G37*
X144339790Y-106326156D02*
X144401241Y-106328410D01*
X144435818Y-106334529D01*
X144451248Y-106346444D01*
X144455260Y-106366089D01*
X144455400Y-106378750D01*
X144448566Y-106416568D01*
X144419514Y-106430403D01*
X144391900Y-106431667D01*
X144328400Y-106431667D01*
X144328400Y-106833834D01*
X144180234Y-106833834D01*
X144180234Y-106431667D01*
X144106150Y-106431667D01*
X144056051Y-106427713D01*
X144035541Y-106409922D01*
X144032067Y-106378750D01*
X144033355Y-106354736D01*
X144042372Y-106339373D01*
X144066847Y-106330729D01*
X144114509Y-106326872D01*
X144193087Y-106325869D01*
X144243734Y-106325834D01*
X144339790Y-106326156D01*
G36*
X147883718Y-106434853D02*
G01*
X147925571Y-106380727D01*
X147968015Y-106343134D01*
X148009458Y-106323466D01*
X148066353Y-106316102D01*
X148117234Y-106315250D01*
X148192200Y-106317767D01*
X148241403Y-106329066D01*
X148281295Y-106354767D01*
X148308896Y-106380727D01*
X148365766Y-106464260D01*
X148389197Y-106560052D01*
X148379655Y-106657129D01*
X148337606Y-106744516D01*
X148291431Y-106792218D01*
X148238161Y-106820236D01*
X148163415Y-106832564D01*
X148117234Y-106833834D01*
X148027873Y-106827778D01*
X147966177Y-106807509D01*
X147943036Y-106792218D01*
X147879449Y-106717476D01*
X147848056Y-106625685D01*
X147848797Y-106568485D01*
X147990234Y-106568485D01*
X148005711Y-106642262D01*
X148045665Y-106693802D01*
X148100375Y-106718816D01*
X148160123Y-106713015D01*
X148215188Y-106672110D01*
X148217775Y-106668901D01*
X148240761Y-106610553D01*
X148239802Y-106539842D01*
X148215844Y-106478645D01*
X148209203Y-106470375D01*
X148154149Y-106435299D01*
X148093644Y-106434160D01*
X148038849Y-106461958D01*
X148000926Y-106513692D01*
X147990234Y-106568485D01*
X147848797Y-106568485D01*
X147849324Y-106527819D01*
X147883718Y-106434853D01*
G37*
X147883718Y-106434853D02*
X147925571Y-106380727D01*
X147968015Y-106343134D01*
X148009458Y-106323466D01*
X148066353Y-106316102D01*
X148117234Y-106315250D01*
X148192200Y-106317767D01*
X148241403Y-106329066D01*
X148281295Y-106354767D01*
X148308896Y-106380727D01*
X148365766Y-106464260D01*
X148389197Y-106560052D01*
X148379655Y-106657129D01*
X148337606Y-106744516D01*
X148291431Y-106792218D01*
X148238161Y-106820236D01*
X148163415Y-106832564D01*
X148117234Y-106833834D01*
X148027873Y-106827778D01*
X147966177Y-106807509D01*
X147943036Y-106792218D01*
X147879449Y-106717476D01*
X147848056Y-106625685D01*
X147848797Y-106568485D01*
X147990234Y-106568485D01*
X148005711Y-106642262D01*
X148045665Y-106693802D01*
X148100375Y-106718816D01*
X148160123Y-106713015D01*
X148215188Y-106672110D01*
X148217775Y-106668901D01*
X148240761Y-106610553D01*
X148239802Y-106539842D01*
X148215844Y-106478645D01*
X148209203Y-106470375D01*
X148154149Y-106435299D01*
X148093644Y-106434160D01*
X148038849Y-106461958D01*
X148000926Y-106513692D01*
X147990234Y-106568485D01*
X147848797Y-106568485D01*
X147849324Y-106527819D01*
X147883718Y-106434853D01*
G36*
X155557317Y-106325834D02*
G01*
X155669543Y-106330411D01*
X155746142Y-106346665D01*
X155793079Y-106378378D01*
X155816317Y-106429332D01*
X155821900Y-106493631D01*
X155804634Y-106575018D01*
X155754190Y-106631199D01*
X155672596Y-106660474D01*
X155617962Y-106664500D01*
X155525567Y-106664500D01*
X155525567Y-106749167D01*
X155523324Y-106803376D01*
X155509476Y-106827467D01*
X155473344Y-106833644D01*
X155451484Y-106833834D01*
X155377400Y-106833834D01*
X155377400Y-106484584D01*
X155525567Y-106484584D01*
X155531341Y-106520772D01*
X155557036Y-106535280D01*
X155597386Y-106537500D01*
X155654770Y-106528340D01*
X155681264Y-106506073D01*
X155674848Y-106473059D01*
X155637782Y-106445826D01*
X155581705Y-106432108D01*
X155569292Y-106431667D01*
X155535201Y-106443399D01*
X155525567Y-106484584D01*
X155377400Y-106484584D01*
X155377400Y-106325834D01*
X155557317Y-106325834D01*
G37*
X155557317Y-106325834D02*
X155669543Y-106330411D01*
X155746142Y-106346665D01*
X155793079Y-106378378D01*
X155816317Y-106429332D01*
X155821900Y-106493631D01*
X155804634Y-106575018D01*
X155754190Y-106631199D01*
X155672596Y-106660474D01*
X155617962Y-106664500D01*
X155525567Y-106664500D01*
X155525567Y-106749167D01*
X155523324Y-106803376D01*
X155509476Y-106827467D01*
X155473344Y-106833644D01*
X155451484Y-106833834D01*
X155377400Y-106833834D01*
X155377400Y-106484584D01*
X155525567Y-106484584D01*
X155531341Y-106520772D01*
X155557036Y-106535280D01*
X155597386Y-106537500D01*
X155654770Y-106528340D01*
X155681264Y-106506073D01*
X155674848Y-106473059D01*
X155637782Y-106445826D01*
X155581705Y-106432108D01*
X155569292Y-106431667D01*
X155535201Y-106443399D01*
X155525567Y-106484584D01*
X155377400Y-106484584D01*
X155377400Y-106325834D01*
X155557317Y-106325834D01*
G36*
X154700067Y-106494679D02*
G01*
X154701090Y-106580026D01*
X154705997Y-106633648D01*
X154717541Y-106666138D01*
X154738478Y-106688089D01*
X154752984Y-106698197D01*
X154794411Y-106720592D01*
X154826985Y-106716970D01*
X154858817Y-106698197D01*
X154885355Y-106677543D01*
X154901152Y-106651535D01*
X154908964Y-106609581D01*
X154911544Y-106541087D01*
X154911734Y-106494679D01*
X154911734Y-106325834D01*
X155063987Y-106325834D01*
X155056652Y-106528774D01*
X155052465Y-106623864D01*
X155046425Y-106686681D01*
X155035892Y-106727280D01*
X155018225Y-106755715D01*
X154990781Y-106782040D01*
X154989928Y-106782774D01*
X154924398Y-106817279D01*
X154838360Y-106834672D01*
X154748148Y-106834305D01*
X154670096Y-106815527D01*
X154637867Y-106796792D01*
X154594605Y-106736243D01*
X154566240Y-106637733D01*
X154553235Y-106503100D01*
X154552405Y-106458125D01*
X154551900Y-106325834D01*
X154700067Y-106325834D01*
X154700067Y-106494679D01*
G37*
X154700067Y-106494679D02*
X154701090Y-106580026D01*
X154705997Y-106633648D01*
X154717541Y-106666138D01*
X154738478Y-106688089D01*
X154752984Y-106698197D01*
X154794411Y-106720592D01*
X154826985Y-106716970D01*
X154858817Y-106698197D01*
X154885355Y-106677543D01*
X154901152Y-106651535D01*
X154908964Y-106609581D01*
X154911544Y-106541087D01*
X154911734Y-106494679D01*
X154911734Y-106325834D01*
X155063987Y-106325834D01*
X155056652Y-106528774D01*
X155052465Y-106623864D01*
X155046425Y-106686681D01*
X155035892Y-106727280D01*
X155018225Y-106755715D01*
X154990781Y-106782040D01*
X154989928Y-106782774D01*
X154924398Y-106817279D01*
X154838360Y-106834672D01*
X154748148Y-106834305D01*
X154670096Y-106815527D01*
X154637867Y-106796792D01*
X154594605Y-106736243D01*
X154566240Y-106637733D01*
X154553235Y-106503100D01*
X154552405Y-106458125D01*
X154551900Y-106325834D01*
X154700067Y-106325834D01*
X154700067Y-106494679D01*
G36*
X159854956Y-106326156D02*
G01*
X159916408Y-106328410D01*
X159950984Y-106334529D01*
X159966414Y-106346444D01*
X159970427Y-106366089D01*
X159970567Y-106378750D01*
X159963732Y-106416568D01*
X159934680Y-106430403D01*
X159907067Y-106431667D01*
X159843567Y-106431667D01*
X159843567Y-106833834D01*
X159695400Y-106833834D01*
X159695400Y-106431667D01*
X159621317Y-106431667D01*
X159571217Y-106427713D01*
X159550707Y-106409922D01*
X159547234Y-106378750D01*
X159548522Y-106354736D01*
X159557539Y-106339373D01*
X159582014Y-106330729D01*
X159629676Y-106326872D01*
X159708254Y-106325869D01*
X159758900Y-106325834D01*
X159854956Y-106326156D01*
G37*
X159854956Y-106326156D02*
X159916408Y-106328410D01*
X159950984Y-106334529D01*
X159966414Y-106346444D01*
X159970427Y-106366089D01*
X159970567Y-106378750D01*
X159963732Y-106416568D01*
X159934680Y-106430403D01*
X159907067Y-106431667D01*
X159843567Y-106431667D01*
X159843567Y-106833834D01*
X159695400Y-106833834D01*
X159695400Y-106431667D01*
X159621317Y-106431667D01*
X159571217Y-106427713D01*
X159550707Y-106409922D01*
X159547234Y-106378750D01*
X159548522Y-106354736D01*
X159557539Y-106339373D01*
X159582014Y-106330729D01*
X159629676Y-106326872D01*
X159708254Y-106325869D01*
X159758900Y-106325834D01*
X159854956Y-106326156D01*
G36*
X150534717Y-106327703D02*
G01*
X150608246Y-106373062D01*
X150608982Y-106373794D01*
X150660105Y-106424917D01*
X150603963Y-106461703D01*
X150562184Y-106485136D01*
X150534699Y-106483393D01*
X150510902Y-106465078D01*
X150449811Y-106434734D01*
X150384360Y-106443155D01*
X150339734Y-106474000D01*
X150303133Y-106536554D01*
X150305344Y-106605794D01*
X150345929Y-106672540D01*
X150349355Y-106676046D01*
X150397790Y-106716563D01*
X150438954Y-106725433D01*
X150489165Y-106706156D01*
X150489292Y-106706089D01*
X150525545Y-106677030D01*
X150521369Y-106654463D01*
X150478647Y-106643632D01*
X150466734Y-106643334D01*
X150421352Y-106637638D01*
X150404750Y-106613428D01*
X150403234Y-106590417D01*
X150405923Y-106561090D01*
X150420617Y-106545256D01*
X150457256Y-106538774D01*
X150525782Y-106537501D01*
X150530234Y-106537500D01*
X150657234Y-106537500D01*
X150657234Y-106653373D01*
X150655201Y-106721662D01*
X150645256Y-106761365D01*
X150621627Y-106786178D01*
X150594785Y-106801540D01*
X150515899Y-106825857D01*
X150421523Y-106831988D01*
X150330700Y-106820218D01*
X150271062Y-106796690D01*
X150203007Y-106731490D01*
X150164423Y-106644998D01*
X150157264Y-106548096D01*
X150183487Y-106451666D01*
X150202829Y-106417077D01*
X150265409Y-106356888D01*
X150350269Y-106321004D01*
X150444381Y-106310813D01*
X150534717Y-106327703D01*
G37*
X150534717Y-106327703D02*
X150608246Y-106373062D01*
X150608982Y-106373794D01*
X150660105Y-106424917D01*
X150603963Y-106461703D01*
X150562184Y-106485136D01*
X150534699Y-106483393D01*
X150510902Y-106465078D01*
X150449811Y-106434734D01*
X150384360Y-106443155D01*
X150339734Y-106474000D01*
X150303133Y-106536554D01*
X150305344Y-106605794D01*
X150345929Y-106672540D01*
X150349355Y-106676046D01*
X150397790Y-106716563D01*
X150438954Y-106725433D01*
X150489165Y-106706156D01*
X150489292Y-106706089D01*
X150525545Y-106677030D01*
X150521369Y-106654463D01*
X150478647Y-106643632D01*
X150466734Y-106643334D01*
X150421352Y-106637638D01*
X150404750Y-106613428D01*
X150403234Y-106590417D01*
X150405923Y-106561090D01*
X150420617Y-106545256D01*
X150457256Y-106538774D01*
X150525782Y-106537501D01*
X150530234Y-106537500D01*
X150657234Y-106537500D01*
X150657234Y-106653373D01*
X150655201Y-106721662D01*
X150645256Y-106761365D01*
X150621627Y-106786178D01*
X150594785Y-106801540D01*
X150515899Y-106825857D01*
X150421523Y-106831988D01*
X150330700Y-106820218D01*
X150271062Y-106796690D01*
X150203007Y-106731490D01*
X150164423Y-106644998D01*
X150157264Y-106548096D01*
X150183487Y-106451666D01*
X150202829Y-106417077D01*
X150265409Y-106356888D01*
X150350269Y-106321004D01*
X150444381Y-106310813D01*
X150534717Y-106327703D01*
G36*
X149365210Y-106437986D02*
G01*
X149435221Y-106360263D01*
X149525531Y-106316198D01*
X149628240Y-106307874D01*
X149735447Y-106337374D01*
X149739509Y-106339271D01*
X149815018Y-106395788D01*
X149859592Y-106479775D01*
X149874067Y-106591482D01*
X149868853Y-106660001D01*
X149847090Y-106710381D01*
X149802100Y-106761867D01*
X149756384Y-106803277D01*
X149714646Y-106824805D01*
X149659607Y-106832793D01*
X149606309Y-106833728D01*
X149523565Y-106829259D01*
X149466591Y-106813235D01*
X149424944Y-106786103D01*
X149358579Y-106706253D01*
X149327670Y-106611401D01*
X149327939Y-106607129D01*
X149476568Y-106607129D01*
X149512045Y-106670025D01*
X149527671Y-106684131D01*
X149584008Y-106719989D01*
X149629053Y-106722900D01*
X149677276Y-106693509D01*
X149680319Y-106690959D01*
X149728406Y-106627790D01*
X149736476Y-106557786D01*
X149704394Y-106488959D01*
X149646463Y-106442251D01*
X149582351Y-106435197D01*
X149520063Y-106468428D01*
X149514234Y-106474000D01*
X149477017Y-106537411D01*
X149476568Y-106607129D01*
X149327939Y-106607129D01*
X149333957Y-106511675D01*
X149365210Y-106437986D01*
G37*
X149365210Y-106437986D02*
X149435221Y-106360263D01*
X149525531Y-106316198D01*
X149628240Y-106307874D01*
X149735447Y-106337374D01*
X149739509Y-106339271D01*
X149815018Y-106395788D01*
X149859592Y-106479775D01*
X149874067Y-106591482D01*
X149868853Y-106660001D01*
X149847090Y-106710381D01*
X149802100Y-106761867D01*
X149756384Y-106803277D01*
X149714646Y-106824805D01*
X149659607Y-106832793D01*
X149606309Y-106833728D01*
X149523565Y-106829259D01*
X149466591Y-106813235D01*
X149424944Y-106786103D01*
X149358579Y-106706253D01*
X149327670Y-106611401D01*
X149327939Y-106607129D01*
X149476568Y-106607129D01*
X149512045Y-106670025D01*
X149527671Y-106684131D01*
X149584008Y-106719989D01*
X149629053Y-106722900D01*
X149677276Y-106693509D01*
X149680319Y-106690959D01*
X149728406Y-106627790D01*
X149736476Y-106557786D01*
X149704394Y-106488959D01*
X149646463Y-106442251D01*
X149582351Y-106435197D01*
X149520063Y-106468428D01*
X149514234Y-106474000D01*
X149477017Y-106537411D01*
X149476568Y-106607129D01*
X149327939Y-106607129D01*
X149333957Y-106511675D01*
X149365210Y-106437986D01*
G36*
X155843067Y-104484334D02*
G01*
X154848234Y-104484334D01*
X154848234Y-103045000D01*
X152519900Y-103045000D01*
X152519900Y-102092500D01*
X155843067Y-102092500D01*
X155843067Y-104484334D01*
G37*
X155843067Y-104484334D02*
X154848234Y-104484334D01*
X154848234Y-103045000D01*
X152519900Y-103045000D01*
X152519900Y-102092500D01*
X155843067Y-102092500D01*
X155843067Y-104484334D01*
G36*
X158912234Y-106494679D02*
G01*
X158913257Y-106580026D01*
X158918164Y-106633648D01*
X158929708Y-106666138D01*
X158950644Y-106688089D01*
X158965150Y-106698197D01*
X159006578Y-106720592D01*
X159039151Y-106716970D01*
X159070984Y-106698197D01*
X159097521Y-106677543D01*
X159113319Y-106651535D01*
X159121131Y-106609581D01*
X159123711Y-106541087D01*
X159123900Y-106494679D01*
X159123900Y-106325834D01*
X159272067Y-106325834D01*
X159272067Y-106485263D01*
X159263184Y-106621274D01*
X159237113Y-106724504D01*
X159194721Y-106792206D01*
X159169417Y-106810963D01*
X159111101Y-106827748D01*
X159031818Y-106833494D01*
X158949050Y-106828727D01*
X158880277Y-106813975D01*
X158854266Y-106801459D01*
X158807991Y-106743881D01*
X158778153Y-106647785D01*
X158764903Y-106513729D01*
X158764185Y-106468709D01*
X158764067Y-106325834D01*
X158912234Y-106325834D01*
X158912234Y-106494679D01*
G37*
X158912234Y-106494679D02*
X158913257Y-106580026D01*
X158918164Y-106633648D01*
X158929708Y-106666138D01*
X158950644Y-106688089D01*
X158965150Y-106698197D01*
X159006578Y-106720592D01*
X159039151Y-106716970D01*
X159070984Y-106698197D01*
X159097521Y-106677543D01*
X159113319Y-106651535D01*
X159121131Y-106609581D01*
X159123711Y-106541087D01*
X159123900Y-106494679D01*
X159123900Y-106325834D01*
X159272067Y-106325834D01*
X159272067Y-106485263D01*
X159263184Y-106621274D01*
X159237113Y-106724504D01*
X159194721Y-106792206D01*
X159169417Y-106810963D01*
X159111101Y-106827748D01*
X159031818Y-106833494D01*
X158949050Y-106828727D01*
X158880277Y-106813975D01*
X158854266Y-106801459D01*
X158807991Y-106743881D01*
X158778153Y-106647785D01*
X158764903Y-106513729D01*
X158764185Y-106468709D01*
X158764067Y-106325834D01*
X158912234Y-106325834D01*
X158912234Y-106494679D01*
G36*
X156856043Y-106318469D02*
G01*
X156914076Y-106338829D01*
X156965217Y-106365985D01*
X156981901Y-106389076D01*
X156968838Y-106420098D01*
X156953999Y-106440518D01*
X156925115Y-106467560D01*
X156890085Y-106465133D01*
X156869010Y-106456393D01*
X156806024Y-106436283D01*
X156751276Y-106433176D01*
X156716829Y-106446679D01*
X156710900Y-106461556D01*
X156730696Y-106485631D01*
X156784666Y-106503749D01*
X156794944Y-106505645D01*
X156892511Y-106536084D01*
X156956747Y-106587499D01*
X156984956Y-106657479D01*
X156986067Y-106676620D01*
X156974003Y-106750726D01*
X156935053Y-106799630D01*
X156865078Y-106826322D01*
X156768527Y-106833834D01*
X156668884Y-106827197D01*
X156600890Y-106808180D01*
X156589368Y-106801415D01*
X156557846Y-106771574D01*
X156558517Y-106737220D01*
X156567139Y-106716200D01*
X156591810Y-106680897D01*
X156614006Y-106673160D01*
X156709538Y-106708892D01*
X156776399Y-106720945D01*
X156820480Y-106710087D01*
X156831094Y-106701545D01*
X156846645Y-106681282D01*
X156839502Y-106666061D01*
X156803006Y-106650195D01*
X156752579Y-106634517D01*
X156649612Y-106594384D01*
X156586540Y-106545612D01*
X156561350Y-106485537D01*
X156572025Y-106411497D01*
X156575882Y-106400865D01*
X156615507Y-106352033D01*
X156683087Y-106320615D01*
X156767105Y-106308723D01*
X156856043Y-106318469D01*
G37*
X156856043Y-106318469D02*
X156914076Y-106338829D01*
X156965217Y-106365985D01*
X156981901Y-106389076D01*
X156968838Y-106420098D01*
X156953999Y-106440518D01*
X156925115Y-106467560D01*
X156890085Y-106465133D01*
X156869010Y-106456393D01*
X156806024Y-106436283D01*
X156751276Y-106433176D01*
X156716829Y-106446679D01*
X156710900Y-106461556D01*
X156730696Y-106485631D01*
X156784666Y-106503749D01*
X156794944Y-106505645D01*
X156892511Y-106536084D01*
X156956747Y-106587499D01*
X156984956Y-106657479D01*
X156986067Y-106676620D01*
X156974003Y-106750726D01*
X156935053Y-106799630D01*
X156865078Y-106826322D01*
X156768527Y-106833834D01*
X156668884Y-106827197D01*
X156600890Y-106808180D01*
X156589368Y-106801415D01*
X156557846Y-106771574D01*
X156558517Y-106737220D01*
X156567139Y-106716200D01*
X156591810Y-106680897D01*
X156614006Y-106673160D01*
X156709538Y-106708892D01*
X156776399Y-106720945D01*
X156820480Y-106710087D01*
X156831094Y-106701545D01*
X156846645Y-106681282D01*
X156839502Y-106666061D01*
X156803006Y-106650195D01*
X156752579Y-106634517D01*
X156649612Y-106594384D01*
X156586540Y-106545612D01*
X156561350Y-106485537D01*
X156572025Y-106411497D01*
X156575882Y-106400865D01*
X156615507Y-106352033D01*
X156683087Y-106320615D01*
X156767105Y-106308723D01*
X156856043Y-106318469D01*
G36*
X145045972Y-106326201D02*
G01*
X145104723Y-106328695D01*
X145136999Y-106335401D01*
X145150732Y-106348407D01*
X145153849Y-106369799D01*
X145153900Y-106378750D01*
X145151211Y-106408077D01*
X145136517Y-106423911D01*
X145099877Y-106430393D01*
X145031352Y-106431666D01*
X145026900Y-106431667D01*
X144955968Y-106433211D01*
X144917640Y-106439997D01*
X144902235Y-106455250D01*
X144899900Y-106474000D01*
X144904953Y-106498465D01*
X144926801Y-106511209D01*
X144975475Y-106515882D01*
X145016317Y-106516334D01*
X145082870Y-106517400D01*
X145117511Y-106524388D01*
X145130659Y-106542981D01*
X145132733Y-106578862D01*
X145132734Y-106579834D01*
X145130779Y-106616135D01*
X145117968Y-106635030D01*
X145083880Y-106642202D01*
X145018097Y-106643333D01*
X145016317Y-106643334D01*
X144946111Y-106646184D01*
X144909966Y-106656186D01*
X144899900Y-106675084D01*
X144909654Y-106693519D01*
X144944229Y-106703417D01*
X145011598Y-106706771D01*
X145026900Y-106706834D01*
X145097199Y-106707665D01*
X145135143Y-106713486D01*
X145150709Y-106729284D01*
X145153876Y-106760050D01*
X145153900Y-106770334D01*
X145153900Y-106833834D01*
X144751734Y-106833834D01*
X144751734Y-106325834D01*
X144952817Y-106325834D01*
X145045972Y-106326201D01*
G37*
X145045972Y-106326201D02*
X145104723Y-106328695D01*
X145136999Y-106335401D01*
X145150732Y-106348407D01*
X145153849Y-106369799D01*
X145153900Y-106378750D01*
X145151211Y-106408077D01*
X145136517Y-106423911D01*
X145099877Y-106430393D01*
X145031352Y-106431666D01*
X145026900Y-106431667D01*
X144955968Y-106433211D01*
X144917640Y-106439997D01*
X144902235Y-106455250D01*
X144899900Y-106474000D01*
X144904953Y-106498465D01*
X144926801Y-106511209D01*
X144975475Y-106515882D01*
X145016317Y-106516334D01*
X145082870Y-106517400D01*
X145117511Y-106524388D01*
X145130659Y-106542981D01*
X145132733Y-106578862D01*
X145132734Y-106579834D01*
X145130779Y-106616135D01*
X145117968Y-106635030D01*
X145083880Y-106642202D01*
X145018097Y-106643333D01*
X145016317Y-106643334D01*
X144946111Y-106646184D01*
X144909966Y-106656186D01*
X144899900Y-106675084D01*
X144909654Y-106693519D01*
X144944229Y-106703417D01*
X145011598Y-106706771D01*
X145026900Y-106706834D01*
X145097199Y-106707665D01*
X145135143Y-106713486D01*
X145150709Y-106729284D01*
X145153876Y-106760050D01*
X145153900Y-106770334D01*
X145153900Y-106833834D01*
X144751734Y-106833834D01*
X144751734Y-106325834D01*
X144952817Y-106325834D01*
X145045972Y-106326201D01*
G36*
X153725033Y-106476436D02*
G01*
X153777720Y-106398322D01*
X153854027Y-106339097D01*
X153944606Y-106307561D01*
X153981442Y-106304667D01*
X154087782Y-106323052D01*
X154171683Y-106375139D01*
X154228733Y-106456329D01*
X154254520Y-106562020D01*
X154255567Y-106590508D01*
X154250460Y-106659441D01*
X154229019Y-106709786D01*
X154183600Y-106761867D01*
X154137994Y-106803196D01*
X154096350Y-106824747D01*
X154041470Y-106832823D01*
X153987227Y-106833834D01*
X153885788Y-106825691D01*
X153817684Y-106802061D01*
X153813541Y-106799317D01*
X153762342Y-106743062D01*
X153723567Y-106662995D01*
X153705673Y-106577454D01*
X153705592Y-106574542D01*
X153853724Y-106574542D01*
X153863263Y-106639843D01*
X153897908Y-106683540D01*
X153927484Y-106702707D01*
X153981661Y-106724745D01*
X154027268Y-106715935D01*
X154066250Y-106688965D01*
X154104391Y-106635613D01*
X154113279Y-106571130D01*
X154096626Y-106507679D01*
X154058147Y-106457425D01*
X154001554Y-106432533D01*
X153987703Y-106431667D01*
X153926598Y-106450603D01*
X153877963Y-106498490D01*
X153854348Y-106561946D01*
X153853724Y-106574542D01*
X153705592Y-106574542D01*
X153705313Y-106564638D01*
X153725033Y-106476436D01*
G37*
X153725033Y-106476436D02*
X153777720Y-106398322D01*
X153854027Y-106339097D01*
X153944606Y-106307561D01*
X153981442Y-106304667D01*
X154087782Y-106323052D01*
X154171683Y-106375139D01*
X154228733Y-106456329D01*
X154254520Y-106562020D01*
X154255567Y-106590508D01*
X154250460Y-106659441D01*
X154229019Y-106709786D01*
X154183600Y-106761867D01*
X154137994Y-106803196D01*
X154096350Y-106824747D01*
X154041470Y-106832823D01*
X153987227Y-106833834D01*
X153885788Y-106825691D01*
X153817684Y-106802061D01*
X153813541Y-106799317D01*
X153762342Y-106743062D01*
X153723567Y-106662995D01*
X153705673Y-106577454D01*
X153705592Y-106574542D01*
X153853724Y-106574542D01*
X153863263Y-106639843D01*
X153897908Y-106683540D01*
X153927484Y-106702707D01*
X153981661Y-106724745D01*
X154027268Y-106715935D01*
X154066250Y-106688965D01*
X154104391Y-106635613D01*
X154113279Y-106571130D01*
X154096626Y-106507679D01*
X154058147Y-106457425D01*
X154001554Y-106432533D01*
X153987703Y-106431667D01*
X153926598Y-106450603D01*
X153877963Y-106498490D01*
X153854348Y-106561946D01*
X153853724Y-106574542D01*
X153705592Y-106574542D01*
X153705313Y-106564638D01*
X153725033Y-106476436D01*
G36*
X147162433Y-106328644D02*
G01*
X147196381Y-106342017D01*
X147230572Y-106373365D01*
X147275004Y-106430101D01*
X147293356Y-106455295D01*
X147386984Y-106584756D01*
X147393285Y-106455295D01*
X147399587Y-106325834D01*
X147545734Y-106325834D01*
X147545734Y-106833834D01*
X147471136Y-106833834D01*
X147431213Y-106830571D01*
X147398324Y-106816017D01*
X147363430Y-106783021D01*
X147317490Y-106724431D01*
X147296511Y-106695702D01*
X147196484Y-106557571D01*
X147190225Y-106695702D01*
X147183966Y-106833834D01*
X147037734Y-106833834D01*
X147037734Y-106325834D01*
X147118731Y-106325834D01*
X147162433Y-106328644D01*
G37*
X147162433Y-106328644D02*
X147196381Y-106342017D01*
X147230572Y-106373365D01*
X147275004Y-106430101D01*
X147293356Y-106455295D01*
X147386984Y-106584756D01*
X147393285Y-106455295D01*
X147399587Y-106325834D01*
X147545734Y-106325834D01*
X147545734Y-106833834D01*
X147471136Y-106833834D01*
X147431213Y-106830571D01*
X147398324Y-106816017D01*
X147363430Y-106783021D01*
X147317490Y-106724431D01*
X147296511Y-106695702D01*
X147196484Y-106557571D01*
X147190225Y-106695702D01*
X147183966Y-106833834D01*
X147037734Y-106833834D01*
X147037734Y-106325834D01*
X147118731Y-106325834D01*
X147162433Y-106328644D01*
%TD*%
M02*
