<?xml version="1.0" encoding="UTF-8" standalone="no"?>
<svg
   xmlns:dc="http://purl.org/dc/elements/1.1/"
   xmlns:cc="http://creativecommons.org/ns#"
   xmlns:rdf="http://www.w3.org/1999/02/22-rdf-syntax-ns#"
   xmlns:svg="http://www.w3.org/2000/svg"
   xmlns="http://www.w3.org/2000/svg"
   xmlns:sodipodi="http://sodipodi.sourceforge.net/DTD/sodipodi-0.dtd"
   xmlns:inkscape="http://www.inkscape.org/namespaces/inkscape"
   width="100.0mm"
   height="100.0mm"
   viewBox="0 0 100.0 100.0"
   version="1.1"
   id="svg1008"
   sodipodi:docname="Edge.svg"
   inkscape:version="1.0.2 (e86c870879, 2021-01-15, custom)">
  <defs
     id="defs1002" />
  <sodipodi:namedview
     id="base"
     pagecolor="#ffffff"
     bordercolor="#666666"
     borderopacity="1.0"
     inkscape:pageopacity="0.0"
     inkscape:pageshadow="2"
     inkscape:zoom="1.4"
     inkscape:cx="117.79855"
     inkscape:cy="197.02118"
     inkscape:document-units="mm"
     inkscape:current-layer="g9907"
     inkscape:document-rotation="0"
     showgrid="false"
     inkscape:window-width="1920"
     inkscape:window-height="1046"
     inkscape:window-x="0"
     inkscape:window-y="0"
     inkscape:window-maximized="1" />
  <metadata
     id="metadata1005">
    <rdf:RDF>
      <cc:Work
         rdf:about="">
        <dc:format>image/svg+xml</dc:format>
        <dc:type
           rdf:resource="http://purl.org/dc/dcmitype/StillImage" />
        <dc:title></dc:title>
      </cc:Work>
    </rdf:RDF>
  </metadata>
  <g
     inkscape:label="[fixed] BG"
     inkscape:groupmode="layer"
     sodipodi:insensitive="true"
     id="g1576">
    <rect
       x="0"
       y="0"
       width="100.0"
       height="100.0"
       style="fill:#FFFFFF;fill-opacity:1;stroke:none"
       id="rect1574" />
  </g>
  <g
     inkscape:label="Edge.Cuts"
     inkscape:groupmode="layer"
     id="g1578" />
  <g
     inkscape:label="B.Cu"
     inkscape:groupmode="layer"
     id="g1580" />
  <g
     inkscape:label="B.Mask"
     inkscape:groupmode="layer"
     id="g1582" />
  <g
     inkscape:label="B.SilkS"
     inkscape:groupmode="layer"
     id="g1584" />
  <g
     inkscape:label="F.Cu"
     inkscape:groupmode="layer"
     id="g1586" />
  <g
     inkscape:label="F.Mask"
     inkscape:groupmode="layer"
     id="g1588" />
  <g
     inkscape:label="F.SilkS"
     inkscape:groupmode="layer"
     id="g1590" />
  <g
     inkscape:label="Dwgs.User"
     inkscape:groupmode="layer"
     id="g1592" />
  <g
     inkscape:label="Drill"
     inkscape:groupmode="layer"
     id="g1594">
    <g
       id="g9907"
       inkscape:label="Border-Flourish"
       style="display:inline"
       transform="translate(109.61313,58.964288)">
      <path
         inkscape:connector-curvature="0"
         id="path17275"
         d="m -76.455666,-53.177056 c -0.359335,1.015261 -1.391507,0.685907 -2.154567,0.318696 -1.79386,-0.863251 -3.85021,-2.146879 -5.838161,-0.936795 v 0.06863 c 1.044808,0.01223 0.124553,0.982696 0.07606,1.579594 -0.04059,0.498981 0.087,1.034617 0.688522,0.755445 v -0.06863 c -0.739021,-0.218195 -0.131202,-1.360851 0.215026,-1.713978 0.505626,-0.515753 2.114042,-1.003675 2.731654,-0.374601 0.195144,0.198776 0.168182,0.606565 0.319282,0.852381 0.170204,0.276948 0.525507,0.542511 0.53073,0.892812 0.01108,0.699033 -0.837362,0.60704 -1.086122,0.137346 0.821664,-0.160876 0.596124,-0.89919 -0.0028,-1.281498 -0.560422,-0.357797 -1.320031,-0.238563 -1.94331,-0.160718 v 0.06863 c 0.525438,0.08212 0.783218,0.392956 1.042521,0.824128 l -0.416997,0.480742 0.347502,-0.137356 c 0.04073,0.176405 0.118458,0.366684 0.111392,0.549425 -0.03949,1.017592 -1.366209,0.769646 -1.902522,1.206247 -0.22989,0.187159 -0.39785,1.237504 -0.88958,0.868743 -0.285947,-0.214431 -0.210065,-0.672771 0.04904,-0.867045 0.425477,-0.319044 1.021186,-0.125813 1.43533,-0.535848 0.226039,-0.223761 0.526214,-1.052792 -0.05639,-1.052792 -0.407702,0 -0.40173,0.47719 -0.06775,0.586725 -0.518794,0.880888 -2.398138,-0.05956 -2.015555,1.373554 -0.357631,-0.1069 -0.145848,-0.355394 -0.370834,-0.580052 -0.421528,-0.420903 -0.932654,-0.08898 -1.088714,-0.793502 0.620842,-0.0021 1.097484,-0.189773 1.598552,-0.549426 0.01399,0.41441 0.213998,0.573895 0.62551,0.618099 -0.206948,-0.561086 -0.109175,-1.075596 0,-1.648257 -1.080802,-0.315575 -1.347242,0.952281 -2.224062,1.304871 V -51.9409 c 0.933112,-0.265204 0.0013,-1.323415 0.834024,-1.71694 0.02785,0.496323 0.561834,0.570616 0.46136,0.06937 -0.198344,-0.989495 -1.406151,-0.09477 -1.642873,0.342659 -0.617613,-1.173017 -1.218531,-0.156396 -2.077825,-0.366231 -0.509034,-0.124305 -0.696488,-0.635357 -1.32779,-0.663937 0.02896,0.623812 0.54611,0.809042 0.671911,1.312028 0.212364,0.849125 -0.81647,1.442871 0.370626,2.053168 -0.440399,0.232733 -1.340578,1.428902 -0.346769,1.623408 0.507219,0.09931 0.43203,-0.428378 -0.07025,-0.455883 0.342335,-0.707783 0.829215,-0.176184 1.387309,-0.394369 0.363103,-0.141963 0.47775,-0.416012 0.906247,-0.42977 -0.359751,0.873551 -1.64254,1.120832 -1.320529,2.197682 0.579527,-0.10789 1.100225,-0.204512 1.668045,0 -0.04323,-0.414294 -0.197982,-0.604268 -0.625524,-0.618099 l 0.625524,-1.579583 c 0.482946,0.151378 0.607666,1.42441 1.112031,1.098841 h 0.06955 l 0.13899,0.343386 c -1.5116,-0.24861 -0.430534,1.443249 -1.390039,1.991653 -0.19046,-0.468123 -0.778728,-0.14986 -0.532851,0.258983 0.21605,0.359178 0.750841,0.122797 0.982588,-0.09509 0.447782,-0.420998 0.226039,-1.109583 0.62267,-1.517352 0.207584,-0.213409 0.647166,-0.217225 0.807214,0.0642 0.09934,0.174667 -0.0083,0.368583 -0.157181,0.474913 -0.247818,0.17748 -0.570424,0.126687 -0.753693,0.409739 -0.328938,0.508016 -0.190433,1.169655 -0.698012,1.625117 -0.31457,0.282197 -1.057028,0.313108 -0.896245,-0.259047 -0.273269,0.05577 -0.391948,0.152052 -0.48652,0.412059 -0.417275,-0.245037 -0.708222,-0.480258 -0.834024,-0.961486 h -0.06955 c -0.231817,1.233868 0.02452,2.370484 1.459532,2.403712 l 0.06955,-0.549415 h 0.06955 c 0.266121,0.340507 0.414615,1.087983 -0.278022,1.073023 -0.274972,-0.0064 -1.779035,-0.775444 -1.8743,-1.008399 -0.33319,-0.81465 -0.124414,-2.01396 0.554825,-2.587834 0.366664,-0.309734 1.453395,-0.850504 1.666992,-0.155215 h 0.06955 c 0.276414,-0.58139 -0.260538,-0.727591 -0.764514,-0.674847 -0.598036,0.06262 -1.586193,0.950593 -1.598537,-0.08065 h -0.06955 c -1.258585,2.141291 0.211076,4.041669 1.041497,5.974938 0.278728,0.64886 0.562873,1.72724 -0.415987,1.922969 -0.0041,-0.508617 -0.307241,-0.718368 -0.44285,-1.167514 -0.131619,-0.435695 0.455348,-1.563929 -0.456858,-1.542981 -0.503894,0.01159 -0.100581,0.478402 0.204689,0.512823 0.122337,0.956878 -0.647955,2.026517 0.486507,2.609742 v 0.06862 l -0.416996,-0.137352 c -0.203789,0.629769 -0.511306,1.538375 -0.302143,2.197683 0.09934,0.31296 0.408616,0.506909 0.488544,0.824117 0.155934,0.618732 0.02217,1.423083 0.02217,2.060348 v 12.842686 29.5313126 9.3401344 c 0,0.302872 0.05515,0.669609 -0.03921,0.961485 -0.111807,0.345462 -0.368618,0.582392 -0.414074,0.961495 -0.07551,0.629779 0.194048,1.311049 0.314223,1.922959 l 0.486507,-0.06863 c -1.055532,0.796632 -0.331999,1.308992 -0.496829,2.333656 -0.05126,0.318664 -0.414546,0.460122 -0.545707,0.756816 1.165634,0.529501 0.678282,-0.947052 0.802711,-1.44153 0.120397,-0.477318 0.437447,-0.690895 0.378828,-1.236895 0.814586,0.355763 0.86661,1.017118 0.561101,1.785614 -0.404058,1.016431 -1.105146,1.898248 -1.424994,2.953148 -0.33574,1.107075 -0.125939,2.170209 0.238383,3.227829 h 0.06955 c 0.03394,-1.032888 1.082992,-0.137346 1.668047,-0.08033 0.529178,0.05155 0.937392,-0.09066 0.764513,-0.67509 h -0.06955 c -0.198496,0.620829 -1.159039,0.24241 -1.529028,-0.03637 -0.743122,-0.560421 -1.188841,-1.904425 -0.673199,-2.769079 0.131481,-0.220472 0.383817,-0.215654 0.60369,-0.292571 0.417553,-0.145611 0.792127,-0.670969 1.250771,-0.650379 0.714914,0.03163 0.505294,0.778131 0.139281,1.069997 -0.200394,-0.789792 -0.911165,-0.627028 -1.322635,0 -0.380048,0.57964 -0.234172,1.215598 -0.206421,1.854295 l 0.973028,-0.961483 0.41701,0.412058 c -0.01829,-0.561085 0.61282,-0.571385 0.958217,-0.251361 0.501442,0.464949 0.345923,1.215598 0.745561,1.677786 0.158484,0.183384 0.37959,0.195054 0.586732,0.28983 0.175261,0.08107 0.368132,0.252732 0.301075,0.466995 -0.123307,0.394211 -0.680956,0.328289 -0.893404,0.07559 -0.365307,-0.43541 -0.266177,-2.065133 -1.346604,-1.729992 -0.580122,0.179938 -0.02119,1.0858 0.343457,0.43267 0.84282,0.632531 -0.09061,2.227222 1.390024,1.991653 -0.157403,0.267849 -0.453698,0.188856 -0.649686,0.422369 -0.33865,0.40451 -0.150947,0.835102 -0.740338,1.019846 -0.0013,-0.63388 -0.252862,-1.039075 -0.556016,-1.579571 0.404529,-0.03026 0.563456,-0.232144 0.625525,-0.6181 -0.567848,0.204648 -1.088506,0.107827 -1.66806,0 -0.475506,0.977963 0.981533,1.398265 1.320529,2.197671 -0.467776,-0.0052 -0.570494,-0.309049 -0.974093,-0.436094 -0.546858,-0.171008 -0.993505,0.285698 -1.319477,-0.388022 0.60495,-0.04534 0.409516,-0.626344 -0.06027,-0.438857 -0.828565,0.330334 0.05542,1.39897 0.477238,1.60636 -1.143232,0.564533 -0.350177,1.346091 -0.347517,2.266366 -0.513924,0.142849 -0.672505,0.611921 -0.695019,1.09883 0.613623,-0.03089 0.821983,-0.555592 1.32355,-0.662049 0.926864,-0.197776 1.360985,0.749266 2.082051,-0.368098 0.212558,0.475914 1.445208,1.29181 1.633825,0.342701 0.08452,-0.425131 -0.470726,-0.484885 -0.452299,0.001 l -0.06955,0.06864 c -0.604438,-0.345441 -0.168958,-0.780851 -0.317799,-1.298672 -0.119427,-0.41482 -0.492187,-0.480752 -0.446716,-0.967682 0.9537,0.383214 1.022226,1.373543 2.154553,1.373543 v -1.716929 c -0.392323,0.06178 -0.534361,0.228695 -0.556002,0.618098 -0.268378,-0.175119 -1.698429,-0.640069 -1.473388,-0.940885 0.192344,-0.256854 0.656975,-0.158642 0.905833,-0.390753 0.218917,-0.204669 0.09477,-0.549436 0.428539,-0.591321 -0.346866,1.309668 1.069675,0.594737 1.723228,1.088521 0.186539,0.141489 -0.181621,1.191571 0.490552,0.831012 0.436256,-0.233514 0.115548,-0.833753 -0.141581,-1.062439 -0.338123,-0.300815 -2.296659,-0.444339 -1.459284,-1.304881 0.148425,-0.152474 0.343915,-0.08381 0.477293,0.05219 0.238716,0.244499 0.187024,0.619469 0.512152,0.808346 0.509021,0.295987 1.164457,0.185419 1.608623,0.664106 0.281291,0.303557 0.344177,0.997192 -0.222408,0.914782 l 0.347515,0.480721 c -0.164372,0.418944 -0.467663,0.696408 -0.90353,0.824161 v 0.06863 c 0.591677,0.139433 1.445857,0.166221 1.943281,-0.232796 0.40004,-0.321417 0.763477,-1.083745 0.0028,-1.140737 0.08548,-0.541182 0.804069,-0.638013 0.970034,-0.06726 0.131759,0.452583 -0.462552,0.852275 -0.612321,1.234827 -0.07647,0.195044 -0.03381,0.481417 -0.191111,0.635936 -0.189255,0.186115 -0.611489,0.192304 -0.861636,0.227325 -1.423455,0.199156 -2.582827,-0.901045 -2.43256,-2.305499 h 0.278008 c -0.326402,-0.420999 -0.619054,0.05841 -0.625205,0.412069 -0.01109,0.642125 0.930589,1.822681 -0.06983,1.854287 0.323798,0.366051 0.855721,0.410688 1.320544,0.486234 1.651309,0.269916 3.035225,-0.629083 4.448137,-1.327525 0.733798,-0.362606 1.86445,-0.752716 2.224062,0.291865 -0.542812,0.0022 -0.775099,0.353011 -1.252088,0.445035 -0.451275,0.08718 -1.425964,-0.425121 -1.508053,0.377722 -0.04558,0.44572 0.449057,0.310431 0.46657,-0.06736 0.691057,-0.248589 1.146917,0.190943 1.807064,0.120194 0.412287,-0.0446 0.71127,-0.386641 0.973026,-0.669587 l -0.139017,0.412058 c 0.72101,0.268524 2.538494,0.770553 2.849585,-0.274723 h 27.522746 c 2.655621,0 5.33974,-0.113309 7.992466,10e-4 0.463645,0.01992 0.67515,0.464928 1.112307,0.578247 0.703582,0.1827 1.551625,-0.11605 2.224061,-0.304916 l -0.138989,-0.412069 c 0.917289,1.015745 1.613056,0.335152 2.780063,0.480742 0.01718,0.222517 0.378328,0.712875 0.45234,0.264412 0.153371,-0.929202 -1.0873,-0.427871 -1.494848,-0.506149 -0.472472,-0.0913 -0.722134,-0.440216 -1.25105,-0.445034 0.289203,-0.961506 1.301689,-0.719064 2.015578,-0.385292 1.825033,0.851611 3.956877,2.257447 5.977151,1.00339 v -0.06863 c -1.044808,-0.01243 -0.124553,-0.98279 -0.07592,-1.579584 0.04059,-0.499275 -0.08715,-1.034964 -0.688549,-0.755455 v 0.06863 c 0.673087,0.200559 0.213667,1.20941 -0.09311,1.579605 -0.580719,0.699802 -1.900098,1.015724 -2.746134,0.583045 -0.231469,-0.118791 -0.207057,-0.367412 -0.274335,-0.583045 -0.131896,-0.421685 -0.744426,-0.850242 -0.679309,-1.304882 0.09809,-0.684704 0.807256,-0.442282 1.082355,-0.06874 -0.832098,0.162773 -0.596526,0.890745 0.0055,1.281519 0.529955,0.343397 1.34774,0.269231 1.939832,0.160708 v -0.06864 c -0.866609,-0.15453 -0.892669,-0.5769 -0.625496,-1.236219 -0.482433,-0.0467 -0.565686,-0.531557 -0.302129,-0.89005 0.456691,-0.62085 1.336837,-0.375666 1.801273,-0.848175 0.217837,-0.221811 0.258542,-0.978647 0.718365,-0.873572 0.428857,0.09825 0.34476,0.714931 0.06844,0.913412 -0.412522,0.296693 -2.274105,0.381169 -1.658404,1.413394 0.284117,0.476609 0.942797,-0.164831 0.345508,-0.40178 0.496094,-0.84747 2.451471,0.01055 2.015548,-1.373555 0.357866,0.107142 0.142413,0.355077 0.370876,0.574843 0.401785,0.385967 0.891146,0.114701 1.088672,0.730049 -0.610312,0.07759 -1.090349,0.279521 -1.598566,0.618088 -0.01399,-0.422369 -0.206294,-0.575518 -0.625523,-0.618088 0.206975,0.561086 0.109175,1.07549 0,1.648257 1.086523,0.317293 1.346604,-0.951881 2.224089,-1.304871 v 0.549415 c -0.920144,0.263032 -0.0097,1.327537 -0.834024,1.71694 -0.02785,-0.496545 -0.56243,-0.570025 -0.461388,-0.06937 0.19603,0.970415 1.409754,0.08792 1.642929,-0.342689 0.616823,1.171614 1.218544,0.159305 2.078587,0.36604 0.508937,0.122935 0.702874,0.635262 1.326999,0.664117 -0.02924,-0.623591 -0.546289,-0.809032 -0.672075,-1.311744 -0.214069,-0.857791 0.828453,-1.43741 -0.37046,-2.053442 0.442753,-0.23421 1.34835,-1.427131 0.346838,-1.623545 -0.444819,-0.08718 -0.510504,0.483494 0.0013,0.387326 -0.03409,0.77675 -0.790783,0.309746 -1.249982,0.447102 -0.4073,0.122249 -0.499391,0.440217 -0.97408,0.44572 0.283231,-0.7019 0.974204,-0.797361 1.308102,-1.385224 0.09435,-0.16621 0.161781,-0.607124 -0.02951,-0.735531 -0.304775,-0.205354 -1.189548,0.08033 -1.626178,-0.07695 0.04475,0.406576 0.206186,0.604352 0.625553,0.618099 l -0.625553,1.579582 c -0.614662,-0.192988 -0.329214,-0.609169 -0.670884,-1.019867 -0.19524,-0.234188 -0.492145,-0.15453 -0.649631,-0.422358 1.522711,0.190226 0.41902,-1.436735 1.390053,-1.991653 0.250007,0.614672 0.923745,-0.09689 0.393084,-0.40932 -1.008205,-0.593376 -1.134614,1.346767 -1.407094,1.706652 -0.20383,0.269209 -0.766648,0.325516 -0.882584,-0.06874 -0.05556,-0.188836 0.07773,-0.36329 0.236112,-0.451878 0.219069,-0.121564 0.475256,-0.104369 0.648246,-0.3118 0.396922,-0.475946 0.224403,-1.221766 0.741501,-1.685345 0.343762,-0.308364 0.983792,-0.293931 0.965725,0.25892 l 0.417012,-0.412069 c 0.42369,0.224573 0.711091,0.491042 0.834051,0.961484 h 0.06955 c 0.187621,-0.777435 0.164012,-1.955946 -0.69531,-2.337094 -0.457052,-0.202604 -0.974149,0.563152 -1.13629,0.06936 -0.10862,-0.331019 0.247347,-0.695015 0.580537,-0.657231 0.289618,0.03299 0.532463,0.302175 0.764543,0.454629 0.41715,0.272657 0.984817,0.187505 1.091886,0.753399 0.161227,0.850905 0.09449,1.779446 -0.606419,2.38929 -0.360387,0.313171 -1.448075,0.836473 -1.66702,0.151768 h -0.06955 c -0.276415,0.581716 0.260551,0.727307 0.764514,0.675101 0.574359,-0.06041 1.63607,-0.965606 1.598538,0.08033 h 0.06955 c 1.122463,-1.909242 0.07579,-3.914622 -0.873246,-5.631562 -0.450443,-0.814502 -0.761161,-1.835067 0.247721,-2.335027 0.0011,0.542551 0.298181,0.75751 0.442741,1.236176 0.132034,0.436106 -0.443419,1.543201 0.457314,1.541135 0.499739,-10e-4 0.102105,-0.476609 -0.205035,-0.510967 -0.12303,-0.96491 0.655409,-2.022531 -0.48652,-2.60973 v -0.06874 l 0.417025,0.137368 c 0.203622,-0.629769 0.511543,-1.538374 0.302336,-2.197683 -0.106403,-0.335131 -0.444831,-0.539105 -0.500429,-0.892812 -0.136885,-0.871516 -0.0069,-1.845357 -0.02009,-2.727162 -0.06401,-4.19312 0.0097,-8.3941894 0.0097,-12.5878994 V -26.942499 l -0.01108,-8.898957 c 0,-0.387147 -0.07025,-0.895563 0.04932,-1.265316 0.119565,-0.369425 0.4059,-0.619131 0.432972,-1.030178 0.0424,-0.641987 -0.250202,-1.291957 -0.3329,-1.922959 l -0.486507,0.137356 c 1.056432,-0.797487 0.330808,-1.308655 0.496926,-2.333731 0.0521,-0.322575 0.421196,-0.450043 0.545596,-0.756752 -1.164859,-0.529311 -0.680416,0.9439 -0.797183,1.439539 -0.111946,0.472771 -0.383636,0.699748 -0.384328,1.238885 -0.882959,-0.385576 -0.837779,-1.132366 -0.495375,-1.92298 0.927668,-2.142946 2.058444,-3.654605 1.120871,-6.043621 h -0.06955 c -0.03339,1.015061 -1.080414,0.142059 -1.668046,0.08055 -0.55093,-0.05757 -0.903185,0.0913 -0.764514,0.674859 h 0.06955 c 0.20746,-0.64903 1.209248,-0.222718 1.586733,0.06209 0.720027,0.543448 1.102291,1.927439 0.615798,2.74347 -0.132035,0.220378 -0.38437,0.21557 -0.604008,0.292288 -0.417566,0.145727 -0.792099,0.670979 -1.250743,0.650717 -0.714984,-0.03163 -0.50528,-0.778597 -0.139267,-1.070199 0.215592,0.785323 0.923787,0.607726 1.322621,-2.42e-4 0.380172,-0.579429 0.234157,-1.215249 0.206407,-1.854022 l -0.973014,0.961485 -0.416997,-0.412059 c 0.01815,0.561223 -0.612902,0.571323 -0.958243,0.251088 -0.498145,-0.46186 -0.358338,-1.179744 -0.725667,-1.674181 -0.165827,-0.223223 -0.456982,-0.208706 -0.675069,-0.352504 -0.154161,-0.10163 -0.303181,-0.285551 -0.206614,-0.475124 0.194298,-0.381327 0.711618,-0.229951 0.896881,0.05609 0.304693,0.470539 0.300274,1.981564 1.317094,1.665989 0.587479,-0.182267 0.03783,-1.116162 -0.343429,-0.432869 -0.904959,-0.579514 0.142468,-2.235371 -1.390025,-1.991653 l 0.208499,-0.343386 h 0.06955 c 0.316163,0.32713 0.708929,-0.993628 1.112031,-1.098841 0.0013,0.633701 0.252848,1.039351 0.556029,1.579583 -0.40457,0.03025 -0.563455,0.232355 -0.62551,0.618099 0.604368,-0.21769 1.123141,-0.07843 1.737554,0 0.204385,-1.092009 -0.967623,-1.322118 -1.390052,-2.197682 0.466501,0.0053 0.57307,0.296525 0.974065,0.432416 0.544669,0.184565 0.991427,-0.286889 1.319492,0.391712 -0.604937,0.04565 -0.409378,0.626353 0.06041,0.438994 0.828401,-0.330477 -0.05562,-1.399083 -0.477513,-1.606514 1.150949,-0.568191 0.35026,-1.344658 0.347517,-2.266355 0.513578,-0.143018 0.672755,-0.612164 0.695005,-1.098841 -0.613706,0.0311 -0.822205,0.555561 -1.323523,0.662239 -0.672602,0.143081 -1.14323,-0.644286 -1.78919,-0.02899 -0.120259,0.114543 -0.203927,0.259068 -0.292901,0.396962 -0.208569,-0.467343 -1.313437,-1.260118 -1.613405,-0.408358 -0.151154,0.429232 0.452591,0.610477 0.431892,0.06494 l 0.06955,-0.06874 c 0.5891,0.424098 0.135083,0.75983 0.340368,1.304607 0.14672,0.389076 0.492976,0.501605 0.42416,0.961748 -0.64742,-0.305032 -0.779483,-0.891125 -1.323403,-1.243503 -0.178074,-0.115344 -0.599809,-0.22819 -0.758625,-0.01992 -0.197235,0.258804 0.01523,1.227785 -0.07246,1.606814 0.3981,-0.06273 0.542908,-0.221326 0.556,-0.618099 0.512928,0.335311 0.976353,0.544334 1.598538,0.549426 -0.08672,0.766799 -1.001568,0.411469 -1.251034,1.098841 0.07662,0.185051 -0.02909,0.221495 -0.208513,0.274703 0.381977,-1.442406 -1.485992,-0.464149 -1.94605,-1.373544 0.623529,-0.340782 -0.221079,-0.906748 -0.444333,-0.339369 -0.419436,1.066097 1.236654,1.006796 1.691267,1.339587 0.271344,0.198586 0.378385,0.739936 -0.01108,0.900285 -0.199345,0.08202 -0.38026,-0.09741 -0.471728,-0.253617 -0.147002,-0.251013 -0.142831,-0.521193 -0.420008,-0.689639 -0.497853,-0.302576 -1.174792,-0.187317 -1.608401,-0.660817 -0.273006,-0.298106 -0.325903,-0.994598 0.2222,-0.914529 -0.05583,-0.270643 -0.145903,-0.401273 -0.416997,-0.480742 0.272147,-0.393536 0.54863,-0.7297 1.042508,-0.824128 v -0.06863 c -0.581467,-0.106668 -1.352242,-0.177976 -1.876267,0.147256 -0.606849,0.376626 -0.882474,1.092442 -0.06983,1.294961 -0.251795,0.408158 -0.965518,0.592723 -1.051071,-0.06895 -0.06013,-0.465108 0.502426,-0.822272 0.644215,-1.235934 0.07939,-0.231668 0.023,-0.52093 0.278146,-0.651486 0.815125,-0.416993 2.127563,-0.150324 2.704832,0.517103 0.339633,0.392756 0.836226,1.316414 0.203954,1.645294 0.295133,0.411005 0.612958,0.02172 0.624472,-0.343439 0.01995,-0.633322 -0.879591,-1.892354 0.07053,-1.922916 -0.334669,-0.378577 -0.908252,-0.43133 -1.390049,-0.49935 -1.607168,-0.226893 -2.933835,0.627461 -4.309118,1.306515 -0.776762,0.383511 -1.873081,0.800408 -2.293571,-0.25775 0.501234,-0.0042 0.69531,-0.217552 1.123849,-0.404964 0.391159,-0.171081 0.829091,0.142638 1.238871,0.03173 0.233174,-0.06304 0.672573,-0.619121 0.257586,-0.742688 -0.26565,-0.07907 -0.45755,0.435726 -0.744092,0.481111 -0.441632,0.0699 -0.823536,-0.232333 -1.250703,-0.247883 -0.476158,-0.01729 -0.818091,0.358662 -1.11203,0.676651 l 0.138989,-0.412069 c -0.725638,-0.270549 -2.53708,-0.775064 -2.849544,0.274713 h -27.661348 c -2.609456,0 -5.246844,0.111475 -7.853447,-0.0011 -0.448433,-0.0194 -0.633033,-0.434557 -1.042812,-0.56155 -0.699398,-0.216772 -1.624335,0.07675 -2.293572,0.288165 l 0.139018,0.412069 h -0.06955 c -0.630803,-1.176662 -1.729008,-0.241945 -2.710584,-0.549423 -0.01108,-0.234536 -0.373506,-0.588549 -0.443486,-0.195856 -0.162432,0.911577 1.090472,0.428979 1.486023,0.506455 0.472804,0.09267 0.721842,0.440186 1.251035,0.444856 m 2.988575,-0.137356 c -0.203566,0.0063 -0.740601,0.256485 -0.272577,0.380695 0.225043,0.05978 0.469134,-0.189172 0.689602,-0.227705 0.549891,-0.09615 1.179503,-0.0156 1.737541,-0.0156 h 7.158691 19.877563 5.699172 c 0.373715,0 0.816496,-0.06368 1.181553,0.02161 0.212253,0.04955 0.450346,0.316018 0.677756,0.225217 0.389704,-0.155584 -0.08563,-0.370891 -0.260759,-0.384143 0.167836,-0.55846 0.86147,-0.493973 1.320544,-0.336438 1.082202,0.371365 1.623753,1.571951 2.849558,1.572109 0.663888,7.4e-5 1.507567,0.261155 1.529055,-0.617572 0.187164,0.05429 0.243524,0.138601 0.218157,0.343702 -0.05985,0.484454 -0.09213,0.854164 0.342376,1.202188 0.309984,0.248315 1.071575,0.416097 1.177009,-0.103631 0.201323,-1.1e-5 0.285864,-0.293879 0.173737,-0.469293 -0.09213,-0.144125 -0.316661,-0.112003 -0.370639,-0.286152 -0.190128,-0.613091 0.853822,-0.822621 1.239424,-0.892812 -0.482682,0.906675 -0.729559,1.778824 0.07606,2.60699 0.331404,0.340634 0.869061,0.503935 1.03601,0.964236 -0.464908,-0.01845 -0.813186,-0.05956 -1.042536,0.41207 0.535663,-0.296462 0.785629,0.0074 1.32053,-0.02182 0.239811,-0.01328 0.44515,-0.177965 0.691971,-0.121827 0.673047,0.153064 0.114855,0.683388 -0.20545,0.83038 h 0.556015 l -0.0701,0.480742 h 0.138989 c 0.046,-0.399175 0.52113,-0.753168 0.709871,-0.2047 0.09185,0.266595 -0.124276,0.492939 -0.124276,0.754116 0,0.542689 0.272951,0.761432 -0.02965,1.304881 0.519992,-0.269768 0.457674,-0.58953 0.41701,-1.098842 0.481021,0.194085 0.679655,0.743364 1.048716,1.086139 0.858878,0.79754 1.628213,0.466931 2.56537,0.08139 -0.01856,0.399776 -0.253,1.246696 -0.819503,1.141695 -0.337138,-0.06252 -0.430353,-0.502723 -0.841033,-0.252806 -0.661588,0.402591 -0.187107,1.333578 0.34009,1.594564 0.416014,0.205882 0.849872,-0.135501 1.181457,0.194971 -0.91661,0.04206 -0.743068,1.007365 -0.688509,1.716939 0.08354,1.08792 1.24936,1.688919 1.628852,2.678426 0.184905,0.481079 0.166824,1.109541 -0.384356,1.30486 -0.0055,-0.193452 -0.262421,-0.724946 -0.359252,-0.26941 -0.05583,0.26262 0.261632,0.486498 0.28567,0.752839 0.07149,0.787379 0.0041,1.610347 0.0041,2.401035 v 9.065422 28.9818966 10.8510234 c 0,1.050083 0.04309,2.109792 -0.0013,3.159189 -0.01108,0.255462 -0.234518,0.513686 -0.204966,0.752693 0.05652,0.456705 0.396008,0.03985 0.414781,-0.203279 0.586592,0.211513 0.516405,0.964912 0.310691,1.442217 -0.331542,0.768518 -1.114775,1.243071 -1.43738,1.991653 -0.173613,0.402434 -0.112638,0.814514 -0.09089,1.236198 0.0327,0.633891 -0.133421,0.927822 0.661519,1.030168 -0.343984,0.345442 -0.759735,-0.0234 -1.181553,0.184734 -0.554478,0.272647 -1.056156,1.192246 -0.344441,1.60499 0.421874,0.244489 0.493115,-0.195719 0.839661,-0.249295 0.586703,-0.09204 0.748402,0.746527 0.825337,1.137985 -0.434953,-0.155911 -0.844733,-0.438172 -1.320557,-0.466309 -1.159123,-0.068 -1.465228,1.190168 -2.293544,1.633834 0.0097,-0.483505 0.06955,-0.835809 -0.417025,-1.098852 0.285932,0.561791 -0.02162,0.821387 0.02937,1.373555 0.02328,0.252046 0.209594,0.494489 0.08465,0.747895 -0.224723,0.455335 -0.707751,0.127047 -0.669969,-0.267153 l -0.06955,0.480741 h -0.556042 c 0.314515,0.155216 0.845994,0.635949 0.207197,0.814515 -0.244425,0.06874 -0.455722,-0.09066 -0.69369,-0.106457 -0.558052,-0.03711 -0.813865,0.210847 -1.390038,-0.0213 0.317354,0.431973 0.612944,0.420978 1.112016,0.412059 -0.211754,0.428558 -0.709483,0.620165 -1.036037,0.96217 -0.797627,0.836494 -0.586052,1.699102 -0.07593,2.609078 -0.405012,-0.07559 -1.279103,-0.23421 -1.218655,-0.817267 0.03672,-0.353695 0.475908,-0.396972 0.261396,-0.827575 -0.3081,-0.618088 -1.187775,-0.299435 -1.499421,0.13529 -0.282387,0.393525 0.05736,1.058327 -0.323396,1.303501 -0.07412,-0.807641 -1.138575,-0.745156 -1.80705,-0.630445 -1.050031,0.181307 -1.588325,1.226563 -2.571577,1.58301 -0.501512,0.181993 -1.127867,0.190901 -1.390025,-0.334457 0.203566,-0.0074 0.740614,-0.256168 0.272604,-0.380483 -0.225068,-0.05977 -0.46916,0.188876 -0.689616,0.227335 -0.549904,0.09615 -1.179599,0.01581 -1.737554,0.01581 h -7.15864 -19.877549 -5.699171 c -0.373715,0 -0.81651,0.06389 -1.181526,-0.0213 -0.212266,-0.05018 -0.450372,-0.316608 -0.677797,-0.22528 -0.38969,0.155216 0.08548,0.37087 0.260773,0.383922 -0.16785,0.558333 -0.86147,0.493782 -1.32053,0.336522 -1.055477,-0.362625 -1.60189,-1.545943 -2.780077,-1.600205 -0.666257,-0.03089 -1.577839,-0.199155 -1.598552,0.645573 -0.405123,-0.240378 -0.03172,-0.890745 -0.333882,-1.302119 -0.333053,-0.453965 -1.291491,-0.774686 -1.560257,-0.07074 -0.157154,0.41207 0.285585,0.439564 0.319086,0.7637 0.05957,0.576889 -0.800938,0.737607 -1.205023,0.81522 0.484151,-0.909311 0.734076,-1.773953 -0.07606,-2.607011 -0.331375,-0.340635 -0.869046,-0.504093 -1.035995,-0.964236 0.464894,0.0052 0.798639,0.03774 1.042535,-0.412058 -0.522653,0.316597 -0.789896,-0.01507 -1.320543,0.0213 -0.262934,0.01782 -0.487379,0.203299 -0.756964,0.102999 -0.562554,-0.209467 -0.09879,-0.684053 0.270443,-0.742405 v -0.06863 h -0.55603 l 0.06955,-0.480742 h -0.06955 c -0.09809,0.36329 -0.584321,0.763688 -0.779353,0.203278 -0.08548,-0.245848 0.105988,-0.447766 0.127463,-0.68402 0.05084,-0.556975 -0.291058,-0.803519 0.02632,-1.373555 -0.507993,0.267165 -0.456954,0.598195 -0.417024,1.098852 -0.485967,-0.222518 -0.668183,-0.738292 -1.045321,-1.091989 -0.838263,-0.784973 -1.651837,-0.485549 -2.568779,-0.07549 0.01899,-0.407936 0.25034,-1.225888 0.819504,-1.137985 0.332483,0.05081 0.438831,0.487617 0.841046,0.248609 0.676358,-0.402454 0.176938,-1.335095 -0.339994,-1.602259 -0.417093,-0.214949 -0.84318,0.150418 -1.181553,-0.18678 0.891534,-0.114711 0.575967,-0.502037 0.655285,-1.167524 0.167669,-1.40652 -1.027684,-1.92707 -1.535319,-3.090494 -0.219029,-0.502038 -0.294924,-1.223146 0.324033,-1.442217 0.0041,0.145581 0.174306,0.729363 0.344275,0.324853 0.111252,-0.265119 -0.225111,-0.546696 -0.264541,-0.805605 -0.100167,-0.658603 -0.0097,-1.394143 -0.0097,-2.060316 V 7.1898496 -21.860732 -33.398537 -36.69506 c 0,-0.285562 0.280626,-0.791448 0.190806,-1.022125 -0.160451,-0.412069 -0.411622,0.115428 -0.468814,0.266659 -0.456816,-0.270233 -0.43638,-0.847954 -0.292167,-1.30486 0.30756,-0.974547 1.474178,-1.520726 1.599896,-2.541079 0.09157,-0.743289 0.2525,-1.778128 -0.682218,-1.854286 0.342598,-0.341394 0.76378,0.0388 1.181538,-0.176701 0.544905,-0.281027 1.05459,-1.201176 0.344441,-1.612824 -0.421888,-0.244572 -0.493128,0.195172 -0.839647,0.249296 -0.607582,0.09488 -0.772218,-0.800439 -0.825337,-1.206869 0.926642,0.550723 1.786573,0.747275 2.640007,-0.07158 0.347669,-0.333634 0.539626,-0.794325 0.974107,-1.027206 -0.0083,0.447228 -0.04503,0.737049 0.347503,1.030158 -0.135083,-0.505813 0.08174,-0.821862 0.04821,-1.304871 -0.01621,-0.233714 -0.178435,-0.443939 -0.108206,-0.683757 0.165688,-0.565555 0.678089,-0.170132 0.754982,0.203015 h 0.06955 l -0.06955,-0.480742 0.556029,-0.137358 c -0.351271,0.03269 -0.754151,-0.356268 -0.337166,-0.621282 0.278673,-0.177101 0.53932,0.03195 0.82366,0.05081 0.56387,0.03753 0.818325,-0.262937 1.390051,0.02108 -0.315539,-0.428631 -0.618083,-0.41479 -1.11203,-0.41207 0.210868,-0.436285 0.706131,-0.616665 1.036066,-0.962486 0.801962,-0.840732 0.587714,-1.695929 0.07592,-2.608739 0.395038,0.05039 1.309752,0.252289 1.221414,0.816284 -0.04836,0.308797 -0.442435,0.386726 -0.284672,0.762245 0.285448,0.67954 1.190781,0.397173 1.51994,-0.068 0.278715,-0.393789 -0.05541,-1.06091 0.323396,-1.304554 0.117211,0.83837 1.032795,0.673288 1.737555,0.620839 1.080123,-0.08033 1.660315,-1.21099 2.641058,-1.573469 0.503396,-0.186051 1.125318,-0.19574 1.390039,0.334531 m -13.552773,1.854303 c -0.668364,-0.0681 -0.902688,-0.543849 -0.556017,-1.098841 l -0.834008,-0.06874 -0.834024,-0.412058 c 0.04462,0.428093 0.298804,1.381102 0.625511,1.648256 0.396258,-0.554075 0.926877,0.107142 0.97304,0.549426 -0.36622,-0.02108 -0.77435,0.0084 -1.1093,-0.168457 -0.767064,-0.406197 -0.767258,-1.565456 -0.767258,-2.303938 0.75386,0 1.911819,0.0021 2.332335,0.758154 0.192358,0.345937 0.142094,0.72096 0.169721,1.096142 m 66.026948,-1.854296 c 0,0.766409 0.04308,1.899397 -0.764806,2.323759 -0.32855,0.17261 -0.751075,0.140329 -1.111739,0.148636 0.09449,-0.515416 0.558425,-0.997571 1.042508,-0.549425 h 0.06955 l 0.486535,-1.648257 -0.764528,0.412059 -0.903517,0.06874 v 0.137356 c 0.602912,0.348341 -0.03159,0.890082 -0.486535,0.961485 -0.05459,-1.556148 1.037756,-1.854296 2.432574,-1.854296 m -62.621264,4.876106 0.347517,1.304871 -1.320545,-0.343386 c -0.06844,0.534792 0.170427,1.455964 -0.285572,1.824483 -0.476211,0.384944 -1.442408,0.01233 -1.797282,0.601821 -0.211422,0.351219 0.171147,0.829148 0.112916,1.213606 -0.09227,0.609095 -0.705202,0.86169 -0.871251,1.442289 -0.143659,0.502312 0.12012,0.980503 -0.102104,1.510846 -0.310997,0.742184 -1.414575,1.328149 -1.530775,2.060391 -0.07329,0.462124 0.474607,0.60745 0.489292,1.030168 0.01109,0.298949 -0.167655,0.589444 -0.182591,0.892727 -0.05722,1.161747 -0.0028,2.339372 -0.0028,3.502563 v 14.696984 27.0589366 c 0,3.2910854 -0.244549,6.7139174 0.184336,9.9582354 0.06761,0.511642 -0.615272,0.641449 -0.48925,1.167512 0.165342,0.69021 1.150227,1.167515 1.464673,1.854287 0.278118,0.607115 -0.01247,1.1579 0.175622,1.71694 0.179848,0.534308 0.733618,0.811774 0.85087,1.373543 0.08271,0.396267 -0.292305,0.867405 -0.09823,1.22864 0.343831,0.640079 1.373427,0.223213 1.857744,0.655187 0.442019,0.394221 0.06429,1.287012 0.293885,1.824777 l 1.251035,-0.412079 c 0,0.273331 -0.344247,1.122876 -0.265844,1.263659 0.267299,0.478003 1.355291,-0.162068 1.759154,0.325538 0.399569,0.483484 0.03685,1.280834 0.549643,1.753343 0.319336,0.294607 0.949793,-0.11195 1.362648,-0.03711 0.548853,0.100253 0.802531,0.65039 1.320598,0.82689 0.415557,0.142175 0.88059,-0.07485 1.320461,0.02478 0.519037,0.117442 1.034057,0.461502 1.403671,0.830316 0.26522,0.263717 0.498823,0.668229 0.890952,0.754075 0.530495,0.11605 0.657002,-0.47251 1.140447,-0.458762 1.574291,0.0467 3.170058,0.142828 4.76617,0.142828 h 23.978169 c 2.807606,0 5.621668,0.0084 8.409753,-0.129113 0.491591,-0.02404 0.616062,0.572789 1.11174,0.486236 0.694341,-0.122239 1.263767,-1.146903 1.946359,-1.461435 0.598327,-0.275419 1.104715,0.0074 1.668046,-0.151104 0.563067,-0.157956 0.811356,-0.750637 1.39001,-0.850917 0.393944,-0.06874 0.896369,0.282261 1.243747,0.109883 0.695449,-0.34406 0.23916,-1.362558 0.662974,-1.833686 0.385242,-0.428536 1.31083,-0.111253 1.846397,-0.290505 l -0.347517,-1.236187 1.251035,0.343396 c 0.230265,-0.539146 -0.157916,-1.427826 0.293858,-1.824777 0.472055,-0.414115 1.513053,0.01581 1.855998,-0.655187 0.17849,-0.348868 -0.192178,-0.833732 -0.107097,-1.22864 0.12109,-0.56177 0.690752,-0.82961 0.857923,-1.373543 0.166657,-0.541866 -0.119705,-1.069986 0.14323,-1.648246 0.314999,-0.69296 1.346616,-1.232771 1.486368,-1.922979 0.09601,-0.474565 -0.475921,-0.607103 -0.50255,-1.030168 -0.01815,-0.289135 0.138408,-0.593389 0.142136,-0.892824 0.0151,-1.212813 0,-2.427051 0,-3.639888 V -1.1887374 -28.247654 c 0,-3.185871 -0.02493,-6.378214 -0.13259,-9.5461 -0.01497,-0.441461 0.544586,-0.562741 0.489056,-1.030295 -0.08396,-0.707519 -1.161214,-1.240182 -1.467236,-1.922907 -0.267021,-0.595843 0.0028,-1.15715 -0.176411,-1.716664 -0.175429,-0.547498 -0.747003,-0.785523 -0.844317,-1.373818 -0.06359,-0.384249 0.307628,-0.878939 0.112915,-1.221502 -0.342709,-0.603055 -1.322622,-0.230415 -1.796561,-0.599418 -0.466557,-0.363237 -0.217519,-1.286811 -0.285573,-1.818989 l -1.320516,0.343384 c 0,-0.272857 0.344136,-1.123751 0.265829,-1.263439 -0.222956,-0.397709 -1.321022,0.108156 -1.697992,-0.223624 -0.511094,-0.449885 -0.06012,-1.393099 -0.662124,-1.849889 -0.348348,-0.264329 -0.895136,0.154825 -1.311302,0.06188 -0.577214,-0.128891 -0.824561,-0.698927 -1.390093,-0.85662 -0.494183,-0.137788 -1.013927,0.103421 -1.529001,-0.08971 -0.747682,-0.280353 -1.467181,-1.55696 -2.223037,-1.527283 -0.403642,0.01581 -0.487269,0.503345 -0.904626,0.507404 -0.282872,0.0032 -0.550585,-0.155173 -0.833954,-0.177786 -0.937781,-0.07485 -1.908591,-0.0063 -2.849587,-0.0063 h -21.893193 c -3.595479,0 -7.253083,-0.194792 -10.842301,0.0032 -0.287801,0.01592 -0.548643,0.16484 -0.833952,0.174929 -0.431115,0.01529 -0.54726,-0.503661 -0.973374,-0.485666 -0.701766,0.02962 -1.356675,1.146957 -2.015285,1.457219 -0.613013,0.288766 -1.16443,-0.02035 -1.737264,0.170101 -0.545611,0.18135 -0.798721,0.778912 -1.390329,0.863188 -0.38329,0.05461 -0.817967,-0.275894 -1.168669,-0.138843 -0.716495,0.279984 -0.2746,1.384549 -0.683756,1.851597 -0.343275,0.391934 -1.337847,0.163555 -1.831171,0.225164 m 56.435559,0.20603 -0.347461,1.373554 c 0.50909,0.08012 1.064344,0.0084 1.529028,-0.20604 -0.0013,0.337007 -0.103493,0.697979 -0.05431,1.030169 0.148092,1.003516 1.433458,0.774472 2.139381,1.098829 -0.167586,0.517905 -0.330891,1.066023 -0.05459,1.579584 0.197983,0.368108 0.607707,0.609865 0.704233,1.030231 0.167032,0.727023 -0.07399,1.276849 0.354942,1.991591 0.25954,0.432531 1.281127,1.100411 1.288609,1.573458 0.0055,0.328763 -0.478042,0.506582 -0.492603,0.898926 -0.03741,1.013954 0.145487,2.119795 0.145487,3.159167 v 11.537817 30.3554506 c 0,3.7513644 -0.02466,7.5140064 -0.147358,11.2431884 -0.01399,0.425132 0.521836,0.64901 0.482613,0.984161 -0.06512,0.558346 -1.109508,1.159261 -1.375005,1.714189 -0.318464,0.666172 -0.0877,1.279443 -0.295548,1.922284 -0.156211,0.482798 -0.661241,0.718357 -0.782497,1.236883 -0.0841,0.359178 0.220455,0.986881 0.02978,1.269838 -0.258625,0.383901 -1.066864,0.199146 -1.455583,0.376353 -0.761093,0.346137 -0.489362,1.140736 -0.487546,1.787668 l -1.459576,-0.343387 0.278008,1.510891 c -0.635707,-0.0022 -1.39454,-0.30011 -1.775267,0.414831 -0.210245,0.394886 0.0097,1.239634 -0.41395,1.503341 -0.295381,0.184048 -0.920545,-0.100254 -1.285851,-0.01718 -0.528916,0.120879 -0.763544,0.611248 -1.252087,0.772619 -0.651502,0.214284 -1.265916,-0.05218 -1.945016,0.291897 -0.50255,0.254787 -1.219127,1.319977 -1.733786,1.335084 -0.371609,0.01171 -0.535593,-0.504094 -0.976781,-0.491052 -0.307671,0.0094 -0.593548,0.1559 -0.903531,0.171008 -3.157409,0.151788 -6.360192,0.0032 -9.521756,0.0032 h -18.974023 c -2.247143,0 -4.494549,0.01107 -6.741693,0 -0.404085,-0.0022 -0.787331,-0.192968 -1.181538,-0.181308 -0.388291,0.01244 -0.561862,0.481428 -0.906235,0.480731 -0.275984,0 -0.485827,-0.32345 -0.652291,-0.499275 -0.323507,-0.342015 -0.722866,-0.662756 -1.152056,-0.865338 -0.667421,-0.314542 -1.307604,-0.05841 -1.943339,-0.280194 -0.457522,-0.160023 -0.679723,-0.631836 -1.184241,-0.747213 -0.367384,-0.08381 -0.999503,0.201222 -1.291421,0.02741 -0.440981,-0.261651 -0.2103,-1.104323 -0.416443,-1.499894 -0.390259,-0.748603 -1.11983,-0.423751 -1.767245,-0.418258 l 0.278021,-1.510901 -1.459534,0.274704 c -0.08243,-0.379779 0.128433,-0.72386 0.03061,-1.098831 -0.246378,-0.945018 -1.432559,-0.650379 -2.115746,-1.030168 0.153288,-0.533634 0.319752,-1.050758 0.03879,-1.579583 -0.190599,-0.358494 -0.576798,-0.552167 -0.679628,-0.961475 -0.186179,-0.741739 0.05515,-1.330289 -0.384771,-2.060325 -0.287761,-0.478002 -1.15843,-0.98896 -1.270015,-1.508855 -0.07634,-0.355743 0.52602,-0.629084 0.475519,-1.100897 -0.390049,-3.646076 -0.125939,-7.449846 -0.125939,-11.1257474 V -28.658953 c 0,-3.037266 0.161089,-6.11863 0.133282,-9.134106 -0.0041,-0.419216 -0.507385,-0.628198 -0.498005,-0.966913 0.01247,-0.465646 1.047592,-1.143077 1.306272,-1.574165 0.425893,-0.709776 0.174708,-1.27589 0.353197,-1.991579 0.105295,-0.422434 0.516586,-0.649821 0.704247,-1.030232 0.263294,-0.533749 0.07205,-1.039772 -0.05293,-1.579584 0.722188,-0.315849 1.966198,-0.05756 2.130653,-1.09883 0.05167,-0.327456 -0.0453,-0.695986 -0.04558,-1.030169 l 1.390039,0.343386 c 0.107928,-0.490978 0.01745,-1.066559 -0.208526,-1.510898 0.648245,0.0022 1.420489,0.248957 1.784964,-0.481018 0.19912,-0.398723 -0.06083,-1.236471 0.404293,-1.502318 0.285656,-0.163291 0.857438,0.173538 1.216344,0.09267 0.557415,-0.12556 0.804983,-0.648303 1.321581,-0.795727 0.577075,-0.164661 1.13866,0.06578 1.736503,-0.189815 0.442602,-0.189246 0.843624,-0.496145 1.1805,-0.832668 0.194672,-0.194412 0.401369,-0.540855 0.694313,-0.591975 0.388886,-0.06789 0.640266,0.485529 1.113777,0.441219 3.912403,-0.366157 7.933166,-0.192366 11.884848,-0.192366 7.940815,0 15.899044,-0.153487 23.838126,0.0021 0.499766,0.0095 0.974689,0.186315 1.460572,0.194886 0.428137,0.0074 0.60919,-0.497262 0.975536,-0.488354 0.269376,0.0063 0.465599,0.32598 0.62921,0.4978 0.321441,0.337461 0.685846,0.636759 1.105822,0.847079 0.682661,0.341836 1.284827,0.104053 1.945792,0.307025 0.512027,0.157271 0.761812,0.670336 1.320805,0.79054 0.356134,0.07654 0.92056,-0.257044 1.215595,-0.08223 0.406925,0.241115 0.220609,1.062723 0.36503,1.434079 0.311909,0.801767 1.169291,0.55125 1.824949,0.549468 m -60.813893,-4.257999 c -0.202083,0.921645 0.888499,1.050283 1.11203,1.785613 -0.742361,-0.220325 -0.855151,-1.107581 -1.737554,-1.167525 l 0.278022,-0.206029 0.347502,-0.412059 m 65.540373,0 0.625495,0.686772 -0.834008,0.137356 0.208513,-0.824128 m -57.825652,0.480742 0.06955,0.06863 -0.06955,-0.06863 m 0.208511,0.06863 0.06955,0.06863 -0.06955,-0.06863 m -0.139003,0.06863 0.06955,0.06863 -0.06955,-0.06863 m -4.865147,0.137367 -0.06955,0.06863 0.06955,-0.06863 m 59.702209,0 -0.06955,0.06863 0.06955,-0.06863 m -55.045574,0.137346 0.06955,0.06863 -0.06955,-0.06863 m 57.617126,0.06863 c -0.214152,0.385281 -0.381572,0.707013 -0.83401,0.824129 0.15017,-0.414663 0.472333,-0.590889 0.83401,-0.824129 m -65.053839,2.541068 -0.06955,0.06864 0.06955,-0.06864 m 65.262324,0 -0.06941,0.06864 0.06941,-0.06864 m -62.551742,3.021811 0.06955,0.06863 -0.06955,-0.06863 m -2.571578,1.30487 0.06955,0.06863 -0.06955,-0.06863 m 65.748857,0.41206 0.06955,0.06864 -0.06955,-0.06864 m 1.042536,8.035274 0.208471,0.274702 -0.208471,-0.274702 m 0.208471,2.335028 -0.277993,0.274712 0.277993,-0.274712 m -0.208471,23.487711 0.208471,0.274703 -0.208471,-0.274703 m 0.208471,1.9229596 -0.277993,0.274702 0.277993,-0.274702 m -0.208471,22.8696034 0.208471,0.274713 -0.208471,-0.274713 m 0.208471,2.266366 -0.277993,0.274712 0.277993,-0.274712 m -66.999864,12.842697 -0.06955,0.06863 0.06955,-0.06863 m 65.262365,0 -0.06955,0.06863 0.06955,-0.06863 m -60.049714,1.030136 -0.06955,0.06874 0.06955,-0.06874 m -0.139004,0.06874 -0.06955,0.06863 0.06955,-0.06863 m -4.100621,0.686782 c -0.15157,0.42373 -0.465309,0.587168 -0.834023,0.824129 0.212004,-0.377744 0.390937,-0.708763 0.834023,-0.824129 m 63.316284,0 c 0.670553,0.298729 0.845426,1.287676 1.737554,1.09883 l -0.625551,0.61811 c -0.02078,-0.442295 -0.214373,-0.729374 -0.555987,-1.015062 -0.244369,-0.203973 -0.617185,-0.331726 -0.556016,-0.701879 m -64.080797,0.137347 c -0.115825,0.641438 -0.531258,0.898293 -1.112045,0.549404 l -0.486506,1.648257 0.764528,-0.41205 0.903517,-0.06874 v -0.137335 c -0.640819,-0.370195 0.08909,-0.9196 0.556015,-0.961495 -0.08618,0.357808 -0.02341,0.760263 -0.192413,1.096078 -0.374436,0.743101 -1.593646,0.758197 -2.309655,0.758197 0,-0.753378 -0.02522,-1.907166 0.764846,-2.324021 0.332969,-0.175151 0.747501,-0.134626 1.111713,-0.148353 m 66.652361,2.472374 c -1.39274,0 -2.501847,-0.296693 -2.502083,-1.854275 0.668432,0.068 0.902701,0.543933 0.556044,1.09883 l 1.668031,0.480732 c -0.02715,-0.260965 -0.270069,-1.317889 -0.45647,-1.468309 -0.160769,-0.129797 -0.401175,0.02678 -0.585692,0.0064 -0.378245,-0.04122 -0.515587,-0.414114 -0.556374,-0.73554 1.594158,0.001 1.876544,1.082363 1.876544,2.472384 m -66.860874,-1.648256 -0.2085,0.824138 -0.625523,-0.686771 0.834023,-0.137367 m 2.78009,0 -0.06955,0.06874 0.06955,-0.06874 m 59.702156,0 -0.06955,0.06874 z"
         style="fill:#ffcc00;fill-opacity:1;stroke:none;stroke-width:0.0690885" />
      <path
         inkscape:connector-curvature="0"
         d="m -92.488702,-56.796751 v 94.191396 h 74.600269 v -94.191396 z m 2.032133,2.565717 h 70.536059 v 89.059962 h -70.536059 z"
         style="fill:#ffcc00;stroke-width:0.0109872"
         id="path17273" />
    </g>
  </g>
</svg>
