%TF.GenerationSoftware,KiCad,Pcbnew,(6.0.7)*%
%TF.CreationDate,2022-09-05T18:43:59-05:00*%
%TF.ProjectId,Tines SAO,54696e65-7320-4534-914f-2e6b69636164,rev?*%
%TF.SameCoordinates,Original*%
%TF.FileFunction,Profile,NP*%
%FSLAX46Y46*%
G04 Gerber Fmt 4.6, Leading zero omitted, Abs format (unit mm)*
G04 Created by KiCad (PCBNEW (6.0.7)) date 2022-09-05 18:43:59*
%MOMM*%
%LPD*%
G01*
G04 APERTURE LIST*
%TA.AperFunction,Profile*%
%ADD10C,0.100000*%
%TD*%
G04 APERTURE END LIST*
D10*
X125186300Y-96232500D02*
X125240400Y-96167000D01*
X179296700Y-115298000D02*
X125554100Y-115298000D01*
X179296700Y-96037400D02*
X179386300Y-96046400D01*
X125305900Y-96112900D02*
X125381200Y-96072100D01*
X125110800Y-96480800D02*
X125119800Y-96391200D01*
X179664600Y-96232500D02*
X179705300Y-96307900D01*
X179664600Y-115102900D02*
X179610500Y-115168500D01*
X125186300Y-115102900D02*
X125145500Y-115027600D01*
X179740100Y-96480800D02*
X179740100Y-114854700D01*
X125145500Y-96307900D02*
X125186300Y-96232500D01*
X125554100Y-96037400D02*
X179296700Y-96037400D01*
X179740100Y-114854700D02*
X179731100Y-114944300D01*
X125381200Y-115263300D02*
X125305900Y-115222500D01*
X179610500Y-96167000D02*
X179664600Y-96232500D01*
X125240400Y-96167000D02*
X125305900Y-96112900D01*
X179469600Y-115263300D02*
X179386300Y-115289100D01*
X179731100Y-96391200D02*
X179740100Y-96480800D01*
X125305900Y-115222500D02*
X125240400Y-115168500D01*
X125464600Y-115289100D02*
X125381200Y-115263300D01*
X125554100Y-96037400D02*
X125554100Y-96037400D01*
X125240400Y-115168500D02*
X125186300Y-115102900D01*
X125464600Y-96046400D02*
X125554100Y-96037400D01*
X179705300Y-96307900D02*
X179731100Y-96391200D01*
X125554100Y-96037400D02*
X125554100Y-96037400D01*
X179386300Y-96046400D02*
X179469600Y-96072100D01*
X125381200Y-96072100D02*
X125464600Y-96046400D01*
X125145500Y-115027600D02*
X125119800Y-114944300D01*
X179610500Y-115168500D02*
X179544900Y-115222500D01*
X179469600Y-96072100D02*
X179544900Y-96112900D01*
X125119800Y-114944300D02*
X125110800Y-114854700D01*
X179386300Y-115289100D02*
X179296700Y-115298000D01*
X179544900Y-115222500D02*
X179469600Y-115263300D01*
X125110800Y-114854700D02*
X125110800Y-96480800D01*
X179731100Y-114944300D02*
X179705300Y-115027600D01*
X125554100Y-115298000D02*
X125464600Y-115289100D01*
X125119800Y-96391200D02*
X125145500Y-96307900D01*
X179544900Y-96112900D02*
X179610500Y-96167000D01*
X179705300Y-115027600D02*
X179664600Y-115102900D01*
M02*
