%TF.GenerationSoftware,KiCad,Pcbnew,(6.0.7)*%
%TF.CreationDate,2022-09-05T18:43:59-05:00*%
%TF.ProjectId,Tines SAO,54696e65-7320-4534-914f-2e6b69636164,rev?*%
%TF.SameCoordinates,Original*%
%TF.FileFunction,Legend,Top*%
%TF.FilePolarity,Positive*%
%FSLAX46Y46*%
G04 Gerber Fmt 4.6, Leading zero omitted, Abs format (unit mm)*
G04 Created by KiCad (PCBNEW (6.0.7)) date 2022-09-05 18:43:59*
%MOMM*%
%LPD*%
G01*
G04 APERTURE LIST*
%ADD10C,0.010000*%
G04 APERTURE END LIST*
%TO.C,G\u002A\u002A\u002A*%
G36*
X175843640Y-102764085D02*
G01*
X176200146Y-102811375D01*
X176546767Y-102888639D01*
X176877176Y-102995590D01*
X177169467Y-103124019D01*
X177428878Y-103275700D01*
X177672405Y-103458932D01*
X177893833Y-103667743D01*
X178086946Y-103896158D01*
X178245531Y-104138204D01*
X178268818Y-104180670D01*
X178338472Y-104328226D01*
X178403067Y-104496403D01*
X178459462Y-104674082D01*
X178504520Y-104850140D01*
X178535102Y-105013458D01*
X178548068Y-105152915D01*
X178548300Y-105170889D01*
X178548300Y-105242200D01*
X177690386Y-105242200D01*
X177467256Y-105241925D01*
X177283311Y-105241036D01*
X177135403Y-105239436D01*
X177020387Y-105237030D01*
X176935116Y-105233720D01*
X176876444Y-105229412D01*
X176841224Y-105224008D01*
X176826311Y-105217412D01*
X176825430Y-105215742D01*
X176754686Y-104995831D01*
X176667335Y-104810205D01*
X176559837Y-104652881D01*
X176428653Y-104517877D01*
X176396385Y-104490677D01*
X176202961Y-104357139D01*
X175995148Y-104261037D01*
X175769460Y-104201203D01*
X175522415Y-104176467D01*
X175457967Y-104175626D01*
X175221437Y-104189155D01*
X175015315Y-104229127D01*
X174836040Y-104296723D01*
X174680052Y-104393122D01*
X174602828Y-104458908D01*
X174496191Y-104582362D01*
X174426295Y-104719303D01*
X174389136Y-104878078D01*
X174385401Y-104911885D01*
X174383524Y-105066066D01*
X174409351Y-105203771D01*
X174464469Y-105326073D01*
X174550467Y-105434039D01*
X174668931Y-105528741D01*
X174821451Y-105611248D01*
X175009612Y-105682630D01*
X175235004Y-105743957D01*
X175499213Y-105796299D01*
X175754300Y-105834367D01*
X176073806Y-105878396D01*
X176355367Y-105921868D01*
X176603342Y-105965817D01*
X176822089Y-106011276D01*
X177015966Y-106059278D01*
X177189333Y-106110857D01*
X177346548Y-106167046D01*
X177491969Y-106228878D01*
X177564050Y-106263443D01*
X177809857Y-106406480D01*
X178023114Y-106574803D01*
X178204144Y-106769013D01*
X178353271Y-106989713D01*
X178470820Y-107237505D01*
X178557116Y-107512990D01*
X178612482Y-107816771D01*
X178637243Y-108149448D01*
X178638755Y-108258450D01*
X178636630Y-108420496D01*
X178629347Y-108553228D01*
X178615853Y-108669467D01*
X178596166Y-108777034D01*
X178512183Y-109075989D01*
X178392525Y-109352396D01*
X178237860Y-109605418D01*
X178048855Y-109834220D01*
X177826174Y-110037966D01*
X177570486Y-110215821D01*
X177355104Y-110332865D01*
X177183876Y-110412098D01*
X177025341Y-110475573D01*
X176864804Y-110528250D01*
X176687574Y-110575086D01*
X176537310Y-110608842D01*
X176448157Y-110627027D01*
X176368142Y-110641024D01*
X176289194Y-110651485D01*
X176203240Y-110659058D01*
X176102211Y-110664395D01*
X175978033Y-110668146D01*
X175822636Y-110670960D01*
X175754300Y-110671912D01*
X175607503Y-110673466D01*
X175472440Y-110674165D01*
X175355640Y-110674033D01*
X175263630Y-110673093D01*
X175202940Y-110671372D01*
X175182800Y-110669753D01*
X175135999Y-110662379D01*
X175062532Y-110651446D01*
X174977664Y-110639221D01*
X174971134Y-110638297D01*
X174713708Y-110589583D01*
X174446132Y-110516634D01*
X174182839Y-110424282D01*
X173938260Y-110317360D01*
X173806967Y-110248488D01*
X173538066Y-110072950D01*
X173292782Y-109865147D01*
X173074398Y-109629250D01*
X172886195Y-109369429D01*
X172731455Y-109089857D01*
X172613461Y-108794703D01*
X172582526Y-108692367D01*
X172552950Y-108575161D01*
X172525249Y-108445947D01*
X172501530Y-108316651D01*
X172483902Y-108199199D01*
X172474475Y-108105515D01*
X172473467Y-108075523D01*
X172473467Y-107993392D01*
X174195019Y-108004450D01*
X174224663Y-108152617D01*
X174287773Y-108363675D01*
X174387450Y-108558572D01*
X174519716Y-108732185D01*
X174680596Y-108879393D01*
X174866113Y-108995074D01*
X174886467Y-109004997D01*
X175030336Y-109068442D01*
X175161324Y-109113621D01*
X175292188Y-109143200D01*
X175435686Y-109159848D01*
X175604574Y-109166231D01*
X175659050Y-109166543D01*
X175830656Y-109163166D01*
X175972689Y-109151217D01*
X176097469Y-109128226D01*
X176217316Y-109091718D01*
X176344549Y-109039222D01*
X176383585Y-109021128D01*
X176541890Y-108928615D01*
X176675541Y-108814398D01*
X176777321Y-108685115D01*
X176807084Y-108631503D01*
X176838625Y-108559823D01*
X176856358Y-108494376D01*
X176863819Y-108417496D01*
X176864808Y-108343117D01*
X176847998Y-108177568D01*
X176798144Y-108030969D01*
X176713804Y-107901804D01*
X176593536Y-107788555D01*
X176435897Y-107689706D01*
X176239445Y-107603738D01*
X176124717Y-107564640D01*
X176041150Y-107540319D01*
X175939806Y-107514590D01*
X175816650Y-107486612D01*
X175667648Y-107455541D01*
X175488766Y-107420535D01*
X175275970Y-107380753D01*
X175034634Y-107337035D01*
X174690826Y-107269483D01*
X174385661Y-107196235D01*
X174115653Y-107115746D01*
X173877315Y-107026471D01*
X173667162Y-106926865D01*
X173481707Y-106815383D01*
X173317464Y-106690480D01*
X173170946Y-106550611D01*
X173112127Y-106485017D01*
X173028527Y-106371983D01*
X172943985Y-106230520D01*
X172865142Y-106073849D01*
X172798641Y-105915189D01*
X172751124Y-105767761D01*
X172750432Y-105765093D01*
X172703679Y-105533716D01*
X172676665Y-105286426D01*
X172669637Y-105035775D01*
X172682845Y-104794314D01*
X172716535Y-104574593D01*
X172726058Y-104533117D01*
X172816381Y-104251093D01*
X172944015Y-103987589D01*
X173107435Y-103744281D01*
X173305112Y-103522844D01*
X173535522Y-103324954D01*
X173797136Y-103152288D01*
X174088429Y-103006521D01*
X174134271Y-102987210D01*
X174445301Y-102880357D01*
X174778079Y-102804903D01*
X175126280Y-102760564D01*
X175483576Y-102747052D01*
X175843640Y-102764085D01*
G37*
D10*
X175843640Y-102764085D02*
X176200146Y-102811375D01*
X176546767Y-102888639D01*
X176877176Y-102995590D01*
X177169467Y-103124019D01*
X177428878Y-103275700D01*
X177672405Y-103458932D01*
X177893833Y-103667743D01*
X178086946Y-103896158D01*
X178245531Y-104138204D01*
X178268818Y-104180670D01*
X178338472Y-104328226D01*
X178403067Y-104496403D01*
X178459462Y-104674082D01*
X178504520Y-104850140D01*
X178535102Y-105013458D01*
X178548068Y-105152915D01*
X178548300Y-105170889D01*
X178548300Y-105242200D01*
X177690386Y-105242200D01*
X177467256Y-105241925D01*
X177283311Y-105241036D01*
X177135403Y-105239436D01*
X177020387Y-105237030D01*
X176935116Y-105233720D01*
X176876444Y-105229412D01*
X176841224Y-105224008D01*
X176826311Y-105217412D01*
X176825430Y-105215742D01*
X176754686Y-104995831D01*
X176667335Y-104810205D01*
X176559837Y-104652881D01*
X176428653Y-104517877D01*
X176396385Y-104490677D01*
X176202961Y-104357139D01*
X175995148Y-104261037D01*
X175769460Y-104201203D01*
X175522415Y-104176467D01*
X175457967Y-104175626D01*
X175221437Y-104189155D01*
X175015315Y-104229127D01*
X174836040Y-104296723D01*
X174680052Y-104393122D01*
X174602828Y-104458908D01*
X174496191Y-104582362D01*
X174426295Y-104719303D01*
X174389136Y-104878078D01*
X174385401Y-104911885D01*
X174383524Y-105066066D01*
X174409351Y-105203771D01*
X174464469Y-105326073D01*
X174550467Y-105434039D01*
X174668931Y-105528741D01*
X174821451Y-105611248D01*
X175009612Y-105682630D01*
X175235004Y-105743957D01*
X175499213Y-105796299D01*
X175754300Y-105834367D01*
X176073806Y-105878396D01*
X176355367Y-105921868D01*
X176603342Y-105965817D01*
X176822089Y-106011276D01*
X177015966Y-106059278D01*
X177189333Y-106110857D01*
X177346548Y-106167046D01*
X177491969Y-106228878D01*
X177564050Y-106263443D01*
X177809857Y-106406480D01*
X178023114Y-106574803D01*
X178204144Y-106769013D01*
X178353271Y-106989713D01*
X178470820Y-107237505D01*
X178557116Y-107512990D01*
X178612482Y-107816771D01*
X178637243Y-108149448D01*
X178638755Y-108258450D01*
X178636630Y-108420496D01*
X178629347Y-108553228D01*
X178615853Y-108669467D01*
X178596166Y-108777034D01*
X178512183Y-109075989D01*
X178392525Y-109352396D01*
X178237860Y-109605418D01*
X178048855Y-109834220D01*
X177826174Y-110037966D01*
X177570486Y-110215821D01*
X177355104Y-110332865D01*
X177183876Y-110412098D01*
X177025341Y-110475573D01*
X176864804Y-110528250D01*
X176687574Y-110575086D01*
X176537310Y-110608842D01*
X176448157Y-110627027D01*
X176368142Y-110641024D01*
X176289194Y-110651485D01*
X176203240Y-110659058D01*
X176102211Y-110664395D01*
X175978033Y-110668146D01*
X175822636Y-110670960D01*
X175754300Y-110671912D01*
X175607503Y-110673466D01*
X175472440Y-110674165D01*
X175355640Y-110674033D01*
X175263630Y-110673093D01*
X175202940Y-110671372D01*
X175182800Y-110669753D01*
X175135999Y-110662379D01*
X175062532Y-110651446D01*
X174977664Y-110639221D01*
X174971134Y-110638297D01*
X174713708Y-110589583D01*
X174446132Y-110516634D01*
X174182839Y-110424282D01*
X173938260Y-110317360D01*
X173806967Y-110248488D01*
X173538066Y-110072950D01*
X173292782Y-109865147D01*
X173074398Y-109629250D01*
X172886195Y-109369429D01*
X172731455Y-109089857D01*
X172613461Y-108794703D01*
X172582526Y-108692367D01*
X172552950Y-108575161D01*
X172525249Y-108445947D01*
X172501530Y-108316651D01*
X172483902Y-108199199D01*
X172474475Y-108105515D01*
X172473467Y-108075523D01*
X172473467Y-107993392D01*
X174195019Y-108004450D01*
X174224663Y-108152617D01*
X174287773Y-108363675D01*
X174387450Y-108558572D01*
X174519716Y-108732185D01*
X174680596Y-108879393D01*
X174866113Y-108995074D01*
X174886467Y-109004997D01*
X175030336Y-109068442D01*
X175161324Y-109113621D01*
X175292188Y-109143200D01*
X175435686Y-109159848D01*
X175604574Y-109166231D01*
X175659050Y-109166543D01*
X175830656Y-109163166D01*
X175972689Y-109151217D01*
X176097469Y-109128226D01*
X176217316Y-109091718D01*
X176344549Y-109039222D01*
X176383585Y-109021128D01*
X176541890Y-108928615D01*
X176675541Y-108814398D01*
X176777321Y-108685115D01*
X176807084Y-108631503D01*
X176838625Y-108559823D01*
X176856358Y-108494376D01*
X176863819Y-108417496D01*
X176864808Y-108343117D01*
X176847998Y-108177568D01*
X176798144Y-108030969D01*
X176713804Y-107901804D01*
X176593536Y-107788555D01*
X176435897Y-107689706D01*
X176239445Y-107603738D01*
X176124717Y-107564640D01*
X176041150Y-107540319D01*
X175939806Y-107514590D01*
X175816650Y-107486612D01*
X175667648Y-107455541D01*
X175488766Y-107420535D01*
X175275970Y-107380753D01*
X175034634Y-107337035D01*
X174690826Y-107269483D01*
X174385661Y-107196235D01*
X174115653Y-107115746D01*
X173877315Y-107026471D01*
X173667162Y-106926865D01*
X173481707Y-106815383D01*
X173317464Y-106690480D01*
X173170946Y-106550611D01*
X173112127Y-106485017D01*
X173028527Y-106371983D01*
X172943985Y-106230520D01*
X172865142Y-106073849D01*
X172798641Y-105915189D01*
X172751124Y-105767761D01*
X172750432Y-105765093D01*
X172703679Y-105533716D01*
X172676665Y-105286426D01*
X172669637Y-105035775D01*
X172682845Y-104794314D01*
X172716535Y-104574593D01*
X172726058Y-104533117D01*
X172816381Y-104251093D01*
X172944015Y-103987589D01*
X173107435Y-103744281D01*
X173305112Y-103522844D01*
X173535522Y-103324954D01*
X173797136Y-103152288D01*
X174088429Y-103006521D01*
X174134271Y-102987210D01*
X174445301Y-102880357D01*
X174778079Y-102804903D01*
X175126280Y-102760564D01*
X175483576Y-102747052D01*
X175843640Y-102764085D01*
G36*
X164599390Y-105295209D02*
G01*
X164622551Y-105221034D01*
X164671710Y-105085564D01*
X164738034Y-104928116D01*
X164815902Y-104760145D01*
X164899694Y-104593105D01*
X164983790Y-104438452D01*
X165062568Y-104307640D01*
X165093149Y-104261945D01*
X165331648Y-103955598D01*
X165595950Y-103682495D01*
X165885006Y-103443156D01*
X166197765Y-103238100D01*
X166533174Y-103067847D01*
X166890184Y-102932915D01*
X167267743Y-102833826D01*
X167664800Y-102771098D01*
X168080304Y-102745250D01*
X168163001Y-102744551D01*
X168582173Y-102762443D01*
X168983745Y-102815638D01*
X169366041Y-102903525D01*
X169727385Y-103025492D01*
X170066099Y-103180926D01*
X170380507Y-103369215D01*
X170668934Y-103589746D01*
X170797646Y-103706862D01*
X171060089Y-103987596D01*
X171287198Y-104290852D01*
X171479194Y-104617091D01*
X171636299Y-104966774D01*
X171758734Y-105340361D01*
X171846719Y-105738314D01*
X171879714Y-105961312D01*
X171888356Y-106058414D01*
X171894920Y-106186819D01*
X171899309Y-106335539D01*
X171901432Y-106493590D01*
X171901193Y-106649988D01*
X171898499Y-106793745D01*
X171893257Y-106913877D01*
X171888368Y-106974762D01*
X171874770Y-107104867D01*
X169041452Y-107104867D01*
X168671333Y-107105005D01*
X168319112Y-107105411D01*
X167986825Y-107106072D01*
X167676507Y-107106973D01*
X167390194Y-107108102D01*
X167129922Y-107109444D01*
X166897725Y-107110986D01*
X166695640Y-107112715D01*
X166525703Y-107114617D01*
X166389947Y-107116678D01*
X166290410Y-107118886D01*
X166229127Y-107121226D01*
X166208134Y-107123685D01*
X166208134Y-107123695D01*
X166213286Y-107170919D01*
X166227126Y-107248112D01*
X166247232Y-107344399D01*
X166271177Y-107448899D01*
X166296540Y-107550735D01*
X166320895Y-107639029D01*
X166328575Y-107664219D01*
X166433456Y-107934690D01*
X166569964Y-108185562D01*
X166734774Y-108412754D01*
X166924565Y-108612183D01*
X167136011Y-108779769D01*
X167329967Y-108893971D01*
X167578789Y-108996708D01*
X167850112Y-109067937D01*
X168137546Y-109107092D01*
X168434700Y-109113608D01*
X168735184Y-109086917D01*
X168978930Y-109040013D01*
X169057653Y-109016135D01*
X169158862Y-108978549D01*
X169267499Y-108933103D01*
X169338751Y-108900299D01*
X169449789Y-108844108D01*
X169535983Y-108792230D01*
X169612173Y-108734239D01*
X169693197Y-108659708D01*
X169722666Y-108630566D01*
X169814284Y-108533582D01*
X169882834Y-108446170D01*
X169939493Y-108353010D01*
X169972148Y-108288567D01*
X170011938Y-108202808D01*
X170045420Y-108125060D01*
X170067412Y-108067594D01*
X170072068Y-108052075D01*
X170086223Y-107993867D01*
X171943242Y-107993867D01*
X171930210Y-108062659D01*
X171918292Y-108115194D01*
X171898207Y-108193652D01*
X171873753Y-108283347D01*
X171866816Y-108307855D01*
X171759668Y-108627984D01*
X171627813Y-108918946D01*
X171466908Y-109187954D01*
X171272606Y-109442217D01*
X171040561Y-109688949D01*
X171026259Y-109702790D01*
X170749405Y-109940148D01*
X170444615Y-110146154D01*
X170112875Y-110320369D01*
X169755169Y-110462356D01*
X169372485Y-110571675D01*
X168965807Y-110647887D01*
X168875689Y-110659862D01*
X168762285Y-110669708D01*
X168617324Y-110676056D01*
X168451427Y-110679018D01*
X168275212Y-110678702D01*
X168099300Y-110675219D01*
X167934308Y-110668679D01*
X167790856Y-110659190D01*
X167684227Y-110647549D01*
X167283006Y-110569134D01*
X166900862Y-110453298D01*
X166539242Y-110301087D01*
X166199595Y-110113545D01*
X165883370Y-109891717D01*
X165592017Y-109636646D01*
X165326984Y-109349379D01*
X165089720Y-109030958D01*
X164881675Y-108682429D01*
X164836310Y-108594533D01*
X164669127Y-108214235D01*
X164540923Y-107819614D01*
X164451861Y-107413245D01*
X164402105Y-106997700D01*
X164391816Y-106575551D01*
X164421159Y-106149371D01*
X164468583Y-105856034D01*
X166255636Y-105856034D01*
X170014105Y-105856034D01*
X170002756Y-105766075D01*
X169975807Y-105615814D01*
X169933042Y-105450456D01*
X169879824Y-105287887D01*
X169821518Y-105145994D01*
X169809152Y-105120540D01*
X169670270Y-104889250D01*
X169501798Y-104687853D01*
X169305083Y-104517345D01*
X169081472Y-104378722D01*
X168832309Y-104272979D01*
X168568217Y-104202909D01*
X168459363Y-104188091D01*
X168321815Y-104178953D01*
X168168827Y-104175480D01*
X168013653Y-104177657D01*
X167869549Y-104185470D01*
X167749768Y-104198904D01*
X167721550Y-104203835D01*
X167486723Y-104261239D01*
X167282168Y-104338225D01*
X167098441Y-104439717D01*
X166926096Y-104570644D01*
X166810484Y-104679102D01*
X166718845Y-104774493D01*
X166649743Y-104855722D01*
X166593418Y-104935992D01*
X166540109Y-105028507D01*
X166511552Y-105083450D01*
X166418008Y-105283129D01*
X166348299Y-105470373D01*
X166296185Y-105662542D01*
X166285223Y-105713159D01*
X166255636Y-105856034D01*
X164468583Y-105856034D01*
X164490296Y-105721733D01*
X164599390Y-105295209D01*
G37*
X164599390Y-105295209D02*
X164622551Y-105221034D01*
X164671710Y-105085564D01*
X164738034Y-104928116D01*
X164815902Y-104760145D01*
X164899694Y-104593105D01*
X164983790Y-104438452D01*
X165062568Y-104307640D01*
X165093149Y-104261945D01*
X165331648Y-103955598D01*
X165595950Y-103682495D01*
X165885006Y-103443156D01*
X166197765Y-103238100D01*
X166533174Y-103067847D01*
X166890184Y-102932915D01*
X167267743Y-102833826D01*
X167664800Y-102771098D01*
X168080304Y-102745250D01*
X168163001Y-102744551D01*
X168582173Y-102762443D01*
X168983745Y-102815638D01*
X169366041Y-102903525D01*
X169727385Y-103025492D01*
X170066099Y-103180926D01*
X170380507Y-103369215D01*
X170668934Y-103589746D01*
X170797646Y-103706862D01*
X171060089Y-103987596D01*
X171287198Y-104290852D01*
X171479194Y-104617091D01*
X171636299Y-104966774D01*
X171758734Y-105340361D01*
X171846719Y-105738314D01*
X171879714Y-105961312D01*
X171888356Y-106058414D01*
X171894920Y-106186819D01*
X171899309Y-106335539D01*
X171901432Y-106493590D01*
X171901193Y-106649988D01*
X171898499Y-106793745D01*
X171893257Y-106913877D01*
X171888368Y-106974762D01*
X171874770Y-107104867D01*
X169041452Y-107104867D01*
X168671333Y-107105005D01*
X168319112Y-107105411D01*
X167986825Y-107106072D01*
X167676507Y-107106973D01*
X167390194Y-107108102D01*
X167129922Y-107109444D01*
X166897725Y-107110986D01*
X166695640Y-107112715D01*
X166525703Y-107114617D01*
X166389947Y-107116678D01*
X166290410Y-107118886D01*
X166229127Y-107121226D01*
X166208134Y-107123685D01*
X166208134Y-107123695D01*
X166213286Y-107170919D01*
X166227126Y-107248112D01*
X166247232Y-107344399D01*
X166271177Y-107448899D01*
X166296540Y-107550735D01*
X166320895Y-107639029D01*
X166328575Y-107664219D01*
X166433456Y-107934690D01*
X166569964Y-108185562D01*
X166734774Y-108412754D01*
X166924565Y-108612183D01*
X167136011Y-108779769D01*
X167329967Y-108893971D01*
X167578789Y-108996708D01*
X167850112Y-109067937D01*
X168137546Y-109107092D01*
X168434700Y-109113608D01*
X168735184Y-109086917D01*
X168978930Y-109040013D01*
X169057653Y-109016135D01*
X169158862Y-108978549D01*
X169267499Y-108933103D01*
X169338751Y-108900299D01*
X169449789Y-108844108D01*
X169535983Y-108792230D01*
X169612173Y-108734239D01*
X169693197Y-108659708D01*
X169722666Y-108630566D01*
X169814284Y-108533582D01*
X169882834Y-108446170D01*
X169939493Y-108353010D01*
X169972148Y-108288567D01*
X170011938Y-108202808D01*
X170045420Y-108125060D01*
X170067412Y-108067594D01*
X170072068Y-108052075D01*
X170086223Y-107993867D01*
X171943242Y-107993867D01*
X171930210Y-108062659D01*
X171918292Y-108115194D01*
X171898207Y-108193652D01*
X171873753Y-108283347D01*
X171866816Y-108307855D01*
X171759668Y-108627984D01*
X171627813Y-108918946D01*
X171466908Y-109187954D01*
X171272606Y-109442217D01*
X171040561Y-109688949D01*
X171026259Y-109702790D01*
X170749405Y-109940148D01*
X170444615Y-110146154D01*
X170112875Y-110320369D01*
X169755169Y-110462356D01*
X169372485Y-110571675D01*
X168965807Y-110647887D01*
X168875689Y-110659862D01*
X168762285Y-110669708D01*
X168617324Y-110676056D01*
X168451427Y-110679018D01*
X168275212Y-110678702D01*
X168099300Y-110675219D01*
X167934308Y-110668679D01*
X167790856Y-110659190D01*
X167684227Y-110647549D01*
X167283006Y-110569134D01*
X166900862Y-110453298D01*
X166539242Y-110301087D01*
X166199595Y-110113545D01*
X165883370Y-109891717D01*
X165592017Y-109636646D01*
X165326984Y-109349379D01*
X165089720Y-109030958D01*
X164881675Y-108682429D01*
X164836310Y-108594533D01*
X164669127Y-108214235D01*
X164540923Y-107819614D01*
X164451861Y-107413245D01*
X164402105Y-106997700D01*
X164391816Y-106575551D01*
X164421159Y-106149371D01*
X164468583Y-105856034D01*
X166255636Y-105856034D01*
X170014105Y-105856034D01*
X170002756Y-105766075D01*
X169975807Y-105615814D01*
X169933042Y-105450456D01*
X169879824Y-105287887D01*
X169821518Y-105145994D01*
X169809152Y-105120540D01*
X169670270Y-104889250D01*
X169501798Y-104687853D01*
X169305083Y-104517345D01*
X169081472Y-104378722D01*
X168832309Y-104272979D01*
X168568217Y-104202909D01*
X168459363Y-104188091D01*
X168321815Y-104178953D01*
X168168827Y-104175480D01*
X168013653Y-104177657D01*
X167869549Y-104185470D01*
X167749768Y-104198904D01*
X167721550Y-104203835D01*
X167486723Y-104261239D01*
X167282168Y-104338225D01*
X167098441Y-104439717D01*
X166926096Y-104570644D01*
X166810484Y-104679102D01*
X166718845Y-104774493D01*
X166649743Y-104855722D01*
X166593418Y-104935992D01*
X166540109Y-105028507D01*
X166511552Y-105083450D01*
X166418008Y-105283129D01*
X166348299Y-105470373D01*
X166296185Y-105662542D01*
X166285223Y-105713159D01*
X166255636Y-105856034D01*
X164468583Y-105856034D01*
X164490296Y-105721733D01*
X164599390Y-105295209D01*
G36*
X126404611Y-105012898D02*
G01*
X127963495Y-105012898D01*
X127983798Y-105014350D01*
X128044779Y-105015771D01*
X128144779Y-105017155D01*
X128282142Y-105018498D01*
X128455210Y-105019795D01*
X128662328Y-105021042D01*
X128901838Y-105022233D01*
X129172083Y-105023364D01*
X129471407Y-105024431D01*
X129798153Y-105025428D01*
X130150663Y-105026351D01*
X130527281Y-105027194D01*
X130926351Y-105027954D01*
X131346214Y-105028626D01*
X131785215Y-105029204D01*
X132241697Y-105029685D01*
X132714002Y-105030062D01*
X133200474Y-105030333D01*
X133699456Y-105030491D01*
X134129535Y-105030534D01*
X134755166Y-105030502D01*
X135339688Y-105030405D01*
X135884325Y-105030236D01*
X136390301Y-105029990D01*
X136858840Y-105029663D01*
X137291167Y-105029248D01*
X137688506Y-105028741D01*
X138052081Y-105028136D01*
X138383116Y-105027428D01*
X138682836Y-105026612D01*
X138952464Y-105025683D01*
X139193225Y-105024634D01*
X139406343Y-105023462D01*
X139593042Y-105022160D01*
X139754546Y-105020724D01*
X139892080Y-105019148D01*
X140006868Y-105017427D01*
X140100134Y-105015556D01*
X140173101Y-105013529D01*
X140226995Y-105011341D01*
X140263040Y-105008988D01*
X140282459Y-105006462D01*
X140286757Y-105004075D01*
X140264941Y-104972476D01*
X140220586Y-104911986D01*
X140157156Y-104827121D01*
X140078119Y-104722394D01*
X139986939Y-104602318D01*
X139887082Y-104471408D01*
X139782015Y-104334177D01*
X139675203Y-104195140D01*
X139570112Y-104058809D01*
X139470208Y-103929700D01*
X139378958Y-103812326D01*
X139299825Y-103711200D01*
X139236278Y-103630837D01*
X139191781Y-103575750D01*
X139173948Y-103554784D01*
X138911953Y-103295568D01*
X138626927Y-103071000D01*
X138321029Y-102882275D01*
X137996420Y-102730587D01*
X137655258Y-102617131D01*
X137363811Y-102553318D01*
X137328488Y-102547467D01*
X137293389Y-102542183D01*
X137256316Y-102537441D01*
X137215074Y-102533219D01*
X137167464Y-102529491D01*
X137111291Y-102526235D01*
X137044357Y-102523426D01*
X136964466Y-102521041D01*
X136869420Y-102519055D01*
X136757024Y-102517444D01*
X136625079Y-102516186D01*
X136471390Y-102515255D01*
X136293760Y-102514627D01*
X136089991Y-102514280D01*
X135857887Y-102514189D01*
X135595251Y-102514330D01*
X135299887Y-102514679D01*
X134969596Y-102515212D01*
X134602184Y-102515906D01*
X134195452Y-102516736D01*
X134033680Y-102517075D01*
X130955050Y-102523547D01*
X130732800Y-102579229D01*
X130368115Y-102690073D01*
X130030365Y-102833309D01*
X129718633Y-103009447D01*
X129432004Y-103218995D01*
X129198217Y-103433052D01*
X129160729Y-103474520D01*
X129102672Y-103543214D01*
X129027321Y-103634938D01*
X128937956Y-103745499D01*
X128837852Y-103870705D01*
X128730289Y-104006360D01*
X128618542Y-104148272D01*
X128505890Y-104292248D01*
X128395611Y-104434093D01*
X128290981Y-104569613D01*
X128195278Y-104694617D01*
X128111780Y-104804908D01*
X128043763Y-104896296D01*
X127994507Y-104964584D01*
X127967287Y-105005581D01*
X127963495Y-105012898D01*
X126404611Y-105012898D01*
X127008261Y-103088243D01*
X127109921Y-102764539D01*
X127209193Y-102449266D01*
X127291526Y-102188476D01*
X128644354Y-102188476D01*
X128767222Y-102095035D01*
X128841574Y-102041023D01*
X128936166Y-101975863D01*
X129035079Y-101910419D01*
X129075903Y-101884312D01*
X129412387Y-101694903D01*
X129775749Y-101533109D01*
X130158788Y-101401432D01*
X130554299Y-101302378D01*
X130922745Y-101242243D01*
X130969305Y-101239221D01*
X131055211Y-101236422D01*
X131177478Y-101233846D01*
X131333117Y-101231492D01*
X131519144Y-101229362D01*
X131732571Y-101227454D01*
X131970412Y-101225768D01*
X132229680Y-101224305D01*
X132507390Y-101223064D01*
X132800554Y-101222046D01*
X133106187Y-101221249D01*
X133421301Y-101220674D01*
X133742910Y-101220321D01*
X134068028Y-101220190D01*
X134393669Y-101220280D01*
X134716845Y-101220591D01*
X135034571Y-101221124D01*
X135343859Y-101221878D01*
X135641724Y-101222853D01*
X135925180Y-101224048D01*
X136191238Y-101225465D01*
X136436914Y-101227102D01*
X136659221Y-101228960D01*
X136855171Y-101231038D01*
X137021780Y-101233336D01*
X137156060Y-101235854D01*
X137255024Y-101238593D01*
X137315687Y-101241551D01*
X137326217Y-101242509D01*
X137742609Y-101310231D01*
X138151973Y-101417135D01*
X138549330Y-101561291D01*
X138929704Y-101740767D01*
X139288118Y-101953630D01*
X139451070Y-102067225D01*
X139522504Y-102117861D01*
X139578154Y-102153875D01*
X139611603Y-102171341D01*
X139618089Y-102169385D01*
X139609407Y-102142984D01*
X139589675Y-102081199D01*
X139560481Y-101989052D01*
X139523407Y-101871561D01*
X139480041Y-101733749D01*
X139431967Y-101580635D01*
X139402025Y-101485117D01*
X139335056Y-101275504D01*
X139270844Y-101082557D01*
X139211267Y-100911584D01*
X139158201Y-100767896D01*
X139113522Y-100656800D01*
X139093338Y-100611796D01*
X138917381Y-100288666D01*
X138710083Y-99992827D01*
X138473285Y-99725921D01*
X138208826Y-99489588D01*
X137918545Y-99285470D01*
X137604281Y-99115206D01*
X137267875Y-98980440D01*
X137262717Y-98978712D01*
X137192700Y-98955139D01*
X137129665Y-98933989D01*
X137071064Y-98915129D01*
X137014351Y-98898430D01*
X136956977Y-98883759D01*
X136896397Y-98870987D01*
X136830062Y-98859982D01*
X136755426Y-98850613D01*
X136669942Y-98842750D01*
X136571061Y-98836260D01*
X136456238Y-98831013D01*
X136322924Y-98826879D01*
X136168573Y-98823725D01*
X135990637Y-98821421D01*
X135786570Y-98819836D01*
X135553823Y-98818839D01*
X135289851Y-98818299D01*
X134992105Y-98818085D01*
X134658038Y-98818066D01*
X134285104Y-98818110D01*
X134140634Y-98818117D01*
X133763729Y-98818146D01*
X133426694Y-98818258D01*
X133127063Y-98818489D01*
X132862374Y-98818875D01*
X132630162Y-98819453D01*
X132427963Y-98820260D01*
X132253313Y-98821331D01*
X132103748Y-98822703D01*
X131976804Y-98824413D01*
X131870016Y-98826497D01*
X131780921Y-98828991D01*
X131707054Y-98831932D01*
X131645952Y-98835357D01*
X131595151Y-98839301D01*
X131552186Y-98843801D01*
X131514593Y-98848893D01*
X131479908Y-98854615D01*
X131463050Y-98857692D01*
X131105788Y-98945182D01*
X130766127Y-99069826D01*
X130446423Y-99229776D01*
X130149033Y-99423185D01*
X129876315Y-99648203D01*
X129630626Y-99902982D01*
X129414323Y-100185675D01*
X129229764Y-100494432D01*
X129140933Y-100678531D01*
X129118261Y-100735508D01*
X129085155Y-100826774D01*
X129043702Y-100946180D01*
X128995990Y-101087576D01*
X128944104Y-101244812D01*
X128890130Y-101411738D01*
X128859279Y-101508713D01*
X128644354Y-102188476D01*
X127291526Y-102188476D01*
X127305225Y-102145088D01*
X127397164Y-101854670D01*
X127484159Y-101580678D01*
X127565358Y-101325775D01*
X127639908Y-101092626D01*
X127706957Y-100883897D01*
X127765654Y-100702252D01*
X127815146Y-100550356D01*
X127854582Y-100430874D01*
X127883108Y-100346469D01*
X127899874Y-100299809D01*
X127899883Y-100299784D01*
X128073762Y-99915456D01*
X128282977Y-99552252D01*
X128525071Y-99212226D01*
X128797586Y-98897433D01*
X129098064Y-98609927D01*
X129424046Y-98351763D01*
X129773073Y-98124995D01*
X130142688Y-97931679D01*
X130530432Y-97773869D01*
X130933847Y-97653620D01*
X131113800Y-97613515D01*
X131189637Y-97598675D01*
X131262798Y-97585376D01*
X131335888Y-97573544D01*
X131411511Y-97563103D01*
X131492273Y-97553979D01*
X131580777Y-97546095D01*
X131679629Y-97539378D01*
X131791432Y-97533751D01*
X131918792Y-97529140D01*
X132064314Y-97525470D01*
X132230601Y-97522665D01*
X132420258Y-97520650D01*
X132635891Y-97519351D01*
X132880103Y-97518692D01*
X133155500Y-97518598D01*
X133464685Y-97518993D01*
X133810264Y-97519804D01*
X134194841Y-97520954D01*
X134309967Y-97521326D01*
X134689344Y-97522563D01*
X135029042Y-97523728D01*
X135331711Y-97524939D01*
X135600006Y-97526312D01*
X135836577Y-97527964D01*
X136044079Y-97530012D01*
X136225163Y-97532572D01*
X136382482Y-97535763D01*
X136518689Y-97539699D01*
X136636436Y-97544499D01*
X136738375Y-97550280D01*
X136827160Y-97557157D01*
X136905443Y-97565248D01*
X136975876Y-97574670D01*
X137041113Y-97585539D01*
X137103805Y-97597973D01*
X137166605Y-97612088D01*
X137232165Y-97628001D01*
X137303139Y-97645829D01*
X137338455Y-97654735D01*
X137747264Y-97778857D01*
X138139067Y-97940207D01*
X138511529Y-98136767D01*
X138862316Y-98366517D01*
X139189094Y-98627438D01*
X139489529Y-98917512D01*
X139761286Y-99234719D01*
X140002032Y-99577040D01*
X140209431Y-99942457D01*
X140355632Y-100264451D01*
X140370464Y-100305494D01*
X140396590Y-100382842D01*
X140433098Y-100493603D01*
X140479078Y-100634885D01*
X140533618Y-100803797D01*
X140595808Y-100997446D01*
X140664736Y-101212940D01*
X140739492Y-101447389D01*
X140819164Y-101697898D01*
X140902841Y-101961578D01*
X140989613Y-102235536D01*
X141078567Y-102516879D01*
X141168794Y-102802716D01*
X141259382Y-103090156D01*
X141349420Y-103376306D01*
X141437997Y-103658274D01*
X141524203Y-103933168D01*
X141607125Y-104198097D01*
X141685853Y-104450169D01*
X141759476Y-104686491D01*
X141827083Y-104904172D01*
X141887763Y-105100320D01*
X141940605Y-105272042D01*
X141984697Y-105416448D01*
X142019129Y-105530645D01*
X142042990Y-105611741D01*
X142055368Y-105656844D01*
X142056967Y-105665006D01*
X142050679Y-105691547D01*
X142032425Y-105755527D01*
X142003114Y-105854056D01*
X141963658Y-105984244D01*
X141914970Y-106143204D01*
X141857959Y-106328045D01*
X141793537Y-106535880D01*
X141722616Y-106763819D01*
X141646108Y-107008974D01*
X141564922Y-107268454D01*
X141479971Y-107539372D01*
X141392166Y-107818839D01*
X141302419Y-108103964D01*
X141211640Y-108391861D01*
X141120741Y-108679639D01*
X141030634Y-108964410D01*
X140942229Y-109243284D01*
X140856438Y-109513373D01*
X140774173Y-109771788D01*
X140696344Y-110015640D01*
X140623863Y-110242040D01*
X140557642Y-110448099D01*
X140498591Y-110630928D01*
X140447622Y-110787638D01*
X140405647Y-110915340D01*
X140373576Y-111011145D01*
X140352321Y-111072165D01*
X140345979Y-111088865D01*
X140177178Y-111448768D01*
X139970112Y-111798394D01*
X139728577Y-112132228D01*
X139456373Y-112444754D01*
X139313817Y-112587610D01*
X138992718Y-112866152D01*
X138646956Y-113111200D01*
X138279279Y-113321521D01*
X137892430Y-113495885D01*
X137489157Y-113633059D01*
X137072204Y-113731812D01*
X136644318Y-113790912D01*
X136627717Y-113792374D01*
X136578629Y-113794762D01*
X136490671Y-113797010D01*
X136367305Y-113799114D01*
X136211993Y-113801068D01*
X136028199Y-113802866D01*
X135819385Y-113804504D01*
X135589013Y-113805976D01*
X135340547Y-113807278D01*
X135077448Y-113808402D01*
X134803180Y-113809346D01*
X134521205Y-113810102D01*
X134234986Y-113810667D01*
X133947984Y-113811034D01*
X133663664Y-113811198D01*
X133385487Y-113811155D01*
X133116917Y-113810899D01*
X132861415Y-113810424D01*
X132622444Y-113809726D01*
X132403468Y-113808799D01*
X132207948Y-113807637D01*
X132039347Y-113806237D01*
X131901128Y-113804592D01*
X131796753Y-113802696D01*
X131729686Y-113800546D01*
X131717050Y-113799829D01*
X131291514Y-113750124D01*
X130876766Y-113660929D01*
X130475298Y-113533854D01*
X130089604Y-113370511D01*
X129722178Y-113172509D01*
X129375512Y-112941460D01*
X129052101Y-112678974D01*
X128754437Y-112386662D01*
X128485013Y-112066134D01*
X128246323Y-111719001D01*
X128100107Y-111463400D01*
X128043281Y-111351389D01*
X127984752Y-111228861D01*
X127933060Y-111113998D01*
X127908448Y-111055254D01*
X127892769Y-111011806D01*
X127865301Y-110930570D01*
X127826883Y-110814164D01*
X127778351Y-110665207D01*
X127720542Y-110486317D01*
X127654295Y-110280113D01*
X127580446Y-110049212D01*
X127499832Y-109796235D01*
X127413292Y-109523799D01*
X127321662Y-109234522D01*
X127291566Y-109139258D01*
X128643624Y-109139258D01*
X128861303Y-109831271D01*
X128953646Y-110117035D01*
X129040189Y-110366331D01*
X129123649Y-110584161D01*
X129206744Y-110775524D01*
X129292191Y-110945421D01*
X129382709Y-111098851D01*
X129481015Y-111240815D01*
X129589828Y-111376314D01*
X129711864Y-111510347D01*
X129847469Y-111645635D01*
X130125388Y-111884110D01*
X130424436Y-112086174D01*
X130742791Y-112250971D01*
X131078628Y-112377641D01*
X131430126Y-112465327D01*
X131664134Y-112500783D01*
X131706088Y-112503140D01*
X131787485Y-112505331D01*
X131905430Y-112507339D01*
X132057033Y-112509149D01*
X132239401Y-112510746D01*
X132449643Y-112512115D01*
X132684867Y-112513239D01*
X132942181Y-112514105D01*
X133218692Y-112514695D01*
X133511510Y-112514995D01*
X133817743Y-112514990D01*
X134134497Y-112514664D01*
X134235884Y-112514492D01*
X134607018Y-112513790D01*
X134938305Y-112513103D01*
X135232234Y-112512384D01*
X135491290Y-112511588D01*
X135717961Y-112510667D01*
X135914734Y-112509576D01*
X136084096Y-112508268D01*
X136228533Y-112506696D01*
X136350534Y-112504815D01*
X136452584Y-112502577D01*
X136537172Y-112499936D01*
X136606783Y-112496846D01*
X136663905Y-112493260D01*
X136711026Y-112489132D01*
X136750631Y-112484416D01*
X136785208Y-112479064D01*
X136817245Y-112473031D01*
X136849227Y-112466270D01*
X136852136Y-112465636D01*
X137220427Y-112365722D01*
X137563102Y-112232285D01*
X137880903Y-112064931D01*
X138174571Y-111863265D01*
X138444847Y-111626891D01*
X138466769Y-111605182D01*
X138601013Y-111465284D01*
X138719964Y-111327695D01*
X138826364Y-111187261D01*
X138922954Y-111038826D01*
X139012476Y-110877235D01*
X139097671Y-110697332D01*
X139181282Y-110493961D01*
X139266049Y-110261969D01*
X139354715Y-109996198D01*
X139402331Y-109845950D01*
X139452390Y-109685943D01*
X139498760Y-109538105D01*
X139539848Y-109407493D01*
X139574056Y-109299164D01*
X139599790Y-109218175D01*
X139615455Y-109169583D01*
X139619314Y-109158193D01*
X139611792Y-109151811D01*
X139579717Y-109169026D01*
X139547659Y-109192465D01*
X139300032Y-109369414D01*
X139021309Y-109536794D01*
X138722528Y-109689158D01*
X138414725Y-109821061D01*
X138108938Y-109927059D01*
X137990317Y-109960810D01*
X137922171Y-109979121D01*
X137860718Y-109995757D01*
X137803739Y-110010798D01*
X137749017Y-110024322D01*
X137694335Y-110036412D01*
X137637473Y-110047146D01*
X137576214Y-110056605D01*
X137508341Y-110064869D01*
X137431634Y-110072018D01*
X137343877Y-110078133D01*
X137242852Y-110083293D01*
X137126340Y-110087579D01*
X136992123Y-110091071D01*
X136837984Y-110093849D01*
X136661705Y-110095993D01*
X136461067Y-110097584D01*
X136233854Y-110098701D01*
X135977846Y-110099425D01*
X135690827Y-110099836D01*
X135370577Y-110100013D01*
X135014880Y-110100038D01*
X134621517Y-110099991D01*
X134188270Y-110099951D01*
X134140634Y-110099950D01*
X133700492Y-110099983D01*
X133300470Y-110100024D01*
X132938354Y-110099991D01*
X132611928Y-110099798D01*
X132318979Y-110099363D01*
X132057293Y-110098601D01*
X131824656Y-110097429D01*
X131618854Y-110095762D01*
X131437672Y-110093516D01*
X131278898Y-110090609D01*
X131140315Y-110086954D01*
X131019712Y-110082470D01*
X130914873Y-110077071D01*
X130823584Y-110070674D01*
X130743631Y-110063195D01*
X130672801Y-110054550D01*
X130608879Y-110044655D01*
X130549651Y-110033427D01*
X130492904Y-110020780D01*
X130436422Y-110006632D01*
X130377992Y-109990898D01*
X130315401Y-109973495D01*
X130246433Y-109954338D01*
X130237974Y-109952014D01*
X129911707Y-109847556D01*
X129586644Y-109715032D01*
X129273313Y-109559583D01*
X128982247Y-109386350D01*
X128766140Y-109233533D01*
X128643624Y-109139258D01*
X127291566Y-109139258D01*
X127225780Y-108931024D01*
X127126482Y-108615922D01*
X127024607Y-108291835D01*
X127016590Y-108266297D01*
X126402875Y-106311117D01*
X127956499Y-106311117D01*
X128446243Y-106956700D01*
X128595804Y-107153489D01*
X128723068Y-107319927D01*
X128831028Y-107459612D01*
X128922676Y-107576143D01*
X129001007Y-107673115D01*
X129069013Y-107754129D01*
X129129687Y-107822780D01*
X129186022Y-107882668D01*
X129241013Y-107937390D01*
X129297651Y-107990544D01*
X129332925Y-108022511D01*
X129616471Y-108249011D01*
X129922059Y-108440166D01*
X130246613Y-108594510D01*
X130587057Y-108710580D01*
X130937441Y-108786460D01*
X130970020Y-108790600D01*
X131013670Y-108794329D01*
X131070387Y-108797662D01*
X131142164Y-108800614D01*
X131230995Y-108803202D01*
X131338873Y-108805440D01*
X131467793Y-108807343D01*
X131619747Y-108808927D01*
X131796731Y-108810208D01*
X132000738Y-108811199D01*
X132233761Y-108811918D01*
X132497795Y-108812379D01*
X132794833Y-108812597D01*
X133126869Y-108812588D01*
X133495896Y-108812367D01*
X133903910Y-108811950D01*
X134204134Y-108811562D01*
X134625743Y-108810971D01*
X135007172Y-108810400D01*
X135350575Y-108809816D01*
X135658106Y-108809188D01*
X135931916Y-108808482D01*
X136174161Y-108807668D01*
X136386994Y-108806713D01*
X136572567Y-108805585D01*
X136733035Y-108804253D01*
X136870551Y-108802684D01*
X136987269Y-108800845D01*
X137085341Y-108798707D01*
X137166922Y-108796235D01*
X137234164Y-108793398D01*
X137289222Y-108790165D01*
X137334249Y-108786502D01*
X137371398Y-108782379D01*
X137402823Y-108777763D01*
X137430678Y-108772622D01*
X137457114Y-108766924D01*
X137474384Y-108762947D01*
X137823097Y-108664782D01*
X138142872Y-108538429D01*
X138438522Y-108381254D01*
X138714863Y-108190618D01*
X138976708Y-107963887D01*
X139031441Y-107910305D01*
X139111717Y-107827389D01*
X139196051Y-107734508D01*
X139287853Y-107627505D01*
X139390534Y-107502224D01*
X139507505Y-107354509D01*
X139642175Y-107180203D01*
X139787912Y-106988450D01*
X140299660Y-106311117D01*
X137221857Y-106305755D01*
X136792195Y-106305098D01*
X136327001Y-106304557D01*
X135833078Y-106304132D01*
X135317226Y-106303821D01*
X134786248Y-106303625D01*
X134246944Y-106303545D01*
X133706118Y-106303580D01*
X133170569Y-106303729D01*
X132647101Y-106303994D01*
X132142514Y-106304374D01*
X131663611Y-106304870D01*
X131217193Y-106305480D01*
X131050277Y-106305755D01*
X127956499Y-106311117D01*
X126402875Y-106311117D01*
X126200075Y-105665036D01*
X126404611Y-105012898D01*
G37*
X126404611Y-105012898D02*
X127963495Y-105012898D01*
X127983798Y-105014350D01*
X128044779Y-105015771D01*
X128144779Y-105017155D01*
X128282142Y-105018498D01*
X128455210Y-105019795D01*
X128662328Y-105021042D01*
X128901838Y-105022233D01*
X129172083Y-105023364D01*
X129471407Y-105024431D01*
X129798153Y-105025428D01*
X130150663Y-105026351D01*
X130527281Y-105027194D01*
X130926351Y-105027954D01*
X131346214Y-105028626D01*
X131785215Y-105029204D01*
X132241697Y-105029685D01*
X132714002Y-105030062D01*
X133200474Y-105030333D01*
X133699456Y-105030491D01*
X134129535Y-105030534D01*
X134755166Y-105030502D01*
X135339688Y-105030405D01*
X135884325Y-105030236D01*
X136390301Y-105029990D01*
X136858840Y-105029663D01*
X137291167Y-105029248D01*
X137688506Y-105028741D01*
X138052081Y-105028136D01*
X138383116Y-105027428D01*
X138682836Y-105026612D01*
X138952464Y-105025683D01*
X139193225Y-105024634D01*
X139406343Y-105023462D01*
X139593042Y-105022160D01*
X139754546Y-105020724D01*
X139892080Y-105019148D01*
X140006868Y-105017427D01*
X140100134Y-105015556D01*
X140173101Y-105013529D01*
X140226995Y-105011341D01*
X140263040Y-105008988D01*
X140282459Y-105006462D01*
X140286757Y-105004075D01*
X140264941Y-104972476D01*
X140220586Y-104911986D01*
X140157156Y-104827121D01*
X140078119Y-104722394D01*
X139986939Y-104602318D01*
X139887082Y-104471408D01*
X139782015Y-104334177D01*
X139675203Y-104195140D01*
X139570112Y-104058809D01*
X139470208Y-103929700D01*
X139378958Y-103812326D01*
X139299825Y-103711200D01*
X139236278Y-103630837D01*
X139191781Y-103575750D01*
X139173948Y-103554784D01*
X138911953Y-103295568D01*
X138626927Y-103071000D01*
X138321029Y-102882275D01*
X137996420Y-102730587D01*
X137655258Y-102617131D01*
X137363811Y-102553318D01*
X137328488Y-102547467D01*
X137293389Y-102542183D01*
X137256316Y-102537441D01*
X137215074Y-102533219D01*
X137167464Y-102529491D01*
X137111291Y-102526235D01*
X137044357Y-102523426D01*
X136964466Y-102521041D01*
X136869420Y-102519055D01*
X136757024Y-102517444D01*
X136625079Y-102516186D01*
X136471390Y-102515255D01*
X136293760Y-102514627D01*
X136089991Y-102514280D01*
X135857887Y-102514189D01*
X135595251Y-102514330D01*
X135299887Y-102514679D01*
X134969596Y-102515212D01*
X134602184Y-102515906D01*
X134195452Y-102516736D01*
X134033680Y-102517075D01*
X130955050Y-102523547D01*
X130732800Y-102579229D01*
X130368115Y-102690073D01*
X130030365Y-102833309D01*
X129718633Y-103009447D01*
X129432004Y-103218995D01*
X129198217Y-103433052D01*
X129160729Y-103474520D01*
X129102672Y-103543214D01*
X129027321Y-103634938D01*
X128937956Y-103745499D01*
X128837852Y-103870705D01*
X128730289Y-104006360D01*
X128618542Y-104148272D01*
X128505890Y-104292248D01*
X128395611Y-104434093D01*
X128290981Y-104569613D01*
X128195278Y-104694617D01*
X128111780Y-104804908D01*
X128043763Y-104896296D01*
X127994507Y-104964584D01*
X127967287Y-105005581D01*
X127963495Y-105012898D01*
X126404611Y-105012898D01*
X127008261Y-103088243D01*
X127109921Y-102764539D01*
X127209193Y-102449266D01*
X127291526Y-102188476D01*
X128644354Y-102188476D01*
X128767222Y-102095035D01*
X128841574Y-102041023D01*
X128936166Y-101975863D01*
X129035079Y-101910419D01*
X129075903Y-101884312D01*
X129412387Y-101694903D01*
X129775749Y-101533109D01*
X130158788Y-101401432D01*
X130554299Y-101302378D01*
X130922745Y-101242243D01*
X130969305Y-101239221D01*
X131055211Y-101236422D01*
X131177478Y-101233846D01*
X131333117Y-101231492D01*
X131519144Y-101229362D01*
X131732571Y-101227454D01*
X131970412Y-101225768D01*
X132229680Y-101224305D01*
X132507390Y-101223064D01*
X132800554Y-101222046D01*
X133106187Y-101221249D01*
X133421301Y-101220674D01*
X133742910Y-101220321D01*
X134068028Y-101220190D01*
X134393669Y-101220280D01*
X134716845Y-101220591D01*
X135034571Y-101221124D01*
X135343859Y-101221878D01*
X135641724Y-101222853D01*
X135925180Y-101224048D01*
X136191238Y-101225465D01*
X136436914Y-101227102D01*
X136659221Y-101228960D01*
X136855171Y-101231038D01*
X137021780Y-101233336D01*
X137156060Y-101235854D01*
X137255024Y-101238593D01*
X137315687Y-101241551D01*
X137326217Y-101242509D01*
X137742609Y-101310231D01*
X138151973Y-101417135D01*
X138549330Y-101561291D01*
X138929704Y-101740767D01*
X139288118Y-101953630D01*
X139451070Y-102067225D01*
X139522504Y-102117861D01*
X139578154Y-102153875D01*
X139611603Y-102171341D01*
X139618089Y-102169385D01*
X139609407Y-102142984D01*
X139589675Y-102081199D01*
X139560481Y-101989052D01*
X139523407Y-101871561D01*
X139480041Y-101733749D01*
X139431967Y-101580635D01*
X139402025Y-101485117D01*
X139335056Y-101275504D01*
X139270844Y-101082557D01*
X139211267Y-100911584D01*
X139158201Y-100767896D01*
X139113522Y-100656800D01*
X139093338Y-100611796D01*
X138917381Y-100288666D01*
X138710083Y-99992827D01*
X138473285Y-99725921D01*
X138208826Y-99489588D01*
X137918545Y-99285470D01*
X137604281Y-99115206D01*
X137267875Y-98980440D01*
X137262717Y-98978712D01*
X137192700Y-98955139D01*
X137129665Y-98933989D01*
X137071064Y-98915129D01*
X137014351Y-98898430D01*
X136956977Y-98883759D01*
X136896397Y-98870987D01*
X136830062Y-98859982D01*
X136755426Y-98850613D01*
X136669942Y-98842750D01*
X136571061Y-98836260D01*
X136456238Y-98831013D01*
X136322924Y-98826879D01*
X136168573Y-98823725D01*
X135990637Y-98821421D01*
X135786570Y-98819836D01*
X135553823Y-98818839D01*
X135289851Y-98818299D01*
X134992105Y-98818085D01*
X134658038Y-98818066D01*
X134285104Y-98818110D01*
X134140634Y-98818117D01*
X133763729Y-98818146D01*
X133426694Y-98818258D01*
X133127063Y-98818489D01*
X132862374Y-98818875D01*
X132630162Y-98819453D01*
X132427963Y-98820260D01*
X132253313Y-98821331D01*
X132103748Y-98822703D01*
X131976804Y-98824413D01*
X131870016Y-98826497D01*
X131780921Y-98828991D01*
X131707054Y-98831932D01*
X131645952Y-98835357D01*
X131595151Y-98839301D01*
X131552186Y-98843801D01*
X131514593Y-98848893D01*
X131479908Y-98854615D01*
X131463050Y-98857692D01*
X131105788Y-98945182D01*
X130766127Y-99069826D01*
X130446423Y-99229776D01*
X130149033Y-99423185D01*
X129876315Y-99648203D01*
X129630626Y-99902982D01*
X129414323Y-100185675D01*
X129229764Y-100494432D01*
X129140933Y-100678531D01*
X129118261Y-100735508D01*
X129085155Y-100826774D01*
X129043702Y-100946180D01*
X128995990Y-101087576D01*
X128944104Y-101244812D01*
X128890130Y-101411738D01*
X128859279Y-101508713D01*
X128644354Y-102188476D01*
X127291526Y-102188476D01*
X127305225Y-102145088D01*
X127397164Y-101854670D01*
X127484159Y-101580678D01*
X127565358Y-101325775D01*
X127639908Y-101092626D01*
X127706957Y-100883897D01*
X127765654Y-100702252D01*
X127815146Y-100550356D01*
X127854582Y-100430874D01*
X127883108Y-100346469D01*
X127899874Y-100299809D01*
X127899883Y-100299784D01*
X128073762Y-99915456D01*
X128282977Y-99552252D01*
X128525071Y-99212226D01*
X128797586Y-98897433D01*
X129098064Y-98609927D01*
X129424046Y-98351763D01*
X129773073Y-98124995D01*
X130142688Y-97931679D01*
X130530432Y-97773869D01*
X130933847Y-97653620D01*
X131113800Y-97613515D01*
X131189637Y-97598675D01*
X131262798Y-97585376D01*
X131335888Y-97573544D01*
X131411511Y-97563103D01*
X131492273Y-97553979D01*
X131580777Y-97546095D01*
X131679629Y-97539378D01*
X131791432Y-97533751D01*
X131918792Y-97529140D01*
X132064314Y-97525470D01*
X132230601Y-97522665D01*
X132420258Y-97520650D01*
X132635891Y-97519351D01*
X132880103Y-97518692D01*
X133155500Y-97518598D01*
X133464685Y-97518993D01*
X133810264Y-97519804D01*
X134194841Y-97520954D01*
X134309967Y-97521326D01*
X134689344Y-97522563D01*
X135029042Y-97523728D01*
X135331711Y-97524939D01*
X135600006Y-97526312D01*
X135836577Y-97527964D01*
X136044079Y-97530012D01*
X136225163Y-97532572D01*
X136382482Y-97535763D01*
X136518689Y-97539699D01*
X136636436Y-97544499D01*
X136738375Y-97550280D01*
X136827160Y-97557157D01*
X136905443Y-97565248D01*
X136975876Y-97574670D01*
X137041113Y-97585539D01*
X137103805Y-97597973D01*
X137166605Y-97612088D01*
X137232165Y-97628001D01*
X137303139Y-97645829D01*
X137338455Y-97654735D01*
X137747264Y-97778857D01*
X138139067Y-97940207D01*
X138511529Y-98136767D01*
X138862316Y-98366517D01*
X139189094Y-98627438D01*
X139489529Y-98917512D01*
X139761286Y-99234719D01*
X140002032Y-99577040D01*
X140209431Y-99942457D01*
X140355632Y-100264451D01*
X140370464Y-100305494D01*
X140396590Y-100382842D01*
X140433098Y-100493603D01*
X140479078Y-100634885D01*
X140533618Y-100803797D01*
X140595808Y-100997446D01*
X140664736Y-101212940D01*
X140739492Y-101447389D01*
X140819164Y-101697898D01*
X140902841Y-101961578D01*
X140989613Y-102235536D01*
X141078567Y-102516879D01*
X141168794Y-102802716D01*
X141259382Y-103090156D01*
X141349420Y-103376306D01*
X141437997Y-103658274D01*
X141524203Y-103933168D01*
X141607125Y-104198097D01*
X141685853Y-104450169D01*
X141759476Y-104686491D01*
X141827083Y-104904172D01*
X141887763Y-105100320D01*
X141940605Y-105272042D01*
X141984697Y-105416448D01*
X142019129Y-105530645D01*
X142042990Y-105611741D01*
X142055368Y-105656844D01*
X142056967Y-105665006D01*
X142050679Y-105691547D01*
X142032425Y-105755527D01*
X142003114Y-105854056D01*
X141963658Y-105984244D01*
X141914970Y-106143204D01*
X141857959Y-106328045D01*
X141793537Y-106535880D01*
X141722616Y-106763819D01*
X141646108Y-107008974D01*
X141564922Y-107268454D01*
X141479971Y-107539372D01*
X141392166Y-107818839D01*
X141302419Y-108103964D01*
X141211640Y-108391861D01*
X141120741Y-108679639D01*
X141030634Y-108964410D01*
X140942229Y-109243284D01*
X140856438Y-109513373D01*
X140774173Y-109771788D01*
X140696344Y-110015640D01*
X140623863Y-110242040D01*
X140557642Y-110448099D01*
X140498591Y-110630928D01*
X140447622Y-110787638D01*
X140405647Y-110915340D01*
X140373576Y-111011145D01*
X140352321Y-111072165D01*
X140345979Y-111088865D01*
X140177178Y-111448768D01*
X139970112Y-111798394D01*
X139728577Y-112132228D01*
X139456373Y-112444754D01*
X139313817Y-112587610D01*
X138992718Y-112866152D01*
X138646956Y-113111200D01*
X138279279Y-113321521D01*
X137892430Y-113495885D01*
X137489157Y-113633059D01*
X137072204Y-113731812D01*
X136644318Y-113790912D01*
X136627717Y-113792374D01*
X136578629Y-113794762D01*
X136490671Y-113797010D01*
X136367305Y-113799114D01*
X136211993Y-113801068D01*
X136028199Y-113802866D01*
X135819385Y-113804504D01*
X135589013Y-113805976D01*
X135340547Y-113807278D01*
X135077448Y-113808402D01*
X134803180Y-113809346D01*
X134521205Y-113810102D01*
X134234986Y-113810667D01*
X133947984Y-113811034D01*
X133663664Y-113811198D01*
X133385487Y-113811155D01*
X133116917Y-113810899D01*
X132861415Y-113810424D01*
X132622444Y-113809726D01*
X132403468Y-113808799D01*
X132207948Y-113807637D01*
X132039347Y-113806237D01*
X131901128Y-113804592D01*
X131796753Y-113802696D01*
X131729686Y-113800546D01*
X131717050Y-113799829D01*
X131291514Y-113750124D01*
X130876766Y-113660929D01*
X130475298Y-113533854D01*
X130089604Y-113370511D01*
X129722178Y-113172509D01*
X129375512Y-112941460D01*
X129052101Y-112678974D01*
X128754437Y-112386662D01*
X128485013Y-112066134D01*
X128246323Y-111719001D01*
X128100107Y-111463400D01*
X128043281Y-111351389D01*
X127984752Y-111228861D01*
X127933060Y-111113998D01*
X127908448Y-111055254D01*
X127892769Y-111011806D01*
X127865301Y-110930570D01*
X127826883Y-110814164D01*
X127778351Y-110665207D01*
X127720542Y-110486317D01*
X127654295Y-110280113D01*
X127580446Y-110049212D01*
X127499832Y-109796235D01*
X127413292Y-109523799D01*
X127321662Y-109234522D01*
X127291566Y-109139258D01*
X128643624Y-109139258D01*
X128861303Y-109831271D01*
X128953646Y-110117035D01*
X129040189Y-110366331D01*
X129123649Y-110584161D01*
X129206744Y-110775524D01*
X129292191Y-110945421D01*
X129382709Y-111098851D01*
X129481015Y-111240815D01*
X129589828Y-111376314D01*
X129711864Y-111510347D01*
X129847469Y-111645635D01*
X130125388Y-111884110D01*
X130424436Y-112086174D01*
X130742791Y-112250971D01*
X131078628Y-112377641D01*
X131430126Y-112465327D01*
X131664134Y-112500783D01*
X131706088Y-112503140D01*
X131787485Y-112505331D01*
X131905430Y-112507339D01*
X132057033Y-112509149D01*
X132239401Y-112510746D01*
X132449643Y-112512115D01*
X132684867Y-112513239D01*
X132942181Y-112514105D01*
X133218692Y-112514695D01*
X133511510Y-112514995D01*
X133817743Y-112514990D01*
X134134497Y-112514664D01*
X134235884Y-112514492D01*
X134607018Y-112513790D01*
X134938305Y-112513103D01*
X135232234Y-112512384D01*
X135491290Y-112511588D01*
X135717961Y-112510667D01*
X135914734Y-112509576D01*
X136084096Y-112508268D01*
X136228533Y-112506696D01*
X136350534Y-112504815D01*
X136452584Y-112502577D01*
X136537172Y-112499936D01*
X136606783Y-112496846D01*
X136663905Y-112493260D01*
X136711026Y-112489132D01*
X136750631Y-112484416D01*
X136785208Y-112479064D01*
X136817245Y-112473031D01*
X136849227Y-112466270D01*
X136852136Y-112465636D01*
X137220427Y-112365722D01*
X137563102Y-112232285D01*
X137880903Y-112064931D01*
X138174571Y-111863265D01*
X138444847Y-111626891D01*
X138466769Y-111605182D01*
X138601013Y-111465284D01*
X138719964Y-111327695D01*
X138826364Y-111187261D01*
X138922954Y-111038826D01*
X139012476Y-110877235D01*
X139097671Y-110697332D01*
X139181282Y-110493961D01*
X139266049Y-110261969D01*
X139354715Y-109996198D01*
X139402331Y-109845950D01*
X139452390Y-109685943D01*
X139498760Y-109538105D01*
X139539848Y-109407493D01*
X139574056Y-109299164D01*
X139599790Y-109218175D01*
X139615455Y-109169583D01*
X139619314Y-109158193D01*
X139611792Y-109151811D01*
X139579717Y-109169026D01*
X139547659Y-109192465D01*
X139300032Y-109369414D01*
X139021309Y-109536794D01*
X138722528Y-109689158D01*
X138414725Y-109821061D01*
X138108938Y-109927059D01*
X137990317Y-109960810D01*
X137922171Y-109979121D01*
X137860718Y-109995757D01*
X137803739Y-110010798D01*
X137749017Y-110024322D01*
X137694335Y-110036412D01*
X137637473Y-110047146D01*
X137576214Y-110056605D01*
X137508341Y-110064869D01*
X137431634Y-110072018D01*
X137343877Y-110078133D01*
X137242852Y-110083293D01*
X137126340Y-110087579D01*
X136992123Y-110091071D01*
X136837984Y-110093849D01*
X136661705Y-110095993D01*
X136461067Y-110097584D01*
X136233854Y-110098701D01*
X135977846Y-110099425D01*
X135690827Y-110099836D01*
X135370577Y-110100013D01*
X135014880Y-110100038D01*
X134621517Y-110099991D01*
X134188270Y-110099951D01*
X134140634Y-110099950D01*
X133700492Y-110099983D01*
X133300470Y-110100024D01*
X132938354Y-110099991D01*
X132611928Y-110099798D01*
X132318979Y-110099363D01*
X132057293Y-110098601D01*
X131824656Y-110097429D01*
X131618854Y-110095762D01*
X131437672Y-110093516D01*
X131278898Y-110090609D01*
X131140315Y-110086954D01*
X131019712Y-110082470D01*
X130914873Y-110077071D01*
X130823584Y-110070674D01*
X130743631Y-110063195D01*
X130672801Y-110054550D01*
X130608879Y-110044655D01*
X130549651Y-110033427D01*
X130492904Y-110020780D01*
X130436422Y-110006632D01*
X130377992Y-109990898D01*
X130315401Y-109973495D01*
X130246433Y-109954338D01*
X130237974Y-109952014D01*
X129911707Y-109847556D01*
X129586644Y-109715032D01*
X129273313Y-109559583D01*
X128982247Y-109386350D01*
X128766140Y-109233533D01*
X128643624Y-109139258D01*
X127291566Y-109139258D01*
X127225780Y-108931024D01*
X127126482Y-108615922D01*
X127024607Y-108291835D01*
X127016590Y-108266297D01*
X126402875Y-106311117D01*
X127956499Y-106311117D01*
X128446243Y-106956700D01*
X128595804Y-107153489D01*
X128723068Y-107319927D01*
X128831028Y-107459612D01*
X128922676Y-107576143D01*
X129001007Y-107673115D01*
X129069013Y-107754129D01*
X129129687Y-107822780D01*
X129186022Y-107882668D01*
X129241013Y-107937390D01*
X129297651Y-107990544D01*
X129332925Y-108022511D01*
X129616471Y-108249011D01*
X129922059Y-108440166D01*
X130246613Y-108594510D01*
X130587057Y-108710580D01*
X130937441Y-108786460D01*
X130970020Y-108790600D01*
X131013670Y-108794329D01*
X131070387Y-108797662D01*
X131142164Y-108800614D01*
X131230995Y-108803202D01*
X131338873Y-108805440D01*
X131467793Y-108807343D01*
X131619747Y-108808927D01*
X131796731Y-108810208D01*
X132000738Y-108811199D01*
X132233761Y-108811918D01*
X132497795Y-108812379D01*
X132794833Y-108812597D01*
X133126869Y-108812588D01*
X133495896Y-108812367D01*
X133903910Y-108811950D01*
X134204134Y-108811562D01*
X134625743Y-108810971D01*
X135007172Y-108810400D01*
X135350575Y-108809816D01*
X135658106Y-108809188D01*
X135931916Y-108808482D01*
X136174161Y-108807668D01*
X136386994Y-108806713D01*
X136572567Y-108805585D01*
X136733035Y-108804253D01*
X136870551Y-108802684D01*
X136987269Y-108800845D01*
X137085341Y-108798707D01*
X137166922Y-108796235D01*
X137234164Y-108793398D01*
X137289222Y-108790165D01*
X137334249Y-108786502D01*
X137371398Y-108782379D01*
X137402823Y-108777763D01*
X137430678Y-108772622D01*
X137457114Y-108766924D01*
X137474384Y-108762947D01*
X137823097Y-108664782D01*
X138142872Y-108538429D01*
X138438522Y-108381254D01*
X138714863Y-108190618D01*
X138976708Y-107963887D01*
X139031441Y-107910305D01*
X139111717Y-107827389D01*
X139196051Y-107734508D01*
X139287853Y-107627505D01*
X139390534Y-107502224D01*
X139507505Y-107354509D01*
X139642175Y-107180203D01*
X139787912Y-106988450D01*
X140299660Y-106311117D01*
X137221857Y-106305755D01*
X136792195Y-106305098D01*
X136327001Y-106304557D01*
X135833078Y-106304132D01*
X135317226Y-106303821D01*
X134786248Y-106303625D01*
X134246944Y-106303545D01*
X133706118Y-106303580D01*
X133170569Y-106303729D01*
X132647101Y-106303994D01*
X132142514Y-106304374D01*
X131663611Y-106304870D01*
X131217193Y-106305480D01*
X131050277Y-106305755D01*
X127956499Y-106311117D01*
X126402875Y-106311117D01*
X126200075Y-105665036D01*
X126404611Y-105012898D01*
G36*
X150417800Y-102871534D02*
G01*
X152555634Y-102871534D01*
X152555634Y-104459034D01*
X150417800Y-104459034D01*
X150417800Y-106163843D01*
X150417856Y-106488358D01*
X150418125Y-106773502D01*
X150418757Y-107022239D01*
X150419902Y-107237530D01*
X150421710Y-107422337D01*
X150424332Y-107579624D01*
X150427917Y-107712353D01*
X150432617Y-107823487D01*
X150438581Y-107915988D01*
X150445960Y-107992818D01*
X150454904Y-108056940D01*
X150465563Y-108111317D01*
X150478088Y-108158912D01*
X150492628Y-108202686D01*
X150509334Y-108245602D01*
X150525309Y-108283526D01*
X150619586Y-108451107D01*
X150746992Y-108593508D01*
X150905200Y-108708681D01*
X151091888Y-108794581D01*
X151114773Y-108802390D01*
X151157273Y-108815503D01*
X151200223Y-108825998D01*
X151249071Y-108834250D01*
X151309263Y-108840635D01*
X151386248Y-108845528D01*
X151485472Y-108849304D01*
X151612383Y-108852340D01*
X151772427Y-108855009D01*
X151904759Y-108856831D01*
X152555634Y-108865374D01*
X152555634Y-110576200D01*
X151841259Y-110573249D01*
X151661591Y-110572030D01*
X151486911Y-110569958D01*
X151323946Y-110567177D01*
X151179423Y-110563834D01*
X151060070Y-110560075D01*
X150972614Y-110556043D01*
X150940481Y-110553757D01*
X150625695Y-110510161D01*
X150319563Y-110437236D01*
X150029727Y-110337514D01*
X149763828Y-110213521D01*
X149581717Y-110104115D01*
X149337714Y-109916045D01*
X149125565Y-109700716D01*
X148944726Y-109457397D01*
X148794652Y-109185356D01*
X148674801Y-108883861D01*
X148674188Y-108882009D01*
X148649843Y-108808369D01*
X148628321Y-108741549D01*
X148609436Y-108678568D01*
X148593004Y-108616444D01*
X148578842Y-108552196D01*
X148566763Y-108482843D01*
X148556584Y-108405404D01*
X148548119Y-108316897D01*
X148541185Y-108214341D01*
X148535597Y-108094755D01*
X148531170Y-107955158D01*
X148527719Y-107792568D01*
X148525061Y-107604004D01*
X148523010Y-107386486D01*
X148521382Y-107137030D01*
X148519992Y-106852657D01*
X148518656Y-106530385D01*
X148517969Y-106358742D01*
X148510336Y-104459034D01*
X147009967Y-104459034D01*
X147009967Y-102871534D01*
X148512800Y-102871534D01*
X148512800Y-100543200D01*
X150417800Y-100543200D01*
X150417800Y-102871534D01*
G37*
X150417800Y-102871534D02*
X152555634Y-102871534D01*
X152555634Y-104459034D01*
X150417800Y-104459034D01*
X150417800Y-106163843D01*
X150417856Y-106488358D01*
X150418125Y-106773502D01*
X150418757Y-107022239D01*
X150419902Y-107237530D01*
X150421710Y-107422337D01*
X150424332Y-107579624D01*
X150427917Y-107712353D01*
X150432617Y-107823487D01*
X150438581Y-107915988D01*
X150445960Y-107992818D01*
X150454904Y-108056940D01*
X150465563Y-108111317D01*
X150478088Y-108158912D01*
X150492628Y-108202686D01*
X150509334Y-108245602D01*
X150525309Y-108283526D01*
X150619586Y-108451107D01*
X150746992Y-108593508D01*
X150905200Y-108708681D01*
X151091888Y-108794581D01*
X151114773Y-108802390D01*
X151157273Y-108815503D01*
X151200223Y-108825998D01*
X151249071Y-108834250D01*
X151309263Y-108840635D01*
X151386248Y-108845528D01*
X151485472Y-108849304D01*
X151612383Y-108852340D01*
X151772427Y-108855009D01*
X151904759Y-108856831D01*
X152555634Y-108865374D01*
X152555634Y-110576200D01*
X151841259Y-110573249D01*
X151661591Y-110572030D01*
X151486911Y-110569958D01*
X151323946Y-110567177D01*
X151179423Y-110563834D01*
X151060070Y-110560075D01*
X150972614Y-110556043D01*
X150940481Y-110553757D01*
X150625695Y-110510161D01*
X150319563Y-110437236D01*
X150029727Y-110337514D01*
X149763828Y-110213521D01*
X149581717Y-110104115D01*
X149337714Y-109916045D01*
X149125565Y-109700716D01*
X148944726Y-109457397D01*
X148794652Y-109185356D01*
X148674801Y-108883861D01*
X148674188Y-108882009D01*
X148649843Y-108808369D01*
X148628321Y-108741549D01*
X148609436Y-108678568D01*
X148593004Y-108616444D01*
X148578842Y-108552196D01*
X148566763Y-108482843D01*
X148556584Y-108405404D01*
X148548119Y-108316897D01*
X148541185Y-108214341D01*
X148535597Y-108094755D01*
X148531170Y-107955158D01*
X148527719Y-107792568D01*
X148525061Y-107604004D01*
X148523010Y-107386486D01*
X148521382Y-107137030D01*
X148519992Y-106852657D01*
X148518656Y-106530385D01*
X148517969Y-106358742D01*
X148510336Y-104459034D01*
X147009967Y-104459034D01*
X147009967Y-102871534D01*
X148512800Y-102871534D01*
X148512800Y-100543200D01*
X150417800Y-100543200D01*
X150417800Y-102871534D01*
G36*
X155391967Y-110576200D02*
G01*
X153486967Y-110576200D01*
X153486967Y-102871534D01*
X155391967Y-102871534D01*
X155391967Y-110576200D01*
G37*
X155391967Y-110576200D02*
X153486967Y-110576200D01*
X153486967Y-102871534D01*
X155391967Y-102871534D01*
X155391967Y-110576200D01*
G36*
X155497800Y-101686200D02*
G01*
X153402300Y-101686200D01*
X153402300Y-99527200D01*
X155497800Y-99527200D01*
X155497800Y-101686200D01*
G37*
X155497800Y-101686200D02*
X153402300Y-101686200D01*
X153402300Y-99527200D01*
X155497800Y-99527200D01*
X155497800Y-101686200D01*
G36*
X160950162Y-102751300D02*
G01*
X161311834Y-102786180D01*
X161652297Y-102857373D01*
X161970508Y-102963971D01*
X162265424Y-103105067D01*
X162536004Y-103279752D01*
X162781205Y-103487120D01*
X162999983Y-103726261D01*
X163191297Y-103996268D01*
X163354104Y-104296233D01*
X163487361Y-104625249D01*
X163590026Y-104982407D01*
X163608798Y-105066528D01*
X163657229Y-105295117D01*
X163663311Y-107935659D01*
X163669393Y-110576200D01*
X161786025Y-110576200D01*
X161779432Y-108221409D01*
X161772838Y-105866617D01*
X161715228Y-105656060D01*
X161623503Y-105387628D01*
X161503948Y-105151093D01*
X161356559Y-104946454D01*
X161181335Y-104773708D01*
X160978274Y-104632850D01*
X160843999Y-104564061D01*
X160674739Y-104499010D01*
X160501284Y-104457738D01*
X160310264Y-104437620D01*
X160184703Y-104434610D01*
X159908482Y-104454123D01*
X159649301Y-104511672D01*
X159409029Y-104605770D01*
X159189533Y-104734932D01*
X158992681Y-104897673D01*
X158820340Y-105092507D01*
X158674380Y-105317950D01*
X158556666Y-105572514D01*
X158487213Y-105784664D01*
X158429756Y-105993617D01*
X158423646Y-108284909D01*
X158417536Y-110576200D01*
X156513800Y-110576200D01*
X156513800Y-102871534D01*
X158418800Y-102871534D01*
X158418800Y-104001990D01*
X158527003Y-103837170D01*
X158710181Y-103596078D01*
X158923739Y-103382964D01*
X159165427Y-103198836D01*
X159432994Y-103044702D01*
X159724191Y-102921572D01*
X160036767Y-102830454D01*
X160368470Y-102772355D01*
X160717052Y-102748285D01*
X160950162Y-102751300D01*
G37*
X160950162Y-102751300D02*
X161311834Y-102786180D01*
X161652297Y-102857373D01*
X161970508Y-102963971D01*
X162265424Y-103105067D01*
X162536004Y-103279752D01*
X162781205Y-103487120D01*
X162999983Y-103726261D01*
X163191297Y-103996268D01*
X163354104Y-104296233D01*
X163487361Y-104625249D01*
X163590026Y-104982407D01*
X163608798Y-105066528D01*
X163657229Y-105295117D01*
X163663311Y-107935659D01*
X163669393Y-110576200D01*
X161786025Y-110576200D01*
X161779432Y-108221409D01*
X161772838Y-105866617D01*
X161715228Y-105656060D01*
X161623503Y-105387628D01*
X161503948Y-105151093D01*
X161356559Y-104946454D01*
X161181335Y-104773708D01*
X160978274Y-104632850D01*
X160843999Y-104564061D01*
X160674739Y-104499010D01*
X160501284Y-104457738D01*
X160310264Y-104437620D01*
X160184703Y-104434610D01*
X159908482Y-104454123D01*
X159649301Y-104511672D01*
X159409029Y-104605770D01*
X159189533Y-104734932D01*
X158992681Y-104897673D01*
X158820340Y-105092507D01*
X158674380Y-105317950D01*
X158556666Y-105572514D01*
X158487213Y-105784664D01*
X158429756Y-105993617D01*
X158423646Y-108284909D01*
X158417536Y-110576200D01*
X156513800Y-110576200D01*
X156513800Y-102871534D01*
X158418800Y-102871534D01*
X158418800Y-104001990D01*
X158527003Y-103837170D01*
X158710181Y-103596078D01*
X158923739Y-103382964D01*
X159165427Y-103198836D01*
X159432994Y-103044702D01*
X159724191Y-102921572D01*
X160036767Y-102830454D01*
X160368470Y-102772355D01*
X160717052Y-102748285D01*
X160950162Y-102751300D01*
%TD*%
M02*
