%TF.GenerationSoftware,KiCad,Pcbnew,(6.0.7)*%
%TF.CreationDate,2022-09-05T18:43:59-05:00*%
%TF.ProjectId,Tines SAO,54696e65-7320-4534-914f-2e6b69636164,rev?*%
%TF.SameCoordinates,Original*%
%TF.FileFunction,Legend,Bot*%
%TF.FilePolarity,Positive*%
%FSLAX46Y46*%
G04 Gerber Fmt 4.6, Leading zero omitted, Abs format (unit mm)*
G04 Created by KiCad (PCBNEW (6.0.7)) date 2022-09-05 18:43:59*
%MOMM*%
%LPD*%
G01*
G04 APERTURE LIST*
%ADD10C,0.150000*%
%ADD11C,0.500000*%
G04 APERTURE END LIST*
D10*
%TO.C,X1*%
X152855561Y-106288438D02*
X152903180Y-106383676D01*
X152903180Y-106574152D01*
X152855561Y-106669390D01*
X152760323Y-106717009D01*
X152712704Y-106717009D01*
X152617466Y-106669390D01*
X152569847Y-106574152D01*
X152569847Y-106431295D01*
X152522228Y-106336057D01*
X152426990Y-106288438D01*
X152379371Y-106288438D01*
X152284133Y-106336057D01*
X152236514Y-106431295D01*
X152236514Y-106574152D01*
X152284133Y-106669390D01*
X152903180Y-107574152D02*
X152379371Y-107574152D01*
X152284133Y-107526533D01*
X152236514Y-107431295D01*
X152236514Y-107240819D01*
X152284133Y-107145580D01*
X152855561Y-107574152D02*
X152903180Y-107478914D01*
X152903180Y-107240819D01*
X152855561Y-107145580D01*
X152760323Y-107097961D01*
X152665085Y-107097961D01*
X152569847Y-107145580D01*
X152522228Y-107240819D01*
X152522228Y-107478914D01*
X152474609Y-107574152D01*
X152903180Y-108193200D02*
X152855561Y-108097961D01*
X152807942Y-108050342D01*
X152712704Y-108002723D01*
X152426990Y-108002723D01*
X152331752Y-108050342D01*
X152284133Y-108097961D01*
X152236514Y-108193200D01*
X152236514Y-108336057D01*
X152284133Y-108431295D01*
X152331752Y-108478914D01*
X152426990Y-108526533D01*
X152712704Y-108526533D01*
X152807942Y-108478914D01*
X152855561Y-108431295D01*
X152903180Y-108336057D01*
X152903180Y-108193200D01*
X152998419Y-108717009D02*
X152998419Y-109478914D01*
X152236514Y-109621771D02*
X152903180Y-109859866D01*
X152236514Y-110097961D01*
X152903180Y-111002723D02*
X152903180Y-110431295D01*
X152903180Y-110717009D02*
X151903180Y-110717009D01*
X152046038Y-110621771D01*
X152141276Y-110526533D01*
X152188895Y-110431295D01*
X151903180Y-111859866D02*
X151903180Y-111669390D01*
X151950800Y-111574152D01*
X151998419Y-111526533D01*
X152141276Y-111431295D01*
X152331752Y-111383676D01*
X152712704Y-111383676D01*
X152807942Y-111431295D01*
X152855561Y-111478914D01*
X152903180Y-111574152D01*
X152903180Y-111764628D01*
X152855561Y-111859866D01*
X152807942Y-111907485D01*
X152712704Y-111955104D01*
X152474609Y-111955104D01*
X152379371Y-111907485D01*
X152331752Y-111859866D01*
X152284133Y-111764628D01*
X152284133Y-111574152D01*
X152331752Y-111478914D01*
X152379371Y-111431295D01*
X152474609Y-111383676D01*
X152903180Y-112431295D02*
X152903180Y-112621771D01*
X152855561Y-112717009D01*
X152807942Y-112764628D01*
X152665085Y-112859866D01*
X152474609Y-112907485D01*
X152093657Y-112907485D01*
X151998419Y-112859866D01*
X151950800Y-112812247D01*
X151903180Y-112717009D01*
X151903180Y-112526533D01*
X151950800Y-112431295D01*
X151998419Y-112383676D01*
X152093657Y-112336057D01*
X152331752Y-112336057D01*
X152426990Y-112383676D01*
X152474609Y-112431295D01*
X152522228Y-112526533D01*
X152522228Y-112717009D01*
X152474609Y-112812247D01*
X152426990Y-112859866D01*
X152331752Y-112907485D01*
X152903180Y-113336057D02*
X151903180Y-113336057D01*
X152284133Y-113336057D02*
X152236514Y-113431295D01*
X152236514Y-113621771D01*
X152284133Y-113717009D01*
X152331752Y-113764628D01*
X152426990Y-113812247D01*
X152712704Y-113812247D01*
X152807942Y-113764628D01*
X152855561Y-113717009D01*
X152903180Y-113621771D01*
X152903180Y-113431295D01*
X152855561Y-113336057D01*
X152903180Y-114240819D02*
X152236514Y-114240819D01*
X151903180Y-114240819D02*
X151950800Y-114193200D01*
X151998419Y-114240819D01*
X151950800Y-114288438D01*
X151903180Y-114240819D01*
X151998419Y-114240819D01*
X152855561Y-114669390D02*
X152903180Y-114764628D01*
X152903180Y-114955104D01*
X152855561Y-115050342D01*
X152760323Y-115097961D01*
X152712704Y-115097961D01*
X152617466Y-115050342D01*
X152569847Y-114955104D01*
X152569847Y-114812247D01*
X152522228Y-114717009D01*
X152426990Y-114669390D01*
X152379371Y-114669390D01*
X152284133Y-114717009D01*
X152236514Y-114812247D01*
X152236514Y-114955104D01*
X152284133Y-115050342D01*
X148630342Y-108235400D02*
X148701771Y-108199685D01*
X148808914Y-108199685D01*
X148916057Y-108235400D01*
X148987485Y-108306828D01*
X149023200Y-108378257D01*
X149058914Y-108521114D01*
X149058914Y-108628257D01*
X149023200Y-108771114D01*
X148987485Y-108842542D01*
X148916057Y-108913971D01*
X148808914Y-108949685D01*
X148737485Y-108949685D01*
X148630342Y-108913971D01*
X148594628Y-108878257D01*
X148594628Y-108628257D01*
X148737485Y-108628257D01*
X148273200Y-108949685D02*
X148273200Y-108199685D01*
X147987485Y-108199685D01*
X147916057Y-108235400D01*
X147880342Y-108271114D01*
X147844628Y-108342542D01*
X147844628Y-108449685D01*
X147880342Y-108521114D01*
X147916057Y-108556828D01*
X147987485Y-108592542D01*
X148273200Y-108592542D01*
X147523200Y-108949685D02*
X147523200Y-108199685D01*
X147023200Y-108199685D02*
X146880342Y-108199685D01*
X146808914Y-108235400D01*
X146737485Y-108306828D01*
X146701771Y-108449685D01*
X146701771Y-108699685D01*
X146737485Y-108842542D01*
X146808914Y-108913971D01*
X146880342Y-108949685D01*
X147023200Y-108949685D01*
X147094628Y-108913971D01*
X147166057Y-108842542D01*
X147201771Y-108699685D01*
X147201771Y-108449685D01*
X147166057Y-108306828D01*
X147094628Y-108235400D01*
X147023200Y-108199685D01*
X145987485Y-108949685D02*
X146416057Y-108949685D01*
X146201771Y-108949685D02*
X146201771Y-108199685D01*
X146273200Y-108306828D01*
X146344628Y-108378257D01*
X146416057Y-108413971D01*
X145215657Y-114578171D02*
X145108514Y-114613885D01*
X144929942Y-114613885D01*
X144858514Y-114578171D01*
X144822800Y-114542457D01*
X144787085Y-114471028D01*
X144787085Y-114399600D01*
X144822800Y-114328171D01*
X144858514Y-114292457D01*
X144929942Y-114256742D01*
X145072800Y-114221028D01*
X145144228Y-114185314D01*
X145179942Y-114149600D01*
X145215657Y-114078171D01*
X145215657Y-114006742D01*
X145179942Y-113935314D01*
X145144228Y-113899600D01*
X145072800Y-113863885D01*
X144894228Y-113863885D01*
X144787085Y-113899600D01*
X144037085Y-114542457D02*
X144072800Y-114578171D01*
X144179942Y-114613885D01*
X144251371Y-114613885D01*
X144358514Y-114578171D01*
X144429942Y-114506742D01*
X144465657Y-114435314D01*
X144501371Y-114292457D01*
X144501371Y-114185314D01*
X144465657Y-114042457D01*
X144429942Y-113971028D01*
X144358514Y-113899600D01*
X144251371Y-113863885D01*
X144179942Y-113863885D01*
X144072800Y-113899600D01*
X144037085Y-113935314D01*
X143358514Y-114613885D02*
X143715657Y-114613885D01*
X143715657Y-113863885D01*
X142782800Y-108225085D02*
X142532800Y-108975085D01*
X142282800Y-108225085D01*
X141604228Y-108903657D02*
X141639942Y-108939371D01*
X141747085Y-108975085D01*
X141818514Y-108975085D01*
X141925657Y-108939371D01*
X141997085Y-108867942D01*
X142032800Y-108796514D01*
X142068514Y-108653657D01*
X142068514Y-108546514D01*
X142032800Y-108403657D01*
X141997085Y-108332228D01*
X141925657Y-108260800D01*
X141818514Y-108225085D01*
X141747085Y-108225085D01*
X141639942Y-108260800D01*
X141604228Y-108296514D01*
X140854228Y-108903657D02*
X140889942Y-108939371D01*
X140997085Y-108975085D01*
X141068514Y-108975085D01*
X141175657Y-108939371D01*
X141247085Y-108867942D01*
X141282800Y-108796514D01*
X141318514Y-108653657D01*
X141318514Y-108546514D01*
X141282800Y-108403657D01*
X141247085Y-108332228D01*
X141175657Y-108260800D01*
X141068514Y-108225085D01*
X140997085Y-108225085D01*
X140889942Y-108260800D01*
X140854228Y-108296514D01*
X145487514Y-108913971D02*
X145380371Y-108949685D01*
X145201800Y-108949685D01*
X145130371Y-108913971D01*
X145094657Y-108878257D01*
X145058942Y-108806828D01*
X145058942Y-108735400D01*
X145094657Y-108663971D01*
X145130371Y-108628257D01*
X145201800Y-108592542D01*
X145344657Y-108556828D01*
X145416085Y-108521114D01*
X145451800Y-108485400D01*
X145487514Y-108413971D01*
X145487514Y-108342542D01*
X145451800Y-108271114D01*
X145416085Y-108235400D01*
X145344657Y-108199685D01*
X145166085Y-108199685D01*
X145058942Y-108235400D01*
X144737514Y-108949685D02*
X144737514Y-108199685D01*
X144558942Y-108199685D01*
X144451800Y-108235400D01*
X144380371Y-108306828D01*
X144344657Y-108378257D01*
X144308942Y-108521114D01*
X144308942Y-108628257D01*
X144344657Y-108771114D01*
X144380371Y-108842542D01*
X144451800Y-108913971D01*
X144558942Y-108949685D01*
X144737514Y-108949685D01*
X144023228Y-108735400D02*
X143666085Y-108735400D01*
X144094657Y-108949685D02*
X143844657Y-108199685D01*
X143594657Y-108949685D01*
X148757342Y-113874200D02*
X148828771Y-113838485D01*
X148935914Y-113838485D01*
X149043057Y-113874200D01*
X149114485Y-113945628D01*
X149150200Y-114017057D01*
X149185914Y-114159914D01*
X149185914Y-114267057D01*
X149150200Y-114409914D01*
X149114485Y-114481342D01*
X149043057Y-114552771D01*
X148935914Y-114588485D01*
X148864485Y-114588485D01*
X148757342Y-114552771D01*
X148721628Y-114517057D01*
X148721628Y-114267057D01*
X148864485Y-114267057D01*
X148400200Y-114588485D02*
X148400200Y-113838485D01*
X148114485Y-113838485D01*
X148043057Y-113874200D01*
X148007342Y-113909914D01*
X147971628Y-113981342D01*
X147971628Y-114088485D01*
X148007342Y-114159914D01*
X148043057Y-114195628D01*
X148114485Y-114231342D01*
X148400200Y-114231342D01*
X147650200Y-114588485D02*
X147650200Y-113838485D01*
X147150200Y-113838485D02*
X147007342Y-113838485D01*
X146935914Y-113874200D01*
X146864485Y-113945628D01*
X146828771Y-114088485D01*
X146828771Y-114338485D01*
X146864485Y-114481342D01*
X146935914Y-114552771D01*
X147007342Y-114588485D01*
X147150200Y-114588485D01*
X147221628Y-114552771D01*
X147293057Y-114481342D01*
X147328771Y-114338485D01*
X147328771Y-114088485D01*
X147293057Y-113945628D01*
X147221628Y-113874200D01*
X147150200Y-113838485D01*
X146543057Y-113909914D02*
X146507342Y-113874200D01*
X146435914Y-113838485D01*
X146257342Y-113838485D01*
X146185914Y-113874200D01*
X146150200Y-113909914D01*
X146114485Y-113981342D01*
X146114485Y-114052771D01*
X146150200Y-114159914D01*
X146578771Y-114588485D01*
X146114485Y-114588485D01*
X142405028Y-113899600D02*
X142476457Y-113863885D01*
X142583600Y-113863885D01*
X142690742Y-113899600D01*
X142762171Y-113971028D01*
X142797885Y-114042457D01*
X142833600Y-114185314D01*
X142833600Y-114292457D01*
X142797885Y-114435314D01*
X142762171Y-114506742D01*
X142690742Y-114578171D01*
X142583600Y-114613885D01*
X142512171Y-114613885D01*
X142405028Y-114578171D01*
X142369314Y-114542457D01*
X142369314Y-114292457D01*
X142512171Y-114292457D01*
X142047885Y-114613885D02*
X142047885Y-113863885D01*
X141619314Y-114613885D01*
X141619314Y-113863885D01*
X141262171Y-114613885D02*
X141262171Y-113863885D01*
X141083600Y-113863885D01*
X140976457Y-113899600D01*
X140905028Y-113971028D01*
X140869314Y-114042457D01*
X140833600Y-114185314D01*
X140833600Y-114292457D01*
X140869314Y-114435314D01*
X140905028Y-114506742D01*
X140976457Y-114578171D01*
X141083600Y-114613885D01*
X141262171Y-114613885D01*
D11*
X146761200Y-107746800D02*
X146761200Y-107238800D01*
X137998200Y-114985800D02*
X151333200Y-114985800D01*
X151333200Y-114985800D02*
X151333200Y-107873800D01*
X137998200Y-107873800D02*
X137998200Y-114985800D01*
X142443200Y-107619800D02*
X146761200Y-107619800D01*
X151206200Y-107873800D02*
X137998200Y-107873800D01*
X146761200Y-107238800D02*
X142443200Y-107238800D01*
X142443200Y-107238800D02*
X142443200Y-107746800D01*
X139192000Y-108712000D02*
G75*
G03*
X139192000Y-108712000I-254000J0D01*
G01*
%TO.C,kibuzzard-63168805*%
G36*
X178932725Y-98298000D02*
G01*
X177842730Y-99932993D01*
X156472070Y-99932993D01*
X156102800Y-99379088D01*
X156984700Y-99379088D01*
X158267400Y-99379088D01*
X158572200Y-99379088D01*
X159854900Y-99379088D01*
X159862837Y-99299713D01*
X159861250Y-99233038D01*
X159846566Y-99080638D01*
X159802512Y-98940938D01*
X159735837Y-98812747D01*
X159653287Y-98694875D01*
X159559625Y-98586131D01*
X159459612Y-98485325D01*
X159360856Y-98391663D01*
X160150175Y-98391663D01*
X160161089Y-98635344D01*
X160193831Y-98845688D01*
X160248402Y-99022694D01*
X160324800Y-99166363D01*
X160458856Y-99307474D01*
X160628189Y-99392140D01*
X160832800Y-99420363D01*
X161037411Y-99392140D01*
X161063515Y-99379088D01*
X161747200Y-99379088D01*
X163029900Y-99379088D01*
X163037837Y-99299713D01*
X163037459Y-99283838D01*
X164899975Y-99283838D01*
X165123813Y-99377500D01*
X165275816Y-99409647D01*
X165449250Y-99420363D01*
X165704661Y-99390729D01*
X165732378Y-99379088D01*
X166423975Y-99379088D01*
X166865300Y-99379088D01*
X166965312Y-99139375D01*
X167033972Y-99012375D01*
X167109775Y-98888550D01*
X167191134Y-98770281D01*
X167276463Y-98659950D01*
X167443150Y-98480563D01*
X167443150Y-99379088D01*
X167833675Y-99379088D01*
X167833675Y-98966338D01*
X168160700Y-98966338D01*
X168195625Y-99140963D01*
X168311513Y-99283838D01*
X168522650Y-99379088D01*
X168667906Y-99405281D01*
X168843325Y-99414013D01*
X169022713Y-99402900D01*
X169173525Y-99369563D01*
X169392600Y-99290188D01*
X169332275Y-98963163D01*
X169095738Y-99045713D01*
X168840150Y-99083813D01*
X168621075Y-99063175D01*
X168544875Y-98979038D01*
X168568688Y-98909188D01*
X168635363Y-98859975D01*
X168733788Y-98820288D01*
X168849675Y-98782188D01*
X169024300Y-98723450D01*
X169186225Y-98639313D01*
X169210057Y-98613913D01*
X169675175Y-98613913D01*
X169676763Y-98693288D01*
X169681525Y-98759963D01*
X170649900Y-98759963D01*
X170619738Y-98890534D01*
X170529250Y-98990150D01*
X170391138Y-99053253D01*
X170218100Y-99074288D01*
X169994263Y-99048888D01*
X169814875Y-98998088D01*
X169760900Y-99331463D01*
X169976800Y-99390200D01*
X170233975Y-99414013D01*
X170414553Y-99401709D01*
X170575288Y-99364800D01*
X170644229Y-99334638D01*
X171373800Y-99334638D01*
X171493656Y-99366388D01*
X171637325Y-99391788D01*
X171791313Y-99408456D01*
X171942125Y-99414013D01*
X172156085Y-99391082D01*
X172332297Y-99322290D01*
X172340391Y-99315588D01*
X172843825Y-99315588D01*
X173070838Y-99393375D01*
X173266100Y-99414013D01*
X173406197Y-99402900D01*
X173521688Y-99369563D01*
X173686788Y-99240975D01*
X173774100Y-99036188D01*
X173793150Y-98906806D01*
X173795930Y-98842513D01*
X174453550Y-98842513D01*
X174498397Y-99087384D01*
X174632938Y-99269550D01*
X174773167Y-99353335D01*
X174954671Y-99403606D01*
X175177450Y-99420363D01*
X175397319Y-99407266D01*
X175567975Y-99367975D01*
X175787050Y-99271138D01*
X175672750Y-98953638D01*
X175467963Y-99048888D01*
X175335803Y-99082225D01*
X175177450Y-99093338D01*
X175013938Y-99072700D01*
X174910750Y-99015550D01*
X174858363Y-98933000D01*
X174844075Y-98839338D01*
X174861538Y-98785363D01*
X176012475Y-98785363D01*
X176027556Y-98948478D01*
X176072800Y-99082225D01*
X176236313Y-99272725D01*
X176349025Y-99333844D01*
X176480788Y-99374325D01*
X176627234Y-99396947D01*
X176784000Y-99404488D01*
X176916556Y-99400916D01*
X177053875Y-99390200D01*
X177192781Y-99372341D01*
X177330100Y-99347338D01*
X177330100Y-97439162D01*
X177085625Y-97405825D01*
X176822100Y-97391537D01*
X176620488Y-97403047D01*
X176460150Y-97437575D01*
X176241075Y-97558225D01*
X176133125Y-97724912D01*
X176104550Y-97909062D01*
X176121616Y-98040825D01*
X176172813Y-98156712D01*
X176355375Y-98328163D01*
X176187497Y-98413888D01*
X176083913Y-98525013D01*
X176030334Y-98652013D01*
X176012475Y-98785363D01*
X174861538Y-98785363D01*
X174879000Y-98731388D01*
X174967900Y-98647250D01*
X175088550Y-98580575D01*
X175221900Y-98525013D01*
X175406050Y-98451988D01*
X175579088Y-98347213D01*
X175707675Y-98190050D01*
X175758475Y-97956687D01*
X175713628Y-97710625D01*
X175579088Y-97524887D01*
X175444503Y-97438457D01*
X175279932Y-97386599D01*
X175085375Y-97369312D01*
X174915909Y-97379631D01*
X174769463Y-97410587D01*
X174542450Y-97502662D01*
X174656750Y-97804287D01*
X174832963Y-97728087D01*
X175056800Y-97696337D01*
X175229661Y-97721385D01*
X175333378Y-97796526D01*
X175367950Y-97921762D01*
X175336200Y-98021775D01*
X175255238Y-98097975D01*
X175144113Y-98156712D01*
X175021875Y-98204337D01*
X174829788Y-98282125D01*
X174645638Y-98396425D01*
X174507525Y-98574225D01*
X174467044Y-98694478D01*
X174453550Y-98842513D01*
X173795930Y-98842513D01*
X173799500Y-98759963D01*
X173799500Y-98210687D01*
X174212250Y-98210687D01*
X174212250Y-97886837D01*
X173408975Y-97886837D01*
X173408975Y-98810763D01*
X173359763Y-99009200D01*
X173196250Y-99074288D01*
X173066075Y-99060000D01*
X172894625Y-99001263D01*
X172843825Y-99315588D01*
X172340391Y-99315588D01*
X172470763Y-99207638D01*
X172570422Y-99053121D01*
X172630218Y-98864738D01*
X172650150Y-98642488D01*
X172633393Y-98416181D01*
X172583122Y-98224093D01*
X172499338Y-98066225D01*
X172382744Y-97948926D01*
X172234049Y-97878547D01*
X172053250Y-97855087D01*
X171897675Y-97872550D01*
X171764325Y-97921762D01*
X171764325Y-97458212D01*
X173424850Y-97458212D01*
X173497875Y-97639187D01*
X173672500Y-97705862D01*
X173845538Y-97639187D01*
X173916975Y-97458212D01*
X173845538Y-97274062D01*
X173672500Y-97207387D01*
X173497875Y-97274062D01*
X173424850Y-97458212D01*
X171764325Y-97458212D01*
X171764325Y-97242312D01*
X171373800Y-97175637D01*
X171373800Y-99334638D01*
X170644229Y-99334638D01*
X170714988Y-99303681D01*
X170832463Y-99218750D01*
X170926522Y-99110403D01*
X170995975Y-98979038D01*
X171038838Y-98824256D01*
X171053125Y-98645663D01*
X171038044Y-98460719D01*
X170992800Y-98299588D01*
X170922950Y-98162666D01*
X170834050Y-98050350D01*
X170728481Y-97962641D01*
X170608625Y-97899537D01*
X170480038Y-97861437D01*
X170348275Y-97848737D01*
X170145781Y-97870433D01*
X169978564Y-97935521D01*
X169846625Y-98044000D01*
X169751375Y-98194107D01*
X169694225Y-98384078D01*
X169675175Y-98613913D01*
X169210057Y-98613913D01*
X169306875Y-98510725D01*
X169354500Y-98315463D01*
X169317988Y-98136075D01*
X169203688Y-97986850D01*
X169005250Y-97885250D01*
X168872694Y-97857866D01*
X168716325Y-97848737D01*
X168575434Y-97854294D01*
X168444863Y-97870962D01*
X168227375Y-97934462D01*
X168287700Y-98264662D01*
X168455975Y-98212275D01*
X168713150Y-98175762D01*
X168914763Y-98212275D01*
X168967150Y-98290062D01*
X168943338Y-98351975D01*
X168879838Y-98401188D01*
X168787763Y-98444050D01*
X168675050Y-98483738D01*
X168497250Y-98547238D01*
X168330563Y-98634550D01*
X168208325Y-98767900D01*
X168160700Y-98966338D01*
X167833675Y-98966338D01*
X167833675Y-97413762D01*
X167443150Y-97413762D01*
X167443150Y-98229737D01*
X167297100Y-98032887D01*
X167152637Y-97816987D01*
X167027225Y-97604262D01*
X166931975Y-97413762D01*
X166490650Y-97413762D01*
X166597012Y-97609025D01*
X166663291Y-97720944D01*
X166738300Y-97837625D01*
X166820453Y-97957878D01*
X166908162Y-98080512D01*
X167000634Y-98201956D01*
X167097075Y-98318638D01*
X166997856Y-98421031D01*
X166897050Y-98537713D01*
X166798228Y-98665903D01*
X166704962Y-98802825D01*
X166618841Y-98945700D01*
X166541450Y-99091750D01*
X166475569Y-99237403D01*
X166423975Y-99379088D01*
X165732378Y-99379088D01*
X165916328Y-99301829D01*
X166084250Y-99153663D01*
X166180095Y-99006223D01*
X166248556Y-98830606D01*
X166289633Y-98626811D01*
X166303325Y-98394838D01*
X166286656Y-98163856D01*
X166236650Y-97959862D01*
X166156878Y-97784047D01*
X166050912Y-97637600D01*
X165920737Y-97521712D01*
X165768337Y-97437575D01*
X165597284Y-97386378D01*
X165411150Y-97369312D01*
X165222237Y-97386775D01*
X165074600Y-97426462D01*
X164968237Y-97474087D01*
X164903150Y-97512187D01*
X165004750Y-97823337D01*
X165180962Y-97742375D01*
X165417500Y-97709037D01*
X165596887Y-97742375D01*
X165752462Y-97853500D01*
X165863587Y-98061462D01*
X165895734Y-98207512D01*
X165906450Y-98385313D01*
X165893574Y-98592217D01*
X165854944Y-98764196D01*
X165790562Y-98901250D01*
X165637766Y-99035791D01*
X165411150Y-99080638D01*
X165158737Y-99045713D01*
X164998400Y-98975863D01*
X164899975Y-99283838D01*
X163037459Y-99283838D01*
X163036250Y-99233038D01*
X163021566Y-99080638D01*
X162977512Y-98940938D01*
X162910837Y-98812747D01*
X162828287Y-98694875D01*
X162734625Y-98586131D01*
X162634612Y-98485325D01*
X162534600Y-98390472D01*
X162440937Y-98299588D01*
X162291712Y-98128137D01*
X162232975Y-97959862D01*
X162306000Y-97774125D01*
X162490150Y-97709037D01*
X162683825Y-97753487D01*
X162883850Y-97902712D01*
X163077525Y-97629662D01*
X162940603Y-97513775D01*
X162783837Y-97432812D01*
X162617547Y-97385187D01*
X162452050Y-97369312D01*
X162220275Y-97404237D01*
X162023425Y-97509012D01*
X161886900Y-97685225D01*
X161836100Y-97931287D01*
X161874200Y-98126550D01*
X161975800Y-98309113D01*
X162118675Y-98480563D01*
X162280600Y-98639313D01*
X162375850Y-98729800D01*
X162477450Y-98837750D01*
X162558412Y-98950463D01*
X162591750Y-99055238D01*
X161747200Y-99055238D01*
X161747200Y-99379088D01*
X161063515Y-99379088D01*
X161206744Y-99307474D01*
X161340800Y-99166363D01*
X161417198Y-99022694D01*
X161471769Y-98845688D01*
X161504511Y-98635344D01*
X161515425Y-98391663D01*
X161504312Y-98150759D01*
X161470975Y-97942400D01*
X161415412Y-97766584D01*
X161337625Y-97623312D01*
X161202511Y-97482201D01*
X161034236Y-97397535D01*
X160832800Y-97369312D01*
X160628189Y-97397358D01*
X160458856Y-97481496D01*
X160324800Y-97621725D01*
X160248402Y-97764501D01*
X160193831Y-97940416D01*
X160161089Y-98149470D01*
X160150175Y-98391663D01*
X159360856Y-98391663D01*
X159359600Y-98390472D01*
X159265937Y-98299588D01*
X159116712Y-98128137D01*
X159057975Y-97959862D01*
X159131000Y-97774125D01*
X159315150Y-97709037D01*
X159508825Y-97753487D01*
X159708850Y-97902712D01*
X159902525Y-97629662D01*
X159765603Y-97513775D01*
X159608837Y-97432812D01*
X159442547Y-97385187D01*
X159277050Y-97369312D01*
X159045275Y-97404237D01*
X158848425Y-97509012D01*
X158711900Y-97685225D01*
X158661100Y-97931287D01*
X158699200Y-98126550D01*
X158800800Y-98309113D01*
X158943675Y-98480563D01*
X159105600Y-98639313D01*
X159200850Y-98729800D01*
X159302450Y-98837750D01*
X159383412Y-98950463D01*
X159416750Y-99055238D01*
X158572200Y-99055238D01*
X158572200Y-99379088D01*
X158267400Y-99379088D01*
X158275337Y-99299713D01*
X158273750Y-99233038D01*
X158259066Y-99080638D01*
X158215012Y-98940938D01*
X158148337Y-98812747D01*
X158065787Y-98694875D01*
X157972125Y-98586131D01*
X157872112Y-98485325D01*
X157772100Y-98390472D01*
X157678437Y-98299588D01*
X157529212Y-98128137D01*
X157470475Y-97959862D01*
X157543500Y-97774125D01*
X157727650Y-97709037D01*
X157921325Y-97753487D01*
X158121350Y-97902712D01*
X158315025Y-97629662D01*
X158178103Y-97513775D01*
X158021337Y-97432812D01*
X157855047Y-97385187D01*
X157689550Y-97369312D01*
X157457775Y-97404237D01*
X157260925Y-97509012D01*
X157124400Y-97685225D01*
X157073600Y-97931287D01*
X157111700Y-98126550D01*
X157213300Y-98309113D01*
X157356175Y-98480563D01*
X157518100Y-98639313D01*
X157613350Y-98729800D01*
X157714950Y-98837750D01*
X157795912Y-98950463D01*
X157829250Y-99055238D01*
X156984700Y-99055238D01*
X156984700Y-99379088D01*
X156102800Y-99379088D01*
X155382075Y-98298000D01*
X156472070Y-96663007D01*
X177842730Y-96663007D01*
X178932725Y-98298000D01*
G37*
G36*
X176939575Y-99052063D02*
G01*
X176849088Y-99061588D01*
X176752250Y-99064763D01*
X176622075Y-99053650D01*
X176509363Y-99012375D01*
X176428400Y-98926650D01*
X176396650Y-98785363D01*
X176487138Y-98580575D01*
X176730025Y-98518663D01*
X176939575Y-98518663D01*
X176939575Y-99052063D01*
G37*
G36*
X172107225Y-98219419D02*
G01*
X172189775Y-98302763D01*
X172237400Y-98438494D01*
X172253275Y-98623438D01*
X172234622Y-98805206D01*
X172178663Y-98950463D01*
X172081428Y-99045713D01*
X171938950Y-99077463D01*
X171850050Y-99074288D01*
X171764325Y-99064763D01*
X171764325Y-98251962D01*
X171865925Y-98209100D01*
X171986575Y-98191637D01*
X172107225Y-98219419D01*
G37*
G36*
X170473688Y-98201162D02*
G01*
X170565763Y-98271012D01*
X170622913Y-98372613D01*
X170649900Y-98490088D01*
X170053000Y-98490088D01*
X170068875Y-98374200D01*
X170119675Y-98274187D01*
X170208575Y-98202750D01*
X170341925Y-98175762D01*
X170473688Y-98201162D01*
G37*
G36*
X160539994Y-98014190D02*
G01*
X160586737Y-97878900D01*
X160690322Y-97746741D01*
X160832800Y-97702687D01*
X160973294Y-97746741D01*
X161077275Y-97878900D01*
X161124900Y-98014190D01*
X161153475Y-98185111D01*
X161163000Y-98391663D01*
X161153475Y-98599978D01*
X161124900Y-98771957D01*
X161077275Y-98907600D01*
X160973294Y-99039759D01*
X160832800Y-99083813D01*
X160690322Y-99039759D01*
X160586737Y-98907600D01*
X160539994Y-98771957D01*
X160511949Y-98599978D01*
X160502600Y-98391663D01*
X160504037Y-98359913D01*
X160655000Y-98359913D01*
X160704212Y-98507550D01*
X160829625Y-98569463D01*
X160959800Y-98507550D01*
X161007425Y-98359913D01*
X160959800Y-98210687D01*
X160829625Y-98147187D01*
X160704212Y-98210687D01*
X160655000Y-98359913D01*
X160504037Y-98359913D01*
X160511949Y-98185111D01*
X160539994Y-98014190D01*
G37*
G36*
X176853850Y-97734437D02*
G01*
X176939575Y-97743962D01*
X176939575Y-98194812D01*
X176787175Y-98194812D01*
X176561750Y-98129725D01*
X176485550Y-97950337D01*
X176507775Y-97837625D01*
X176568100Y-97770950D01*
X176657000Y-97739200D01*
X176761775Y-97731262D01*
X176853850Y-97734437D01*
G37*
%TD*%
M02*
