%TF.GenerationSoftware,KiCad,Pcbnew,(6.0.7)*%
%TF.CreationDate,2022-09-06T20:50:32-05:00*%
%TF.ProjectId,Soldering Crew Badge,536f6c64-6572-4696-9e67-204372657720,rev?*%
%TF.SameCoordinates,Original*%
%TF.FileFunction,Profile,NP*%
%FSLAX46Y46*%
G04 Gerber Fmt 4.6, Leading zero omitted, Abs format (unit mm)*
G04 Created by KiCad (PCBNEW (6.0.7)) date 2022-09-06 20:50:32*
%MOMM*%
%LPD*%
G01*
G04 APERTURE LIST*
%TA.AperFunction,Profile*%
%ADD10C,0.100000*%
%TD*%
G04 APERTURE END LIST*
D10*
X139060192Y-121515093D02*
X139185692Y-122088993D01*
X172154292Y-115435293D02*
X172240192Y-114847493D01*
X161886392Y-128186293D02*
X163068892Y-127847693D01*
X131095692Y-94575593D02*
X130926192Y-95134493D01*
X137163292Y-111518493D02*
X137407392Y-111885993D01*
X132202292Y-91862093D02*
X131948192Y-92392593D01*
X168875692Y-125266193D02*
X169332392Y-124989993D01*
X138051592Y-113043493D02*
X138232492Y-113450393D01*
X180677092Y-101475493D02*
X180752792Y-100735593D01*
X131488092Y-93472793D02*
X131283092Y-94021593D01*
X152093392Y-128797993D02*
X153212792Y-128908893D01*
X172704092Y-113137493D02*
X172943592Y-112590093D01*
X173579392Y-111537993D02*
X175563592Y-109286793D01*
X179717992Y-103861593D02*
X180070192Y-103216993D01*
X146061892Y-80024393D02*
X144946592Y-80466093D01*
X165728892Y-80233693D02*
X164854892Y-79912193D01*
X130531592Y-96835393D02*
X130439692Y-97409093D01*
X137684892Y-84936193D02*
X136700392Y-85760593D01*
X153212792Y-128908893D02*
X154336392Y-128967493D01*
X147411892Y-127410893D02*
X148627392Y-127878293D01*
X133364392Y-107135293D02*
X133964092Y-107799293D01*
X170502592Y-82689093D02*
X169894492Y-82311393D01*
X138394092Y-113869293D02*
X138534992Y-114301093D01*
X169894492Y-82311393D02*
X169092492Y-81833093D01*
X148627392Y-127878293D02*
X149874892Y-128386993D01*
X158493592Y-78536593D02*
X157563892Y-78464793D01*
X138534992Y-114301093D02*
X138639892Y-114586393D01*
X131740992Y-105037093D02*
X132241892Y-105760993D01*
X155700392Y-78414293D02*
X155700392Y-78414293D01*
X155700392Y-78414293D02*
X155700392Y-78414293D01*
X179426992Y-92969593D02*
X179133892Y-92310993D01*
X178343992Y-105901793D02*
X178845392Y-105210193D01*
X165639992Y-126912793D02*
X166009692Y-126728993D01*
X148967492Y-79149193D02*
X148371892Y-79297593D01*
X179935092Y-94315293D02*
X179694392Y-93637893D01*
X160733492Y-128476993D02*
X161886392Y-128186293D01*
X165209092Y-127100693D02*
X165639992Y-126912793D01*
X138639892Y-114586393D02*
X138728392Y-114875093D01*
X139955592Y-123712493D02*
X140632192Y-124173093D01*
X138861392Y-115461593D02*
X138943992Y-116058493D01*
X130611792Y-102636993D02*
X130753092Y-103065693D01*
X180769192Y-98541493D02*
X180707392Y-97820493D01*
X130914992Y-103481893D02*
X131096092Y-103886293D01*
X137852892Y-112647693D02*
X138051592Y-113043493D01*
X170186792Y-124373393D02*
X170572892Y-124029993D01*
X152066492Y-78612993D02*
X151429692Y-78692393D01*
X160342992Y-78773693D02*
X159420292Y-78639593D01*
X131510492Y-104662993D02*
X131740992Y-105037093D01*
X155700392Y-78414293D02*
X154706892Y-78437693D01*
X146213592Y-126953493D02*
X147411892Y-127410893D01*
X130302392Y-100307793D02*
X130343192Y-100890493D01*
X172056092Y-116628393D02*
X172094492Y-116029393D01*
X170923992Y-123661293D02*
X171234392Y-123265693D01*
X141938492Y-124975793D02*
X142571892Y-125325693D01*
X153367592Y-78496593D02*
X152712392Y-78547693D01*
X166308292Y-126551693D02*
X166525992Y-126383093D01*
X169771392Y-124692993D02*
X170186792Y-124373393D01*
X149570792Y-79014393D02*
X148967492Y-79149193D01*
X173399492Y-84858793D02*
X172842292Y-84389093D01*
X150979992Y-128626693D02*
X151535792Y-128720393D01*
X130290792Y-99143993D02*
X130285092Y-99725493D01*
X166525992Y-126383093D02*
X167456092Y-125983193D01*
X150182092Y-78893193D02*
X149570792Y-79014393D01*
X130407992Y-101473293D02*
X130497392Y-102055593D01*
X159688692Y-128701493D02*
X160733492Y-128476993D01*
X133691592Y-89323193D02*
X133366392Y-89814393D01*
X176886592Y-88589893D02*
X176439092Y-88013093D01*
X180148292Y-95001193D02*
X179935092Y-94315293D01*
X143808492Y-125942393D02*
X145017392Y-126474493D01*
X145017392Y-126474493D02*
X146213592Y-126953493D01*
X180488392Y-96396793D02*
X180333092Y-95695193D01*
X173943692Y-85345393D02*
X173399492Y-84858793D01*
X136362292Y-110458893D02*
X136906792Y-111158693D01*
X138728392Y-114875093D02*
X138861392Y-115461593D01*
X164854892Y-79912193D02*
X163969792Y-79621993D01*
X171916792Y-121649193D02*
X171953492Y-121386293D01*
X167439592Y-80970593D02*
X166590892Y-80586493D01*
X130285092Y-99725493D02*
X130302392Y-100307793D01*
X174474192Y-85848293D02*
X173943692Y-85345393D01*
X134574692Y-108456793D02*
X135185292Y-109114793D01*
X174989792Y-86367093D02*
X174474192Y-85848293D01*
X166590892Y-80586493D02*
X165728892Y-80233693D01*
X141734192Y-82093993D02*
X140700992Y-82734393D01*
X167456092Y-125983193D02*
X167931792Y-125761293D01*
X157711192Y-128910793D02*
X158830692Y-128841393D01*
X180353792Y-102600293D02*
X180466892Y-102304393D01*
X156632492Y-78423993D02*
X155700392Y-78414293D01*
X180613492Y-97105393D02*
X180488392Y-96396793D01*
X168273792Y-81386093D02*
X167439592Y-80970593D01*
X139683092Y-83422193D02*
X138678392Y-84156393D01*
X180559192Y-102017793D02*
X180629692Y-101741193D01*
X139370092Y-122648093D02*
X139487592Y-122921293D01*
X141292592Y-124592893D02*
X141938492Y-124975793D01*
X135887892Y-86583993D02*
X135112692Y-87454493D01*
X132241892Y-105760993D02*
X132786692Y-106458193D01*
X179133892Y-92310993D02*
X178816092Y-91662493D01*
X171863492Y-121903693D02*
X171916792Y-121649193D01*
X130439692Y-97409093D02*
X130368592Y-97985393D01*
X171610992Y-122618893D02*
X171709892Y-122388393D01*
X134379192Y-88368793D02*
X134029292Y-88841193D01*
X138946392Y-120331893D02*
X138983792Y-120928593D01*
X155461992Y-128981993D02*
X156587592Y-128960393D01*
X138986192Y-116663293D02*
X138997792Y-117273793D01*
X178474292Y-91024593D02*
X178109592Y-90397893D01*
X135185292Y-109114793D02*
X135784792Y-109779893D01*
X171972692Y-121114993D02*
X171973892Y-120834893D01*
X162171492Y-79135393D02*
X161260392Y-78938993D01*
X130497392Y-102055593D02*
X130611792Y-102636993D01*
X168406892Y-125522793D02*
X168875692Y-125266193D01*
X139269892Y-122370493D02*
X139370092Y-122648093D01*
X143194592Y-125646593D02*
X143808492Y-125942393D01*
X133964092Y-107799293D02*
X134574692Y-108456793D01*
X172273092Y-83936693D02*
X171692792Y-83502293D01*
X177314792Y-89179993D02*
X176886592Y-88589893D01*
X173233792Y-112056393D02*
X173579392Y-111537993D01*
X135784792Y-109779893D02*
X136362292Y-110458893D01*
X171709892Y-122388393D02*
X171794292Y-122149993D01*
X142571892Y-125325693D02*
X143194592Y-125646593D01*
X170572892Y-124029993D02*
X170923992Y-123661293D01*
X139623392Y-123189993D02*
X139779092Y-123453793D01*
X154706892Y-78437693D02*
X153367592Y-78496593D01*
X171953492Y-121386293D02*
X171972692Y-121114993D01*
X166009692Y-126728993D02*
X166308292Y-126551693D01*
X172240192Y-114847493D02*
X172357292Y-114267693D01*
X138938192Y-119727093D02*
X138946392Y-120331893D01*
X163969792Y-79621993D02*
X163074992Y-79363093D01*
X169332392Y-124989993D02*
X169771392Y-124692993D01*
X134740492Y-87906393D02*
X134379192Y-88368793D01*
X130926192Y-95134493D02*
X130775392Y-95697693D01*
X177811692Y-106596693D02*
X178343992Y-105901793D01*
X172094492Y-116029393D02*
X172154292Y-115435293D01*
X157563892Y-78464793D02*
X156632492Y-78423993D01*
X148371892Y-79297593D02*
X147202992Y-79634493D01*
X131948192Y-92392593D02*
X131709892Y-92929593D01*
X135112692Y-87454493D02*
X134740492Y-87906393D01*
X131295092Y-104279693D02*
X131510492Y-104662993D01*
X180792792Y-99999593D02*
X180797992Y-99268093D01*
X137637692Y-112262093D02*
X137852892Y-112647693D01*
X180707392Y-97820493D02*
X180613492Y-97105393D01*
X154336392Y-128967493D02*
X155461992Y-128981993D01*
X172012792Y-119645393D02*
X172019792Y-118440093D01*
X179694392Y-93637893D02*
X179426992Y-92969593D01*
X143854892Y-80958893D02*
X142784792Y-81501893D01*
X164726692Y-127290493D02*
X165209092Y-127100693D01*
X150801592Y-78785893D02*
X150182092Y-78893193D01*
X171692792Y-83502293D02*
X171102392Y-83086193D01*
X131283092Y-94021593D02*
X131095692Y-94575593D01*
X137407392Y-111885993D02*
X137637692Y-112262093D01*
X150426292Y-128515893D02*
X150979992Y-128626693D01*
X171234392Y-123265693D02*
X171498292Y-122841893D01*
X136906792Y-111158693D02*
X137163292Y-111518493D01*
X178845392Y-105210193D02*
X179306592Y-104528093D01*
X164202692Y-127479693D02*
X164726692Y-127290493D01*
X171973892Y-120834893D02*
X172012792Y-119645393D01*
X130643692Y-96264793D02*
X130531592Y-96835393D01*
X175973192Y-87449993D02*
X175489792Y-86901093D01*
X152712392Y-78547693D02*
X152066492Y-78612993D01*
X172842292Y-84389093D02*
X172273092Y-83936693D01*
X133366392Y-89814393D02*
X133054292Y-90314293D01*
X142784792Y-81501893D02*
X141734192Y-82093993D01*
X151535792Y-128720393D02*
X152093392Y-128797993D01*
X140700992Y-82734393D02*
X139683092Y-83422193D01*
X178109592Y-90397893D02*
X177722792Y-89782893D01*
X147202992Y-79634493D02*
X146061892Y-80024393D01*
X179306592Y-104528093D02*
X179717992Y-103861593D01*
X130318692Y-98563793D02*
X130290792Y-99143993D01*
X130753092Y-103065693D02*
X130914992Y-103481893D01*
X138678392Y-84156393D02*
X137684892Y-84936193D01*
X139185692Y-122088993D02*
X139269892Y-122370493D01*
X177258092Y-107288793D02*
X177811692Y-106596693D01*
X180333092Y-95695193D02*
X180148292Y-95001193D01*
X138943992Y-116058493D02*
X138986192Y-116663293D01*
X172510292Y-113697193D02*
X172704092Y-113137493D01*
X151429692Y-78692393D02*
X150801592Y-78785893D01*
X180070192Y-103216993D02*
X180353792Y-102600293D01*
X180797992Y-99268093D02*
X180769192Y-98541493D01*
X177722792Y-89782893D02*
X177314792Y-89179993D01*
X138983792Y-120928593D02*
X139060192Y-121515093D01*
X133054292Y-90314293D02*
X132755892Y-90822493D01*
X161260392Y-78938993D02*
X160342992Y-78773693D01*
X175563592Y-109286793D02*
X176692492Y-107971993D01*
X131709892Y-92929593D02*
X131488092Y-93472793D01*
X172019792Y-118440093D02*
X172033992Y-117230793D01*
X132755892Y-90822493D02*
X132471692Y-91338593D01*
X167931792Y-125761293D02*
X168406892Y-125522793D01*
X178816092Y-91662493D02*
X178474292Y-91024593D01*
X134029292Y-88841193D02*
X133691592Y-89323193D01*
X163068892Y-127847693D02*
X164202692Y-127479693D01*
X180629692Y-101741193D02*
X180677092Y-101475493D01*
X163074992Y-79363093D02*
X162171492Y-79135393D01*
X175489792Y-86901093D02*
X174989792Y-86367093D01*
X171102392Y-83086193D02*
X170502592Y-82689093D01*
X156587592Y-128960393D02*
X157711192Y-128910793D01*
X138232492Y-113450393D02*
X138394092Y-113869293D01*
X144946592Y-80466093D02*
X143854892Y-80958893D01*
X159420292Y-78639593D02*
X158493592Y-78536593D01*
X139487592Y-122921293D02*
X139623392Y-123189993D01*
X138949192Y-119116693D02*
X138938192Y-119727093D01*
X172357292Y-114267693D02*
X172510292Y-113697193D01*
X140632192Y-124173093D02*
X141292592Y-124592893D01*
X132786692Y-106458193D02*
X133364392Y-107135293D01*
X131096092Y-103886293D02*
X131295092Y-104279693D01*
X180752792Y-100735593D02*
X180792792Y-99999593D01*
X169092492Y-81833093D02*
X168273792Y-81386093D01*
X158830692Y-128841393D02*
X159688692Y-128701493D01*
X149874892Y-128386993D02*
X150426292Y-128515893D01*
X172033992Y-117230793D02*
X172056092Y-116628393D01*
X180466892Y-102304393D02*
X180559192Y-102017793D01*
X138988892Y-117887693D02*
X138949192Y-119116693D01*
X130368592Y-97985393D02*
X130318692Y-98563793D01*
X130775392Y-95697693D02*
X130643692Y-96264793D01*
X138997792Y-117273793D02*
X138988892Y-117887693D01*
X176692492Y-107971993D02*
X177258092Y-107288793D01*
X130343192Y-100890493D02*
X130407992Y-101473293D01*
X132471692Y-91338593D02*
X132202292Y-91862093D01*
X139779092Y-123453793D02*
X139955592Y-123712493D01*
X171498292Y-122841893D02*
X171610992Y-122618893D01*
X176439092Y-88013093D02*
X175973192Y-87449993D01*
X136700392Y-85760593D02*
X135887892Y-86583993D01*
X172943592Y-112590093D02*
X173233792Y-112056393D01*
X171794292Y-122149993D02*
X171863492Y-121903693D01*
M02*
