%TF.GenerationSoftware,KiCad,Pcbnew,(6.0.7)*%
%TF.CreationDate,2022-09-06T20:50:32-05:00*%
%TF.ProjectId,Soldering Crew Badge,536f6c64-6572-4696-9e67-204372657720,rev?*%
%TF.SameCoordinates,Original*%
%TF.FileFunction,Soldermask,Bot*%
%TF.FilePolarity,Negative*%
%FSLAX46Y46*%
G04 Gerber Fmt 4.6, Leading zero omitted, Abs format (unit mm)*
G04 Created by KiCad (PCBNEW (6.0.7)) date 2022-09-06 20:50:32*
%MOMM*%
%LPD*%
G01*
G04 APERTURE LIST*
G04 Aperture macros list*
%AMRoundRect*
0 Rectangle with rounded corners*
0 $1 Rounding radius*
0 $2 $3 $4 $5 $6 $7 $8 $9 X,Y pos of 4 corners*
0 Add a 4 corners polygon primitive as box body*
4,1,4,$2,$3,$4,$5,$6,$7,$8,$9,$2,$3,0*
0 Add four circle primitives for the rounded corners*
1,1,$1+$1,$2,$3*
1,1,$1+$1,$4,$5*
1,1,$1+$1,$6,$7*
1,1,$1+$1,$8,$9*
0 Add four rect primitives between the rounded corners*
20,1,$1+$1,$2,$3,$4,$5,0*
20,1,$1+$1,$4,$5,$6,$7,0*
20,1,$1+$1,$6,$7,$8,$9,0*
20,1,$1+$1,$8,$9,$2,$3,0*%
G04 Aperture macros list end*
%ADD10C,1.152495*%
%ADD11C,0.100000*%
%ADD12C,0.010000*%
%ADD13R,1.930400X2.438400*%
%ADD14R,1.955800X2.463800*%
%ADD15O,2.127200X2.127200*%
%ADD16RoundRect,0.200000X-0.863600X0.863600X-0.863600X-0.863600X0.863600X-0.863600X0.863600X0.863600X0*%
%ADD17C,2.127200*%
%ADD18RoundRect,0.450000X-0.625000X0.375000X-0.625000X-0.375000X0.625000X-0.375000X0.625000X0.375000X0*%
G04 APERTURE END LIST*
%TO.C,D1*%
D10*
X152138047Y-98704400D02*
G75*
G03*
X152138047Y-98704400I-576247J0D01*
G01*
G36*
X150241000Y-99949000D02*
G01*
X148259800Y-99949000D01*
X148259800Y-97459800D01*
X150241000Y-97459800D01*
X150241000Y-99949000D01*
G37*
D11*
X150241000Y-99949000D02*
X148259800Y-99949000D01*
X148259800Y-97459800D01*
X150241000Y-97459800D01*
X150241000Y-99949000D01*
G36*
X154813000Y-99923600D02*
G01*
X152882600Y-99923600D01*
X152882600Y-97485200D01*
X154813000Y-97485200D01*
X154813000Y-99923600D01*
G37*
X154813000Y-99923600D02*
X152882600Y-99923600D01*
X152882600Y-97485200D01*
X154813000Y-97485200D01*
X154813000Y-99923600D01*
%TO.C,G\u002A\u002A\u002A*%
G36*
X152333810Y-97810429D02*
G01*
X152351986Y-97819167D01*
X152364344Y-97837209D01*
X152373952Y-97877170D01*
X152381407Y-97944258D01*
X152387304Y-98043680D01*
X152391862Y-98168093D01*
X152401892Y-98498127D01*
X152668934Y-98497453D01*
X152792019Y-98495747D01*
X152879264Y-98490910D01*
X152937090Y-98482279D01*
X152971918Y-98469194D01*
X152977063Y-98465703D01*
X153048713Y-98434482D01*
X153123534Y-98438027D01*
X153191197Y-98470981D01*
X153241374Y-98527987D01*
X153263734Y-98603689D01*
X153264059Y-98614543D01*
X153246041Y-98692267D01*
X153198874Y-98751987D01*
X153132887Y-98788346D01*
X153058409Y-98795987D01*
X152985769Y-98769554D01*
X152977063Y-98763383D01*
X152946372Y-98749243D01*
X152894073Y-98739702D01*
X152813744Y-98734098D01*
X152698964Y-98731770D01*
X152668977Y-98731633D01*
X152401978Y-98730960D01*
X152390991Y-99043168D01*
X152386086Y-99156463D01*
X152380034Y-99256668D01*
X152373484Y-99335195D01*
X152367081Y-99383458D01*
X152364684Y-99392418D01*
X152331717Y-99422152D01*
X152293419Y-99429136D01*
X152247020Y-99426209D01*
X152214227Y-99413773D01*
X152192282Y-99385397D01*
X152178430Y-99334656D01*
X152169916Y-99255121D01*
X152163983Y-99140365D01*
X152163392Y-99125867D01*
X152152809Y-98862997D01*
X151856476Y-99083880D01*
X151706976Y-99194718D01*
X151587081Y-99281703D01*
X151492887Y-99346855D01*
X151420491Y-99392195D01*
X151365991Y-99419742D01*
X151325483Y-99431516D01*
X151295064Y-99429538D01*
X151270833Y-99415826D01*
X151252291Y-99396584D01*
X151240115Y-99365580D01*
X151231448Y-99303922D01*
X151225976Y-99207907D01*
X151223387Y-99073835D01*
X151223241Y-99052625D01*
X151221476Y-98741543D01*
X150940189Y-98735631D01*
X150818334Y-98734071D01*
X150731430Y-98735743D01*
X150672179Y-98741237D01*
X150633281Y-98751142D01*
X150612688Y-98762090D01*
X150536399Y-98793528D01*
X150459103Y-98789795D01*
X150390875Y-98756004D01*
X150341794Y-98697268D01*
X150321937Y-98618700D01*
X150321892Y-98614543D01*
X150339910Y-98536819D01*
X150387077Y-98477099D01*
X150453064Y-98440740D01*
X150527542Y-98433099D01*
X150600182Y-98459533D01*
X150608888Y-98465703D01*
X150638719Y-98479545D01*
X150689477Y-98488983D01*
X150767537Y-98494652D01*
X150879276Y-98497189D01*
X150927223Y-98497453D01*
X151204471Y-98498127D01*
X151219113Y-98188233D01*
X151225727Y-98075117D01*
X151233953Y-97974852D01*
X151242901Y-97896145D01*
X151251682Y-97847702D01*
X151254819Y-97838983D01*
X151293738Y-97805933D01*
X151353337Y-97804951D01*
X151426703Y-97835999D01*
X151433142Y-97839980D01*
X151469942Y-97865130D01*
X151534059Y-97910877D01*
X151618920Y-97972453D01*
X151717952Y-98045087D01*
X151824582Y-98124010D01*
X151824726Y-98124116D01*
X152152809Y-98368057D01*
X152163780Y-98110300D01*
X152169347Y-98008344D01*
X152176412Y-97920830D01*
X152184073Y-97857022D01*
X152191427Y-97826183D01*
X152191488Y-97826085D01*
X152225193Y-97806201D01*
X152279229Y-97800698D01*
X152333810Y-97810429D01*
G37*
D12*
X152333810Y-97810429D02*
X152351986Y-97819167D01*
X152364344Y-97837209D01*
X152373952Y-97877170D01*
X152381407Y-97944258D01*
X152387304Y-98043680D01*
X152391862Y-98168093D01*
X152401892Y-98498127D01*
X152668934Y-98497453D01*
X152792019Y-98495747D01*
X152879264Y-98490910D01*
X152937090Y-98482279D01*
X152971918Y-98469194D01*
X152977063Y-98465703D01*
X153048713Y-98434482D01*
X153123534Y-98438027D01*
X153191197Y-98470981D01*
X153241374Y-98527987D01*
X153263734Y-98603689D01*
X153264059Y-98614543D01*
X153246041Y-98692267D01*
X153198874Y-98751987D01*
X153132887Y-98788346D01*
X153058409Y-98795987D01*
X152985769Y-98769554D01*
X152977063Y-98763383D01*
X152946372Y-98749243D01*
X152894073Y-98739702D01*
X152813744Y-98734098D01*
X152698964Y-98731770D01*
X152668977Y-98731633D01*
X152401978Y-98730960D01*
X152390991Y-99043168D01*
X152386086Y-99156463D01*
X152380034Y-99256668D01*
X152373484Y-99335195D01*
X152367081Y-99383458D01*
X152364684Y-99392418D01*
X152331717Y-99422152D01*
X152293419Y-99429136D01*
X152247020Y-99426209D01*
X152214227Y-99413773D01*
X152192282Y-99385397D01*
X152178430Y-99334656D01*
X152169916Y-99255121D01*
X152163983Y-99140365D01*
X152163392Y-99125867D01*
X152152809Y-98862997D01*
X151856476Y-99083880D01*
X151706976Y-99194718D01*
X151587081Y-99281703D01*
X151492887Y-99346855D01*
X151420491Y-99392195D01*
X151365991Y-99419742D01*
X151325483Y-99431516D01*
X151295064Y-99429538D01*
X151270833Y-99415826D01*
X151252291Y-99396584D01*
X151240115Y-99365580D01*
X151231448Y-99303922D01*
X151225976Y-99207907D01*
X151223387Y-99073835D01*
X151223241Y-99052625D01*
X151221476Y-98741543D01*
X150940189Y-98735631D01*
X150818334Y-98734071D01*
X150731430Y-98735743D01*
X150672179Y-98741237D01*
X150633281Y-98751142D01*
X150612688Y-98762090D01*
X150536399Y-98793528D01*
X150459103Y-98789795D01*
X150390875Y-98756004D01*
X150341794Y-98697268D01*
X150321937Y-98618700D01*
X150321892Y-98614543D01*
X150339910Y-98536819D01*
X150387077Y-98477099D01*
X150453064Y-98440740D01*
X150527542Y-98433099D01*
X150600182Y-98459533D01*
X150608888Y-98465703D01*
X150638719Y-98479545D01*
X150689477Y-98488983D01*
X150767537Y-98494652D01*
X150879276Y-98497189D01*
X150927223Y-98497453D01*
X151204471Y-98498127D01*
X151219113Y-98188233D01*
X151225727Y-98075117D01*
X151233953Y-97974852D01*
X151242901Y-97896145D01*
X151251682Y-97847702D01*
X151254819Y-97838983D01*
X151293738Y-97805933D01*
X151353337Y-97804951D01*
X151426703Y-97835999D01*
X151433142Y-97839980D01*
X151469942Y-97865130D01*
X151534059Y-97910877D01*
X151618920Y-97972453D01*
X151717952Y-98045087D01*
X151824582Y-98124010D01*
X151824726Y-98124116D01*
X152152809Y-98368057D01*
X152163780Y-98110300D01*
X152169347Y-98008344D01*
X152176412Y-97920830D01*
X152184073Y-97857022D01*
X152191427Y-97826183D01*
X152191488Y-97826085D01*
X152225193Y-97806201D01*
X152279229Y-97800698D01*
X152333810Y-97810429D01*
%TD*%
D13*
%TO.C,D1*%
X153847800Y-98704400D03*
D14*
X149275800Y-98704400D03*
%TD*%
D15*
%TO.C,X1*%
X152701300Y-122714700D03*
D16*
X152701300Y-125254700D03*
D15*
X155241300Y-122714700D03*
X155241300Y-125254700D03*
D17*
X157781300Y-122714700D03*
X157781300Y-125254700D03*
%TD*%
D18*
%TO.C,R1*%
X143814800Y-97939400D03*
X143814800Y-100739400D03*
%TD*%
M02*
