%TF.GenerationSoftware,KiCad,Pcbnew,(6.0.7)*%
%TF.CreationDate,2022-09-05T18:42:41-05:00*%
%TF.ProjectId,Corelight SAO,436f7265-6c69-4676-9874-2053414f2e6b,rev?*%
%TF.SameCoordinates,Original*%
%TF.FileFunction,Legend,Bot*%
%TF.FilePolarity,Positive*%
%FSLAX46Y46*%
G04 Gerber Fmt 4.6, Leading zero omitted, Abs format (unit mm)*
G04 Created by KiCad (PCBNEW (6.0.7)) date 2022-09-05 18:42:41*
%MOMM*%
%LPD*%
G01*
G04 APERTURE LIST*
%ADD10C,0.150000*%
%ADD11C,0.500000*%
G04 APERTURE END LIST*
D10*
%TO.C,X1*%
X156855561Y-120749961D02*
X156760323Y-120797580D01*
X156569847Y-120797580D01*
X156474609Y-120749961D01*
X156426990Y-120654723D01*
X156426990Y-120607104D01*
X156474609Y-120511866D01*
X156569847Y-120464247D01*
X156712704Y-120464247D01*
X156807942Y-120416628D01*
X156855561Y-120321390D01*
X156855561Y-120273771D01*
X156807942Y-120178533D01*
X156712704Y-120130914D01*
X156569847Y-120130914D01*
X156474609Y-120178533D01*
X155569847Y-120797580D02*
X155569847Y-120273771D01*
X155617466Y-120178533D01*
X155712704Y-120130914D01*
X155903180Y-120130914D01*
X155998419Y-120178533D01*
X155569847Y-120749961D02*
X155665085Y-120797580D01*
X155903180Y-120797580D01*
X155998419Y-120749961D01*
X156046038Y-120654723D01*
X156046038Y-120559485D01*
X155998419Y-120464247D01*
X155903180Y-120416628D01*
X155665085Y-120416628D01*
X155569847Y-120369009D01*
X154950800Y-120797580D02*
X155046038Y-120749961D01*
X155093657Y-120702342D01*
X155141276Y-120607104D01*
X155141276Y-120321390D01*
X155093657Y-120226152D01*
X155046038Y-120178533D01*
X154950800Y-120130914D01*
X154807942Y-120130914D01*
X154712704Y-120178533D01*
X154665085Y-120226152D01*
X154617466Y-120321390D01*
X154617466Y-120607104D01*
X154665085Y-120702342D01*
X154712704Y-120749961D01*
X154807942Y-120797580D01*
X154950800Y-120797580D01*
X154426990Y-120892819D02*
X153665085Y-120892819D01*
X153522228Y-120130914D02*
X153284133Y-120797580D01*
X153046038Y-120130914D01*
X152141276Y-120797580D02*
X152712704Y-120797580D01*
X152426990Y-120797580D02*
X152426990Y-119797580D01*
X152522228Y-119940438D01*
X152617466Y-120035676D01*
X152712704Y-120083295D01*
X151284133Y-119797580D02*
X151474609Y-119797580D01*
X151569847Y-119845200D01*
X151617466Y-119892819D01*
X151712704Y-120035676D01*
X151760323Y-120226152D01*
X151760323Y-120607104D01*
X151712704Y-120702342D01*
X151665085Y-120749961D01*
X151569847Y-120797580D01*
X151379371Y-120797580D01*
X151284133Y-120749961D01*
X151236514Y-120702342D01*
X151188895Y-120607104D01*
X151188895Y-120369009D01*
X151236514Y-120273771D01*
X151284133Y-120226152D01*
X151379371Y-120178533D01*
X151569847Y-120178533D01*
X151665085Y-120226152D01*
X151712704Y-120273771D01*
X151760323Y-120369009D01*
X150712704Y-120797580D02*
X150522228Y-120797580D01*
X150426990Y-120749961D01*
X150379371Y-120702342D01*
X150284133Y-120559485D01*
X150236514Y-120369009D01*
X150236514Y-119988057D01*
X150284133Y-119892819D01*
X150331752Y-119845200D01*
X150426990Y-119797580D01*
X150617466Y-119797580D01*
X150712704Y-119845200D01*
X150760323Y-119892819D01*
X150807942Y-119988057D01*
X150807942Y-120226152D01*
X150760323Y-120321390D01*
X150712704Y-120369009D01*
X150617466Y-120416628D01*
X150426990Y-120416628D01*
X150331752Y-120369009D01*
X150284133Y-120321390D01*
X150236514Y-120226152D01*
X149807942Y-120797580D02*
X149807942Y-119797580D01*
X149807942Y-120178533D02*
X149712704Y-120130914D01*
X149522228Y-120130914D01*
X149426990Y-120178533D01*
X149379371Y-120226152D01*
X149331752Y-120321390D01*
X149331752Y-120607104D01*
X149379371Y-120702342D01*
X149426990Y-120749961D01*
X149522228Y-120797580D01*
X149712704Y-120797580D01*
X149807942Y-120749961D01*
X148903180Y-120797580D02*
X148903180Y-120130914D01*
X148903180Y-119797580D02*
X148950800Y-119845200D01*
X148903180Y-119892819D01*
X148855561Y-119845200D01*
X148903180Y-119797580D01*
X148903180Y-119892819D01*
X148474609Y-120749961D02*
X148379371Y-120797580D01*
X148188895Y-120797580D01*
X148093657Y-120749961D01*
X148046038Y-120654723D01*
X148046038Y-120607104D01*
X148093657Y-120511866D01*
X148188895Y-120464247D01*
X148331752Y-120464247D01*
X148426990Y-120416628D01*
X148474609Y-120321390D01*
X148474609Y-120273771D01*
X148426990Y-120178533D01*
X148331752Y-120130914D01*
X148188895Y-120130914D01*
X148093657Y-120178533D01*
X156504342Y-118065200D02*
X156575771Y-118029485D01*
X156682914Y-118029485D01*
X156790057Y-118065200D01*
X156861485Y-118136628D01*
X156897200Y-118208057D01*
X156932914Y-118350914D01*
X156932914Y-118458057D01*
X156897200Y-118600914D01*
X156861485Y-118672342D01*
X156790057Y-118743771D01*
X156682914Y-118779485D01*
X156611485Y-118779485D01*
X156504342Y-118743771D01*
X156468628Y-118708057D01*
X156468628Y-118458057D01*
X156611485Y-118458057D01*
X156147200Y-118779485D02*
X156147200Y-118029485D01*
X155861485Y-118029485D01*
X155790057Y-118065200D01*
X155754342Y-118100914D01*
X155718628Y-118172342D01*
X155718628Y-118279485D01*
X155754342Y-118350914D01*
X155790057Y-118386628D01*
X155861485Y-118422342D01*
X156147200Y-118422342D01*
X155397200Y-118779485D02*
X155397200Y-118029485D01*
X154897200Y-118029485D02*
X154754342Y-118029485D01*
X154682914Y-118065200D01*
X154611485Y-118136628D01*
X154575771Y-118279485D01*
X154575771Y-118529485D01*
X154611485Y-118672342D01*
X154682914Y-118743771D01*
X154754342Y-118779485D01*
X154897200Y-118779485D01*
X154968628Y-118743771D01*
X155040057Y-118672342D01*
X155075771Y-118529485D01*
X155075771Y-118279485D01*
X155040057Y-118136628D01*
X154968628Y-118065200D01*
X154897200Y-118029485D01*
X154290057Y-118100914D02*
X154254342Y-118065200D01*
X154182914Y-118029485D01*
X154004342Y-118029485D01*
X153932914Y-118065200D01*
X153897200Y-118100914D01*
X153861485Y-118172342D01*
X153861485Y-118243771D01*
X153897200Y-118350914D01*
X154325771Y-118779485D01*
X153861485Y-118779485D01*
X156377342Y-112426400D02*
X156448771Y-112390685D01*
X156555914Y-112390685D01*
X156663057Y-112426400D01*
X156734485Y-112497828D01*
X156770200Y-112569257D01*
X156805914Y-112712114D01*
X156805914Y-112819257D01*
X156770200Y-112962114D01*
X156734485Y-113033542D01*
X156663057Y-113104971D01*
X156555914Y-113140685D01*
X156484485Y-113140685D01*
X156377342Y-113104971D01*
X156341628Y-113069257D01*
X156341628Y-112819257D01*
X156484485Y-112819257D01*
X156020200Y-113140685D02*
X156020200Y-112390685D01*
X155734485Y-112390685D01*
X155663057Y-112426400D01*
X155627342Y-112462114D01*
X155591628Y-112533542D01*
X155591628Y-112640685D01*
X155627342Y-112712114D01*
X155663057Y-112747828D01*
X155734485Y-112783542D01*
X156020200Y-112783542D01*
X155270200Y-113140685D02*
X155270200Y-112390685D01*
X154770200Y-112390685D02*
X154627342Y-112390685D01*
X154555914Y-112426400D01*
X154484485Y-112497828D01*
X154448771Y-112640685D01*
X154448771Y-112890685D01*
X154484485Y-113033542D01*
X154555914Y-113104971D01*
X154627342Y-113140685D01*
X154770200Y-113140685D01*
X154841628Y-113104971D01*
X154913057Y-113033542D01*
X154948771Y-112890685D01*
X154948771Y-112640685D01*
X154913057Y-112497828D01*
X154841628Y-112426400D01*
X154770200Y-112390685D01*
X153734485Y-113140685D02*
X154163057Y-113140685D01*
X153948771Y-113140685D02*
X153948771Y-112390685D01*
X154020200Y-112497828D01*
X154091628Y-112569257D01*
X154163057Y-112604971D01*
X150529800Y-112416085D02*
X150279800Y-113166085D01*
X150029800Y-112416085D01*
X149351228Y-113094657D02*
X149386942Y-113130371D01*
X149494085Y-113166085D01*
X149565514Y-113166085D01*
X149672657Y-113130371D01*
X149744085Y-113058942D01*
X149779800Y-112987514D01*
X149815514Y-112844657D01*
X149815514Y-112737514D01*
X149779800Y-112594657D01*
X149744085Y-112523228D01*
X149672657Y-112451800D01*
X149565514Y-112416085D01*
X149494085Y-112416085D01*
X149386942Y-112451800D01*
X149351228Y-112487514D01*
X148601228Y-113094657D02*
X148636942Y-113130371D01*
X148744085Y-113166085D01*
X148815514Y-113166085D01*
X148922657Y-113130371D01*
X148994085Y-113058942D01*
X149029800Y-112987514D01*
X149065514Y-112844657D01*
X149065514Y-112737514D01*
X149029800Y-112594657D01*
X148994085Y-112523228D01*
X148922657Y-112451800D01*
X148815514Y-112416085D01*
X148744085Y-112416085D01*
X148636942Y-112451800D01*
X148601228Y-112487514D01*
X152962657Y-118769171D02*
X152855514Y-118804885D01*
X152676942Y-118804885D01*
X152605514Y-118769171D01*
X152569800Y-118733457D01*
X152534085Y-118662028D01*
X152534085Y-118590600D01*
X152569800Y-118519171D01*
X152605514Y-118483457D01*
X152676942Y-118447742D01*
X152819800Y-118412028D01*
X152891228Y-118376314D01*
X152926942Y-118340600D01*
X152962657Y-118269171D01*
X152962657Y-118197742D01*
X152926942Y-118126314D01*
X152891228Y-118090600D01*
X152819800Y-118054885D01*
X152641228Y-118054885D01*
X152534085Y-118090600D01*
X151784085Y-118733457D02*
X151819800Y-118769171D01*
X151926942Y-118804885D01*
X151998371Y-118804885D01*
X152105514Y-118769171D01*
X152176942Y-118697742D01*
X152212657Y-118626314D01*
X152248371Y-118483457D01*
X152248371Y-118376314D01*
X152212657Y-118233457D01*
X152176942Y-118162028D01*
X152105514Y-118090600D01*
X151998371Y-118054885D01*
X151926942Y-118054885D01*
X151819800Y-118090600D01*
X151784085Y-118126314D01*
X151105514Y-118804885D02*
X151462657Y-118804885D01*
X151462657Y-118054885D01*
X150152028Y-118090600D02*
X150223457Y-118054885D01*
X150330600Y-118054885D01*
X150437742Y-118090600D01*
X150509171Y-118162028D01*
X150544885Y-118233457D01*
X150580600Y-118376314D01*
X150580600Y-118483457D01*
X150544885Y-118626314D01*
X150509171Y-118697742D01*
X150437742Y-118769171D01*
X150330600Y-118804885D01*
X150259171Y-118804885D01*
X150152028Y-118769171D01*
X150116314Y-118733457D01*
X150116314Y-118483457D01*
X150259171Y-118483457D01*
X149794885Y-118804885D02*
X149794885Y-118054885D01*
X149366314Y-118804885D01*
X149366314Y-118054885D01*
X149009171Y-118804885D02*
X149009171Y-118054885D01*
X148830600Y-118054885D01*
X148723457Y-118090600D01*
X148652028Y-118162028D01*
X148616314Y-118233457D01*
X148580600Y-118376314D01*
X148580600Y-118483457D01*
X148616314Y-118626314D01*
X148652028Y-118697742D01*
X148723457Y-118769171D01*
X148830600Y-118804885D01*
X149009171Y-118804885D01*
X153234514Y-113104971D02*
X153127371Y-113140685D01*
X152948800Y-113140685D01*
X152877371Y-113104971D01*
X152841657Y-113069257D01*
X152805942Y-112997828D01*
X152805942Y-112926400D01*
X152841657Y-112854971D01*
X152877371Y-112819257D01*
X152948800Y-112783542D01*
X153091657Y-112747828D01*
X153163085Y-112712114D01*
X153198800Y-112676400D01*
X153234514Y-112604971D01*
X153234514Y-112533542D01*
X153198800Y-112462114D01*
X153163085Y-112426400D01*
X153091657Y-112390685D01*
X152913085Y-112390685D01*
X152805942Y-112426400D01*
X152484514Y-113140685D02*
X152484514Y-112390685D01*
X152305942Y-112390685D01*
X152198800Y-112426400D01*
X152127371Y-112497828D01*
X152091657Y-112569257D01*
X152055942Y-112712114D01*
X152055942Y-112819257D01*
X152091657Y-112962114D01*
X152127371Y-113033542D01*
X152198800Y-113104971D01*
X152305942Y-113140685D01*
X152484514Y-113140685D01*
X151770228Y-112926400D02*
X151413085Y-112926400D01*
X151841657Y-113140685D02*
X151591657Y-112390685D01*
X151341657Y-113140685D01*
D11*
X158953200Y-112064800D02*
X145745200Y-112064800D01*
X145745200Y-119176800D02*
X159080200Y-119176800D01*
X150190200Y-111810800D02*
X154508200Y-111810800D01*
X159080200Y-119176800D02*
X159080200Y-112064800D01*
X154508200Y-111937800D02*
X154508200Y-111429800D01*
X154508200Y-111429800D02*
X150190200Y-111429800D01*
X150190200Y-111429800D02*
X150190200Y-111937800D01*
X145745200Y-112064800D02*
X145745200Y-119176800D01*
X146939000Y-112903000D02*
G75*
G03*
X146939000Y-112903000I-254000J0D01*
G01*
%TO.C,kibuzzard-63168605*%
G36*
X127711200Y-114365925D02*
G01*
X126076207Y-113275930D01*
X126076207Y-112217200D01*
X126604712Y-112217200D01*
X126608284Y-112349756D01*
X126619000Y-112487075D01*
X126636859Y-112625981D01*
X126661862Y-112763300D01*
X128570038Y-112763300D01*
X128603375Y-112518825D01*
X128617663Y-112255300D01*
X128606153Y-112053688D01*
X128571625Y-111893350D01*
X128450975Y-111674275D01*
X128284288Y-111566325D01*
X128100138Y-111537750D01*
X127968375Y-111554816D01*
X127852488Y-111606013D01*
X127681037Y-111788575D01*
X127595312Y-111620697D01*
X127484187Y-111517113D01*
X127357187Y-111463534D01*
X127223837Y-111445675D01*
X127060722Y-111460756D01*
X126926975Y-111506000D01*
X126736475Y-111669513D01*
X126675356Y-111782225D01*
X126634875Y-111913988D01*
X126612253Y-112060434D01*
X126604712Y-112217200D01*
X126076207Y-112217200D01*
X126076207Y-110610650D01*
X126588837Y-110610650D01*
X126601934Y-110830519D01*
X126641225Y-111001175D01*
X126738062Y-111220250D01*
X127055562Y-111105950D01*
X126960312Y-110901163D01*
X126926975Y-110769003D01*
X126915862Y-110610650D01*
X126936500Y-110447138D01*
X126993650Y-110343950D01*
X127076200Y-110291563D01*
X127169862Y-110277275D01*
X127277812Y-110312200D01*
X127361950Y-110401100D01*
X127428625Y-110521750D01*
X127484187Y-110655100D01*
X127557212Y-110839250D01*
X127661987Y-111012288D01*
X127819150Y-111140875D01*
X128052513Y-111191675D01*
X128298575Y-111146828D01*
X128484313Y-111012288D01*
X128570743Y-110877703D01*
X128622601Y-110713132D01*
X128639888Y-110518575D01*
X128629569Y-110349109D01*
X128598613Y-110202663D01*
X128506538Y-109975650D01*
X128204913Y-110089950D01*
X128281113Y-110266163D01*
X128312863Y-110490000D01*
X128287815Y-110662861D01*
X128212674Y-110766578D01*
X128087438Y-110801150D01*
X127987425Y-110769400D01*
X127911225Y-110688438D01*
X127852488Y-110577313D01*
X127804863Y-110455075D01*
X127727075Y-110262988D01*
X127612775Y-110078838D01*
X127434975Y-109940725D01*
X127314722Y-109900244D01*
X127166687Y-109886750D01*
X126921816Y-109931597D01*
X126739650Y-110066138D01*
X126655865Y-110206367D01*
X126605594Y-110387871D01*
X126588837Y-110610650D01*
X126076207Y-110610650D01*
X126076207Y-108699300D01*
X126595187Y-108699300D01*
X126606300Y-108839397D01*
X126639637Y-108954888D01*
X126768225Y-109119988D01*
X126973012Y-109207300D01*
X127102394Y-109226350D01*
X127249237Y-109232700D01*
X127798513Y-109232700D01*
X127798513Y-109645450D01*
X128122363Y-109645450D01*
X128122363Y-109105700D01*
X128303338Y-109105700D01*
X128370013Y-109278738D01*
X128550988Y-109350175D01*
X128735138Y-109278738D01*
X128801813Y-109105700D01*
X128735138Y-108931075D01*
X128550988Y-108858050D01*
X128370013Y-108931075D01*
X128303338Y-109105700D01*
X128122363Y-109105700D01*
X128122363Y-108842175D01*
X127198437Y-108842175D01*
X127000000Y-108792963D01*
X126934912Y-108629450D01*
X126949200Y-108499275D01*
X127007937Y-108327825D01*
X126693612Y-108277025D01*
X126615825Y-108504038D01*
X126595187Y-108699300D01*
X126076207Y-108699300D01*
X126076207Y-107375325D01*
X126595187Y-107375325D01*
X126618118Y-107589285D01*
X126686910Y-107765497D01*
X126801562Y-107903963D01*
X126956079Y-108003622D01*
X127144462Y-108063418D01*
X127366712Y-108083350D01*
X127593019Y-108066593D01*
X127785107Y-108016322D01*
X127942975Y-107932538D01*
X128060274Y-107815944D01*
X128130653Y-107667249D01*
X128154113Y-107486450D01*
X128136650Y-107330875D01*
X128087438Y-107197525D01*
X128766888Y-107197525D01*
X128833563Y-106807000D01*
X126674562Y-106807000D01*
X126642812Y-106926856D01*
X126617412Y-107070525D01*
X126600744Y-107224513D01*
X126595187Y-107375325D01*
X126076207Y-107375325D01*
X126076207Y-105667175D01*
X126595187Y-105667175D01*
X126607491Y-105847753D01*
X126644400Y-106008488D01*
X126705519Y-106148188D01*
X126790450Y-106265663D01*
X126898797Y-106359722D01*
X127030162Y-106429175D01*
X127184944Y-106472038D01*
X127363537Y-106486325D01*
X127548481Y-106471244D01*
X127709612Y-106426000D01*
X127846534Y-106356150D01*
X127958850Y-106267250D01*
X128046559Y-106161681D01*
X128109663Y-106041825D01*
X128147763Y-105913238D01*
X128160463Y-105781475D01*
X128138767Y-105578981D01*
X128073679Y-105411764D01*
X127965200Y-105279825D01*
X127815093Y-105184575D01*
X127625122Y-105127425D01*
X127395287Y-105108375D01*
X127315912Y-105109963D01*
X127249237Y-105114725D01*
X127249237Y-106083100D01*
X127118666Y-106052938D01*
X127019050Y-105962450D01*
X126955947Y-105824338D01*
X126934912Y-105651300D01*
X126960312Y-105427463D01*
X127011112Y-105248075D01*
X126677737Y-105194100D01*
X126619000Y-105410000D01*
X126595187Y-105667175D01*
X126076207Y-105667175D01*
X126076207Y-104276525D01*
X126595187Y-104276525D01*
X126606300Y-104455913D01*
X126639637Y-104606725D01*
X126719012Y-104825800D01*
X127046037Y-104765475D01*
X126963487Y-104528938D01*
X126925387Y-104273350D01*
X126946025Y-104054275D01*
X127030162Y-103978075D01*
X127100012Y-104001888D01*
X127149225Y-104068563D01*
X127188912Y-104166988D01*
X127227012Y-104282875D01*
X127285750Y-104457500D01*
X127369887Y-104619425D01*
X127498475Y-104740075D01*
X127693737Y-104787700D01*
X127873125Y-104751188D01*
X128022350Y-104636888D01*
X128123950Y-104438450D01*
X128151334Y-104305894D01*
X128160463Y-104149525D01*
X128154906Y-104008634D01*
X128138238Y-103878063D01*
X128074738Y-103660575D01*
X127744538Y-103720900D01*
X127796925Y-103889175D01*
X127833438Y-104146350D01*
X127796925Y-104347963D01*
X127719138Y-104400350D01*
X127657225Y-104376538D01*
X127608012Y-104313038D01*
X127565150Y-104220963D01*
X127525462Y-104108250D01*
X127461962Y-103930450D01*
X127374650Y-103763763D01*
X127241300Y-103641525D01*
X127042862Y-103593900D01*
X126868237Y-103628825D01*
X126725362Y-103744713D01*
X126630112Y-103955850D01*
X126603919Y-104101106D01*
X126595187Y-104276525D01*
X126076207Y-104276525D01*
X126076207Y-101857175D01*
X126630112Y-101857175D01*
X126630112Y-102298500D01*
X126869825Y-102398512D01*
X126996825Y-102467172D01*
X127120650Y-102542975D01*
X127238919Y-102624334D01*
X127349250Y-102709663D01*
X127528637Y-102876350D01*
X126630112Y-102876350D01*
X126630112Y-103266875D01*
X128595438Y-103266875D01*
X128595438Y-102876350D01*
X127779463Y-102876350D01*
X127976313Y-102730300D01*
X128192213Y-102585837D01*
X128404938Y-102460425D01*
X128595438Y-102365175D01*
X128595438Y-101923850D01*
X128400175Y-102030212D01*
X128288256Y-102096491D01*
X128171575Y-102171500D01*
X128051322Y-102253653D01*
X127928688Y-102341362D01*
X127807244Y-102433834D01*
X127690562Y-102530275D01*
X127588169Y-102431056D01*
X127471487Y-102330250D01*
X127343297Y-102231428D01*
X127206375Y-102138162D01*
X127063500Y-102052041D01*
X126917450Y-101974650D01*
X126771797Y-101908769D01*
X126630112Y-101857175D01*
X126076207Y-101857175D01*
X126076207Y-100882450D01*
X126588837Y-100882450D01*
X126618471Y-101137861D01*
X126707371Y-101349528D01*
X126855537Y-101517450D01*
X127002977Y-101613295D01*
X127178594Y-101681756D01*
X127382389Y-101722833D01*
X127614362Y-101736525D01*
X127845344Y-101719856D01*
X128049338Y-101669850D01*
X128225153Y-101590078D01*
X128371600Y-101484112D01*
X128487488Y-101353937D01*
X128571625Y-101201537D01*
X128622822Y-101030484D01*
X128639888Y-100844350D01*
X128622425Y-100655437D01*
X128582738Y-100507800D01*
X128535113Y-100401437D01*
X128497013Y-100336350D01*
X128185863Y-100437950D01*
X128266825Y-100614162D01*
X128300163Y-100850700D01*
X128266825Y-101030087D01*
X128155700Y-101185662D01*
X127947738Y-101296787D01*
X127801688Y-101328934D01*
X127623887Y-101339650D01*
X127416983Y-101326774D01*
X127245004Y-101288144D01*
X127107950Y-101223762D01*
X126973409Y-101070966D01*
X126928562Y-100844350D01*
X126963487Y-100591937D01*
X127033337Y-100431600D01*
X126725362Y-100333175D01*
X126631700Y-100557013D01*
X126599553Y-100709016D01*
X126588837Y-100882450D01*
X126076207Y-100882450D01*
X126076207Y-98463100D01*
X126630112Y-98463100D01*
X126709487Y-98471037D01*
X126776162Y-98469450D01*
X126928562Y-98454766D01*
X127068262Y-98410712D01*
X127196453Y-98344037D01*
X127314325Y-98261487D01*
X127423069Y-98167825D01*
X127523875Y-98067812D01*
X127618728Y-97967800D01*
X127709612Y-97874137D01*
X127881063Y-97724912D01*
X128049338Y-97666175D01*
X128235075Y-97739200D01*
X128300163Y-97923350D01*
X128255713Y-98117025D01*
X128106488Y-98317050D01*
X128379538Y-98510725D01*
X128495425Y-98373803D01*
X128576388Y-98217037D01*
X128624013Y-98050747D01*
X128639888Y-97885250D01*
X128604963Y-97653475D01*
X128500188Y-97456625D01*
X128323975Y-97320100D01*
X128077913Y-97269300D01*
X127882650Y-97307400D01*
X127700087Y-97409000D01*
X127528637Y-97551875D01*
X127369887Y-97713800D01*
X127279400Y-97809050D01*
X127171450Y-97910650D01*
X127058737Y-97991612D01*
X126953962Y-98024950D01*
X126953962Y-97180400D01*
X126630112Y-97180400D01*
X126630112Y-98463100D01*
X126076207Y-98463100D01*
X126076207Y-96266000D01*
X126588837Y-96266000D01*
X126617060Y-96470611D01*
X126701726Y-96639944D01*
X126842837Y-96774000D01*
X126986506Y-96850398D01*
X127163512Y-96904969D01*
X127373856Y-96937711D01*
X127617537Y-96948625D01*
X127858441Y-96937512D01*
X128066800Y-96904175D01*
X128242616Y-96848612D01*
X128385888Y-96770825D01*
X128526999Y-96635711D01*
X128611665Y-96467436D01*
X128639888Y-96266000D01*
X128611842Y-96061389D01*
X128527704Y-95892056D01*
X128387475Y-95758000D01*
X128244699Y-95681602D01*
X128068784Y-95627031D01*
X127859730Y-95594289D01*
X127617537Y-95583375D01*
X127373856Y-95594289D01*
X127163512Y-95627031D01*
X126986506Y-95681602D01*
X126842837Y-95758000D01*
X126701726Y-95892056D01*
X126617060Y-96061389D01*
X126588837Y-96266000D01*
X126076207Y-96266000D01*
X126076207Y-95288100D01*
X126630112Y-95288100D01*
X126709487Y-95296037D01*
X126776162Y-95294450D01*
X126928562Y-95279766D01*
X127068262Y-95235712D01*
X127196453Y-95169037D01*
X127314325Y-95086487D01*
X127423069Y-94992825D01*
X127523875Y-94892812D01*
X127618728Y-94792800D01*
X127709612Y-94699137D01*
X127881063Y-94549912D01*
X128049338Y-94491175D01*
X128235075Y-94564200D01*
X128300163Y-94748350D01*
X128255713Y-94942025D01*
X128106488Y-95142050D01*
X128379538Y-95335725D01*
X128495425Y-95198803D01*
X128576388Y-95042037D01*
X128624013Y-94875747D01*
X128639888Y-94710250D01*
X128604963Y-94478475D01*
X128500188Y-94281625D01*
X128323975Y-94145100D01*
X128077913Y-94094300D01*
X127882650Y-94132400D01*
X127700087Y-94234000D01*
X127528637Y-94376875D01*
X127369887Y-94538800D01*
X127279400Y-94634050D01*
X127171450Y-94735650D01*
X127058737Y-94816612D01*
X126953962Y-94849950D01*
X126953962Y-94005400D01*
X126630112Y-94005400D01*
X126630112Y-95288100D01*
X126076207Y-95288100D01*
X126076207Y-93700600D01*
X126630112Y-93700600D01*
X126709487Y-93708537D01*
X126776162Y-93706950D01*
X126928562Y-93692266D01*
X127068262Y-93648212D01*
X127196453Y-93581537D01*
X127314325Y-93498987D01*
X127423069Y-93405325D01*
X127523875Y-93305312D01*
X127618728Y-93205300D01*
X127709612Y-93111637D01*
X127881063Y-92962412D01*
X128049338Y-92903675D01*
X128235075Y-92976700D01*
X128300163Y-93160850D01*
X128255713Y-93354525D01*
X128106488Y-93554550D01*
X128379538Y-93748225D01*
X128495425Y-93611303D01*
X128576388Y-93454537D01*
X128624013Y-93288247D01*
X128639888Y-93122750D01*
X128604963Y-92890975D01*
X128500188Y-92694125D01*
X128323975Y-92557600D01*
X128077913Y-92506800D01*
X127882650Y-92544900D01*
X127700087Y-92646500D01*
X127528637Y-92789375D01*
X127369887Y-92951300D01*
X127279400Y-93046550D01*
X127171450Y-93148150D01*
X127058737Y-93229112D01*
X126953962Y-93262450D01*
X126953962Y-92417900D01*
X126630112Y-92417900D01*
X126630112Y-93700600D01*
X126076207Y-93700600D01*
X126076207Y-91905270D01*
X127711200Y-90815275D01*
X129346193Y-91905270D01*
X129346193Y-113275930D01*
X127711200Y-114365925D01*
G37*
G36*
X127800100Y-107299125D02*
G01*
X127817563Y-107419775D01*
X127789781Y-107540425D01*
X127706437Y-107622975D01*
X127570706Y-107670600D01*
X127385762Y-107686475D01*
X127203994Y-107667822D01*
X127058737Y-107611863D01*
X126963487Y-107514628D01*
X126931737Y-107372150D01*
X126934912Y-107283250D01*
X126944437Y-107197525D01*
X127757238Y-107197525D01*
X127800100Y-107299125D01*
G37*
G36*
X128171575Y-111940975D02*
G01*
X128238250Y-112001300D01*
X128270000Y-112090200D01*
X128277938Y-112194975D01*
X128274763Y-112287050D01*
X128265238Y-112372775D01*
X127814388Y-112372775D01*
X127814388Y-112220375D01*
X127879475Y-111994950D01*
X128058863Y-111918750D01*
X128171575Y-111940975D01*
G37*
G36*
X127995010Y-95973194D02*
G01*
X128130300Y-96019937D01*
X128262459Y-96123522D01*
X128306513Y-96266000D01*
X128262459Y-96406494D01*
X128130300Y-96510475D01*
X127995010Y-96558100D01*
X127824089Y-96586675D01*
X127617537Y-96596200D01*
X127409222Y-96586675D01*
X127237243Y-96558100D01*
X127101600Y-96510475D01*
X126969441Y-96406494D01*
X126925387Y-96266000D01*
X126926369Y-96262825D01*
X127439737Y-96262825D01*
X127501650Y-96393000D01*
X127649287Y-96440625D01*
X127798513Y-96393000D01*
X127862013Y-96262825D01*
X127798513Y-96137412D01*
X127649287Y-96088200D01*
X127501650Y-96137412D01*
X127439737Y-96262825D01*
X126926369Y-96262825D01*
X126969441Y-96123522D01*
X127101600Y-96019937D01*
X127237243Y-95973194D01*
X127409222Y-95945149D01*
X127617537Y-95935800D01*
X127824089Y-95945149D01*
X127995010Y-95973194D01*
G37*
G36*
X127635000Y-105502075D02*
G01*
X127735013Y-105552875D01*
X127806450Y-105641775D01*
X127833438Y-105775125D01*
X127808038Y-105906888D01*
X127738188Y-105998963D01*
X127636587Y-106056113D01*
X127519112Y-106083100D01*
X127519112Y-105486200D01*
X127635000Y-105502075D01*
G37*
G36*
X127428625Y-111920338D02*
G01*
X127490537Y-112163225D01*
X127490537Y-112372775D01*
X126957137Y-112372775D01*
X126947612Y-112282288D01*
X126944437Y-112185450D01*
X126955550Y-112055275D01*
X126996825Y-111942563D01*
X127082550Y-111861600D01*
X127223837Y-111829850D01*
X127428625Y-111920338D01*
G37*
%TD*%
M02*
