%TF.GenerationSoftware,KiCad,Pcbnew,(6.0.7)*%
%TF.CreationDate,2022-09-05T18:42:41-05:00*%
%TF.ProjectId,Corelight SAO,436f7265-6c69-4676-9874-2053414f2e6b,rev?*%
%TF.SameCoordinates,Original*%
%TF.FileFunction,Soldermask,Top*%
%TF.FilePolarity,Negative*%
%FSLAX46Y46*%
G04 Gerber Fmt 4.6, Leading zero omitted, Abs format (unit mm)*
G04 Created by KiCad (PCBNEW (6.0.7)) date 2022-09-05 18:42:41*
%MOMM*%
%LPD*%
G01*
G04 APERTURE LIST*
G04 Aperture macros list*
%AMRoundRect*
0 Rectangle with rounded corners*
0 $1 Rounding radius*
0 $2 $3 $4 $5 $6 $7 $8 $9 X,Y pos of 4 corners*
0 Add a 4 corners polygon primitive as box body*
4,1,4,$2,$3,$4,$5,$6,$7,$8,$9,$2,$3,0*
0 Add four circle primitives for the rounded corners*
1,1,$1+$1,$2,$3*
1,1,$1+$1,$4,$5*
1,1,$1+$1,$6,$7*
1,1,$1+$1,$8,$9*
0 Add four rect primitives between the rounded corners*
20,1,$1+$1,$2,$3,$4,$5,0*
20,1,$1+$1,$4,$5,$6,$7,0*
20,1,$1+$1,$6,$7,$8,$9,0*
20,1,$1+$1,$8,$9,$2,$3,0*%
G04 Aperture macros list end*
%ADD10C,0.010000*%
%ADD11O,2.127200X2.127200*%
%ADD12RoundRect,0.200000X-0.863600X0.863600X-0.863600X-0.863600X0.863600X-0.863600X0.863600X0.863600X0*%
%ADD13C,2.127200*%
G04 APERTURE END LIST*
%TO.C,G\u002A\u002A\u002A*%
G36*
X152561805Y-83589102D02*
G01*
X152207263Y-83601779D01*
X151754144Y-83620496D01*
X151336434Y-83643172D01*
X150947346Y-83670340D01*
X150580096Y-83702534D01*
X150227897Y-83740288D01*
X149883962Y-83784137D01*
X149876995Y-83785097D01*
X148977651Y-83930382D01*
X148090035Y-84116106D01*
X147215209Y-84341739D01*
X146354239Y-84606751D01*
X145508188Y-84910614D01*
X144678120Y-85252796D01*
X143865099Y-85632769D01*
X143070190Y-86050004D01*
X142294457Y-86503969D01*
X141538963Y-86994136D01*
X140804772Y-87519975D01*
X140092950Y-88080957D01*
X139404558Y-88676551D01*
X138740663Y-89306229D01*
X138696433Y-89350273D01*
X138066719Y-90007373D01*
X137474274Y-90683769D01*
X136917832Y-91381225D01*
X136396130Y-92101504D01*
X135907903Y-92846369D01*
X135451888Y-93617585D01*
X135026819Y-94416916D01*
X134940788Y-94589692D01*
X134557654Y-95415560D01*
X134214762Y-96254536D01*
X133912154Y-97106459D01*
X133649873Y-97971166D01*
X133427962Y-98848494D01*
X133246463Y-99738281D01*
X133105418Y-100640365D01*
X133004871Y-101554584D01*
X132961780Y-102146192D01*
X132954750Y-102298747D01*
X132949204Y-102485523D01*
X132945142Y-102698432D01*
X132942564Y-102929387D01*
X132941472Y-103170300D01*
X132941866Y-103413086D01*
X132943746Y-103649655D01*
X132947113Y-103871922D01*
X132951967Y-104071800D01*
X132958310Y-104241200D01*
X132961641Y-104305192D01*
X133025512Y-105137075D01*
X133119211Y-105943504D01*
X133243535Y-106729837D01*
X133399285Y-107501434D01*
X133504720Y-107945859D01*
X133745089Y-108819271D01*
X134025203Y-109678545D01*
X134344576Y-110522715D01*
X134702721Y-111350816D01*
X135099152Y-112161881D01*
X135533382Y-112954945D01*
X136004925Y-113729040D01*
X136513294Y-114483203D01*
X137058002Y-115216466D01*
X137353687Y-115587025D01*
X137777217Y-116085385D01*
X138233145Y-116585009D01*
X138712751Y-117077108D01*
X139207312Y-117552887D01*
X139708105Y-118003555D01*
X139983240Y-118237703D01*
X140691492Y-118800615D01*
X141423978Y-119329681D01*
X142179058Y-119824073D01*
X142955092Y-120282965D01*
X143750441Y-120705530D01*
X144563465Y-121090942D01*
X145392523Y-121438373D01*
X146235976Y-121746997D01*
X147092184Y-122015988D01*
X147905138Y-122231468D01*
X148792176Y-122424208D01*
X149685300Y-122575620D01*
X150582885Y-122685765D01*
X151483306Y-122754707D01*
X152384938Y-122782508D01*
X153286156Y-122769231D01*
X154185334Y-122714939D01*
X155080848Y-122619694D01*
X155971073Y-122483561D01*
X156854382Y-122306601D01*
X157729152Y-122088877D01*
X158593758Y-121830453D01*
X158636638Y-121816482D01*
X159486759Y-121516206D01*
X160322362Y-121176571D01*
X161141726Y-120798570D01*
X161943132Y-120383196D01*
X162724860Y-119931443D01*
X163485190Y-119444302D01*
X164222403Y-118922769D01*
X164934777Y-118367835D01*
X165611055Y-117789053D01*
X165744623Y-117666811D01*
X165899929Y-117520505D01*
X166069910Y-117357099D01*
X166247507Y-117183559D01*
X166425656Y-117006849D01*
X166597298Y-116833933D01*
X166755370Y-116671776D01*
X166892812Y-116527342D01*
X166921510Y-116496556D01*
X167520235Y-115820273D01*
X168086205Y-115117871D01*
X168618640Y-114390865D01*
X169116761Y-113640767D01*
X169579789Y-112869090D01*
X170006946Y-112077348D01*
X170397453Y-111267055D01*
X170750532Y-110439723D01*
X171065402Y-109596866D01*
X171341286Y-108739998D01*
X171577405Y-107870631D01*
X171746794Y-107120359D01*
X171830886Y-106681830D01*
X171907044Y-106228259D01*
X171973910Y-105769942D01*
X172030128Y-105317173D01*
X172074340Y-104880245D01*
X172105190Y-104469454D01*
X172111671Y-104352163D01*
X172126245Y-104061775D01*
X177585880Y-104061775D01*
X177572047Y-104310484D01*
X177544268Y-104769158D01*
X177513521Y-105194385D01*
X177478880Y-105595000D01*
X177439415Y-105979840D01*
X177394198Y-106357742D01*
X177342302Y-106737541D01*
X177282797Y-107128074D01*
X177263534Y-107247359D01*
X177077158Y-108257501D01*
X176850186Y-109255730D01*
X176582771Y-110241576D01*
X176275067Y-111214568D01*
X175927225Y-112174237D01*
X175539400Y-113120115D01*
X175111744Y-114051730D01*
X174922916Y-114433442D01*
X174442787Y-115336914D01*
X173926715Y-116218646D01*
X173375687Y-117077578D01*
X172790694Y-117912647D01*
X172172722Y-118722792D01*
X171522760Y-119506951D01*
X170841797Y-120264062D01*
X170130822Y-120993064D01*
X169390822Y-121692895D01*
X168622786Y-122362493D01*
X167827703Y-123000797D01*
X167006561Y-123606744D01*
X166160348Y-124179274D01*
X165420555Y-124639778D01*
X164524321Y-125151751D01*
X163612985Y-125624202D01*
X162686855Y-126057037D01*
X161746240Y-126450162D01*
X160791451Y-126803485D01*
X159822795Y-127116911D01*
X158840582Y-127390347D01*
X157845121Y-127623698D01*
X156836720Y-127816872D01*
X155815690Y-127969774D01*
X154782338Y-128082312D01*
X153842388Y-128148987D01*
X153714371Y-128154269D01*
X153550677Y-128158621D01*
X153357817Y-128162049D01*
X153142302Y-128164559D01*
X152910646Y-128166155D01*
X152669360Y-128166843D01*
X152424956Y-128166629D01*
X152183946Y-128165519D01*
X151952842Y-128163517D01*
X151738157Y-128160628D01*
X151546402Y-128156860D01*
X151384089Y-128152216D01*
X151260055Y-128146832D01*
X150220375Y-128068576D01*
X149191453Y-127949566D01*
X148173875Y-127789998D01*
X147168229Y-127590069D01*
X146175100Y-127349974D01*
X145195077Y-127069911D01*
X144228747Y-126750077D01*
X143276696Y-126390668D01*
X142339512Y-125991880D01*
X141417781Y-125553911D01*
X140512091Y-125076957D01*
X139623029Y-124561214D01*
X138751182Y-124006879D01*
X138602388Y-123907244D01*
X138010577Y-123496736D01*
X137444071Y-123080148D01*
X136896570Y-122652185D01*
X136361775Y-122207556D01*
X135833388Y-121740966D01*
X135305110Y-121247122D01*
X134770643Y-120720731D01*
X134580333Y-120527192D01*
X133915975Y-119816700D01*
X133276910Y-119073650D01*
X132664796Y-118300609D01*
X132081295Y-117500141D01*
X131528066Y-116674811D01*
X131006768Y-115827185D01*
X130519062Y-114959828D01*
X130066607Y-114075306D01*
X129651062Y-113176183D01*
X129335421Y-112420759D01*
X128974943Y-111457924D01*
X128655229Y-110484085D01*
X128376389Y-109500036D01*
X128138532Y-108506576D01*
X127941767Y-107504499D01*
X127786202Y-106494602D01*
X127671949Y-105477682D01*
X127599115Y-104454534D01*
X127567809Y-103425956D01*
X127578142Y-102392743D01*
X127630222Y-101355692D01*
X127702782Y-100516359D01*
X127786010Y-99817548D01*
X127894173Y-99096607D01*
X128025599Y-98364330D01*
X128074067Y-98120668D01*
X128298708Y-97123943D01*
X128563739Y-96139151D01*
X128868618Y-95167415D01*
X129212804Y-94209859D01*
X129595757Y-93267607D01*
X130016934Y-92341784D01*
X130475796Y-91433513D01*
X130971801Y-90543919D01*
X131504408Y-89674126D01*
X132073076Y-88825257D01*
X132677264Y-87998438D01*
X133316430Y-87194792D01*
X133355504Y-87147786D01*
X133904474Y-86512482D01*
X134485526Y-85884554D01*
X135090659Y-85272011D01*
X135711869Y-84682862D01*
X136341155Y-84125113D01*
X136564342Y-83936710D01*
X137355820Y-83304145D01*
X138171955Y-82704108D01*
X139010891Y-82137591D01*
X139870768Y-81605584D01*
X140749728Y-81109079D01*
X141645914Y-80649068D01*
X142557469Y-80226541D01*
X143482532Y-79842490D01*
X144419248Y-79497906D01*
X145365757Y-79193781D01*
X145561845Y-79136230D01*
X146348770Y-78921205D01*
X147125012Y-78734271D01*
X147897211Y-78574411D01*
X148672006Y-78440611D01*
X149456037Y-78331856D01*
X150255943Y-78247131D01*
X151078364Y-78185420D01*
X151929939Y-78145710D01*
X152069680Y-78141320D01*
X152561805Y-78126854D01*
X152561805Y-83589102D01*
G37*
D10*
X152561805Y-83589102D02*
X152207263Y-83601779D01*
X151754144Y-83620496D01*
X151336434Y-83643172D01*
X150947346Y-83670340D01*
X150580096Y-83702534D01*
X150227897Y-83740288D01*
X149883962Y-83784137D01*
X149876995Y-83785097D01*
X148977651Y-83930382D01*
X148090035Y-84116106D01*
X147215209Y-84341739D01*
X146354239Y-84606751D01*
X145508188Y-84910614D01*
X144678120Y-85252796D01*
X143865099Y-85632769D01*
X143070190Y-86050004D01*
X142294457Y-86503969D01*
X141538963Y-86994136D01*
X140804772Y-87519975D01*
X140092950Y-88080957D01*
X139404558Y-88676551D01*
X138740663Y-89306229D01*
X138696433Y-89350273D01*
X138066719Y-90007373D01*
X137474274Y-90683769D01*
X136917832Y-91381225D01*
X136396130Y-92101504D01*
X135907903Y-92846369D01*
X135451888Y-93617585D01*
X135026819Y-94416916D01*
X134940788Y-94589692D01*
X134557654Y-95415560D01*
X134214762Y-96254536D01*
X133912154Y-97106459D01*
X133649873Y-97971166D01*
X133427962Y-98848494D01*
X133246463Y-99738281D01*
X133105418Y-100640365D01*
X133004871Y-101554584D01*
X132961780Y-102146192D01*
X132954750Y-102298747D01*
X132949204Y-102485523D01*
X132945142Y-102698432D01*
X132942564Y-102929387D01*
X132941472Y-103170300D01*
X132941866Y-103413086D01*
X132943746Y-103649655D01*
X132947113Y-103871922D01*
X132951967Y-104071800D01*
X132958310Y-104241200D01*
X132961641Y-104305192D01*
X133025512Y-105137075D01*
X133119211Y-105943504D01*
X133243535Y-106729837D01*
X133399285Y-107501434D01*
X133504720Y-107945859D01*
X133745089Y-108819271D01*
X134025203Y-109678545D01*
X134344576Y-110522715D01*
X134702721Y-111350816D01*
X135099152Y-112161881D01*
X135533382Y-112954945D01*
X136004925Y-113729040D01*
X136513294Y-114483203D01*
X137058002Y-115216466D01*
X137353687Y-115587025D01*
X137777217Y-116085385D01*
X138233145Y-116585009D01*
X138712751Y-117077108D01*
X139207312Y-117552887D01*
X139708105Y-118003555D01*
X139983240Y-118237703D01*
X140691492Y-118800615D01*
X141423978Y-119329681D01*
X142179058Y-119824073D01*
X142955092Y-120282965D01*
X143750441Y-120705530D01*
X144563465Y-121090942D01*
X145392523Y-121438373D01*
X146235976Y-121746997D01*
X147092184Y-122015988D01*
X147905138Y-122231468D01*
X148792176Y-122424208D01*
X149685300Y-122575620D01*
X150582885Y-122685765D01*
X151483306Y-122754707D01*
X152384938Y-122782508D01*
X153286156Y-122769231D01*
X154185334Y-122714939D01*
X155080848Y-122619694D01*
X155971073Y-122483561D01*
X156854382Y-122306601D01*
X157729152Y-122088877D01*
X158593758Y-121830453D01*
X158636638Y-121816482D01*
X159486759Y-121516206D01*
X160322362Y-121176571D01*
X161141726Y-120798570D01*
X161943132Y-120383196D01*
X162724860Y-119931443D01*
X163485190Y-119444302D01*
X164222403Y-118922769D01*
X164934777Y-118367835D01*
X165611055Y-117789053D01*
X165744623Y-117666811D01*
X165899929Y-117520505D01*
X166069910Y-117357099D01*
X166247507Y-117183559D01*
X166425656Y-117006849D01*
X166597298Y-116833933D01*
X166755370Y-116671776D01*
X166892812Y-116527342D01*
X166921510Y-116496556D01*
X167520235Y-115820273D01*
X168086205Y-115117871D01*
X168618640Y-114390865D01*
X169116761Y-113640767D01*
X169579789Y-112869090D01*
X170006946Y-112077348D01*
X170397453Y-111267055D01*
X170750532Y-110439723D01*
X171065402Y-109596866D01*
X171341286Y-108739998D01*
X171577405Y-107870631D01*
X171746794Y-107120359D01*
X171830886Y-106681830D01*
X171907044Y-106228259D01*
X171973910Y-105769942D01*
X172030128Y-105317173D01*
X172074340Y-104880245D01*
X172105190Y-104469454D01*
X172111671Y-104352163D01*
X172126245Y-104061775D01*
X177585880Y-104061775D01*
X177572047Y-104310484D01*
X177544268Y-104769158D01*
X177513521Y-105194385D01*
X177478880Y-105595000D01*
X177439415Y-105979840D01*
X177394198Y-106357742D01*
X177342302Y-106737541D01*
X177282797Y-107128074D01*
X177263534Y-107247359D01*
X177077158Y-108257501D01*
X176850186Y-109255730D01*
X176582771Y-110241576D01*
X176275067Y-111214568D01*
X175927225Y-112174237D01*
X175539400Y-113120115D01*
X175111744Y-114051730D01*
X174922916Y-114433442D01*
X174442787Y-115336914D01*
X173926715Y-116218646D01*
X173375687Y-117077578D01*
X172790694Y-117912647D01*
X172172722Y-118722792D01*
X171522760Y-119506951D01*
X170841797Y-120264062D01*
X170130822Y-120993064D01*
X169390822Y-121692895D01*
X168622786Y-122362493D01*
X167827703Y-123000797D01*
X167006561Y-123606744D01*
X166160348Y-124179274D01*
X165420555Y-124639778D01*
X164524321Y-125151751D01*
X163612985Y-125624202D01*
X162686855Y-126057037D01*
X161746240Y-126450162D01*
X160791451Y-126803485D01*
X159822795Y-127116911D01*
X158840582Y-127390347D01*
X157845121Y-127623698D01*
X156836720Y-127816872D01*
X155815690Y-127969774D01*
X154782338Y-128082312D01*
X153842388Y-128148987D01*
X153714371Y-128154269D01*
X153550677Y-128158621D01*
X153357817Y-128162049D01*
X153142302Y-128164559D01*
X152910646Y-128166155D01*
X152669360Y-128166843D01*
X152424956Y-128166629D01*
X152183946Y-128165519D01*
X151952842Y-128163517D01*
X151738157Y-128160628D01*
X151546402Y-128156860D01*
X151384089Y-128152216D01*
X151260055Y-128146832D01*
X150220375Y-128068576D01*
X149191453Y-127949566D01*
X148173875Y-127789998D01*
X147168229Y-127590069D01*
X146175100Y-127349974D01*
X145195077Y-127069911D01*
X144228747Y-126750077D01*
X143276696Y-126390668D01*
X142339512Y-125991880D01*
X141417781Y-125553911D01*
X140512091Y-125076957D01*
X139623029Y-124561214D01*
X138751182Y-124006879D01*
X138602388Y-123907244D01*
X138010577Y-123496736D01*
X137444071Y-123080148D01*
X136896570Y-122652185D01*
X136361775Y-122207556D01*
X135833388Y-121740966D01*
X135305110Y-121247122D01*
X134770643Y-120720731D01*
X134580333Y-120527192D01*
X133915975Y-119816700D01*
X133276910Y-119073650D01*
X132664796Y-118300609D01*
X132081295Y-117500141D01*
X131528066Y-116674811D01*
X131006768Y-115827185D01*
X130519062Y-114959828D01*
X130066607Y-114075306D01*
X129651062Y-113176183D01*
X129335421Y-112420759D01*
X128974943Y-111457924D01*
X128655229Y-110484085D01*
X128376389Y-109500036D01*
X128138532Y-108506576D01*
X127941767Y-107504499D01*
X127786202Y-106494602D01*
X127671949Y-105477682D01*
X127599115Y-104454534D01*
X127567809Y-103425956D01*
X127578142Y-102392743D01*
X127630222Y-101355692D01*
X127702782Y-100516359D01*
X127786010Y-99817548D01*
X127894173Y-99096607D01*
X128025599Y-98364330D01*
X128074067Y-98120668D01*
X128298708Y-97123943D01*
X128563739Y-96139151D01*
X128868618Y-95167415D01*
X129212804Y-94209859D01*
X129595757Y-93267607D01*
X130016934Y-92341784D01*
X130475796Y-91433513D01*
X130971801Y-90543919D01*
X131504408Y-89674126D01*
X132073076Y-88825257D01*
X132677264Y-87998438D01*
X133316430Y-87194792D01*
X133355504Y-87147786D01*
X133904474Y-86512482D01*
X134485526Y-85884554D01*
X135090659Y-85272011D01*
X135711869Y-84682862D01*
X136341155Y-84125113D01*
X136564342Y-83936710D01*
X137355820Y-83304145D01*
X138171955Y-82704108D01*
X139010891Y-82137591D01*
X139870768Y-81605584D01*
X140749728Y-81109079D01*
X141645914Y-80649068D01*
X142557469Y-80226541D01*
X143482532Y-79842490D01*
X144419248Y-79497906D01*
X145365757Y-79193781D01*
X145561845Y-79136230D01*
X146348770Y-78921205D01*
X147125012Y-78734271D01*
X147897211Y-78574411D01*
X148672006Y-78440611D01*
X149456037Y-78331856D01*
X150255943Y-78247131D01*
X151078364Y-78185420D01*
X151929939Y-78145710D01*
X152069680Y-78141320D01*
X152561805Y-78126854D01*
X152561805Y-83589102D01*
%TD*%
D11*
%TO.C,X1*%
X149945400Y-114447000D03*
D12*
X149945400Y-116987000D03*
D11*
X152485400Y-114447000D03*
X152485400Y-116987000D03*
D13*
X155025400Y-114447000D03*
X155025400Y-116987000D03*
%TD*%
M02*
