%TF.GenerationSoftware,KiCad,Pcbnew,(6.0.7)*%
%TF.CreationDate,2022-09-05T18:42:41-05:00*%
%TF.ProjectId,Corelight SAO,436f7265-6c69-4676-9874-2053414f2e6b,rev?*%
%TF.SameCoordinates,Original*%
%TF.FileFunction,Legend,Top*%
%TF.FilePolarity,Positive*%
%FSLAX46Y46*%
G04 Gerber Fmt 4.6, Leading zero omitted, Abs format (unit mm)*
G04 Created by KiCad (PCBNEW (6.0.7)) date 2022-09-05 18:42:41*
%MOMM*%
%LPD*%
G01*
G04 APERTURE LIST*
%ADD10C,0.010000*%
G04 APERTURE END LIST*
%TO.C,G\u002A\u002A\u002A*%
G36*
X147099262Y-99348615D02*
G01*
X147214107Y-99385763D01*
X147307519Y-99455175D01*
X147376754Y-99554199D01*
X147419065Y-99680180D01*
X147431705Y-99830466D01*
X147418999Y-99964070D01*
X147387727Y-100082656D01*
X147333918Y-100181550D01*
X147252988Y-100265114D01*
X147140354Y-100337710D01*
X146991434Y-100403700D01*
X146935808Y-100423980D01*
X146704526Y-100518442D01*
X146490003Y-100632502D01*
X146304686Y-100759526D01*
X146301763Y-100761836D01*
X146169471Y-100866666D01*
X146169471Y-103508129D01*
X146169493Y-103909283D01*
X146169492Y-104270301D01*
X146169369Y-104593381D01*
X146169026Y-104880720D01*
X146168362Y-105134514D01*
X146167280Y-105356963D01*
X146165679Y-105550262D01*
X146163461Y-105716610D01*
X146160526Y-105858203D01*
X146156776Y-105977240D01*
X146152111Y-106075917D01*
X146146432Y-106156432D01*
X146139641Y-106220982D01*
X146131638Y-106271764D01*
X146122323Y-106310977D01*
X146111598Y-106340816D01*
X146099364Y-106363481D01*
X146085521Y-106381167D01*
X146069971Y-106396073D01*
X146052615Y-106410396D01*
X146038024Y-106422352D01*
X145983644Y-106463136D01*
X145934252Y-106492395D01*
X145925870Y-106496012D01*
X145867247Y-106510346D01*
X145784887Y-106521426D01*
X145697356Y-106527640D01*
X145623218Y-106527375D01*
X145597971Y-106524497D01*
X145466313Y-106485954D01*
X145368255Y-106423504D01*
X145300671Y-106334294D01*
X145260702Y-106216757D01*
X145257243Y-106184609D01*
X145254148Y-106122644D01*
X145251411Y-106029868D01*
X145249027Y-105905287D01*
X145246991Y-105747908D01*
X145245297Y-105556738D01*
X145243941Y-105330783D01*
X145242916Y-105069049D01*
X145242218Y-104770542D01*
X145241842Y-104434270D01*
X145241781Y-104059239D01*
X145242031Y-103644454D01*
X145242587Y-103188923D01*
X145243061Y-102897609D01*
X145243847Y-102465521D01*
X145244623Y-102073755D01*
X145245415Y-101720297D01*
X145246248Y-101403134D01*
X145247148Y-101120253D01*
X145248142Y-100869643D01*
X145249255Y-100649290D01*
X145250512Y-100457181D01*
X145251941Y-100291305D01*
X145253565Y-100149648D01*
X145255411Y-100030197D01*
X145257506Y-99930941D01*
X145259874Y-99849865D01*
X145262542Y-99784959D01*
X145265535Y-99734208D01*
X145268879Y-99695601D01*
X145272600Y-99667124D01*
X145276723Y-99646765D01*
X145281276Y-99632512D01*
X145285003Y-99624588D01*
X145361044Y-99527630D01*
X145464557Y-99459239D01*
X145590600Y-99420752D01*
X145734231Y-99413507D01*
X145890508Y-99438840D01*
X145929950Y-99450102D01*
X146014238Y-99496342D01*
X146088531Y-99574584D01*
X146144726Y-99674536D01*
X146169458Y-99754297D01*
X146194476Y-99874807D01*
X146350815Y-99715397D01*
X146477974Y-99592953D01*
X146591061Y-99500901D01*
X146698075Y-99433506D01*
X146807012Y-99385036D01*
X146816264Y-99381729D01*
X146965733Y-99346386D01*
X147099262Y-99348615D01*
G37*
D10*
X147099262Y-99348615D02*
X147214107Y-99385763D01*
X147307519Y-99455175D01*
X147376754Y-99554199D01*
X147419065Y-99680180D01*
X147431705Y-99830466D01*
X147418999Y-99964070D01*
X147387727Y-100082656D01*
X147333918Y-100181550D01*
X147252988Y-100265114D01*
X147140354Y-100337710D01*
X146991434Y-100403700D01*
X146935808Y-100423980D01*
X146704526Y-100518442D01*
X146490003Y-100632502D01*
X146304686Y-100759526D01*
X146301763Y-100761836D01*
X146169471Y-100866666D01*
X146169471Y-103508129D01*
X146169493Y-103909283D01*
X146169492Y-104270301D01*
X146169369Y-104593381D01*
X146169026Y-104880720D01*
X146168362Y-105134514D01*
X146167280Y-105356963D01*
X146165679Y-105550262D01*
X146163461Y-105716610D01*
X146160526Y-105858203D01*
X146156776Y-105977240D01*
X146152111Y-106075917D01*
X146146432Y-106156432D01*
X146139641Y-106220982D01*
X146131638Y-106271764D01*
X146122323Y-106310977D01*
X146111598Y-106340816D01*
X146099364Y-106363481D01*
X146085521Y-106381167D01*
X146069971Y-106396073D01*
X146052615Y-106410396D01*
X146038024Y-106422352D01*
X145983644Y-106463136D01*
X145934252Y-106492395D01*
X145925870Y-106496012D01*
X145867247Y-106510346D01*
X145784887Y-106521426D01*
X145697356Y-106527640D01*
X145623218Y-106527375D01*
X145597971Y-106524497D01*
X145466313Y-106485954D01*
X145368255Y-106423504D01*
X145300671Y-106334294D01*
X145260702Y-106216757D01*
X145257243Y-106184609D01*
X145254148Y-106122644D01*
X145251411Y-106029868D01*
X145249027Y-105905287D01*
X145246991Y-105747908D01*
X145245297Y-105556738D01*
X145243941Y-105330783D01*
X145242916Y-105069049D01*
X145242218Y-104770542D01*
X145241842Y-104434270D01*
X145241781Y-104059239D01*
X145242031Y-103644454D01*
X145242587Y-103188923D01*
X145243061Y-102897609D01*
X145243847Y-102465521D01*
X145244623Y-102073755D01*
X145245415Y-101720297D01*
X145246248Y-101403134D01*
X145247148Y-101120253D01*
X145248142Y-100869643D01*
X145249255Y-100649290D01*
X145250512Y-100457181D01*
X145251941Y-100291305D01*
X145253565Y-100149648D01*
X145255411Y-100030197D01*
X145257506Y-99930941D01*
X145259874Y-99849865D01*
X145262542Y-99784959D01*
X145265535Y-99734208D01*
X145268879Y-99695601D01*
X145272600Y-99667124D01*
X145276723Y-99646765D01*
X145281276Y-99632512D01*
X145285003Y-99624588D01*
X145361044Y-99527630D01*
X145464557Y-99459239D01*
X145590600Y-99420752D01*
X145734231Y-99413507D01*
X145890508Y-99438840D01*
X145929950Y-99450102D01*
X146014238Y-99496342D01*
X146088531Y-99574584D01*
X146144726Y-99674536D01*
X146169458Y-99754297D01*
X146194476Y-99874807D01*
X146350815Y-99715397D01*
X146477974Y-99592953D01*
X146591061Y-99500901D01*
X146698075Y-99433506D01*
X146807012Y-99385036D01*
X146816264Y-99381729D01*
X146965733Y-99346386D01*
X147099262Y-99348615D01*
G36*
X167876131Y-98260310D02*
G01*
X167981764Y-98287823D01*
X168062470Y-98338015D01*
X168125519Y-98414565D01*
X168151123Y-98460700D01*
X168169061Y-98498367D01*
X168182403Y-98533809D01*
X168191827Y-98573890D01*
X168198013Y-98625472D01*
X168201640Y-98695418D01*
X168203387Y-98790588D01*
X168203935Y-98917847D01*
X168203971Y-98994485D01*
X168203971Y-99422216D01*
X168495013Y-99429537D01*
X168617943Y-99433523D01*
X168706877Y-99439060D01*
X168770153Y-99447291D01*
X168816105Y-99459354D01*
X168853071Y-99476391D01*
X168857925Y-99479192D01*
X168930177Y-99529659D01*
X168978338Y-99586548D01*
X169007286Y-99659917D01*
X169021897Y-99759823D01*
X169025414Y-99824667D01*
X169027126Y-99920917D01*
X169022683Y-99988911D01*
X169009974Y-100042529D01*
X168986890Y-100095653D01*
X168983080Y-100103124D01*
X168944956Y-100167354D01*
X168901741Y-100214706D01*
X168846374Y-100247897D01*
X168771794Y-100269643D01*
X168670940Y-100282660D01*
X168536751Y-100289663D01*
X168495013Y-100290847D01*
X168203971Y-100298168D01*
X168203971Y-103223951D01*
X168204007Y-103644441D01*
X168204054Y-104024695D01*
X168204021Y-104366808D01*
X168203816Y-104672876D01*
X168203348Y-104944996D01*
X168202526Y-105185263D01*
X168201258Y-105395775D01*
X168199454Y-105578628D01*
X168197021Y-105735917D01*
X168193869Y-105869739D01*
X168189905Y-105982189D01*
X168185040Y-106075366D01*
X168179181Y-106151363D01*
X168172238Y-106212279D01*
X168164118Y-106260208D01*
X168154730Y-106297248D01*
X168143984Y-106325494D01*
X168131788Y-106347043D01*
X168118050Y-106363991D01*
X168102680Y-106378434D01*
X168085585Y-106392468D01*
X168066675Y-106408190D01*
X168065193Y-106409485D01*
X168000126Y-106455274D01*
X167928896Y-106489707D01*
X167913508Y-106494669D01*
X167809277Y-106512044D01*
X167690875Y-106514293D01*
X167578768Y-106501854D01*
X167519339Y-106486234D01*
X167406670Y-106424211D01*
X167318110Y-106329166D01*
X167297085Y-106294859D01*
X167292175Y-106283453D01*
X167287730Y-106266521D01*
X167283721Y-106241981D01*
X167280121Y-106207749D01*
X167276901Y-106161740D01*
X167274033Y-106101871D01*
X167271491Y-106026059D01*
X167269245Y-105932220D01*
X167267267Y-105818271D01*
X167265531Y-105682127D01*
X167264007Y-105521705D01*
X167262668Y-105334922D01*
X167261486Y-105119694D01*
X167260434Y-104873937D01*
X167259482Y-104595567D01*
X167258603Y-104282502D01*
X167257769Y-103932657D01*
X167256952Y-103543949D01*
X167256404Y-103262734D01*
X167250754Y-100294109D01*
X167161154Y-100293990D01*
X167018982Y-100276577D01*
X166902362Y-100226504D01*
X166813484Y-100146416D01*
X166754537Y-100038956D01*
X166727709Y-99906769D01*
X166731951Y-99775695D01*
X166763622Y-99648477D01*
X166823903Y-99551381D01*
X166914181Y-99483193D01*
X167035842Y-99442698D01*
X167125040Y-99431148D01*
X167270349Y-99420751D01*
X167276785Y-98973721D01*
X167280036Y-98803147D01*
X167285345Y-98669209D01*
X167294287Y-98566217D01*
X167308435Y-98488475D01*
X167329364Y-98430291D01*
X167358649Y-98385973D01*
X167397864Y-98349826D01*
X167448582Y-98316158D01*
X167460600Y-98309012D01*
X167515530Y-98279844D01*
X167567076Y-98262552D01*
X167629529Y-98254190D01*
X167717181Y-98251815D01*
X167738305Y-98251798D01*
X167876131Y-98260310D01*
G37*
X167876131Y-98260310D02*
X167981764Y-98287823D01*
X168062470Y-98338015D01*
X168125519Y-98414565D01*
X168151123Y-98460700D01*
X168169061Y-98498367D01*
X168182403Y-98533809D01*
X168191827Y-98573890D01*
X168198013Y-98625472D01*
X168201640Y-98695418D01*
X168203387Y-98790588D01*
X168203935Y-98917847D01*
X168203971Y-98994485D01*
X168203971Y-99422216D01*
X168495013Y-99429537D01*
X168617943Y-99433523D01*
X168706877Y-99439060D01*
X168770153Y-99447291D01*
X168816105Y-99459354D01*
X168853071Y-99476391D01*
X168857925Y-99479192D01*
X168930177Y-99529659D01*
X168978338Y-99586548D01*
X169007286Y-99659917D01*
X169021897Y-99759823D01*
X169025414Y-99824667D01*
X169027126Y-99920917D01*
X169022683Y-99988911D01*
X169009974Y-100042529D01*
X168986890Y-100095653D01*
X168983080Y-100103124D01*
X168944956Y-100167354D01*
X168901741Y-100214706D01*
X168846374Y-100247897D01*
X168771794Y-100269643D01*
X168670940Y-100282660D01*
X168536751Y-100289663D01*
X168495013Y-100290847D01*
X168203971Y-100298168D01*
X168203971Y-103223951D01*
X168204007Y-103644441D01*
X168204054Y-104024695D01*
X168204021Y-104366808D01*
X168203816Y-104672876D01*
X168203348Y-104944996D01*
X168202526Y-105185263D01*
X168201258Y-105395775D01*
X168199454Y-105578628D01*
X168197021Y-105735917D01*
X168193869Y-105869739D01*
X168189905Y-105982189D01*
X168185040Y-106075366D01*
X168179181Y-106151363D01*
X168172238Y-106212279D01*
X168164118Y-106260208D01*
X168154730Y-106297248D01*
X168143984Y-106325494D01*
X168131788Y-106347043D01*
X168118050Y-106363991D01*
X168102680Y-106378434D01*
X168085585Y-106392468D01*
X168066675Y-106408190D01*
X168065193Y-106409485D01*
X168000126Y-106455274D01*
X167928896Y-106489707D01*
X167913508Y-106494669D01*
X167809277Y-106512044D01*
X167690875Y-106514293D01*
X167578768Y-106501854D01*
X167519339Y-106486234D01*
X167406670Y-106424211D01*
X167318110Y-106329166D01*
X167297085Y-106294859D01*
X167292175Y-106283453D01*
X167287730Y-106266521D01*
X167283721Y-106241981D01*
X167280121Y-106207749D01*
X167276901Y-106161740D01*
X167274033Y-106101871D01*
X167271491Y-106026059D01*
X167269245Y-105932220D01*
X167267267Y-105818271D01*
X167265531Y-105682127D01*
X167264007Y-105521705D01*
X167262668Y-105334922D01*
X167261486Y-105119694D01*
X167260434Y-104873937D01*
X167259482Y-104595567D01*
X167258603Y-104282502D01*
X167257769Y-103932657D01*
X167256952Y-103543949D01*
X167256404Y-103262734D01*
X167250754Y-100294109D01*
X167161154Y-100293990D01*
X167018982Y-100276577D01*
X166902362Y-100226504D01*
X166813484Y-100146416D01*
X166754537Y-100038956D01*
X166727709Y-99906769D01*
X166731951Y-99775695D01*
X166763622Y-99648477D01*
X166823903Y-99551381D01*
X166914181Y-99483193D01*
X167035842Y-99442698D01*
X167125040Y-99431148D01*
X167270349Y-99420751D01*
X167276785Y-98973721D01*
X167280036Y-98803147D01*
X167285345Y-98669209D01*
X167294287Y-98566217D01*
X167308435Y-98488475D01*
X167329364Y-98430291D01*
X167358649Y-98385973D01*
X167397864Y-98349826D01*
X167448582Y-98316158D01*
X167460600Y-98309012D01*
X167515530Y-98279844D01*
X167567076Y-98262552D01*
X167629529Y-98254190D01*
X167717181Y-98251815D01*
X167738305Y-98251798D01*
X167876131Y-98260310D01*
G36*
X155875098Y-99410868D02*
G01*
X155973249Y-99429492D01*
X156049471Y-99463996D01*
X156112153Y-99516027D01*
X156128520Y-99532124D01*
X156143356Y-99546207D01*
X156156741Y-99560319D01*
X156168754Y-99576506D01*
X156179471Y-99596813D01*
X156188972Y-99623284D01*
X156197335Y-99657964D01*
X156204638Y-99702898D01*
X156210960Y-99760132D01*
X156216379Y-99831709D01*
X156220972Y-99919676D01*
X156224819Y-100026076D01*
X156227998Y-100152955D01*
X156230587Y-100302357D01*
X156232664Y-100476329D01*
X156234307Y-100676913D01*
X156235596Y-100906156D01*
X156236607Y-101166102D01*
X156237420Y-101458796D01*
X156238113Y-101786283D01*
X156238765Y-102150608D01*
X156239452Y-102553816D01*
X156239986Y-102854509D01*
X156240626Y-103278565D01*
X156240952Y-103680041D01*
X156240974Y-104057306D01*
X156240698Y-104408729D01*
X156240131Y-104732678D01*
X156239280Y-105027522D01*
X156238152Y-105291630D01*
X156236755Y-105523371D01*
X156235095Y-105721112D01*
X156233180Y-105883223D01*
X156231017Y-106008072D01*
X156228612Y-106094028D01*
X156225973Y-106139459D01*
X156225673Y-106141880D01*
X156192019Y-106278370D01*
X156132584Y-106382628D01*
X156045882Y-106457093D01*
X156026752Y-106467788D01*
X155953112Y-106492164D01*
X155853786Y-106506917D01*
X155744456Y-106511421D01*
X155640801Y-106505048D01*
X155558504Y-106487171D01*
X155556888Y-106486583D01*
X155450847Y-106425895D01*
X155370141Y-106334304D01*
X155320127Y-106218231D01*
X155315126Y-106196836D01*
X155311646Y-106165380D01*
X155308531Y-106105631D01*
X155305774Y-106016492D01*
X155303370Y-105896866D01*
X155301312Y-105745653D01*
X155299596Y-105561758D01*
X155298214Y-105344081D01*
X155297161Y-105091527D01*
X155296431Y-104802996D01*
X155296018Y-104477392D01*
X155295916Y-104113617D01*
X155296119Y-103710573D01*
X155296622Y-103267162D01*
X155297228Y-102887025D01*
X155302888Y-99690859D01*
X155355805Y-99597095D01*
X155427020Y-99504968D01*
X155521139Y-99443785D01*
X155642153Y-99411580D01*
X155745425Y-99405227D01*
X155875098Y-99410868D01*
G37*
X155875098Y-99410868D02*
X155973249Y-99429492D01*
X156049471Y-99463996D01*
X156112153Y-99516027D01*
X156128520Y-99532124D01*
X156143356Y-99546207D01*
X156156741Y-99560319D01*
X156168754Y-99576506D01*
X156179471Y-99596813D01*
X156188972Y-99623284D01*
X156197335Y-99657964D01*
X156204638Y-99702898D01*
X156210960Y-99760132D01*
X156216379Y-99831709D01*
X156220972Y-99919676D01*
X156224819Y-100026076D01*
X156227998Y-100152955D01*
X156230587Y-100302357D01*
X156232664Y-100476329D01*
X156234307Y-100676913D01*
X156235596Y-100906156D01*
X156236607Y-101166102D01*
X156237420Y-101458796D01*
X156238113Y-101786283D01*
X156238765Y-102150608D01*
X156239452Y-102553816D01*
X156239986Y-102854509D01*
X156240626Y-103278565D01*
X156240952Y-103680041D01*
X156240974Y-104057306D01*
X156240698Y-104408729D01*
X156240131Y-104732678D01*
X156239280Y-105027522D01*
X156238152Y-105291630D01*
X156236755Y-105523371D01*
X156235095Y-105721112D01*
X156233180Y-105883223D01*
X156231017Y-106008072D01*
X156228612Y-106094028D01*
X156225973Y-106139459D01*
X156225673Y-106141880D01*
X156192019Y-106278370D01*
X156132584Y-106382628D01*
X156045882Y-106457093D01*
X156026752Y-106467788D01*
X155953112Y-106492164D01*
X155853786Y-106506917D01*
X155744456Y-106511421D01*
X155640801Y-106505048D01*
X155558504Y-106487171D01*
X155556888Y-106486583D01*
X155450847Y-106425895D01*
X155370141Y-106334304D01*
X155320127Y-106218231D01*
X155315126Y-106196836D01*
X155311646Y-106165380D01*
X155308531Y-106105631D01*
X155305774Y-106016492D01*
X155303370Y-105896866D01*
X155301312Y-105745653D01*
X155299596Y-105561758D01*
X155298214Y-105344081D01*
X155297161Y-105091527D01*
X155296431Y-104802996D01*
X155296018Y-104477392D01*
X155295916Y-104113617D01*
X155296119Y-103710573D01*
X155296622Y-103267162D01*
X155297228Y-102887025D01*
X155302888Y-99690859D01*
X155355805Y-99597095D01*
X155427020Y-99504968D01*
X155521139Y-99443785D01*
X155642153Y-99411580D01*
X155745425Y-99405227D01*
X155875098Y-99410868D01*
G36*
X157673583Y-102201862D02*
G01*
X157673697Y-101884575D01*
X157673939Y-101604542D01*
X157674352Y-101359222D01*
X157674977Y-101146076D01*
X157675858Y-100962563D01*
X157677036Y-100806144D01*
X157678555Y-100674279D01*
X157680456Y-100564428D01*
X157682783Y-100474050D01*
X157685577Y-100400607D01*
X157688881Y-100341558D01*
X157692738Y-100294363D01*
X157697190Y-100256482D01*
X157702279Y-100225375D01*
X157708048Y-100198502D01*
X157713356Y-100177692D01*
X157788303Y-99963062D01*
X157889633Y-99780545D01*
X158018145Y-99629553D01*
X158174639Y-99509498D01*
X158359912Y-99419791D01*
X158574766Y-99359843D01*
X158819997Y-99329067D01*
X158869471Y-99326495D01*
X158994548Y-99322744D01*
X159091819Y-99324119D01*
X159175615Y-99331707D01*
X159260270Y-99346597D01*
X159323698Y-99360983D01*
X159560466Y-99435763D01*
X159787653Y-99545584D01*
X159977336Y-99667936D01*
X160139471Y-99784263D01*
X160139471Y-99726171D01*
X160157918Y-99633685D01*
X160207276Y-99541119D01*
X160278575Y-99462582D01*
X160329479Y-99427334D01*
X160388762Y-99399369D01*
X160449006Y-99383442D01*
X160525596Y-99376544D01*
X160594555Y-99375475D01*
X160739984Y-99386988D01*
X160853453Y-99422770D01*
X160938920Y-99484681D01*
X160994949Y-99563859D01*
X161039055Y-99648525D01*
X161044888Y-103299775D01*
X161045621Y-103786851D01*
X161046174Y-104233491D01*
X161046518Y-104641593D01*
X161046622Y-105013054D01*
X161046455Y-105349772D01*
X161045987Y-105653645D01*
X161045186Y-105926568D01*
X161044023Y-106170441D01*
X161042466Y-106387161D01*
X161040484Y-106578625D01*
X161038048Y-106746730D01*
X161035126Y-106893374D01*
X161031688Y-107020455D01*
X161027703Y-107129869D01*
X161023140Y-107223515D01*
X161017969Y-107303290D01*
X161012158Y-107371091D01*
X161005679Y-107428815D01*
X160998498Y-107478361D01*
X160990587Y-107521626D01*
X160981914Y-107560506D01*
X160975596Y-107585294D01*
X160904915Y-107780148D01*
X160802699Y-107961520D01*
X160674567Y-108122074D01*
X160526140Y-108254478D01*
X160403904Y-108331407D01*
X160315379Y-108375829D01*
X160233593Y-108411394D01*
X160152203Y-108439138D01*
X160064863Y-108460092D01*
X159965229Y-108475290D01*
X159846958Y-108485768D01*
X159703704Y-108492557D01*
X159529124Y-108496691D01*
X159377471Y-108498635D01*
X159175406Y-108499916D01*
X159011209Y-108499167D01*
X158880459Y-108496249D01*
X158778733Y-108491024D01*
X158701608Y-108483353D01*
X158657805Y-108476025D01*
X158447903Y-108419714D01*
X158270045Y-108342974D01*
X158117480Y-108242332D01*
X158008658Y-108141802D01*
X157893989Y-107998135D01*
X157806384Y-107836079D01*
X157743747Y-107650169D01*
X157703978Y-107434941D01*
X157692256Y-107317808D01*
X157685354Y-107173095D01*
X157690892Y-107061065D01*
X157710464Y-106973482D01*
X157745665Y-106902109D01*
X157781641Y-106856068D01*
X157869527Y-106787819D01*
X157979645Y-106745376D01*
X158101958Y-106728384D01*
X158226429Y-106736489D01*
X158343019Y-106769334D01*
X158441691Y-106826567D01*
X158494975Y-106881285D01*
X158518153Y-106923893D01*
X158534861Y-106985140D01*
X158547151Y-107074228D01*
X158553003Y-107141483D01*
X158569688Y-107286765D01*
X158597440Y-107397924D01*
X158640214Y-107482567D01*
X158701967Y-107548304D01*
X158786655Y-107602743D01*
X158795118Y-107607134D01*
X158919395Y-107670692D01*
X159344225Y-107670692D01*
X159489858Y-107670437D01*
X159600012Y-107669243D01*
X159681541Y-107666463D01*
X159741298Y-107661454D01*
X159786136Y-107653569D01*
X159822909Y-107642165D01*
X159858470Y-107626594D01*
X159869448Y-107621250D01*
X159937669Y-107579635D01*
X159995969Y-107530601D01*
X160014856Y-107508592D01*
X160038284Y-107473924D01*
X160057888Y-107438774D01*
X160074007Y-107399186D01*
X160086981Y-107351206D01*
X160097150Y-107290879D01*
X160104852Y-107214251D01*
X160110428Y-107117367D01*
X160114217Y-106996271D01*
X160116558Y-106847010D01*
X160117790Y-106665628D01*
X160118254Y-106448171D01*
X160118305Y-106303381D01*
X160118305Y-105355548D01*
X159917765Y-105489627D01*
X159677167Y-105632049D01*
X159440714Y-105733734D01*
X159204675Y-105795537D01*
X158965322Y-105818317D01*
X158718926Y-105802929D01*
X158622625Y-105787243D01*
X158403944Y-105726347D01*
X158210488Y-105631733D01*
X158043492Y-105504564D01*
X157904194Y-105346003D01*
X157793830Y-105157215D01*
X157713637Y-104939362D01*
X157710951Y-104929609D01*
X157704958Y-104905328D01*
X157699638Y-104877479D01*
X157694951Y-104843541D01*
X157690857Y-104800997D01*
X157687317Y-104747325D01*
X157684291Y-104680006D01*
X157681740Y-104596522D01*
X157680967Y-104559192D01*
X158583721Y-104559192D01*
X158647221Y-104686192D01*
X158688555Y-104761033D01*
X158729519Y-104810528D01*
X158784069Y-104849164D01*
X158825642Y-104871400D01*
X158960768Y-104917720D01*
X159117553Y-104933273D01*
X159288592Y-104918076D01*
X159466483Y-104872145D01*
X159472721Y-104869989D01*
X159649730Y-104794873D01*
X159826918Y-104691560D01*
X160012945Y-104554984D01*
X160017684Y-104551180D01*
X160139313Y-104453359D01*
X160139471Y-100718531D01*
X159969975Y-100574194D01*
X159769357Y-100418171D01*
X159579103Y-100301202D01*
X159396680Y-100222022D01*
X159219555Y-100179363D01*
X159168772Y-100173639D01*
X159007946Y-100176111D01*
X158868545Y-100210923D01*
X158753727Y-100276292D01*
X158666647Y-100370433D01*
X158611318Y-100488701D01*
X158606459Y-100512811D01*
X158602166Y-100552617D01*
X158598410Y-100610391D01*
X158595160Y-100688407D01*
X158592387Y-100788938D01*
X158590060Y-100914258D01*
X158588148Y-101066641D01*
X158586623Y-101248360D01*
X158585454Y-101461688D01*
X158584610Y-101708900D01*
X158584061Y-101992268D01*
X158583778Y-102314067D01*
X158583721Y-102569525D01*
X158583721Y-104559192D01*
X157680967Y-104559192D01*
X157679623Y-104494352D01*
X157677900Y-104370977D01*
X157676533Y-104223877D01*
X157675481Y-104050534D01*
X157674705Y-103848427D01*
X157674164Y-103615036D01*
X157673819Y-103347843D01*
X157673631Y-103044329D01*
X157673559Y-102701972D01*
X157673556Y-102569525D01*
X157673555Y-102558942D01*
X157673583Y-102201862D01*
G37*
X157673583Y-102201862D02*
X157673697Y-101884575D01*
X157673939Y-101604542D01*
X157674352Y-101359222D01*
X157674977Y-101146076D01*
X157675858Y-100962563D01*
X157677036Y-100806144D01*
X157678555Y-100674279D01*
X157680456Y-100564428D01*
X157682783Y-100474050D01*
X157685577Y-100400607D01*
X157688881Y-100341558D01*
X157692738Y-100294363D01*
X157697190Y-100256482D01*
X157702279Y-100225375D01*
X157708048Y-100198502D01*
X157713356Y-100177692D01*
X157788303Y-99963062D01*
X157889633Y-99780545D01*
X158018145Y-99629553D01*
X158174639Y-99509498D01*
X158359912Y-99419791D01*
X158574766Y-99359843D01*
X158819997Y-99329067D01*
X158869471Y-99326495D01*
X158994548Y-99322744D01*
X159091819Y-99324119D01*
X159175615Y-99331707D01*
X159260270Y-99346597D01*
X159323698Y-99360983D01*
X159560466Y-99435763D01*
X159787653Y-99545584D01*
X159977336Y-99667936D01*
X160139471Y-99784263D01*
X160139471Y-99726171D01*
X160157918Y-99633685D01*
X160207276Y-99541119D01*
X160278575Y-99462582D01*
X160329479Y-99427334D01*
X160388762Y-99399369D01*
X160449006Y-99383442D01*
X160525596Y-99376544D01*
X160594555Y-99375475D01*
X160739984Y-99386988D01*
X160853453Y-99422770D01*
X160938920Y-99484681D01*
X160994949Y-99563859D01*
X161039055Y-99648525D01*
X161044888Y-103299775D01*
X161045621Y-103786851D01*
X161046174Y-104233491D01*
X161046518Y-104641593D01*
X161046622Y-105013054D01*
X161046455Y-105349772D01*
X161045987Y-105653645D01*
X161045186Y-105926568D01*
X161044023Y-106170441D01*
X161042466Y-106387161D01*
X161040484Y-106578625D01*
X161038048Y-106746730D01*
X161035126Y-106893374D01*
X161031688Y-107020455D01*
X161027703Y-107129869D01*
X161023140Y-107223515D01*
X161017969Y-107303290D01*
X161012158Y-107371091D01*
X161005679Y-107428815D01*
X160998498Y-107478361D01*
X160990587Y-107521626D01*
X160981914Y-107560506D01*
X160975596Y-107585294D01*
X160904915Y-107780148D01*
X160802699Y-107961520D01*
X160674567Y-108122074D01*
X160526140Y-108254478D01*
X160403904Y-108331407D01*
X160315379Y-108375829D01*
X160233593Y-108411394D01*
X160152203Y-108439138D01*
X160064863Y-108460092D01*
X159965229Y-108475290D01*
X159846958Y-108485768D01*
X159703704Y-108492557D01*
X159529124Y-108496691D01*
X159377471Y-108498635D01*
X159175406Y-108499916D01*
X159011209Y-108499167D01*
X158880459Y-108496249D01*
X158778733Y-108491024D01*
X158701608Y-108483353D01*
X158657805Y-108476025D01*
X158447903Y-108419714D01*
X158270045Y-108342974D01*
X158117480Y-108242332D01*
X158008658Y-108141802D01*
X157893989Y-107998135D01*
X157806384Y-107836079D01*
X157743747Y-107650169D01*
X157703978Y-107434941D01*
X157692256Y-107317808D01*
X157685354Y-107173095D01*
X157690892Y-107061065D01*
X157710464Y-106973482D01*
X157745665Y-106902109D01*
X157781641Y-106856068D01*
X157869527Y-106787819D01*
X157979645Y-106745376D01*
X158101958Y-106728384D01*
X158226429Y-106736489D01*
X158343019Y-106769334D01*
X158441691Y-106826567D01*
X158494975Y-106881285D01*
X158518153Y-106923893D01*
X158534861Y-106985140D01*
X158547151Y-107074228D01*
X158553003Y-107141483D01*
X158569688Y-107286765D01*
X158597440Y-107397924D01*
X158640214Y-107482567D01*
X158701967Y-107548304D01*
X158786655Y-107602743D01*
X158795118Y-107607134D01*
X158919395Y-107670692D01*
X159344225Y-107670692D01*
X159489858Y-107670437D01*
X159600012Y-107669243D01*
X159681541Y-107666463D01*
X159741298Y-107661454D01*
X159786136Y-107653569D01*
X159822909Y-107642165D01*
X159858470Y-107626594D01*
X159869448Y-107621250D01*
X159937669Y-107579635D01*
X159995969Y-107530601D01*
X160014856Y-107508592D01*
X160038284Y-107473924D01*
X160057888Y-107438774D01*
X160074007Y-107399186D01*
X160086981Y-107351206D01*
X160097150Y-107290879D01*
X160104852Y-107214251D01*
X160110428Y-107117367D01*
X160114217Y-106996271D01*
X160116558Y-106847010D01*
X160117790Y-106665628D01*
X160118254Y-106448171D01*
X160118305Y-106303381D01*
X160118305Y-105355548D01*
X159917765Y-105489627D01*
X159677167Y-105632049D01*
X159440714Y-105733734D01*
X159204675Y-105795537D01*
X158965322Y-105818317D01*
X158718926Y-105802929D01*
X158622625Y-105787243D01*
X158403944Y-105726347D01*
X158210488Y-105631733D01*
X158043492Y-105504564D01*
X157904194Y-105346003D01*
X157793830Y-105157215D01*
X157713637Y-104939362D01*
X157710951Y-104929609D01*
X157704958Y-104905328D01*
X157699638Y-104877479D01*
X157694951Y-104843541D01*
X157690857Y-104800997D01*
X157687317Y-104747325D01*
X157684291Y-104680006D01*
X157681740Y-104596522D01*
X157680967Y-104559192D01*
X158583721Y-104559192D01*
X158647221Y-104686192D01*
X158688555Y-104761033D01*
X158729519Y-104810528D01*
X158784069Y-104849164D01*
X158825642Y-104871400D01*
X158960768Y-104917720D01*
X159117553Y-104933273D01*
X159288592Y-104918076D01*
X159466483Y-104872145D01*
X159472721Y-104869989D01*
X159649730Y-104794873D01*
X159826918Y-104691560D01*
X160012945Y-104554984D01*
X160017684Y-104551180D01*
X160139313Y-104453359D01*
X160139471Y-100718531D01*
X159969975Y-100574194D01*
X159769357Y-100418171D01*
X159579103Y-100301202D01*
X159396680Y-100222022D01*
X159219555Y-100179363D01*
X159168772Y-100173639D01*
X159007946Y-100176111D01*
X158868545Y-100210923D01*
X158753727Y-100276292D01*
X158666647Y-100370433D01*
X158611318Y-100488701D01*
X158606459Y-100512811D01*
X158602166Y-100552617D01*
X158598410Y-100610391D01*
X158595160Y-100688407D01*
X158592387Y-100788938D01*
X158590060Y-100914258D01*
X158588148Y-101066641D01*
X158586623Y-101248360D01*
X158585454Y-101461688D01*
X158584610Y-101708900D01*
X158584061Y-101992268D01*
X158583778Y-102314067D01*
X158583721Y-102569525D01*
X158583721Y-104559192D01*
X157680967Y-104559192D01*
X157679623Y-104494352D01*
X157677900Y-104370977D01*
X157676533Y-104223877D01*
X157675481Y-104050534D01*
X157674705Y-103848427D01*
X157674164Y-103615036D01*
X157673819Y-103347843D01*
X157673631Y-103044329D01*
X157673559Y-102701972D01*
X157673556Y-102569525D01*
X157673555Y-102558942D01*
X157673583Y-102201862D01*
G36*
X148134415Y-100399942D02*
G01*
X148215157Y-100162030D01*
X148323442Y-99956100D01*
X148460255Y-99781167D01*
X148626581Y-99636247D01*
X148823406Y-99520355D01*
X149051713Y-99432507D01*
X149122221Y-99412589D01*
X149212021Y-99396157D01*
X149334996Y-99383707D01*
X149482175Y-99375244D01*
X149644586Y-99370771D01*
X149813259Y-99370292D01*
X149979223Y-99373812D01*
X150133507Y-99381335D01*
X150267138Y-99392864D01*
X150371147Y-99408403D01*
X150387710Y-99412018D01*
X150618556Y-99486091D01*
X150824889Y-99593315D01*
X151004517Y-99731744D01*
X151155251Y-99899429D01*
X151274897Y-100094424D01*
X151344599Y-100262359D01*
X151364589Y-100324822D01*
X151381608Y-100387781D01*
X151395891Y-100455105D01*
X151407671Y-100530665D01*
X151417183Y-100618332D01*
X151424660Y-100721974D01*
X151430336Y-100845464D01*
X151434445Y-100992670D01*
X151437220Y-101167462D01*
X151438897Y-101373712D01*
X151439708Y-101615290D01*
X151439891Y-101839415D01*
X151439514Y-102079843D01*
X151438384Y-102300376D01*
X151436558Y-102497767D01*
X151434092Y-102668768D01*
X151431042Y-102810130D01*
X151427465Y-102918605D01*
X151423417Y-102990945D01*
X151419382Y-103022596D01*
X151363475Y-103144556D01*
X151274286Y-103241055D01*
X151197690Y-103289553D01*
X151092993Y-103342109D01*
X149003037Y-103342109D01*
X149009713Y-104278734D01*
X149016388Y-105215359D01*
X149071450Y-105331775D01*
X149146298Y-105458215D01*
X149238350Y-105551659D01*
X149344471Y-105615343D01*
X149386143Y-105632706D01*
X149430145Y-105644926D01*
X149484774Y-105652878D01*
X149558329Y-105657433D01*
X149659108Y-105659464D01*
X149767805Y-105659859D01*
X149919757Y-105658334D01*
X150037159Y-105652560D01*
X150127722Y-105640738D01*
X150199156Y-105621065D01*
X150259174Y-105591743D01*
X150315487Y-105550972D01*
X150345462Y-105525012D01*
X150397323Y-105474973D01*
X150437744Y-105425398D01*
X150468333Y-105370065D01*
X150490699Y-105302751D01*
X150506449Y-105217232D01*
X150517193Y-105107287D01*
X150524539Y-104966692D01*
X150529456Y-104813192D01*
X150534990Y-104642514D01*
X150542249Y-104508403D01*
X150552768Y-104405091D01*
X150568081Y-104326812D01*
X150589720Y-104267799D01*
X150619221Y-104222286D01*
X150658117Y-104184505D01*
X150705828Y-104150085D01*
X150764263Y-104117594D01*
X150827699Y-104098373D01*
X150912101Y-104088191D01*
X150947237Y-104086095D01*
X151103802Y-104092407D01*
X151230653Y-104128763D01*
X151328049Y-104195310D01*
X151396247Y-104292194D01*
X151420591Y-104355724D01*
X151429745Y-104410929D01*
X151435432Y-104504527D01*
X151437678Y-104637610D01*
X151436512Y-104811270D01*
X151434727Y-104910395D01*
X151430670Y-105075936D01*
X151425858Y-105206466D01*
X151419666Y-105309309D01*
X151411469Y-105391786D01*
X151400640Y-105461221D01*
X151386556Y-105524936D01*
X151380128Y-105549511D01*
X151297428Y-105782880D01*
X151184114Y-105987397D01*
X151041223Y-106162078D01*
X150869790Y-106305942D01*
X150670850Y-106418005D01*
X150445440Y-106497285D01*
X150360176Y-106517169D01*
X150253895Y-106534215D01*
X150118556Y-106549031D01*
X149967340Y-106560828D01*
X149813427Y-106568815D01*
X149669999Y-106572203D01*
X149550236Y-106570203D01*
X149513805Y-106567877D01*
X149230935Y-106530095D01*
X148980992Y-106465992D01*
X148763209Y-106374877D01*
X148576822Y-106256059D01*
X148421065Y-106108848D01*
X148295172Y-105932553D01*
X148198377Y-105726484D01*
X148129915Y-105489951D01*
X148096368Y-105289442D01*
X148092045Y-105239556D01*
X148088295Y-105164084D01*
X148085107Y-105061445D01*
X148082470Y-104930057D01*
X148080373Y-104768335D01*
X148078804Y-104574699D01*
X148077753Y-104347565D01*
X148077209Y-104085351D01*
X148077161Y-103786474D01*
X148077597Y-103449352D01*
X148078507Y-103072403D01*
X148079250Y-102834109D01*
X148080524Y-102453109D01*
X149005805Y-102453109D01*
X150533462Y-102453109D01*
X150524684Y-101590567D01*
X150522109Y-101356267D01*
X150519165Y-101160187D01*
X150515251Y-100998212D01*
X150509764Y-100866229D01*
X150502100Y-100760124D01*
X150491658Y-100675785D01*
X150477833Y-100609097D01*
X150460023Y-100555947D01*
X150437626Y-100512221D01*
X150410038Y-100473805D01*
X150376656Y-100436587D01*
X150351867Y-100411391D01*
X150275303Y-100345592D01*
X150191772Y-100298203D01*
X150093088Y-100266810D01*
X149971062Y-100248994D01*
X149817508Y-100242340D01*
X149778388Y-100242134D01*
X149617922Y-100246684D01*
X149490286Y-100261869D01*
X149386803Y-100289987D01*
X149298798Y-100333335D01*
X149223452Y-100389150D01*
X149174765Y-100435720D01*
X149133733Y-100487725D01*
X149099733Y-100548998D01*
X149072140Y-100623368D01*
X149050328Y-100714669D01*
X149033675Y-100826729D01*
X149021555Y-100963382D01*
X149013343Y-101128457D01*
X149008416Y-101325787D01*
X149006149Y-101559203D01*
X149005805Y-101724390D01*
X149005805Y-102453109D01*
X148080524Y-102453109D01*
X148082961Y-101724390D01*
X148086789Y-100579859D01*
X148134415Y-100399942D01*
G37*
X148134415Y-100399942D02*
X148215157Y-100162030D01*
X148323442Y-99956100D01*
X148460255Y-99781167D01*
X148626581Y-99636247D01*
X148823406Y-99520355D01*
X149051713Y-99432507D01*
X149122221Y-99412589D01*
X149212021Y-99396157D01*
X149334996Y-99383707D01*
X149482175Y-99375244D01*
X149644586Y-99370771D01*
X149813259Y-99370292D01*
X149979223Y-99373812D01*
X150133507Y-99381335D01*
X150267138Y-99392864D01*
X150371147Y-99408403D01*
X150387710Y-99412018D01*
X150618556Y-99486091D01*
X150824889Y-99593315D01*
X151004517Y-99731744D01*
X151155251Y-99899429D01*
X151274897Y-100094424D01*
X151344599Y-100262359D01*
X151364589Y-100324822D01*
X151381608Y-100387781D01*
X151395891Y-100455105D01*
X151407671Y-100530665D01*
X151417183Y-100618332D01*
X151424660Y-100721974D01*
X151430336Y-100845464D01*
X151434445Y-100992670D01*
X151437220Y-101167462D01*
X151438897Y-101373712D01*
X151439708Y-101615290D01*
X151439891Y-101839415D01*
X151439514Y-102079843D01*
X151438384Y-102300376D01*
X151436558Y-102497767D01*
X151434092Y-102668768D01*
X151431042Y-102810130D01*
X151427465Y-102918605D01*
X151423417Y-102990945D01*
X151419382Y-103022596D01*
X151363475Y-103144556D01*
X151274286Y-103241055D01*
X151197690Y-103289553D01*
X151092993Y-103342109D01*
X149003037Y-103342109D01*
X149009713Y-104278734D01*
X149016388Y-105215359D01*
X149071450Y-105331775D01*
X149146298Y-105458215D01*
X149238350Y-105551659D01*
X149344471Y-105615343D01*
X149386143Y-105632706D01*
X149430145Y-105644926D01*
X149484774Y-105652878D01*
X149558329Y-105657433D01*
X149659108Y-105659464D01*
X149767805Y-105659859D01*
X149919757Y-105658334D01*
X150037159Y-105652560D01*
X150127722Y-105640738D01*
X150199156Y-105621065D01*
X150259174Y-105591743D01*
X150315487Y-105550972D01*
X150345462Y-105525012D01*
X150397323Y-105474973D01*
X150437744Y-105425398D01*
X150468333Y-105370065D01*
X150490699Y-105302751D01*
X150506449Y-105217232D01*
X150517193Y-105107287D01*
X150524539Y-104966692D01*
X150529456Y-104813192D01*
X150534990Y-104642514D01*
X150542249Y-104508403D01*
X150552768Y-104405091D01*
X150568081Y-104326812D01*
X150589720Y-104267799D01*
X150619221Y-104222286D01*
X150658117Y-104184505D01*
X150705828Y-104150085D01*
X150764263Y-104117594D01*
X150827699Y-104098373D01*
X150912101Y-104088191D01*
X150947237Y-104086095D01*
X151103802Y-104092407D01*
X151230653Y-104128763D01*
X151328049Y-104195310D01*
X151396247Y-104292194D01*
X151420591Y-104355724D01*
X151429745Y-104410929D01*
X151435432Y-104504527D01*
X151437678Y-104637610D01*
X151436512Y-104811270D01*
X151434727Y-104910395D01*
X151430670Y-105075936D01*
X151425858Y-105206466D01*
X151419666Y-105309309D01*
X151411469Y-105391786D01*
X151400640Y-105461221D01*
X151386556Y-105524936D01*
X151380128Y-105549511D01*
X151297428Y-105782880D01*
X151184114Y-105987397D01*
X151041223Y-106162078D01*
X150869790Y-106305942D01*
X150670850Y-106418005D01*
X150445440Y-106497285D01*
X150360176Y-106517169D01*
X150253895Y-106534215D01*
X150118556Y-106549031D01*
X149967340Y-106560828D01*
X149813427Y-106568815D01*
X149669999Y-106572203D01*
X149550236Y-106570203D01*
X149513805Y-106567877D01*
X149230935Y-106530095D01*
X148980992Y-106465992D01*
X148763209Y-106374877D01*
X148576822Y-106256059D01*
X148421065Y-106108848D01*
X148295172Y-105932553D01*
X148198377Y-105726484D01*
X148129915Y-105489951D01*
X148096368Y-105289442D01*
X148092045Y-105239556D01*
X148088295Y-105164084D01*
X148085107Y-105061445D01*
X148082470Y-104930057D01*
X148080373Y-104768335D01*
X148078804Y-104574699D01*
X148077753Y-104347565D01*
X148077209Y-104085351D01*
X148077161Y-103786474D01*
X148077597Y-103449352D01*
X148078507Y-103072403D01*
X148079250Y-102834109D01*
X148080524Y-102453109D01*
X149005805Y-102453109D01*
X150533462Y-102453109D01*
X150524684Y-101590567D01*
X150522109Y-101356267D01*
X150519165Y-101160187D01*
X150515251Y-100998212D01*
X150509764Y-100866229D01*
X150502100Y-100760124D01*
X150491658Y-100675785D01*
X150477833Y-100609097D01*
X150460023Y-100555947D01*
X150437626Y-100512221D01*
X150410038Y-100473805D01*
X150376656Y-100436587D01*
X150351867Y-100411391D01*
X150275303Y-100345592D01*
X150191772Y-100298203D01*
X150093088Y-100266810D01*
X149971062Y-100248994D01*
X149817508Y-100242340D01*
X149778388Y-100242134D01*
X149617922Y-100246684D01*
X149490286Y-100261869D01*
X149386803Y-100289987D01*
X149298798Y-100333335D01*
X149223452Y-100389150D01*
X149174765Y-100435720D01*
X149133733Y-100487725D01*
X149099733Y-100548998D01*
X149072140Y-100623368D01*
X149050328Y-100714669D01*
X149033675Y-100826729D01*
X149021555Y-100963382D01*
X149013343Y-101128457D01*
X149008416Y-101325787D01*
X149006149Y-101559203D01*
X149005805Y-101724390D01*
X149005805Y-102453109D01*
X148080524Y-102453109D01*
X148082961Y-101724390D01*
X148086789Y-100579859D01*
X148134415Y-100399942D01*
G36*
X140614955Y-100579859D02*
G01*
X140662582Y-100399942D01*
X140743497Y-100161245D01*
X140851327Y-99955131D01*
X140986265Y-99781347D01*
X141148503Y-99639645D01*
X141324500Y-99536221D01*
X141426073Y-99489339D01*
X141516582Y-99452351D01*
X141603137Y-99424102D01*
X141692851Y-99403438D01*
X141792832Y-99389205D01*
X141910194Y-99380247D01*
X142052045Y-99375410D01*
X142225499Y-99373541D01*
X142327721Y-99373359D01*
X142519942Y-99374167D01*
X142676952Y-99377360D01*
X142805854Y-99384088D01*
X142913752Y-99395501D01*
X143007751Y-99412750D01*
X143094955Y-99436985D01*
X143182466Y-99469358D01*
X143277389Y-99511019D01*
X143329778Y-99535657D01*
X143516887Y-99647483D01*
X143676097Y-99790851D01*
X143806837Y-99964973D01*
X143908535Y-100169057D01*
X143980620Y-100402315D01*
X143990626Y-100448415D01*
X143997156Y-100481543D01*
X144002967Y-100514856D01*
X144008092Y-100550862D01*
X144012566Y-100592072D01*
X144016424Y-100640993D01*
X144019701Y-100700134D01*
X144022432Y-100772004D01*
X144024651Y-100859113D01*
X144026393Y-100963968D01*
X144027694Y-101089079D01*
X144028586Y-101236955D01*
X144029107Y-101410104D01*
X144029289Y-101611035D01*
X144029169Y-101842258D01*
X144028780Y-102106280D01*
X144028158Y-102405611D01*
X144027337Y-102742760D01*
X144026560Y-103041332D01*
X144020266Y-105427025D01*
X143971591Y-105585429D01*
X143882669Y-105818501D01*
X143768844Y-106017742D01*
X143628679Y-106184438D01*
X143460736Y-106319875D01*
X143263577Y-106425337D01*
X143035764Y-106502110D01*
X142916006Y-106528973D01*
X142834487Y-106540591D01*
X142721711Y-106551132D01*
X142588753Y-106560100D01*
X142446684Y-106567000D01*
X142306578Y-106571336D01*
X142179509Y-106572613D01*
X142076549Y-106570335D01*
X142041971Y-106568098D01*
X141758759Y-106529778D01*
X141508723Y-106465495D01*
X141291030Y-106374501D01*
X141104849Y-106256045D01*
X140949348Y-106109376D01*
X140823695Y-105933743D01*
X140727057Y-105728397D01*
X140658603Y-105492585D01*
X140624535Y-105289442D01*
X140620212Y-105239556D01*
X140616462Y-105164084D01*
X140613274Y-105061445D01*
X140610637Y-104930057D01*
X140608539Y-104768335D01*
X140606971Y-104574699D01*
X140605920Y-104347565D01*
X140605376Y-104085351D01*
X140605327Y-103786474D01*
X140605764Y-103449352D01*
X140606674Y-103072403D01*
X140606988Y-102971692D01*
X141544555Y-102971692D01*
X141544588Y-103329917D01*
X141544714Y-103648274D01*
X141544972Y-103929227D01*
X141545403Y-104175240D01*
X141546045Y-104388780D01*
X141546937Y-104572310D01*
X141548120Y-104728295D01*
X141549633Y-104859200D01*
X141551515Y-104967490D01*
X141553806Y-105055629D01*
X141556545Y-105126082D01*
X141559773Y-105181314D01*
X141563527Y-105223790D01*
X141567848Y-105255975D01*
X141572776Y-105280332D01*
X141578350Y-105299328D01*
X141582011Y-105309155D01*
X141643872Y-105432601D01*
X141721963Y-105524529D01*
X141824971Y-105592840D01*
X141946721Y-105640833D01*
X142013687Y-105653927D01*
X142111861Y-105663033D01*
X142230307Y-105668161D01*
X142358090Y-105669321D01*
X142484274Y-105666522D01*
X142597923Y-105659775D01*
X142688101Y-105649087D01*
X142728578Y-105640145D01*
X142860327Y-105586653D01*
X142962293Y-105512174D01*
X143037659Y-105412351D01*
X143089607Y-105282824D01*
X143121319Y-105119235D01*
X143123705Y-105099009D01*
X143127178Y-105045219D01*
X143130232Y-104951037D01*
X143132856Y-104818402D01*
X143135038Y-104649254D01*
X143136765Y-104445532D01*
X143138026Y-104209174D01*
X143138808Y-103942122D01*
X143139101Y-103646313D01*
X143138891Y-103323687D01*
X143138168Y-102976184D01*
X143137698Y-102820105D01*
X143136576Y-102463620D01*
X143135568Y-102146943D01*
X143134491Y-101867546D01*
X143133164Y-101622905D01*
X143131405Y-101410494D01*
X143129034Y-101227787D01*
X143125869Y-101072260D01*
X143121727Y-100941385D01*
X143116429Y-100832638D01*
X143109793Y-100743493D01*
X143101636Y-100671425D01*
X143091779Y-100613908D01*
X143080039Y-100568416D01*
X143066234Y-100532424D01*
X143050185Y-100503405D01*
X143031709Y-100478836D01*
X143010625Y-100456190D01*
X142986751Y-100432941D01*
X142964701Y-100411391D01*
X142896603Y-100351121D01*
X142824688Y-100306364D01*
X142741392Y-100275068D01*
X142639150Y-100255180D01*
X142510400Y-100244647D01*
X142347576Y-100241417D01*
X142338305Y-100241410D01*
X142203917Y-100242598D01*
X142102572Y-100246743D01*
X142025027Y-100254716D01*
X141962044Y-100267389D01*
X141916882Y-100281167D01*
X141789320Y-100346896D01*
X141682089Y-100444708D01*
X141603785Y-100566011D01*
X141584420Y-100613519D01*
X141578068Y-100633210D01*
X141572427Y-100655329D01*
X141567456Y-100682372D01*
X141563112Y-100716833D01*
X141559354Y-100761209D01*
X141556139Y-100817996D01*
X141553425Y-100889688D01*
X141551170Y-100978782D01*
X141549331Y-101087774D01*
X141547867Y-101219158D01*
X141546734Y-101375431D01*
X141545892Y-101559089D01*
X141545298Y-101772627D01*
X141544909Y-102018540D01*
X141544684Y-102299325D01*
X141544580Y-102617476D01*
X141544555Y-102971692D01*
X140606988Y-102971692D01*
X140607417Y-102834109D01*
X140614955Y-100579859D01*
G37*
X140614955Y-100579859D02*
X140662582Y-100399942D01*
X140743497Y-100161245D01*
X140851327Y-99955131D01*
X140986265Y-99781347D01*
X141148503Y-99639645D01*
X141324500Y-99536221D01*
X141426073Y-99489339D01*
X141516582Y-99452351D01*
X141603137Y-99424102D01*
X141692851Y-99403438D01*
X141792832Y-99389205D01*
X141910194Y-99380247D01*
X142052045Y-99375410D01*
X142225499Y-99373541D01*
X142327721Y-99373359D01*
X142519942Y-99374167D01*
X142676952Y-99377360D01*
X142805854Y-99384088D01*
X142913752Y-99395501D01*
X143007751Y-99412750D01*
X143094955Y-99436985D01*
X143182466Y-99469358D01*
X143277389Y-99511019D01*
X143329778Y-99535657D01*
X143516887Y-99647483D01*
X143676097Y-99790851D01*
X143806837Y-99964973D01*
X143908535Y-100169057D01*
X143980620Y-100402315D01*
X143990626Y-100448415D01*
X143997156Y-100481543D01*
X144002967Y-100514856D01*
X144008092Y-100550862D01*
X144012566Y-100592072D01*
X144016424Y-100640993D01*
X144019701Y-100700134D01*
X144022432Y-100772004D01*
X144024651Y-100859113D01*
X144026393Y-100963968D01*
X144027694Y-101089079D01*
X144028586Y-101236955D01*
X144029107Y-101410104D01*
X144029289Y-101611035D01*
X144029169Y-101842258D01*
X144028780Y-102106280D01*
X144028158Y-102405611D01*
X144027337Y-102742760D01*
X144026560Y-103041332D01*
X144020266Y-105427025D01*
X143971591Y-105585429D01*
X143882669Y-105818501D01*
X143768844Y-106017742D01*
X143628679Y-106184438D01*
X143460736Y-106319875D01*
X143263577Y-106425337D01*
X143035764Y-106502110D01*
X142916006Y-106528973D01*
X142834487Y-106540591D01*
X142721711Y-106551132D01*
X142588753Y-106560100D01*
X142446684Y-106567000D01*
X142306578Y-106571336D01*
X142179509Y-106572613D01*
X142076549Y-106570335D01*
X142041971Y-106568098D01*
X141758759Y-106529778D01*
X141508723Y-106465495D01*
X141291030Y-106374501D01*
X141104849Y-106256045D01*
X140949348Y-106109376D01*
X140823695Y-105933743D01*
X140727057Y-105728397D01*
X140658603Y-105492585D01*
X140624535Y-105289442D01*
X140620212Y-105239556D01*
X140616462Y-105164084D01*
X140613274Y-105061445D01*
X140610637Y-104930057D01*
X140608539Y-104768335D01*
X140606971Y-104574699D01*
X140605920Y-104347565D01*
X140605376Y-104085351D01*
X140605327Y-103786474D01*
X140605764Y-103449352D01*
X140606674Y-103072403D01*
X140606988Y-102971692D01*
X141544555Y-102971692D01*
X141544588Y-103329917D01*
X141544714Y-103648274D01*
X141544972Y-103929227D01*
X141545403Y-104175240D01*
X141546045Y-104388780D01*
X141546937Y-104572310D01*
X141548120Y-104728295D01*
X141549633Y-104859200D01*
X141551515Y-104967490D01*
X141553806Y-105055629D01*
X141556545Y-105126082D01*
X141559773Y-105181314D01*
X141563527Y-105223790D01*
X141567848Y-105255975D01*
X141572776Y-105280332D01*
X141578350Y-105299328D01*
X141582011Y-105309155D01*
X141643872Y-105432601D01*
X141721963Y-105524529D01*
X141824971Y-105592840D01*
X141946721Y-105640833D01*
X142013687Y-105653927D01*
X142111861Y-105663033D01*
X142230307Y-105668161D01*
X142358090Y-105669321D01*
X142484274Y-105666522D01*
X142597923Y-105659775D01*
X142688101Y-105649087D01*
X142728578Y-105640145D01*
X142860327Y-105586653D01*
X142962293Y-105512174D01*
X143037659Y-105412351D01*
X143089607Y-105282824D01*
X143121319Y-105119235D01*
X143123705Y-105099009D01*
X143127178Y-105045219D01*
X143130232Y-104951037D01*
X143132856Y-104818402D01*
X143135038Y-104649254D01*
X143136765Y-104445532D01*
X143138026Y-104209174D01*
X143138808Y-103942122D01*
X143139101Y-103646313D01*
X143138891Y-103323687D01*
X143138168Y-102976184D01*
X143137698Y-102820105D01*
X143136576Y-102463620D01*
X143135568Y-102146943D01*
X143134491Y-101867546D01*
X143133164Y-101622905D01*
X143131405Y-101410494D01*
X143129034Y-101227787D01*
X143125869Y-101072260D01*
X143121727Y-100941385D01*
X143116429Y-100832638D01*
X143109793Y-100743493D01*
X143101636Y-100671425D01*
X143091779Y-100613908D01*
X143080039Y-100568416D01*
X143066234Y-100532424D01*
X143050185Y-100503405D01*
X143031709Y-100478836D01*
X143010625Y-100456190D01*
X142986751Y-100432941D01*
X142964701Y-100411391D01*
X142896603Y-100351121D01*
X142824688Y-100306364D01*
X142741392Y-100275068D01*
X142639150Y-100255180D01*
X142510400Y-100244647D01*
X142347576Y-100241417D01*
X142338305Y-100241410D01*
X142203917Y-100242598D01*
X142102572Y-100246743D01*
X142025027Y-100254716D01*
X141962044Y-100267389D01*
X141916882Y-100281167D01*
X141789320Y-100346896D01*
X141682089Y-100444708D01*
X141603785Y-100566011D01*
X141584420Y-100613519D01*
X141578068Y-100633210D01*
X141572427Y-100655329D01*
X141567456Y-100682372D01*
X141563112Y-100716833D01*
X141559354Y-100761209D01*
X141556139Y-100817996D01*
X141553425Y-100889688D01*
X141551170Y-100978782D01*
X141549331Y-101087774D01*
X141547867Y-101219158D01*
X141546734Y-101375431D01*
X141545892Y-101559089D01*
X141545298Y-101772627D01*
X141544909Y-102018540D01*
X141544684Y-102299325D01*
X141544580Y-102617476D01*
X141544555Y-102971692D01*
X140606988Y-102971692D01*
X140607417Y-102834109D01*
X140614955Y-100579859D01*
G36*
X153370833Y-97195395D02*
G01*
X153483309Y-97235152D01*
X153570092Y-97303979D01*
X153620138Y-97374595D01*
X153673055Y-97468359D01*
X153673055Y-101849859D01*
X153673039Y-102358012D01*
X153672984Y-102825546D01*
X153672874Y-103254175D01*
X153672697Y-103645611D01*
X153672437Y-104001569D01*
X153672082Y-104323762D01*
X153671616Y-104613904D01*
X153671027Y-104873708D01*
X153670300Y-105104890D01*
X153669420Y-105309161D01*
X153668375Y-105488237D01*
X153667151Y-105643830D01*
X153665732Y-105777654D01*
X153664105Y-105891424D01*
X153662257Y-105986852D01*
X153660173Y-106065653D01*
X153657839Y-106129541D01*
X153655241Y-106180228D01*
X153652366Y-106219429D01*
X153649199Y-106248857D01*
X153645726Y-106270227D01*
X153641934Y-106285252D01*
X153637808Y-106295645D01*
X153636773Y-106297629D01*
X153566676Y-106388797D01*
X153472721Y-106460477D01*
X153391939Y-106495010D01*
X153289201Y-106512084D01*
X153171929Y-106514363D01*
X153060592Y-106502294D01*
X152999612Y-106486442D01*
X152903152Y-106438769D01*
X152834187Y-106369608D01*
X152792113Y-106294859D01*
X152787605Y-106283836D01*
X152783458Y-106270060D01*
X152779657Y-106251798D01*
X152776188Y-106227320D01*
X152773034Y-106194891D01*
X152770181Y-106152781D01*
X152767614Y-106099257D01*
X152765316Y-106032587D01*
X152763272Y-105951039D01*
X152761468Y-105852880D01*
X152759888Y-105736379D01*
X152758517Y-105599804D01*
X152757339Y-105441421D01*
X152756339Y-105259501D01*
X152755501Y-105052309D01*
X152754811Y-104818114D01*
X152754253Y-104555183D01*
X152753812Y-104261786D01*
X152753473Y-103936189D01*
X152753219Y-103576660D01*
X152753037Y-103181467D01*
X152752910Y-102748879D01*
X152752823Y-102277162D01*
X152752769Y-101843887D01*
X152752688Y-101332518D01*
X152752588Y-100861769D01*
X152752514Y-100429927D01*
X152752510Y-100035278D01*
X152752620Y-99676110D01*
X152752890Y-99350709D01*
X152753364Y-99057361D01*
X152754087Y-98794354D01*
X152755102Y-98559974D01*
X152756456Y-98352508D01*
X152758192Y-98170243D01*
X152760354Y-98011466D01*
X152762989Y-97874462D01*
X152766139Y-97757520D01*
X152769850Y-97658926D01*
X152774167Y-97576966D01*
X152779133Y-97509927D01*
X152784794Y-97456096D01*
X152791194Y-97413760D01*
X152798378Y-97381205D01*
X152806390Y-97356719D01*
X152815275Y-97338588D01*
X152825078Y-97325098D01*
X152835842Y-97314537D01*
X152847614Y-97305191D01*
X152860436Y-97295347D01*
X152871406Y-97286030D01*
X152946351Y-97232837D01*
X153036373Y-97199996D01*
X153151365Y-97184639D01*
X153228384Y-97182609D01*
X153370833Y-97195395D01*
G37*
X153370833Y-97195395D02*
X153483309Y-97235152D01*
X153570092Y-97303979D01*
X153620138Y-97374595D01*
X153673055Y-97468359D01*
X153673055Y-101849859D01*
X153673039Y-102358012D01*
X153672984Y-102825546D01*
X153672874Y-103254175D01*
X153672697Y-103645611D01*
X153672437Y-104001569D01*
X153672082Y-104323762D01*
X153671616Y-104613904D01*
X153671027Y-104873708D01*
X153670300Y-105104890D01*
X153669420Y-105309161D01*
X153668375Y-105488237D01*
X153667151Y-105643830D01*
X153665732Y-105777654D01*
X153664105Y-105891424D01*
X153662257Y-105986852D01*
X153660173Y-106065653D01*
X153657839Y-106129541D01*
X153655241Y-106180228D01*
X153652366Y-106219429D01*
X153649199Y-106248857D01*
X153645726Y-106270227D01*
X153641934Y-106285252D01*
X153637808Y-106295645D01*
X153636773Y-106297629D01*
X153566676Y-106388797D01*
X153472721Y-106460477D01*
X153391939Y-106495010D01*
X153289201Y-106512084D01*
X153171929Y-106514363D01*
X153060592Y-106502294D01*
X152999612Y-106486442D01*
X152903152Y-106438769D01*
X152834187Y-106369608D01*
X152792113Y-106294859D01*
X152787605Y-106283836D01*
X152783458Y-106270060D01*
X152779657Y-106251798D01*
X152776188Y-106227320D01*
X152773034Y-106194891D01*
X152770181Y-106152781D01*
X152767614Y-106099257D01*
X152765316Y-106032587D01*
X152763272Y-105951039D01*
X152761468Y-105852880D01*
X152759888Y-105736379D01*
X152758517Y-105599804D01*
X152757339Y-105441421D01*
X152756339Y-105259501D01*
X152755501Y-105052309D01*
X152754811Y-104818114D01*
X152754253Y-104555183D01*
X152753812Y-104261786D01*
X152753473Y-103936189D01*
X152753219Y-103576660D01*
X152753037Y-103181467D01*
X152752910Y-102748879D01*
X152752823Y-102277162D01*
X152752769Y-101843887D01*
X152752688Y-101332518D01*
X152752588Y-100861769D01*
X152752514Y-100429927D01*
X152752510Y-100035278D01*
X152752620Y-99676110D01*
X152752890Y-99350709D01*
X152753364Y-99057361D01*
X152754087Y-98794354D01*
X152755102Y-98559974D01*
X152756456Y-98352508D01*
X152758192Y-98170243D01*
X152760354Y-98011466D01*
X152762989Y-97874462D01*
X152766139Y-97757520D01*
X152769850Y-97658926D01*
X152774167Y-97576966D01*
X152779133Y-97509927D01*
X152784794Y-97456096D01*
X152791194Y-97413760D01*
X152798378Y-97381205D01*
X152806390Y-97356719D01*
X152815275Y-97338588D01*
X152825078Y-97325098D01*
X152835842Y-97314537D01*
X152847614Y-97305191D01*
X152860436Y-97295347D01*
X152871406Y-97286030D01*
X152946351Y-97232837D01*
X153036373Y-97199996D01*
X153151365Y-97184639D01*
X153228384Y-97182609D01*
X153370833Y-97195395D01*
G36*
X137987385Y-99375471D02*
G01*
X138152129Y-99379742D01*
X138288802Y-99388663D01*
X138404502Y-99403385D01*
X138506327Y-99425059D01*
X138601378Y-99454837D01*
X138696750Y-99493871D01*
X138786501Y-99536750D01*
X138973709Y-99653506D01*
X139133737Y-99802230D01*
X139265551Y-99981595D01*
X139368118Y-100190276D01*
X139421455Y-100351248D01*
X139434702Y-100403148D01*
X139445292Y-100455500D01*
X139453618Y-100514090D01*
X139460071Y-100584706D01*
X139465046Y-100673134D01*
X139468934Y-100785163D01*
X139472129Y-100926578D01*
X139475022Y-101103168D01*
X139475707Y-101150817D01*
X139477970Y-101376083D01*
X139477816Y-101559477D01*
X139475246Y-101700904D01*
X139470261Y-101800270D01*
X139462863Y-101857481D01*
X139461574Y-101862326D01*
X139408194Y-101975522D01*
X139325059Y-102058734D01*
X139212526Y-102111733D01*
X139070953Y-102134290D01*
X139036165Y-102135144D01*
X138950757Y-102132122D01*
X138871222Y-102123818D01*
X138826091Y-102114859D01*
X138743762Y-102074615D01*
X138666359Y-102009238D01*
X138611173Y-101933760D01*
X138606511Y-101923942D01*
X138599022Y-101886591D01*
X138591656Y-101811267D01*
X138584665Y-101702328D01*
X138578299Y-101564134D01*
X138572809Y-101401045D01*
X138569947Y-101288942D01*
X138565734Y-101113687D01*
X138561637Y-100975066D01*
X138557175Y-100867386D01*
X138551867Y-100784952D01*
X138545232Y-100722069D01*
X138536788Y-100673043D01*
X138526054Y-100632180D01*
X138512549Y-100593785D01*
X138510829Y-100589352D01*
X138438469Y-100458801D01*
X138335856Y-100355173D01*
X138256242Y-100305387D01*
X138158915Y-100271407D01*
X138032308Y-100248971D01*
X137887848Y-100237998D01*
X137736963Y-100238409D01*
X137591078Y-100250124D01*
X137461622Y-100273064D01*
X137360020Y-100307149D01*
X137350785Y-100311704D01*
X137239773Y-100389107D01*
X137146036Y-100492942D01*
X137095336Y-100579859D01*
X137089262Y-100595187D01*
X137083854Y-100614279D01*
X137079064Y-100639586D01*
X137074847Y-100673560D01*
X137071156Y-100718651D01*
X137067947Y-100777311D01*
X137065172Y-100851991D01*
X137062785Y-100945143D01*
X137060741Y-101059216D01*
X137058994Y-101196663D01*
X137057497Y-101359935D01*
X137056205Y-101551484D01*
X137055071Y-101773759D01*
X137054050Y-102029213D01*
X137053096Y-102320296D01*
X137052161Y-102649460D01*
X137051461Y-102917040D01*
X137050461Y-103288134D01*
X137049564Y-103619316D01*
X137048923Y-103913005D01*
X137048687Y-104171622D01*
X137049008Y-104397587D01*
X137050038Y-104593322D01*
X137051926Y-104761245D01*
X137054825Y-104903779D01*
X137058886Y-105023342D01*
X137064258Y-105122356D01*
X137071095Y-105203242D01*
X137079546Y-105268418D01*
X137089763Y-105320307D01*
X137101896Y-105361328D01*
X137116098Y-105393901D01*
X137132518Y-105420448D01*
X137151309Y-105443389D01*
X137172620Y-105465144D01*
X137196604Y-105488133D01*
X137212947Y-105504132D01*
X137281275Y-105564740D01*
X137352896Y-105609505D01*
X137435227Y-105640296D01*
X137535684Y-105658982D01*
X137661684Y-105667432D01*
X137820643Y-105667517D01*
X137857810Y-105666675D01*
X137985439Y-105662421D01*
X138079615Y-105656416D01*
X138149213Y-105647499D01*
X138203107Y-105634506D01*
X138250175Y-105616277D01*
X138253138Y-105614916D01*
X138378901Y-105535547D01*
X138474508Y-105426894D01*
X138515539Y-105352942D01*
X138527787Y-105324463D01*
X138537707Y-105293666D01*
X138545644Y-105255681D01*
X138551941Y-105205637D01*
X138556942Y-105138666D01*
X138560992Y-105049897D01*
X138564435Y-104934460D01*
X138567614Y-104787485D01*
X138570875Y-104604103D01*
X138571624Y-104559192D01*
X138574951Y-104389706D01*
X138579032Y-104232493D01*
X138583649Y-104092894D01*
X138588589Y-103976246D01*
X138593634Y-103887889D01*
X138598571Y-103833162D01*
X138601526Y-103818359D01*
X138662130Y-103713339D01*
X138741858Y-103639952D01*
X138845840Y-103595293D01*
X138979203Y-103576454D01*
X139030170Y-103575407D01*
X139186582Y-103588725D01*
X139309417Y-103627724D01*
X139398775Y-103692438D01*
X139403442Y-103697551D01*
X139429721Y-103730347D01*
X139450808Y-103766594D01*
X139467273Y-103811144D01*
X139479686Y-103868848D01*
X139488617Y-103944557D01*
X139494635Y-104043124D01*
X139498311Y-104169398D01*
X139500214Y-104328233D01*
X139500913Y-104524478D01*
X139500917Y-104527442D01*
X139499833Y-104777724D01*
X139495340Y-104991123D01*
X139486619Y-105173009D01*
X139472853Y-105328752D01*
X139453225Y-105463723D01*
X139426916Y-105583293D01*
X139393110Y-105692832D01*
X139350988Y-105797710D01*
X139299732Y-105903298D01*
X139288077Y-105925416D01*
X139217115Y-106032163D01*
X139118865Y-106144420D01*
X139004953Y-106251024D01*
X138887002Y-106340812D01*
X138804977Y-106389348D01*
X138607968Y-106469125D01*
X138378178Y-106527057D01*
X138119362Y-106562677D01*
X137835280Y-106575517D01*
X137529686Y-106565111D01*
X137445886Y-106558425D01*
X137180316Y-106517874D01*
X136943159Y-106446130D01*
X136734598Y-106343335D01*
X136554818Y-106209633D01*
X136404003Y-106045165D01*
X136282338Y-105850074D01*
X136190005Y-105624504D01*
X136174638Y-105574238D01*
X136125888Y-105405859D01*
X136125888Y-102971692D01*
X136125840Y-102589610D01*
X136125783Y-102247398D01*
X136125849Y-101942592D01*
X136126167Y-101672729D01*
X136126869Y-101435346D01*
X136128086Y-101227978D01*
X136129948Y-101048163D01*
X136132586Y-100893436D01*
X136136132Y-100761336D01*
X136140715Y-100649397D01*
X136146466Y-100555157D01*
X136153518Y-100476153D01*
X136161999Y-100409920D01*
X136172042Y-100353995D01*
X136183776Y-100305916D01*
X136197333Y-100263218D01*
X136212844Y-100223438D01*
X136230439Y-100184113D01*
X136250250Y-100142778D01*
X136272406Y-100096972D01*
X136279316Y-100082442D01*
X136363337Y-99940912D01*
X136476743Y-99801616D01*
X136608544Y-99675717D01*
X136747751Y-99574377D01*
X136817150Y-99536184D01*
X136921035Y-99488301D01*
X137016951Y-99450806D01*
X137112340Y-99422460D01*
X137214645Y-99402024D01*
X137331308Y-99388260D01*
X137469770Y-99379929D01*
X137637475Y-99375793D01*
X137787471Y-99374697D01*
X137987385Y-99375471D01*
G37*
X137987385Y-99375471D02*
X138152129Y-99379742D01*
X138288802Y-99388663D01*
X138404502Y-99403385D01*
X138506327Y-99425059D01*
X138601378Y-99454837D01*
X138696750Y-99493871D01*
X138786501Y-99536750D01*
X138973709Y-99653506D01*
X139133737Y-99802230D01*
X139265551Y-99981595D01*
X139368118Y-100190276D01*
X139421455Y-100351248D01*
X139434702Y-100403148D01*
X139445292Y-100455500D01*
X139453618Y-100514090D01*
X139460071Y-100584706D01*
X139465046Y-100673134D01*
X139468934Y-100785163D01*
X139472129Y-100926578D01*
X139475022Y-101103168D01*
X139475707Y-101150817D01*
X139477970Y-101376083D01*
X139477816Y-101559477D01*
X139475246Y-101700904D01*
X139470261Y-101800270D01*
X139462863Y-101857481D01*
X139461574Y-101862326D01*
X139408194Y-101975522D01*
X139325059Y-102058734D01*
X139212526Y-102111733D01*
X139070953Y-102134290D01*
X139036165Y-102135144D01*
X138950757Y-102132122D01*
X138871222Y-102123818D01*
X138826091Y-102114859D01*
X138743762Y-102074615D01*
X138666359Y-102009238D01*
X138611173Y-101933760D01*
X138606511Y-101923942D01*
X138599022Y-101886591D01*
X138591656Y-101811267D01*
X138584665Y-101702328D01*
X138578299Y-101564134D01*
X138572809Y-101401045D01*
X138569947Y-101288942D01*
X138565734Y-101113687D01*
X138561637Y-100975066D01*
X138557175Y-100867386D01*
X138551867Y-100784952D01*
X138545232Y-100722069D01*
X138536788Y-100673043D01*
X138526054Y-100632180D01*
X138512549Y-100593785D01*
X138510829Y-100589352D01*
X138438469Y-100458801D01*
X138335856Y-100355173D01*
X138256242Y-100305387D01*
X138158915Y-100271407D01*
X138032308Y-100248971D01*
X137887848Y-100237998D01*
X137736963Y-100238409D01*
X137591078Y-100250124D01*
X137461622Y-100273064D01*
X137360020Y-100307149D01*
X137350785Y-100311704D01*
X137239773Y-100389107D01*
X137146036Y-100492942D01*
X137095336Y-100579859D01*
X137089262Y-100595187D01*
X137083854Y-100614279D01*
X137079064Y-100639586D01*
X137074847Y-100673560D01*
X137071156Y-100718651D01*
X137067947Y-100777311D01*
X137065172Y-100851991D01*
X137062785Y-100945143D01*
X137060741Y-101059216D01*
X137058994Y-101196663D01*
X137057497Y-101359935D01*
X137056205Y-101551484D01*
X137055071Y-101773759D01*
X137054050Y-102029213D01*
X137053096Y-102320296D01*
X137052161Y-102649460D01*
X137051461Y-102917040D01*
X137050461Y-103288134D01*
X137049564Y-103619316D01*
X137048923Y-103913005D01*
X137048687Y-104171622D01*
X137049008Y-104397587D01*
X137050038Y-104593322D01*
X137051926Y-104761245D01*
X137054825Y-104903779D01*
X137058886Y-105023342D01*
X137064258Y-105122356D01*
X137071095Y-105203242D01*
X137079546Y-105268418D01*
X137089763Y-105320307D01*
X137101896Y-105361328D01*
X137116098Y-105393901D01*
X137132518Y-105420448D01*
X137151309Y-105443389D01*
X137172620Y-105465144D01*
X137196604Y-105488133D01*
X137212947Y-105504132D01*
X137281275Y-105564740D01*
X137352896Y-105609505D01*
X137435227Y-105640296D01*
X137535684Y-105658982D01*
X137661684Y-105667432D01*
X137820643Y-105667517D01*
X137857810Y-105666675D01*
X137985439Y-105662421D01*
X138079615Y-105656416D01*
X138149213Y-105647499D01*
X138203107Y-105634506D01*
X138250175Y-105616277D01*
X138253138Y-105614916D01*
X138378901Y-105535547D01*
X138474508Y-105426894D01*
X138515539Y-105352942D01*
X138527787Y-105324463D01*
X138537707Y-105293666D01*
X138545644Y-105255681D01*
X138551941Y-105205637D01*
X138556942Y-105138666D01*
X138560992Y-105049897D01*
X138564435Y-104934460D01*
X138567614Y-104787485D01*
X138570875Y-104604103D01*
X138571624Y-104559192D01*
X138574951Y-104389706D01*
X138579032Y-104232493D01*
X138583649Y-104092894D01*
X138588589Y-103976246D01*
X138593634Y-103887889D01*
X138598571Y-103833162D01*
X138601526Y-103818359D01*
X138662130Y-103713339D01*
X138741858Y-103639952D01*
X138845840Y-103595293D01*
X138979203Y-103576454D01*
X139030170Y-103575407D01*
X139186582Y-103588725D01*
X139309417Y-103627724D01*
X139398775Y-103692438D01*
X139403442Y-103697551D01*
X139429721Y-103730347D01*
X139450808Y-103766594D01*
X139467273Y-103811144D01*
X139479686Y-103868848D01*
X139488617Y-103944557D01*
X139494635Y-104043124D01*
X139498311Y-104169398D01*
X139500214Y-104328233D01*
X139500913Y-104524478D01*
X139500917Y-104527442D01*
X139499833Y-104777724D01*
X139495340Y-104991123D01*
X139486619Y-105173009D01*
X139472853Y-105328752D01*
X139453225Y-105463723D01*
X139426916Y-105583293D01*
X139393110Y-105692832D01*
X139350988Y-105797710D01*
X139299732Y-105903298D01*
X139288077Y-105925416D01*
X139217115Y-106032163D01*
X139118865Y-106144420D01*
X139004953Y-106251024D01*
X138887002Y-106340812D01*
X138804977Y-106389348D01*
X138607968Y-106469125D01*
X138378178Y-106527057D01*
X138119362Y-106562677D01*
X137835280Y-106575517D01*
X137529686Y-106565111D01*
X137445886Y-106558425D01*
X137180316Y-106517874D01*
X136943159Y-106446130D01*
X136734598Y-106343335D01*
X136554818Y-106209633D01*
X136404003Y-106045165D01*
X136282338Y-105850074D01*
X136190005Y-105624504D01*
X136174638Y-105574238D01*
X136125888Y-105405859D01*
X136125888Y-102971692D01*
X136125840Y-102589610D01*
X136125783Y-102247398D01*
X136125849Y-101942592D01*
X136126167Y-101672729D01*
X136126869Y-101435346D01*
X136128086Y-101227978D01*
X136129948Y-101048163D01*
X136132586Y-100893436D01*
X136136132Y-100761336D01*
X136140715Y-100649397D01*
X136146466Y-100555157D01*
X136153518Y-100476153D01*
X136161999Y-100409920D01*
X136172042Y-100353995D01*
X136183776Y-100305916D01*
X136197333Y-100263218D01*
X136212844Y-100223438D01*
X136230439Y-100184113D01*
X136250250Y-100142778D01*
X136272406Y-100096972D01*
X136279316Y-100082442D01*
X136363337Y-99940912D01*
X136476743Y-99801616D01*
X136608544Y-99675717D01*
X136747751Y-99574377D01*
X136817150Y-99536184D01*
X136921035Y-99488301D01*
X137016951Y-99450806D01*
X137112340Y-99422460D01*
X137214645Y-99402024D01*
X137331308Y-99388260D01*
X137469770Y-99379929D01*
X137637475Y-99375793D01*
X137787471Y-99374697D01*
X137987385Y-99375471D01*
G36*
X155885381Y-97358147D02*
G01*
X155992910Y-97378941D01*
X156075935Y-97421666D01*
X156142027Y-97489872D01*
X156186299Y-97562283D01*
X156209883Y-97609757D01*
X156226106Y-97652322D01*
X156236338Y-97699396D01*
X156241951Y-97760396D01*
X156244316Y-97844741D01*
X156244804Y-97961849D01*
X156244805Y-97964036D01*
X156244238Y-98082768D01*
X156241683Y-98168613D01*
X156235855Y-98231013D01*
X156225470Y-98279408D01*
X156209246Y-98323241D01*
X156190624Y-98362522D01*
X156121343Y-98461918D01*
X156026955Y-98530064D01*
X155905090Y-98568174D01*
X155769690Y-98577789D01*
X155685292Y-98574416D01*
X155610284Y-98567372D01*
X155563055Y-98558687D01*
X155456495Y-98505294D01*
X155370979Y-98419044D01*
X155336455Y-98361111D01*
X155318589Y-98319228D01*
X155306230Y-98274302D01*
X155298406Y-98217627D01*
X155294144Y-98140497D01*
X155292473Y-98034206D01*
X155292305Y-97965775D01*
X155295025Y-97811281D01*
X155304675Y-97691904D01*
X155323491Y-97600692D01*
X155353705Y-97530690D01*
X155397552Y-97474945D01*
X155457267Y-97426502D01*
X155467880Y-97419337D01*
X155515951Y-97391037D01*
X155564537Y-97373149D01*
X155626362Y-97362759D01*
X155714152Y-97356956D01*
X155745774Y-97355733D01*
X155885381Y-97358147D01*
G37*
X155885381Y-97358147D02*
X155992910Y-97378941D01*
X156075935Y-97421666D01*
X156142027Y-97489872D01*
X156186299Y-97562283D01*
X156209883Y-97609757D01*
X156226106Y-97652322D01*
X156236338Y-97699396D01*
X156241951Y-97760396D01*
X156244316Y-97844741D01*
X156244804Y-97961849D01*
X156244805Y-97964036D01*
X156244238Y-98082768D01*
X156241683Y-98168613D01*
X156235855Y-98231013D01*
X156225470Y-98279408D01*
X156209246Y-98323241D01*
X156190624Y-98362522D01*
X156121343Y-98461918D01*
X156026955Y-98530064D01*
X155905090Y-98568174D01*
X155769690Y-98577789D01*
X155685292Y-98574416D01*
X155610284Y-98567372D01*
X155563055Y-98558687D01*
X155456495Y-98505294D01*
X155370979Y-98419044D01*
X155336455Y-98361111D01*
X155318589Y-98319228D01*
X155306230Y-98274302D01*
X155298406Y-98217627D01*
X155294144Y-98140497D01*
X155292473Y-98034206D01*
X155292305Y-97965775D01*
X155295025Y-97811281D01*
X155304675Y-97691904D01*
X155323491Y-97600692D01*
X155353705Y-97530690D01*
X155397552Y-97474945D01*
X155457267Y-97426502D01*
X155467880Y-97419337D01*
X155515951Y-97391037D01*
X155564537Y-97373149D01*
X155626362Y-97362759D01*
X155714152Y-97356956D01*
X155745774Y-97355733D01*
X155885381Y-97358147D01*
G36*
X162973491Y-97205794D02*
G01*
X163089195Y-97247184D01*
X163172094Y-97304809D01*
X163197111Y-97329979D01*
X163218429Y-97356324D01*
X163236344Y-97387265D01*
X163251151Y-97426226D01*
X163263146Y-97476630D01*
X163272624Y-97541901D01*
X163279880Y-97625461D01*
X163285210Y-97730734D01*
X163288909Y-97861142D01*
X163291272Y-98020110D01*
X163292596Y-98211059D01*
X163293175Y-98437414D01*
X163293304Y-98702598D01*
X163293305Y-98709400D01*
X163293305Y-99847509D01*
X163446763Y-99731889D01*
X163648623Y-99598752D01*
X163865273Y-99489896D01*
X164082606Y-99412236D01*
X164118320Y-99402705D01*
X164205510Y-99382648D01*
X164283890Y-99370394D01*
X164367131Y-99364880D01*
X164468903Y-99365042D01*
X164562521Y-99368123D01*
X164809572Y-99392257D01*
X165025371Y-99444294D01*
X165211445Y-99525349D01*
X165369321Y-99636539D01*
X165500528Y-99778978D01*
X165606593Y-99953782D01*
X165689043Y-100162066D01*
X165700229Y-100198859D01*
X165705478Y-100218892D01*
X165710225Y-100242777D01*
X165714498Y-100272675D01*
X165718331Y-100310751D01*
X165721752Y-100359167D01*
X165724794Y-100420087D01*
X165727487Y-100495673D01*
X165729861Y-100588089D01*
X165731948Y-100699498D01*
X165733778Y-100832062D01*
X165735383Y-100987946D01*
X165736792Y-101169311D01*
X165738037Y-101378322D01*
X165739149Y-101617141D01*
X165740159Y-101887931D01*
X165741097Y-102192856D01*
X165741994Y-102534079D01*
X165742880Y-102913762D01*
X165743595Y-103242462D01*
X165744437Y-103691809D01*
X165744962Y-104100076D01*
X165745163Y-104468518D01*
X165745032Y-104798388D01*
X165744561Y-105090939D01*
X165743744Y-105347425D01*
X165742573Y-105569099D01*
X165741041Y-105757215D01*
X165739140Y-105913026D01*
X165736864Y-106037785D01*
X165734204Y-106132746D01*
X165731154Y-106199162D01*
X165727706Y-106238287D01*
X165726012Y-106247362D01*
X165676521Y-106353469D01*
X165594483Y-106439610D01*
X165487664Y-106498726D01*
X165431284Y-106515130D01*
X165280469Y-106531367D01*
X165142480Y-106514845D01*
X165023026Y-106467525D01*
X164927815Y-106391369D01*
X164880865Y-106325969D01*
X164827888Y-106231359D01*
X164817305Y-103384442D01*
X164806721Y-100537525D01*
X164759575Y-100449349D01*
X164686688Y-100350288D01*
X164588912Y-100281740D01*
X164463470Y-100242326D01*
X164318959Y-100230609D01*
X164151619Y-100249613D01*
X163970249Y-100305569D01*
X163778338Y-100396890D01*
X163579374Y-100521989D01*
X163430565Y-100634634D01*
X163293305Y-100746000D01*
X163293305Y-103447796D01*
X163293327Y-103853480D01*
X163293330Y-104219003D01*
X163293219Y-104546537D01*
X163292896Y-104838254D01*
X163292267Y-105096325D01*
X163291234Y-105322924D01*
X163289703Y-105520222D01*
X163287576Y-105690390D01*
X163284759Y-105835602D01*
X163281155Y-105958029D01*
X163276668Y-106059843D01*
X163271202Y-106143216D01*
X163264661Y-106210321D01*
X163256949Y-106263329D01*
X163247971Y-106304412D01*
X163237630Y-106335743D01*
X163225830Y-106359493D01*
X163212475Y-106377835D01*
X163197469Y-106392940D01*
X163180717Y-106406981D01*
X163162122Y-106422130D01*
X163161858Y-106422352D01*
X163107477Y-106463136D01*
X163058085Y-106492395D01*
X163049704Y-106496012D01*
X162991081Y-106510346D01*
X162908721Y-106521426D01*
X162821189Y-106527640D01*
X162747051Y-106527375D01*
X162721805Y-106524497D01*
X162589822Y-106485651D01*
X162491351Y-106422554D01*
X162423553Y-106332649D01*
X162385250Y-106221402D01*
X162382224Y-106192084D01*
X162379428Y-106132874D01*
X162376859Y-106042927D01*
X162374511Y-105921401D01*
X162372380Y-105767451D01*
X162370461Y-105580233D01*
X162368751Y-105358904D01*
X162367244Y-105102620D01*
X162365936Y-104810537D01*
X162364823Y-104481811D01*
X162363899Y-104115598D01*
X162363162Y-103711055D01*
X162362605Y-103267337D01*
X162362225Y-102783602D01*
X162362017Y-102259004D01*
X162361971Y-101842075D01*
X162361940Y-101331910D01*
X162361883Y-100862358D01*
X162361850Y-100431697D01*
X162361893Y-100038206D01*
X162362065Y-99680163D01*
X162362416Y-99355849D01*
X162362998Y-99063541D01*
X162363864Y-98801520D01*
X162365063Y-98568063D01*
X162366650Y-98361449D01*
X162368674Y-98179959D01*
X162371187Y-98021869D01*
X162374242Y-97885460D01*
X162377890Y-97769011D01*
X162382182Y-97670799D01*
X162387170Y-97589105D01*
X162392906Y-97522208D01*
X162399441Y-97468385D01*
X162406828Y-97425916D01*
X162415117Y-97393080D01*
X162424360Y-97368156D01*
X162434610Y-97349423D01*
X162445917Y-97335160D01*
X162458334Y-97323645D01*
X162471911Y-97313158D01*
X162486701Y-97301977D01*
X162498509Y-97292199D01*
X162596061Y-97232372D01*
X162715414Y-97198173D01*
X162845061Y-97189385D01*
X162973491Y-97205794D01*
G37*
X162973491Y-97205794D02*
X163089195Y-97247184D01*
X163172094Y-97304809D01*
X163197111Y-97329979D01*
X163218429Y-97356324D01*
X163236344Y-97387265D01*
X163251151Y-97426226D01*
X163263146Y-97476630D01*
X163272624Y-97541901D01*
X163279880Y-97625461D01*
X163285210Y-97730734D01*
X163288909Y-97861142D01*
X163291272Y-98020110D01*
X163292596Y-98211059D01*
X163293175Y-98437414D01*
X163293304Y-98702598D01*
X163293305Y-98709400D01*
X163293305Y-99847509D01*
X163446763Y-99731889D01*
X163648623Y-99598752D01*
X163865273Y-99489896D01*
X164082606Y-99412236D01*
X164118320Y-99402705D01*
X164205510Y-99382648D01*
X164283890Y-99370394D01*
X164367131Y-99364880D01*
X164468903Y-99365042D01*
X164562521Y-99368123D01*
X164809572Y-99392257D01*
X165025371Y-99444294D01*
X165211445Y-99525349D01*
X165369321Y-99636539D01*
X165500528Y-99778978D01*
X165606593Y-99953782D01*
X165689043Y-100162066D01*
X165700229Y-100198859D01*
X165705478Y-100218892D01*
X165710225Y-100242777D01*
X165714498Y-100272675D01*
X165718331Y-100310751D01*
X165721752Y-100359167D01*
X165724794Y-100420087D01*
X165727487Y-100495673D01*
X165729861Y-100588089D01*
X165731948Y-100699498D01*
X165733778Y-100832062D01*
X165735383Y-100987946D01*
X165736792Y-101169311D01*
X165738037Y-101378322D01*
X165739149Y-101617141D01*
X165740159Y-101887931D01*
X165741097Y-102192856D01*
X165741994Y-102534079D01*
X165742880Y-102913762D01*
X165743595Y-103242462D01*
X165744437Y-103691809D01*
X165744962Y-104100076D01*
X165745163Y-104468518D01*
X165745032Y-104798388D01*
X165744561Y-105090939D01*
X165743744Y-105347425D01*
X165742573Y-105569099D01*
X165741041Y-105757215D01*
X165739140Y-105913026D01*
X165736864Y-106037785D01*
X165734204Y-106132746D01*
X165731154Y-106199162D01*
X165727706Y-106238287D01*
X165726012Y-106247362D01*
X165676521Y-106353469D01*
X165594483Y-106439610D01*
X165487664Y-106498726D01*
X165431284Y-106515130D01*
X165280469Y-106531367D01*
X165142480Y-106514845D01*
X165023026Y-106467525D01*
X164927815Y-106391369D01*
X164880865Y-106325969D01*
X164827888Y-106231359D01*
X164817305Y-103384442D01*
X164806721Y-100537525D01*
X164759575Y-100449349D01*
X164686688Y-100350288D01*
X164588912Y-100281740D01*
X164463470Y-100242326D01*
X164318959Y-100230609D01*
X164151619Y-100249613D01*
X163970249Y-100305569D01*
X163778338Y-100396890D01*
X163579374Y-100521989D01*
X163430565Y-100634634D01*
X163293305Y-100746000D01*
X163293305Y-103447796D01*
X163293327Y-103853480D01*
X163293330Y-104219003D01*
X163293219Y-104546537D01*
X163292896Y-104838254D01*
X163292267Y-105096325D01*
X163291234Y-105322924D01*
X163289703Y-105520222D01*
X163287576Y-105690390D01*
X163284759Y-105835602D01*
X163281155Y-105958029D01*
X163276668Y-106059843D01*
X163271202Y-106143216D01*
X163264661Y-106210321D01*
X163256949Y-106263329D01*
X163247971Y-106304412D01*
X163237630Y-106335743D01*
X163225830Y-106359493D01*
X163212475Y-106377835D01*
X163197469Y-106392940D01*
X163180717Y-106406981D01*
X163162122Y-106422130D01*
X163161858Y-106422352D01*
X163107477Y-106463136D01*
X163058085Y-106492395D01*
X163049704Y-106496012D01*
X162991081Y-106510346D01*
X162908721Y-106521426D01*
X162821189Y-106527640D01*
X162747051Y-106527375D01*
X162721805Y-106524497D01*
X162589822Y-106485651D01*
X162491351Y-106422554D01*
X162423553Y-106332649D01*
X162385250Y-106221402D01*
X162382224Y-106192084D01*
X162379428Y-106132874D01*
X162376859Y-106042927D01*
X162374511Y-105921401D01*
X162372380Y-105767451D01*
X162370461Y-105580233D01*
X162368751Y-105358904D01*
X162367244Y-105102620D01*
X162365936Y-104810537D01*
X162364823Y-104481811D01*
X162363899Y-104115598D01*
X162363162Y-103711055D01*
X162362605Y-103267337D01*
X162362225Y-102783602D01*
X162362017Y-102259004D01*
X162361971Y-101842075D01*
X162361940Y-101331910D01*
X162361883Y-100862358D01*
X162361850Y-100431697D01*
X162361893Y-100038206D01*
X162362065Y-99680163D01*
X162362416Y-99355849D01*
X162362998Y-99063541D01*
X162363864Y-98801520D01*
X162365063Y-98568063D01*
X162366650Y-98361449D01*
X162368674Y-98179959D01*
X162371187Y-98021869D01*
X162374242Y-97885460D01*
X162377890Y-97769011D01*
X162382182Y-97670799D01*
X162387170Y-97589105D01*
X162392906Y-97522208D01*
X162399441Y-97468385D01*
X162406828Y-97425916D01*
X162415117Y-97393080D01*
X162424360Y-97368156D01*
X162434610Y-97349423D01*
X162445917Y-97335160D01*
X162458334Y-97323645D01*
X162471911Y-97313158D01*
X162486701Y-97301977D01*
X162498509Y-97292199D01*
X162596061Y-97232372D01*
X162715414Y-97198173D01*
X162845061Y-97189385D01*
X162973491Y-97205794D01*
%TD*%
M02*
