%TF.GenerationSoftware,KiCad,Pcbnew,(6.0.7)*%
%TF.CreationDate,2022-09-05T18:42:41-05:00*%
%TF.ProjectId,Corelight SAO,436f7265-6c69-4676-9874-2053414f2e6b,rev?*%
%TF.SameCoordinates,Original*%
%TF.FileFunction,Copper,L1,Top*%
%TF.FilePolarity,Positive*%
%FSLAX46Y46*%
G04 Gerber Fmt 4.6, Leading zero omitted, Abs format (unit mm)*
G04 Created by KiCad (PCBNEW (6.0.7)) date 2022-09-05 18:42:41*
%MOMM*%
%LPD*%
G01*
G04 APERTURE LIST*
%TA.AperFunction,EtchedComponent*%
%ADD10C,0.010000*%
%TD*%
%TA.AperFunction,ComponentPad*%
%ADD11O,1.727200X1.727200*%
%TD*%
%TA.AperFunction,ComponentPad*%
%ADD12R,1.727200X1.727200*%
%TD*%
%TA.AperFunction,ComponentPad*%
%ADD13C,1.727200*%
%TD*%
G04 APERTURE END LIST*
%TO.C,G\u002A\u002A\u002A*%
G36*
X152561805Y-83589058D02*
G01*
X152186096Y-83601843D01*
X151672398Y-83623211D01*
X151192280Y-83651543D01*
X150737442Y-83687616D01*
X150299584Y-83732205D01*
X149870407Y-83786090D01*
X149441611Y-83850046D01*
X149316524Y-83870525D01*
X148422079Y-84041078D01*
X147539844Y-84252048D01*
X146670700Y-84503064D01*
X145815534Y-84793751D01*
X144975227Y-85123738D01*
X144150664Y-85492651D01*
X143342728Y-85900119D01*
X142552304Y-86345767D01*
X141780274Y-86829223D01*
X141027523Y-87350116D01*
X140973055Y-87389814D01*
X140532270Y-87721346D01*
X140111385Y-88057372D01*
X139701762Y-88405338D01*
X139294768Y-88772692D01*
X138881767Y-89166880D01*
X138675895Y-89370773D01*
X138056062Y-90018315D01*
X137474417Y-90681756D01*
X136928898Y-91363978D01*
X136417440Y-92067860D01*
X135937978Y-92796282D01*
X135488450Y-93552127D01*
X135066791Y-94338272D01*
X134951310Y-94568525D01*
X134566915Y-95393180D01*
X134223168Y-96229079D01*
X133919963Y-97076624D01*
X133657195Y-97936215D01*
X133434758Y-98808252D01*
X133252547Y-99693136D01*
X133110456Y-100591267D01*
X133008381Y-101503045D01*
X132962130Y-102125025D01*
X132955031Y-102276438D01*
X132949400Y-102462177D01*
X132945238Y-102674290D01*
X132942545Y-102904826D01*
X132941321Y-103145836D01*
X132941568Y-103389368D01*
X132943285Y-103627471D01*
X132946475Y-103852194D01*
X132951136Y-104055588D01*
X132957270Y-104229700D01*
X132961957Y-104321885D01*
X133024260Y-105130450D01*
X133113925Y-105912290D01*
X133232018Y-106673856D01*
X133379609Y-107421602D01*
X133557766Y-108161980D01*
X133659154Y-108533232D01*
X133925004Y-109392617D01*
X134230317Y-110237808D01*
X134574210Y-111067430D01*
X134955799Y-111880108D01*
X135374200Y-112674466D01*
X135828532Y-113449129D01*
X136317909Y-114202721D01*
X136841449Y-114933867D01*
X137398269Y-115641191D01*
X137987486Y-116323319D01*
X138608215Y-116978874D01*
X139259574Y-117606481D01*
X139786358Y-118074042D01*
X139895460Y-118166573D01*
X140010099Y-118261954D01*
X140135915Y-118364758D01*
X140278547Y-118479557D01*
X140443637Y-118610923D01*
X140634388Y-118761512D01*
X140679628Y-118796061D01*
X140751574Y-118849749D01*
X140842600Y-118916943D01*
X140945084Y-118992010D01*
X141025971Y-119050879D01*
X141772015Y-119566370D01*
X142537747Y-120044800D01*
X143321848Y-120485863D01*
X144122997Y-120889250D01*
X144939875Y-121254653D01*
X145771161Y-121581766D01*
X146615535Y-121870279D01*
X147471676Y-122119886D01*
X148338265Y-122330279D01*
X149213982Y-122501149D01*
X150097506Y-122632189D01*
X150987517Y-122723092D01*
X151882694Y-122773549D01*
X152781719Y-122783253D01*
X153683270Y-122751896D01*
X154586027Y-122679170D01*
X155488671Y-122564768D01*
X155851191Y-122506967D01*
X156729296Y-122337275D01*
X157599602Y-122126389D01*
X158460295Y-121875023D01*
X159309557Y-121583891D01*
X160145573Y-121253707D01*
X160966527Y-120885185D01*
X161770602Y-120479040D01*
X162555982Y-120035986D01*
X163272449Y-119588544D01*
X164011821Y-119079111D01*
X164727861Y-118535121D01*
X165418989Y-117958217D01*
X166083627Y-117350044D01*
X166720197Y-116712245D01*
X167327119Y-116046465D01*
X167902816Y-115354347D01*
X168445708Y-114637537D01*
X168954218Y-113897677D01*
X169360506Y-113248109D01*
X169808437Y-112458272D01*
X170218724Y-111650703D01*
X170590881Y-110826975D01*
X170924422Y-109988658D01*
X171218861Y-109137324D01*
X171473713Y-108274544D01*
X171688492Y-107401891D01*
X171862711Y-106520936D01*
X171995886Y-105633250D01*
X172087530Y-104740405D01*
X172115115Y-104336942D01*
X172130388Y-104072359D01*
X177584528Y-104061615D01*
X177570884Y-104320987D01*
X177511514Y-105206047D01*
X177427598Y-106062669D01*
X177318158Y-106897583D01*
X177182217Y-107717516D01*
X177018795Y-108529198D01*
X176861452Y-109201979D01*
X176592307Y-110198426D01*
X176284214Y-111178457D01*
X175937485Y-112141493D01*
X175552432Y-113086951D01*
X175129370Y-114014250D01*
X174668610Y-114922810D01*
X174170464Y-115812047D01*
X173635246Y-116681382D01*
X173063269Y-117530232D01*
X172454844Y-118358017D01*
X171810284Y-119164155D01*
X171129902Y-119948064D01*
X171015018Y-120074359D01*
X170884279Y-120214581D01*
X170729790Y-120376004D01*
X170557157Y-120553079D01*
X170371985Y-120740258D01*
X170179880Y-120931993D01*
X169986449Y-121122737D01*
X169797296Y-121306940D01*
X169618027Y-121479056D01*
X169454249Y-121633535D01*
X169311566Y-121764830D01*
X169262305Y-121809037D01*
X168476077Y-122480711D01*
X167666867Y-123118054D01*
X166835863Y-123720349D01*
X165984255Y-124286880D01*
X165113233Y-124816930D01*
X164223984Y-125309783D01*
X163317698Y-125764723D01*
X162395566Y-126181032D01*
X161458775Y-126557994D01*
X161252046Y-126635128D01*
X160288821Y-126968151D01*
X159320597Y-127260104D01*
X158345431Y-127511382D01*
X157361380Y-127722382D01*
X156366501Y-127893500D01*
X155358851Y-128025133D01*
X154336488Y-128117677D01*
X153831805Y-128148757D01*
X153729287Y-128152820D01*
X153590723Y-128156383D01*
X153422398Y-128159426D01*
X153230596Y-128161930D01*
X153021602Y-128163878D01*
X152801700Y-128165250D01*
X152577175Y-128166027D01*
X152354311Y-128166192D01*
X152139393Y-128165725D01*
X151938706Y-128164608D01*
X151758534Y-128162821D01*
X151605162Y-128160347D01*
X151484874Y-128157167D01*
X151450555Y-128155831D01*
X151384442Y-128152382D01*
X151284960Y-128146476D01*
X151160964Y-128138675D01*
X151021312Y-128129539D01*
X150874858Y-128119628D01*
X150836721Y-128116990D01*
X149811229Y-128024737D01*
X148794760Y-127891343D01*
X147788287Y-127717228D01*
X146792782Y-127502814D01*
X145809219Y-127248520D01*
X144838569Y-126954767D01*
X143881806Y-126621975D01*
X142939902Y-126250564D01*
X142013829Y-125840954D01*
X141104560Y-125393567D01*
X140213069Y-124908821D01*
X139340326Y-124387138D01*
X138487306Y-123828938D01*
X137654980Y-123234640D01*
X136844321Y-122604666D01*
X136056303Y-121939435D01*
X135609139Y-121536810D01*
X135467334Y-121403722D01*
X135304294Y-121246684D01*
X135125907Y-121071668D01*
X134938064Y-120884648D01*
X134746654Y-120691594D01*
X134557568Y-120498480D01*
X134376694Y-120311276D01*
X134209923Y-120135956D01*
X134063144Y-119978491D01*
X133958097Y-119862692D01*
X133290998Y-119085419D01*
X132662622Y-118293138D01*
X132071237Y-117483315D01*
X131515111Y-116653415D01*
X130992514Y-115800903D01*
X130501712Y-114923246D01*
X130241639Y-114422859D01*
X129799859Y-113503375D01*
X129397205Y-112568381D01*
X129033902Y-111619062D01*
X128710174Y-110656606D01*
X128426246Y-109682197D01*
X128182343Y-108697025D01*
X127978690Y-107702273D01*
X127815512Y-106699130D01*
X127693033Y-105688782D01*
X127611478Y-104672416D01*
X127571072Y-103651217D01*
X127572039Y-102626373D01*
X127614605Y-101599070D01*
X127671458Y-100855025D01*
X127785660Y-99833864D01*
X127941222Y-98821145D01*
X128137843Y-97817814D01*
X128375218Y-96824821D01*
X128653044Y-95843112D01*
X128971017Y-94873636D01*
X129328835Y-93917339D01*
X129726193Y-92975169D01*
X130162788Y-92048075D01*
X130638316Y-91137003D01*
X130972631Y-90546158D01*
X131505569Y-89674770D01*
X132072488Y-88827899D01*
X132672328Y-88006440D01*
X133304031Y-87211286D01*
X133966538Y-86443330D01*
X134658789Y-85703466D01*
X135379725Y-84992588D01*
X136128288Y-84311588D01*
X136903418Y-83661361D01*
X137704056Y-83042799D01*
X138529143Y-82456797D01*
X139377620Y-81904249D01*
X140248428Y-81386046D01*
X141140508Y-80903084D01*
X142052801Y-80456255D01*
X142984247Y-80046453D01*
X143799506Y-79724430D01*
X144767368Y-79384272D01*
X145745594Y-79085076D01*
X146734447Y-78826783D01*
X147734192Y-78609335D01*
X148745093Y-78432675D01*
X149767411Y-78296745D01*
X150720305Y-78207458D01*
X150863162Y-78197627D01*
X151033309Y-78187398D01*
X151222880Y-78177117D01*
X151424010Y-78167130D01*
X151628831Y-78157783D01*
X151829479Y-78149423D01*
X152018086Y-78142394D01*
X152186788Y-78137044D01*
X152327717Y-78133717D01*
X152418930Y-78132740D01*
X152561805Y-78132609D01*
X152561805Y-83589058D01*
G37*
D10*
X152561805Y-83589058D02*
X152186096Y-83601843D01*
X151672398Y-83623211D01*
X151192280Y-83651543D01*
X150737442Y-83687616D01*
X150299584Y-83732205D01*
X149870407Y-83786090D01*
X149441611Y-83850046D01*
X149316524Y-83870525D01*
X148422079Y-84041078D01*
X147539844Y-84252048D01*
X146670700Y-84503064D01*
X145815534Y-84793751D01*
X144975227Y-85123738D01*
X144150664Y-85492651D01*
X143342728Y-85900119D01*
X142552304Y-86345767D01*
X141780274Y-86829223D01*
X141027523Y-87350116D01*
X140973055Y-87389814D01*
X140532270Y-87721346D01*
X140111385Y-88057372D01*
X139701762Y-88405338D01*
X139294768Y-88772692D01*
X138881767Y-89166880D01*
X138675895Y-89370773D01*
X138056062Y-90018315D01*
X137474417Y-90681756D01*
X136928898Y-91363978D01*
X136417440Y-92067860D01*
X135937978Y-92796282D01*
X135488450Y-93552127D01*
X135066791Y-94338272D01*
X134951310Y-94568525D01*
X134566915Y-95393180D01*
X134223168Y-96229079D01*
X133919963Y-97076624D01*
X133657195Y-97936215D01*
X133434758Y-98808252D01*
X133252547Y-99693136D01*
X133110456Y-100591267D01*
X133008381Y-101503045D01*
X132962130Y-102125025D01*
X132955031Y-102276438D01*
X132949400Y-102462177D01*
X132945238Y-102674290D01*
X132942545Y-102904826D01*
X132941321Y-103145836D01*
X132941568Y-103389368D01*
X132943285Y-103627471D01*
X132946475Y-103852194D01*
X132951136Y-104055588D01*
X132957270Y-104229700D01*
X132961957Y-104321885D01*
X133024260Y-105130450D01*
X133113925Y-105912290D01*
X133232018Y-106673856D01*
X133379609Y-107421602D01*
X133557766Y-108161980D01*
X133659154Y-108533232D01*
X133925004Y-109392617D01*
X134230317Y-110237808D01*
X134574210Y-111067430D01*
X134955799Y-111880108D01*
X135374200Y-112674466D01*
X135828532Y-113449129D01*
X136317909Y-114202721D01*
X136841449Y-114933867D01*
X137398269Y-115641191D01*
X137987486Y-116323319D01*
X138608215Y-116978874D01*
X139259574Y-117606481D01*
X139786358Y-118074042D01*
X139895460Y-118166573D01*
X140010099Y-118261954D01*
X140135915Y-118364758D01*
X140278547Y-118479557D01*
X140443637Y-118610923D01*
X140634388Y-118761512D01*
X140679628Y-118796061D01*
X140751574Y-118849749D01*
X140842600Y-118916943D01*
X140945084Y-118992010D01*
X141025971Y-119050879D01*
X141772015Y-119566370D01*
X142537747Y-120044800D01*
X143321848Y-120485863D01*
X144122997Y-120889250D01*
X144939875Y-121254653D01*
X145771161Y-121581766D01*
X146615535Y-121870279D01*
X147471676Y-122119886D01*
X148338265Y-122330279D01*
X149213982Y-122501149D01*
X150097506Y-122632189D01*
X150987517Y-122723092D01*
X151882694Y-122773549D01*
X152781719Y-122783253D01*
X153683270Y-122751896D01*
X154586027Y-122679170D01*
X155488671Y-122564768D01*
X155851191Y-122506967D01*
X156729296Y-122337275D01*
X157599602Y-122126389D01*
X158460295Y-121875023D01*
X159309557Y-121583891D01*
X160145573Y-121253707D01*
X160966527Y-120885185D01*
X161770602Y-120479040D01*
X162555982Y-120035986D01*
X163272449Y-119588544D01*
X164011821Y-119079111D01*
X164727861Y-118535121D01*
X165418989Y-117958217D01*
X166083627Y-117350044D01*
X166720197Y-116712245D01*
X167327119Y-116046465D01*
X167902816Y-115354347D01*
X168445708Y-114637537D01*
X168954218Y-113897677D01*
X169360506Y-113248109D01*
X169808437Y-112458272D01*
X170218724Y-111650703D01*
X170590881Y-110826975D01*
X170924422Y-109988658D01*
X171218861Y-109137324D01*
X171473713Y-108274544D01*
X171688492Y-107401891D01*
X171862711Y-106520936D01*
X171995886Y-105633250D01*
X172087530Y-104740405D01*
X172115115Y-104336942D01*
X172130388Y-104072359D01*
X177584528Y-104061615D01*
X177570884Y-104320987D01*
X177511514Y-105206047D01*
X177427598Y-106062669D01*
X177318158Y-106897583D01*
X177182217Y-107717516D01*
X177018795Y-108529198D01*
X176861452Y-109201979D01*
X176592307Y-110198426D01*
X176284214Y-111178457D01*
X175937485Y-112141493D01*
X175552432Y-113086951D01*
X175129370Y-114014250D01*
X174668610Y-114922810D01*
X174170464Y-115812047D01*
X173635246Y-116681382D01*
X173063269Y-117530232D01*
X172454844Y-118358017D01*
X171810284Y-119164155D01*
X171129902Y-119948064D01*
X171015018Y-120074359D01*
X170884279Y-120214581D01*
X170729790Y-120376004D01*
X170557157Y-120553079D01*
X170371985Y-120740258D01*
X170179880Y-120931993D01*
X169986449Y-121122737D01*
X169797296Y-121306940D01*
X169618027Y-121479056D01*
X169454249Y-121633535D01*
X169311566Y-121764830D01*
X169262305Y-121809037D01*
X168476077Y-122480711D01*
X167666867Y-123118054D01*
X166835863Y-123720349D01*
X165984255Y-124286880D01*
X165113233Y-124816930D01*
X164223984Y-125309783D01*
X163317698Y-125764723D01*
X162395566Y-126181032D01*
X161458775Y-126557994D01*
X161252046Y-126635128D01*
X160288821Y-126968151D01*
X159320597Y-127260104D01*
X158345431Y-127511382D01*
X157361380Y-127722382D01*
X156366501Y-127893500D01*
X155358851Y-128025133D01*
X154336488Y-128117677D01*
X153831805Y-128148757D01*
X153729287Y-128152820D01*
X153590723Y-128156383D01*
X153422398Y-128159426D01*
X153230596Y-128161930D01*
X153021602Y-128163878D01*
X152801700Y-128165250D01*
X152577175Y-128166027D01*
X152354311Y-128166192D01*
X152139393Y-128165725D01*
X151938706Y-128164608D01*
X151758534Y-128162821D01*
X151605162Y-128160347D01*
X151484874Y-128157167D01*
X151450555Y-128155831D01*
X151384442Y-128152382D01*
X151284960Y-128146476D01*
X151160964Y-128138675D01*
X151021312Y-128129539D01*
X150874858Y-128119628D01*
X150836721Y-128116990D01*
X149811229Y-128024737D01*
X148794760Y-127891343D01*
X147788287Y-127717228D01*
X146792782Y-127502814D01*
X145809219Y-127248520D01*
X144838569Y-126954767D01*
X143881806Y-126621975D01*
X142939902Y-126250564D01*
X142013829Y-125840954D01*
X141104560Y-125393567D01*
X140213069Y-124908821D01*
X139340326Y-124387138D01*
X138487306Y-123828938D01*
X137654980Y-123234640D01*
X136844321Y-122604666D01*
X136056303Y-121939435D01*
X135609139Y-121536810D01*
X135467334Y-121403722D01*
X135304294Y-121246684D01*
X135125907Y-121071668D01*
X134938064Y-120884648D01*
X134746654Y-120691594D01*
X134557568Y-120498480D01*
X134376694Y-120311276D01*
X134209923Y-120135956D01*
X134063144Y-119978491D01*
X133958097Y-119862692D01*
X133290998Y-119085419D01*
X132662622Y-118293138D01*
X132071237Y-117483315D01*
X131515111Y-116653415D01*
X130992514Y-115800903D01*
X130501712Y-114923246D01*
X130241639Y-114422859D01*
X129799859Y-113503375D01*
X129397205Y-112568381D01*
X129033902Y-111619062D01*
X128710174Y-110656606D01*
X128426246Y-109682197D01*
X128182343Y-108697025D01*
X127978690Y-107702273D01*
X127815512Y-106699130D01*
X127693033Y-105688782D01*
X127611478Y-104672416D01*
X127571072Y-103651217D01*
X127572039Y-102626373D01*
X127614605Y-101599070D01*
X127671458Y-100855025D01*
X127785660Y-99833864D01*
X127941222Y-98821145D01*
X128137843Y-97817814D01*
X128375218Y-96824821D01*
X128653044Y-95843112D01*
X128971017Y-94873636D01*
X129328835Y-93917339D01*
X129726193Y-92975169D01*
X130162788Y-92048075D01*
X130638316Y-91137003D01*
X130972631Y-90546158D01*
X131505569Y-89674770D01*
X132072488Y-88827899D01*
X132672328Y-88006440D01*
X133304031Y-87211286D01*
X133966538Y-86443330D01*
X134658789Y-85703466D01*
X135379725Y-84992588D01*
X136128288Y-84311588D01*
X136903418Y-83661361D01*
X137704056Y-83042799D01*
X138529143Y-82456797D01*
X139377620Y-81904249D01*
X140248428Y-81386046D01*
X141140508Y-80903084D01*
X142052801Y-80456255D01*
X142984247Y-80046453D01*
X143799506Y-79724430D01*
X144767368Y-79384272D01*
X145745594Y-79085076D01*
X146734447Y-78826783D01*
X147734192Y-78609335D01*
X148745093Y-78432675D01*
X149767411Y-78296745D01*
X150720305Y-78207458D01*
X150863162Y-78197627D01*
X151033309Y-78187398D01*
X151222880Y-78177117D01*
X151424010Y-78167130D01*
X151628831Y-78157783D01*
X151829479Y-78149423D01*
X152018086Y-78142394D01*
X152186788Y-78137044D01*
X152327717Y-78133717D01*
X152418930Y-78132740D01*
X152561805Y-78132609D01*
X152561805Y-83589058D01*
%TD*%
D11*
%TO.P,X1,1,VCC*%
%TO.N,unconnected-(X1-Pad1)*%
X149945400Y-114447000D03*
D12*
%TO.P,X1,2,GND*%
%TO.N,unconnected-(X1-Pad2)*%
X149945400Y-116987000D03*
D11*
%TO.P,X1,3,SDA*%
%TO.N,unconnected-(X1-Pad3)*%
X152485400Y-114447000D03*
%TO.P,X1,4,SCL*%
%TO.N,unconnected-(X1-Pad4)*%
X152485400Y-116987000D03*
D13*
%TO.P,X1,5,GPIO1*%
%TO.N,unconnected-(X1-Pad5)*%
X155025400Y-114447000D03*
%TO.P,X1,6,GPIO2*%
%TO.N,unconnected-(X1-Pad6)*%
X155025400Y-116987000D03*
%TD*%
%TA.AperFunction,NonConductor*%
G36*
X151304432Y-115153816D02*
G01*
X151324525Y-115178799D01*
X151371675Y-115255743D01*
X151371679Y-115255748D01*
X151374375Y-115260147D01*
X151522102Y-115430687D01*
X151695699Y-115574810D01*
X151700151Y-115577412D01*
X151700156Y-115577415D01*
X151749469Y-115606231D01*
X151798192Y-115657870D01*
X151811263Y-115727653D01*
X151784531Y-115793425D01*
X151753995Y-115820783D01*
X151751735Y-115821960D01*
X151571305Y-115957430D01*
X151567733Y-115961168D01*
X151507811Y-116023872D01*
X151446287Y-116059301D01*
X151375375Y-116055844D01*
X151317588Y-116014598D01*
X151298736Y-115981050D01*
X151262767Y-115885103D01*
X151259615Y-115876695D01*
X151172261Y-115760139D01*
X151055705Y-115672785D01*
X151047296Y-115669633D01*
X151047295Y-115669632D01*
X150951238Y-115633622D01*
X150894473Y-115590981D01*
X150869773Y-115524419D01*
X150884980Y-115455070D01*
X150906527Y-115426389D01*
X150990227Y-115342980D01*
X150993887Y-115339333D01*
X151114770Y-115171107D01*
X151170764Y-115127459D01*
X151241468Y-115121013D01*
X151304432Y-115153816D01*
G37*
%TD.AperFunction*%
%TA.AperFunction,NonConductor*%
G36*
X153844432Y-115153816D02*
G01*
X153864525Y-115178799D01*
X153911675Y-115255743D01*
X153911679Y-115255748D01*
X153914375Y-115260147D01*
X154062102Y-115430687D01*
X154235699Y-115574810D01*
X154240151Y-115577412D01*
X154240156Y-115577415D01*
X154289469Y-115606231D01*
X154338192Y-115657870D01*
X154351263Y-115727653D01*
X154324531Y-115793425D01*
X154293995Y-115820783D01*
X154291735Y-115821960D01*
X154111305Y-115957430D01*
X154058121Y-116013084D01*
X154001603Y-116072227D01*
X153955424Y-116120550D01*
X153952509Y-116124824D01*
X153952506Y-116124827D01*
X153858903Y-116262043D01*
X153803992Y-116307046D01*
X153733467Y-116315217D01*
X153669720Y-116283963D01*
X153649023Y-116259479D01*
X153636300Y-116239811D01*
X153576226Y-116146951D01*
X153424377Y-115980071D01*
X153420326Y-115976872D01*
X153420322Y-115976868D01*
X153251366Y-115843434D01*
X153251362Y-115843432D01*
X153247311Y-115840232D01*
X153223935Y-115827328D01*
X153173964Y-115776896D01*
X153159192Y-115707453D01*
X153184308Y-115641047D01*
X153211659Y-115614441D01*
X153369855Y-115501601D01*
X153369859Y-115501597D01*
X153374067Y-115498596D01*
X153533887Y-115339333D01*
X153654770Y-115171107D01*
X153710764Y-115127459D01*
X153781468Y-115121013D01*
X153844432Y-115153816D01*
G37*
%TD.AperFunction*%
%TA.AperFunction,NonConductor*%
G36*
X152846848Y-73046789D02*
G01*
X153304289Y-73052439D01*
X153307429Y-73052517D01*
X153862243Y-73073210D01*
X154034444Y-73079632D01*
X154037528Y-73079786D01*
X154215952Y-73090850D01*
X154762082Y-73124716D01*
X154765180Y-73124946D01*
X155486933Y-73187596D01*
X155490023Y-73187903D01*
X156208593Y-73268158D01*
X156211689Y-73268542D01*
X156927084Y-73366434D01*
X156930122Y-73366888D01*
X157641706Y-73481994D01*
X157644783Y-73482531D01*
X157644810Y-73482536D01*
X158177378Y-73582287D01*
X158352357Y-73615061D01*
X158355366Y-73615662D01*
X159058799Y-73765236D01*
X159061814Y-73765916D01*
X159760694Y-73932535D01*
X159763599Y-73933266D01*
X160457503Y-74116702D01*
X160460468Y-74117524D01*
X161149167Y-74317694D01*
X161152122Y-74318592D01*
X161835499Y-74535518D01*
X161838413Y-74536483D01*
X162515830Y-74769826D01*
X162518716Y-74770859D01*
X163190105Y-75020561D01*
X163192978Y-75021670D01*
X163858035Y-75287731D01*
X163860816Y-75288883D01*
X164519255Y-75571015D01*
X164522039Y-75572248D01*
X164950787Y-75768516D01*
X165173382Y-75870413D01*
X165176168Y-75871730D01*
X165820265Y-76185850D01*
X165823001Y-76187226D01*
X166459468Y-76517010D01*
X166462130Y-76518430D01*
X167090831Y-76863913D01*
X167093465Y-76865403D01*
X167713890Y-77226322D01*
X167716491Y-77227878D01*
X168311064Y-77593602D01*
X168328365Y-77604244D01*
X168330956Y-77605881D01*
X168934127Y-77997424D01*
X168936713Y-77999148D01*
X169145323Y-78142002D01*
X169426383Y-78334469D01*
X169530813Y-78405982D01*
X169533319Y-78407744D01*
X170117959Y-78829412D01*
X170117960Y-78829413D01*
X170120445Y-78831252D01*
X170695418Y-79267915D01*
X170697843Y-79269804D01*
X171262758Y-79721168D01*
X171265122Y-79723105D01*
X171522050Y-79938957D01*
X171819849Y-80189146D01*
X171822221Y-80191189D01*
X172366272Y-80671811D01*
X172368570Y-80673893D01*
X172901758Y-81168807D01*
X172903989Y-81170929D01*
X173426111Y-81680224D01*
X173428242Y-81682356D01*
X173744291Y-82006364D01*
X173937477Y-82204415D01*
X173939629Y-82206677D01*
X174434538Y-82739859D01*
X174436620Y-82742157D01*
X174917283Y-83286255D01*
X174919326Y-83288627D01*
X175083082Y-83483545D01*
X175375042Y-83831063D01*
X175385313Y-83843289D01*
X175387261Y-83845667D01*
X175811398Y-84376505D01*
X175838632Y-84410590D01*
X175840529Y-84413025D01*
X176258953Y-84963982D01*
X176277184Y-84987988D01*
X176279023Y-84990472D01*
X176281594Y-84994037D01*
X176700695Y-85575118D01*
X176702471Y-85577644D01*
X177109240Y-86171792D01*
X177110943Y-86174347D01*
X177502567Y-86777395D01*
X177504218Y-86780006D01*
X177880571Y-87391960D01*
X177882121Y-87394551D01*
X178119771Y-87803073D01*
X178243032Y-88014960D01*
X178244534Y-88017615D01*
X178547839Y-88569562D01*
X178590000Y-88646286D01*
X178591434Y-88648974D01*
X178666960Y-88794735D01*
X178921200Y-89285406D01*
X178922583Y-89288156D01*
X179236616Y-89932276D01*
X179237916Y-89935026D01*
X179435833Y-90367376D01*
X179536094Y-90586395D01*
X179537337Y-90589200D01*
X179819532Y-91247559D01*
X179820714Y-91250413D01*
X180086684Y-91915485D01*
X180087783Y-91918334D01*
X180337590Y-92589742D01*
X180338629Y-92592643D01*
X180571965Y-93270037D01*
X180572925Y-93272938D01*
X180789759Y-93956236D01*
X180790642Y-93959140D01*
X180990923Y-94647987D01*
X180991748Y-94650963D01*
X181028641Y-94790521D01*
X181175169Y-95344808D01*
X181175174Y-95344828D01*
X181175915Y-95347772D01*
X181289549Y-95824404D01*
X181342532Y-96046640D01*
X181343209Y-96049644D01*
X181488130Y-96731091D01*
X181492778Y-96752949D01*
X181493384Y-96755982D01*
X181625821Y-97463690D01*
X181626351Y-97466730D01*
X181741555Y-98178313D01*
X181742011Y-98181362D01*
X181839805Y-98896756D01*
X181840175Y-98899732D01*
X181843162Y-98926441D01*
X181920549Y-99618496D01*
X181920857Y-99621602D01*
X181983502Y-100343292D01*
X181983732Y-100346390D01*
X182025632Y-101022064D01*
X182028662Y-101070934D01*
X182028816Y-101074036D01*
X182055930Y-101801043D01*
X182056008Y-101804183D01*
X182065010Y-102533040D01*
X182065018Y-102535324D01*
X182065012Y-102536362D01*
X182065005Y-102537038D01*
X182063205Y-102682803D01*
X182056007Y-103265594D01*
X182055929Y-103268734D01*
X182039232Y-103716423D01*
X182030805Y-103942368D01*
X182028814Y-103995737D01*
X182028660Y-103998830D01*
X182020251Y-104134444D01*
X181983730Y-104723389D01*
X181983500Y-104726487D01*
X181920855Y-105448169D01*
X181920547Y-105451275D01*
X181840183Y-106169957D01*
X181839802Y-106173021D01*
X181742010Y-106888391D01*
X181741551Y-106891462D01*
X181626352Y-107603019D01*
X181625823Y-107606053D01*
X181525818Y-108140376D01*
X181493389Y-108313640D01*
X181492789Y-108316645D01*
X181383261Y-108831748D01*
X181343210Y-109020103D01*
X181342530Y-109023118D01*
X181246870Y-109424364D01*
X181175920Y-109721961D01*
X181175180Y-109724903D01*
X180991744Y-110418806D01*
X180990939Y-110421706D01*
X180930700Y-110628862D01*
X180790654Y-111110467D01*
X180789766Y-111113391D01*
X180572936Y-111796774D01*
X180571967Y-111799703D01*
X180338621Y-112477132D01*
X180337590Y-112480011D01*
X180115728Y-113076308D01*
X180087767Y-113151459D01*
X180086668Y-113154307D01*
X179820712Y-113819341D01*
X179819530Y-113822195D01*
X179537341Y-114480541D01*
X179536099Y-114483343D01*
X179240088Y-115129982D01*
X179237925Y-115134706D01*
X179236625Y-115137457D01*
X179105443Y-115406527D01*
X178922586Y-115781587D01*
X178921203Y-115784337D01*
X178798608Y-116020940D01*
X178605009Y-116394578D01*
X178591450Y-116420746D01*
X178590016Y-116423434D01*
X178277975Y-116991279D01*
X178244545Y-117052114D01*
X178243043Y-117054769D01*
X177921348Y-117607769D01*
X177882141Y-117675166D01*
X177880568Y-117677795D01*
X177542437Y-118227509D01*
X177504239Y-118289609D01*
X177502603Y-118292199D01*
X177408315Y-118437414D01*
X177110915Y-118895445D01*
X177109206Y-118898008D01*
X176702470Y-119492107D01*
X176700694Y-119494633D01*
X176279055Y-120079233D01*
X176277199Y-120081741D01*
X175991765Y-120457521D01*
X175855608Y-120636776D01*
X175840527Y-120656630D01*
X175838642Y-120659048D01*
X175391348Y-121218966D01*
X175387267Y-121224074D01*
X175385311Y-121226461D01*
X175186826Y-121462718D01*
X174919300Y-121781153D01*
X174917257Y-121783525D01*
X174436635Y-122327576D01*
X174434553Y-122329874D01*
X173939639Y-122863062D01*
X173937517Y-122865293D01*
X173428222Y-123387415D01*
X173426090Y-123389546D01*
X173136842Y-123671689D01*
X172904012Y-123898799D01*
X172901750Y-123900951D01*
X172400681Y-124366053D01*
X172368547Y-124395880D01*
X172366259Y-124397952D01*
X171885631Y-124822544D01*
X171822214Y-124878567D01*
X171819862Y-124880594D01*
X171265131Y-125346637D01*
X171262774Y-125348569D01*
X170741273Y-125765246D01*
X170697860Y-125799933D01*
X170695425Y-125801830D01*
X170132224Y-126229552D01*
X170120456Y-126238489D01*
X170117972Y-126240328D01*
X170005743Y-126321273D01*
X169533325Y-126662002D01*
X169530799Y-126663777D01*
X169426635Y-126735091D01*
X168936715Y-127070504D01*
X168934224Y-127072165D01*
X168341809Y-127456822D01*
X168330947Y-127463875D01*
X168328358Y-127465510D01*
X167716486Y-127841875D01*
X167713885Y-127843431D01*
X167093465Y-128204348D01*
X167090831Y-128205838D01*
X166462135Y-128551318D01*
X166459472Y-128552738D01*
X166214510Y-128679665D01*
X165823040Y-128882504D01*
X165820290Y-128883887D01*
X165621395Y-128980856D01*
X165176149Y-129197930D01*
X165173420Y-129199220D01*
X164787854Y-129375721D01*
X164522051Y-129497398D01*
X164519246Y-129498641D01*
X163860887Y-129780836D01*
X163858033Y-129782018D01*
X163359351Y-129981447D01*
X163270269Y-130017072D01*
X163192974Y-130047983D01*
X163190132Y-130049080D01*
X162518705Y-130298895D01*
X162515826Y-130299926D01*
X161838413Y-130533266D01*
X161835484Y-130534235D01*
X161152111Y-130751063D01*
X161149187Y-130751952D01*
X160460421Y-130952237D01*
X160457441Y-130953063D01*
X160102743Y-131046829D01*
X159763579Y-131136488D01*
X159760674Y-131137219D01*
X159479905Y-131204157D01*
X159061826Y-131303831D01*
X159058811Y-131304511D01*
X158739384Y-131372433D01*
X158355367Y-131454088D01*
X158352384Y-131454684D01*
X157644760Y-131587125D01*
X157641783Y-131587645D01*
X157328472Y-131638369D01*
X156930093Y-131702865D01*
X156927022Y-131703323D01*
X156649093Y-131741316D01*
X156211690Y-131801109D01*
X156208714Y-131801479D01*
X155844415Y-131842216D01*
X155489951Y-131881853D01*
X155486845Y-131882161D01*
X154765189Y-131944804D01*
X154762091Y-131945034D01*
X154215757Y-131978913D01*
X154037503Y-131989966D01*
X154034419Y-131990120D01*
X153860435Y-131996608D01*
X153307402Y-132017234D01*
X153304262Y-132017312D01*
X152575256Y-132026315D01*
X152572106Y-132026315D01*
X151951319Y-132018459D01*
X151813711Y-132016718D01*
X151810537Y-132016637D01*
X151433823Y-132002341D01*
X151057114Y-131988046D01*
X151053913Y-131987884D01*
X150305535Y-131940400D01*
X150302370Y-131940159D01*
X149559231Y-131874176D01*
X149556072Y-131873856D01*
X148818368Y-131789573D01*
X148815200Y-131789170D01*
X148083291Y-131686694D01*
X148080167Y-131686217D01*
X147353969Y-131565902D01*
X147350860Y-131565346D01*
X146630928Y-131427447D01*
X146627830Y-131426813D01*
X145914362Y-131271493D01*
X145911336Y-131270795D01*
X145204266Y-131098237D01*
X145201294Y-131097472D01*
X145079100Y-131064404D01*
X144501081Y-130907982D01*
X144498137Y-130907145D01*
X143917026Y-130734256D01*
X143805005Y-130700928D01*
X143802031Y-130700003D01*
X143116127Y-130477338D01*
X143113177Y-130476340D01*
X142701611Y-130331393D01*
X142434854Y-130237445D01*
X142431980Y-130236393D01*
X141761289Y-129981447D01*
X141758396Y-129980306D01*
X141095669Y-129709480D01*
X141092843Y-129708284D01*
X140613566Y-129498641D01*
X140438379Y-129422011D01*
X140435577Y-129420745D01*
X139789497Y-129119090D01*
X139786730Y-129117757D01*
X139149116Y-128800907D01*
X139146395Y-128799513D01*
X138517926Y-128467957D01*
X138515224Y-128466490D01*
X137895655Y-128120045D01*
X137893034Y-128118537D01*
X137282830Y-127757837D01*
X137280235Y-127756260D01*
X137276445Y-127753894D01*
X136794202Y-127452885D01*
X136679619Y-127381364D01*
X136677061Y-127379724D01*
X136086247Y-126990840D01*
X136083724Y-126989136D01*
X135502911Y-126586395D01*
X135500477Y-126584664D01*
X134929846Y-126168609D01*
X134927406Y-126166784D01*
X134532711Y-125864123D01*
X134367405Y-125737362D01*
X134365048Y-125735510D01*
X134290721Y-125675646D01*
X133815621Y-125292992D01*
X133813323Y-125291096D01*
X133804816Y-125283903D01*
X133274897Y-124835882D01*
X133272624Y-124833913D01*
X133261396Y-124823948D01*
X132745424Y-124366042D01*
X132743218Y-124364037D01*
X132645570Y-124273134D01*
X132523612Y-124159601D01*
X132227350Y-123883805D01*
X132225182Y-123881738D01*
X131721017Y-123389516D01*
X131718890Y-123387389D01*
X131226599Y-122883254D01*
X131224523Y-122881077D01*
X130744341Y-122365262D01*
X130742316Y-122363034D01*
X130274535Y-121835826D01*
X130272573Y-121833561D01*
X130004414Y-121516452D01*
X129817281Y-121295159D01*
X129815364Y-121292836D01*
X129807346Y-121282879D01*
X129372947Y-120743414D01*
X129371118Y-120741087D01*
X128941617Y-120180983D01*
X128939823Y-120178583D01*
X128523692Y-119607980D01*
X128521944Y-119605523D01*
X128304462Y-119291806D01*
X128119279Y-119024677D01*
X128117600Y-119022192D01*
X128109284Y-119009557D01*
X127728707Y-118431363D01*
X127727067Y-118428805D01*
X127652370Y-118309134D01*
X127352142Y-117828141D01*
X127350622Y-117825639D01*
X126989777Y-117215356D01*
X126988270Y-117212735D01*
X126930445Y-117109293D01*
X126641992Y-116593290D01*
X126640543Y-116590622D01*
X126613080Y-116538556D01*
X126388309Y-116112434D01*
X126308904Y-115961897D01*
X126307517Y-115959189D01*
X125990671Y-115321679D01*
X125989335Y-115318906D01*
X125856770Y-115034978D01*
X125687689Y-114672842D01*
X125686428Y-114670053D01*
X125677987Y-114650758D01*
X125588843Y-114447000D01*
X125400067Y-114015511D01*
X125398860Y-114012657D01*
X125128143Y-113349959D01*
X125127010Y-113347086D01*
X124872060Y-112676486D01*
X124870991Y-112673566D01*
X124783375Y-112424789D01*
X124632070Y-111995171D01*
X124631095Y-111992287D01*
X124575809Y-111822054D01*
X124453534Y-111445560D01*
X124408354Y-111306446D01*
X124407419Y-111303441D01*
X124201311Y-110610347D01*
X124200459Y-110607346D01*
X124010983Y-109907186D01*
X124010201Y-109904145D01*
X123880677Y-109373413D01*
X123837648Y-109197101D01*
X123836944Y-109194050D01*
X123681635Y-108480525D01*
X123681002Y-108477434D01*
X123543076Y-107757454D01*
X123542521Y-107754342D01*
X123440928Y-107141150D01*
X123422239Y-107028348D01*
X123421762Y-107025232D01*
X123319274Y-106293236D01*
X123318873Y-106290082D01*
X123305499Y-106173021D01*
X123234586Y-105552339D01*
X123234268Y-105549204D01*
X123210395Y-105280325D01*
X123204278Y-105211439D01*
X123168286Y-104806072D01*
X123168045Y-104802907D01*
X123120561Y-104054524D01*
X123120399Y-104051323D01*
X123104634Y-103635863D01*
X123104470Y-103631551D01*
X127056392Y-103631551D01*
X127056585Y-103636422D01*
X127057461Y-103658557D01*
X127057560Y-103663641D01*
X127057537Y-103687601D01*
X127058168Y-103692040D01*
X127058230Y-103692916D01*
X127059276Y-103704453D01*
X127086567Y-104394168D01*
X127096924Y-104655918D01*
X127096774Y-104664516D01*
X127096786Y-104668764D01*
X127096424Y-104673617D01*
X127098447Y-104698825D01*
X127098586Y-104700563D01*
X127098891Y-104705650D01*
X127099837Y-104729558D01*
X127100646Y-104733961D01*
X127100735Y-104734760D01*
X127102259Y-104746339D01*
X127178233Y-105693155D01*
X127178434Y-105701833D01*
X127178616Y-105706008D01*
X127178451Y-105710870D01*
X127179037Y-105715702D01*
X127181705Y-105737713D01*
X127182217Y-105742799D01*
X127184127Y-105766605D01*
X127185116Y-105770982D01*
X127185237Y-105771774D01*
X127187228Y-105783276D01*
X127301316Y-106724400D01*
X127301872Y-106733116D01*
X127302219Y-106737232D01*
X127302252Y-106742096D01*
X127303033Y-106746894D01*
X127306590Y-106768759D01*
X127307302Y-106773775D01*
X127310181Y-106797528D01*
X127311347Y-106801859D01*
X127311495Y-106802623D01*
X127313962Y-106814081D01*
X127465947Y-107748420D01*
X127466866Y-107757183D01*
X127467371Y-107761214D01*
X127467602Y-107766078D01*
X127468578Y-107770843D01*
X127468578Y-107770847D01*
X127473015Y-107792521D01*
X127473940Y-107797559D01*
X127477771Y-107821109D01*
X127479112Y-107825391D01*
X127479284Y-107826118D01*
X127482223Y-107837495D01*
X127654163Y-108677342D01*
X127671906Y-108764011D01*
X127673190Y-108772803D01*
X127673850Y-108776753D01*
X127674279Y-108781602D01*
X127675450Y-108786330D01*
X127680756Y-108807762D01*
X127681889Y-108812773D01*
X127686672Y-108836136D01*
X127688183Y-108840352D01*
X127688356Y-108840969D01*
X127691795Y-108852350D01*
X127833411Y-109424364D01*
X127918968Y-109769946D01*
X127920630Y-109778786D01*
X127921432Y-109782619D01*
X127922059Y-109787447D01*
X127929602Y-109813335D01*
X127930924Y-109818242D01*
X127936655Y-109841389D01*
X127938338Y-109845543D01*
X127938517Y-109846095D01*
X127942437Y-109857384D01*
X128206909Y-110765020D01*
X128208965Y-110773931D01*
X128209894Y-110777610D01*
X128210716Y-110782401D01*
X128219316Y-110807968D01*
X128220835Y-110812811D01*
X128227491Y-110835655D01*
X128229343Y-110839739D01*
X128229520Y-110840217D01*
X128233930Y-110851419D01*
X128535506Y-111748013D01*
X128537949Y-111756916D01*
X128539004Y-111760475D01*
X128540025Y-111765240D01*
X128541767Y-111769792D01*
X128549633Y-111790347D01*
X128551379Y-111795206D01*
X128551907Y-111796774D01*
X128558950Y-111817713D01*
X128560962Y-111821707D01*
X128561107Y-111822054D01*
X128566039Y-111833218D01*
X128904534Y-112717709D01*
X128907379Y-112726626D01*
X128908545Y-112730037D01*
X128909759Y-112734749D01*
X128920380Y-112759410D01*
X128922321Y-112764187D01*
X128930802Y-112786349D01*
X128932980Y-112790262D01*
X128933132Y-112790589D01*
X128938537Y-112801572D01*
X129090441Y-113154307D01*
X129313759Y-113672871D01*
X129317023Y-113681809D01*
X129318279Y-113685042D01*
X129319688Y-113689704D01*
X129321795Y-113694089D01*
X129331293Y-113713857D01*
X129333448Y-113718590D01*
X129334935Y-113722043D01*
X129342816Y-113740343D01*
X129345159Y-113744173D01*
X129345273Y-113744394D01*
X129351184Y-113755257D01*
X129425945Y-113910858D01*
X129681932Y-114443646D01*
X129761589Y-114609438D01*
X129763917Y-114615167D01*
X129764101Y-114615089D01*
X129766006Y-114619569D01*
X129767559Y-114624180D01*
X129775061Y-114638614D01*
X129781373Y-114650758D01*
X129783142Y-114654298D01*
X129794758Y-114678474D01*
X129797251Y-114682196D01*
X129799476Y-114686091D01*
X129799378Y-114686147D01*
X129802530Y-114691466D01*
X129938895Y-114953835D01*
X130027637Y-115124578D01*
X130030076Y-115130073D01*
X130030272Y-115129982D01*
X130032315Y-115134406D01*
X130034008Y-115138966D01*
X130043593Y-115156105D01*
X130048751Y-115165329D01*
X130050579Y-115168719D01*
X130059767Y-115186396D01*
X130063081Y-115192773D01*
X130065696Y-115196424D01*
X130068035Y-115200235D01*
X130067924Y-115200303D01*
X130071154Y-115205392D01*
X130526285Y-116019262D01*
X130529765Y-116026416D01*
X130531940Y-116030669D01*
X130533819Y-116035170D01*
X130536368Y-116039328D01*
X130536369Y-116039330D01*
X130548028Y-116058350D01*
X130550575Y-116062697D01*
X130562328Y-116083714D01*
X130565049Y-116087278D01*
X130565744Y-116088336D01*
X130572028Y-116097501D01*
X131058065Y-116890372D01*
X131062086Y-116897858D01*
X131064210Y-116901627D01*
X131066266Y-116906042D01*
X131068974Y-116910083D01*
X131068979Y-116910092D01*
X131081330Y-116928523D01*
X131084082Y-116932815D01*
X131094244Y-116949393D01*
X131094250Y-116949401D01*
X131096589Y-116953217D01*
X131099447Y-116956664D01*
X131099976Y-116957404D01*
X131106884Y-116966656D01*
X131510895Y-117569556D01*
X131624137Y-117738546D01*
X131628395Y-117745759D01*
X131630722Y-117749524D01*
X131632953Y-117753849D01*
X131646951Y-117773017D01*
X131648918Y-117775711D01*
X131651810Y-117779842D01*
X131665183Y-117799799D01*
X131668187Y-117803137D01*
X131668788Y-117803910D01*
X131676009Y-117812809D01*
X132226071Y-118566046D01*
X132230318Y-118572623D01*
X132230321Y-118572621D01*
X132233039Y-118576652D01*
X132235444Y-118580890D01*
X132238473Y-118584709D01*
X132238475Y-118584712D01*
X132252401Y-118602271D01*
X132255436Y-118606258D01*
X132267026Y-118622129D01*
X132267032Y-118622136D01*
X132269671Y-118625750D01*
X132272798Y-118628955D01*
X132273768Y-118630103D01*
X132280913Y-118638220D01*
X132865446Y-119375221D01*
X132869822Y-119381447D01*
X132869844Y-119381431D01*
X132872718Y-119385356D01*
X132875284Y-119389497D01*
X132878455Y-119393192D01*
X132878456Y-119393193D01*
X132893243Y-119410422D01*
X132896348Y-119414186D01*
X132908797Y-119429882D01*
X132908806Y-119429892D01*
X132911586Y-119433397D01*
X132914833Y-119436471D01*
X132916472Y-119438260D01*
X132923170Y-119445292D01*
X132964424Y-119493359D01*
X133542635Y-120167065D01*
X133546579Y-120171899D01*
X133548217Y-120174011D01*
X133550896Y-120178080D01*
X133554166Y-120181684D01*
X133554167Y-120181686D01*
X133571856Y-120201185D01*
X133574148Y-120203783D01*
X133589524Y-120221699D01*
X133589534Y-120221709D01*
X133592445Y-120225101D01*
X133595813Y-120228051D01*
X133598817Y-120231085D01*
X133602567Y-120235040D01*
X133656698Y-120294711D01*
X133658663Y-120297021D01*
X133660250Y-120299362D01*
X133674695Y-120314859D01*
X133684556Y-120325438D01*
X133685709Y-120326692D01*
X133704583Y-120347498D01*
X133704588Y-120347502D01*
X133707589Y-120350811D01*
X133709758Y-120352608D01*
X133711963Y-120354841D01*
X133807690Y-120457537D01*
X133809085Y-120459138D01*
X133810298Y-120460889D01*
X133813652Y-120464415D01*
X133835526Y-120487411D01*
X133836398Y-120488337D01*
X133856379Y-120509772D01*
X133856385Y-120509778D01*
X133859441Y-120513056D01*
X133861102Y-120514395D01*
X133862651Y-120515926D01*
X133977622Y-120636791D01*
X133978662Y-120637963D01*
X133979612Y-120639312D01*
X133982624Y-120642429D01*
X134005666Y-120666278D01*
X134006344Y-120666986D01*
X134030047Y-120691904D01*
X134031341Y-120692926D01*
X134032496Y-120694047D01*
X134152204Y-120817945D01*
X134160964Y-120827012D01*
X134161853Y-120828000D01*
X134162678Y-120829153D01*
X134165327Y-120831858D01*
X134189191Y-120856231D01*
X134189775Y-120856831D01*
X134211300Y-120879110D01*
X134211311Y-120879121D01*
X134213897Y-120881797D01*
X134215005Y-120882657D01*
X134215981Y-120883592D01*
X134352228Y-121022741D01*
X134353064Y-121023658D01*
X134353843Y-121024733D01*
X134356356Y-121027267D01*
X134356360Y-121027272D01*
X134380545Y-121051664D01*
X134381031Y-121052157D01*
X134405542Y-121077190D01*
X134406597Y-121077998D01*
X134407506Y-121078857D01*
X134545732Y-121218271D01*
X134546608Y-121219220D01*
X134547417Y-121220322D01*
X134550012Y-121222905D01*
X134550028Y-121222923D01*
X134574278Y-121247066D01*
X134574855Y-121247644D01*
X134596793Y-121269771D01*
X134596809Y-121269786D01*
X134599374Y-121272373D01*
X134600469Y-121273201D01*
X134601418Y-121274086D01*
X134735791Y-121407872D01*
X134736804Y-121408953D01*
X134737735Y-121410202D01*
X134740678Y-121413089D01*
X134740688Y-121413100D01*
X134764611Y-121436571D01*
X134765270Y-121437221D01*
X134789733Y-121461577D01*
X134790974Y-121462503D01*
X134792085Y-121463525D01*
X134916758Y-121585842D01*
X134918082Y-121587233D01*
X134919257Y-121588779D01*
X134922762Y-121592155D01*
X134922763Y-121592156D01*
X134945889Y-121614430D01*
X134946724Y-121615241D01*
X134970992Y-121639051D01*
X134972556Y-121640200D01*
X134974003Y-121641509D01*
X134987553Y-121654560D01*
X135083084Y-121746575D01*
X135085097Y-121748642D01*
X135086760Y-121750774D01*
X135090306Y-121754102D01*
X135112870Y-121775279D01*
X135114035Y-121776387D01*
X135137660Y-121799142D01*
X135139849Y-121800720D01*
X135142075Y-121802690D01*
X135229321Y-121884573D01*
X135233151Y-121888377D01*
X135235817Y-121891652D01*
X135260685Y-121914043D01*
X135262557Y-121915764D01*
X135284614Y-121936466D01*
X135288064Y-121938885D01*
X135292306Y-121942514D01*
X135546363Y-122171266D01*
X135683307Y-122294570D01*
X135687710Y-122299053D01*
X135687841Y-122298921D01*
X135691304Y-122302336D01*
X135694498Y-122306013D01*
X135698214Y-122309150D01*
X135698221Y-122309157D01*
X135717290Y-122325255D01*
X135720316Y-122327894D01*
X135727887Y-122334710D01*
X135740105Y-122345711D01*
X135743830Y-122348209D01*
X135747364Y-122350963D01*
X135747302Y-122351042D01*
X135752322Y-122354827D01*
X136484930Y-122973282D01*
X136491141Y-122979162D01*
X136494305Y-122982038D01*
X136497647Y-122985585D01*
X136501494Y-122988575D01*
X136501499Y-122988579D01*
X136519012Y-123002189D01*
X136522975Y-123005399D01*
X136537823Y-123017934D01*
X136537835Y-123017943D01*
X136541254Y-123020829D01*
X136545053Y-123023205D01*
X136545764Y-123023723D01*
X136555265Y-123030361D01*
X137310821Y-123617515D01*
X137317364Y-123623224D01*
X137320558Y-123625899D01*
X137324035Y-123629301D01*
X137336297Y-123638056D01*
X137346024Y-123645002D01*
X137350121Y-123648054D01*
X137369001Y-123662726D01*
X137372888Y-123664943D01*
X137373571Y-123665400D01*
X137383400Y-123671689D01*
X137994022Y-124107685D01*
X138158961Y-124225455D01*
X138165773Y-124230931D01*
X138169056Y-124233461D01*
X138172663Y-124236715D01*
X138195287Y-124251519D01*
X138199457Y-124254371D01*
X138218919Y-124268267D01*
X138222896Y-124270327D01*
X138223542Y-124270722D01*
X138233675Y-124276641D01*
X138419074Y-124397962D01*
X139028373Y-124796675D01*
X139035470Y-124801918D01*
X139038783Y-124804263D01*
X139042529Y-124807375D01*
X139046710Y-124809874D01*
X139065710Y-124821232D01*
X139070021Y-124823928D01*
X139090003Y-124837004D01*
X139094062Y-124838901D01*
X139094701Y-124839257D01*
X139105104Y-124844779D01*
X139918058Y-125330724D01*
X139925416Y-125335711D01*
X139928773Y-125337887D01*
X139932632Y-125340836D01*
X139936899Y-125343156D01*
X139956321Y-125353717D01*
X139960769Y-125356254D01*
X139981251Y-125368497D01*
X139985384Y-125370228D01*
X139985981Y-125370529D01*
X139996665Y-125375654D01*
X140826981Y-125827136D01*
X140834583Y-125831848D01*
X140837990Y-125833864D01*
X140841969Y-125836656D01*
X140846335Y-125838804D01*
X140846338Y-125838806D01*
X140866169Y-125848564D01*
X140870721Y-125850920D01*
X140891654Y-125862302D01*
X140895858Y-125863864D01*
X140896427Y-125864123D01*
X140907359Y-125868830D01*
X141754169Y-126285486D01*
X141761988Y-126289901D01*
X141765437Y-126291757D01*
X141769534Y-126294388D01*
X141773986Y-126296357D01*
X141794175Y-126305287D01*
X141798837Y-126307464D01*
X141816178Y-126315997D01*
X141816194Y-126316004D01*
X141820209Y-126317979D01*
X141824475Y-126319369D01*
X141825028Y-126319594D01*
X141836155Y-126323855D01*
X142698612Y-126705326D01*
X142706635Y-126709435D01*
X142710126Y-126711133D01*
X142714324Y-126713594D01*
X142718851Y-126715379D01*
X142718853Y-126715380D01*
X142739405Y-126723484D01*
X142744147Y-126725467D01*
X142765906Y-126735091D01*
X142770228Y-126736307D01*
X142770762Y-126736499D01*
X142782078Y-126740311D01*
X143643813Y-127080110D01*
X143659283Y-127086210D01*
X143667455Y-127089981D01*
X143671023Y-127091540D01*
X143675330Y-127093833D01*
X143700775Y-127102683D01*
X143705583Y-127104467D01*
X143727738Y-127113203D01*
X143732096Y-127114239D01*
X143732637Y-127114409D01*
X143744135Y-127117766D01*
X144635187Y-127427701D01*
X144643543Y-127431151D01*
X144647167Y-127432562D01*
X144651544Y-127434667D01*
X144656190Y-127436073D01*
X144656200Y-127436077D01*
X144677326Y-127442470D01*
X144682192Y-127444052D01*
X144704694Y-127451878D01*
X144709098Y-127452736D01*
X144709649Y-127452885D01*
X144721259Y-127455765D01*
X145263422Y-127619842D01*
X145625331Y-127729369D01*
X145633797Y-127732465D01*
X145637484Y-127733729D01*
X145641958Y-127735660D01*
X145646675Y-127736879D01*
X145646679Y-127736881D01*
X145668027Y-127742401D01*
X145672980Y-127743790D01*
X145691473Y-127749386D01*
X145691475Y-127749387D01*
X145695766Y-127750685D01*
X145700191Y-127751361D01*
X145700746Y-127751487D01*
X145712482Y-127753894D01*
X146628693Y-127990775D01*
X146637305Y-127993531D01*
X146641011Y-127994635D01*
X146645560Y-127996381D01*
X146650318Y-127997406D01*
X146650322Y-127997407D01*
X146671899Y-128002054D01*
X146676908Y-128003240D01*
X146695607Y-128008075D01*
X146695614Y-128008076D01*
X146699941Y-128009195D01*
X146704391Y-128009690D01*
X146704946Y-128009792D01*
X146716768Y-128011718D01*
X147614726Y-128205121D01*
X147644264Y-128211483D01*
X147652914Y-128213867D01*
X147656720Y-128214833D01*
X147661341Y-128216394D01*
X147666142Y-128217225D01*
X147666148Y-128217226D01*
X147687887Y-128220986D01*
X147692926Y-128221964D01*
X147716210Y-128226979D01*
X147720687Y-128227292D01*
X147721255Y-128227373D01*
X147733116Y-128228811D01*
X148194153Y-128308568D01*
X148671032Y-128391066D01*
X148679778Y-128393096D01*
X148683614Y-128393905D01*
X148688286Y-128395273D01*
X148693106Y-128395905D01*
X148693108Y-128395906D01*
X148715016Y-128398781D01*
X148720099Y-128399554D01*
X148724262Y-128400274D01*
X148743557Y-128403612D01*
X148748032Y-128403742D01*
X148748637Y-128403803D01*
X148760522Y-128404753D01*
X149166142Y-128457983D01*
X149707977Y-128529090D01*
X149716745Y-128530752D01*
X149720663Y-128531412D01*
X149725382Y-128532588D01*
X149736875Y-128533622D01*
X149752235Y-128535004D01*
X149757337Y-128535568D01*
X149762386Y-128536231D01*
X149780969Y-128538669D01*
X149785447Y-128538616D01*
X149786098Y-128538655D01*
X149797957Y-128539117D01*
X150751909Y-128624934D01*
X150757250Y-128625567D01*
X150761382Y-128626506D01*
X150794759Y-128628815D01*
X150797297Y-128629017D01*
X150811555Y-128630300D01*
X150822972Y-128631327D01*
X150822976Y-128631327D01*
X150827433Y-128631728D01*
X150831622Y-128631508D01*
X150836933Y-128631737D01*
X150837596Y-128631782D01*
X150839915Y-128631939D01*
X150840123Y-128632015D01*
X150840127Y-128631953D01*
X150875287Y-128634385D01*
X150875298Y-128634385D01*
X150876204Y-128634448D01*
X150876520Y-128634425D01*
X150876786Y-128634433D01*
X150941500Y-128638813D01*
X150946997Y-128639185D01*
X150947407Y-128639228D01*
X150947877Y-128639333D01*
X150971542Y-128640881D01*
X150987116Y-128641900D01*
X150987397Y-128641919D01*
X151012049Y-128643587D01*
X151023426Y-128644357D01*
X151023910Y-128644320D01*
X151024309Y-128644333D01*
X151087839Y-128648489D01*
X151088280Y-128648535D01*
X151088802Y-128648650D01*
X151127818Y-128651105D01*
X151158435Y-128653108D01*
X151162688Y-128653386D01*
X151162690Y-128653386D01*
X151164233Y-128653487D01*
X151164772Y-128653446D01*
X151165228Y-128653459D01*
X151213218Y-128656477D01*
X151213857Y-128656541D01*
X151214600Y-128656703D01*
X151253547Y-128659015D01*
X151289514Y-128661278D01*
X151290270Y-128661218D01*
X151290933Y-128661235D01*
X151314817Y-128662653D01*
X151316254Y-128662789D01*
X151317745Y-128663101D01*
X151355486Y-128665070D01*
X151356295Y-128665115D01*
X151388898Y-128667051D01*
X151388807Y-128668579D01*
X151390572Y-128668350D01*
X151390610Y-128667386D01*
X151393564Y-128667501D01*
X151425986Y-128668763D01*
X151428748Y-128668961D01*
X151431319Y-128669431D01*
X151436174Y-128669559D01*
X151436179Y-128669560D01*
X151441248Y-128669694D01*
X151445497Y-128669806D01*
X151448650Y-128669930D01*
X151460622Y-128670554D01*
X151463469Y-128670296D01*
X151464167Y-128670299D01*
X151467304Y-128670383D01*
X151468825Y-128670432D01*
X151470807Y-128670509D01*
X151497269Y-128671539D01*
X151501740Y-128671713D01*
X151504330Y-128671444D01*
X151507165Y-128671436D01*
X151552567Y-128672637D01*
X151554751Y-128672768D01*
X151556886Y-128673135D01*
X151593615Y-128673727D01*
X151594901Y-128673755D01*
X151628448Y-128674642D01*
X151630594Y-128674392D01*
X151632827Y-128674360D01*
X151710921Y-128675620D01*
X151712142Y-128675683D01*
X151713444Y-128675899D01*
X151731033Y-128676073D01*
X151751383Y-128676275D01*
X151752167Y-128676285D01*
X151767584Y-128676534D01*
X151787116Y-128676849D01*
X151788427Y-128676683D01*
X151789660Y-128676655D01*
X151859094Y-128677344D01*
X151894106Y-128677691D01*
X151894934Y-128677729D01*
X151895850Y-128677877D01*
X151934464Y-128678092D01*
X151934887Y-128678095D01*
X151943817Y-128678183D01*
X151967926Y-128678423D01*
X151967936Y-128678423D01*
X151970481Y-128678448D01*
X151971396Y-128678327D01*
X151972242Y-128678303D01*
X152051255Y-128678742D01*
X152096918Y-128678996D01*
X152097559Y-128679023D01*
X152098278Y-128679137D01*
X152124207Y-128679193D01*
X152137409Y-128679222D01*
X152137836Y-128679224D01*
X152171366Y-128679411D01*
X152171375Y-128679411D01*
X152173403Y-128679422D01*
X152174121Y-128679323D01*
X152174755Y-128679303D01*
X152313545Y-128679605D01*
X152314077Y-128679626D01*
X152314692Y-128679721D01*
X152316450Y-128679720D01*
X152316458Y-128679720D01*
X152338806Y-128679703D01*
X152353787Y-128679692D01*
X152390065Y-128679771D01*
X152390680Y-128679684D01*
X152391239Y-128679665D01*
X152468505Y-128679608D01*
X152537886Y-128679556D01*
X152538376Y-128679574D01*
X152538953Y-128679662D01*
X152571428Y-128679550D01*
X152577732Y-128679528D01*
X152578073Y-128679527D01*
X152584090Y-128679522D01*
X152614424Y-128679500D01*
X152615000Y-128679417D01*
X152615526Y-128679397D01*
X152686331Y-128679152D01*
X152763791Y-128678884D01*
X152764313Y-128678902D01*
X152764906Y-128678990D01*
X152804452Y-128678743D01*
X152804803Y-128678742D01*
X152838654Y-128678625D01*
X152838658Y-128678625D01*
X152840345Y-128678619D01*
X152840930Y-128678533D01*
X152841434Y-128678513D01*
X152985157Y-128677616D01*
X152985740Y-128677634D01*
X152986391Y-128677729D01*
X152988252Y-128677712D01*
X152988264Y-128677712D01*
X153025529Y-128677364D01*
X153025918Y-128677361D01*
X153059817Y-128677150D01*
X153059829Y-128677149D01*
X153061674Y-128677138D01*
X153062322Y-128677041D01*
X153062901Y-128677016D01*
X153195821Y-128675777D01*
X153196516Y-128675796D01*
X153197304Y-128675908D01*
X153199534Y-128675879D01*
X153199537Y-128675879D01*
X153235809Y-128675406D01*
X153236275Y-128675400D01*
X153270032Y-128675085D01*
X153270040Y-128675085D01*
X153272249Y-128675064D01*
X153273031Y-128674944D01*
X153273765Y-128674910D01*
X153389655Y-128673398D01*
X153390630Y-128673420D01*
X153391687Y-128673565D01*
X153394624Y-128673512D01*
X153394629Y-128673512D01*
X153417817Y-128673092D01*
X153430096Y-128672870D01*
X153430642Y-128672862D01*
X153465967Y-128672401D01*
X153467027Y-128672235D01*
X153467996Y-128672186D01*
X153511991Y-128671390D01*
X153560776Y-128670509D01*
X153562337Y-128670535D01*
X153563937Y-128670742D01*
X153601536Y-128669775D01*
X153602479Y-128669754D01*
X153636868Y-128669133D01*
X153638461Y-128668875D01*
X153640024Y-128668785D01*
X153703615Y-128667150D01*
X153706774Y-128667169D01*
X153709654Y-128667501D01*
X153714526Y-128667308D01*
X153714529Y-128667308D01*
X153739837Y-128666305D01*
X153745158Y-128666094D01*
X153746897Y-128666037D01*
X153779344Y-128665203D01*
X153782198Y-128664719D01*
X153785444Y-128664498D01*
X153797248Y-128664030D01*
X153813135Y-128663400D01*
X153818996Y-128663330D01*
X153823445Y-128663745D01*
X153856449Y-128661712D01*
X153859173Y-128661575D01*
X153872556Y-128661045D01*
X153884491Y-128660572D01*
X153884493Y-128660572D01*
X153888980Y-128660394D01*
X153893353Y-128659590D01*
X153899410Y-128659067D01*
X154328289Y-128632655D01*
X154334393Y-128632428D01*
X154338091Y-128632380D01*
X154342944Y-128632692D01*
X154347783Y-128632254D01*
X154347786Y-128632254D01*
X154356655Y-128631451D01*
X154373635Y-128629914D01*
X154377195Y-128629643D01*
X154395853Y-128628494D01*
X154400370Y-128628216D01*
X154400371Y-128628216D01*
X154404850Y-128627940D01*
X154409250Y-128627031D01*
X154413677Y-128626440D01*
X154413700Y-128626612D01*
X154419306Y-128625780D01*
X154792399Y-128592007D01*
X155368184Y-128539888D01*
X155375982Y-128539631D01*
X155375982Y-128539625D01*
X155380844Y-128539369D01*
X155385704Y-128539488D01*
X155390523Y-128538859D01*
X155390533Y-128538858D01*
X155412818Y-128535947D01*
X155417778Y-128535398D01*
X155425476Y-128534701D01*
X155437400Y-128533622D01*
X155437401Y-128533622D01*
X155441862Y-128533218D01*
X155446220Y-128532186D01*
X155447817Y-128531926D01*
X155458321Y-128530002D01*
X156396468Y-128407448D01*
X156404923Y-128406830D01*
X156409248Y-128406426D01*
X156414124Y-128406349D01*
X156418925Y-128405523D01*
X156418928Y-128405523D01*
X156440814Y-128401759D01*
X156445846Y-128400998D01*
X156465127Y-128398479D01*
X156469574Y-128397898D01*
X156473892Y-128396693D01*
X156474804Y-128396507D01*
X156486048Y-128393978D01*
X156982621Y-128308568D01*
X157412253Y-128234672D01*
X157421238Y-128233648D01*
X157425061Y-128233133D01*
X157429928Y-128232856D01*
X157456309Y-128227200D01*
X157461280Y-128226240D01*
X157484759Y-128222201D01*
X157489029Y-128220821D01*
X157489550Y-128220693D01*
X157501133Y-128217589D01*
X158417221Y-128021160D01*
X158426229Y-128019758D01*
X158429977Y-128019095D01*
X158434829Y-128018620D01*
X158450485Y-128014586D01*
X158460874Y-128011909D01*
X158465893Y-128010725D01*
X158484749Y-128006681D01*
X158484748Y-128006681D01*
X158489138Y-128005740D01*
X158493344Y-128004188D01*
X158493817Y-128004051D01*
X158505334Y-128000453D01*
X159243824Y-127810160D01*
X159413113Y-127766538D01*
X159421714Y-127764836D01*
X159425717Y-127763960D01*
X159430546Y-127763287D01*
X159435206Y-127761882D01*
X159435219Y-127761879D01*
X159456387Y-127755496D01*
X159461319Y-127754117D01*
X159480092Y-127749279D01*
X159484431Y-127748161D01*
X159488563Y-127746441D01*
X159489250Y-127746211D01*
X159500346Y-127742240D01*
X160401650Y-127470466D01*
X160409386Y-127468608D01*
X160414019Y-127467397D01*
X160418808Y-127466534D01*
X160423404Y-127464945D01*
X160423408Y-127464944D01*
X160437372Y-127460116D01*
X160444527Y-127457642D01*
X160449277Y-127456105D01*
X160472365Y-127449143D01*
X160476429Y-127447254D01*
X160477639Y-127446793D01*
X160487911Y-127442643D01*
X161382761Y-127133259D01*
X161389123Y-127131247D01*
X161389317Y-127131191D01*
X161394078Y-127130213D01*
X161424345Y-127118920D01*
X161427188Y-127117899D01*
X161450448Y-127109857D01*
X161450449Y-127109857D01*
X161454682Y-127108393D01*
X161458660Y-127106346D01*
X161460155Y-127105707D01*
X161465639Y-127103513D01*
X161601406Y-127052856D01*
X161607575Y-127050734D01*
X161608621Y-127050404D01*
X161613361Y-127049304D01*
X161642920Y-127037410D01*
X161645907Y-127036252D01*
X161649737Y-127034823D01*
X161672825Y-127026208D01*
X161676760Y-127024062D01*
X161679126Y-127022982D01*
X161684411Y-127020714D01*
X161760764Y-126989990D01*
X162553386Y-126671041D01*
X162562630Y-126667915D01*
X162565705Y-126666804D01*
X162570402Y-126665506D01*
X162574839Y-126663503D01*
X162574847Y-126663500D01*
X162594773Y-126654504D01*
X162599581Y-126652452D01*
X162617301Y-126645322D01*
X162617304Y-126645321D01*
X162621463Y-126643647D01*
X162625345Y-126641399D01*
X162625407Y-126641369D01*
X162636612Y-126635614D01*
X162662185Y-126624069D01*
X163327156Y-126323859D01*
X163495609Y-126247809D01*
X163504380Y-126244433D01*
X163507694Y-126243078D01*
X163512322Y-126241592D01*
X163516669Y-126239410D01*
X163516676Y-126239407D01*
X163536310Y-126229552D01*
X163540987Y-126227323D01*
X163558507Y-126219413D01*
X163558510Y-126219411D01*
X163562593Y-126217568D01*
X163566371Y-126215166D01*
X163566634Y-126215024D01*
X163577340Y-126208954D01*
X163725967Y-126134346D01*
X164254900Y-125868830D01*
X164421537Y-125785181D01*
X164429824Y-125781595D01*
X164433362Y-125779977D01*
X164437923Y-125778304D01*
X164461484Y-125765246D01*
X164466018Y-125762852D01*
X164487306Y-125752166D01*
X164490981Y-125749612D01*
X164491473Y-125749319D01*
X164501633Y-125742994D01*
X164669183Y-125650132D01*
X165329972Y-125283900D01*
X165337782Y-125280136D01*
X165341506Y-125278247D01*
X165346006Y-125276385D01*
X165350172Y-125273850D01*
X165369096Y-125262335D01*
X165373511Y-125259770D01*
X165390481Y-125250364D01*
X165390492Y-125250357D01*
X165394405Y-125248188D01*
X165397976Y-125245483D01*
X165398634Y-125245054D01*
X165408302Y-125238475D01*
X166219689Y-124744715D01*
X166227081Y-124740776D01*
X166230949Y-124738613D01*
X166235371Y-124736572D01*
X166257964Y-124721541D01*
X166262195Y-124718848D01*
X166282693Y-124706375D01*
X166286157Y-124703522D01*
X166287010Y-124702916D01*
X166296158Y-124696133D01*
X166986754Y-124236715D01*
X167089522Y-124168349D01*
X167096525Y-124164247D01*
X167100485Y-124161820D01*
X167104824Y-124159601D01*
X167126823Y-124143657D01*
X167130972Y-124140775D01*
X167147245Y-124129949D01*
X167150979Y-124127465D01*
X167154322Y-124124477D01*
X167155259Y-124123753D01*
X167163991Y-124116717D01*
X167208788Y-124084249D01*
X167938263Y-123555540D01*
X167944880Y-123551300D01*
X167948917Y-123548597D01*
X167953168Y-123546205D01*
X167974569Y-123529349D01*
X167978535Y-123526352D01*
X167998067Y-123512196D01*
X168001285Y-123509079D01*
X168002296Y-123508231D01*
X168010617Y-123500958D01*
X168764705Y-122907031D01*
X168771128Y-122902543D01*
X168771127Y-122902541D01*
X168775059Y-122899675D01*
X168779206Y-122897118D01*
X168799925Y-122879418D01*
X168803781Y-122876254D01*
X168822766Y-122861301D01*
X168825858Y-122858057D01*
X168826938Y-122857074D01*
X168834837Y-122849592D01*
X169211308Y-122527973D01*
X169566020Y-122224943D01*
X169571186Y-122220761D01*
X169571416Y-122220585D01*
X169575500Y-122217927D01*
X169599484Y-122196404D01*
X169601765Y-122194406D01*
X169623878Y-122175515D01*
X169625795Y-122173336D01*
X169629801Y-122169806D01*
X169629839Y-122169780D01*
X169656343Y-122145391D01*
X169657507Y-122144333D01*
X169678635Y-122125373D01*
X169678636Y-122125372D01*
X169681970Y-122122380D01*
X169683641Y-122120385D01*
X169685670Y-122118405D01*
X169773291Y-122037777D01*
X169775362Y-122035992D01*
X169777491Y-122034530D01*
X169781031Y-122031191D01*
X169803723Y-122009788D01*
X169804857Y-122008732D01*
X169825776Y-121989482D01*
X169825784Y-121989473D01*
X169829086Y-121986435D01*
X169830713Y-121984442D01*
X169832679Y-121982475D01*
X169941897Y-121879459D01*
X169943278Y-121878243D01*
X169944808Y-121877172D01*
X169971655Y-121851396D01*
X169972373Y-121850713D01*
X169997188Y-121827307D01*
X169998350Y-121825848D01*
X169999655Y-121824514D01*
X170124605Y-121704550D01*
X170125671Y-121703596D01*
X170126894Y-121702727D01*
X170154022Y-121676309D01*
X170154518Y-121675830D01*
X170176672Y-121654560D01*
X170179526Y-121651820D01*
X170180452Y-121650637D01*
X170181462Y-121649588D01*
X170316521Y-121518062D01*
X170317438Y-121517230D01*
X170318519Y-121516452D01*
X170345630Y-121489717D01*
X170346100Y-121489257D01*
X170368566Y-121467379D01*
X170371117Y-121464895D01*
X170371931Y-121463838D01*
X170372787Y-121462937D01*
X170374167Y-121461577D01*
X170512415Y-121325250D01*
X170513285Y-121324451D01*
X170514318Y-121323698D01*
X170541317Y-121296750D01*
X170541651Y-121296420D01*
X170566683Y-121271736D01*
X170567464Y-121270709D01*
X170568271Y-121269849D01*
X170706910Y-121131477D01*
X170707816Y-121130635D01*
X170708905Y-121129831D01*
X170735709Y-121102736D01*
X170736073Y-121102370D01*
X170760830Y-121077662D01*
X170761643Y-121076580D01*
X170762496Y-121075660D01*
X170894609Y-120942114D01*
X170895674Y-120941110D01*
X170896917Y-120940178D01*
X170923315Y-120913101D01*
X170923794Y-120912612D01*
X170948138Y-120888005D01*
X170949060Y-120886761D01*
X170950055Y-120885673D01*
X171070171Y-120762465D01*
X171071561Y-120761133D01*
X171073114Y-120759946D01*
X171098848Y-120733056D01*
X171099532Y-120732349D01*
X171123209Y-120708063D01*
X171124357Y-120706489D01*
X171125665Y-120705035D01*
X171228342Y-120597751D01*
X171230439Y-120595696D01*
X171232579Y-120594014D01*
X171257089Y-120567726D01*
X171258122Y-120566634D01*
X171280750Y-120542989D01*
X171282330Y-120540782D01*
X171284301Y-120538540D01*
X171311124Y-120509772D01*
X171364034Y-120453024D01*
X171365952Y-120451096D01*
X171367957Y-120449481D01*
X171392238Y-120422788D01*
X171393288Y-120421648D01*
X171412686Y-120400844D01*
X171412690Y-120400839D01*
X171415738Y-120397570D01*
X171417205Y-120395463D01*
X171419015Y-120393352D01*
X171457712Y-120350811D01*
X171483440Y-120322528D01*
X171487868Y-120317916D01*
X171491486Y-120314859D01*
X171512822Y-120290277D01*
X171514744Y-120288114D01*
X171531545Y-120269644D01*
X171534565Y-120266324D01*
X171537086Y-120262607D01*
X171537662Y-120261875D01*
X171541487Y-120257251D01*
X172173910Y-119528598D01*
X172179741Y-119522607D01*
X172182776Y-119519360D01*
X172186366Y-119516070D01*
X172203290Y-119494904D01*
X172206539Y-119491005D01*
X172219319Y-119476280D01*
X172219321Y-119476277D01*
X172222254Y-119472898D01*
X172224679Y-119469137D01*
X172225280Y-119468335D01*
X172231965Y-119459042D01*
X172832934Y-118707422D01*
X172838781Y-118700907D01*
X172841467Y-118697788D01*
X172844914Y-118694361D01*
X172860931Y-118672570D01*
X172863998Y-118668570D01*
X172878929Y-118649896D01*
X172881206Y-118646030D01*
X172881641Y-118645398D01*
X172888099Y-118635605D01*
X172890748Y-118632001D01*
X173455286Y-117863927D01*
X173461069Y-117856929D01*
X173463454Y-117853920D01*
X173466763Y-117850349D01*
X173481812Y-117828015D01*
X173484778Y-117823803D01*
X173496204Y-117808258D01*
X173496210Y-117808248D01*
X173498863Y-117804639D01*
X173500982Y-117800681D01*
X173501263Y-117800236D01*
X173507460Y-117789952D01*
X173518357Y-117773781D01*
X174040612Y-116998720D01*
X174046264Y-116991279D01*
X174048391Y-116988356D01*
X174051548Y-116984656D01*
X174065648Y-116961754D01*
X174068449Y-116957408D01*
X174079182Y-116941480D01*
X174081694Y-116937752D01*
X174083651Y-116933708D01*
X174083851Y-116933360D01*
X174089695Y-116922695D01*
X174588543Y-116112434D01*
X174593969Y-116104644D01*
X174595905Y-116101740D01*
X174598910Y-116097908D01*
X174612026Y-116074497D01*
X174614647Y-116070035D01*
X174624713Y-116053684D01*
X174624715Y-116053680D01*
X174627065Y-116049863D01*
X174628850Y-116045752D01*
X174628985Y-116045493D01*
X174634453Y-116034461D01*
X174920175Y-115524419D01*
X175098730Y-115205681D01*
X175103857Y-115197634D01*
X175105647Y-115194691D01*
X175108493Y-115190737D01*
X175120611Y-115166842D01*
X175123053Y-115162262D01*
X175132436Y-115145514D01*
X175132439Y-115145507D01*
X175134623Y-115141609D01*
X175136235Y-115137434D01*
X175136322Y-115137248D01*
X175141380Y-115125889D01*
X175570801Y-114279126D01*
X175575604Y-114270851D01*
X175577265Y-114267848D01*
X175579944Y-114263781D01*
X175581967Y-114259348D01*
X175591076Y-114239384D01*
X175593331Y-114234700D01*
X175601994Y-114217617D01*
X175604020Y-114213622D01*
X175605463Y-114209370D01*
X175605543Y-114209179D01*
X175610119Y-114197641D01*
X175698781Y-114003304D01*
X176004421Y-113333379D01*
X176008872Y-113324924D01*
X176010409Y-113321852D01*
X176012917Y-113317680D01*
X176014750Y-113313178D01*
X176014754Y-113313171D01*
X176023036Y-113292836D01*
X176025095Y-113288064D01*
X176028969Y-113279571D01*
X176034911Y-113266548D01*
X176036178Y-113262235D01*
X176036272Y-113261984D01*
X176040341Y-113250343D01*
X176063414Y-113193691D01*
X176399239Y-112369105D01*
X176403270Y-112360617D01*
X176404740Y-112357350D01*
X176407075Y-112353076D01*
X176416173Y-112327805D01*
X176418027Y-112322972D01*
X176425270Y-112305188D01*
X176425270Y-112305187D01*
X176426963Y-112301031D01*
X176428050Y-112296675D01*
X176428146Y-112296381D01*
X176431719Y-112284629D01*
X176599826Y-111817713D01*
X176754931Y-111386909D01*
X176758529Y-111378452D01*
X176759921Y-111374986D01*
X176762082Y-111370614D01*
X176770146Y-111344961D01*
X176771792Y-111340079D01*
X176778326Y-111321931D01*
X176778327Y-111321927D01*
X176779843Y-111317717D01*
X176780747Y-111313331D01*
X176780865Y-111312913D01*
X176783915Y-111301164D01*
X176996932Y-110623565D01*
X177071150Y-110387482D01*
X177074307Y-110379130D01*
X177075635Y-110375387D01*
X177077612Y-110370941D01*
X177084644Y-110344906D01*
X177086083Y-110339979D01*
X177091883Y-110321530D01*
X177093228Y-110317253D01*
X177093953Y-110312825D01*
X177094105Y-110312187D01*
X177096612Y-110300597D01*
X177175198Y-110009653D01*
X177325335Y-109453803D01*
X177347049Y-109373413D01*
X177349181Y-109367060D01*
X177349054Y-109367020D01*
X177350526Y-109362378D01*
X177352351Y-109357864D01*
X177353459Y-109353127D01*
X177353461Y-109353120D01*
X177358977Y-109329532D01*
X177360026Y-109325367D01*
X177365632Y-109304613D01*
X177366801Y-109300286D01*
X177367345Y-109295833D01*
X177368203Y-109291434D01*
X177368257Y-109291445D01*
X177369433Y-109284824D01*
X177487121Y-108781602D01*
X177509732Y-108684921D01*
X177511489Y-108679073D01*
X177511287Y-108679016D01*
X177512613Y-108674334D01*
X177514298Y-108669763D01*
X177520233Y-108640286D01*
X177521053Y-108636515D01*
X177527199Y-108610234D01*
X177527591Y-108605762D01*
X177528299Y-108601339D01*
X177528418Y-108601358D01*
X177529290Y-108595299D01*
X177545550Y-108514543D01*
X177677961Y-107856885D01*
X177679692Y-107850345D01*
X177679570Y-107850315D01*
X177680735Y-107845584D01*
X177682259Y-107840966D01*
X177687004Y-107812344D01*
X177687786Y-107808085D01*
X177692008Y-107787117D01*
X177692008Y-107787113D01*
X177692892Y-107782725D01*
X177693145Y-107778252D01*
X177693715Y-107773805D01*
X177693763Y-107773811D01*
X177694509Y-107767079D01*
X177697402Y-107749633D01*
X177818377Y-107019963D01*
X177819865Y-107013450D01*
X177819732Y-107013422D01*
X177820737Y-107008648D01*
X177822104Y-107003981D01*
X177825891Y-106975093D01*
X177826512Y-106970898D01*
X177830773Y-106945200D01*
X177830872Y-106940709D01*
X177831288Y-106936257D01*
X177831346Y-106936262D01*
X177831855Y-106929587D01*
X177931632Y-106168390D01*
X177932856Y-106162074D01*
X177932691Y-106162045D01*
X177933537Y-106157258D01*
X177934752Y-106152541D01*
X177937635Y-106123115D01*
X177938103Y-106119034D01*
X177940952Y-106097297D01*
X177940953Y-106097287D01*
X177941534Y-106092851D01*
X177941481Y-106088374D01*
X177941746Y-106083901D01*
X177941830Y-106083906D01*
X177942106Y-106077474D01*
X178018672Y-105295875D01*
X178019630Y-105289919D01*
X178019416Y-105289888D01*
X178020114Y-105285082D01*
X178021185Y-105280325D01*
X178023206Y-105250192D01*
X178023523Y-105246355D01*
X178025725Y-105223887D01*
X178025725Y-105223875D01*
X178026162Y-105219418D01*
X178025962Y-105214940D01*
X178026081Y-105210460D01*
X178026210Y-105210463D01*
X178026277Y-105204413D01*
X178045485Y-104918073D01*
X178080629Y-104394155D01*
X178080955Y-104390850D01*
X178081574Y-104387906D01*
X178083438Y-104352469D01*
X178083539Y-104350779D01*
X178085700Y-104318569D01*
X178085475Y-104315582D01*
X178085557Y-104312185D01*
X178093495Y-104161291D01*
X178094668Y-104149533D01*
X178095205Y-104145889D01*
X178097760Y-104137285D01*
X178098003Y-104078372D01*
X178098175Y-104072305D01*
X178099256Y-104051771D01*
X178098694Y-104045519D01*
X178098189Y-104033719D01*
X178098332Y-103999169D01*
X178098332Y-103999168D01*
X178098369Y-103990196D01*
X178094940Y-103978287D01*
X178090528Y-103954710D01*
X178090223Y-103951314D01*
X178090221Y-103951304D01*
X178089417Y-103942368D01*
X178073513Y-103901866D01*
X178069713Y-103890674D01*
X178060154Y-103857476D01*
X178057670Y-103848849D01*
X178051037Y-103838382D01*
X178040184Y-103816992D01*
X178038935Y-103813811D01*
X178035654Y-103805455D01*
X178009022Y-103771045D01*
X178002235Y-103761371D01*
X177983742Y-103732189D01*
X177978936Y-103724605D01*
X177969632Y-103716421D01*
X177953214Y-103698940D01*
X177945626Y-103689135D01*
X177938358Y-103683862D01*
X177938355Y-103683859D01*
X177910391Y-103663570D01*
X177901172Y-103656199D01*
X177868496Y-103627455D01*
X177857266Y-103622209D01*
X177836606Y-103610040D01*
X177826570Y-103602759D01*
X177800710Y-103593519D01*
X177785589Y-103588116D01*
X177774664Y-103583624D01*
X177743367Y-103569006D01*
X177743363Y-103569005D01*
X177735228Y-103565205D01*
X177722988Y-103563324D01*
X177699727Y-103557439D01*
X177696508Y-103556289D01*
X177696509Y-103556289D01*
X177688056Y-103553269D01*
X177644605Y-103550718D01*
X177632859Y-103549473D01*
X177623516Y-103548037D01*
X177611991Y-103548060D01*
X177603569Y-103548076D01*
X177595937Y-103547859D01*
X177550183Y-103545172D01*
X177550180Y-103545172D01*
X177541218Y-103544646D01*
X177532467Y-103546657D01*
X177523525Y-103547406D01*
X177523481Y-103546883D01*
X177511460Y-103548258D01*
X172151014Y-103558818D01*
X172142748Y-103558562D01*
X172089718Y-103555176D01*
X172041835Y-103565920D01*
X172032366Y-103567667D01*
X172023146Y-103569006D01*
X171992691Y-103573428D01*
X171992689Y-103573429D01*
X171983803Y-103574719D01*
X171975637Y-103578451D01*
X171969952Y-103580126D01*
X171960496Y-103583310D01*
X171954957Y-103585414D01*
X171946197Y-103587379D01*
X171903252Y-103611131D01*
X171894666Y-103615459D01*
X171858188Y-103632131D01*
X171858185Y-103632133D01*
X171850024Y-103635863D01*
X171843237Y-103641735D01*
X171838245Y-103644941D01*
X171830051Y-103650658D01*
X171825334Y-103654225D01*
X171817482Y-103658568D01*
X171782941Y-103693409D01*
X171775897Y-103699989D01*
X171745576Y-103726219D01*
X171745571Y-103726225D01*
X171738783Y-103732097D01*
X171733915Y-103739640D01*
X171730027Y-103744115D01*
X171723783Y-103751883D01*
X171720244Y-103756647D01*
X171713923Y-103763023D01*
X171709646Y-103770916D01*
X171690548Y-103806157D01*
X171685645Y-103814434D01*
X171659023Y-103855684D01*
X171656469Y-103864285D01*
X171653993Y-103869671D01*
X171650174Y-103878895D01*
X171648118Y-103884451D01*
X171643841Y-103892344D01*
X171641951Y-103901120D01*
X171633510Y-103940316D01*
X171631125Y-103949641D01*
X171617156Y-103996689D01*
X171617119Y-104005662D01*
X171616920Y-104053859D01*
X171616712Y-104060597D01*
X171603521Y-104289119D01*
X171602667Y-104303910D01*
X171602587Y-104305182D01*
X171597042Y-104386282D01*
X171575966Y-104694554D01*
X171575600Y-104698825D01*
X171486595Y-105565959D01*
X171485860Y-105571788D01*
X171478546Y-105620538D01*
X171358625Y-106419886D01*
X171357092Y-106430102D01*
X171356095Y-106435838D01*
X171289758Y-106771276D01*
X171187607Y-107287807D01*
X171186350Y-107293475D01*
X170978602Y-108137564D01*
X170977092Y-108143145D01*
X170730539Y-108977833D01*
X170728779Y-108983323D01*
X170443903Y-109807008D01*
X170441912Y-109812364D01*
X170124420Y-110610347D01*
X170119161Y-110623565D01*
X170116920Y-110628843D01*
X169987251Y-110915851D01*
X169756785Y-111425962D01*
X169754294Y-111431156D01*
X169357277Y-112212606D01*
X169354549Y-112217685D01*
X169207412Y-112477132D01*
X168920617Y-112982837D01*
X168917840Y-112987496D01*
X168862330Y-113076245D01*
X168602981Y-113490889D01*
X168526191Y-113613659D01*
X168523208Y-113618208D01*
X168397477Y-113801141D01*
X168030859Y-114334554D01*
X168027463Y-114339258D01*
X167502281Y-115032684D01*
X167498707Y-115037186D01*
X166941608Y-115706945D01*
X166937856Y-115711253D01*
X166387285Y-116315217D01*
X166350467Y-116355605D01*
X166346535Y-116359728D01*
X166249938Y-116456511D01*
X165730398Y-116977054D01*
X165726276Y-116981000D01*
X165722281Y-116984656D01*
X165083058Y-117569573D01*
X165078807Y-117573291D01*
X164410043Y-118131527D01*
X164405548Y-118135107D01*
X163712995Y-118661253D01*
X163708261Y-118664679D01*
X163646226Y-118707422D01*
X162992947Y-119157536D01*
X162988227Y-119160633D01*
X162296080Y-119592888D01*
X162291276Y-119595741D01*
X162243149Y-119622891D01*
X161531087Y-120024583D01*
X161525987Y-120027308D01*
X161420655Y-120080512D01*
X160792953Y-120397570D01*
X160748095Y-120420228D01*
X160742894Y-120422708D01*
X160051391Y-120733121D01*
X159948635Y-120779248D01*
X159943319Y-120781489D01*
X159135406Y-121100573D01*
X159134588Y-121100896D01*
X159129170Y-121102894D01*
X158321852Y-121379648D01*
X158307722Y-121384492D01*
X158302189Y-121386248D01*
X158225414Y-121408670D01*
X157469898Y-121629318D01*
X157464248Y-121630826D01*
X156622920Y-121834691D01*
X156617154Y-121835946D01*
X155764045Y-122000807D01*
X155759977Y-122001524D01*
X155417936Y-122056059D01*
X155413940Y-122056631D01*
X154535962Y-122167907D01*
X154530237Y-122168500D01*
X154093412Y-122203691D01*
X153656574Y-122238883D01*
X153650861Y-122239212D01*
X152956130Y-122263376D01*
X152778430Y-122269557D01*
X152772690Y-122269626D01*
X152594479Y-122267702D01*
X151902762Y-122260236D01*
X151897050Y-122260043D01*
X151030938Y-122211224D01*
X151025241Y-122210774D01*
X150164121Y-122122821D01*
X150158464Y-122122114D01*
X149580196Y-122036347D01*
X149303694Y-121995337D01*
X149298050Y-121994368D01*
X148735343Y-121884573D01*
X148450872Y-121829067D01*
X148445279Y-121827843D01*
X148443072Y-121827307D01*
X147714259Y-121650364D01*
X147606982Y-121624319D01*
X147601442Y-121622840D01*
X146819538Y-121394877D01*
X146773241Y-121381379D01*
X146767771Y-121379648D01*
X145951010Y-121100570D01*
X145945630Y-121098593D01*
X145141501Y-120782167D01*
X145136216Y-120779947D01*
X144346031Y-120426484D01*
X144340853Y-120424024D01*
X143565900Y-120033827D01*
X143560822Y-120031122D01*
X142802318Y-119604459D01*
X142797358Y-119601517D01*
X142056638Y-119138714D01*
X142051777Y-119135518D01*
X141862597Y-119004801D01*
X141324339Y-118632883D01*
X141321836Y-118631108D01*
X141247870Y-118577276D01*
X141247558Y-118577049D01*
X141146977Y-118503375D01*
X141146601Y-118503098D01*
X141057622Y-118437414D01*
X141057099Y-118437026D01*
X141038299Y-118422997D01*
X140989509Y-118386588D01*
X140988587Y-118385893D01*
X140950102Y-118356503D01*
X140948545Y-118355293D01*
X140790454Y-118230487D01*
X140762800Y-118208655D01*
X140762461Y-118208387D01*
X140717850Y-118172889D01*
X140599506Y-118078720D01*
X140599186Y-118078464D01*
X140459638Y-117966146D01*
X140459015Y-117965641D01*
X140337143Y-117866060D01*
X140336279Y-117865347D01*
X140226227Y-117773781D01*
X140225317Y-117773017D01*
X140123990Y-117687081D01*
X140121847Y-117685222D01*
X139662991Y-117277952D01*
X139610226Y-117231119D01*
X139606443Y-117227620D01*
X139483638Y-117109293D01*
X138975061Y-116619262D01*
X138970996Y-116615162D01*
X138829030Y-116465231D01*
X138370382Y-115980850D01*
X138366528Y-115976588D01*
X138353209Y-115961168D01*
X137897836Y-115433989D01*
X137796398Y-115316555D01*
X137792746Y-115312128D01*
X137642296Y-115121013D01*
X137253907Y-114627646D01*
X137250476Y-114623077D01*
X137244757Y-114615089D01*
X137100310Y-114413362D01*
X148569009Y-114413362D01*
X148569306Y-114418514D01*
X148569306Y-114418518D01*
X148575018Y-114517578D01*
X148581997Y-114638614D01*
X148583134Y-114643660D01*
X148583135Y-114643666D01*
X148604384Y-114737952D01*
X148631600Y-114858720D01*
X148633542Y-114863502D01*
X148633543Y-114863506D01*
X148713415Y-115060206D01*
X148716486Y-115067769D01*
X148752102Y-115125889D01*
X148797056Y-115199247D01*
X148834375Y-115260147D01*
X148979309Y-115427462D01*
X148979309Y-115427463D01*
X148982102Y-115430687D01*
X148981436Y-115431264D01*
X149013856Y-115489187D01*
X149009531Y-115560052D01*
X148967581Y-115617330D01*
X148935251Y-115635238D01*
X148843505Y-115669632D01*
X148843504Y-115669633D01*
X148835095Y-115672785D01*
X148718539Y-115760139D01*
X148631185Y-115876695D01*
X148580055Y-116013084D01*
X148573300Y-116075266D01*
X148573300Y-117898734D01*
X148580055Y-117960916D01*
X148631185Y-118097305D01*
X148718539Y-118213861D01*
X148835095Y-118301215D01*
X148971484Y-118352345D01*
X149033666Y-118359100D01*
X150857134Y-118359100D01*
X150919316Y-118352345D01*
X151055705Y-118301215D01*
X151172261Y-118213861D01*
X151259615Y-118097305D01*
X151266570Y-118078754D01*
X151297613Y-117995946D01*
X151340254Y-117939181D01*
X151406816Y-117914481D01*
X151476165Y-117929688D01*
X151510831Y-117957676D01*
X151522102Y-117970687D01*
X151695699Y-118114810D01*
X151700151Y-118117412D01*
X151700156Y-118117415D01*
X151839185Y-118198657D01*
X151890503Y-118228645D01*
X152101284Y-118309134D01*
X152106352Y-118310165D01*
X152106355Y-118310166D01*
X152214804Y-118332230D01*
X152322381Y-118354117D01*
X152327556Y-118354307D01*
X152327558Y-118354307D01*
X152542692Y-118362196D01*
X152542696Y-118362196D01*
X152547856Y-118362385D01*
X152552976Y-118361729D01*
X152552978Y-118361729D01*
X152647885Y-118349571D01*
X152771653Y-118333716D01*
X152776602Y-118332231D01*
X152776608Y-118332230D01*
X152982813Y-118270365D01*
X152982812Y-118270365D01*
X152987763Y-118268880D01*
X153110630Y-118208688D01*
X153185731Y-118171897D01*
X153185736Y-118171894D01*
X153190382Y-118169618D01*
X153194592Y-118166615D01*
X153194597Y-118166612D01*
X153369855Y-118041601D01*
X153369859Y-118041597D01*
X153374067Y-118038596D01*
X153533887Y-117879333D01*
X153591038Y-117799799D01*
X153654770Y-117711107D01*
X153710764Y-117667459D01*
X153781468Y-117661013D01*
X153844432Y-117693816D01*
X153864525Y-117718799D01*
X153911675Y-117795743D01*
X153911683Y-117795753D01*
X153914375Y-117800147D01*
X154062102Y-117970687D01*
X154235699Y-118114810D01*
X154240151Y-118117412D01*
X154240156Y-118117415D01*
X154379185Y-118198657D01*
X154430503Y-118228645D01*
X154641284Y-118309134D01*
X154646352Y-118310165D01*
X154646355Y-118310166D01*
X154754804Y-118332230D01*
X154862381Y-118354117D01*
X154867556Y-118354307D01*
X154867558Y-118354307D01*
X155082692Y-118362196D01*
X155082696Y-118362196D01*
X155087856Y-118362385D01*
X155092976Y-118361729D01*
X155092978Y-118361729D01*
X155187885Y-118349571D01*
X155311653Y-118333716D01*
X155316602Y-118332231D01*
X155316608Y-118332230D01*
X155522813Y-118270365D01*
X155522812Y-118270365D01*
X155527763Y-118268880D01*
X155650630Y-118208688D01*
X155725731Y-118171897D01*
X155725736Y-118171894D01*
X155730382Y-118169618D01*
X155734592Y-118166615D01*
X155734597Y-118166612D01*
X155909855Y-118041601D01*
X155909859Y-118041597D01*
X155914067Y-118038596D01*
X156073887Y-117879333D01*
X156205550Y-117696105D01*
X156288679Y-117527906D01*
X156303224Y-117498477D01*
X156303225Y-117498475D01*
X156305518Y-117493835D01*
X156371108Y-117277952D01*
X156371783Y-117272826D01*
X156400121Y-117057578D01*
X156400122Y-117057572D01*
X156400558Y-117054256D01*
X156400849Y-117042340D01*
X156402120Y-116990364D01*
X156402120Y-116990360D01*
X156402202Y-116987000D01*
X156383715Y-116762132D01*
X156328749Y-116543304D01*
X156238780Y-116336391D01*
X156190682Y-116262043D01*
X156119034Y-116151291D01*
X156119032Y-116151288D01*
X156116226Y-116146951D01*
X155964377Y-115980071D01*
X155960326Y-115976872D01*
X155960322Y-115976868D01*
X155791366Y-115843434D01*
X155791362Y-115843432D01*
X155787311Y-115840232D01*
X155763935Y-115827328D01*
X155713964Y-115776896D01*
X155699192Y-115707453D01*
X155724308Y-115641047D01*
X155751659Y-115614441D01*
X155909855Y-115501601D01*
X155909859Y-115501597D01*
X155914067Y-115498596D01*
X156073887Y-115339333D01*
X156205550Y-115156105D01*
X156305518Y-114953835D01*
X156371108Y-114737952D01*
X156377936Y-114686091D01*
X156400121Y-114517578D01*
X156400122Y-114517572D01*
X156400558Y-114514256D01*
X156402202Y-114447000D01*
X156383715Y-114222132D01*
X156328749Y-114003304D01*
X156238780Y-113796391D01*
X156190414Y-113721628D01*
X156119034Y-113611291D01*
X156119032Y-113611288D01*
X156116226Y-113606951D01*
X155964377Y-113440071D01*
X155960326Y-113436872D01*
X155960322Y-113436868D01*
X155791366Y-113303434D01*
X155791362Y-113303432D01*
X155787311Y-113300232D01*
X155769568Y-113290437D01*
X155696937Y-113250343D01*
X155589783Y-113191191D01*
X155377098Y-113115876D01*
X155326697Y-113106898D01*
X155160057Y-113077214D01*
X155160053Y-113077214D01*
X155154969Y-113076308D01*
X155082974Y-113075429D01*
X154934529Y-113073615D01*
X154934527Y-113073615D01*
X154929359Y-113073552D01*
X154706329Y-113107680D01*
X154491868Y-113177777D01*
X154487276Y-113180167D01*
X154487277Y-113180167D01*
X154313500Y-113270630D01*
X154291735Y-113281960D01*
X154287602Y-113285063D01*
X154287599Y-113285065D01*
X154201168Y-113349959D01*
X154111305Y-113417430D01*
X154107733Y-113421168D01*
X153979012Y-113555867D01*
X153955424Y-113580550D01*
X153952512Y-113584819D01*
X153952506Y-113584827D01*
X153858903Y-113722043D01*
X153803992Y-113767046D01*
X153733467Y-113775217D01*
X153669720Y-113743963D01*
X153649023Y-113719479D01*
X153579034Y-113611291D01*
X153579032Y-113611288D01*
X153576226Y-113606951D01*
X153424377Y-113440071D01*
X153420326Y-113436872D01*
X153420322Y-113436868D01*
X153251366Y-113303434D01*
X153251362Y-113303432D01*
X153247311Y-113300232D01*
X153229568Y-113290437D01*
X153156937Y-113250343D01*
X153049783Y-113191191D01*
X152837098Y-113115876D01*
X152786697Y-113106898D01*
X152620057Y-113077214D01*
X152620053Y-113077214D01*
X152614969Y-113076308D01*
X152542974Y-113075429D01*
X152394529Y-113073615D01*
X152394527Y-113073615D01*
X152389359Y-113073552D01*
X152166329Y-113107680D01*
X151951868Y-113177777D01*
X151947276Y-113180167D01*
X151947277Y-113180167D01*
X151773500Y-113270630D01*
X151751735Y-113281960D01*
X151747602Y-113285063D01*
X151747599Y-113285065D01*
X151661168Y-113349959D01*
X151571305Y-113417430D01*
X151567733Y-113421168D01*
X151439012Y-113555867D01*
X151415424Y-113580550D01*
X151412512Y-113584819D01*
X151412506Y-113584827D01*
X151318903Y-113722043D01*
X151263992Y-113767046D01*
X151193467Y-113775217D01*
X151129720Y-113743963D01*
X151109023Y-113719479D01*
X151039034Y-113611291D01*
X151039032Y-113611288D01*
X151036226Y-113606951D01*
X150884377Y-113440071D01*
X150880326Y-113436872D01*
X150880322Y-113436868D01*
X150711366Y-113303434D01*
X150711362Y-113303432D01*
X150707311Y-113300232D01*
X150689568Y-113290437D01*
X150616937Y-113250343D01*
X150509783Y-113191191D01*
X150297098Y-113115876D01*
X150246697Y-113106898D01*
X150080057Y-113077214D01*
X150080053Y-113077214D01*
X150074969Y-113076308D01*
X150002974Y-113075429D01*
X149854529Y-113073615D01*
X149854527Y-113073615D01*
X149849359Y-113073552D01*
X149626329Y-113107680D01*
X149411868Y-113177777D01*
X149407276Y-113180167D01*
X149407277Y-113180167D01*
X149233500Y-113270630D01*
X149211735Y-113281960D01*
X149207602Y-113285063D01*
X149207599Y-113285065D01*
X149121168Y-113349959D01*
X149031305Y-113417430D01*
X149027733Y-113421168D01*
X148899012Y-113555867D01*
X148875424Y-113580550D01*
X148748278Y-113766940D01*
X148746104Y-113771624D01*
X148746102Y-113771627D01*
X148674802Y-113925231D01*
X148653281Y-113971593D01*
X148592985Y-114189013D01*
X148569009Y-114413362D01*
X137100310Y-114413362D01*
X136934748Y-114182148D01*
X136743879Y-113915590D01*
X136740651Y-113910858D01*
X136346193Y-113303434D01*
X136267108Y-113181652D01*
X136264103Y-113176785D01*
X136263743Y-113176170D01*
X135824516Y-112427261D01*
X135821722Y-112422237D01*
X135642969Y-112082864D01*
X135416952Y-111653757D01*
X135414387Y-111648604D01*
X135377016Y-111569013D01*
X135045276Y-110862500D01*
X135042933Y-110857195D01*
X134828537Y-110339979D01*
X134710347Y-110054854D01*
X134708241Y-110049421D01*
X134693876Y-110009653D01*
X134464043Y-109373413D01*
X134413027Y-109232185D01*
X134411160Y-109226614D01*
X134295383Y-108852352D01*
X134152868Y-108391658D01*
X134151695Y-108387629D01*
X134055683Y-108036060D01*
X134054729Y-108032344D01*
X134039889Y-107970673D01*
X133881944Y-107314290D01*
X133880835Y-107309224D01*
X133877727Y-107293475D01*
X133783103Y-106814081D01*
X133738341Y-106587299D01*
X133737444Y-106582208D01*
X133672094Y-106160779D01*
X133623294Y-105846078D01*
X133622634Y-105841178D01*
X133535774Y-105083793D01*
X133535327Y-105079134D01*
X133511529Y-104770273D01*
X133501679Y-104642444D01*
X133474578Y-104290725D01*
X133474369Y-104287443D01*
X133470364Y-104208666D01*
X133470279Y-104206705D01*
X133466070Y-104087244D01*
X133464455Y-104041410D01*
X133464411Y-104039885D01*
X133459903Y-103843121D01*
X133459883Y-103842024D01*
X133457930Y-103704459D01*
X133456763Y-103622211D01*
X133456756Y-103621608D01*
X133456753Y-103621087D01*
X133455069Y-103387533D01*
X133455066Y-103386753D01*
X133454822Y-103147220D01*
X133454824Y-103146452D01*
X133456028Y-102909534D01*
X133456035Y-102908702D01*
X133458674Y-102682803D01*
X133458689Y-102681803D01*
X133462734Y-102475660D01*
X133462768Y-102474314D01*
X133468134Y-102297317D01*
X133468214Y-102295234D01*
X133474657Y-102157815D01*
X133474866Y-102154373D01*
X133500908Y-101804157D01*
X133519584Y-101553005D01*
X133520017Y-101548348D01*
X133619157Y-100662793D01*
X133619917Y-100657166D01*
X133757431Y-99787967D01*
X133758470Y-99782253D01*
X133761225Y-99768877D01*
X133934695Y-98926441D01*
X133936015Y-98920710D01*
X134151059Y-98077657D01*
X134152654Y-98071966D01*
X134252619Y-97744951D01*
X134406652Y-97241064D01*
X134408497Y-97235496D01*
X134651913Y-96555079D01*
X134701643Y-96416070D01*
X134703749Y-96410591D01*
X135036224Y-95602103D01*
X135038552Y-95596791D01*
X135088548Y-95489534D01*
X135412873Y-94793748D01*
X135414435Y-94790521D01*
X135521861Y-94576328D01*
X135523453Y-94573259D01*
X135611262Y-94409547D01*
X135934285Y-93807300D01*
X135937021Y-93802458D01*
X135998001Y-93699925D01*
X136371882Y-93071276D01*
X136374922Y-93066420D01*
X136427300Y-92986846D01*
X136838231Y-92362539D01*
X136841546Y-92357749D01*
X137335646Y-91677756D01*
X137339159Y-91673147D01*
X137866437Y-91013738D01*
X137870101Y-91009364D01*
X138239696Y-90587793D01*
X138432947Y-90367365D01*
X138436659Y-90363312D01*
X138474514Y-90323765D01*
X139040983Y-89731972D01*
X139043298Y-89729618D01*
X139238956Y-89535842D01*
X139240612Y-89534232D01*
X139642849Y-89150319D01*
X139645420Y-89147932D01*
X139958246Y-88865573D01*
X140038713Y-88792943D01*
X140041535Y-88790473D01*
X140436447Y-88455005D01*
X140439407Y-88452567D01*
X140754288Y-88201173D01*
X140845451Y-88128391D01*
X140848288Y-88126191D01*
X141277915Y-87803052D01*
X141279411Y-87801945D01*
X141323641Y-87769709D01*
X141326117Y-87767949D01*
X142060411Y-87259828D01*
X142065236Y-87256651D01*
X142812349Y-86788798D01*
X142817340Y-86785830D01*
X143582027Y-86354693D01*
X143587170Y-86351948D01*
X144368665Y-85957815D01*
X144373916Y-85955318D01*
X145171380Y-85598530D01*
X145176781Y-85596263D01*
X145989381Y-85277157D01*
X145994886Y-85275142D01*
X146821861Y-84994037D01*
X146827451Y-84992280D01*
X146842312Y-84987988D01*
X147668074Y-84749500D01*
X147673689Y-84748020D01*
X148527096Y-84543943D01*
X148532799Y-84542718D01*
X148710025Y-84508924D01*
X149404511Y-84376499D01*
X149407691Y-84375936D01*
X149507448Y-84359604D01*
X149520196Y-84357517D01*
X149521966Y-84357241D01*
X149938825Y-84295066D01*
X149941715Y-84294669D01*
X150356112Y-84242640D01*
X150359044Y-84242306D01*
X150637868Y-84213912D01*
X150782384Y-84199196D01*
X150785137Y-84198946D01*
X151226491Y-84163943D01*
X151228969Y-84163772D01*
X151412523Y-84152940D01*
X151697067Y-84136149D01*
X151699252Y-84136039D01*
X152205053Y-84114999D01*
X152206005Y-84114963D01*
X152332325Y-84110664D01*
X152565439Y-84102732D01*
X152570458Y-84102661D01*
X152632212Y-84103038D01*
X152671506Y-84091808D01*
X152684025Y-84088912D01*
X152724258Y-84081746D01*
X152732296Y-84077756D01*
X152732299Y-84077755D01*
X152737754Y-84075047D01*
X152759143Y-84066761D01*
X152773639Y-84062618D01*
X152808210Y-84040805D01*
X152819412Y-84034513D01*
X152847969Y-84020338D01*
X152847970Y-84020337D01*
X152856011Y-84016346D01*
X152862606Y-84010261D01*
X152862611Y-84010257D01*
X152867081Y-84006132D01*
X152885294Y-83992169D01*
X152890446Y-83988919D01*
X152890449Y-83988917D01*
X152898037Y-83984129D01*
X152925097Y-83953489D01*
X152934077Y-83944311D01*
X152964111Y-83916598D01*
X152971872Y-83903682D01*
X152985432Y-83885172D01*
X152989465Y-83880606D01*
X152989466Y-83880605D01*
X152995405Y-83873880D01*
X153012775Y-83836884D01*
X153018820Y-83825552D01*
X153039870Y-83790519D01*
X153043693Y-83775948D01*
X153051513Y-83754375D01*
X153054103Y-83748858D01*
X153057917Y-83740735D01*
X153064204Y-83700356D01*
X153066829Y-83687767D01*
X153074920Y-83656928D01*
X153077198Y-83648245D01*
X153075354Y-83582196D01*
X153075305Y-83578680D01*
X153075305Y-78142002D01*
X153075307Y-78141348D01*
X153075474Y-78109075D01*
X153075720Y-78061731D01*
X153073245Y-78053099D01*
X153067546Y-78033226D01*
X153063937Y-78016358D01*
X153061006Y-77995893D01*
X153059733Y-77987005D01*
X153048841Y-77963048D01*
X153042426Y-77945638D01*
X153038657Y-77932496D01*
X153035171Y-77920341D01*
X153019324Y-77895276D01*
X153011127Y-77880103D01*
X152998852Y-77853105D01*
X152992994Y-77846306D01*
X152992992Y-77846303D01*
X152981674Y-77833167D01*
X152970631Y-77818258D01*
X152961367Y-77803607D01*
X152956567Y-77796015D01*
X152934323Y-77776406D01*
X152922197Y-77764142D01*
X152908698Y-77748475D01*
X152908695Y-77748472D01*
X152902838Y-77741675D01*
X152895307Y-77736793D01*
X152895305Y-77736792D01*
X152880756Y-77727362D01*
X152865971Y-77716150D01*
X152852969Y-77704688D01*
X152852962Y-77704683D01*
X152846229Y-77698748D01*
X152819387Y-77686176D01*
X152804297Y-77677804D01*
X152786946Y-77666557D01*
X152786941Y-77666554D01*
X152779408Y-77661672D01*
X152754195Y-77654132D01*
X152736857Y-77647520D01*
X152713027Y-77636358D01*
X152683722Y-77631823D01*
X152666893Y-77628022D01*
X152647090Y-77622100D01*
X152647089Y-77622100D01*
X152638486Y-77619527D01*
X152629513Y-77619472D01*
X152629511Y-77619472D01*
X152616263Y-77619392D01*
X152603621Y-77619315D01*
X152602625Y-77619273D01*
X152601333Y-77619073D01*
X152597863Y-77619076D01*
X152597858Y-77619076D01*
X152588525Y-77619085D01*
X152569317Y-77619103D01*
X152568688Y-77619101D01*
X152528626Y-77618856D01*
X152495878Y-77618656D01*
X152495873Y-77618656D01*
X152491398Y-77618629D01*
X152489856Y-77619070D01*
X152488307Y-77619176D01*
X152483401Y-77619181D01*
X152457534Y-77619205D01*
X152455471Y-77619137D01*
X152453427Y-77618841D01*
X152448557Y-77618893D01*
X152448554Y-77618893D01*
X152437120Y-77619016D01*
X152416443Y-77619237D01*
X152415377Y-77619243D01*
X152381590Y-77619274D01*
X152379556Y-77619567D01*
X152377456Y-77619654D01*
X152361143Y-77619829D01*
X152358253Y-77619767D01*
X152355585Y-77619416D01*
X152319671Y-77620263D01*
X152318195Y-77620289D01*
X152292127Y-77620568D01*
X152289823Y-77620593D01*
X152289822Y-77620593D01*
X152285350Y-77620641D01*
X152282695Y-77621050D01*
X152279738Y-77621206D01*
X152237385Y-77622206D01*
X152213853Y-77622762D01*
X152212190Y-77622744D01*
X152210491Y-77622534D01*
X152173040Y-77623722D01*
X152172091Y-77623748D01*
X152137810Y-77624557D01*
X152136120Y-77624840D01*
X152134454Y-77624946D01*
X152041185Y-77627904D01*
X152040103Y-77627899D01*
X152038933Y-77627761D01*
X152035738Y-77627880D01*
X152035726Y-77627880D01*
X152000738Y-77629184D01*
X152000042Y-77629208D01*
X151968135Y-77630220D01*
X151968129Y-77630220D01*
X151964959Y-77630321D01*
X151963802Y-77630525D01*
X151962702Y-77630602D01*
X151849838Y-77634807D01*
X151848995Y-77634808D01*
X151848067Y-77634703D01*
X151845475Y-77634811D01*
X151845467Y-77634811D01*
X151809609Y-77636305D01*
X151809058Y-77636327D01*
X151795570Y-77636830D01*
X151773512Y-77637652D01*
X151772592Y-77637819D01*
X151771735Y-77637883D01*
X151646978Y-77643081D01*
X151646221Y-77643085D01*
X151645379Y-77642993D01*
X151643012Y-77643101D01*
X151643008Y-77643101D01*
X151631194Y-77643640D01*
X151606423Y-77644770D01*
X151606300Y-77644776D01*
X151593596Y-77645305D01*
X151572958Y-77646165D01*
X151572945Y-77646166D01*
X151570618Y-77646263D01*
X151569794Y-77646416D01*
X151569028Y-77646477D01*
X151440116Y-77652360D01*
X151439344Y-77652367D01*
X151438494Y-77652278D01*
X151408447Y-77653770D01*
X151399720Y-77654203D01*
X151399217Y-77654227D01*
X151366133Y-77655737D01*
X151366129Y-77655737D01*
X151363770Y-77655845D01*
X151362931Y-77656004D01*
X151362175Y-77656068D01*
X151236859Y-77662290D01*
X151235983Y-77662302D01*
X151235013Y-77662204D01*
X151232321Y-77662350D01*
X151232320Y-77662350D01*
X151196561Y-77664289D01*
X151195989Y-77664319D01*
X151163261Y-77665944D01*
X151163251Y-77665945D01*
X151160590Y-77666077D01*
X151159635Y-77666263D01*
X151158758Y-77666340D01*
X151082491Y-77670476D01*
X151044820Y-77672519D01*
X151043659Y-77672541D01*
X151042420Y-77672423D01*
X151004300Y-77674715D01*
X151003603Y-77674755D01*
X150968686Y-77676648D01*
X150967463Y-77676891D01*
X150966305Y-77676999D01*
X150871440Y-77682702D01*
X150869635Y-77682749D01*
X150867813Y-77682592D01*
X150830543Y-77685157D01*
X150829576Y-77685219D01*
X150805515Y-77686665D01*
X150800017Y-77686996D01*
X150800016Y-77686996D01*
X150795544Y-77687265D01*
X150793758Y-77687631D01*
X150791953Y-77687812D01*
X150724219Y-77692474D01*
X150717603Y-77692755D01*
X150717090Y-77692763D01*
X150712224Y-77692466D01*
X150707379Y-77692920D01*
X150707373Y-77692920D01*
X150680272Y-77695459D01*
X150677174Y-77695710D01*
X150652753Y-77697391D01*
X150652734Y-77697394D01*
X150648269Y-77697701D01*
X150643884Y-77698640D01*
X150641895Y-77698920D01*
X150636085Y-77699600D01*
X149756737Y-77781996D01*
X149749111Y-77782268D01*
X149749112Y-77782294D01*
X149744247Y-77782562D01*
X149739380Y-77782453D01*
X149712003Y-77786093D01*
X149707168Y-77786640D01*
X149700300Y-77787284D01*
X149687265Y-77788505D01*
X149687261Y-77788506D01*
X149682797Y-77788924D01*
X149678435Y-77789971D01*
X149676035Y-77790370D01*
X149666515Y-77792141D01*
X148713818Y-77918814D01*
X148704907Y-77919487D01*
X148700976Y-77919865D01*
X148696098Y-77919955D01*
X148691297Y-77920794D01*
X148669557Y-77924593D01*
X148664472Y-77925375D01*
X148640865Y-77928514D01*
X148636554Y-77929727D01*
X148635984Y-77929845D01*
X148624332Y-77932496D01*
X147681882Y-78097195D01*
X147672553Y-78098285D01*
X147668996Y-78098775D01*
X147664141Y-78099065D01*
X147659390Y-78100098D01*
X147659385Y-78100099D01*
X147643197Y-78103620D01*
X147637896Y-78104773D01*
X147632810Y-78105770D01*
X147613898Y-78109075D01*
X147613895Y-78109076D01*
X147609476Y-78109848D01*
X147605212Y-78111239D01*
X147604913Y-78111313D01*
X147593060Y-78114525D01*
X146661055Y-78317240D01*
X146651554Y-78318750D01*
X146648211Y-78319352D01*
X146643373Y-78319843D01*
X146638670Y-78321072D01*
X146638667Y-78321072D01*
X146631164Y-78323032D01*
X146617415Y-78326623D01*
X146612368Y-78327830D01*
X146593664Y-78331898D01*
X146593660Y-78331899D01*
X146589284Y-78332851D01*
X146585091Y-78334412D01*
X146584897Y-78334469D01*
X146573041Y-78338214D01*
X145651202Y-78579003D01*
X145641844Y-78580890D01*
X145638482Y-78581640D01*
X145633655Y-78582332D01*
X145628993Y-78583758D01*
X145628988Y-78583759D01*
X145608053Y-78590162D01*
X145603048Y-78591581D01*
X145580147Y-78597563D01*
X145576017Y-78599298D01*
X145575875Y-78599346D01*
X145564140Y-78603593D01*
X144652205Y-78882513D01*
X144643063Y-78884753D01*
X144639626Y-78885670D01*
X144634843Y-78886558D01*
X144630256Y-78888170D01*
X144630253Y-78888171D01*
X144609535Y-78895453D01*
X144604603Y-78897073D01*
X144586209Y-78902698D01*
X144586198Y-78902702D01*
X144581922Y-78904010D01*
X144577871Y-78905913D01*
X144577582Y-78906024D01*
X144566197Y-78910684D01*
X143664677Y-79227525D01*
X143657449Y-79229603D01*
X143657460Y-79229639D01*
X143652807Y-79231073D01*
X143648062Y-79232143D01*
X143643537Y-79233931D01*
X143643532Y-79233932D01*
X143622232Y-79242345D01*
X143617721Y-79244028D01*
X143599568Y-79250408D01*
X143594461Y-79252203D01*
X143590476Y-79254279D01*
X143587790Y-79255443D01*
X143579530Y-79259212D01*
X142830511Y-79555071D01*
X142823350Y-79557429D01*
X142823362Y-79557463D01*
X142818769Y-79559073D01*
X142814068Y-79560324D01*
X142809619Y-79562281D01*
X142809617Y-79562282D01*
X142788667Y-79571499D01*
X142784218Y-79573355D01*
X142765491Y-79580752D01*
X142765474Y-79580760D01*
X142761310Y-79582405D01*
X142757418Y-79584625D01*
X142754768Y-79585897D01*
X142746642Y-79589989D01*
X141879594Y-79971458D01*
X141871006Y-79974669D01*
X141867504Y-79976061D01*
X141862854Y-79977504D01*
X141838674Y-79989347D01*
X141834051Y-79991496D01*
X141812262Y-80001082D01*
X141808450Y-80003455D01*
X141808017Y-80003683D01*
X141797467Y-80009529D01*
X140947644Y-80425761D01*
X140939400Y-80429233D01*
X140935780Y-80430845D01*
X140931208Y-80432472D01*
X140926933Y-80434786D01*
X140926934Y-80434786D01*
X140907503Y-80445306D01*
X140902939Y-80447658D01*
X140881529Y-80458144D01*
X140877816Y-80460671D01*
X140877235Y-80461009D01*
X140867134Y-80467160D01*
X140036304Y-80916963D01*
X140028470Y-80920643D01*
X140024723Y-80922497D01*
X140020205Y-80924314D01*
X140016024Y-80926802D01*
X140016022Y-80926803D01*
X139996980Y-80938134D01*
X139992538Y-80940656D01*
X139975480Y-80949892D01*
X139971531Y-80952030D01*
X139967931Y-80954701D01*
X139967277Y-80955118D01*
X139957533Y-80961608D01*
X139146689Y-81444129D01*
X139139162Y-81448045D01*
X139135357Y-81450124D01*
X139130917Y-81452121D01*
X139126839Y-81454777D01*
X139126835Y-81454779D01*
X139108236Y-81466891D01*
X139103926Y-81469576D01*
X139083340Y-81481826D01*
X139079844Y-81484647D01*
X139079076Y-81485182D01*
X139069760Y-81491948D01*
X138279838Y-82006364D01*
X138272587Y-82010517D01*
X138268769Y-82012807D01*
X138264413Y-82014982D01*
X138260443Y-82017801D01*
X138260444Y-82017801D01*
X138242306Y-82030683D01*
X138238125Y-82033528D01*
X138218026Y-82046617D01*
X138214647Y-82049578D01*
X138213833Y-82050194D01*
X138204892Y-82057255D01*
X137436811Y-82602770D01*
X137429833Y-82607149D01*
X137426027Y-82609646D01*
X137421766Y-82611992D01*
X137417917Y-82614966D01*
X137417909Y-82614971D01*
X137400301Y-82628575D01*
X137396226Y-82631595D01*
X137376656Y-82645494D01*
X137373401Y-82648587D01*
X137372531Y-82649303D01*
X137363969Y-82656645D01*
X136618694Y-83232433D01*
X136611928Y-83237069D01*
X136608211Y-83239727D01*
X136604046Y-83242244D01*
X136600320Y-83245370D01*
X136583236Y-83259701D01*
X136579306Y-83262865D01*
X136560300Y-83277549D01*
X136557175Y-83280767D01*
X136556316Y-83281534D01*
X136548082Y-83289190D01*
X135851079Y-83873880D01*
X135826571Y-83894439D01*
X135820009Y-83899333D01*
X135816383Y-83902153D01*
X135812322Y-83904835D01*
X135792703Y-83922684D01*
X135792242Y-83923103D01*
X135788427Y-83926436D01*
X135773461Y-83938990D01*
X135773456Y-83938995D01*
X135770025Y-83941873D01*
X135767034Y-83945212D01*
X135766195Y-83946024D01*
X135758288Y-83953993D01*
X135255071Y-84411791D01*
X135061490Y-84587900D01*
X135055117Y-84593065D01*
X135051622Y-84596015D01*
X135047666Y-84598863D01*
X135028309Y-84617950D01*
X135024671Y-84621396D01*
X135006900Y-84637563D01*
X135004042Y-84641024D01*
X135003257Y-84641847D01*
X134995650Y-84650154D01*
X134324532Y-85311908D01*
X134318332Y-85317360D01*
X134314990Y-85320421D01*
X134311153Y-85323424D01*
X134307825Y-85326981D01*
X134292601Y-85343252D01*
X134289094Y-85346852D01*
X134271996Y-85363712D01*
X134269283Y-85367279D01*
X134268561Y-85368100D01*
X134261258Y-85376750D01*
X133616767Y-86065570D01*
X133610703Y-86071352D01*
X133607565Y-86074467D01*
X133603855Y-86077621D01*
X133600676Y-86081306D01*
X133600675Y-86081307D01*
X133586149Y-86098145D01*
X133582752Y-86101925D01*
X133566384Y-86119419D01*
X133563815Y-86123095D01*
X133563197Y-86123858D01*
X133556160Y-86132907D01*
X132939289Y-86847964D01*
X132933365Y-86854089D01*
X132930435Y-86857243D01*
X132926848Y-86860551D01*
X132923816Y-86864367D01*
X132923810Y-86864374D01*
X132910017Y-86881737D01*
X132906766Y-86885664D01*
X132891137Y-86903780D01*
X132888724Y-86907549D01*
X132888192Y-86908262D01*
X132881455Y-86917690D01*
X132429675Y-87486367D01*
X132293153Y-87658213D01*
X132287350Y-87664720D01*
X132284653Y-87667870D01*
X132281211Y-87671314D01*
X132265270Y-87693144D01*
X132262190Y-87697187D01*
X132247330Y-87715892D01*
X132245068Y-87719760D01*
X132244657Y-87720361D01*
X132238207Y-87730206D01*
X131679444Y-88495411D01*
X131673784Y-88502305D01*
X131671331Y-88505419D01*
X131668026Y-88509007D01*
X131653039Y-88531394D01*
X131650112Y-88535579D01*
X131636040Y-88554851D01*
X131633935Y-88558812D01*
X131633622Y-88559312D01*
X131627489Y-88569562D01*
X131099252Y-89358647D01*
X131093715Y-89365983D01*
X131091525Y-89369011D01*
X131088373Y-89372728D01*
X131085832Y-89376882D01*
X131085831Y-89376884D01*
X131074350Y-89395656D01*
X131071567Y-89400003D01*
X131060840Y-89416028D01*
X131058346Y-89419754D01*
X131056407Y-89423793D01*
X131056197Y-89424160D01*
X131050390Y-89434833D01*
X130554865Y-90245048D01*
X130551037Y-90250536D01*
X130551149Y-90250612D01*
X130548433Y-90254649D01*
X130545411Y-90258468D01*
X130543013Y-90262707D01*
X130543009Y-90262712D01*
X130531053Y-90283840D01*
X130528888Y-90287520D01*
X130515329Y-90309691D01*
X130513561Y-90313796D01*
X130511493Y-90317790D01*
X130511443Y-90317764D01*
X130508464Y-90323765D01*
X130484969Y-90365288D01*
X130221088Y-90831656D01*
X130210578Y-90850230D01*
X130206954Y-90855818D01*
X130207072Y-90855892D01*
X130204491Y-90860024D01*
X130201601Y-90863942D01*
X130188087Y-90889833D01*
X130186091Y-90893505D01*
X130173242Y-90916214D01*
X130171611Y-90920386D01*
X130169685Y-90924437D01*
X130169631Y-90924412D01*
X130166871Y-90930481D01*
X129903715Y-91434667D01*
X129724545Y-91777941D01*
X129719902Y-91785725D01*
X129717995Y-91789077D01*
X129715266Y-91793112D01*
X129713190Y-91797520D01*
X129713189Y-91797522D01*
X129703807Y-91817445D01*
X129701516Y-91822063D01*
X129690505Y-91843159D01*
X129689013Y-91847393D01*
X129688814Y-91847851D01*
X129684238Y-91858998D01*
X129277256Y-92723211D01*
X129272848Y-92731342D01*
X129271150Y-92734632D01*
X129268595Y-92738767D01*
X129266706Y-92743246D01*
X129258144Y-92763545D01*
X129256042Y-92768257D01*
X129245922Y-92789748D01*
X129244607Y-92794032D01*
X129244452Y-92794432D01*
X129240304Y-92805847D01*
X128869936Y-93684021D01*
X128865847Y-93692364D01*
X128864307Y-93695675D01*
X128861916Y-93699925D01*
X128860210Y-93704485D01*
X128860207Y-93704491D01*
X128852493Y-93725108D01*
X128850585Y-93729905D01*
X128841366Y-93751764D01*
X128840229Y-93756091D01*
X128840104Y-93756460D01*
X128836414Y-93768082D01*
X128506066Y-94650963D01*
X128502920Y-94659370D01*
X128499157Y-94667915D01*
X128497763Y-94671267D01*
X128495556Y-94675597D01*
X128494041Y-94680217D01*
X128487188Y-94701110D01*
X128485474Y-94705994D01*
X128477160Y-94728215D01*
X128476200Y-94732596D01*
X128476092Y-94732960D01*
X128472879Y-94744736D01*
X128192563Y-95599406D01*
X128176537Y-95648267D01*
X128173120Y-95656981D01*
X128171871Y-95660371D01*
X128169841Y-95664794D01*
X128168515Y-95669479D01*
X128168513Y-95669485D01*
X128162521Y-95690657D01*
X128161014Y-95695595D01*
X128153628Y-95718113D01*
X128152848Y-95722533D01*
X128152761Y-95722879D01*
X128150029Y-95734799D01*
X127909502Y-96584714D01*
X127891098Y-96649744D01*
X127888032Y-96658624D01*
X127886933Y-96662033D01*
X127885089Y-96666530D01*
X127883960Y-96671253D01*
X127883957Y-96671262D01*
X127878844Y-96692648D01*
X127877538Y-96697655D01*
X127872303Y-96716154D01*
X127872302Y-96716161D01*
X127871083Y-96720467D01*
X127870487Y-96724905D01*
X127870419Y-96725232D01*
X127868172Y-96737299D01*
X127693802Y-97466730D01*
X127646932Y-97662796D01*
X127644244Y-97671763D01*
X127643283Y-97675226D01*
X127641620Y-97679810D01*
X127640684Y-97684587D01*
X127636455Y-97706166D01*
X127635357Y-97711219D01*
X127629843Y-97734284D01*
X127629430Y-97738737D01*
X127629373Y-97739083D01*
X127627628Y-97751206D01*
X127444355Y-98686429D01*
X127442040Y-98695492D01*
X127441218Y-98699008D01*
X127439748Y-98703646D01*
X127439010Y-98708452D01*
X127439009Y-98708455D01*
X127435668Y-98730205D01*
X127434778Y-98735299D01*
X127430217Y-98758574D01*
X127429987Y-98763050D01*
X127429940Y-98763433D01*
X127428700Y-98775564D01*
X127373766Y-99133192D01*
X127283678Y-99719665D01*
X127281754Y-99728732D01*
X127281063Y-99732355D01*
X127279787Y-99737041D01*
X127279247Y-99741869D01*
X127279245Y-99741880D01*
X127276799Y-99763751D01*
X127276119Y-99768877D01*
X127273196Y-99787904D01*
X127273195Y-99787915D01*
X127272515Y-99792342D01*
X127272469Y-99796832D01*
X127272435Y-99797253D01*
X127271697Y-99809377D01*
X127176571Y-100659979D01*
X127165426Y-100759632D01*
X127164249Y-100766445D01*
X127164357Y-100766462D01*
X127163612Y-100771278D01*
X127162498Y-100776019D01*
X127162127Y-100780877D01*
X127160305Y-100804724D01*
X127159891Y-100809122D01*
X127157042Y-100834594D01*
X127157180Y-100839079D01*
X127157000Y-100843554D01*
X127156966Y-100843553D01*
X127156810Y-100850455D01*
X127139727Y-101074036D01*
X127105542Y-101521428D01*
X127104611Y-101528223D01*
X127104726Y-101528237D01*
X127104150Y-101533063D01*
X127103201Y-101537847D01*
X127102999Y-101542716D01*
X127102999Y-101542718D01*
X127102006Y-101566687D01*
X127101748Y-101571069D01*
X127099789Y-101596709D01*
X127100084Y-101601175D01*
X127100061Y-101605663D01*
X127100022Y-101605663D01*
X127100107Y-101612520D01*
X127061794Y-102537190D01*
X127060505Y-102568300D01*
X127059664Y-102576811D01*
X127059329Y-102581091D01*
X127058577Y-102585890D01*
X127058572Y-102590748D01*
X127058572Y-102590753D01*
X127058551Y-102612953D01*
X127058443Y-102618046D01*
X127057453Y-102641952D01*
X127057904Y-102646406D01*
X127057930Y-102647296D01*
X127058508Y-102658853D01*
X127057610Y-103611121D01*
X127057607Y-103613896D01*
X127057112Y-103622429D01*
X127056951Y-103626711D01*
X127056392Y-103631551D01*
X123104470Y-103631551D01*
X123091810Y-103297921D01*
X123091729Y-103294746D01*
X123091700Y-103292411D01*
X123083977Y-102682221D01*
X123082131Y-102536359D01*
X123082131Y-102533208D01*
X123091135Y-101804157D01*
X123091213Y-101801017D01*
X123118328Y-101074011D01*
X123118482Y-101070909D01*
X123119247Y-101058582D01*
X123136467Y-100780877D01*
X123163412Y-100346364D01*
X123163642Y-100343266D01*
X123226292Y-99621513D01*
X123226599Y-99618423D01*
X123306854Y-98899853D01*
X123307238Y-98896757D01*
X123405130Y-98181362D01*
X123405584Y-98178324D01*
X123467379Y-97796306D01*
X123520697Y-97466694D01*
X123521227Y-97463657D01*
X123546356Y-97329480D01*
X123653758Y-96755982D01*
X123654359Y-96752978D01*
X123803929Y-96049661D01*
X123804608Y-96046651D01*
X123911858Y-95596791D01*
X123971227Y-95347771D01*
X123971972Y-95344808D01*
X124026916Y-95136969D01*
X124155411Y-94650896D01*
X124156225Y-94647961D01*
X124177486Y-94574803D01*
X124356402Y-93959140D01*
X124357291Y-93956216D01*
X124574200Y-93272993D01*
X124575162Y-93270085D01*
X124808534Y-92592580D01*
X124809568Y-92589693D01*
X124947234Y-92219545D01*
X125059260Y-91918334D01*
X125060368Y-91915462D01*
X125098644Y-91819785D01*
X125326427Y-91250411D01*
X125327588Y-91247608D01*
X125429673Y-91009364D01*
X125609711Y-90589191D01*
X125610952Y-90586390D01*
X125909109Y-89935064D01*
X125910426Y-89932278D01*
X126224546Y-89288181D01*
X126225922Y-89285445D01*
X126325500Y-89093264D01*
X126555706Y-88648978D01*
X126557140Y-88646290D01*
X126557143Y-88646286D01*
X126902609Y-88017615D01*
X126904111Y-88014960D01*
X127028028Y-87801945D01*
X127265007Y-87394575D01*
X127266550Y-87391994D01*
X127606047Y-86839970D01*
X127642965Y-86779942D01*
X127644612Y-86777337D01*
X127919939Y-86353264D01*
X128036109Y-86174333D01*
X128037813Y-86171777D01*
X128073668Y-86119419D01*
X128444684Y-85577624D01*
X128446446Y-85575118D01*
X128598922Y-85363712D01*
X128868120Y-84990471D01*
X128869948Y-84988001D01*
X129306611Y-84413028D01*
X129308508Y-84410593D01*
X129759870Y-83845681D01*
X129761818Y-83843303D01*
X129772102Y-83831063D01*
X130227842Y-83288597D01*
X130229885Y-83286225D01*
X130710507Y-82742174D01*
X130712589Y-82739876D01*
X131207503Y-82206688D01*
X131209625Y-82204457D01*
X131718920Y-81682335D01*
X131721052Y-81680204D01*
X132243111Y-81170969D01*
X132245373Y-81168817D01*
X132778555Y-80673908D01*
X132780853Y-80671826D01*
X133324951Y-80191163D01*
X133327323Y-80189120D01*
X133576659Y-79979646D01*
X133882006Y-79723116D01*
X133884363Y-79721185D01*
X134449296Y-79269806D01*
X134451732Y-79267909D01*
X134463184Y-79259212D01*
X135026698Y-78831251D01*
X135029183Y-78829412D01*
X135342280Y-78603593D01*
X135613869Y-78407711D01*
X135616375Y-78405949D01*
X135717639Y-78336605D01*
X136048773Y-78109848D01*
X136210446Y-77999136D01*
X136213024Y-77997417D01*
X136674660Y-77697701D01*
X136816063Y-77605895D01*
X136818662Y-77604253D01*
X136835981Y-77593602D01*
X137430666Y-77227868D01*
X137433247Y-77226325D01*
X138053677Y-76865402D01*
X138056311Y-76863912D01*
X138685007Y-76518432D01*
X138687670Y-76517012D01*
X139324133Y-76187230D01*
X139326869Y-76185854D01*
X139970967Y-75871733D01*
X139973753Y-75870416D01*
X140625059Y-75572267D01*
X140627879Y-75571018D01*
X140855955Y-75473290D01*
X141286305Y-75288892D01*
X141289064Y-75287749D01*
X141954179Y-75021664D01*
X141957038Y-75020561D01*
X142628383Y-74770875D01*
X142631269Y-74769841D01*
X143308798Y-74536460D01*
X143311707Y-74535498D01*
X143994908Y-74318596D01*
X143997873Y-74317695D01*
X144243080Y-74246436D01*
X144686651Y-74117531D01*
X144689555Y-74116725D01*
X145383577Y-73933258D01*
X145386529Y-73932517D01*
X145830670Y-73826629D01*
X146085316Y-73765919D01*
X146088331Y-73765239D01*
X146642930Y-73647312D01*
X146791819Y-73615653D01*
X146794823Y-73615053D01*
X147502330Y-73482536D01*
X147505406Y-73481999D01*
X147505437Y-73481994D01*
X148217041Y-73366883D01*
X148219991Y-73366443D01*
X148935448Y-73268542D01*
X148938545Y-73268158D01*
X149657117Y-73187903D01*
X149660207Y-73187596D01*
X150381988Y-73124944D01*
X150385086Y-73124714D01*
X150931114Y-73090854D01*
X151109639Y-73079784D01*
X151112723Y-73079630D01*
X151286646Y-73073144D01*
X151839739Y-73052516D01*
X151842879Y-73052438D01*
X152300545Y-73046786D01*
X152572020Y-73043433D01*
X152575097Y-73043433D01*
X152846848Y-73046789D01*
G37*
%TD.AperFunction*%
M02*
