%TF.GenerationSoftware,KiCad,Pcbnew,(6.0.7)*%
%TF.CreationDate,2022-09-05T18:42:41-05:00*%
%TF.ProjectId,Corelight SAO,436f7265-6c69-4676-9874-2053414f2e6b,rev?*%
%TF.SameCoordinates,Original*%
%TF.FileFunction,Profile,NP*%
%FSLAX46Y46*%
G04 Gerber Fmt 4.6, Leading zero omitted, Abs format (unit mm)*
G04 Created by KiCad (PCBNEW (6.0.7)) date 2022-09-05 18:42:41*
%MOMM*%
%LPD*%
G01*
G04 APERTURE LIST*
%TA.AperFunction,Profile*%
%ADD10C,0.100000*%
%TD*%
G04 APERTURE END LIST*
D10*
X177117671Y-119785775D02*
X176686871Y-120383075D01*
X152573571Y-72534875D02*
X153318471Y-72544075D01*
X141573271Y-130453975D02*
X140896171Y-130177275D01*
X167976271Y-128279075D02*
X167342471Y-128647775D01*
X127299771Y-118704575D02*
X126916771Y-118090975D01*
X182244771Y-106964975D02*
X182127071Y-107691975D01*
X179697071Y-89716375D02*
X180001671Y-90381775D01*
X182573571Y-102534875D02*
X182573571Y-102534875D01*
X169824471Y-77990775D02*
X170421771Y-78421575D01*
X129843571Y-82955475D02*
X130334571Y-82399675D01*
X162688771Y-74291575D02*
X163374671Y-74546675D01*
X123922271Y-111455975D02*
X123711671Y-110747775D01*
X164726671Y-129962975D02*
X164054071Y-130251275D01*
X164726671Y-75106675D02*
X165392071Y-75411275D01*
X181481371Y-94513475D02*
X181668771Y-95222375D01*
X160594971Y-73627075D02*
X161298571Y-73831575D01*
X129367471Y-83522175D02*
X129843571Y-82955475D01*
X145261071Y-73439675D02*
X145974971Y-73269475D01*
X180561671Y-113335975D02*
X180289971Y-114015375D01*
X179376271Y-89058375D02*
X179697071Y-89716375D01*
X128972171Y-121056475D02*
X128533471Y-120484375D01*
X125770871Y-89058375D02*
X126107771Y-88408175D01*
X180289971Y-114015375D02*
X180001671Y-114687975D01*
X131893671Y-80801475D02*
X132438371Y-80295875D01*
X123711671Y-110747775D02*
X123518071Y-110032375D01*
X181991771Y-108414875D02*
X181838971Y-109133475D01*
X177933271Y-86506975D02*
X178317771Y-87132175D01*
X157730671Y-72981275D02*
X158453571Y-73116675D01*
X125223671Y-114880975D02*
X124931071Y-114212175D01*
X122720371Y-99569775D02*
X122802371Y-98835575D01*
X122902371Y-98104775D02*
X123019971Y-97377775D01*
X181481371Y-110556275D02*
X181276771Y-111259875D01*
X176686871Y-84686675D02*
X177117671Y-85283975D01*
X159172171Y-131800275D02*
X158453571Y-131953075D01*
X182426771Y-99569775D02*
X182490771Y-100307075D01*
X125855571Y-116192375D02*
X125531871Y-115541075D01*
X164054071Y-130251275D02*
X163374671Y-130522975D01*
X175303571Y-122114275D02*
X174812571Y-122670075D01*
X122610471Y-101047275D02*
X122656371Y-100307075D01*
X122802371Y-98835575D02*
X122902371Y-98104775D01*
X156272871Y-132305975D02*
X155538671Y-132388075D01*
X169824471Y-127078975D02*
X169217571Y-127494475D01*
X179376271Y-116011375D02*
X179039371Y-116661575D01*
X178686471Y-117303775D02*
X178317771Y-117937575D01*
X125531871Y-115541075D02*
X125223671Y-114880975D01*
X181668771Y-95222375D02*
X181838971Y-95936275D01*
X173253471Y-124268275D02*
X172708771Y-124773875D01*
X127697071Y-119308175D02*
X127299771Y-118704575D01*
X155538671Y-72681675D02*
X156272871Y-72763675D01*
X128906371Y-84099275D02*
X129367471Y-83522175D01*
X135800271Y-127411375D02*
X135206971Y-126999975D01*
X152573571Y-132534875D02*
X151799271Y-132525075D01*
X173253471Y-80801475D02*
X173786771Y-81321675D01*
X150265371Y-132447375D02*
X149506271Y-132379975D01*
X159172171Y-73269475D02*
X159886071Y-73439675D01*
X182490771Y-100307075D02*
X182536671Y-101047275D01*
X122661071Y-104843075D02*
X122612571Y-104078675D01*
X123518071Y-110032375D02*
X123341771Y-109309975D01*
X126548171Y-117467575D02*
X126194371Y-116834675D01*
X180816871Y-92419675D02*
X181055271Y-93111775D01*
X133490771Y-125684275D02*
X132940771Y-125219275D01*
X138915971Y-129252875D02*
X138273771Y-128914075D01*
X165392071Y-75411275D02*
X166050071Y-75732175D01*
X141772471Y-74546675D02*
X142458371Y-74291575D01*
X129889171Y-122167675D02*
X129424071Y-121617675D01*
X134725371Y-78421575D02*
X135322671Y-77990775D01*
X162688771Y-130778175D02*
X161996671Y-131016575D01*
X178317771Y-117937575D02*
X177933271Y-118562675D01*
X176240771Y-84099275D02*
X176686871Y-84686675D01*
X123478371Y-95222375D02*
X123665771Y-94513475D01*
X133560871Y-79328775D02*
X134137971Y-78867675D01*
X173786771Y-81321675D02*
X174306971Y-81854975D01*
X124330271Y-92419675D02*
X124585371Y-91733775D01*
X154061171Y-72571775D02*
X154801371Y-72617675D01*
X153318471Y-132525675D02*
X152573571Y-132534875D01*
X167976271Y-76790675D02*
X168601371Y-77175175D01*
X159886071Y-131630075D02*
X159172171Y-131800275D01*
X166050071Y-129337575D02*
X165392071Y-129658375D01*
X128460271Y-84686675D02*
X128906371Y-84099275D01*
X151085971Y-72571775D02*
X151828671Y-72544075D01*
X175303571Y-82955475D02*
X175779671Y-83522175D01*
X176686871Y-120383075D02*
X176240771Y-120970375D01*
X168601371Y-127894575D02*
X167976271Y-128279075D01*
X143848471Y-73831575D02*
X144552171Y-73627075D01*
X142951671Y-130958575D02*
X142258571Y-130714475D01*
X182573571Y-102534875D02*
X182573571Y-102534875D01*
X138446871Y-76069075D02*
X139097071Y-75732175D01*
X146693571Y-73116675D02*
X147416471Y-72981275D01*
X181276771Y-93809775D02*
X181481371Y-94513475D01*
X123308171Y-95936275D02*
X123478371Y-95222375D01*
X177533171Y-85890875D02*
X177933271Y-86506975D01*
X148874271Y-72763675D02*
X149608471Y-72681675D01*
X170421771Y-78421575D02*
X171009171Y-78867675D01*
X154801371Y-72617675D02*
X155538671Y-72681675D01*
X157003671Y-72863675D02*
X157730671Y-72981275D01*
X143652471Y-131186075D02*
X142951671Y-130958575D01*
X168601371Y-77175175D02*
X169217571Y-77575175D01*
X181838971Y-95936275D02*
X181991771Y-96654775D01*
X177933271Y-118562675D02*
X177533171Y-119178875D01*
X182344671Y-98835575D02*
X182426771Y-99569775D01*
X124931071Y-114212175D02*
X124654471Y-113535075D01*
X180289971Y-91054375D02*
X180561671Y-91733775D01*
X174812571Y-122670075D02*
X174306971Y-123214775D01*
X181991771Y-96654775D02*
X182127071Y-97377775D01*
X180001671Y-114687975D02*
X179697071Y-115353375D01*
X146527471Y-131925375D02*
X145798471Y-131766675D01*
X130366971Y-122706175D02*
X129889171Y-122167675D01*
X182536671Y-104022475D02*
X182490771Y-104762675D01*
X130840171Y-81854975D02*
X131360371Y-81321675D01*
X164054071Y-74818475D02*
X164726671Y-75106675D01*
X149608471Y-72681675D02*
X150345771Y-72617675D01*
X129424071Y-121617675D02*
X128972171Y-121056475D01*
X131360371Y-123748075D02*
X130857471Y-123233075D01*
X137640871Y-128560175D02*
X137017471Y-128191675D01*
X126916771Y-118090975D02*
X126548171Y-117467575D01*
X161996671Y-131016575D02*
X161298571Y-131238075D01*
X169217571Y-127494475D02*
X168601371Y-127894575D01*
X180001671Y-90381775D02*
X180289971Y-91054375D01*
X178317771Y-87132175D02*
X178686471Y-87765975D01*
X126829371Y-87132175D02*
X127213871Y-86506975D01*
X139097071Y-75732175D02*
X139755071Y-75411275D01*
X147263071Y-132066275D02*
X146527471Y-131925375D01*
X182127071Y-107691975D02*
X181991771Y-108414875D01*
X134137971Y-78867675D02*
X134725371Y-78421575D01*
X124585371Y-91733775D02*
X124857171Y-91054375D01*
X123155371Y-96654775D02*
X123308171Y-95936275D01*
X135929571Y-77575175D02*
X136545671Y-77175175D01*
X174306971Y-81854975D02*
X174812571Y-82399675D01*
X173786771Y-123748075D02*
X173253471Y-124268275D01*
X180561671Y-91733775D02*
X180816871Y-92419675D01*
X155538671Y-132388075D02*
X154801371Y-132452075D01*
X182564371Y-101789975D02*
X182573571Y-102534875D01*
X122583371Y-103309175D02*
X122573571Y-102534875D01*
X172708771Y-80295875D02*
X173253471Y-80801475D01*
X142258571Y-130714475D02*
X141573271Y-130453975D01*
X175779671Y-83522175D02*
X176240771Y-84099275D01*
X182426771Y-105499975D02*
X182344671Y-106234175D01*
X172708771Y-124773875D02*
X172152971Y-125264875D01*
X132438371Y-80295875D02*
X132994171Y-79804875D01*
X128108371Y-119901475D02*
X127697071Y-119308175D01*
X182564371Y-103279775D02*
X182536671Y-104022475D01*
X171009171Y-126202075D02*
X170421771Y-126648175D01*
X132994171Y-79804875D02*
X133560871Y-79328775D01*
X135206971Y-126999975D02*
X134624071Y-126574975D01*
X143150471Y-74053175D02*
X143848471Y-73831575D01*
X122814571Y-106355775D02*
X122728471Y-105602175D01*
X167342471Y-128647775D02*
X166700271Y-129000675D01*
X154801371Y-132452075D02*
X154061171Y-132497975D01*
X170421771Y-126648175D02*
X169824471Y-127078975D01*
X123183071Y-108580875D02*
X123042171Y-107845375D01*
X166050071Y-75732175D02*
X166700271Y-76069075D01*
X130334571Y-82399675D02*
X130840171Y-81854975D01*
X181838971Y-109133475D02*
X181668771Y-109847375D01*
X166700271Y-129000675D02*
X166050071Y-129337575D01*
X166700271Y-76069075D02*
X167342471Y-76421975D01*
X145974971Y-73269475D02*
X146693571Y-73116675D01*
X182127071Y-97377775D02*
X182244771Y-98104775D01*
X136545671Y-77175175D02*
X137170871Y-76790675D01*
X127213871Y-86506975D02*
X127613871Y-85890875D01*
X140420471Y-75106675D02*
X141093071Y-74818475D01*
X161996671Y-74053175D02*
X162688771Y-74291575D01*
X126107771Y-88408175D02*
X126460671Y-87765975D01*
X156272871Y-72763675D02*
X157003671Y-72863675D01*
X132940771Y-125219275D02*
X132402271Y-124741375D01*
X122919271Y-107103575D02*
X122814571Y-106355775D01*
X174812571Y-82399675D02*
X175303571Y-82955475D01*
X179039371Y-116661575D02*
X178686471Y-117303775D01*
X174306971Y-123214775D02*
X173786771Y-123748075D01*
X123042171Y-107845375D02*
X122919271Y-107103575D01*
X137017471Y-128191675D02*
X136403871Y-127808675D01*
X161298571Y-73831575D02*
X161996671Y-74053175D01*
X140227471Y-129884775D02*
X139567371Y-129576575D01*
X125145371Y-90381775D02*
X125449971Y-89716375D01*
X139755071Y-75411275D02*
X140420471Y-75106675D01*
X123341771Y-109309975D02*
X123183071Y-108580875D01*
X172152971Y-79804875D02*
X172708771Y-80295875D01*
X149506271Y-132379975D02*
X148752671Y-132293875D01*
X122612571Y-104078675D02*
X122583371Y-103309175D01*
X180816871Y-112650075D02*
X180561671Y-113335975D01*
X125449971Y-89716375D02*
X125770871Y-89058375D01*
X157003671Y-132206075D02*
X156272871Y-132305975D01*
X176240771Y-120970375D02*
X175779671Y-121547575D01*
X171586271Y-79328775D02*
X172152971Y-79804875D01*
X130857471Y-123233075D02*
X130366971Y-122706175D01*
X158453571Y-73116675D02*
X159172171Y-73269475D01*
X124149871Y-112156775D02*
X123922271Y-111455975D01*
X126460671Y-87765975D02*
X126829371Y-87132175D01*
X137804671Y-76421975D02*
X138446871Y-76069075D01*
X132402271Y-124741375D02*
X131875371Y-124250875D01*
X124393971Y-112849875D02*
X124149871Y-112156775D01*
X182536671Y-101047275D02*
X182564371Y-101789975D01*
X165392071Y-129658375D02*
X164726671Y-129962975D01*
X144552171Y-73627075D02*
X145261071Y-73439675D01*
X145076071Y-131590375D02*
X144360671Y-131396775D01*
X131360371Y-81321675D02*
X131893671Y-80801475D01*
X141093071Y-74818475D02*
X141772471Y-74546675D01*
X140896171Y-130177275D02*
X140227471Y-129884775D01*
X160594971Y-131442675D02*
X159886071Y-131630075D01*
X171009171Y-78867675D02*
X171586271Y-79328775D01*
X181055271Y-93111775D02*
X181276771Y-93809775D01*
X123665771Y-94513475D02*
X123870271Y-93809775D01*
X177533171Y-119178875D02*
X177117671Y-119785775D01*
X124857171Y-91054375D02*
X125145371Y-90381775D01*
X122728471Y-105602175D02*
X122661071Y-104843075D01*
X137170871Y-76790675D02*
X137804671Y-76421975D01*
X122582771Y-101789975D02*
X122610471Y-101047275D01*
X151029771Y-132495875D02*
X150265371Y-132447375D01*
X159886071Y-73439675D02*
X160594971Y-73627075D01*
X128029471Y-85283975D02*
X128460271Y-84686675D01*
X122656371Y-100307075D02*
X122720371Y-99569775D01*
X150345771Y-72617675D02*
X151085971Y-72571775D01*
X134051971Y-126136275D02*
X133490771Y-125684275D01*
X128533471Y-120484375D02*
X128108371Y-119901475D01*
X138273771Y-128914075D02*
X137640871Y-128560175D01*
X144360671Y-131396775D02*
X143652471Y-131186075D01*
X127613871Y-85890875D02*
X128029471Y-85283975D01*
X123870271Y-93809775D02*
X124091871Y-93111775D01*
X169217571Y-77575175D02*
X169824471Y-77990775D01*
X148752671Y-132293875D02*
X148004871Y-132189175D01*
X182344671Y-106234175D02*
X182244771Y-106964975D01*
X153318471Y-72544075D02*
X154061171Y-72571775D01*
X134624071Y-126574975D02*
X134051971Y-126136275D01*
X182573571Y-102534875D02*
X182564371Y-103279775D01*
X124654471Y-113535075D02*
X124393971Y-112849875D01*
X151828671Y-72544075D02*
X152573571Y-72534875D01*
X177117671Y-85283975D02*
X177533171Y-85890875D01*
X163374671Y-130522975D02*
X162688771Y-130778175D01*
X181276771Y-111259875D02*
X181055271Y-111957975D01*
X131875371Y-124250875D02*
X131360371Y-123748075D01*
X142458371Y-74291575D02*
X143150471Y-74053175D01*
X175779671Y-121547575D02*
X175303571Y-122114275D01*
X179697071Y-115353375D02*
X179376271Y-116011375D01*
X147416471Y-72981275D02*
X148143471Y-72863675D01*
X171586271Y-125740975D02*
X171009171Y-126202075D01*
X135322671Y-77990775D02*
X135929571Y-77575175D01*
X182490771Y-104762675D02*
X182426771Y-105499975D01*
X136403871Y-127808675D02*
X135800271Y-127411375D01*
X151799271Y-132525075D02*
X151029771Y-132495875D01*
X161298571Y-131238075D02*
X160594971Y-131442675D01*
X124091871Y-93111775D02*
X124330271Y-92419675D01*
X154061171Y-132497975D02*
X153318471Y-132525675D01*
X123019971Y-97377775D02*
X123155371Y-96654775D01*
X126194371Y-116834675D02*
X125855571Y-116192375D01*
X148143471Y-72863675D02*
X148874271Y-72763675D01*
X148004871Y-132189175D02*
X147263071Y-132066275D01*
X158453571Y-131953075D02*
X157730671Y-132088375D01*
X122573571Y-102534875D02*
X122582771Y-101789975D01*
X181668771Y-109847375D02*
X181481371Y-110556275D01*
X178686471Y-87765975D02*
X179039371Y-88408175D01*
X172152971Y-125264875D02*
X171586271Y-125740975D01*
X167342471Y-76421975D02*
X167976271Y-76790675D01*
X163374671Y-74546675D02*
X164054071Y-74818475D01*
X157730671Y-132088375D02*
X157003671Y-132206075D01*
X139567371Y-129576575D02*
X138915971Y-129252875D01*
X181055271Y-111957975D02*
X180816871Y-112650075D01*
X145798471Y-131766675D02*
X145076071Y-131590375D01*
X182244771Y-98104775D02*
X182344671Y-98835575D01*
X179039371Y-88408175D02*
X179376271Y-89058375D01*
M02*
