G04 #@! TF.GenerationSoftware,KiCad,Pcbnew,(5.1.4)-1*
G04 #@! TF.CreationDate,2020-06-27T18:01:36-05:00*
G04 #@! TF.ProjectId,8266-dev,38323636-2d64-4657-962e-6b696361645f,rev?*
G04 #@! TF.SameCoordinates,Original*
G04 #@! TF.FileFunction,Copper,L1,Top*
G04 #@! TF.FilePolarity,Positive*
%FSLAX46Y46*%
G04 Gerber Fmt 4.6, Leading zero omitted, Abs format (unit mm)*
G04 Created by KiCad (PCBNEW (5.1.4)-1) date 2020-06-27 18:01:36*
%MOMM*%
%LPD*%
G04 APERTURE LIST*
%ADD10R,2.000000X2.000000*%
%ADD11C,2.000000*%
%ADD12C,2.800000*%
%ADD13C,1.450000*%
%ADD14O,1.900000X1.200000*%
%ADD15C,0.600000*%
%ADD16C,0.250000*%
%ADD17C,0.200000*%
G04 APERTURE END LIST*
D10*
X126300000Y-90600000D03*
D11*
X126300000Y-93100000D03*
X126300000Y-95600000D03*
D12*
X133800000Y-87500000D03*
X133800000Y-98700000D03*
D11*
X140800000Y-90600000D03*
X140800000Y-95600000D03*
D13*
X166319500Y-128542600D03*
X166319500Y-133542600D03*
D14*
X169019500Y-127542600D03*
X169019500Y-134542600D03*
D15*
X164800000Y-49800000D03*
X103700000Y-64300000D03*
X114100000Y-48900000D03*
X120000000Y-55000000D03*
X105200000Y-49800000D03*
X133100000Y-67400000D03*
X138900000Y-69700000D03*
X166100000Y-72400000D03*
X136100000Y-84700000D03*
X159500000Y-86400000D03*
X136300000Y-101800000D03*
X162800000Y-85000002D03*
X139400000Y-57500000D03*
X137900000Y-55500000D03*
X168229480Y-58078020D03*
X168171060Y-61905800D03*
X146350000Y-122750000D03*
X157997361Y-118502639D03*
X122700000Y-64100000D03*
X117600000Y-60400000D03*
X113500000Y-62300000D03*
X100100000Y-75900000D03*
X114700000Y-59800000D03*
X147100000Y-80000000D03*
X147200000Y-106000000D03*
X142100000Y-81700000D03*
X149400000Y-81100000D03*
X118300000Y-80200000D03*
X115000000Y-77600000D03*
X113408058Y-60208058D03*
X111400000Y-63200000D03*
X144100000Y-83800000D03*
X156500000Y-97300000D03*
X149500000Y-98100000D03*
X127500000Y-109200000D03*
X121400000Y-114500000D03*
X140000000Y-75900000D03*
X121900000Y-57000000D03*
X118300000Y-58900000D03*
D16*
X136100000Y-84700000D02*
X137800000Y-86400000D01*
X136300000Y-101800000D02*
X139300000Y-101800000D01*
X162500001Y-85300001D02*
X162800000Y-85000002D01*
X160700003Y-87099999D02*
X162500001Y-85300001D01*
X139300000Y-101800000D02*
X154000001Y-87099999D01*
X154000001Y-87099999D02*
X160700003Y-87099999D01*
X115400000Y-60400000D02*
X113500000Y-62300000D01*
X117600000Y-60400000D02*
X115400000Y-60400000D01*
X113500000Y-62300000D02*
X113500000Y-63700000D01*
X112874999Y-61625001D02*
X114700000Y-59800000D01*
X142100000Y-81700000D02*
X144300000Y-81700000D01*
X146000000Y-80000000D02*
X147100000Y-80000000D01*
X144300000Y-81700000D02*
X146000000Y-80000000D01*
X147200000Y-106000000D02*
X144400000Y-103200000D01*
X144100000Y-83800000D02*
X146500000Y-81400000D01*
X149100000Y-81400000D02*
X149400000Y-81100000D01*
X146500000Y-81400000D02*
X149100000Y-81400000D01*
X118300000Y-80200000D02*
X116000000Y-77900000D01*
X115300000Y-77900000D02*
X115000000Y-77600000D01*
X116000000Y-77900000D02*
X115300000Y-77900000D01*
X113408058Y-60208058D02*
X111800000Y-61816116D01*
X111800000Y-62800000D02*
X111400000Y-63200000D01*
X111800000Y-61816116D02*
X111800000Y-62800000D01*
X156500000Y-97300000D02*
X156200000Y-97600000D01*
X150000000Y-97600000D02*
X149500000Y-98100000D01*
X156200000Y-97600000D02*
X150000000Y-97600000D01*
D17*
X127500000Y-109200000D02*
X127500000Y-110900000D01*
X123900000Y-114500000D02*
X121400000Y-114500000D01*
X127500000Y-110900000D02*
X123900000Y-114500000D01*
D16*
X121600001Y-57299999D02*
X121600001Y-57499999D01*
X121900000Y-57000000D02*
X121600001Y-57299999D01*
X120200000Y-58900000D02*
X118300000Y-58900000D01*
X121600001Y-57499999D02*
X120200000Y-58900000D01*
M02*
