G04 #@! TF.GenerationSoftware,KiCad,Pcbnew,(5.1.4)-1*
G04 #@! TF.CreationDate,2020-06-27T18:01:36-05:00*
G04 #@! TF.ProjectId,8266-dev,38323636-2d64-4657-962e-6b696361645f,rev?*
G04 #@! TF.SameCoordinates,Original*
G04 #@! TF.FileFunction,Other,Fab,Top*
%FSLAX46Y46*%
G04 Gerber Fmt 4.6, Leading zero omitted, Abs format (unit mm)*
G04 Created by KiCad (PCBNEW (5.1.4)-1) date 2020-06-27 18:01:36*
%MOMM*%
%LPD*%
G04 APERTURE LIST*
%ADD10C,0.120000*%
%ADD11C,0.150000*%
G04 APERTURE END LIST*
D10*
X136800000Y-93100000D02*
G75*
G03X136800000Y-93100000I-3000000J0D01*
G01*
X128200000Y-86900000D02*
X140400000Y-86900000D01*
X140400000Y-86900000D02*
X140400000Y-99300000D01*
X140400000Y-99300000D02*
X127200000Y-99300000D01*
X127200000Y-99300000D02*
X127200000Y-88000000D01*
X127200000Y-88000000D02*
X128200000Y-86900000D01*
X133800000Y-90100000D02*
X133800000Y-96100000D01*
X130800000Y-93100000D02*
X136800000Y-93100000D01*
D11*
X126085714Y-101452380D02*
X125752380Y-100976190D01*
X125514285Y-101452380D02*
X125514285Y-100452380D01*
X125895238Y-100452380D01*
X125990476Y-100500000D01*
X126038095Y-100547619D01*
X126085714Y-100642857D01*
X126085714Y-100785714D01*
X126038095Y-100880952D01*
X125990476Y-100928571D01*
X125895238Y-100976190D01*
X125514285Y-100976190D01*
X126657142Y-101452380D02*
X126561904Y-101404761D01*
X126514285Y-101357142D01*
X126466666Y-101261904D01*
X126466666Y-100976190D01*
X126514285Y-100880952D01*
X126561904Y-100833333D01*
X126657142Y-100785714D01*
X126800000Y-100785714D01*
X126895238Y-100833333D01*
X126942857Y-100880952D01*
X126990476Y-100976190D01*
X126990476Y-101261904D01*
X126942857Y-101357142D01*
X126895238Y-101404761D01*
X126800000Y-101452380D01*
X126657142Y-101452380D01*
X127276190Y-100785714D02*
X127657142Y-100785714D01*
X127419047Y-100452380D02*
X127419047Y-101309523D01*
X127466666Y-101404761D01*
X127561904Y-101452380D01*
X127657142Y-101452380D01*
X128419047Y-101452380D02*
X128419047Y-100928571D01*
X128371428Y-100833333D01*
X128276190Y-100785714D01*
X128085714Y-100785714D01*
X127990476Y-100833333D01*
X128419047Y-101404761D02*
X128323809Y-101452380D01*
X128085714Y-101452380D01*
X127990476Y-101404761D01*
X127942857Y-101309523D01*
X127942857Y-101214285D01*
X127990476Y-101119047D01*
X128085714Y-101071428D01*
X128323809Y-101071428D01*
X128419047Y-101023809D01*
X128895238Y-101452380D02*
X128895238Y-100785714D01*
X128895238Y-100976190D02*
X128942857Y-100880952D01*
X128990476Y-100833333D01*
X129085714Y-100785714D01*
X129180952Y-100785714D01*
X129419047Y-100785714D02*
X129657142Y-101452380D01*
X129895238Y-100785714D02*
X129657142Y-101452380D01*
X129561904Y-101690476D01*
X129514285Y-101738095D01*
X129419047Y-101785714D01*
X130038095Y-101547619D02*
X130800000Y-101547619D01*
X131038095Y-100928571D02*
X131371428Y-100928571D01*
X131514285Y-101452380D02*
X131038095Y-101452380D01*
X131038095Y-100452380D01*
X131514285Y-100452380D01*
X131942857Y-100785714D02*
X131942857Y-101452380D01*
X131942857Y-100880952D02*
X131990476Y-100833333D01*
X132085714Y-100785714D01*
X132228571Y-100785714D01*
X132323809Y-100833333D01*
X132371428Y-100928571D01*
X132371428Y-101452380D01*
X133276190Y-101404761D02*
X133180952Y-101452380D01*
X132990476Y-101452380D01*
X132895238Y-101404761D01*
X132847619Y-101357142D01*
X132800000Y-101261904D01*
X132800000Y-100976190D01*
X132847619Y-100880952D01*
X132895238Y-100833333D01*
X132990476Y-100785714D01*
X133180952Y-100785714D01*
X133276190Y-100833333D01*
X133847619Y-101452380D02*
X133752380Y-101404761D01*
X133704761Y-101357142D01*
X133657142Y-101261904D01*
X133657142Y-100976190D01*
X133704761Y-100880952D01*
X133752380Y-100833333D01*
X133847619Y-100785714D01*
X133990476Y-100785714D01*
X134085714Y-100833333D01*
X134133333Y-100880952D01*
X134180952Y-100976190D01*
X134180952Y-101261904D01*
X134133333Y-101357142D01*
X134085714Y-101404761D01*
X133990476Y-101452380D01*
X133847619Y-101452380D01*
X135038095Y-101452380D02*
X135038095Y-100452380D01*
X135038095Y-101404761D02*
X134942857Y-101452380D01*
X134752380Y-101452380D01*
X134657142Y-101404761D01*
X134609523Y-101357142D01*
X134561904Y-101261904D01*
X134561904Y-100976190D01*
X134609523Y-100880952D01*
X134657142Y-100833333D01*
X134752380Y-100785714D01*
X134942857Y-100785714D01*
X135038095Y-100833333D01*
X135895238Y-101404761D02*
X135800000Y-101452380D01*
X135609523Y-101452380D01*
X135514285Y-101404761D01*
X135466666Y-101309523D01*
X135466666Y-100928571D01*
X135514285Y-100833333D01*
X135609523Y-100785714D01*
X135800000Y-100785714D01*
X135895238Y-100833333D01*
X135942857Y-100928571D01*
X135942857Y-101023809D01*
X135466666Y-101119047D01*
X136371428Y-101452380D02*
X136371428Y-100785714D01*
X136371428Y-100976190D02*
X136419047Y-100880952D01*
X136466666Y-100833333D01*
X136561904Y-100785714D01*
X136657142Y-100785714D01*
X136752380Y-101547619D02*
X137514285Y-101547619D01*
X137704761Y-101404761D02*
X137847619Y-101452380D01*
X138085714Y-101452380D01*
X138180952Y-101404761D01*
X138228571Y-101357142D01*
X138276190Y-101261904D01*
X138276190Y-101166666D01*
X138228571Y-101071428D01*
X138180952Y-101023809D01*
X138085714Y-100976190D01*
X137895238Y-100928571D01*
X137800000Y-100880952D01*
X137752380Y-100833333D01*
X137704761Y-100738095D01*
X137704761Y-100642857D01*
X137752380Y-100547619D01*
X137800000Y-100500000D01*
X137895238Y-100452380D01*
X138133333Y-100452380D01*
X138276190Y-100500000D01*
X138609523Y-100785714D02*
X138800000Y-101452380D01*
X138990476Y-100976190D01*
X139180952Y-101452380D01*
X139371428Y-100785714D01*
X139752380Y-101452380D02*
X139752380Y-100785714D01*
X139752380Y-100452380D02*
X139704761Y-100500000D01*
X139752380Y-100547619D01*
X139800000Y-100500000D01*
X139752380Y-100452380D01*
X139752380Y-100547619D01*
X140085714Y-100785714D02*
X140466666Y-100785714D01*
X140228571Y-100452380D02*
X140228571Y-101309523D01*
X140276190Y-101404761D01*
X140371428Y-101452380D01*
X140466666Y-101452380D01*
X141228571Y-101404761D02*
X141133333Y-101452380D01*
X140942857Y-101452380D01*
X140847619Y-101404761D01*
X140800000Y-101357142D01*
X140752380Y-101261904D01*
X140752380Y-100976190D01*
X140800000Y-100880952D01*
X140847619Y-100833333D01*
X140942857Y-100785714D01*
X141133333Y-100785714D01*
X141228571Y-100833333D01*
X141657142Y-101452380D02*
X141657142Y-100452380D01*
X142085714Y-101452380D02*
X142085714Y-100928571D01*
X142038095Y-100833333D01*
X141942857Y-100785714D01*
X141800000Y-100785714D01*
X141704761Y-100833333D01*
X141657142Y-100880952D01*
X136466666Y-97604761D02*
X136609523Y-97652380D01*
X136847619Y-97652380D01*
X136942857Y-97604761D01*
X136990476Y-97557142D01*
X137038095Y-97461904D01*
X137038095Y-97366666D01*
X136990476Y-97271428D01*
X136942857Y-97223809D01*
X136847619Y-97176190D01*
X136657142Y-97128571D01*
X136561904Y-97080952D01*
X136514285Y-97033333D01*
X136466666Y-96938095D01*
X136466666Y-96842857D01*
X136514285Y-96747619D01*
X136561904Y-96700000D01*
X136657142Y-96652380D01*
X136895238Y-96652380D01*
X137038095Y-96700000D01*
X137371428Y-96652380D02*
X137609523Y-97652380D01*
X137800000Y-96938095D01*
X137990476Y-97652380D01*
X138228571Y-96652380D01*
X139133333Y-97652380D02*
X138561904Y-97652380D01*
X138847619Y-97652380D02*
X138847619Y-96652380D01*
X138752380Y-96795238D01*
X138657142Y-96890476D01*
X138561904Y-96938095D01*
M02*
