G04 #@! TF.GenerationSoftware,KiCad,Pcbnew,(5.1.4)-1*
G04 #@! TF.CreationDate,2020-06-27T18:01:36-05:00*
G04 #@! TF.ProjectId,8266-dev,38323636-2d64-4657-962e-6b696361645f,rev?*
G04 #@! TF.SameCoordinates,Original*
G04 #@! TF.FileFunction,Copper,L2,Bot*
G04 #@! TF.FilePolarity,Positive*
%FSLAX46Y46*%
G04 Gerber Fmt 4.6, Leading zero omitted, Abs format (unit mm)*
G04 Created by KiCad (PCBNEW (5.1.4)-1) date 2020-06-27 18:01:36*
%MOMM*%
%LPD*%
G04 APERTURE LIST*
%ADD10C,0.100000*%
%ADD11R,2.000000X2.500000*%
%ADD12R,2.500000X2.000000*%
%ADD13R,1.100000X1.700000*%
%ADD14R,2.000000X1.200000*%
%ADD15C,1.250000*%
%ADD16R,1.000000X1.500000*%
%ADD17R,2.000000X2.000000*%
%ADD18C,2.000000*%
%ADD19C,2.800000*%
%ADD20R,0.800000X1.000000*%
%ADD21R,1.500000X0.700000*%
%ADD22C,0.200000*%
%ADD23C,2.300000*%
%ADD24R,1.550000X1.300000*%
%ADD25R,1.900000X1.500000*%
%ADD26C,1.450000*%
%ADD27R,1.350000X0.400000*%
%ADD28O,1.900000X1.200000*%
%ADD29R,1.900000X1.200000*%
%ADD30C,0.600000*%
%ADD31C,1.425000*%
%ADD32R,2.000000X3.800000*%
%ADD33R,2.000000X1.500000*%
%ADD34C,0.250000*%
%ADD35C,0.200000*%
G04 APERTURE END LIST*
D10*
G36*
X118550000Y-56500000D02*
G01*
X118050000Y-56500000D01*
X118050000Y-57100000D01*
X118550000Y-57100000D01*
X118550000Y-56500000D01*
G37*
D11*
X129400000Y-81600000D03*
X124800000Y-81600000D03*
D12*
X132700000Y-77500000D03*
X132700000Y-82100000D03*
D11*
X141200000Y-81900000D03*
X136600000Y-81900000D03*
X145800000Y-86000000D03*
X141200000Y-86000000D03*
X148000000Y-92600000D03*
X143400000Y-92600000D03*
X146000000Y-99900000D03*
X141400000Y-99900000D03*
X141300000Y-104800000D03*
X136700000Y-104800000D03*
D12*
X132800000Y-103700000D03*
X132800000Y-108300000D03*
D11*
X128200000Y-104200000D03*
X123600000Y-104200000D03*
X123500000Y-99700000D03*
X118900000Y-99700000D03*
X121900000Y-92700000D03*
X117300000Y-92700000D03*
X124100000Y-86000000D03*
X119500000Y-86000000D03*
D13*
X145113220Y-71071580D03*
X147113220Y-71071580D03*
X149113220Y-71071580D03*
X151113220Y-71071580D03*
X153113220Y-71071580D03*
X155113220Y-71071580D03*
D14*
X142613220Y-55571580D03*
X142613220Y-57571580D03*
X142613220Y-59571580D03*
X142613220Y-61571580D03*
X142613220Y-63571580D03*
X142613220Y-65571580D03*
X142613220Y-67571580D03*
X142613220Y-69571580D03*
X157613220Y-69571580D03*
X157613220Y-67571580D03*
X157613220Y-65571580D03*
X157613220Y-63571580D03*
X157613220Y-61571580D03*
X157613220Y-59571580D03*
X157613220Y-57571580D03*
X157613220Y-55571580D03*
D10*
G36*
X105849504Y-51376204D02*
G01*
X105873773Y-51379804D01*
X105897571Y-51385765D01*
X105920671Y-51394030D01*
X105942849Y-51404520D01*
X105963893Y-51417133D01*
X105983598Y-51431747D01*
X106001777Y-51448223D01*
X106018253Y-51466402D01*
X106032867Y-51486107D01*
X106045480Y-51507151D01*
X106055970Y-51529329D01*
X106064235Y-51552429D01*
X106070196Y-51576227D01*
X106073796Y-51600496D01*
X106075000Y-51625000D01*
X106075000Y-52375000D01*
X106073796Y-52399504D01*
X106070196Y-52423773D01*
X106064235Y-52447571D01*
X106055970Y-52470671D01*
X106045480Y-52492849D01*
X106032867Y-52513893D01*
X106018253Y-52533598D01*
X106001777Y-52551777D01*
X105983598Y-52568253D01*
X105963893Y-52582867D01*
X105942849Y-52595480D01*
X105920671Y-52605970D01*
X105897571Y-52614235D01*
X105873773Y-52620196D01*
X105849504Y-52623796D01*
X105825000Y-52625000D01*
X104575000Y-52625000D01*
X104550496Y-52623796D01*
X104526227Y-52620196D01*
X104502429Y-52614235D01*
X104479329Y-52605970D01*
X104457151Y-52595480D01*
X104436107Y-52582867D01*
X104416402Y-52568253D01*
X104398223Y-52551777D01*
X104381747Y-52533598D01*
X104367133Y-52513893D01*
X104354520Y-52492849D01*
X104344030Y-52470671D01*
X104335765Y-52447571D01*
X104329804Y-52423773D01*
X104326204Y-52399504D01*
X104325000Y-52375000D01*
X104325000Y-51625000D01*
X104326204Y-51600496D01*
X104329804Y-51576227D01*
X104335765Y-51552429D01*
X104344030Y-51529329D01*
X104354520Y-51507151D01*
X104367133Y-51486107D01*
X104381747Y-51466402D01*
X104398223Y-51448223D01*
X104416402Y-51431747D01*
X104436107Y-51417133D01*
X104457151Y-51404520D01*
X104479329Y-51394030D01*
X104502429Y-51385765D01*
X104526227Y-51379804D01*
X104550496Y-51376204D01*
X104575000Y-51375000D01*
X105825000Y-51375000D01*
X105849504Y-51376204D01*
X105849504Y-51376204D01*
G37*
D15*
X105200000Y-52000000D03*
D10*
G36*
X105849504Y-54176204D02*
G01*
X105873773Y-54179804D01*
X105897571Y-54185765D01*
X105920671Y-54194030D01*
X105942849Y-54204520D01*
X105963893Y-54217133D01*
X105983598Y-54231747D01*
X106001777Y-54248223D01*
X106018253Y-54266402D01*
X106032867Y-54286107D01*
X106045480Y-54307151D01*
X106055970Y-54329329D01*
X106064235Y-54352429D01*
X106070196Y-54376227D01*
X106073796Y-54400496D01*
X106075000Y-54425000D01*
X106075000Y-55175000D01*
X106073796Y-55199504D01*
X106070196Y-55223773D01*
X106064235Y-55247571D01*
X106055970Y-55270671D01*
X106045480Y-55292849D01*
X106032867Y-55313893D01*
X106018253Y-55333598D01*
X106001777Y-55351777D01*
X105983598Y-55368253D01*
X105963893Y-55382867D01*
X105942849Y-55395480D01*
X105920671Y-55405970D01*
X105897571Y-55414235D01*
X105873773Y-55420196D01*
X105849504Y-55423796D01*
X105825000Y-55425000D01*
X104575000Y-55425000D01*
X104550496Y-55423796D01*
X104526227Y-55420196D01*
X104502429Y-55414235D01*
X104479329Y-55405970D01*
X104457151Y-55395480D01*
X104436107Y-55382867D01*
X104416402Y-55368253D01*
X104398223Y-55351777D01*
X104381747Y-55333598D01*
X104367133Y-55313893D01*
X104354520Y-55292849D01*
X104344030Y-55270671D01*
X104335765Y-55247571D01*
X104329804Y-55223773D01*
X104326204Y-55199504D01*
X104325000Y-55175000D01*
X104325000Y-54425000D01*
X104326204Y-54400496D01*
X104329804Y-54376227D01*
X104335765Y-54352429D01*
X104344030Y-54329329D01*
X104354520Y-54307151D01*
X104367133Y-54286107D01*
X104381747Y-54266402D01*
X104398223Y-54248223D01*
X104416402Y-54231747D01*
X104436107Y-54217133D01*
X104457151Y-54204520D01*
X104479329Y-54194030D01*
X104502429Y-54185765D01*
X104526227Y-54179804D01*
X104550496Y-54176204D01*
X104575000Y-54175000D01*
X105825000Y-54175000D01*
X105849504Y-54176204D01*
X105849504Y-54176204D01*
G37*
D15*
X105200000Y-54800000D03*
D16*
X117650000Y-56800000D03*
X118950000Y-56800000D03*
D10*
G36*
X138499504Y-60326204D02*
G01*
X138523773Y-60329804D01*
X138547571Y-60335765D01*
X138570671Y-60344030D01*
X138592849Y-60354520D01*
X138613893Y-60367133D01*
X138633598Y-60381747D01*
X138651777Y-60398223D01*
X138668253Y-60416402D01*
X138682867Y-60436107D01*
X138695480Y-60457151D01*
X138705970Y-60479329D01*
X138714235Y-60502429D01*
X138720196Y-60526227D01*
X138723796Y-60550496D01*
X138725000Y-60575000D01*
X138725000Y-61825000D01*
X138723796Y-61849504D01*
X138720196Y-61873773D01*
X138714235Y-61897571D01*
X138705970Y-61920671D01*
X138695480Y-61942849D01*
X138682867Y-61963893D01*
X138668253Y-61983598D01*
X138651777Y-62001777D01*
X138633598Y-62018253D01*
X138613893Y-62032867D01*
X138592849Y-62045480D01*
X138570671Y-62055970D01*
X138547571Y-62064235D01*
X138523773Y-62070196D01*
X138499504Y-62073796D01*
X138475000Y-62075000D01*
X137725000Y-62075000D01*
X137700496Y-62073796D01*
X137676227Y-62070196D01*
X137652429Y-62064235D01*
X137629329Y-62055970D01*
X137607151Y-62045480D01*
X137586107Y-62032867D01*
X137566402Y-62018253D01*
X137548223Y-62001777D01*
X137531747Y-61983598D01*
X137517133Y-61963893D01*
X137504520Y-61942849D01*
X137494030Y-61920671D01*
X137485765Y-61897571D01*
X137479804Y-61873773D01*
X137476204Y-61849504D01*
X137475000Y-61825000D01*
X137475000Y-60575000D01*
X137476204Y-60550496D01*
X137479804Y-60526227D01*
X137485765Y-60502429D01*
X137494030Y-60479329D01*
X137504520Y-60457151D01*
X137517133Y-60436107D01*
X137531747Y-60416402D01*
X137548223Y-60398223D01*
X137566402Y-60381747D01*
X137586107Y-60367133D01*
X137607151Y-60354520D01*
X137629329Y-60344030D01*
X137652429Y-60335765D01*
X137676227Y-60329804D01*
X137700496Y-60326204D01*
X137725000Y-60325000D01*
X138475000Y-60325000D01*
X138499504Y-60326204D01*
X138499504Y-60326204D01*
G37*
D15*
X138100000Y-61200000D03*
D10*
G36*
X135699504Y-60326204D02*
G01*
X135723773Y-60329804D01*
X135747571Y-60335765D01*
X135770671Y-60344030D01*
X135792849Y-60354520D01*
X135813893Y-60367133D01*
X135833598Y-60381747D01*
X135851777Y-60398223D01*
X135868253Y-60416402D01*
X135882867Y-60436107D01*
X135895480Y-60457151D01*
X135905970Y-60479329D01*
X135914235Y-60502429D01*
X135920196Y-60526227D01*
X135923796Y-60550496D01*
X135925000Y-60575000D01*
X135925000Y-61825000D01*
X135923796Y-61849504D01*
X135920196Y-61873773D01*
X135914235Y-61897571D01*
X135905970Y-61920671D01*
X135895480Y-61942849D01*
X135882867Y-61963893D01*
X135868253Y-61983598D01*
X135851777Y-62001777D01*
X135833598Y-62018253D01*
X135813893Y-62032867D01*
X135792849Y-62045480D01*
X135770671Y-62055970D01*
X135747571Y-62064235D01*
X135723773Y-62070196D01*
X135699504Y-62073796D01*
X135675000Y-62075000D01*
X134925000Y-62075000D01*
X134900496Y-62073796D01*
X134876227Y-62070196D01*
X134852429Y-62064235D01*
X134829329Y-62055970D01*
X134807151Y-62045480D01*
X134786107Y-62032867D01*
X134766402Y-62018253D01*
X134748223Y-62001777D01*
X134731747Y-61983598D01*
X134717133Y-61963893D01*
X134704520Y-61942849D01*
X134694030Y-61920671D01*
X134685765Y-61897571D01*
X134679804Y-61873773D01*
X134676204Y-61849504D01*
X134675000Y-61825000D01*
X134675000Y-60575000D01*
X134676204Y-60550496D01*
X134679804Y-60526227D01*
X134685765Y-60502429D01*
X134694030Y-60479329D01*
X134704520Y-60457151D01*
X134717133Y-60436107D01*
X134731747Y-60416402D01*
X134748223Y-60398223D01*
X134766402Y-60381747D01*
X134786107Y-60367133D01*
X134807151Y-60354520D01*
X134829329Y-60344030D01*
X134852429Y-60335765D01*
X134876227Y-60329804D01*
X134900496Y-60326204D01*
X134925000Y-60325000D01*
X135675000Y-60325000D01*
X135699504Y-60326204D01*
X135699504Y-60326204D01*
G37*
D15*
X135300000Y-61200000D03*
D10*
G36*
X133149504Y-55976204D02*
G01*
X133173773Y-55979804D01*
X133197571Y-55985765D01*
X133220671Y-55994030D01*
X133242849Y-56004520D01*
X133263893Y-56017133D01*
X133283598Y-56031747D01*
X133301777Y-56048223D01*
X133318253Y-56066402D01*
X133332867Y-56086107D01*
X133345480Y-56107151D01*
X133355970Y-56129329D01*
X133364235Y-56152429D01*
X133370196Y-56176227D01*
X133373796Y-56200496D01*
X133375000Y-56225000D01*
X133375000Y-56975000D01*
X133373796Y-56999504D01*
X133370196Y-57023773D01*
X133364235Y-57047571D01*
X133355970Y-57070671D01*
X133345480Y-57092849D01*
X133332867Y-57113893D01*
X133318253Y-57133598D01*
X133301777Y-57151777D01*
X133283598Y-57168253D01*
X133263893Y-57182867D01*
X133242849Y-57195480D01*
X133220671Y-57205970D01*
X133197571Y-57214235D01*
X133173773Y-57220196D01*
X133149504Y-57223796D01*
X133125000Y-57225000D01*
X131875000Y-57225000D01*
X131850496Y-57223796D01*
X131826227Y-57220196D01*
X131802429Y-57214235D01*
X131779329Y-57205970D01*
X131757151Y-57195480D01*
X131736107Y-57182867D01*
X131716402Y-57168253D01*
X131698223Y-57151777D01*
X131681747Y-57133598D01*
X131667133Y-57113893D01*
X131654520Y-57092849D01*
X131644030Y-57070671D01*
X131635765Y-57047571D01*
X131629804Y-57023773D01*
X131626204Y-56999504D01*
X131625000Y-56975000D01*
X131625000Y-56225000D01*
X131626204Y-56200496D01*
X131629804Y-56176227D01*
X131635765Y-56152429D01*
X131644030Y-56129329D01*
X131654520Y-56107151D01*
X131667133Y-56086107D01*
X131681747Y-56066402D01*
X131698223Y-56048223D01*
X131716402Y-56031747D01*
X131736107Y-56017133D01*
X131757151Y-56004520D01*
X131779329Y-55994030D01*
X131802429Y-55985765D01*
X131826227Y-55979804D01*
X131850496Y-55976204D01*
X131875000Y-55975000D01*
X133125000Y-55975000D01*
X133149504Y-55976204D01*
X133149504Y-55976204D01*
G37*
D15*
X132500000Y-56600000D03*
D10*
G36*
X133149504Y-53176204D02*
G01*
X133173773Y-53179804D01*
X133197571Y-53185765D01*
X133220671Y-53194030D01*
X133242849Y-53204520D01*
X133263893Y-53217133D01*
X133283598Y-53231747D01*
X133301777Y-53248223D01*
X133318253Y-53266402D01*
X133332867Y-53286107D01*
X133345480Y-53307151D01*
X133355970Y-53329329D01*
X133364235Y-53352429D01*
X133370196Y-53376227D01*
X133373796Y-53400496D01*
X133375000Y-53425000D01*
X133375000Y-54175000D01*
X133373796Y-54199504D01*
X133370196Y-54223773D01*
X133364235Y-54247571D01*
X133355970Y-54270671D01*
X133345480Y-54292849D01*
X133332867Y-54313893D01*
X133318253Y-54333598D01*
X133301777Y-54351777D01*
X133283598Y-54368253D01*
X133263893Y-54382867D01*
X133242849Y-54395480D01*
X133220671Y-54405970D01*
X133197571Y-54414235D01*
X133173773Y-54420196D01*
X133149504Y-54423796D01*
X133125000Y-54425000D01*
X131875000Y-54425000D01*
X131850496Y-54423796D01*
X131826227Y-54420196D01*
X131802429Y-54414235D01*
X131779329Y-54405970D01*
X131757151Y-54395480D01*
X131736107Y-54382867D01*
X131716402Y-54368253D01*
X131698223Y-54351777D01*
X131681747Y-54333598D01*
X131667133Y-54313893D01*
X131654520Y-54292849D01*
X131644030Y-54270671D01*
X131635765Y-54247571D01*
X131629804Y-54223773D01*
X131626204Y-54199504D01*
X131625000Y-54175000D01*
X131625000Y-53425000D01*
X131626204Y-53400496D01*
X131629804Y-53376227D01*
X131635765Y-53352429D01*
X131644030Y-53329329D01*
X131654520Y-53307151D01*
X131667133Y-53286107D01*
X131681747Y-53266402D01*
X131698223Y-53248223D01*
X131716402Y-53231747D01*
X131736107Y-53217133D01*
X131757151Y-53204520D01*
X131779329Y-53194030D01*
X131802429Y-53185765D01*
X131826227Y-53179804D01*
X131850496Y-53176204D01*
X131875000Y-53175000D01*
X133125000Y-53175000D01*
X133149504Y-53176204D01*
X133149504Y-53176204D01*
G37*
D15*
X132500000Y-53800000D03*
D10*
G36*
X104999504Y-57326204D02*
G01*
X105023773Y-57329804D01*
X105047571Y-57335765D01*
X105070671Y-57344030D01*
X105092849Y-57354520D01*
X105113893Y-57367133D01*
X105133598Y-57381747D01*
X105151777Y-57398223D01*
X105168253Y-57416402D01*
X105182867Y-57436107D01*
X105195480Y-57457151D01*
X105205970Y-57479329D01*
X105214235Y-57502429D01*
X105220196Y-57526227D01*
X105223796Y-57550496D01*
X105225000Y-57575000D01*
X105225000Y-58825000D01*
X105223796Y-58849504D01*
X105220196Y-58873773D01*
X105214235Y-58897571D01*
X105205970Y-58920671D01*
X105195480Y-58942849D01*
X105182867Y-58963893D01*
X105168253Y-58983598D01*
X105151777Y-59001777D01*
X105133598Y-59018253D01*
X105113893Y-59032867D01*
X105092849Y-59045480D01*
X105070671Y-59055970D01*
X105047571Y-59064235D01*
X105023773Y-59070196D01*
X104999504Y-59073796D01*
X104975000Y-59075000D01*
X104225000Y-59075000D01*
X104200496Y-59073796D01*
X104176227Y-59070196D01*
X104152429Y-59064235D01*
X104129329Y-59055970D01*
X104107151Y-59045480D01*
X104086107Y-59032867D01*
X104066402Y-59018253D01*
X104048223Y-59001777D01*
X104031747Y-58983598D01*
X104017133Y-58963893D01*
X104004520Y-58942849D01*
X103994030Y-58920671D01*
X103985765Y-58897571D01*
X103979804Y-58873773D01*
X103976204Y-58849504D01*
X103975000Y-58825000D01*
X103975000Y-57575000D01*
X103976204Y-57550496D01*
X103979804Y-57526227D01*
X103985765Y-57502429D01*
X103994030Y-57479329D01*
X104004520Y-57457151D01*
X104017133Y-57436107D01*
X104031747Y-57416402D01*
X104048223Y-57398223D01*
X104066402Y-57381747D01*
X104086107Y-57367133D01*
X104107151Y-57354520D01*
X104129329Y-57344030D01*
X104152429Y-57335765D01*
X104176227Y-57329804D01*
X104200496Y-57326204D01*
X104225000Y-57325000D01*
X104975000Y-57325000D01*
X104999504Y-57326204D01*
X104999504Y-57326204D01*
G37*
D15*
X104600000Y-58200000D03*
D10*
G36*
X102199504Y-57326204D02*
G01*
X102223773Y-57329804D01*
X102247571Y-57335765D01*
X102270671Y-57344030D01*
X102292849Y-57354520D01*
X102313893Y-57367133D01*
X102333598Y-57381747D01*
X102351777Y-57398223D01*
X102368253Y-57416402D01*
X102382867Y-57436107D01*
X102395480Y-57457151D01*
X102405970Y-57479329D01*
X102414235Y-57502429D01*
X102420196Y-57526227D01*
X102423796Y-57550496D01*
X102425000Y-57575000D01*
X102425000Y-58825000D01*
X102423796Y-58849504D01*
X102420196Y-58873773D01*
X102414235Y-58897571D01*
X102405970Y-58920671D01*
X102395480Y-58942849D01*
X102382867Y-58963893D01*
X102368253Y-58983598D01*
X102351777Y-59001777D01*
X102333598Y-59018253D01*
X102313893Y-59032867D01*
X102292849Y-59045480D01*
X102270671Y-59055970D01*
X102247571Y-59064235D01*
X102223773Y-59070196D01*
X102199504Y-59073796D01*
X102175000Y-59075000D01*
X101425000Y-59075000D01*
X101400496Y-59073796D01*
X101376227Y-59070196D01*
X101352429Y-59064235D01*
X101329329Y-59055970D01*
X101307151Y-59045480D01*
X101286107Y-59032867D01*
X101266402Y-59018253D01*
X101248223Y-59001777D01*
X101231747Y-58983598D01*
X101217133Y-58963893D01*
X101204520Y-58942849D01*
X101194030Y-58920671D01*
X101185765Y-58897571D01*
X101179804Y-58873773D01*
X101176204Y-58849504D01*
X101175000Y-58825000D01*
X101175000Y-57575000D01*
X101176204Y-57550496D01*
X101179804Y-57526227D01*
X101185765Y-57502429D01*
X101194030Y-57479329D01*
X101204520Y-57457151D01*
X101217133Y-57436107D01*
X101231747Y-57416402D01*
X101248223Y-57398223D01*
X101266402Y-57381747D01*
X101286107Y-57367133D01*
X101307151Y-57354520D01*
X101329329Y-57344030D01*
X101352429Y-57335765D01*
X101376227Y-57329804D01*
X101400496Y-57326204D01*
X101425000Y-57325000D01*
X102175000Y-57325000D01*
X102199504Y-57326204D01*
X102199504Y-57326204D01*
G37*
D15*
X101800000Y-58200000D03*
D10*
G36*
X102549504Y-63676204D02*
G01*
X102573773Y-63679804D01*
X102597571Y-63685765D01*
X102620671Y-63694030D01*
X102642849Y-63704520D01*
X102663893Y-63717133D01*
X102683598Y-63731747D01*
X102701777Y-63748223D01*
X102718253Y-63766402D01*
X102732867Y-63786107D01*
X102745480Y-63807151D01*
X102755970Y-63829329D01*
X102764235Y-63852429D01*
X102770196Y-63876227D01*
X102773796Y-63900496D01*
X102775000Y-63925000D01*
X102775000Y-64675000D01*
X102773796Y-64699504D01*
X102770196Y-64723773D01*
X102764235Y-64747571D01*
X102755970Y-64770671D01*
X102745480Y-64792849D01*
X102732867Y-64813893D01*
X102718253Y-64833598D01*
X102701777Y-64851777D01*
X102683598Y-64868253D01*
X102663893Y-64882867D01*
X102642849Y-64895480D01*
X102620671Y-64905970D01*
X102597571Y-64914235D01*
X102573773Y-64920196D01*
X102549504Y-64923796D01*
X102525000Y-64925000D01*
X101275000Y-64925000D01*
X101250496Y-64923796D01*
X101226227Y-64920196D01*
X101202429Y-64914235D01*
X101179329Y-64905970D01*
X101157151Y-64895480D01*
X101136107Y-64882867D01*
X101116402Y-64868253D01*
X101098223Y-64851777D01*
X101081747Y-64833598D01*
X101067133Y-64813893D01*
X101054520Y-64792849D01*
X101044030Y-64770671D01*
X101035765Y-64747571D01*
X101029804Y-64723773D01*
X101026204Y-64699504D01*
X101025000Y-64675000D01*
X101025000Y-63925000D01*
X101026204Y-63900496D01*
X101029804Y-63876227D01*
X101035765Y-63852429D01*
X101044030Y-63829329D01*
X101054520Y-63807151D01*
X101067133Y-63786107D01*
X101081747Y-63766402D01*
X101098223Y-63748223D01*
X101116402Y-63731747D01*
X101136107Y-63717133D01*
X101157151Y-63704520D01*
X101179329Y-63694030D01*
X101202429Y-63685765D01*
X101226227Y-63679804D01*
X101250496Y-63676204D01*
X101275000Y-63675000D01*
X102525000Y-63675000D01*
X102549504Y-63676204D01*
X102549504Y-63676204D01*
G37*
D15*
X101900000Y-64300000D03*
D10*
G36*
X102549504Y-60876204D02*
G01*
X102573773Y-60879804D01*
X102597571Y-60885765D01*
X102620671Y-60894030D01*
X102642849Y-60904520D01*
X102663893Y-60917133D01*
X102683598Y-60931747D01*
X102701777Y-60948223D01*
X102718253Y-60966402D01*
X102732867Y-60986107D01*
X102745480Y-61007151D01*
X102755970Y-61029329D01*
X102764235Y-61052429D01*
X102770196Y-61076227D01*
X102773796Y-61100496D01*
X102775000Y-61125000D01*
X102775000Y-61875000D01*
X102773796Y-61899504D01*
X102770196Y-61923773D01*
X102764235Y-61947571D01*
X102755970Y-61970671D01*
X102745480Y-61992849D01*
X102732867Y-62013893D01*
X102718253Y-62033598D01*
X102701777Y-62051777D01*
X102683598Y-62068253D01*
X102663893Y-62082867D01*
X102642849Y-62095480D01*
X102620671Y-62105970D01*
X102597571Y-62114235D01*
X102573773Y-62120196D01*
X102549504Y-62123796D01*
X102525000Y-62125000D01*
X101275000Y-62125000D01*
X101250496Y-62123796D01*
X101226227Y-62120196D01*
X101202429Y-62114235D01*
X101179329Y-62105970D01*
X101157151Y-62095480D01*
X101136107Y-62082867D01*
X101116402Y-62068253D01*
X101098223Y-62051777D01*
X101081747Y-62033598D01*
X101067133Y-62013893D01*
X101054520Y-61992849D01*
X101044030Y-61970671D01*
X101035765Y-61947571D01*
X101029804Y-61923773D01*
X101026204Y-61899504D01*
X101025000Y-61875000D01*
X101025000Y-61125000D01*
X101026204Y-61100496D01*
X101029804Y-61076227D01*
X101035765Y-61052429D01*
X101044030Y-61029329D01*
X101054520Y-61007151D01*
X101067133Y-60986107D01*
X101081747Y-60966402D01*
X101098223Y-60948223D01*
X101116402Y-60931747D01*
X101136107Y-60917133D01*
X101157151Y-60904520D01*
X101179329Y-60894030D01*
X101202429Y-60885765D01*
X101226227Y-60879804D01*
X101250496Y-60876204D01*
X101275000Y-60875000D01*
X102525000Y-60875000D01*
X102549504Y-60876204D01*
X102549504Y-60876204D01*
G37*
D15*
X101900000Y-61500000D03*
D17*
X126300000Y-90600000D03*
D18*
X126300000Y-93100000D03*
X126300000Y-95600000D03*
D19*
X133800000Y-87500000D03*
X133800000Y-98700000D03*
D18*
X140800000Y-90600000D03*
X140800000Y-95600000D03*
D10*
G36*
X106149504Y-63676204D02*
G01*
X106173773Y-63679804D01*
X106197571Y-63685765D01*
X106220671Y-63694030D01*
X106242849Y-63704520D01*
X106263893Y-63717133D01*
X106283598Y-63731747D01*
X106301777Y-63748223D01*
X106318253Y-63766402D01*
X106332867Y-63786107D01*
X106345480Y-63807151D01*
X106355970Y-63829329D01*
X106364235Y-63852429D01*
X106370196Y-63876227D01*
X106373796Y-63900496D01*
X106375000Y-63925000D01*
X106375000Y-64675000D01*
X106373796Y-64699504D01*
X106370196Y-64723773D01*
X106364235Y-64747571D01*
X106355970Y-64770671D01*
X106345480Y-64792849D01*
X106332867Y-64813893D01*
X106318253Y-64833598D01*
X106301777Y-64851777D01*
X106283598Y-64868253D01*
X106263893Y-64882867D01*
X106242849Y-64895480D01*
X106220671Y-64905970D01*
X106197571Y-64914235D01*
X106173773Y-64920196D01*
X106149504Y-64923796D01*
X106125000Y-64925000D01*
X104875000Y-64925000D01*
X104850496Y-64923796D01*
X104826227Y-64920196D01*
X104802429Y-64914235D01*
X104779329Y-64905970D01*
X104757151Y-64895480D01*
X104736107Y-64882867D01*
X104716402Y-64868253D01*
X104698223Y-64851777D01*
X104681747Y-64833598D01*
X104667133Y-64813893D01*
X104654520Y-64792849D01*
X104644030Y-64770671D01*
X104635765Y-64747571D01*
X104629804Y-64723773D01*
X104626204Y-64699504D01*
X104625000Y-64675000D01*
X104625000Y-63925000D01*
X104626204Y-63900496D01*
X104629804Y-63876227D01*
X104635765Y-63852429D01*
X104644030Y-63829329D01*
X104654520Y-63807151D01*
X104667133Y-63786107D01*
X104681747Y-63766402D01*
X104698223Y-63748223D01*
X104716402Y-63731747D01*
X104736107Y-63717133D01*
X104757151Y-63704520D01*
X104779329Y-63694030D01*
X104802429Y-63685765D01*
X104826227Y-63679804D01*
X104850496Y-63676204D01*
X104875000Y-63675000D01*
X106125000Y-63675000D01*
X106149504Y-63676204D01*
X106149504Y-63676204D01*
G37*
D15*
X105500000Y-64300000D03*
D10*
G36*
X106149504Y-60876204D02*
G01*
X106173773Y-60879804D01*
X106197571Y-60885765D01*
X106220671Y-60894030D01*
X106242849Y-60904520D01*
X106263893Y-60917133D01*
X106283598Y-60931747D01*
X106301777Y-60948223D01*
X106318253Y-60966402D01*
X106332867Y-60986107D01*
X106345480Y-61007151D01*
X106355970Y-61029329D01*
X106364235Y-61052429D01*
X106370196Y-61076227D01*
X106373796Y-61100496D01*
X106375000Y-61125000D01*
X106375000Y-61875000D01*
X106373796Y-61899504D01*
X106370196Y-61923773D01*
X106364235Y-61947571D01*
X106355970Y-61970671D01*
X106345480Y-61992849D01*
X106332867Y-62013893D01*
X106318253Y-62033598D01*
X106301777Y-62051777D01*
X106283598Y-62068253D01*
X106263893Y-62082867D01*
X106242849Y-62095480D01*
X106220671Y-62105970D01*
X106197571Y-62114235D01*
X106173773Y-62120196D01*
X106149504Y-62123796D01*
X106125000Y-62125000D01*
X104875000Y-62125000D01*
X104850496Y-62123796D01*
X104826227Y-62120196D01*
X104802429Y-62114235D01*
X104779329Y-62105970D01*
X104757151Y-62095480D01*
X104736107Y-62082867D01*
X104716402Y-62068253D01*
X104698223Y-62051777D01*
X104681747Y-62033598D01*
X104667133Y-62013893D01*
X104654520Y-61992849D01*
X104644030Y-61970671D01*
X104635765Y-61947571D01*
X104629804Y-61923773D01*
X104626204Y-61899504D01*
X104625000Y-61875000D01*
X104625000Y-61125000D01*
X104626204Y-61100496D01*
X104629804Y-61076227D01*
X104635765Y-61052429D01*
X104644030Y-61029329D01*
X104654520Y-61007151D01*
X104667133Y-60986107D01*
X104681747Y-60966402D01*
X104698223Y-60948223D01*
X104716402Y-60931747D01*
X104736107Y-60917133D01*
X104757151Y-60904520D01*
X104779329Y-60894030D01*
X104802429Y-60885765D01*
X104826227Y-60879804D01*
X104850496Y-60876204D01*
X104875000Y-60875000D01*
X106125000Y-60875000D01*
X106149504Y-60876204D01*
X106149504Y-60876204D01*
G37*
D15*
X105500000Y-61500000D03*
D20*
X167920000Y-103850000D03*
X167920000Y-111150000D03*
X170130000Y-111150000D03*
X170130000Y-103850000D03*
D21*
X167270000Y-109750000D03*
X167270000Y-108250000D03*
X167270000Y-105250000D03*
D18*
X119200000Y-51100000D03*
D10*
G36*
X109254901Y-59425241D02*
G01*
X109259755Y-59425961D01*
X109264514Y-59427153D01*
X109269134Y-59428806D01*
X109273570Y-59430904D01*
X109277779Y-59433427D01*
X109281720Y-59436349D01*
X109285355Y-59439645D01*
X109288651Y-59443280D01*
X109291573Y-59447221D01*
X109294096Y-59451430D01*
X109296194Y-59455866D01*
X109297847Y-59460486D01*
X109299039Y-59465245D01*
X109299759Y-59470099D01*
X109300000Y-59475000D01*
X109300000Y-60200000D01*
X109299759Y-60204901D01*
X109299039Y-60209755D01*
X109297847Y-60214514D01*
X109296194Y-60219134D01*
X109294096Y-60223570D01*
X109291573Y-60227779D01*
X109288651Y-60231720D01*
X109285355Y-60235355D01*
X109281720Y-60238651D01*
X109277779Y-60241573D01*
X109273570Y-60244096D01*
X109269134Y-60246194D01*
X109264514Y-60247847D01*
X109259755Y-60249039D01*
X109254901Y-60249759D01*
X109250000Y-60250000D01*
X109150000Y-60250000D01*
X109145099Y-60249759D01*
X109140245Y-60249039D01*
X109135486Y-60247847D01*
X109130866Y-60246194D01*
X109126430Y-60244096D01*
X109122221Y-60241573D01*
X109118280Y-60238651D01*
X109114645Y-60235355D01*
X109111349Y-60231720D01*
X109108427Y-60227779D01*
X109105904Y-60223570D01*
X109103806Y-60219134D01*
X109102153Y-60214514D01*
X109100961Y-60209755D01*
X109100241Y-60204901D01*
X109100000Y-60200000D01*
X109100000Y-59475000D01*
X109100241Y-59470099D01*
X109100961Y-59465245D01*
X109102153Y-59460486D01*
X109103806Y-59455866D01*
X109105904Y-59451430D01*
X109108427Y-59447221D01*
X109111349Y-59443280D01*
X109114645Y-59439645D01*
X109118280Y-59436349D01*
X109122221Y-59433427D01*
X109126430Y-59430904D01*
X109130866Y-59428806D01*
X109135486Y-59427153D01*
X109140245Y-59425961D01*
X109145099Y-59425241D01*
X109150000Y-59425000D01*
X109250000Y-59425000D01*
X109254901Y-59425241D01*
X109254901Y-59425241D01*
G37*
D22*
X109200000Y-59837500D03*
D10*
G36*
X109654901Y-59425241D02*
G01*
X109659755Y-59425961D01*
X109664514Y-59427153D01*
X109669134Y-59428806D01*
X109673570Y-59430904D01*
X109677779Y-59433427D01*
X109681720Y-59436349D01*
X109685355Y-59439645D01*
X109688651Y-59443280D01*
X109691573Y-59447221D01*
X109694096Y-59451430D01*
X109696194Y-59455866D01*
X109697847Y-59460486D01*
X109699039Y-59465245D01*
X109699759Y-59470099D01*
X109700000Y-59475000D01*
X109700000Y-60200000D01*
X109699759Y-60204901D01*
X109699039Y-60209755D01*
X109697847Y-60214514D01*
X109696194Y-60219134D01*
X109694096Y-60223570D01*
X109691573Y-60227779D01*
X109688651Y-60231720D01*
X109685355Y-60235355D01*
X109681720Y-60238651D01*
X109677779Y-60241573D01*
X109673570Y-60244096D01*
X109669134Y-60246194D01*
X109664514Y-60247847D01*
X109659755Y-60249039D01*
X109654901Y-60249759D01*
X109650000Y-60250000D01*
X109550000Y-60250000D01*
X109545099Y-60249759D01*
X109540245Y-60249039D01*
X109535486Y-60247847D01*
X109530866Y-60246194D01*
X109526430Y-60244096D01*
X109522221Y-60241573D01*
X109518280Y-60238651D01*
X109514645Y-60235355D01*
X109511349Y-60231720D01*
X109508427Y-60227779D01*
X109505904Y-60223570D01*
X109503806Y-60219134D01*
X109502153Y-60214514D01*
X109500961Y-60209755D01*
X109500241Y-60204901D01*
X109500000Y-60200000D01*
X109500000Y-59475000D01*
X109500241Y-59470099D01*
X109500961Y-59465245D01*
X109502153Y-59460486D01*
X109503806Y-59455866D01*
X109505904Y-59451430D01*
X109508427Y-59447221D01*
X109511349Y-59443280D01*
X109514645Y-59439645D01*
X109518280Y-59436349D01*
X109522221Y-59433427D01*
X109526430Y-59430904D01*
X109530866Y-59428806D01*
X109535486Y-59427153D01*
X109540245Y-59425961D01*
X109545099Y-59425241D01*
X109550000Y-59425000D01*
X109650000Y-59425000D01*
X109654901Y-59425241D01*
X109654901Y-59425241D01*
G37*
D22*
X109600000Y-59837500D03*
D10*
G36*
X110054901Y-59425241D02*
G01*
X110059755Y-59425961D01*
X110064514Y-59427153D01*
X110069134Y-59428806D01*
X110073570Y-59430904D01*
X110077779Y-59433427D01*
X110081720Y-59436349D01*
X110085355Y-59439645D01*
X110088651Y-59443280D01*
X110091573Y-59447221D01*
X110094096Y-59451430D01*
X110096194Y-59455866D01*
X110097847Y-59460486D01*
X110099039Y-59465245D01*
X110099759Y-59470099D01*
X110100000Y-59475000D01*
X110100000Y-60200000D01*
X110099759Y-60204901D01*
X110099039Y-60209755D01*
X110097847Y-60214514D01*
X110096194Y-60219134D01*
X110094096Y-60223570D01*
X110091573Y-60227779D01*
X110088651Y-60231720D01*
X110085355Y-60235355D01*
X110081720Y-60238651D01*
X110077779Y-60241573D01*
X110073570Y-60244096D01*
X110069134Y-60246194D01*
X110064514Y-60247847D01*
X110059755Y-60249039D01*
X110054901Y-60249759D01*
X110050000Y-60250000D01*
X109950000Y-60250000D01*
X109945099Y-60249759D01*
X109940245Y-60249039D01*
X109935486Y-60247847D01*
X109930866Y-60246194D01*
X109926430Y-60244096D01*
X109922221Y-60241573D01*
X109918280Y-60238651D01*
X109914645Y-60235355D01*
X109911349Y-60231720D01*
X109908427Y-60227779D01*
X109905904Y-60223570D01*
X109903806Y-60219134D01*
X109902153Y-60214514D01*
X109900961Y-60209755D01*
X109900241Y-60204901D01*
X109900000Y-60200000D01*
X109900000Y-59475000D01*
X109900241Y-59470099D01*
X109900961Y-59465245D01*
X109902153Y-59460486D01*
X109903806Y-59455866D01*
X109905904Y-59451430D01*
X109908427Y-59447221D01*
X109911349Y-59443280D01*
X109914645Y-59439645D01*
X109918280Y-59436349D01*
X109922221Y-59433427D01*
X109926430Y-59430904D01*
X109930866Y-59428806D01*
X109935486Y-59427153D01*
X109940245Y-59425961D01*
X109945099Y-59425241D01*
X109950000Y-59425000D01*
X110050000Y-59425000D01*
X110054901Y-59425241D01*
X110054901Y-59425241D01*
G37*
D22*
X110000000Y-59837500D03*
D10*
G36*
X110454901Y-59425241D02*
G01*
X110459755Y-59425961D01*
X110464514Y-59427153D01*
X110469134Y-59428806D01*
X110473570Y-59430904D01*
X110477779Y-59433427D01*
X110481720Y-59436349D01*
X110485355Y-59439645D01*
X110488651Y-59443280D01*
X110491573Y-59447221D01*
X110494096Y-59451430D01*
X110496194Y-59455866D01*
X110497847Y-59460486D01*
X110499039Y-59465245D01*
X110499759Y-59470099D01*
X110500000Y-59475000D01*
X110500000Y-60200000D01*
X110499759Y-60204901D01*
X110499039Y-60209755D01*
X110497847Y-60214514D01*
X110496194Y-60219134D01*
X110494096Y-60223570D01*
X110491573Y-60227779D01*
X110488651Y-60231720D01*
X110485355Y-60235355D01*
X110481720Y-60238651D01*
X110477779Y-60241573D01*
X110473570Y-60244096D01*
X110469134Y-60246194D01*
X110464514Y-60247847D01*
X110459755Y-60249039D01*
X110454901Y-60249759D01*
X110450000Y-60250000D01*
X110350000Y-60250000D01*
X110345099Y-60249759D01*
X110340245Y-60249039D01*
X110335486Y-60247847D01*
X110330866Y-60246194D01*
X110326430Y-60244096D01*
X110322221Y-60241573D01*
X110318280Y-60238651D01*
X110314645Y-60235355D01*
X110311349Y-60231720D01*
X110308427Y-60227779D01*
X110305904Y-60223570D01*
X110303806Y-60219134D01*
X110302153Y-60214514D01*
X110300961Y-60209755D01*
X110300241Y-60204901D01*
X110300000Y-60200000D01*
X110300000Y-59475000D01*
X110300241Y-59470099D01*
X110300961Y-59465245D01*
X110302153Y-59460486D01*
X110303806Y-59455866D01*
X110305904Y-59451430D01*
X110308427Y-59447221D01*
X110311349Y-59443280D01*
X110314645Y-59439645D01*
X110318280Y-59436349D01*
X110322221Y-59433427D01*
X110326430Y-59430904D01*
X110330866Y-59428806D01*
X110335486Y-59427153D01*
X110340245Y-59425961D01*
X110345099Y-59425241D01*
X110350000Y-59425000D01*
X110450000Y-59425000D01*
X110454901Y-59425241D01*
X110454901Y-59425241D01*
G37*
D22*
X110400000Y-59837500D03*
D10*
G36*
X110854901Y-59425241D02*
G01*
X110859755Y-59425961D01*
X110864514Y-59427153D01*
X110869134Y-59428806D01*
X110873570Y-59430904D01*
X110877779Y-59433427D01*
X110881720Y-59436349D01*
X110885355Y-59439645D01*
X110888651Y-59443280D01*
X110891573Y-59447221D01*
X110894096Y-59451430D01*
X110896194Y-59455866D01*
X110897847Y-59460486D01*
X110899039Y-59465245D01*
X110899759Y-59470099D01*
X110900000Y-59475000D01*
X110900000Y-60200000D01*
X110899759Y-60204901D01*
X110899039Y-60209755D01*
X110897847Y-60214514D01*
X110896194Y-60219134D01*
X110894096Y-60223570D01*
X110891573Y-60227779D01*
X110888651Y-60231720D01*
X110885355Y-60235355D01*
X110881720Y-60238651D01*
X110877779Y-60241573D01*
X110873570Y-60244096D01*
X110869134Y-60246194D01*
X110864514Y-60247847D01*
X110859755Y-60249039D01*
X110854901Y-60249759D01*
X110850000Y-60250000D01*
X110750000Y-60250000D01*
X110745099Y-60249759D01*
X110740245Y-60249039D01*
X110735486Y-60247847D01*
X110730866Y-60246194D01*
X110726430Y-60244096D01*
X110722221Y-60241573D01*
X110718280Y-60238651D01*
X110714645Y-60235355D01*
X110711349Y-60231720D01*
X110708427Y-60227779D01*
X110705904Y-60223570D01*
X110703806Y-60219134D01*
X110702153Y-60214514D01*
X110700961Y-60209755D01*
X110700241Y-60204901D01*
X110700000Y-60200000D01*
X110700000Y-59475000D01*
X110700241Y-59470099D01*
X110700961Y-59465245D01*
X110702153Y-59460486D01*
X110703806Y-59455866D01*
X110705904Y-59451430D01*
X110708427Y-59447221D01*
X110711349Y-59443280D01*
X110714645Y-59439645D01*
X110718280Y-59436349D01*
X110722221Y-59433427D01*
X110726430Y-59430904D01*
X110730866Y-59428806D01*
X110735486Y-59427153D01*
X110740245Y-59425961D01*
X110745099Y-59425241D01*
X110750000Y-59425000D01*
X110850000Y-59425000D01*
X110854901Y-59425241D01*
X110854901Y-59425241D01*
G37*
D22*
X110800000Y-59837500D03*
D10*
G36*
X111254901Y-59425241D02*
G01*
X111259755Y-59425961D01*
X111264514Y-59427153D01*
X111269134Y-59428806D01*
X111273570Y-59430904D01*
X111277779Y-59433427D01*
X111281720Y-59436349D01*
X111285355Y-59439645D01*
X111288651Y-59443280D01*
X111291573Y-59447221D01*
X111294096Y-59451430D01*
X111296194Y-59455866D01*
X111297847Y-59460486D01*
X111299039Y-59465245D01*
X111299759Y-59470099D01*
X111300000Y-59475000D01*
X111300000Y-60200000D01*
X111299759Y-60204901D01*
X111299039Y-60209755D01*
X111297847Y-60214514D01*
X111296194Y-60219134D01*
X111294096Y-60223570D01*
X111291573Y-60227779D01*
X111288651Y-60231720D01*
X111285355Y-60235355D01*
X111281720Y-60238651D01*
X111277779Y-60241573D01*
X111273570Y-60244096D01*
X111269134Y-60246194D01*
X111264514Y-60247847D01*
X111259755Y-60249039D01*
X111254901Y-60249759D01*
X111250000Y-60250000D01*
X111150000Y-60250000D01*
X111145099Y-60249759D01*
X111140245Y-60249039D01*
X111135486Y-60247847D01*
X111130866Y-60246194D01*
X111126430Y-60244096D01*
X111122221Y-60241573D01*
X111118280Y-60238651D01*
X111114645Y-60235355D01*
X111111349Y-60231720D01*
X111108427Y-60227779D01*
X111105904Y-60223570D01*
X111103806Y-60219134D01*
X111102153Y-60214514D01*
X111100961Y-60209755D01*
X111100241Y-60204901D01*
X111100000Y-60200000D01*
X111100000Y-59475000D01*
X111100241Y-59470099D01*
X111100961Y-59465245D01*
X111102153Y-59460486D01*
X111103806Y-59455866D01*
X111105904Y-59451430D01*
X111108427Y-59447221D01*
X111111349Y-59443280D01*
X111114645Y-59439645D01*
X111118280Y-59436349D01*
X111122221Y-59433427D01*
X111126430Y-59430904D01*
X111130866Y-59428806D01*
X111135486Y-59427153D01*
X111140245Y-59425961D01*
X111145099Y-59425241D01*
X111150000Y-59425000D01*
X111250000Y-59425000D01*
X111254901Y-59425241D01*
X111254901Y-59425241D01*
G37*
D22*
X111200000Y-59837500D03*
D10*
G36*
X111654901Y-59425241D02*
G01*
X111659755Y-59425961D01*
X111664514Y-59427153D01*
X111669134Y-59428806D01*
X111673570Y-59430904D01*
X111677779Y-59433427D01*
X111681720Y-59436349D01*
X111685355Y-59439645D01*
X111688651Y-59443280D01*
X111691573Y-59447221D01*
X111694096Y-59451430D01*
X111696194Y-59455866D01*
X111697847Y-59460486D01*
X111699039Y-59465245D01*
X111699759Y-59470099D01*
X111700000Y-59475000D01*
X111700000Y-60200000D01*
X111699759Y-60204901D01*
X111699039Y-60209755D01*
X111697847Y-60214514D01*
X111696194Y-60219134D01*
X111694096Y-60223570D01*
X111691573Y-60227779D01*
X111688651Y-60231720D01*
X111685355Y-60235355D01*
X111681720Y-60238651D01*
X111677779Y-60241573D01*
X111673570Y-60244096D01*
X111669134Y-60246194D01*
X111664514Y-60247847D01*
X111659755Y-60249039D01*
X111654901Y-60249759D01*
X111650000Y-60250000D01*
X111550000Y-60250000D01*
X111545099Y-60249759D01*
X111540245Y-60249039D01*
X111535486Y-60247847D01*
X111530866Y-60246194D01*
X111526430Y-60244096D01*
X111522221Y-60241573D01*
X111518280Y-60238651D01*
X111514645Y-60235355D01*
X111511349Y-60231720D01*
X111508427Y-60227779D01*
X111505904Y-60223570D01*
X111503806Y-60219134D01*
X111502153Y-60214514D01*
X111500961Y-60209755D01*
X111500241Y-60204901D01*
X111500000Y-60200000D01*
X111500000Y-59475000D01*
X111500241Y-59470099D01*
X111500961Y-59465245D01*
X111502153Y-59460486D01*
X111503806Y-59455866D01*
X111505904Y-59451430D01*
X111508427Y-59447221D01*
X111511349Y-59443280D01*
X111514645Y-59439645D01*
X111518280Y-59436349D01*
X111522221Y-59433427D01*
X111526430Y-59430904D01*
X111530866Y-59428806D01*
X111535486Y-59427153D01*
X111540245Y-59425961D01*
X111545099Y-59425241D01*
X111550000Y-59425000D01*
X111650000Y-59425000D01*
X111654901Y-59425241D01*
X111654901Y-59425241D01*
G37*
D22*
X111600000Y-59837500D03*
D10*
G36*
X112704901Y-59000241D02*
G01*
X112709755Y-59000961D01*
X112714514Y-59002153D01*
X112719134Y-59003806D01*
X112723570Y-59005904D01*
X112727779Y-59008427D01*
X112731720Y-59011349D01*
X112735355Y-59014645D01*
X112738651Y-59018280D01*
X112741573Y-59022221D01*
X112744096Y-59026430D01*
X112746194Y-59030866D01*
X112747847Y-59035486D01*
X112749039Y-59040245D01*
X112749759Y-59045099D01*
X112750000Y-59050000D01*
X112750000Y-59150000D01*
X112749759Y-59154901D01*
X112749039Y-59159755D01*
X112747847Y-59164514D01*
X112746194Y-59169134D01*
X112744096Y-59173570D01*
X112741573Y-59177779D01*
X112738651Y-59181720D01*
X112735355Y-59185355D01*
X112731720Y-59188651D01*
X112727779Y-59191573D01*
X112723570Y-59194096D01*
X112719134Y-59196194D01*
X112714514Y-59197847D01*
X112709755Y-59199039D01*
X112704901Y-59199759D01*
X112700000Y-59200000D01*
X111975000Y-59200000D01*
X111970099Y-59199759D01*
X111965245Y-59199039D01*
X111960486Y-59197847D01*
X111955866Y-59196194D01*
X111951430Y-59194096D01*
X111947221Y-59191573D01*
X111943280Y-59188651D01*
X111939645Y-59185355D01*
X111936349Y-59181720D01*
X111933427Y-59177779D01*
X111930904Y-59173570D01*
X111928806Y-59169134D01*
X111927153Y-59164514D01*
X111925961Y-59159755D01*
X111925241Y-59154901D01*
X111925000Y-59150000D01*
X111925000Y-59050000D01*
X111925241Y-59045099D01*
X111925961Y-59040245D01*
X111927153Y-59035486D01*
X111928806Y-59030866D01*
X111930904Y-59026430D01*
X111933427Y-59022221D01*
X111936349Y-59018280D01*
X111939645Y-59014645D01*
X111943280Y-59011349D01*
X111947221Y-59008427D01*
X111951430Y-59005904D01*
X111955866Y-59003806D01*
X111960486Y-59002153D01*
X111965245Y-59000961D01*
X111970099Y-59000241D01*
X111975000Y-59000000D01*
X112700000Y-59000000D01*
X112704901Y-59000241D01*
X112704901Y-59000241D01*
G37*
D22*
X112337500Y-59100000D03*
D10*
G36*
X112704901Y-58600241D02*
G01*
X112709755Y-58600961D01*
X112714514Y-58602153D01*
X112719134Y-58603806D01*
X112723570Y-58605904D01*
X112727779Y-58608427D01*
X112731720Y-58611349D01*
X112735355Y-58614645D01*
X112738651Y-58618280D01*
X112741573Y-58622221D01*
X112744096Y-58626430D01*
X112746194Y-58630866D01*
X112747847Y-58635486D01*
X112749039Y-58640245D01*
X112749759Y-58645099D01*
X112750000Y-58650000D01*
X112750000Y-58750000D01*
X112749759Y-58754901D01*
X112749039Y-58759755D01*
X112747847Y-58764514D01*
X112746194Y-58769134D01*
X112744096Y-58773570D01*
X112741573Y-58777779D01*
X112738651Y-58781720D01*
X112735355Y-58785355D01*
X112731720Y-58788651D01*
X112727779Y-58791573D01*
X112723570Y-58794096D01*
X112719134Y-58796194D01*
X112714514Y-58797847D01*
X112709755Y-58799039D01*
X112704901Y-58799759D01*
X112700000Y-58800000D01*
X111975000Y-58800000D01*
X111970099Y-58799759D01*
X111965245Y-58799039D01*
X111960486Y-58797847D01*
X111955866Y-58796194D01*
X111951430Y-58794096D01*
X111947221Y-58791573D01*
X111943280Y-58788651D01*
X111939645Y-58785355D01*
X111936349Y-58781720D01*
X111933427Y-58777779D01*
X111930904Y-58773570D01*
X111928806Y-58769134D01*
X111927153Y-58764514D01*
X111925961Y-58759755D01*
X111925241Y-58754901D01*
X111925000Y-58750000D01*
X111925000Y-58650000D01*
X111925241Y-58645099D01*
X111925961Y-58640245D01*
X111927153Y-58635486D01*
X111928806Y-58630866D01*
X111930904Y-58626430D01*
X111933427Y-58622221D01*
X111936349Y-58618280D01*
X111939645Y-58614645D01*
X111943280Y-58611349D01*
X111947221Y-58608427D01*
X111951430Y-58605904D01*
X111955866Y-58603806D01*
X111960486Y-58602153D01*
X111965245Y-58600961D01*
X111970099Y-58600241D01*
X111975000Y-58600000D01*
X112700000Y-58600000D01*
X112704901Y-58600241D01*
X112704901Y-58600241D01*
G37*
D22*
X112337500Y-58700000D03*
D10*
G36*
X112704901Y-58200241D02*
G01*
X112709755Y-58200961D01*
X112714514Y-58202153D01*
X112719134Y-58203806D01*
X112723570Y-58205904D01*
X112727779Y-58208427D01*
X112731720Y-58211349D01*
X112735355Y-58214645D01*
X112738651Y-58218280D01*
X112741573Y-58222221D01*
X112744096Y-58226430D01*
X112746194Y-58230866D01*
X112747847Y-58235486D01*
X112749039Y-58240245D01*
X112749759Y-58245099D01*
X112750000Y-58250000D01*
X112750000Y-58350000D01*
X112749759Y-58354901D01*
X112749039Y-58359755D01*
X112747847Y-58364514D01*
X112746194Y-58369134D01*
X112744096Y-58373570D01*
X112741573Y-58377779D01*
X112738651Y-58381720D01*
X112735355Y-58385355D01*
X112731720Y-58388651D01*
X112727779Y-58391573D01*
X112723570Y-58394096D01*
X112719134Y-58396194D01*
X112714514Y-58397847D01*
X112709755Y-58399039D01*
X112704901Y-58399759D01*
X112700000Y-58400000D01*
X111975000Y-58400000D01*
X111970099Y-58399759D01*
X111965245Y-58399039D01*
X111960486Y-58397847D01*
X111955866Y-58396194D01*
X111951430Y-58394096D01*
X111947221Y-58391573D01*
X111943280Y-58388651D01*
X111939645Y-58385355D01*
X111936349Y-58381720D01*
X111933427Y-58377779D01*
X111930904Y-58373570D01*
X111928806Y-58369134D01*
X111927153Y-58364514D01*
X111925961Y-58359755D01*
X111925241Y-58354901D01*
X111925000Y-58350000D01*
X111925000Y-58250000D01*
X111925241Y-58245099D01*
X111925961Y-58240245D01*
X111927153Y-58235486D01*
X111928806Y-58230866D01*
X111930904Y-58226430D01*
X111933427Y-58222221D01*
X111936349Y-58218280D01*
X111939645Y-58214645D01*
X111943280Y-58211349D01*
X111947221Y-58208427D01*
X111951430Y-58205904D01*
X111955866Y-58203806D01*
X111960486Y-58202153D01*
X111965245Y-58200961D01*
X111970099Y-58200241D01*
X111975000Y-58200000D01*
X112700000Y-58200000D01*
X112704901Y-58200241D01*
X112704901Y-58200241D01*
G37*
D22*
X112337500Y-58300000D03*
D10*
G36*
X112704901Y-57800241D02*
G01*
X112709755Y-57800961D01*
X112714514Y-57802153D01*
X112719134Y-57803806D01*
X112723570Y-57805904D01*
X112727779Y-57808427D01*
X112731720Y-57811349D01*
X112735355Y-57814645D01*
X112738651Y-57818280D01*
X112741573Y-57822221D01*
X112744096Y-57826430D01*
X112746194Y-57830866D01*
X112747847Y-57835486D01*
X112749039Y-57840245D01*
X112749759Y-57845099D01*
X112750000Y-57850000D01*
X112750000Y-57950000D01*
X112749759Y-57954901D01*
X112749039Y-57959755D01*
X112747847Y-57964514D01*
X112746194Y-57969134D01*
X112744096Y-57973570D01*
X112741573Y-57977779D01*
X112738651Y-57981720D01*
X112735355Y-57985355D01*
X112731720Y-57988651D01*
X112727779Y-57991573D01*
X112723570Y-57994096D01*
X112719134Y-57996194D01*
X112714514Y-57997847D01*
X112709755Y-57999039D01*
X112704901Y-57999759D01*
X112700000Y-58000000D01*
X111975000Y-58000000D01*
X111970099Y-57999759D01*
X111965245Y-57999039D01*
X111960486Y-57997847D01*
X111955866Y-57996194D01*
X111951430Y-57994096D01*
X111947221Y-57991573D01*
X111943280Y-57988651D01*
X111939645Y-57985355D01*
X111936349Y-57981720D01*
X111933427Y-57977779D01*
X111930904Y-57973570D01*
X111928806Y-57969134D01*
X111927153Y-57964514D01*
X111925961Y-57959755D01*
X111925241Y-57954901D01*
X111925000Y-57950000D01*
X111925000Y-57850000D01*
X111925241Y-57845099D01*
X111925961Y-57840245D01*
X111927153Y-57835486D01*
X111928806Y-57830866D01*
X111930904Y-57826430D01*
X111933427Y-57822221D01*
X111936349Y-57818280D01*
X111939645Y-57814645D01*
X111943280Y-57811349D01*
X111947221Y-57808427D01*
X111951430Y-57805904D01*
X111955866Y-57803806D01*
X111960486Y-57802153D01*
X111965245Y-57800961D01*
X111970099Y-57800241D01*
X111975000Y-57800000D01*
X112700000Y-57800000D01*
X112704901Y-57800241D01*
X112704901Y-57800241D01*
G37*
D22*
X112337500Y-57900000D03*
D10*
G36*
X112704901Y-57400241D02*
G01*
X112709755Y-57400961D01*
X112714514Y-57402153D01*
X112719134Y-57403806D01*
X112723570Y-57405904D01*
X112727779Y-57408427D01*
X112731720Y-57411349D01*
X112735355Y-57414645D01*
X112738651Y-57418280D01*
X112741573Y-57422221D01*
X112744096Y-57426430D01*
X112746194Y-57430866D01*
X112747847Y-57435486D01*
X112749039Y-57440245D01*
X112749759Y-57445099D01*
X112750000Y-57450000D01*
X112750000Y-57550000D01*
X112749759Y-57554901D01*
X112749039Y-57559755D01*
X112747847Y-57564514D01*
X112746194Y-57569134D01*
X112744096Y-57573570D01*
X112741573Y-57577779D01*
X112738651Y-57581720D01*
X112735355Y-57585355D01*
X112731720Y-57588651D01*
X112727779Y-57591573D01*
X112723570Y-57594096D01*
X112719134Y-57596194D01*
X112714514Y-57597847D01*
X112709755Y-57599039D01*
X112704901Y-57599759D01*
X112700000Y-57600000D01*
X111975000Y-57600000D01*
X111970099Y-57599759D01*
X111965245Y-57599039D01*
X111960486Y-57597847D01*
X111955866Y-57596194D01*
X111951430Y-57594096D01*
X111947221Y-57591573D01*
X111943280Y-57588651D01*
X111939645Y-57585355D01*
X111936349Y-57581720D01*
X111933427Y-57577779D01*
X111930904Y-57573570D01*
X111928806Y-57569134D01*
X111927153Y-57564514D01*
X111925961Y-57559755D01*
X111925241Y-57554901D01*
X111925000Y-57550000D01*
X111925000Y-57450000D01*
X111925241Y-57445099D01*
X111925961Y-57440245D01*
X111927153Y-57435486D01*
X111928806Y-57430866D01*
X111930904Y-57426430D01*
X111933427Y-57422221D01*
X111936349Y-57418280D01*
X111939645Y-57414645D01*
X111943280Y-57411349D01*
X111947221Y-57408427D01*
X111951430Y-57405904D01*
X111955866Y-57403806D01*
X111960486Y-57402153D01*
X111965245Y-57400961D01*
X111970099Y-57400241D01*
X111975000Y-57400000D01*
X112700000Y-57400000D01*
X112704901Y-57400241D01*
X112704901Y-57400241D01*
G37*
D22*
X112337500Y-57500000D03*
D10*
G36*
X112704901Y-57000241D02*
G01*
X112709755Y-57000961D01*
X112714514Y-57002153D01*
X112719134Y-57003806D01*
X112723570Y-57005904D01*
X112727779Y-57008427D01*
X112731720Y-57011349D01*
X112735355Y-57014645D01*
X112738651Y-57018280D01*
X112741573Y-57022221D01*
X112744096Y-57026430D01*
X112746194Y-57030866D01*
X112747847Y-57035486D01*
X112749039Y-57040245D01*
X112749759Y-57045099D01*
X112750000Y-57050000D01*
X112750000Y-57150000D01*
X112749759Y-57154901D01*
X112749039Y-57159755D01*
X112747847Y-57164514D01*
X112746194Y-57169134D01*
X112744096Y-57173570D01*
X112741573Y-57177779D01*
X112738651Y-57181720D01*
X112735355Y-57185355D01*
X112731720Y-57188651D01*
X112727779Y-57191573D01*
X112723570Y-57194096D01*
X112719134Y-57196194D01*
X112714514Y-57197847D01*
X112709755Y-57199039D01*
X112704901Y-57199759D01*
X112700000Y-57200000D01*
X111975000Y-57200000D01*
X111970099Y-57199759D01*
X111965245Y-57199039D01*
X111960486Y-57197847D01*
X111955866Y-57196194D01*
X111951430Y-57194096D01*
X111947221Y-57191573D01*
X111943280Y-57188651D01*
X111939645Y-57185355D01*
X111936349Y-57181720D01*
X111933427Y-57177779D01*
X111930904Y-57173570D01*
X111928806Y-57169134D01*
X111927153Y-57164514D01*
X111925961Y-57159755D01*
X111925241Y-57154901D01*
X111925000Y-57150000D01*
X111925000Y-57050000D01*
X111925241Y-57045099D01*
X111925961Y-57040245D01*
X111927153Y-57035486D01*
X111928806Y-57030866D01*
X111930904Y-57026430D01*
X111933427Y-57022221D01*
X111936349Y-57018280D01*
X111939645Y-57014645D01*
X111943280Y-57011349D01*
X111947221Y-57008427D01*
X111951430Y-57005904D01*
X111955866Y-57003806D01*
X111960486Y-57002153D01*
X111965245Y-57000961D01*
X111970099Y-57000241D01*
X111975000Y-57000000D01*
X112700000Y-57000000D01*
X112704901Y-57000241D01*
X112704901Y-57000241D01*
G37*
D22*
X112337500Y-57100000D03*
D10*
G36*
X112704901Y-56600241D02*
G01*
X112709755Y-56600961D01*
X112714514Y-56602153D01*
X112719134Y-56603806D01*
X112723570Y-56605904D01*
X112727779Y-56608427D01*
X112731720Y-56611349D01*
X112735355Y-56614645D01*
X112738651Y-56618280D01*
X112741573Y-56622221D01*
X112744096Y-56626430D01*
X112746194Y-56630866D01*
X112747847Y-56635486D01*
X112749039Y-56640245D01*
X112749759Y-56645099D01*
X112750000Y-56650000D01*
X112750000Y-56750000D01*
X112749759Y-56754901D01*
X112749039Y-56759755D01*
X112747847Y-56764514D01*
X112746194Y-56769134D01*
X112744096Y-56773570D01*
X112741573Y-56777779D01*
X112738651Y-56781720D01*
X112735355Y-56785355D01*
X112731720Y-56788651D01*
X112727779Y-56791573D01*
X112723570Y-56794096D01*
X112719134Y-56796194D01*
X112714514Y-56797847D01*
X112709755Y-56799039D01*
X112704901Y-56799759D01*
X112700000Y-56800000D01*
X111975000Y-56800000D01*
X111970099Y-56799759D01*
X111965245Y-56799039D01*
X111960486Y-56797847D01*
X111955866Y-56796194D01*
X111951430Y-56794096D01*
X111947221Y-56791573D01*
X111943280Y-56788651D01*
X111939645Y-56785355D01*
X111936349Y-56781720D01*
X111933427Y-56777779D01*
X111930904Y-56773570D01*
X111928806Y-56769134D01*
X111927153Y-56764514D01*
X111925961Y-56759755D01*
X111925241Y-56754901D01*
X111925000Y-56750000D01*
X111925000Y-56650000D01*
X111925241Y-56645099D01*
X111925961Y-56640245D01*
X111927153Y-56635486D01*
X111928806Y-56630866D01*
X111930904Y-56626430D01*
X111933427Y-56622221D01*
X111936349Y-56618280D01*
X111939645Y-56614645D01*
X111943280Y-56611349D01*
X111947221Y-56608427D01*
X111951430Y-56605904D01*
X111955866Y-56603806D01*
X111960486Y-56602153D01*
X111965245Y-56600961D01*
X111970099Y-56600241D01*
X111975000Y-56600000D01*
X112700000Y-56600000D01*
X112704901Y-56600241D01*
X112704901Y-56600241D01*
G37*
D22*
X112337500Y-56700000D03*
D10*
G36*
X111654901Y-55550241D02*
G01*
X111659755Y-55550961D01*
X111664514Y-55552153D01*
X111669134Y-55553806D01*
X111673570Y-55555904D01*
X111677779Y-55558427D01*
X111681720Y-55561349D01*
X111685355Y-55564645D01*
X111688651Y-55568280D01*
X111691573Y-55572221D01*
X111694096Y-55576430D01*
X111696194Y-55580866D01*
X111697847Y-55585486D01*
X111699039Y-55590245D01*
X111699759Y-55595099D01*
X111700000Y-55600000D01*
X111700000Y-56325000D01*
X111699759Y-56329901D01*
X111699039Y-56334755D01*
X111697847Y-56339514D01*
X111696194Y-56344134D01*
X111694096Y-56348570D01*
X111691573Y-56352779D01*
X111688651Y-56356720D01*
X111685355Y-56360355D01*
X111681720Y-56363651D01*
X111677779Y-56366573D01*
X111673570Y-56369096D01*
X111669134Y-56371194D01*
X111664514Y-56372847D01*
X111659755Y-56374039D01*
X111654901Y-56374759D01*
X111650000Y-56375000D01*
X111550000Y-56375000D01*
X111545099Y-56374759D01*
X111540245Y-56374039D01*
X111535486Y-56372847D01*
X111530866Y-56371194D01*
X111526430Y-56369096D01*
X111522221Y-56366573D01*
X111518280Y-56363651D01*
X111514645Y-56360355D01*
X111511349Y-56356720D01*
X111508427Y-56352779D01*
X111505904Y-56348570D01*
X111503806Y-56344134D01*
X111502153Y-56339514D01*
X111500961Y-56334755D01*
X111500241Y-56329901D01*
X111500000Y-56325000D01*
X111500000Y-55600000D01*
X111500241Y-55595099D01*
X111500961Y-55590245D01*
X111502153Y-55585486D01*
X111503806Y-55580866D01*
X111505904Y-55576430D01*
X111508427Y-55572221D01*
X111511349Y-55568280D01*
X111514645Y-55564645D01*
X111518280Y-55561349D01*
X111522221Y-55558427D01*
X111526430Y-55555904D01*
X111530866Y-55553806D01*
X111535486Y-55552153D01*
X111540245Y-55550961D01*
X111545099Y-55550241D01*
X111550000Y-55550000D01*
X111650000Y-55550000D01*
X111654901Y-55550241D01*
X111654901Y-55550241D01*
G37*
D22*
X111600000Y-55962500D03*
D10*
G36*
X111254901Y-55550241D02*
G01*
X111259755Y-55550961D01*
X111264514Y-55552153D01*
X111269134Y-55553806D01*
X111273570Y-55555904D01*
X111277779Y-55558427D01*
X111281720Y-55561349D01*
X111285355Y-55564645D01*
X111288651Y-55568280D01*
X111291573Y-55572221D01*
X111294096Y-55576430D01*
X111296194Y-55580866D01*
X111297847Y-55585486D01*
X111299039Y-55590245D01*
X111299759Y-55595099D01*
X111300000Y-55600000D01*
X111300000Y-56325000D01*
X111299759Y-56329901D01*
X111299039Y-56334755D01*
X111297847Y-56339514D01*
X111296194Y-56344134D01*
X111294096Y-56348570D01*
X111291573Y-56352779D01*
X111288651Y-56356720D01*
X111285355Y-56360355D01*
X111281720Y-56363651D01*
X111277779Y-56366573D01*
X111273570Y-56369096D01*
X111269134Y-56371194D01*
X111264514Y-56372847D01*
X111259755Y-56374039D01*
X111254901Y-56374759D01*
X111250000Y-56375000D01*
X111150000Y-56375000D01*
X111145099Y-56374759D01*
X111140245Y-56374039D01*
X111135486Y-56372847D01*
X111130866Y-56371194D01*
X111126430Y-56369096D01*
X111122221Y-56366573D01*
X111118280Y-56363651D01*
X111114645Y-56360355D01*
X111111349Y-56356720D01*
X111108427Y-56352779D01*
X111105904Y-56348570D01*
X111103806Y-56344134D01*
X111102153Y-56339514D01*
X111100961Y-56334755D01*
X111100241Y-56329901D01*
X111100000Y-56325000D01*
X111100000Y-55600000D01*
X111100241Y-55595099D01*
X111100961Y-55590245D01*
X111102153Y-55585486D01*
X111103806Y-55580866D01*
X111105904Y-55576430D01*
X111108427Y-55572221D01*
X111111349Y-55568280D01*
X111114645Y-55564645D01*
X111118280Y-55561349D01*
X111122221Y-55558427D01*
X111126430Y-55555904D01*
X111130866Y-55553806D01*
X111135486Y-55552153D01*
X111140245Y-55550961D01*
X111145099Y-55550241D01*
X111150000Y-55550000D01*
X111250000Y-55550000D01*
X111254901Y-55550241D01*
X111254901Y-55550241D01*
G37*
D22*
X111200000Y-55962500D03*
D10*
G36*
X110854901Y-55550241D02*
G01*
X110859755Y-55550961D01*
X110864514Y-55552153D01*
X110869134Y-55553806D01*
X110873570Y-55555904D01*
X110877779Y-55558427D01*
X110881720Y-55561349D01*
X110885355Y-55564645D01*
X110888651Y-55568280D01*
X110891573Y-55572221D01*
X110894096Y-55576430D01*
X110896194Y-55580866D01*
X110897847Y-55585486D01*
X110899039Y-55590245D01*
X110899759Y-55595099D01*
X110900000Y-55600000D01*
X110900000Y-56325000D01*
X110899759Y-56329901D01*
X110899039Y-56334755D01*
X110897847Y-56339514D01*
X110896194Y-56344134D01*
X110894096Y-56348570D01*
X110891573Y-56352779D01*
X110888651Y-56356720D01*
X110885355Y-56360355D01*
X110881720Y-56363651D01*
X110877779Y-56366573D01*
X110873570Y-56369096D01*
X110869134Y-56371194D01*
X110864514Y-56372847D01*
X110859755Y-56374039D01*
X110854901Y-56374759D01*
X110850000Y-56375000D01*
X110750000Y-56375000D01*
X110745099Y-56374759D01*
X110740245Y-56374039D01*
X110735486Y-56372847D01*
X110730866Y-56371194D01*
X110726430Y-56369096D01*
X110722221Y-56366573D01*
X110718280Y-56363651D01*
X110714645Y-56360355D01*
X110711349Y-56356720D01*
X110708427Y-56352779D01*
X110705904Y-56348570D01*
X110703806Y-56344134D01*
X110702153Y-56339514D01*
X110700961Y-56334755D01*
X110700241Y-56329901D01*
X110700000Y-56325000D01*
X110700000Y-55600000D01*
X110700241Y-55595099D01*
X110700961Y-55590245D01*
X110702153Y-55585486D01*
X110703806Y-55580866D01*
X110705904Y-55576430D01*
X110708427Y-55572221D01*
X110711349Y-55568280D01*
X110714645Y-55564645D01*
X110718280Y-55561349D01*
X110722221Y-55558427D01*
X110726430Y-55555904D01*
X110730866Y-55553806D01*
X110735486Y-55552153D01*
X110740245Y-55550961D01*
X110745099Y-55550241D01*
X110750000Y-55550000D01*
X110850000Y-55550000D01*
X110854901Y-55550241D01*
X110854901Y-55550241D01*
G37*
D22*
X110800000Y-55962500D03*
D10*
G36*
X110454901Y-55550241D02*
G01*
X110459755Y-55550961D01*
X110464514Y-55552153D01*
X110469134Y-55553806D01*
X110473570Y-55555904D01*
X110477779Y-55558427D01*
X110481720Y-55561349D01*
X110485355Y-55564645D01*
X110488651Y-55568280D01*
X110491573Y-55572221D01*
X110494096Y-55576430D01*
X110496194Y-55580866D01*
X110497847Y-55585486D01*
X110499039Y-55590245D01*
X110499759Y-55595099D01*
X110500000Y-55600000D01*
X110500000Y-56325000D01*
X110499759Y-56329901D01*
X110499039Y-56334755D01*
X110497847Y-56339514D01*
X110496194Y-56344134D01*
X110494096Y-56348570D01*
X110491573Y-56352779D01*
X110488651Y-56356720D01*
X110485355Y-56360355D01*
X110481720Y-56363651D01*
X110477779Y-56366573D01*
X110473570Y-56369096D01*
X110469134Y-56371194D01*
X110464514Y-56372847D01*
X110459755Y-56374039D01*
X110454901Y-56374759D01*
X110450000Y-56375000D01*
X110350000Y-56375000D01*
X110345099Y-56374759D01*
X110340245Y-56374039D01*
X110335486Y-56372847D01*
X110330866Y-56371194D01*
X110326430Y-56369096D01*
X110322221Y-56366573D01*
X110318280Y-56363651D01*
X110314645Y-56360355D01*
X110311349Y-56356720D01*
X110308427Y-56352779D01*
X110305904Y-56348570D01*
X110303806Y-56344134D01*
X110302153Y-56339514D01*
X110300961Y-56334755D01*
X110300241Y-56329901D01*
X110300000Y-56325000D01*
X110300000Y-55600000D01*
X110300241Y-55595099D01*
X110300961Y-55590245D01*
X110302153Y-55585486D01*
X110303806Y-55580866D01*
X110305904Y-55576430D01*
X110308427Y-55572221D01*
X110311349Y-55568280D01*
X110314645Y-55564645D01*
X110318280Y-55561349D01*
X110322221Y-55558427D01*
X110326430Y-55555904D01*
X110330866Y-55553806D01*
X110335486Y-55552153D01*
X110340245Y-55550961D01*
X110345099Y-55550241D01*
X110350000Y-55550000D01*
X110450000Y-55550000D01*
X110454901Y-55550241D01*
X110454901Y-55550241D01*
G37*
D22*
X110400000Y-55962500D03*
D10*
G36*
X110054901Y-55550241D02*
G01*
X110059755Y-55550961D01*
X110064514Y-55552153D01*
X110069134Y-55553806D01*
X110073570Y-55555904D01*
X110077779Y-55558427D01*
X110081720Y-55561349D01*
X110085355Y-55564645D01*
X110088651Y-55568280D01*
X110091573Y-55572221D01*
X110094096Y-55576430D01*
X110096194Y-55580866D01*
X110097847Y-55585486D01*
X110099039Y-55590245D01*
X110099759Y-55595099D01*
X110100000Y-55600000D01*
X110100000Y-56325000D01*
X110099759Y-56329901D01*
X110099039Y-56334755D01*
X110097847Y-56339514D01*
X110096194Y-56344134D01*
X110094096Y-56348570D01*
X110091573Y-56352779D01*
X110088651Y-56356720D01*
X110085355Y-56360355D01*
X110081720Y-56363651D01*
X110077779Y-56366573D01*
X110073570Y-56369096D01*
X110069134Y-56371194D01*
X110064514Y-56372847D01*
X110059755Y-56374039D01*
X110054901Y-56374759D01*
X110050000Y-56375000D01*
X109950000Y-56375000D01*
X109945099Y-56374759D01*
X109940245Y-56374039D01*
X109935486Y-56372847D01*
X109930866Y-56371194D01*
X109926430Y-56369096D01*
X109922221Y-56366573D01*
X109918280Y-56363651D01*
X109914645Y-56360355D01*
X109911349Y-56356720D01*
X109908427Y-56352779D01*
X109905904Y-56348570D01*
X109903806Y-56344134D01*
X109902153Y-56339514D01*
X109900961Y-56334755D01*
X109900241Y-56329901D01*
X109900000Y-56325000D01*
X109900000Y-55600000D01*
X109900241Y-55595099D01*
X109900961Y-55590245D01*
X109902153Y-55585486D01*
X109903806Y-55580866D01*
X109905904Y-55576430D01*
X109908427Y-55572221D01*
X109911349Y-55568280D01*
X109914645Y-55564645D01*
X109918280Y-55561349D01*
X109922221Y-55558427D01*
X109926430Y-55555904D01*
X109930866Y-55553806D01*
X109935486Y-55552153D01*
X109940245Y-55550961D01*
X109945099Y-55550241D01*
X109950000Y-55550000D01*
X110050000Y-55550000D01*
X110054901Y-55550241D01*
X110054901Y-55550241D01*
G37*
D22*
X110000000Y-55962500D03*
D10*
G36*
X109654901Y-55550241D02*
G01*
X109659755Y-55550961D01*
X109664514Y-55552153D01*
X109669134Y-55553806D01*
X109673570Y-55555904D01*
X109677779Y-55558427D01*
X109681720Y-55561349D01*
X109685355Y-55564645D01*
X109688651Y-55568280D01*
X109691573Y-55572221D01*
X109694096Y-55576430D01*
X109696194Y-55580866D01*
X109697847Y-55585486D01*
X109699039Y-55590245D01*
X109699759Y-55595099D01*
X109700000Y-55600000D01*
X109700000Y-56325000D01*
X109699759Y-56329901D01*
X109699039Y-56334755D01*
X109697847Y-56339514D01*
X109696194Y-56344134D01*
X109694096Y-56348570D01*
X109691573Y-56352779D01*
X109688651Y-56356720D01*
X109685355Y-56360355D01*
X109681720Y-56363651D01*
X109677779Y-56366573D01*
X109673570Y-56369096D01*
X109669134Y-56371194D01*
X109664514Y-56372847D01*
X109659755Y-56374039D01*
X109654901Y-56374759D01*
X109650000Y-56375000D01*
X109550000Y-56375000D01*
X109545099Y-56374759D01*
X109540245Y-56374039D01*
X109535486Y-56372847D01*
X109530866Y-56371194D01*
X109526430Y-56369096D01*
X109522221Y-56366573D01*
X109518280Y-56363651D01*
X109514645Y-56360355D01*
X109511349Y-56356720D01*
X109508427Y-56352779D01*
X109505904Y-56348570D01*
X109503806Y-56344134D01*
X109502153Y-56339514D01*
X109500961Y-56334755D01*
X109500241Y-56329901D01*
X109500000Y-56325000D01*
X109500000Y-55600000D01*
X109500241Y-55595099D01*
X109500961Y-55590245D01*
X109502153Y-55585486D01*
X109503806Y-55580866D01*
X109505904Y-55576430D01*
X109508427Y-55572221D01*
X109511349Y-55568280D01*
X109514645Y-55564645D01*
X109518280Y-55561349D01*
X109522221Y-55558427D01*
X109526430Y-55555904D01*
X109530866Y-55553806D01*
X109535486Y-55552153D01*
X109540245Y-55550961D01*
X109545099Y-55550241D01*
X109550000Y-55550000D01*
X109650000Y-55550000D01*
X109654901Y-55550241D01*
X109654901Y-55550241D01*
G37*
D22*
X109600000Y-55962500D03*
D10*
G36*
X109254901Y-55550241D02*
G01*
X109259755Y-55550961D01*
X109264514Y-55552153D01*
X109269134Y-55553806D01*
X109273570Y-55555904D01*
X109277779Y-55558427D01*
X109281720Y-55561349D01*
X109285355Y-55564645D01*
X109288651Y-55568280D01*
X109291573Y-55572221D01*
X109294096Y-55576430D01*
X109296194Y-55580866D01*
X109297847Y-55585486D01*
X109299039Y-55590245D01*
X109299759Y-55595099D01*
X109300000Y-55600000D01*
X109300000Y-56325000D01*
X109299759Y-56329901D01*
X109299039Y-56334755D01*
X109297847Y-56339514D01*
X109296194Y-56344134D01*
X109294096Y-56348570D01*
X109291573Y-56352779D01*
X109288651Y-56356720D01*
X109285355Y-56360355D01*
X109281720Y-56363651D01*
X109277779Y-56366573D01*
X109273570Y-56369096D01*
X109269134Y-56371194D01*
X109264514Y-56372847D01*
X109259755Y-56374039D01*
X109254901Y-56374759D01*
X109250000Y-56375000D01*
X109150000Y-56375000D01*
X109145099Y-56374759D01*
X109140245Y-56374039D01*
X109135486Y-56372847D01*
X109130866Y-56371194D01*
X109126430Y-56369096D01*
X109122221Y-56366573D01*
X109118280Y-56363651D01*
X109114645Y-56360355D01*
X109111349Y-56356720D01*
X109108427Y-56352779D01*
X109105904Y-56348570D01*
X109103806Y-56344134D01*
X109102153Y-56339514D01*
X109100961Y-56334755D01*
X109100241Y-56329901D01*
X109100000Y-56325000D01*
X109100000Y-55600000D01*
X109100241Y-55595099D01*
X109100961Y-55590245D01*
X109102153Y-55585486D01*
X109103806Y-55580866D01*
X109105904Y-55576430D01*
X109108427Y-55572221D01*
X109111349Y-55568280D01*
X109114645Y-55564645D01*
X109118280Y-55561349D01*
X109122221Y-55558427D01*
X109126430Y-55555904D01*
X109130866Y-55553806D01*
X109135486Y-55552153D01*
X109140245Y-55550961D01*
X109145099Y-55550241D01*
X109150000Y-55550000D01*
X109250000Y-55550000D01*
X109254901Y-55550241D01*
X109254901Y-55550241D01*
G37*
D22*
X109200000Y-55962500D03*
D10*
G36*
X108829901Y-56600241D02*
G01*
X108834755Y-56600961D01*
X108839514Y-56602153D01*
X108844134Y-56603806D01*
X108848570Y-56605904D01*
X108852779Y-56608427D01*
X108856720Y-56611349D01*
X108860355Y-56614645D01*
X108863651Y-56618280D01*
X108866573Y-56622221D01*
X108869096Y-56626430D01*
X108871194Y-56630866D01*
X108872847Y-56635486D01*
X108874039Y-56640245D01*
X108874759Y-56645099D01*
X108875000Y-56650000D01*
X108875000Y-56750000D01*
X108874759Y-56754901D01*
X108874039Y-56759755D01*
X108872847Y-56764514D01*
X108871194Y-56769134D01*
X108869096Y-56773570D01*
X108866573Y-56777779D01*
X108863651Y-56781720D01*
X108860355Y-56785355D01*
X108856720Y-56788651D01*
X108852779Y-56791573D01*
X108848570Y-56794096D01*
X108844134Y-56796194D01*
X108839514Y-56797847D01*
X108834755Y-56799039D01*
X108829901Y-56799759D01*
X108825000Y-56800000D01*
X108100000Y-56800000D01*
X108095099Y-56799759D01*
X108090245Y-56799039D01*
X108085486Y-56797847D01*
X108080866Y-56796194D01*
X108076430Y-56794096D01*
X108072221Y-56791573D01*
X108068280Y-56788651D01*
X108064645Y-56785355D01*
X108061349Y-56781720D01*
X108058427Y-56777779D01*
X108055904Y-56773570D01*
X108053806Y-56769134D01*
X108052153Y-56764514D01*
X108050961Y-56759755D01*
X108050241Y-56754901D01*
X108050000Y-56750000D01*
X108050000Y-56650000D01*
X108050241Y-56645099D01*
X108050961Y-56640245D01*
X108052153Y-56635486D01*
X108053806Y-56630866D01*
X108055904Y-56626430D01*
X108058427Y-56622221D01*
X108061349Y-56618280D01*
X108064645Y-56614645D01*
X108068280Y-56611349D01*
X108072221Y-56608427D01*
X108076430Y-56605904D01*
X108080866Y-56603806D01*
X108085486Y-56602153D01*
X108090245Y-56600961D01*
X108095099Y-56600241D01*
X108100000Y-56600000D01*
X108825000Y-56600000D01*
X108829901Y-56600241D01*
X108829901Y-56600241D01*
G37*
D22*
X108462500Y-56700000D03*
D10*
G36*
X108829901Y-57000241D02*
G01*
X108834755Y-57000961D01*
X108839514Y-57002153D01*
X108844134Y-57003806D01*
X108848570Y-57005904D01*
X108852779Y-57008427D01*
X108856720Y-57011349D01*
X108860355Y-57014645D01*
X108863651Y-57018280D01*
X108866573Y-57022221D01*
X108869096Y-57026430D01*
X108871194Y-57030866D01*
X108872847Y-57035486D01*
X108874039Y-57040245D01*
X108874759Y-57045099D01*
X108875000Y-57050000D01*
X108875000Y-57150000D01*
X108874759Y-57154901D01*
X108874039Y-57159755D01*
X108872847Y-57164514D01*
X108871194Y-57169134D01*
X108869096Y-57173570D01*
X108866573Y-57177779D01*
X108863651Y-57181720D01*
X108860355Y-57185355D01*
X108856720Y-57188651D01*
X108852779Y-57191573D01*
X108848570Y-57194096D01*
X108844134Y-57196194D01*
X108839514Y-57197847D01*
X108834755Y-57199039D01*
X108829901Y-57199759D01*
X108825000Y-57200000D01*
X108100000Y-57200000D01*
X108095099Y-57199759D01*
X108090245Y-57199039D01*
X108085486Y-57197847D01*
X108080866Y-57196194D01*
X108076430Y-57194096D01*
X108072221Y-57191573D01*
X108068280Y-57188651D01*
X108064645Y-57185355D01*
X108061349Y-57181720D01*
X108058427Y-57177779D01*
X108055904Y-57173570D01*
X108053806Y-57169134D01*
X108052153Y-57164514D01*
X108050961Y-57159755D01*
X108050241Y-57154901D01*
X108050000Y-57150000D01*
X108050000Y-57050000D01*
X108050241Y-57045099D01*
X108050961Y-57040245D01*
X108052153Y-57035486D01*
X108053806Y-57030866D01*
X108055904Y-57026430D01*
X108058427Y-57022221D01*
X108061349Y-57018280D01*
X108064645Y-57014645D01*
X108068280Y-57011349D01*
X108072221Y-57008427D01*
X108076430Y-57005904D01*
X108080866Y-57003806D01*
X108085486Y-57002153D01*
X108090245Y-57000961D01*
X108095099Y-57000241D01*
X108100000Y-57000000D01*
X108825000Y-57000000D01*
X108829901Y-57000241D01*
X108829901Y-57000241D01*
G37*
D22*
X108462500Y-57100000D03*
D10*
G36*
X108829901Y-57400241D02*
G01*
X108834755Y-57400961D01*
X108839514Y-57402153D01*
X108844134Y-57403806D01*
X108848570Y-57405904D01*
X108852779Y-57408427D01*
X108856720Y-57411349D01*
X108860355Y-57414645D01*
X108863651Y-57418280D01*
X108866573Y-57422221D01*
X108869096Y-57426430D01*
X108871194Y-57430866D01*
X108872847Y-57435486D01*
X108874039Y-57440245D01*
X108874759Y-57445099D01*
X108875000Y-57450000D01*
X108875000Y-57550000D01*
X108874759Y-57554901D01*
X108874039Y-57559755D01*
X108872847Y-57564514D01*
X108871194Y-57569134D01*
X108869096Y-57573570D01*
X108866573Y-57577779D01*
X108863651Y-57581720D01*
X108860355Y-57585355D01*
X108856720Y-57588651D01*
X108852779Y-57591573D01*
X108848570Y-57594096D01*
X108844134Y-57596194D01*
X108839514Y-57597847D01*
X108834755Y-57599039D01*
X108829901Y-57599759D01*
X108825000Y-57600000D01*
X108100000Y-57600000D01*
X108095099Y-57599759D01*
X108090245Y-57599039D01*
X108085486Y-57597847D01*
X108080866Y-57596194D01*
X108076430Y-57594096D01*
X108072221Y-57591573D01*
X108068280Y-57588651D01*
X108064645Y-57585355D01*
X108061349Y-57581720D01*
X108058427Y-57577779D01*
X108055904Y-57573570D01*
X108053806Y-57569134D01*
X108052153Y-57564514D01*
X108050961Y-57559755D01*
X108050241Y-57554901D01*
X108050000Y-57550000D01*
X108050000Y-57450000D01*
X108050241Y-57445099D01*
X108050961Y-57440245D01*
X108052153Y-57435486D01*
X108053806Y-57430866D01*
X108055904Y-57426430D01*
X108058427Y-57422221D01*
X108061349Y-57418280D01*
X108064645Y-57414645D01*
X108068280Y-57411349D01*
X108072221Y-57408427D01*
X108076430Y-57405904D01*
X108080866Y-57403806D01*
X108085486Y-57402153D01*
X108090245Y-57400961D01*
X108095099Y-57400241D01*
X108100000Y-57400000D01*
X108825000Y-57400000D01*
X108829901Y-57400241D01*
X108829901Y-57400241D01*
G37*
D22*
X108462500Y-57500000D03*
D10*
G36*
X108829901Y-57800241D02*
G01*
X108834755Y-57800961D01*
X108839514Y-57802153D01*
X108844134Y-57803806D01*
X108848570Y-57805904D01*
X108852779Y-57808427D01*
X108856720Y-57811349D01*
X108860355Y-57814645D01*
X108863651Y-57818280D01*
X108866573Y-57822221D01*
X108869096Y-57826430D01*
X108871194Y-57830866D01*
X108872847Y-57835486D01*
X108874039Y-57840245D01*
X108874759Y-57845099D01*
X108875000Y-57850000D01*
X108875000Y-57950000D01*
X108874759Y-57954901D01*
X108874039Y-57959755D01*
X108872847Y-57964514D01*
X108871194Y-57969134D01*
X108869096Y-57973570D01*
X108866573Y-57977779D01*
X108863651Y-57981720D01*
X108860355Y-57985355D01*
X108856720Y-57988651D01*
X108852779Y-57991573D01*
X108848570Y-57994096D01*
X108844134Y-57996194D01*
X108839514Y-57997847D01*
X108834755Y-57999039D01*
X108829901Y-57999759D01*
X108825000Y-58000000D01*
X108100000Y-58000000D01*
X108095099Y-57999759D01*
X108090245Y-57999039D01*
X108085486Y-57997847D01*
X108080866Y-57996194D01*
X108076430Y-57994096D01*
X108072221Y-57991573D01*
X108068280Y-57988651D01*
X108064645Y-57985355D01*
X108061349Y-57981720D01*
X108058427Y-57977779D01*
X108055904Y-57973570D01*
X108053806Y-57969134D01*
X108052153Y-57964514D01*
X108050961Y-57959755D01*
X108050241Y-57954901D01*
X108050000Y-57950000D01*
X108050000Y-57850000D01*
X108050241Y-57845099D01*
X108050961Y-57840245D01*
X108052153Y-57835486D01*
X108053806Y-57830866D01*
X108055904Y-57826430D01*
X108058427Y-57822221D01*
X108061349Y-57818280D01*
X108064645Y-57814645D01*
X108068280Y-57811349D01*
X108072221Y-57808427D01*
X108076430Y-57805904D01*
X108080866Y-57803806D01*
X108085486Y-57802153D01*
X108090245Y-57800961D01*
X108095099Y-57800241D01*
X108100000Y-57800000D01*
X108825000Y-57800000D01*
X108829901Y-57800241D01*
X108829901Y-57800241D01*
G37*
D22*
X108462500Y-57900000D03*
D10*
G36*
X108829901Y-58200241D02*
G01*
X108834755Y-58200961D01*
X108839514Y-58202153D01*
X108844134Y-58203806D01*
X108848570Y-58205904D01*
X108852779Y-58208427D01*
X108856720Y-58211349D01*
X108860355Y-58214645D01*
X108863651Y-58218280D01*
X108866573Y-58222221D01*
X108869096Y-58226430D01*
X108871194Y-58230866D01*
X108872847Y-58235486D01*
X108874039Y-58240245D01*
X108874759Y-58245099D01*
X108875000Y-58250000D01*
X108875000Y-58350000D01*
X108874759Y-58354901D01*
X108874039Y-58359755D01*
X108872847Y-58364514D01*
X108871194Y-58369134D01*
X108869096Y-58373570D01*
X108866573Y-58377779D01*
X108863651Y-58381720D01*
X108860355Y-58385355D01*
X108856720Y-58388651D01*
X108852779Y-58391573D01*
X108848570Y-58394096D01*
X108844134Y-58396194D01*
X108839514Y-58397847D01*
X108834755Y-58399039D01*
X108829901Y-58399759D01*
X108825000Y-58400000D01*
X108100000Y-58400000D01*
X108095099Y-58399759D01*
X108090245Y-58399039D01*
X108085486Y-58397847D01*
X108080866Y-58396194D01*
X108076430Y-58394096D01*
X108072221Y-58391573D01*
X108068280Y-58388651D01*
X108064645Y-58385355D01*
X108061349Y-58381720D01*
X108058427Y-58377779D01*
X108055904Y-58373570D01*
X108053806Y-58369134D01*
X108052153Y-58364514D01*
X108050961Y-58359755D01*
X108050241Y-58354901D01*
X108050000Y-58350000D01*
X108050000Y-58250000D01*
X108050241Y-58245099D01*
X108050961Y-58240245D01*
X108052153Y-58235486D01*
X108053806Y-58230866D01*
X108055904Y-58226430D01*
X108058427Y-58222221D01*
X108061349Y-58218280D01*
X108064645Y-58214645D01*
X108068280Y-58211349D01*
X108072221Y-58208427D01*
X108076430Y-58205904D01*
X108080866Y-58203806D01*
X108085486Y-58202153D01*
X108090245Y-58200961D01*
X108095099Y-58200241D01*
X108100000Y-58200000D01*
X108825000Y-58200000D01*
X108829901Y-58200241D01*
X108829901Y-58200241D01*
G37*
D22*
X108462500Y-58300000D03*
D10*
G36*
X108829901Y-58600241D02*
G01*
X108834755Y-58600961D01*
X108839514Y-58602153D01*
X108844134Y-58603806D01*
X108848570Y-58605904D01*
X108852779Y-58608427D01*
X108856720Y-58611349D01*
X108860355Y-58614645D01*
X108863651Y-58618280D01*
X108866573Y-58622221D01*
X108869096Y-58626430D01*
X108871194Y-58630866D01*
X108872847Y-58635486D01*
X108874039Y-58640245D01*
X108874759Y-58645099D01*
X108875000Y-58650000D01*
X108875000Y-58750000D01*
X108874759Y-58754901D01*
X108874039Y-58759755D01*
X108872847Y-58764514D01*
X108871194Y-58769134D01*
X108869096Y-58773570D01*
X108866573Y-58777779D01*
X108863651Y-58781720D01*
X108860355Y-58785355D01*
X108856720Y-58788651D01*
X108852779Y-58791573D01*
X108848570Y-58794096D01*
X108844134Y-58796194D01*
X108839514Y-58797847D01*
X108834755Y-58799039D01*
X108829901Y-58799759D01*
X108825000Y-58800000D01*
X108100000Y-58800000D01*
X108095099Y-58799759D01*
X108090245Y-58799039D01*
X108085486Y-58797847D01*
X108080866Y-58796194D01*
X108076430Y-58794096D01*
X108072221Y-58791573D01*
X108068280Y-58788651D01*
X108064645Y-58785355D01*
X108061349Y-58781720D01*
X108058427Y-58777779D01*
X108055904Y-58773570D01*
X108053806Y-58769134D01*
X108052153Y-58764514D01*
X108050961Y-58759755D01*
X108050241Y-58754901D01*
X108050000Y-58750000D01*
X108050000Y-58650000D01*
X108050241Y-58645099D01*
X108050961Y-58640245D01*
X108052153Y-58635486D01*
X108053806Y-58630866D01*
X108055904Y-58626430D01*
X108058427Y-58622221D01*
X108061349Y-58618280D01*
X108064645Y-58614645D01*
X108068280Y-58611349D01*
X108072221Y-58608427D01*
X108076430Y-58605904D01*
X108080866Y-58603806D01*
X108085486Y-58602153D01*
X108090245Y-58600961D01*
X108095099Y-58600241D01*
X108100000Y-58600000D01*
X108825000Y-58600000D01*
X108829901Y-58600241D01*
X108829901Y-58600241D01*
G37*
D22*
X108462500Y-58700000D03*
D10*
G36*
X108829901Y-59000241D02*
G01*
X108834755Y-59000961D01*
X108839514Y-59002153D01*
X108844134Y-59003806D01*
X108848570Y-59005904D01*
X108852779Y-59008427D01*
X108856720Y-59011349D01*
X108860355Y-59014645D01*
X108863651Y-59018280D01*
X108866573Y-59022221D01*
X108869096Y-59026430D01*
X108871194Y-59030866D01*
X108872847Y-59035486D01*
X108874039Y-59040245D01*
X108874759Y-59045099D01*
X108875000Y-59050000D01*
X108875000Y-59150000D01*
X108874759Y-59154901D01*
X108874039Y-59159755D01*
X108872847Y-59164514D01*
X108871194Y-59169134D01*
X108869096Y-59173570D01*
X108866573Y-59177779D01*
X108863651Y-59181720D01*
X108860355Y-59185355D01*
X108856720Y-59188651D01*
X108852779Y-59191573D01*
X108848570Y-59194096D01*
X108844134Y-59196194D01*
X108839514Y-59197847D01*
X108834755Y-59199039D01*
X108829901Y-59199759D01*
X108825000Y-59200000D01*
X108100000Y-59200000D01*
X108095099Y-59199759D01*
X108090245Y-59199039D01*
X108085486Y-59197847D01*
X108080866Y-59196194D01*
X108076430Y-59194096D01*
X108072221Y-59191573D01*
X108068280Y-59188651D01*
X108064645Y-59185355D01*
X108061349Y-59181720D01*
X108058427Y-59177779D01*
X108055904Y-59173570D01*
X108053806Y-59169134D01*
X108052153Y-59164514D01*
X108050961Y-59159755D01*
X108050241Y-59154901D01*
X108050000Y-59150000D01*
X108050000Y-59050000D01*
X108050241Y-59045099D01*
X108050961Y-59040245D01*
X108052153Y-59035486D01*
X108053806Y-59030866D01*
X108055904Y-59026430D01*
X108058427Y-59022221D01*
X108061349Y-59018280D01*
X108064645Y-59014645D01*
X108068280Y-59011349D01*
X108072221Y-59008427D01*
X108076430Y-59005904D01*
X108080866Y-59003806D01*
X108085486Y-59002153D01*
X108090245Y-59000961D01*
X108095099Y-59000241D01*
X108100000Y-59000000D01*
X108825000Y-59000000D01*
X108829901Y-59000241D01*
X108829901Y-59000241D01*
G37*
D22*
X108462500Y-59100000D03*
D10*
G36*
X111324504Y-56751204D02*
G01*
X111348773Y-56754804D01*
X111372571Y-56760765D01*
X111395671Y-56769030D01*
X111417849Y-56779520D01*
X111438893Y-56792133D01*
X111458598Y-56806747D01*
X111476777Y-56823223D01*
X111493253Y-56841402D01*
X111507867Y-56861107D01*
X111520480Y-56882151D01*
X111530970Y-56904329D01*
X111539235Y-56927429D01*
X111545196Y-56951227D01*
X111548796Y-56975496D01*
X111550000Y-57000000D01*
X111550000Y-58800000D01*
X111548796Y-58824504D01*
X111545196Y-58848773D01*
X111539235Y-58872571D01*
X111530970Y-58895671D01*
X111520480Y-58917849D01*
X111507867Y-58938893D01*
X111493253Y-58958598D01*
X111476777Y-58976777D01*
X111458598Y-58993253D01*
X111438893Y-59007867D01*
X111417849Y-59020480D01*
X111395671Y-59030970D01*
X111372571Y-59039235D01*
X111348773Y-59045196D01*
X111324504Y-59048796D01*
X111300000Y-59050000D01*
X109500000Y-59050000D01*
X109475496Y-59048796D01*
X109451227Y-59045196D01*
X109427429Y-59039235D01*
X109404329Y-59030970D01*
X109382151Y-59020480D01*
X109361107Y-59007867D01*
X109341402Y-58993253D01*
X109323223Y-58976777D01*
X109306747Y-58958598D01*
X109292133Y-58938893D01*
X109279520Y-58917849D01*
X109269030Y-58895671D01*
X109260765Y-58872571D01*
X109254804Y-58848773D01*
X109251204Y-58824504D01*
X109250000Y-58800000D01*
X109250000Y-57000000D01*
X109251204Y-56975496D01*
X109254804Y-56951227D01*
X109260765Y-56927429D01*
X109269030Y-56904329D01*
X109279520Y-56882151D01*
X109292133Y-56861107D01*
X109306747Y-56841402D01*
X109323223Y-56823223D01*
X109341402Y-56806747D01*
X109361107Y-56792133D01*
X109382151Y-56779520D01*
X109404329Y-56769030D01*
X109427429Y-56760765D01*
X109451227Y-56754804D01*
X109475496Y-56751204D01*
X109500000Y-56750000D01*
X111300000Y-56750000D01*
X111324504Y-56751204D01*
X111324504Y-56751204D01*
G37*
D23*
X110400000Y-57900000D03*
D10*
G36*
X114749504Y-50476204D02*
G01*
X114773773Y-50479804D01*
X114797571Y-50485765D01*
X114820671Y-50494030D01*
X114842849Y-50504520D01*
X114863893Y-50517133D01*
X114883598Y-50531747D01*
X114901777Y-50548223D01*
X114918253Y-50566402D01*
X114932867Y-50586107D01*
X114945480Y-50607151D01*
X114955970Y-50629329D01*
X114964235Y-50652429D01*
X114970196Y-50676227D01*
X114973796Y-50700496D01*
X114975000Y-50725000D01*
X114975000Y-51475000D01*
X114973796Y-51499504D01*
X114970196Y-51523773D01*
X114964235Y-51547571D01*
X114955970Y-51570671D01*
X114945480Y-51592849D01*
X114932867Y-51613893D01*
X114918253Y-51633598D01*
X114901777Y-51651777D01*
X114883598Y-51668253D01*
X114863893Y-51682867D01*
X114842849Y-51695480D01*
X114820671Y-51705970D01*
X114797571Y-51714235D01*
X114773773Y-51720196D01*
X114749504Y-51723796D01*
X114725000Y-51725000D01*
X113475000Y-51725000D01*
X113450496Y-51723796D01*
X113426227Y-51720196D01*
X113402429Y-51714235D01*
X113379329Y-51705970D01*
X113357151Y-51695480D01*
X113336107Y-51682867D01*
X113316402Y-51668253D01*
X113298223Y-51651777D01*
X113281747Y-51633598D01*
X113267133Y-51613893D01*
X113254520Y-51592849D01*
X113244030Y-51570671D01*
X113235765Y-51547571D01*
X113229804Y-51523773D01*
X113226204Y-51499504D01*
X113225000Y-51475000D01*
X113225000Y-50725000D01*
X113226204Y-50700496D01*
X113229804Y-50676227D01*
X113235765Y-50652429D01*
X113244030Y-50629329D01*
X113254520Y-50607151D01*
X113267133Y-50586107D01*
X113281747Y-50566402D01*
X113298223Y-50548223D01*
X113316402Y-50531747D01*
X113336107Y-50517133D01*
X113357151Y-50504520D01*
X113379329Y-50494030D01*
X113402429Y-50485765D01*
X113426227Y-50479804D01*
X113450496Y-50476204D01*
X113475000Y-50475000D01*
X114725000Y-50475000D01*
X114749504Y-50476204D01*
X114749504Y-50476204D01*
G37*
D15*
X114100000Y-51100000D03*
D10*
G36*
X114749504Y-53276204D02*
G01*
X114773773Y-53279804D01*
X114797571Y-53285765D01*
X114820671Y-53294030D01*
X114842849Y-53304520D01*
X114863893Y-53317133D01*
X114883598Y-53331747D01*
X114901777Y-53348223D01*
X114918253Y-53366402D01*
X114932867Y-53386107D01*
X114945480Y-53407151D01*
X114955970Y-53429329D01*
X114964235Y-53452429D01*
X114970196Y-53476227D01*
X114973796Y-53500496D01*
X114975000Y-53525000D01*
X114975000Y-54275000D01*
X114973796Y-54299504D01*
X114970196Y-54323773D01*
X114964235Y-54347571D01*
X114955970Y-54370671D01*
X114945480Y-54392849D01*
X114932867Y-54413893D01*
X114918253Y-54433598D01*
X114901777Y-54451777D01*
X114883598Y-54468253D01*
X114863893Y-54482867D01*
X114842849Y-54495480D01*
X114820671Y-54505970D01*
X114797571Y-54514235D01*
X114773773Y-54520196D01*
X114749504Y-54523796D01*
X114725000Y-54525000D01*
X113475000Y-54525000D01*
X113450496Y-54523796D01*
X113426227Y-54520196D01*
X113402429Y-54514235D01*
X113379329Y-54505970D01*
X113357151Y-54495480D01*
X113336107Y-54482867D01*
X113316402Y-54468253D01*
X113298223Y-54451777D01*
X113281747Y-54433598D01*
X113267133Y-54413893D01*
X113254520Y-54392849D01*
X113244030Y-54370671D01*
X113235765Y-54347571D01*
X113229804Y-54323773D01*
X113226204Y-54299504D01*
X113225000Y-54275000D01*
X113225000Y-53525000D01*
X113226204Y-53500496D01*
X113229804Y-53476227D01*
X113235765Y-53452429D01*
X113244030Y-53429329D01*
X113254520Y-53407151D01*
X113267133Y-53386107D01*
X113281747Y-53366402D01*
X113298223Y-53348223D01*
X113316402Y-53331747D01*
X113336107Y-53317133D01*
X113357151Y-53304520D01*
X113379329Y-53294030D01*
X113402429Y-53285765D01*
X113426227Y-53279804D01*
X113450496Y-53276204D01*
X113475000Y-53275000D01*
X114725000Y-53275000D01*
X114749504Y-53276204D01*
X114749504Y-53276204D01*
G37*
D15*
X114100000Y-53900000D03*
D24*
X168875000Y-49750000D03*
X168875000Y-54250000D03*
X160925000Y-54250000D03*
X160925000Y-49750000D03*
D10*
G36*
X147699504Y-136926204D02*
G01*
X147723773Y-136929804D01*
X147747571Y-136935765D01*
X147770671Y-136944030D01*
X147792849Y-136954520D01*
X147813893Y-136967133D01*
X147833598Y-136981747D01*
X147851777Y-136998223D01*
X147868253Y-137016402D01*
X147882867Y-137036107D01*
X147895480Y-137057151D01*
X147905970Y-137079329D01*
X147914235Y-137102429D01*
X147920196Y-137126227D01*
X147923796Y-137150496D01*
X147925000Y-137175000D01*
X147925000Y-138425000D01*
X147923796Y-138449504D01*
X147920196Y-138473773D01*
X147914235Y-138497571D01*
X147905970Y-138520671D01*
X147895480Y-138542849D01*
X147882867Y-138563893D01*
X147868253Y-138583598D01*
X147851777Y-138601777D01*
X147833598Y-138618253D01*
X147813893Y-138632867D01*
X147792849Y-138645480D01*
X147770671Y-138655970D01*
X147747571Y-138664235D01*
X147723773Y-138670196D01*
X147699504Y-138673796D01*
X147675000Y-138675000D01*
X146925000Y-138675000D01*
X146900496Y-138673796D01*
X146876227Y-138670196D01*
X146852429Y-138664235D01*
X146829329Y-138655970D01*
X146807151Y-138645480D01*
X146786107Y-138632867D01*
X146766402Y-138618253D01*
X146748223Y-138601777D01*
X146731747Y-138583598D01*
X146717133Y-138563893D01*
X146704520Y-138542849D01*
X146694030Y-138520671D01*
X146685765Y-138497571D01*
X146679804Y-138473773D01*
X146676204Y-138449504D01*
X146675000Y-138425000D01*
X146675000Y-137175000D01*
X146676204Y-137150496D01*
X146679804Y-137126227D01*
X146685765Y-137102429D01*
X146694030Y-137079329D01*
X146704520Y-137057151D01*
X146717133Y-137036107D01*
X146731747Y-137016402D01*
X146748223Y-136998223D01*
X146766402Y-136981747D01*
X146786107Y-136967133D01*
X146807151Y-136954520D01*
X146829329Y-136944030D01*
X146852429Y-136935765D01*
X146876227Y-136929804D01*
X146900496Y-136926204D01*
X146925000Y-136925000D01*
X147675000Y-136925000D01*
X147699504Y-136926204D01*
X147699504Y-136926204D01*
G37*
D15*
X147300000Y-137800000D03*
D10*
G36*
X144899504Y-136926204D02*
G01*
X144923773Y-136929804D01*
X144947571Y-136935765D01*
X144970671Y-136944030D01*
X144992849Y-136954520D01*
X145013893Y-136967133D01*
X145033598Y-136981747D01*
X145051777Y-136998223D01*
X145068253Y-137016402D01*
X145082867Y-137036107D01*
X145095480Y-137057151D01*
X145105970Y-137079329D01*
X145114235Y-137102429D01*
X145120196Y-137126227D01*
X145123796Y-137150496D01*
X145125000Y-137175000D01*
X145125000Y-138425000D01*
X145123796Y-138449504D01*
X145120196Y-138473773D01*
X145114235Y-138497571D01*
X145105970Y-138520671D01*
X145095480Y-138542849D01*
X145082867Y-138563893D01*
X145068253Y-138583598D01*
X145051777Y-138601777D01*
X145033598Y-138618253D01*
X145013893Y-138632867D01*
X144992849Y-138645480D01*
X144970671Y-138655970D01*
X144947571Y-138664235D01*
X144923773Y-138670196D01*
X144899504Y-138673796D01*
X144875000Y-138675000D01*
X144125000Y-138675000D01*
X144100496Y-138673796D01*
X144076227Y-138670196D01*
X144052429Y-138664235D01*
X144029329Y-138655970D01*
X144007151Y-138645480D01*
X143986107Y-138632867D01*
X143966402Y-138618253D01*
X143948223Y-138601777D01*
X143931747Y-138583598D01*
X143917133Y-138563893D01*
X143904520Y-138542849D01*
X143894030Y-138520671D01*
X143885765Y-138497571D01*
X143879804Y-138473773D01*
X143876204Y-138449504D01*
X143875000Y-138425000D01*
X143875000Y-137175000D01*
X143876204Y-137150496D01*
X143879804Y-137126227D01*
X143885765Y-137102429D01*
X143894030Y-137079329D01*
X143904520Y-137057151D01*
X143917133Y-137036107D01*
X143931747Y-137016402D01*
X143948223Y-136998223D01*
X143966402Y-136981747D01*
X143986107Y-136967133D01*
X144007151Y-136954520D01*
X144029329Y-136944030D01*
X144052429Y-136935765D01*
X144076227Y-136929804D01*
X144100496Y-136926204D01*
X144125000Y-136925000D01*
X144875000Y-136925000D01*
X144899504Y-136926204D01*
X144899504Y-136926204D01*
G37*
D15*
X144500000Y-137800000D03*
D10*
G36*
X164849504Y-68909924D02*
G01*
X164873773Y-68913524D01*
X164897571Y-68919485D01*
X164920671Y-68927750D01*
X164942849Y-68938240D01*
X164963893Y-68950853D01*
X164983598Y-68965467D01*
X165001777Y-68981943D01*
X165018253Y-69000122D01*
X165032867Y-69019827D01*
X165045480Y-69040871D01*
X165055970Y-69063049D01*
X165064235Y-69086149D01*
X165070196Y-69109947D01*
X165073796Y-69134216D01*
X165075000Y-69158720D01*
X165075000Y-69908720D01*
X165073796Y-69933224D01*
X165070196Y-69957493D01*
X165064235Y-69981291D01*
X165055970Y-70004391D01*
X165045480Y-70026569D01*
X165032867Y-70047613D01*
X165018253Y-70067318D01*
X165001777Y-70085497D01*
X164983598Y-70101973D01*
X164963893Y-70116587D01*
X164942849Y-70129200D01*
X164920671Y-70139690D01*
X164897571Y-70147955D01*
X164873773Y-70153916D01*
X164849504Y-70157516D01*
X164825000Y-70158720D01*
X163575000Y-70158720D01*
X163550496Y-70157516D01*
X163526227Y-70153916D01*
X163502429Y-70147955D01*
X163479329Y-70139690D01*
X163457151Y-70129200D01*
X163436107Y-70116587D01*
X163416402Y-70101973D01*
X163398223Y-70085497D01*
X163381747Y-70067318D01*
X163367133Y-70047613D01*
X163354520Y-70026569D01*
X163344030Y-70004391D01*
X163335765Y-69981291D01*
X163329804Y-69957493D01*
X163326204Y-69933224D01*
X163325000Y-69908720D01*
X163325000Y-69158720D01*
X163326204Y-69134216D01*
X163329804Y-69109947D01*
X163335765Y-69086149D01*
X163344030Y-69063049D01*
X163354520Y-69040871D01*
X163367133Y-69019827D01*
X163381747Y-69000122D01*
X163398223Y-68981943D01*
X163416402Y-68965467D01*
X163436107Y-68950853D01*
X163457151Y-68938240D01*
X163479329Y-68927750D01*
X163502429Y-68919485D01*
X163526227Y-68913524D01*
X163550496Y-68909924D01*
X163575000Y-68908720D01*
X164825000Y-68908720D01*
X164849504Y-68909924D01*
X164849504Y-68909924D01*
G37*
D15*
X164200000Y-69533720D03*
D10*
G36*
X164849504Y-71709924D02*
G01*
X164873773Y-71713524D01*
X164897571Y-71719485D01*
X164920671Y-71727750D01*
X164942849Y-71738240D01*
X164963893Y-71750853D01*
X164983598Y-71765467D01*
X165001777Y-71781943D01*
X165018253Y-71800122D01*
X165032867Y-71819827D01*
X165045480Y-71840871D01*
X165055970Y-71863049D01*
X165064235Y-71886149D01*
X165070196Y-71909947D01*
X165073796Y-71934216D01*
X165075000Y-71958720D01*
X165075000Y-72708720D01*
X165073796Y-72733224D01*
X165070196Y-72757493D01*
X165064235Y-72781291D01*
X165055970Y-72804391D01*
X165045480Y-72826569D01*
X165032867Y-72847613D01*
X165018253Y-72867318D01*
X165001777Y-72885497D01*
X164983598Y-72901973D01*
X164963893Y-72916587D01*
X164942849Y-72929200D01*
X164920671Y-72939690D01*
X164897571Y-72947955D01*
X164873773Y-72953916D01*
X164849504Y-72957516D01*
X164825000Y-72958720D01*
X163575000Y-72958720D01*
X163550496Y-72957516D01*
X163526227Y-72953916D01*
X163502429Y-72947955D01*
X163479329Y-72939690D01*
X163457151Y-72929200D01*
X163436107Y-72916587D01*
X163416402Y-72901973D01*
X163398223Y-72885497D01*
X163381747Y-72867318D01*
X163367133Y-72847613D01*
X163354520Y-72826569D01*
X163344030Y-72804391D01*
X163335765Y-72781291D01*
X163329804Y-72757493D01*
X163326204Y-72733224D01*
X163325000Y-72708720D01*
X163325000Y-71958720D01*
X163326204Y-71934216D01*
X163329804Y-71909947D01*
X163335765Y-71886149D01*
X163344030Y-71863049D01*
X163354520Y-71840871D01*
X163367133Y-71819827D01*
X163381747Y-71800122D01*
X163398223Y-71781943D01*
X163416402Y-71765467D01*
X163436107Y-71750853D01*
X163457151Y-71738240D01*
X163479329Y-71727750D01*
X163502429Y-71719485D01*
X163526227Y-71713524D01*
X163550496Y-71709924D01*
X163575000Y-71708720D01*
X164825000Y-71708720D01*
X164849504Y-71709924D01*
X164849504Y-71709924D01*
G37*
D15*
X164200000Y-72333720D03*
D10*
G36*
X165952744Y-57214384D02*
G01*
X165977013Y-57217984D01*
X166000811Y-57223945D01*
X166023911Y-57232210D01*
X166046089Y-57242700D01*
X166067133Y-57255313D01*
X166086838Y-57269927D01*
X166105017Y-57286403D01*
X166121493Y-57304582D01*
X166136107Y-57324287D01*
X166148720Y-57345331D01*
X166159210Y-57367509D01*
X166167475Y-57390609D01*
X166173436Y-57414407D01*
X166177036Y-57438676D01*
X166178240Y-57463180D01*
X166178240Y-58713180D01*
X166177036Y-58737684D01*
X166173436Y-58761953D01*
X166167475Y-58785751D01*
X166159210Y-58808851D01*
X166148720Y-58831029D01*
X166136107Y-58852073D01*
X166121493Y-58871778D01*
X166105017Y-58889957D01*
X166086838Y-58906433D01*
X166067133Y-58921047D01*
X166046089Y-58933660D01*
X166023911Y-58944150D01*
X166000811Y-58952415D01*
X165977013Y-58958376D01*
X165952744Y-58961976D01*
X165928240Y-58963180D01*
X165178240Y-58963180D01*
X165153736Y-58961976D01*
X165129467Y-58958376D01*
X165105669Y-58952415D01*
X165082569Y-58944150D01*
X165060391Y-58933660D01*
X165039347Y-58921047D01*
X165019642Y-58906433D01*
X165001463Y-58889957D01*
X164984987Y-58871778D01*
X164970373Y-58852073D01*
X164957760Y-58831029D01*
X164947270Y-58808851D01*
X164939005Y-58785751D01*
X164933044Y-58761953D01*
X164929444Y-58737684D01*
X164928240Y-58713180D01*
X164928240Y-57463180D01*
X164929444Y-57438676D01*
X164933044Y-57414407D01*
X164939005Y-57390609D01*
X164947270Y-57367509D01*
X164957760Y-57345331D01*
X164970373Y-57324287D01*
X164984987Y-57304582D01*
X165001463Y-57286403D01*
X165019642Y-57269927D01*
X165039347Y-57255313D01*
X165060391Y-57242700D01*
X165082569Y-57232210D01*
X165105669Y-57223945D01*
X165129467Y-57217984D01*
X165153736Y-57214384D01*
X165178240Y-57213180D01*
X165928240Y-57213180D01*
X165952744Y-57214384D01*
X165952744Y-57214384D01*
G37*
D15*
X165553240Y-58088180D03*
D10*
G36*
X163152744Y-57214384D02*
G01*
X163177013Y-57217984D01*
X163200811Y-57223945D01*
X163223911Y-57232210D01*
X163246089Y-57242700D01*
X163267133Y-57255313D01*
X163286838Y-57269927D01*
X163305017Y-57286403D01*
X163321493Y-57304582D01*
X163336107Y-57324287D01*
X163348720Y-57345331D01*
X163359210Y-57367509D01*
X163367475Y-57390609D01*
X163373436Y-57414407D01*
X163377036Y-57438676D01*
X163378240Y-57463180D01*
X163378240Y-58713180D01*
X163377036Y-58737684D01*
X163373436Y-58761953D01*
X163367475Y-58785751D01*
X163359210Y-58808851D01*
X163348720Y-58831029D01*
X163336107Y-58852073D01*
X163321493Y-58871778D01*
X163305017Y-58889957D01*
X163286838Y-58906433D01*
X163267133Y-58921047D01*
X163246089Y-58933660D01*
X163223911Y-58944150D01*
X163200811Y-58952415D01*
X163177013Y-58958376D01*
X163152744Y-58961976D01*
X163128240Y-58963180D01*
X162378240Y-58963180D01*
X162353736Y-58961976D01*
X162329467Y-58958376D01*
X162305669Y-58952415D01*
X162282569Y-58944150D01*
X162260391Y-58933660D01*
X162239347Y-58921047D01*
X162219642Y-58906433D01*
X162201463Y-58889957D01*
X162184987Y-58871778D01*
X162170373Y-58852073D01*
X162157760Y-58831029D01*
X162147270Y-58808851D01*
X162139005Y-58785751D01*
X162133044Y-58761953D01*
X162129444Y-58737684D01*
X162128240Y-58713180D01*
X162128240Y-57463180D01*
X162129444Y-57438676D01*
X162133044Y-57414407D01*
X162139005Y-57390609D01*
X162147270Y-57367509D01*
X162157760Y-57345331D01*
X162170373Y-57324287D01*
X162184987Y-57304582D01*
X162201463Y-57286403D01*
X162219642Y-57269927D01*
X162239347Y-57255313D01*
X162260391Y-57242700D01*
X162282569Y-57232210D01*
X162305669Y-57223945D01*
X162329467Y-57217984D01*
X162353736Y-57214384D01*
X162378240Y-57213180D01*
X163128240Y-57213180D01*
X163152744Y-57214384D01*
X163152744Y-57214384D01*
G37*
D15*
X162753240Y-58088180D03*
D10*
G36*
X163320384Y-61087884D02*
G01*
X163344653Y-61091484D01*
X163368451Y-61097445D01*
X163391551Y-61105710D01*
X163413729Y-61116200D01*
X163434773Y-61128813D01*
X163454478Y-61143427D01*
X163472657Y-61159903D01*
X163489133Y-61178082D01*
X163503747Y-61197787D01*
X163516360Y-61218831D01*
X163526850Y-61241009D01*
X163535115Y-61264109D01*
X163541076Y-61287907D01*
X163544676Y-61312176D01*
X163545880Y-61336680D01*
X163545880Y-62586680D01*
X163544676Y-62611184D01*
X163541076Y-62635453D01*
X163535115Y-62659251D01*
X163526850Y-62682351D01*
X163516360Y-62704529D01*
X163503747Y-62725573D01*
X163489133Y-62745278D01*
X163472657Y-62763457D01*
X163454478Y-62779933D01*
X163434773Y-62794547D01*
X163413729Y-62807160D01*
X163391551Y-62817650D01*
X163368451Y-62825915D01*
X163344653Y-62831876D01*
X163320384Y-62835476D01*
X163295880Y-62836680D01*
X162545880Y-62836680D01*
X162521376Y-62835476D01*
X162497107Y-62831876D01*
X162473309Y-62825915D01*
X162450209Y-62817650D01*
X162428031Y-62807160D01*
X162406987Y-62794547D01*
X162387282Y-62779933D01*
X162369103Y-62763457D01*
X162352627Y-62745278D01*
X162338013Y-62725573D01*
X162325400Y-62704529D01*
X162314910Y-62682351D01*
X162306645Y-62659251D01*
X162300684Y-62635453D01*
X162297084Y-62611184D01*
X162295880Y-62586680D01*
X162295880Y-61336680D01*
X162297084Y-61312176D01*
X162300684Y-61287907D01*
X162306645Y-61264109D01*
X162314910Y-61241009D01*
X162325400Y-61218831D01*
X162338013Y-61197787D01*
X162352627Y-61178082D01*
X162369103Y-61159903D01*
X162387282Y-61143427D01*
X162406987Y-61128813D01*
X162428031Y-61116200D01*
X162450209Y-61105710D01*
X162473309Y-61097445D01*
X162497107Y-61091484D01*
X162521376Y-61087884D01*
X162545880Y-61086680D01*
X163295880Y-61086680D01*
X163320384Y-61087884D01*
X163320384Y-61087884D01*
G37*
D15*
X162920880Y-61961680D03*
D10*
G36*
X166120384Y-61087884D02*
G01*
X166144653Y-61091484D01*
X166168451Y-61097445D01*
X166191551Y-61105710D01*
X166213729Y-61116200D01*
X166234773Y-61128813D01*
X166254478Y-61143427D01*
X166272657Y-61159903D01*
X166289133Y-61178082D01*
X166303747Y-61197787D01*
X166316360Y-61218831D01*
X166326850Y-61241009D01*
X166335115Y-61264109D01*
X166341076Y-61287907D01*
X166344676Y-61312176D01*
X166345880Y-61336680D01*
X166345880Y-62586680D01*
X166344676Y-62611184D01*
X166341076Y-62635453D01*
X166335115Y-62659251D01*
X166326850Y-62682351D01*
X166316360Y-62704529D01*
X166303747Y-62725573D01*
X166289133Y-62745278D01*
X166272657Y-62763457D01*
X166254478Y-62779933D01*
X166234773Y-62794547D01*
X166213729Y-62807160D01*
X166191551Y-62817650D01*
X166168451Y-62825915D01*
X166144653Y-62831876D01*
X166120384Y-62835476D01*
X166095880Y-62836680D01*
X165345880Y-62836680D01*
X165321376Y-62835476D01*
X165297107Y-62831876D01*
X165273309Y-62825915D01*
X165250209Y-62817650D01*
X165228031Y-62807160D01*
X165206987Y-62794547D01*
X165187282Y-62779933D01*
X165169103Y-62763457D01*
X165152627Y-62745278D01*
X165138013Y-62725573D01*
X165125400Y-62704529D01*
X165114910Y-62682351D01*
X165106645Y-62659251D01*
X165100684Y-62635453D01*
X165097084Y-62611184D01*
X165095880Y-62586680D01*
X165095880Y-61336680D01*
X165097084Y-61312176D01*
X165100684Y-61287907D01*
X165106645Y-61264109D01*
X165114910Y-61241009D01*
X165125400Y-61218831D01*
X165138013Y-61197787D01*
X165152627Y-61178082D01*
X165169103Y-61159903D01*
X165187282Y-61143427D01*
X165206987Y-61128813D01*
X165228031Y-61116200D01*
X165250209Y-61105710D01*
X165273309Y-61097445D01*
X165297107Y-61091484D01*
X165321376Y-61087884D01*
X165345880Y-61086680D01*
X166095880Y-61086680D01*
X166120384Y-61087884D01*
X166120384Y-61087884D01*
G37*
D15*
X165720880Y-61961680D03*
D10*
G36*
X125399504Y-62826204D02*
G01*
X125423773Y-62829804D01*
X125447571Y-62835765D01*
X125470671Y-62844030D01*
X125492849Y-62854520D01*
X125513893Y-62867133D01*
X125533598Y-62881747D01*
X125551777Y-62898223D01*
X125568253Y-62916402D01*
X125582867Y-62936107D01*
X125595480Y-62957151D01*
X125605970Y-62979329D01*
X125614235Y-63002429D01*
X125620196Y-63026227D01*
X125623796Y-63050496D01*
X125625000Y-63075000D01*
X125625000Y-64325000D01*
X125623796Y-64349504D01*
X125620196Y-64373773D01*
X125614235Y-64397571D01*
X125605970Y-64420671D01*
X125595480Y-64442849D01*
X125582867Y-64463893D01*
X125568253Y-64483598D01*
X125551777Y-64501777D01*
X125533598Y-64518253D01*
X125513893Y-64532867D01*
X125492849Y-64545480D01*
X125470671Y-64555970D01*
X125447571Y-64564235D01*
X125423773Y-64570196D01*
X125399504Y-64573796D01*
X125375000Y-64575000D01*
X124625000Y-64575000D01*
X124600496Y-64573796D01*
X124576227Y-64570196D01*
X124552429Y-64564235D01*
X124529329Y-64555970D01*
X124507151Y-64545480D01*
X124486107Y-64532867D01*
X124466402Y-64518253D01*
X124448223Y-64501777D01*
X124431747Y-64483598D01*
X124417133Y-64463893D01*
X124404520Y-64442849D01*
X124394030Y-64420671D01*
X124385765Y-64397571D01*
X124379804Y-64373773D01*
X124376204Y-64349504D01*
X124375000Y-64325000D01*
X124375000Y-63075000D01*
X124376204Y-63050496D01*
X124379804Y-63026227D01*
X124385765Y-63002429D01*
X124394030Y-62979329D01*
X124404520Y-62957151D01*
X124417133Y-62936107D01*
X124431747Y-62916402D01*
X124448223Y-62898223D01*
X124466402Y-62881747D01*
X124486107Y-62867133D01*
X124507151Y-62854520D01*
X124529329Y-62844030D01*
X124552429Y-62835765D01*
X124576227Y-62829804D01*
X124600496Y-62826204D01*
X124625000Y-62825000D01*
X125375000Y-62825000D01*
X125399504Y-62826204D01*
X125399504Y-62826204D01*
G37*
D15*
X125000000Y-63700000D03*
D10*
G36*
X128199504Y-62826204D02*
G01*
X128223773Y-62829804D01*
X128247571Y-62835765D01*
X128270671Y-62844030D01*
X128292849Y-62854520D01*
X128313893Y-62867133D01*
X128333598Y-62881747D01*
X128351777Y-62898223D01*
X128368253Y-62916402D01*
X128382867Y-62936107D01*
X128395480Y-62957151D01*
X128405970Y-62979329D01*
X128414235Y-63002429D01*
X128420196Y-63026227D01*
X128423796Y-63050496D01*
X128425000Y-63075000D01*
X128425000Y-64325000D01*
X128423796Y-64349504D01*
X128420196Y-64373773D01*
X128414235Y-64397571D01*
X128405970Y-64420671D01*
X128395480Y-64442849D01*
X128382867Y-64463893D01*
X128368253Y-64483598D01*
X128351777Y-64501777D01*
X128333598Y-64518253D01*
X128313893Y-64532867D01*
X128292849Y-64545480D01*
X128270671Y-64555970D01*
X128247571Y-64564235D01*
X128223773Y-64570196D01*
X128199504Y-64573796D01*
X128175000Y-64575000D01*
X127425000Y-64575000D01*
X127400496Y-64573796D01*
X127376227Y-64570196D01*
X127352429Y-64564235D01*
X127329329Y-64555970D01*
X127307151Y-64545480D01*
X127286107Y-64532867D01*
X127266402Y-64518253D01*
X127248223Y-64501777D01*
X127231747Y-64483598D01*
X127217133Y-64463893D01*
X127204520Y-64442849D01*
X127194030Y-64420671D01*
X127185765Y-64397571D01*
X127179804Y-64373773D01*
X127176204Y-64349504D01*
X127175000Y-64325000D01*
X127175000Y-63075000D01*
X127176204Y-63050496D01*
X127179804Y-63026227D01*
X127185765Y-63002429D01*
X127194030Y-62979329D01*
X127204520Y-62957151D01*
X127217133Y-62936107D01*
X127231747Y-62916402D01*
X127248223Y-62898223D01*
X127266402Y-62881747D01*
X127286107Y-62867133D01*
X127307151Y-62854520D01*
X127329329Y-62844030D01*
X127352429Y-62835765D01*
X127376227Y-62829804D01*
X127400496Y-62826204D01*
X127425000Y-62825000D01*
X128175000Y-62825000D01*
X128199504Y-62826204D01*
X128199504Y-62826204D01*
G37*
D15*
X127800000Y-63700000D03*
D10*
G36*
X135356144Y-66501304D02*
G01*
X135380413Y-66504904D01*
X135404211Y-66510865D01*
X135427311Y-66519130D01*
X135449489Y-66529620D01*
X135470533Y-66542233D01*
X135490238Y-66556847D01*
X135508417Y-66573323D01*
X135524893Y-66591502D01*
X135539507Y-66611207D01*
X135552120Y-66632251D01*
X135562610Y-66654429D01*
X135570875Y-66677529D01*
X135576836Y-66701327D01*
X135580436Y-66725596D01*
X135581640Y-66750100D01*
X135581640Y-68000100D01*
X135580436Y-68024604D01*
X135576836Y-68048873D01*
X135570875Y-68072671D01*
X135562610Y-68095771D01*
X135552120Y-68117949D01*
X135539507Y-68138993D01*
X135524893Y-68158698D01*
X135508417Y-68176877D01*
X135490238Y-68193353D01*
X135470533Y-68207967D01*
X135449489Y-68220580D01*
X135427311Y-68231070D01*
X135404211Y-68239335D01*
X135380413Y-68245296D01*
X135356144Y-68248896D01*
X135331640Y-68250100D01*
X134581640Y-68250100D01*
X134557136Y-68248896D01*
X134532867Y-68245296D01*
X134509069Y-68239335D01*
X134485969Y-68231070D01*
X134463791Y-68220580D01*
X134442747Y-68207967D01*
X134423042Y-68193353D01*
X134404863Y-68176877D01*
X134388387Y-68158698D01*
X134373773Y-68138993D01*
X134361160Y-68117949D01*
X134350670Y-68095771D01*
X134342405Y-68072671D01*
X134336444Y-68048873D01*
X134332844Y-68024604D01*
X134331640Y-68000100D01*
X134331640Y-66750100D01*
X134332844Y-66725596D01*
X134336444Y-66701327D01*
X134342405Y-66677529D01*
X134350670Y-66654429D01*
X134361160Y-66632251D01*
X134373773Y-66611207D01*
X134388387Y-66591502D01*
X134404863Y-66573323D01*
X134423042Y-66556847D01*
X134442747Y-66542233D01*
X134463791Y-66529620D01*
X134485969Y-66519130D01*
X134509069Y-66510865D01*
X134532867Y-66504904D01*
X134557136Y-66501304D01*
X134581640Y-66500100D01*
X135331640Y-66500100D01*
X135356144Y-66501304D01*
X135356144Y-66501304D01*
G37*
D15*
X134956640Y-67375100D03*
D10*
G36*
X138156144Y-66501304D02*
G01*
X138180413Y-66504904D01*
X138204211Y-66510865D01*
X138227311Y-66519130D01*
X138249489Y-66529620D01*
X138270533Y-66542233D01*
X138290238Y-66556847D01*
X138308417Y-66573323D01*
X138324893Y-66591502D01*
X138339507Y-66611207D01*
X138352120Y-66632251D01*
X138362610Y-66654429D01*
X138370875Y-66677529D01*
X138376836Y-66701327D01*
X138380436Y-66725596D01*
X138381640Y-66750100D01*
X138381640Y-68000100D01*
X138380436Y-68024604D01*
X138376836Y-68048873D01*
X138370875Y-68072671D01*
X138362610Y-68095771D01*
X138352120Y-68117949D01*
X138339507Y-68138993D01*
X138324893Y-68158698D01*
X138308417Y-68176877D01*
X138290238Y-68193353D01*
X138270533Y-68207967D01*
X138249489Y-68220580D01*
X138227311Y-68231070D01*
X138204211Y-68239335D01*
X138180413Y-68245296D01*
X138156144Y-68248896D01*
X138131640Y-68250100D01*
X137381640Y-68250100D01*
X137357136Y-68248896D01*
X137332867Y-68245296D01*
X137309069Y-68239335D01*
X137285969Y-68231070D01*
X137263791Y-68220580D01*
X137242747Y-68207967D01*
X137223042Y-68193353D01*
X137204863Y-68176877D01*
X137188387Y-68158698D01*
X137173773Y-68138993D01*
X137161160Y-68117949D01*
X137150670Y-68095771D01*
X137142405Y-68072671D01*
X137136444Y-68048873D01*
X137132844Y-68024604D01*
X137131640Y-68000100D01*
X137131640Y-66750100D01*
X137132844Y-66725596D01*
X137136444Y-66701327D01*
X137142405Y-66677529D01*
X137150670Y-66654429D01*
X137161160Y-66632251D01*
X137173773Y-66611207D01*
X137188387Y-66591502D01*
X137204863Y-66573323D01*
X137223042Y-66556847D01*
X137242747Y-66542233D01*
X137263791Y-66529620D01*
X137285969Y-66519130D01*
X137309069Y-66510865D01*
X137332867Y-66504904D01*
X137357136Y-66501304D01*
X137381640Y-66500100D01*
X138131640Y-66500100D01*
X138156144Y-66501304D01*
X138156144Y-66501304D01*
G37*
D15*
X137756640Y-67375100D03*
D10*
G36*
X161749504Y-68955184D02*
G01*
X161773773Y-68958784D01*
X161797571Y-68964745D01*
X161820671Y-68973010D01*
X161842849Y-68983500D01*
X161863893Y-68996113D01*
X161883598Y-69010727D01*
X161901777Y-69027203D01*
X161918253Y-69045382D01*
X161932867Y-69065087D01*
X161945480Y-69086131D01*
X161955970Y-69108309D01*
X161964235Y-69131409D01*
X161970196Y-69155207D01*
X161973796Y-69179476D01*
X161975000Y-69203980D01*
X161975000Y-69953980D01*
X161973796Y-69978484D01*
X161970196Y-70002753D01*
X161964235Y-70026551D01*
X161955970Y-70049651D01*
X161945480Y-70071829D01*
X161932867Y-70092873D01*
X161918253Y-70112578D01*
X161901777Y-70130757D01*
X161883598Y-70147233D01*
X161863893Y-70161847D01*
X161842849Y-70174460D01*
X161820671Y-70184950D01*
X161797571Y-70193215D01*
X161773773Y-70199176D01*
X161749504Y-70202776D01*
X161725000Y-70203980D01*
X160475000Y-70203980D01*
X160450496Y-70202776D01*
X160426227Y-70199176D01*
X160402429Y-70193215D01*
X160379329Y-70184950D01*
X160357151Y-70174460D01*
X160336107Y-70161847D01*
X160316402Y-70147233D01*
X160298223Y-70130757D01*
X160281747Y-70112578D01*
X160267133Y-70092873D01*
X160254520Y-70071829D01*
X160244030Y-70049651D01*
X160235765Y-70026551D01*
X160229804Y-70002753D01*
X160226204Y-69978484D01*
X160225000Y-69953980D01*
X160225000Y-69203980D01*
X160226204Y-69179476D01*
X160229804Y-69155207D01*
X160235765Y-69131409D01*
X160244030Y-69108309D01*
X160254520Y-69086131D01*
X160267133Y-69065087D01*
X160281747Y-69045382D01*
X160298223Y-69027203D01*
X160316402Y-69010727D01*
X160336107Y-68996113D01*
X160357151Y-68983500D01*
X160379329Y-68973010D01*
X160402429Y-68964745D01*
X160426227Y-68958784D01*
X160450496Y-68955184D01*
X160475000Y-68953980D01*
X161725000Y-68953980D01*
X161749504Y-68955184D01*
X161749504Y-68955184D01*
G37*
D15*
X161100000Y-69578980D03*
D10*
G36*
X161749504Y-71755184D02*
G01*
X161773773Y-71758784D01*
X161797571Y-71764745D01*
X161820671Y-71773010D01*
X161842849Y-71783500D01*
X161863893Y-71796113D01*
X161883598Y-71810727D01*
X161901777Y-71827203D01*
X161918253Y-71845382D01*
X161932867Y-71865087D01*
X161945480Y-71886131D01*
X161955970Y-71908309D01*
X161964235Y-71931409D01*
X161970196Y-71955207D01*
X161973796Y-71979476D01*
X161975000Y-72003980D01*
X161975000Y-72753980D01*
X161973796Y-72778484D01*
X161970196Y-72802753D01*
X161964235Y-72826551D01*
X161955970Y-72849651D01*
X161945480Y-72871829D01*
X161932867Y-72892873D01*
X161918253Y-72912578D01*
X161901777Y-72930757D01*
X161883598Y-72947233D01*
X161863893Y-72961847D01*
X161842849Y-72974460D01*
X161820671Y-72984950D01*
X161797571Y-72993215D01*
X161773773Y-72999176D01*
X161749504Y-73002776D01*
X161725000Y-73003980D01*
X160475000Y-73003980D01*
X160450496Y-73002776D01*
X160426227Y-72999176D01*
X160402429Y-72993215D01*
X160379329Y-72984950D01*
X160357151Y-72974460D01*
X160336107Y-72961847D01*
X160316402Y-72947233D01*
X160298223Y-72930757D01*
X160281747Y-72912578D01*
X160267133Y-72892873D01*
X160254520Y-72871829D01*
X160244030Y-72849651D01*
X160235765Y-72826551D01*
X160229804Y-72802753D01*
X160226204Y-72778484D01*
X160225000Y-72753980D01*
X160225000Y-72003980D01*
X160226204Y-71979476D01*
X160229804Y-71955207D01*
X160235765Y-71931409D01*
X160244030Y-71908309D01*
X160254520Y-71886131D01*
X160267133Y-71865087D01*
X160281747Y-71845382D01*
X160298223Y-71827203D01*
X160316402Y-71810727D01*
X160336107Y-71796113D01*
X160357151Y-71783500D01*
X160379329Y-71773010D01*
X160402429Y-71764745D01*
X160426227Y-71758784D01*
X160450496Y-71755184D01*
X160475000Y-71753980D01*
X161725000Y-71753980D01*
X161749504Y-71755184D01*
X161749504Y-71755184D01*
G37*
D15*
X161100000Y-72378980D03*
D25*
X169019500Y-132042600D03*
D26*
X166319500Y-128542600D03*
D27*
X166319500Y-130392600D03*
X166319500Y-129742600D03*
X166319500Y-132342600D03*
X166319500Y-131692600D03*
X166319500Y-131042600D03*
D26*
X166319500Y-133542600D03*
D25*
X169019500Y-130042600D03*
D28*
X169019500Y-127542600D03*
X169019500Y-134542600D03*
D29*
X169019500Y-133942600D03*
X169019500Y-128142600D03*
D10*
G36*
X153120603Y-130886322D02*
G01*
X153135164Y-130888482D01*
X153149443Y-130892059D01*
X153163303Y-130897018D01*
X153176610Y-130903312D01*
X153189236Y-130910880D01*
X153201059Y-130919648D01*
X153211966Y-130929534D01*
X153221852Y-130940441D01*
X153230620Y-130952264D01*
X153238188Y-130964890D01*
X153244482Y-130978197D01*
X153249441Y-130992057D01*
X153253018Y-131006336D01*
X153255178Y-131020897D01*
X153255900Y-131035600D01*
X153255900Y-131335600D01*
X153255178Y-131350303D01*
X153253018Y-131364864D01*
X153249441Y-131379143D01*
X153244482Y-131393003D01*
X153238188Y-131406310D01*
X153230620Y-131418936D01*
X153221852Y-131430759D01*
X153211966Y-131441666D01*
X153201059Y-131451552D01*
X153189236Y-131460320D01*
X153176610Y-131467888D01*
X153163303Y-131474182D01*
X153149443Y-131479141D01*
X153135164Y-131482718D01*
X153120603Y-131484878D01*
X153105900Y-131485600D01*
X151455900Y-131485600D01*
X151441197Y-131484878D01*
X151426636Y-131482718D01*
X151412357Y-131479141D01*
X151398497Y-131474182D01*
X151385190Y-131467888D01*
X151372564Y-131460320D01*
X151360741Y-131451552D01*
X151349834Y-131441666D01*
X151339948Y-131430759D01*
X151331180Y-131418936D01*
X151323612Y-131406310D01*
X151317318Y-131393003D01*
X151312359Y-131379143D01*
X151308782Y-131364864D01*
X151306622Y-131350303D01*
X151305900Y-131335600D01*
X151305900Y-131035600D01*
X151306622Y-131020897D01*
X151308782Y-131006336D01*
X151312359Y-130992057D01*
X151317318Y-130978197D01*
X151323612Y-130964890D01*
X151331180Y-130952264D01*
X151339948Y-130940441D01*
X151349834Y-130929534D01*
X151360741Y-130919648D01*
X151372564Y-130910880D01*
X151385190Y-130903312D01*
X151398497Y-130897018D01*
X151412357Y-130892059D01*
X151426636Y-130888482D01*
X151441197Y-130886322D01*
X151455900Y-130885600D01*
X153105900Y-130885600D01*
X153120603Y-130886322D01*
X153120603Y-130886322D01*
G37*
D30*
X152280900Y-131185600D03*
D10*
G36*
X153120603Y-132156322D02*
G01*
X153135164Y-132158482D01*
X153149443Y-132162059D01*
X153163303Y-132167018D01*
X153176610Y-132173312D01*
X153189236Y-132180880D01*
X153201059Y-132189648D01*
X153211966Y-132199534D01*
X153221852Y-132210441D01*
X153230620Y-132222264D01*
X153238188Y-132234890D01*
X153244482Y-132248197D01*
X153249441Y-132262057D01*
X153253018Y-132276336D01*
X153255178Y-132290897D01*
X153255900Y-132305600D01*
X153255900Y-132605600D01*
X153255178Y-132620303D01*
X153253018Y-132634864D01*
X153249441Y-132649143D01*
X153244482Y-132663003D01*
X153238188Y-132676310D01*
X153230620Y-132688936D01*
X153221852Y-132700759D01*
X153211966Y-132711666D01*
X153201059Y-132721552D01*
X153189236Y-132730320D01*
X153176610Y-132737888D01*
X153163303Y-132744182D01*
X153149443Y-132749141D01*
X153135164Y-132752718D01*
X153120603Y-132754878D01*
X153105900Y-132755600D01*
X151455900Y-132755600D01*
X151441197Y-132754878D01*
X151426636Y-132752718D01*
X151412357Y-132749141D01*
X151398497Y-132744182D01*
X151385190Y-132737888D01*
X151372564Y-132730320D01*
X151360741Y-132721552D01*
X151349834Y-132711666D01*
X151339948Y-132700759D01*
X151331180Y-132688936D01*
X151323612Y-132676310D01*
X151317318Y-132663003D01*
X151312359Y-132649143D01*
X151308782Y-132634864D01*
X151306622Y-132620303D01*
X151305900Y-132605600D01*
X151305900Y-132305600D01*
X151306622Y-132290897D01*
X151308782Y-132276336D01*
X151312359Y-132262057D01*
X151317318Y-132248197D01*
X151323612Y-132234890D01*
X151331180Y-132222264D01*
X151339948Y-132210441D01*
X151349834Y-132199534D01*
X151360741Y-132189648D01*
X151372564Y-132180880D01*
X151385190Y-132173312D01*
X151398497Y-132167018D01*
X151412357Y-132162059D01*
X151426636Y-132158482D01*
X151441197Y-132156322D01*
X151455900Y-132155600D01*
X153105900Y-132155600D01*
X153120603Y-132156322D01*
X153120603Y-132156322D01*
G37*
D30*
X152280900Y-132455600D03*
D10*
G36*
X153120603Y-133426322D02*
G01*
X153135164Y-133428482D01*
X153149443Y-133432059D01*
X153163303Y-133437018D01*
X153176610Y-133443312D01*
X153189236Y-133450880D01*
X153201059Y-133459648D01*
X153211966Y-133469534D01*
X153221852Y-133480441D01*
X153230620Y-133492264D01*
X153238188Y-133504890D01*
X153244482Y-133518197D01*
X153249441Y-133532057D01*
X153253018Y-133546336D01*
X153255178Y-133560897D01*
X153255900Y-133575600D01*
X153255900Y-133875600D01*
X153255178Y-133890303D01*
X153253018Y-133904864D01*
X153249441Y-133919143D01*
X153244482Y-133933003D01*
X153238188Y-133946310D01*
X153230620Y-133958936D01*
X153221852Y-133970759D01*
X153211966Y-133981666D01*
X153201059Y-133991552D01*
X153189236Y-134000320D01*
X153176610Y-134007888D01*
X153163303Y-134014182D01*
X153149443Y-134019141D01*
X153135164Y-134022718D01*
X153120603Y-134024878D01*
X153105900Y-134025600D01*
X151455900Y-134025600D01*
X151441197Y-134024878D01*
X151426636Y-134022718D01*
X151412357Y-134019141D01*
X151398497Y-134014182D01*
X151385190Y-134007888D01*
X151372564Y-134000320D01*
X151360741Y-133991552D01*
X151349834Y-133981666D01*
X151339948Y-133970759D01*
X151331180Y-133958936D01*
X151323612Y-133946310D01*
X151317318Y-133933003D01*
X151312359Y-133919143D01*
X151308782Y-133904864D01*
X151306622Y-133890303D01*
X151305900Y-133875600D01*
X151305900Y-133575600D01*
X151306622Y-133560897D01*
X151308782Y-133546336D01*
X151312359Y-133532057D01*
X151317318Y-133518197D01*
X151323612Y-133504890D01*
X151331180Y-133492264D01*
X151339948Y-133480441D01*
X151349834Y-133469534D01*
X151360741Y-133459648D01*
X151372564Y-133450880D01*
X151385190Y-133443312D01*
X151398497Y-133437018D01*
X151412357Y-133432059D01*
X151426636Y-133428482D01*
X151441197Y-133426322D01*
X151455900Y-133425600D01*
X153105900Y-133425600D01*
X153120603Y-133426322D01*
X153120603Y-133426322D01*
G37*
D30*
X152280900Y-133725600D03*
D10*
G36*
X153120603Y-134696322D02*
G01*
X153135164Y-134698482D01*
X153149443Y-134702059D01*
X153163303Y-134707018D01*
X153176610Y-134713312D01*
X153189236Y-134720880D01*
X153201059Y-134729648D01*
X153211966Y-134739534D01*
X153221852Y-134750441D01*
X153230620Y-134762264D01*
X153238188Y-134774890D01*
X153244482Y-134788197D01*
X153249441Y-134802057D01*
X153253018Y-134816336D01*
X153255178Y-134830897D01*
X153255900Y-134845600D01*
X153255900Y-135145600D01*
X153255178Y-135160303D01*
X153253018Y-135174864D01*
X153249441Y-135189143D01*
X153244482Y-135203003D01*
X153238188Y-135216310D01*
X153230620Y-135228936D01*
X153221852Y-135240759D01*
X153211966Y-135251666D01*
X153201059Y-135261552D01*
X153189236Y-135270320D01*
X153176610Y-135277888D01*
X153163303Y-135284182D01*
X153149443Y-135289141D01*
X153135164Y-135292718D01*
X153120603Y-135294878D01*
X153105900Y-135295600D01*
X151455900Y-135295600D01*
X151441197Y-135294878D01*
X151426636Y-135292718D01*
X151412357Y-135289141D01*
X151398497Y-135284182D01*
X151385190Y-135277888D01*
X151372564Y-135270320D01*
X151360741Y-135261552D01*
X151349834Y-135251666D01*
X151339948Y-135240759D01*
X151331180Y-135228936D01*
X151323612Y-135216310D01*
X151317318Y-135203003D01*
X151312359Y-135189143D01*
X151308782Y-135174864D01*
X151306622Y-135160303D01*
X151305900Y-135145600D01*
X151305900Y-134845600D01*
X151306622Y-134830897D01*
X151308782Y-134816336D01*
X151312359Y-134802057D01*
X151317318Y-134788197D01*
X151323612Y-134774890D01*
X151331180Y-134762264D01*
X151339948Y-134750441D01*
X151349834Y-134739534D01*
X151360741Y-134729648D01*
X151372564Y-134720880D01*
X151385190Y-134713312D01*
X151398497Y-134707018D01*
X151412357Y-134702059D01*
X151426636Y-134698482D01*
X151441197Y-134696322D01*
X151455900Y-134695600D01*
X153105900Y-134695600D01*
X153120603Y-134696322D01*
X153120603Y-134696322D01*
G37*
D30*
X152280900Y-134995600D03*
D10*
G36*
X148170603Y-134696322D02*
G01*
X148185164Y-134698482D01*
X148199443Y-134702059D01*
X148213303Y-134707018D01*
X148226610Y-134713312D01*
X148239236Y-134720880D01*
X148251059Y-134729648D01*
X148261966Y-134739534D01*
X148271852Y-134750441D01*
X148280620Y-134762264D01*
X148288188Y-134774890D01*
X148294482Y-134788197D01*
X148299441Y-134802057D01*
X148303018Y-134816336D01*
X148305178Y-134830897D01*
X148305900Y-134845600D01*
X148305900Y-135145600D01*
X148305178Y-135160303D01*
X148303018Y-135174864D01*
X148299441Y-135189143D01*
X148294482Y-135203003D01*
X148288188Y-135216310D01*
X148280620Y-135228936D01*
X148271852Y-135240759D01*
X148261966Y-135251666D01*
X148251059Y-135261552D01*
X148239236Y-135270320D01*
X148226610Y-135277888D01*
X148213303Y-135284182D01*
X148199443Y-135289141D01*
X148185164Y-135292718D01*
X148170603Y-135294878D01*
X148155900Y-135295600D01*
X146505900Y-135295600D01*
X146491197Y-135294878D01*
X146476636Y-135292718D01*
X146462357Y-135289141D01*
X146448497Y-135284182D01*
X146435190Y-135277888D01*
X146422564Y-135270320D01*
X146410741Y-135261552D01*
X146399834Y-135251666D01*
X146389948Y-135240759D01*
X146381180Y-135228936D01*
X146373612Y-135216310D01*
X146367318Y-135203003D01*
X146362359Y-135189143D01*
X146358782Y-135174864D01*
X146356622Y-135160303D01*
X146355900Y-135145600D01*
X146355900Y-134845600D01*
X146356622Y-134830897D01*
X146358782Y-134816336D01*
X146362359Y-134802057D01*
X146367318Y-134788197D01*
X146373612Y-134774890D01*
X146381180Y-134762264D01*
X146389948Y-134750441D01*
X146399834Y-134739534D01*
X146410741Y-134729648D01*
X146422564Y-134720880D01*
X146435190Y-134713312D01*
X146448497Y-134707018D01*
X146462357Y-134702059D01*
X146476636Y-134698482D01*
X146491197Y-134696322D01*
X146505900Y-134695600D01*
X148155900Y-134695600D01*
X148170603Y-134696322D01*
X148170603Y-134696322D01*
G37*
D30*
X147330900Y-134995600D03*
D10*
G36*
X148170603Y-133426322D02*
G01*
X148185164Y-133428482D01*
X148199443Y-133432059D01*
X148213303Y-133437018D01*
X148226610Y-133443312D01*
X148239236Y-133450880D01*
X148251059Y-133459648D01*
X148261966Y-133469534D01*
X148271852Y-133480441D01*
X148280620Y-133492264D01*
X148288188Y-133504890D01*
X148294482Y-133518197D01*
X148299441Y-133532057D01*
X148303018Y-133546336D01*
X148305178Y-133560897D01*
X148305900Y-133575600D01*
X148305900Y-133875600D01*
X148305178Y-133890303D01*
X148303018Y-133904864D01*
X148299441Y-133919143D01*
X148294482Y-133933003D01*
X148288188Y-133946310D01*
X148280620Y-133958936D01*
X148271852Y-133970759D01*
X148261966Y-133981666D01*
X148251059Y-133991552D01*
X148239236Y-134000320D01*
X148226610Y-134007888D01*
X148213303Y-134014182D01*
X148199443Y-134019141D01*
X148185164Y-134022718D01*
X148170603Y-134024878D01*
X148155900Y-134025600D01*
X146505900Y-134025600D01*
X146491197Y-134024878D01*
X146476636Y-134022718D01*
X146462357Y-134019141D01*
X146448497Y-134014182D01*
X146435190Y-134007888D01*
X146422564Y-134000320D01*
X146410741Y-133991552D01*
X146399834Y-133981666D01*
X146389948Y-133970759D01*
X146381180Y-133958936D01*
X146373612Y-133946310D01*
X146367318Y-133933003D01*
X146362359Y-133919143D01*
X146358782Y-133904864D01*
X146356622Y-133890303D01*
X146355900Y-133875600D01*
X146355900Y-133575600D01*
X146356622Y-133560897D01*
X146358782Y-133546336D01*
X146362359Y-133532057D01*
X146367318Y-133518197D01*
X146373612Y-133504890D01*
X146381180Y-133492264D01*
X146389948Y-133480441D01*
X146399834Y-133469534D01*
X146410741Y-133459648D01*
X146422564Y-133450880D01*
X146435190Y-133443312D01*
X146448497Y-133437018D01*
X146462357Y-133432059D01*
X146476636Y-133428482D01*
X146491197Y-133426322D01*
X146505900Y-133425600D01*
X148155900Y-133425600D01*
X148170603Y-133426322D01*
X148170603Y-133426322D01*
G37*
D30*
X147330900Y-133725600D03*
D10*
G36*
X148170603Y-132156322D02*
G01*
X148185164Y-132158482D01*
X148199443Y-132162059D01*
X148213303Y-132167018D01*
X148226610Y-132173312D01*
X148239236Y-132180880D01*
X148251059Y-132189648D01*
X148261966Y-132199534D01*
X148271852Y-132210441D01*
X148280620Y-132222264D01*
X148288188Y-132234890D01*
X148294482Y-132248197D01*
X148299441Y-132262057D01*
X148303018Y-132276336D01*
X148305178Y-132290897D01*
X148305900Y-132305600D01*
X148305900Y-132605600D01*
X148305178Y-132620303D01*
X148303018Y-132634864D01*
X148299441Y-132649143D01*
X148294482Y-132663003D01*
X148288188Y-132676310D01*
X148280620Y-132688936D01*
X148271852Y-132700759D01*
X148261966Y-132711666D01*
X148251059Y-132721552D01*
X148239236Y-132730320D01*
X148226610Y-132737888D01*
X148213303Y-132744182D01*
X148199443Y-132749141D01*
X148185164Y-132752718D01*
X148170603Y-132754878D01*
X148155900Y-132755600D01*
X146505900Y-132755600D01*
X146491197Y-132754878D01*
X146476636Y-132752718D01*
X146462357Y-132749141D01*
X146448497Y-132744182D01*
X146435190Y-132737888D01*
X146422564Y-132730320D01*
X146410741Y-132721552D01*
X146399834Y-132711666D01*
X146389948Y-132700759D01*
X146381180Y-132688936D01*
X146373612Y-132676310D01*
X146367318Y-132663003D01*
X146362359Y-132649143D01*
X146358782Y-132634864D01*
X146356622Y-132620303D01*
X146355900Y-132605600D01*
X146355900Y-132305600D01*
X146356622Y-132290897D01*
X146358782Y-132276336D01*
X146362359Y-132262057D01*
X146367318Y-132248197D01*
X146373612Y-132234890D01*
X146381180Y-132222264D01*
X146389948Y-132210441D01*
X146399834Y-132199534D01*
X146410741Y-132189648D01*
X146422564Y-132180880D01*
X146435190Y-132173312D01*
X146448497Y-132167018D01*
X146462357Y-132162059D01*
X146476636Y-132158482D01*
X146491197Y-132156322D01*
X146505900Y-132155600D01*
X148155900Y-132155600D01*
X148170603Y-132156322D01*
X148170603Y-132156322D01*
G37*
D30*
X147330900Y-132455600D03*
D10*
G36*
X148170603Y-130886322D02*
G01*
X148185164Y-130888482D01*
X148199443Y-130892059D01*
X148213303Y-130897018D01*
X148226610Y-130903312D01*
X148239236Y-130910880D01*
X148251059Y-130919648D01*
X148261966Y-130929534D01*
X148271852Y-130940441D01*
X148280620Y-130952264D01*
X148288188Y-130964890D01*
X148294482Y-130978197D01*
X148299441Y-130992057D01*
X148303018Y-131006336D01*
X148305178Y-131020897D01*
X148305900Y-131035600D01*
X148305900Y-131335600D01*
X148305178Y-131350303D01*
X148303018Y-131364864D01*
X148299441Y-131379143D01*
X148294482Y-131393003D01*
X148288188Y-131406310D01*
X148280620Y-131418936D01*
X148271852Y-131430759D01*
X148261966Y-131441666D01*
X148251059Y-131451552D01*
X148239236Y-131460320D01*
X148226610Y-131467888D01*
X148213303Y-131474182D01*
X148199443Y-131479141D01*
X148185164Y-131482718D01*
X148170603Y-131484878D01*
X148155900Y-131485600D01*
X146505900Y-131485600D01*
X146491197Y-131484878D01*
X146476636Y-131482718D01*
X146462357Y-131479141D01*
X146448497Y-131474182D01*
X146435190Y-131467888D01*
X146422564Y-131460320D01*
X146410741Y-131451552D01*
X146399834Y-131441666D01*
X146389948Y-131430759D01*
X146381180Y-131418936D01*
X146373612Y-131406310D01*
X146367318Y-131393003D01*
X146362359Y-131379143D01*
X146358782Y-131364864D01*
X146356622Y-131350303D01*
X146355900Y-131335600D01*
X146355900Y-131035600D01*
X146356622Y-131020897D01*
X146358782Y-131006336D01*
X146362359Y-130992057D01*
X146367318Y-130978197D01*
X146373612Y-130964890D01*
X146381180Y-130952264D01*
X146389948Y-130940441D01*
X146399834Y-130929534D01*
X146410741Y-130919648D01*
X146422564Y-130910880D01*
X146435190Y-130903312D01*
X146448497Y-130897018D01*
X146462357Y-130892059D01*
X146476636Y-130888482D01*
X146491197Y-130886322D01*
X146505900Y-130885600D01*
X148155900Y-130885600D01*
X148170603Y-130886322D01*
X148170603Y-130886322D01*
G37*
D30*
X147330900Y-131185600D03*
D10*
G36*
X162746285Y-122528043D02*
G01*
X162770554Y-122531643D01*
X162794352Y-122537604D01*
X162817452Y-122545869D01*
X162839630Y-122556359D01*
X162860674Y-122568972D01*
X162880379Y-122583586D01*
X162898558Y-122600062D01*
X162915034Y-122618241D01*
X162929648Y-122637946D01*
X162942261Y-122658990D01*
X162952751Y-122681168D01*
X162961016Y-122704268D01*
X162966977Y-122728066D01*
X162970577Y-122752335D01*
X162971781Y-122776839D01*
X162971781Y-124026839D01*
X162970577Y-124051343D01*
X162966977Y-124075612D01*
X162961016Y-124099410D01*
X162952751Y-124122510D01*
X162942261Y-124144688D01*
X162929648Y-124165732D01*
X162915034Y-124185437D01*
X162898558Y-124203616D01*
X162880379Y-124220092D01*
X162860674Y-124234706D01*
X162839630Y-124247319D01*
X162817452Y-124257809D01*
X162794352Y-124266074D01*
X162770554Y-124272035D01*
X162746285Y-124275635D01*
X162721781Y-124276839D01*
X161796781Y-124276839D01*
X161772277Y-124275635D01*
X161748008Y-124272035D01*
X161724210Y-124266074D01*
X161701110Y-124257809D01*
X161678932Y-124247319D01*
X161657888Y-124234706D01*
X161638183Y-124220092D01*
X161620004Y-124203616D01*
X161603528Y-124185437D01*
X161588914Y-124165732D01*
X161576301Y-124144688D01*
X161565811Y-124122510D01*
X161557546Y-124099410D01*
X161551585Y-124075612D01*
X161547985Y-124051343D01*
X161546781Y-124026839D01*
X161546781Y-122776839D01*
X161547985Y-122752335D01*
X161551585Y-122728066D01*
X161557546Y-122704268D01*
X161565811Y-122681168D01*
X161576301Y-122658990D01*
X161588914Y-122637946D01*
X161603528Y-122618241D01*
X161620004Y-122600062D01*
X161638183Y-122583586D01*
X161657888Y-122568972D01*
X161678932Y-122556359D01*
X161701110Y-122545869D01*
X161724210Y-122537604D01*
X161748008Y-122531643D01*
X161772277Y-122528043D01*
X161796781Y-122526839D01*
X162721781Y-122526839D01*
X162746285Y-122528043D01*
X162746285Y-122528043D01*
G37*
D31*
X162259281Y-123401839D03*
D10*
G36*
X165721285Y-122528043D02*
G01*
X165745554Y-122531643D01*
X165769352Y-122537604D01*
X165792452Y-122545869D01*
X165814630Y-122556359D01*
X165835674Y-122568972D01*
X165855379Y-122583586D01*
X165873558Y-122600062D01*
X165890034Y-122618241D01*
X165904648Y-122637946D01*
X165917261Y-122658990D01*
X165927751Y-122681168D01*
X165936016Y-122704268D01*
X165941977Y-122728066D01*
X165945577Y-122752335D01*
X165946781Y-122776839D01*
X165946781Y-124026839D01*
X165945577Y-124051343D01*
X165941977Y-124075612D01*
X165936016Y-124099410D01*
X165927751Y-124122510D01*
X165917261Y-124144688D01*
X165904648Y-124165732D01*
X165890034Y-124185437D01*
X165873558Y-124203616D01*
X165855379Y-124220092D01*
X165835674Y-124234706D01*
X165814630Y-124247319D01*
X165792452Y-124257809D01*
X165769352Y-124266074D01*
X165745554Y-124272035D01*
X165721285Y-124275635D01*
X165696781Y-124276839D01*
X164771781Y-124276839D01*
X164747277Y-124275635D01*
X164723008Y-124272035D01*
X164699210Y-124266074D01*
X164676110Y-124257809D01*
X164653932Y-124247319D01*
X164632888Y-124234706D01*
X164613183Y-124220092D01*
X164595004Y-124203616D01*
X164578528Y-124185437D01*
X164563914Y-124165732D01*
X164551301Y-124144688D01*
X164540811Y-124122510D01*
X164532546Y-124099410D01*
X164526585Y-124075612D01*
X164522985Y-124051343D01*
X164521781Y-124026839D01*
X164521781Y-122776839D01*
X164522985Y-122752335D01*
X164526585Y-122728066D01*
X164532546Y-122704268D01*
X164540811Y-122681168D01*
X164551301Y-122658990D01*
X164563914Y-122637946D01*
X164578528Y-122618241D01*
X164595004Y-122600062D01*
X164613183Y-122583586D01*
X164632888Y-122568972D01*
X164653932Y-122556359D01*
X164676110Y-122545869D01*
X164699210Y-122537604D01*
X164723008Y-122531643D01*
X164747277Y-122528043D01*
X164771781Y-122526839D01*
X165696781Y-122526839D01*
X165721285Y-122528043D01*
X165721285Y-122528043D01*
G37*
D31*
X165234281Y-123401839D03*
D10*
G36*
X162531285Y-119188043D02*
G01*
X162555554Y-119191643D01*
X162579352Y-119197604D01*
X162602452Y-119205869D01*
X162624630Y-119216359D01*
X162645674Y-119228972D01*
X162665379Y-119243586D01*
X162683558Y-119260062D01*
X162700034Y-119278241D01*
X162714648Y-119297946D01*
X162727261Y-119318990D01*
X162737751Y-119341168D01*
X162746016Y-119364268D01*
X162751977Y-119388066D01*
X162755577Y-119412335D01*
X162756781Y-119436839D01*
X162756781Y-120686839D01*
X162755577Y-120711343D01*
X162751977Y-120735612D01*
X162746016Y-120759410D01*
X162737751Y-120782510D01*
X162727261Y-120804688D01*
X162714648Y-120825732D01*
X162700034Y-120845437D01*
X162683558Y-120863616D01*
X162665379Y-120880092D01*
X162645674Y-120894706D01*
X162624630Y-120907319D01*
X162602452Y-120917809D01*
X162579352Y-120926074D01*
X162555554Y-120932035D01*
X162531285Y-120935635D01*
X162506781Y-120936839D01*
X161756781Y-120936839D01*
X161732277Y-120935635D01*
X161708008Y-120932035D01*
X161684210Y-120926074D01*
X161661110Y-120917809D01*
X161638932Y-120907319D01*
X161617888Y-120894706D01*
X161598183Y-120880092D01*
X161580004Y-120863616D01*
X161563528Y-120845437D01*
X161548914Y-120825732D01*
X161536301Y-120804688D01*
X161525811Y-120782510D01*
X161517546Y-120759410D01*
X161511585Y-120735612D01*
X161507985Y-120711343D01*
X161506781Y-120686839D01*
X161506781Y-119436839D01*
X161507985Y-119412335D01*
X161511585Y-119388066D01*
X161517546Y-119364268D01*
X161525811Y-119341168D01*
X161536301Y-119318990D01*
X161548914Y-119297946D01*
X161563528Y-119278241D01*
X161580004Y-119260062D01*
X161598183Y-119243586D01*
X161617888Y-119228972D01*
X161638932Y-119216359D01*
X161661110Y-119205869D01*
X161684210Y-119197604D01*
X161708008Y-119191643D01*
X161732277Y-119188043D01*
X161756781Y-119186839D01*
X162506781Y-119186839D01*
X162531285Y-119188043D01*
X162531285Y-119188043D01*
G37*
D15*
X162131781Y-120061839D03*
D10*
G36*
X165331285Y-119188043D02*
G01*
X165355554Y-119191643D01*
X165379352Y-119197604D01*
X165402452Y-119205869D01*
X165424630Y-119216359D01*
X165445674Y-119228972D01*
X165465379Y-119243586D01*
X165483558Y-119260062D01*
X165500034Y-119278241D01*
X165514648Y-119297946D01*
X165527261Y-119318990D01*
X165537751Y-119341168D01*
X165546016Y-119364268D01*
X165551977Y-119388066D01*
X165555577Y-119412335D01*
X165556781Y-119436839D01*
X165556781Y-120686839D01*
X165555577Y-120711343D01*
X165551977Y-120735612D01*
X165546016Y-120759410D01*
X165537751Y-120782510D01*
X165527261Y-120804688D01*
X165514648Y-120825732D01*
X165500034Y-120845437D01*
X165483558Y-120863616D01*
X165465379Y-120880092D01*
X165445674Y-120894706D01*
X165424630Y-120907319D01*
X165402452Y-120917809D01*
X165379352Y-120926074D01*
X165355554Y-120932035D01*
X165331285Y-120935635D01*
X165306781Y-120936839D01*
X164556781Y-120936839D01*
X164532277Y-120935635D01*
X164508008Y-120932035D01*
X164484210Y-120926074D01*
X164461110Y-120917809D01*
X164438932Y-120907319D01*
X164417888Y-120894706D01*
X164398183Y-120880092D01*
X164380004Y-120863616D01*
X164363528Y-120845437D01*
X164348914Y-120825732D01*
X164336301Y-120804688D01*
X164325811Y-120782510D01*
X164317546Y-120759410D01*
X164311585Y-120735612D01*
X164307985Y-120711343D01*
X164306781Y-120686839D01*
X164306781Y-119436839D01*
X164307985Y-119412335D01*
X164311585Y-119388066D01*
X164317546Y-119364268D01*
X164325811Y-119341168D01*
X164336301Y-119318990D01*
X164348914Y-119297946D01*
X164363528Y-119278241D01*
X164380004Y-119260062D01*
X164398183Y-119243586D01*
X164417888Y-119228972D01*
X164438932Y-119216359D01*
X164461110Y-119205869D01*
X164484210Y-119197604D01*
X164508008Y-119191643D01*
X164532277Y-119188043D01*
X164556781Y-119186839D01*
X165306781Y-119186839D01*
X165331285Y-119188043D01*
X165331285Y-119188043D01*
G37*
D15*
X164931781Y-120061839D03*
D10*
G36*
X144899504Y-127126204D02*
G01*
X144923773Y-127129804D01*
X144947571Y-127135765D01*
X144970671Y-127144030D01*
X144992849Y-127154520D01*
X145013893Y-127167133D01*
X145033598Y-127181747D01*
X145051777Y-127198223D01*
X145068253Y-127216402D01*
X145082867Y-127236107D01*
X145095480Y-127257151D01*
X145105970Y-127279329D01*
X145114235Y-127302429D01*
X145120196Y-127326227D01*
X145123796Y-127350496D01*
X145125000Y-127375000D01*
X145125000Y-128625000D01*
X145123796Y-128649504D01*
X145120196Y-128673773D01*
X145114235Y-128697571D01*
X145105970Y-128720671D01*
X145095480Y-128742849D01*
X145082867Y-128763893D01*
X145068253Y-128783598D01*
X145051777Y-128801777D01*
X145033598Y-128818253D01*
X145013893Y-128832867D01*
X144992849Y-128845480D01*
X144970671Y-128855970D01*
X144947571Y-128864235D01*
X144923773Y-128870196D01*
X144899504Y-128873796D01*
X144875000Y-128875000D01*
X144125000Y-128875000D01*
X144100496Y-128873796D01*
X144076227Y-128870196D01*
X144052429Y-128864235D01*
X144029329Y-128855970D01*
X144007151Y-128845480D01*
X143986107Y-128832867D01*
X143966402Y-128818253D01*
X143948223Y-128801777D01*
X143931747Y-128783598D01*
X143917133Y-128763893D01*
X143904520Y-128742849D01*
X143894030Y-128720671D01*
X143885765Y-128697571D01*
X143879804Y-128673773D01*
X143876204Y-128649504D01*
X143875000Y-128625000D01*
X143875000Y-127375000D01*
X143876204Y-127350496D01*
X143879804Y-127326227D01*
X143885765Y-127302429D01*
X143894030Y-127279329D01*
X143904520Y-127257151D01*
X143917133Y-127236107D01*
X143931747Y-127216402D01*
X143948223Y-127198223D01*
X143966402Y-127181747D01*
X143986107Y-127167133D01*
X144007151Y-127154520D01*
X144029329Y-127144030D01*
X144052429Y-127135765D01*
X144076227Y-127129804D01*
X144100496Y-127126204D01*
X144125000Y-127125000D01*
X144875000Y-127125000D01*
X144899504Y-127126204D01*
X144899504Y-127126204D01*
G37*
D15*
X144500000Y-128000000D03*
D10*
G36*
X147699504Y-127126204D02*
G01*
X147723773Y-127129804D01*
X147747571Y-127135765D01*
X147770671Y-127144030D01*
X147792849Y-127154520D01*
X147813893Y-127167133D01*
X147833598Y-127181747D01*
X147851777Y-127198223D01*
X147868253Y-127216402D01*
X147882867Y-127236107D01*
X147895480Y-127257151D01*
X147905970Y-127279329D01*
X147914235Y-127302429D01*
X147920196Y-127326227D01*
X147923796Y-127350496D01*
X147925000Y-127375000D01*
X147925000Y-128625000D01*
X147923796Y-128649504D01*
X147920196Y-128673773D01*
X147914235Y-128697571D01*
X147905970Y-128720671D01*
X147895480Y-128742849D01*
X147882867Y-128763893D01*
X147868253Y-128783598D01*
X147851777Y-128801777D01*
X147833598Y-128818253D01*
X147813893Y-128832867D01*
X147792849Y-128845480D01*
X147770671Y-128855970D01*
X147747571Y-128864235D01*
X147723773Y-128870196D01*
X147699504Y-128873796D01*
X147675000Y-128875000D01*
X146925000Y-128875000D01*
X146900496Y-128873796D01*
X146876227Y-128870196D01*
X146852429Y-128864235D01*
X146829329Y-128855970D01*
X146807151Y-128845480D01*
X146786107Y-128832867D01*
X146766402Y-128818253D01*
X146748223Y-128801777D01*
X146731747Y-128783598D01*
X146717133Y-128763893D01*
X146704520Y-128742849D01*
X146694030Y-128720671D01*
X146685765Y-128697571D01*
X146679804Y-128673773D01*
X146676204Y-128649504D01*
X146675000Y-128625000D01*
X146675000Y-127375000D01*
X146676204Y-127350496D01*
X146679804Y-127326227D01*
X146685765Y-127302429D01*
X146694030Y-127279329D01*
X146704520Y-127257151D01*
X146717133Y-127236107D01*
X146731747Y-127216402D01*
X146748223Y-127198223D01*
X146766402Y-127181747D01*
X146786107Y-127167133D01*
X146807151Y-127154520D01*
X146829329Y-127144030D01*
X146852429Y-127135765D01*
X146876227Y-127129804D01*
X146900496Y-127126204D01*
X146925000Y-127125000D01*
X147675000Y-127125000D01*
X147699504Y-127126204D01*
X147699504Y-127126204D01*
G37*
D15*
X147300000Y-128000000D03*
D10*
G36*
X139799504Y-116826204D02*
G01*
X139823773Y-116829804D01*
X139847571Y-116835765D01*
X139870671Y-116844030D01*
X139892849Y-116854520D01*
X139913893Y-116867133D01*
X139933598Y-116881747D01*
X139951777Y-116898223D01*
X139968253Y-116916402D01*
X139982867Y-116936107D01*
X139995480Y-116957151D01*
X140005970Y-116979329D01*
X140014235Y-117002429D01*
X140020196Y-117026227D01*
X140023796Y-117050496D01*
X140025000Y-117075000D01*
X140025000Y-118325000D01*
X140023796Y-118349504D01*
X140020196Y-118373773D01*
X140014235Y-118397571D01*
X140005970Y-118420671D01*
X139995480Y-118442849D01*
X139982867Y-118463893D01*
X139968253Y-118483598D01*
X139951777Y-118501777D01*
X139933598Y-118518253D01*
X139913893Y-118532867D01*
X139892849Y-118545480D01*
X139870671Y-118555970D01*
X139847571Y-118564235D01*
X139823773Y-118570196D01*
X139799504Y-118573796D01*
X139775000Y-118575000D01*
X139025000Y-118575000D01*
X139000496Y-118573796D01*
X138976227Y-118570196D01*
X138952429Y-118564235D01*
X138929329Y-118555970D01*
X138907151Y-118545480D01*
X138886107Y-118532867D01*
X138866402Y-118518253D01*
X138848223Y-118501777D01*
X138831747Y-118483598D01*
X138817133Y-118463893D01*
X138804520Y-118442849D01*
X138794030Y-118420671D01*
X138785765Y-118397571D01*
X138779804Y-118373773D01*
X138776204Y-118349504D01*
X138775000Y-118325000D01*
X138775000Y-117075000D01*
X138776204Y-117050496D01*
X138779804Y-117026227D01*
X138785765Y-117002429D01*
X138794030Y-116979329D01*
X138804520Y-116957151D01*
X138817133Y-116936107D01*
X138831747Y-116916402D01*
X138848223Y-116898223D01*
X138866402Y-116881747D01*
X138886107Y-116867133D01*
X138907151Y-116854520D01*
X138929329Y-116844030D01*
X138952429Y-116835765D01*
X138976227Y-116829804D01*
X139000496Y-116826204D01*
X139025000Y-116825000D01*
X139775000Y-116825000D01*
X139799504Y-116826204D01*
X139799504Y-116826204D01*
G37*
D15*
X139400000Y-117700000D03*
D10*
G36*
X142599504Y-116826204D02*
G01*
X142623773Y-116829804D01*
X142647571Y-116835765D01*
X142670671Y-116844030D01*
X142692849Y-116854520D01*
X142713893Y-116867133D01*
X142733598Y-116881747D01*
X142751777Y-116898223D01*
X142768253Y-116916402D01*
X142782867Y-116936107D01*
X142795480Y-116957151D01*
X142805970Y-116979329D01*
X142814235Y-117002429D01*
X142820196Y-117026227D01*
X142823796Y-117050496D01*
X142825000Y-117075000D01*
X142825000Y-118325000D01*
X142823796Y-118349504D01*
X142820196Y-118373773D01*
X142814235Y-118397571D01*
X142805970Y-118420671D01*
X142795480Y-118442849D01*
X142782867Y-118463893D01*
X142768253Y-118483598D01*
X142751777Y-118501777D01*
X142733598Y-118518253D01*
X142713893Y-118532867D01*
X142692849Y-118545480D01*
X142670671Y-118555970D01*
X142647571Y-118564235D01*
X142623773Y-118570196D01*
X142599504Y-118573796D01*
X142575000Y-118575000D01*
X141825000Y-118575000D01*
X141800496Y-118573796D01*
X141776227Y-118570196D01*
X141752429Y-118564235D01*
X141729329Y-118555970D01*
X141707151Y-118545480D01*
X141686107Y-118532867D01*
X141666402Y-118518253D01*
X141648223Y-118501777D01*
X141631747Y-118483598D01*
X141617133Y-118463893D01*
X141604520Y-118442849D01*
X141594030Y-118420671D01*
X141585765Y-118397571D01*
X141579804Y-118373773D01*
X141576204Y-118349504D01*
X141575000Y-118325000D01*
X141575000Y-117075000D01*
X141576204Y-117050496D01*
X141579804Y-117026227D01*
X141585765Y-117002429D01*
X141594030Y-116979329D01*
X141604520Y-116957151D01*
X141617133Y-116936107D01*
X141631747Y-116916402D01*
X141648223Y-116898223D01*
X141666402Y-116881747D01*
X141686107Y-116867133D01*
X141707151Y-116854520D01*
X141729329Y-116844030D01*
X141752429Y-116835765D01*
X141776227Y-116829804D01*
X141800496Y-116826204D01*
X141825000Y-116825000D01*
X142575000Y-116825000D01*
X142599504Y-116826204D01*
X142599504Y-116826204D01*
G37*
D15*
X142200000Y-117700000D03*
D32*
X146350000Y-117700000D03*
D33*
X152650000Y-117700000D03*
X152650000Y-120000000D03*
X152650000Y-115400000D03*
D10*
G36*
X153249504Y-122576204D02*
G01*
X153273773Y-122579804D01*
X153297571Y-122585765D01*
X153320671Y-122594030D01*
X153342849Y-122604520D01*
X153363893Y-122617133D01*
X153383598Y-122631747D01*
X153401777Y-122648223D01*
X153418253Y-122666402D01*
X153432867Y-122686107D01*
X153445480Y-122707151D01*
X153455970Y-122729329D01*
X153464235Y-122752429D01*
X153470196Y-122776227D01*
X153473796Y-122800496D01*
X153475000Y-122825000D01*
X153475000Y-123575000D01*
X153473796Y-123599504D01*
X153470196Y-123623773D01*
X153464235Y-123647571D01*
X153455970Y-123670671D01*
X153445480Y-123692849D01*
X153432867Y-123713893D01*
X153418253Y-123733598D01*
X153401777Y-123751777D01*
X153383598Y-123768253D01*
X153363893Y-123782867D01*
X153342849Y-123795480D01*
X153320671Y-123805970D01*
X153297571Y-123814235D01*
X153273773Y-123820196D01*
X153249504Y-123823796D01*
X153225000Y-123825000D01*
X151975000Y-123825000D01*
X151950496Y-123823796D01*
X151926227Y-123820196D01*
X151902429Y-123814235D01*
X151879329Y-123805970D01*
X151857151Y-123795480D01*
X151836107Y-123782867D01*
X151816402Y-123768253D01*
X151798223Y-123751777D01*
X151781747Y-123733598D01*
X151767133Y-123713893D01*
X151754520Y-123692849D01*
X151744030Y-123670671D01*
X151735765Y-123647571D01*
X151729804Y-123623773D01*
X151726204Y-123599504D01*
X151725000Y-123575000D01*
X151725000Y-122825000D01*
X151726204Y-122800496D01*
X151729804Y-122776227D01*
X151735765Y-122752429D01*
X151744030Y-122729329D01*
X151754520Y-122707151D01*
X151767133Y-122686107D01*
X151781747Y-122666402D01*
X151798223Y-122648223D01*
X151816402Y-122631747D01*
X151836107Y-122617133D01*
X151857151Y-122604520D01*
X151879329Y-122594030D01*
X151902429Y-122585765D01*
X151926227Y-122579804D01*
X151950496Y-122576204D01*
X151975000Y-122575000D01*
X153225000Y-122575000D01*
X153249504Y-122576204D01*
X153249504Y-122576204D01*
G37*
D15*
X152600000Y-123200000D03*
D10*
G36*
X153249504Y-125376204D02*
G01*
X153273773Y-125379804D01*
X153297571Y-125385765D01*
X153320671Y-125394030D01*
X153342849Y-125404520D01*
X153363893Y-125417133D01*
X153383598Y-125431747D01*
X153401777Y-125448223D01*
X153418253Y-125466402D01*
X153432867Y-125486107D01*
X153445480Y-125507151D01*
X153455970Y-125529329D01*
X153464235Y-125552429D01*
X153470196Y-125576227D01*
X153473796Y-125600496D01*
X153475000Y-125625000D01*
X153475000Y-126375000D01*
X153473796Y-126399504D01*
X153470196Y-126423773D01*
X153464235Y-126447571D01*
X153455970Y-126470671D01*
X153445480Y-126492849D01*
X153432867Y-126513893D01*
X153418253Y-126533598D01*
X153401777Y-126551777D01*
X153383598Y-126568253D01*
X153363893Y-126582867D01*
X153342849Y-126595480D01*
X153320671Y-126605970D01*
X153297571Y-126614235D01*
X153273773Y-126620196D01*
X153249504Y-126623796D01*
X153225000Y-126625000D01*
X151975000Y-126625000D01*
X151950496Y-126623796D01*
X151926227Y-126620196D01*
X151902429Y-126614235D01*
X151879329Y-126605970D01*
X151857151Y-126595480D01*
X151836107Y-126582867D01*
X151816402Y-126568253D01*
X151798223Y-126551777D01*
X151781747Y-126533598D01*
X151767133Y-126513893D01*
X151754520Y-126492849D01*
X151744030Y-126470671D01*
X151735765Y-126447571D01*
X151729804Y-126423773D01*
X151726204Y-126399504D01*
X151725000Y-126375000D01*
X151725000Y-125625000D01*
X151726204Y-125600496D01*
X151729804Y-125576227D01*
X151735765Y-125552429D01*
X151744030Y-125529329D01*
X151754520Y-125507151D01*
X151767133Y-125486107D01*
X151781747Y-125466402D01*
X151798223Y-125448223D01*
X151816402Y-125431747D01*
X151836107Y-125417133D01*
X151857151Y-125404520D01*
X151879329Y-125394030D01*
X151902429Y-125385765D01*
X151926227Y-125379804D01*
X151950496Y-125376204D01*
X151975000Y-125375000D01*
X153225000Y-125375000D01*
X153249504Y-125376204D01*
X153249504Y-125376204D01*
G37*
D15*
X152600000Y-126000000D03*
D30*
X164800000Y-49800000D03*
X103700000Y-64300000D03*
X114100000Y-48900000D03*
X120000000Y-55000000D03*
X105200000Y-49800000D03*
X133100000Y-67400000D03*
X138900000Y-69700000D03*
X166100000Y-72400000D03*
X136100000Y-84700000D03*
X159500000Y-86400000D03*
X136300000Y-101800000D03*
X162800000Y-85000002D03*
X139400000Y-57500000D03*
X137900000Y-55500000D03*
X168229480Y-58078020D03*
X168171060Y-61905800D03*
X146350000Y-122750000D03*
X157997361Y-118502639D03*
X122700000Y-64100000D03*
X117600000Y-60400000D03*
X113500000Y-62300000D03*
X100100000Y-75900000D03*
X114700000Y-59800000D03*
X147100000Y-80000000D03*
X147200000Y-106000000D03*
X142100000Y-81700000D03*
X149400000Y-81100000D03*
X118300000Y-80200000D03*
X115000000Y-77600000D03*
X113408058Y-60208058D03*
X111400000Y-63200000D03*
X144100000Y-83800000D03*
X156500000Y-97300000D03*
X149500000Y-98100000D03*
X127500000Y-109200000D03*
X121400000Y-114500000D03*
X140000000Y-75900000D03*
X121900000Y-57000000D03*
X118300000Y-58900000D03*
D34*
X153355900Y-133725600D02*
X152280900Y-133725600D01*
X163409101Y-133725600D02*
X153355900Y-133725600D01*
X164792101Y-132342600D02*
X163409101Y-133725600D01*
X166319500Y-132342600D02*
X164792101Y-132342600D01*
X168875000Y-49750000D02*
X160925000Y-49750000D01*
X164938740Y-72333720D02*
X164893480Y-72378980D01*
X105500000Y-64300000D02*
X104625000Y-64300000D01*
X104625000Y-64300000D02*
X103700000Y-64300000D01*
X103700000Y-64300000D02*
X101900000Y-64300000D01*
X114100000Y-50900000D02*
X114100000Y-48900000D01*
X120000000Y-56500000D02*
X120000000Y-55000000D01*
X119700000Y-56800000D02*
X120000000Y-56500000D01*
X118950000Y-56800000D02*
X119700000Y-56800000D01*
X105200000Y-52000000D02*
X105200000Y-49800000D01*
X133124900Y-67375100D02*
X133100000Y-67400000D01*
X134956640Y-67375100D02*
X133124900Y-67375100D01*
X139028420Y-69571580D02*
X138900000Y-69700000D01*
X142613220Y-69571580D02*
X139028420Y-69571580D01*
D35*
X164154740Y-72378980D02*
X164200000Y-72333720D01*
X161100000Y-72378980D02*
X164154740Y-72378980D01*
X166033720Y-72333720D02*
X166100000Y-72400000D01*
X164200000Y-72333720D02*
X166033720Y-72333720D01*
D34*
X157754180Y-57430620D02*
X157613220Y-57571580D01*
X126300000Y-90600000D02*
X126300000Y-87800000D01*
X129400000Y-84700000D02*
X136100000Y-84700000D01*
X126300000Y-87800000D02*
X129400000Y-84700000D01*
X158863220Y-65571580D02*
X157613220Y-65571580D01*
X166671580Y-65571580D02*
X166871580Y-65571580D01*
X166671580Y-65571580D02*
X158863220Y-65571580D01*
X166871580Y-65571580D02*
X167800000Y-66500000D01*
X167800000Y-83500000D02*
X164900000Y-86400000D01*
X167800000Y-66500000D02*
X167800000Y-83500000D01*
X159500000Y-86400000D02*
X164900000Y-86400000D01*
X157754180Y-67430620D02*
X157613220Y-67571580D01*
X157680520Y-67504280D02*
X157613220Y-67571580D01*
X132500000Y-101800000D02*
X136300000Y-101800000D01*
X126300000Y-95600000D02*
X132500000Y-101800000D01*
D35*
X165099998Y-85000002D02*
X165299998Y-85000002D01*
D34*
X162800000Y-85000002D02*
X165099998Y-85000002D01*
D35*
X165299998Y-85000002D02*
X167100000Y-83200000D01*
X166528420Y-67571580D02*
X166528420Y-67628420D01*
D34*
X157613220Y-67571580D02*
X166528420Y-67571580D01*
D35*
X167100000Y-68200000D02*
X167100000Y-83200000D01*
X166528420Y-67628420D02*
X167100000Y-68200000D01*
D34*
X152280900Y-135395600D02*
X152280900Y-134995600D01*
X166319500Y-129742600D02*
X158011600Y-129742600D01*
X158011600Y-129742600D02*
X155200000Y-126931000D01*
X153475000Y-123200000D02*
X152600000Y-123200000D01*
X155200000Y-124925000D02*
X153475000Y-123200000D01*
X155200000Y-126931000D02*
X155200000Y-124925000D01*
X152600000Y-120050000D02*
X152650000Y-120000000D01*
X152600000Y-123200000D02*
X152600000Y-120050000D01*
X153355900Y-132455600D02*
X152280900Y-132455600D01*
X166319500Y-130392600D02*
X154792600Y-130392600D01*
X154792600Y-130392600D02*
X154100000Y-129700000D01*
X154100000Y-129700000D02*
X151100000Y-129700000D01*
X151100000Y-129700000D02*
X150500000Y-130300000D01*
X151305900Y-132455600D02*
X152280900Y-132455600D01*
X150500000Y-131649700D02*
X151305900Y-132455600D01*
X150500000Y-130300000D02*
X150500000Y-131649700D01*
X152293600Y-131198300D02*
X152280900Y-131185600D01*
X160040600Y-131198300D02*
X152293600Y-131198300D01*
X160196300Y-131042600D02*
X160040600Y-131198300D01*
X166319500Y-131042600D02*
X160196300Y-131042600D01*
X142541640Y-57500000D02*
X142613220Y-57571580D01*
X142553540Y-57511900D02*
X142613220Y-57571580D01*
X139400000Y-57500000D02*
X142541640Y-57500000D01*
X142521540Y-55479900D02*
X142613220Y-55571580D01*
X143467100Y-132455600D02*
X143426460Y-132414960D01*
X147330900Y-132455600D02*
X143467100Y-132455600D01*
X142541640Y-55500000D02*
X142613220Y-55571580D01*
X137900000Y-55500000D02*
X142541640Y-55500000D01*
X163953540Y-69571580D02*
X163956220Y-69574260D01*
X166278240Y-58088180D02*
X166296020Y-58105960D01*
X165553240Y-58088180D02*
X166278240Y-58088180D01*
X166296020Y-58105960D02*
X168201540Y-58105960D01*
X168201540Y-58105960D02*
X168229480Y-58078020D01*
X165720880Y-61961680D02*
X168115180Y-61961680D01*
X168115180Y-61961680D02*
X168171060Y-61905800D01*
X164938740Y-69533720D02*
X164893480Y-69578980D01*
X157620620Y-69578980D02*
X157613220Y-69571580D01*
X164893480Y-69578980D02*
X157620620Y-69578980D01*
X162131781Y-120061839D02*
X159556561Y-120061839D01*
X159556561Y-120061839D02*
X159552920Y-120065480D01*
X148405900Y-134995600D02*
X147330900Y-134995600D01*
X148305900Y-131185600D02*
X147330900Y-131185600D01*
X149100000Y-131979700D02*
X148305900Y-131185600D01*
X149100000Y-134201500D02*
X149100000Y-131979700D01*
X148305900Y-134995600D02*
X149100000Y-134201500D01*
X147330900Y-134995600D02*
X148305900Y-134995600D01*
X157194722Y-117700000D02*
X152650000Y-117700000D01*
X159556561Y-120061839D02*
X157997361Y-118502639D01*
X146350000Y-117700000D02*
X142200000Y-117700000D01*
X146355900Y-134995600D02*
X147330900Y-134995600D01*
X147330900Y-137769100D02*
X147300000Y-137800000D01*
X147330900Y-134995600D02*
X147330900Y-137769100D01*
X147330900Y-128030900D02*
X147300000Y-128000000D01*
X147330900Y-131185600D02*
X147330900Y-128030900D01*
X146350000Y-117700000D02*
X146350000Y-122750000D01*
X147300000Y-125100000D02*
X147300000Y-128000000D01*
X146350000Y-124150000D02*
X147300000Y-125100000D01*
X146350000Y-122750000D02*
X146350000Y-124150000D01*
X157997361Y-118502639D02*
X157194722Y-117700000D01*
X123100000Y-63700000D02*
X122700000Y-64100000D01*
X125000000Y-63700000D02*
X123100000Y-63700000D01*
X135300000Y-61200000D02*
X134675000Y-61200000D01*
X101900000Y-61500000D02*
X105500000Y-61500000D01*
X105500000Y-60875000D02*
X106000000Y-60375000D01*
X105500000Y-61500000D02*
X105500000Y-60875000D01*
X106000000Y-60375000D02*
X106000000Y-59900000D01*
X106000000Y-59900000D02*
X107100000Y-58800000D01*
D35*
X107200000Y-58700000D02*
X107100000Y-58800000D01*
X108462500Y-58700000D02*
X107200000Y-58700000D01*
D34*
X114200000Y-54500000D02*
X114200000Y-55375000D01*
X114200000Y-55375000D02*
X114200000Y-56100000D01*
X114200000Y-56100000D02*
X113600000Y-56700000D01*
D35*
X113200000Y-57100000D02*
X113600000Y-56700000D01*
X112337500Y-57100000D02*
X113200000Y-57100000D01*
X111600000Y-59837500D02*
X111600000Y-60400000D01*
X111600000Y-60400000D02*
X113500000Y-62300000D01*
D34*
X142900000Y-108400000D02*
X142900000Y-109900000D01*
X142900000Y-108150000D02*
X142900000Y-108400000D01*
X148350000Y-102700000D02*
X142900000Y-108150000D01*
X149600000Y-102700000D02*
X148350000Y-102700000D01*
X133200000Y-109900000D02*
X131500000Y-111600000D01*
X131500000Y-111600000D02*
X131500000Y-113100000D01*
X142900000Y-109900000D02*
X133200000Y-109900000D01*
X123300000Y-113100000D02*
X120900000Y-110700000D01*
X120900000Y-110700000D02*
X120900000Y-109200000D01*
X131500000Y-113100000D02*
X123300000Y-113100000D01*
X136100000Y-71600000D02*
X134000000Y-69500000D01*
X136100000Y-73100000D02*
X136100000Y-71600000D01*
D35*
X112337500Y-59100000D02*
X114000000Y-59100000D01*
X114000000Y-59100000D02*
X114200000Y-59300000D01*
D34*
X119500000Y-104000000D02*
X117400000Y-106100000D01*
X119500000Y-102500000D02*
X119500000Y-104000000D01*
X117400000Y-106100000D02*
X113200000Y-106100000D01*
X113200000Y-106100000D02*
X107400000Y-100300000D01*
X107400000Y-83200000D02*
X100100000Y-75900000D01*
X107400000Y-100300000D02*
X107400000Y-83200000D01*
X114200000Y-59300000D02*
X114700000Y-59800000D01*
D35*
X111200000Y-59837500D02*
X111200000Y-61700000D01*
D34*
X113050000Y-83100000D02*
X114300000Y-83100000D01*
X107300000Y-77350000D02*
X113050000Y-83100000D01*
X107300000Y-75600000D02*
X107300000Y-77350000D01*
X114300000Y-81600000D02*
X114300000Y-83100000D01*
X119000000Y-76900000D02*
X114300000Y-81600000D01*
X120900000Y-76900000D02*
X119000000Y-76900000D01*
X112750000Y-91600000D02*
X111500000Y-92850000D01*
X111500000Y-92850000D02*
X111500000Y-93100000D01*
X113000000Y-91600000D02*
X112750000Y-91600000D01*
X114300000Y-90300000D02*
X113000000Y-91600000D01*
X114300000Y-83100000D02*
X114300000Y-90300000D01*
X113650000Y-102500000D02*
X114900000Y-102500000D01*
X111500000Y-100350000D02*
X113650000Y-102500000D01*
X111500000Y-93100000D02*
X111500000Y-100350000D01*
X120900000Y-78400000D02*
X124200000Y-81700000D01*
X120900000Y-76900000D02*
X120900000Y-78400000D01*
X147100000Y-77700000D02*
X146400000Y-77000000D01*
X147100000Y-80000000D02*
X147100000Y-77700000D01*
D35*
X111200000Y-61700000D02*
X111400000Y-61900000D01*
D34*
X147500000Y-106300000D02*
X147200000Y-106000000D01*
X147500000Y-109900000D02*
X147500000Y-106300000D01*
X142925002Y-81700000D02*
X142524264Y-81700000D01*
X144900000Y-83674998D02*
X142925002Y-81700000D01*
X142524264Y-81700000D02*
X142100000Y-81700000D01*
D35*
X110800000Y-59837500D02*
X110800000Y-61498946D01*
D34*
X136100000Y-113100000D02*
X153100000Y-113100000D01*
X153100000Y-113100000D02*
X161200000Y-105000000D01*
X154750000Y-84300000D02*
X153500000Y-84300000D01*
X161200000Y-90750000D02*
X154750000Y-84300000D01*
X161200000Y-105000000D02*
X161200000Y-90750000D01*
X143400000Y-83100000D02*
X144100000Y-83800000D01*
X153500000Y-82800000D02*
X153500000Y-84300000D01*
X151800000Y-81100000D02*
X153500000Y-82800000D01*
X149400000Y-81100000D02*
X151800000Y-81100000D01*
X118900000Y-80800000D02*
X118300000Y-80200000D01*
X118900000Y-83100000D02*
X118900000Y-80800000D01*
X115000000Y-77600000D02*
X113000000Y-75600000D01*
X113000000Y-75600000D02*
X112549990Y-75149990D01*
X111400000Y-63200000D02*
X110825010Y-62625010D01*
D35*
X110800000Y-62200000D02*
X110800000Y-61498946D01*
X110825010Y-62225010D02*
X110800000Y-62200000D01*
X110825010Y-62625010D02*
X110825010Y-62225010D01*
D34*
X156100000Y-96900000D02*
X156500000Y-97300000D01*
X156100000Y-93100000D02*
X156100000Y-96900000D01*
X149200001Y-98399999D02*
X147300001Y-98399999D01*
X149500000Y-98100000D02*
X149200001Y-98399999D01*
X125500000Y-78400000D02*
X125500000Y-76900000D01*
X126400000Y-79300000D02*
X125500000Y-78400000D01*
X145900000Y-83800000D02*
X141400000Y-79300000D01*
X149500000Y-97675736D02*
X145900000Y-94075736D01*
X149500000Y-98100000D02*
X149500000Y-97675736D01*
X131500000Y-71600000D02*
X131500000Y-73100000D01*
X130700000Y-70800000D02*
X131500000Y-71600000D01*
X133900000Y-77000000D02*
X140550000Y-77000000D01*
X131500000Y-74600000D02*
X133900000Y-77000000D01*
X140550000Y-77000000D02*
X141800000Y-77000000D01*
X131500000Y-73100000D02*
X131500000Y-74600000D01*
X147650000Y-84300000D02*
X148900000Y-84300000D01*
X147600000Y-84300000D02*
X147650000Y-84300000D01*
X141800000Y-78500000D02*
X147600000Y-84300000D01*
X141800000Y-77000000D02*
X141800000Y-78500000D01*
X150250000Y-93100000D02*
X151500000Y-93100000D01*
X148900000Y-91750000D02*
X150250000Y-93100000D01*
X148900000Y-84300000D02*
X148900000Y-91750000D01*
X151500000Y-94600000D02*
X154200000Y-97300000D01*
X151500000Y-93100000D02*
X151500000Y-94600000D01*
X154200000Y-97300000D02*
X154200000Y-102700000D01*
D35*
X110400000Y-59837500D02*
X110400000Y-62800000D01*
X127600000Y-109200000D02*
X127500000Y-109200000D01*
D34*
X136500000Y-109200000D02*
X127600000Y-109200000D01*
X127600000Y-109200000D02*
X125500000Y-109200000D01*
D35*
X121400000Y-114500000D02*
X118600000Y-114500000D01*
X118600000Y-114500000D02*
X102200000Y-98100000D01*
X102200000Y-98100000D02*
X102200000Y-80100000D01*
X110400000Y-62800000D02*
X109500000Y-63700000D01*
D34*
X164931781Y-123099339D02*
X165234281Y-123401839D01*
X164931781Y-120061839D02*
X164931781Y-123099339D01*
X116900000Y-56800000D02*
X116000000Y-57700000D01*
X117650000Y-56800000D02*
X116900000Y-56800000D01*
X116000000Y-57700000D02*
X114100000Y-57700000D01*
D35*
X113900000Y-57900000D02*
X114100000Y-57700000D01*
X112337500Y-57900000D02*
X113900000Y-57900000D01*
D34*
X105200000Y-54800000D02*
X105200000Y-55600000D01*
X105200000Y-55600000D02*
X106700000Y-57100000D01*
X106700000Y-57100000D02*
X107200000Y-57100000D01*
D35*
X108462500Y-57100000D02*
X107200000Y-57100000D01*
D34*
X127800000Y-64575000D02*
X127800000Y-63700000D01*
X132274991Y-69049991D02*
X127800000Y-64575000D01*
X134884993Y-69049991D02*
X132274991Y-69049991D01*
X140000000Y-74164998D02*
X134884993Y-69049991D01*
X140000000Y-75900000D02*
X140000000Y-74164998D01*
X127928420Y-63571580D02*
X127800000Y-63700000D01*
X142613220Y-63571580D02*
X127928420Y-63571580D01*
X157623120Y-59561680D02*
X157613220Y-59571580D01*
X162920880Y-61086680D02*
X162920880Y-61961680D01*
X161405780Y-59571580D02*
X162920880Y-61086680D01*
X157613220Y-59571580D02*
X161405780Y-59571580D01*
X157729820Y-55688180D02*
X157613220Y-55571580D01*
X162128240Y-58088180D02*
X162753240Y-58088180D01*
X160925000Y-56884940D02*
X162128240Y-58088180D01*
X160925000Y-54250000D02*
X160925000Y-56884940D01*
X168875000Y-54250000D02*
X160925000Y-54250000D01*
X159611640Y-55571580D02*
X160925000Y-56884940D01*
X157613220Y-55571580D02*
X159611640Y-55571580D01*
X138060160Y-67071580D02*
X137756640Y-67375100D01*
X137953120Y-67571580D02*
X137756640Y-67375100D01*
X142613220Y-67571580D02*
X137953120Y-67571580D01*
X142613220Y-61571580D02*
X142045020Y-62139780D01*
X138228420Y-61071580D02*
X138100000Y-61200000D01*
X138100000Y-60325000D02*
X137175000Y-59400000D01*
X138100000Y-61200000D02*
X138100000Y-60325000D01*
X123200000Y-58200000D02*
X114800000Y-58200000D01*
D35*
X114700000Y-58300000D02*
X114800000Y-58200000D01*
X112337500Y-58300000D02*
X114700000Y-58300000D01*
D34*
X138471580Y-61571580D02*
X138100000Y-61200000D01*
X142613220Y-61571580D02*
X138471580Y-61571580D01*
X142613220Y-59571580D02*
X142610940Y-59569300D01*
X122700000Y-57000000D02*
X121900000Y-57000000D01*
X118300000Y-58900000D02*
X114800000Y-58900000D01*
D35*
X114600000Y-58700000D02*
X114800000Y-58900000D01*
X112337500Y-58700000D02*
X114600000Y-58700000D01*
D34*
X140246580Y-59571580D02*
X137900000Y-57225000D01*
X137900000Y-57225000D02*
X137900000Y-56600000D01*
X142613220Y-59571580D02*
X140246580Y-59571580D01*
X104600000Y-58200000D02*
X107000000Y-58200000D01*
D35*
X107100000Y-58300000D02*
X107000000Y-58200000D01*
X108462500Y-58300000D02*
X107100000Y-58300000D01*
D34*
X119200000Y-51100000D02*
X119200000Y-52900000D01*
X119200000Y-52900000D02*
X114900000Y-57200000D01*
X114900000Y-57200000D02*
X113900000Y-57200000D01*
D35*
X113600000Y-57500000D02*
X113900000Y-57200000D01*
X112337500Y-57500000D02*
X113600000Y-57500000D01*
M02*
