M48
; DRILL file {KiCad (5.1.4)-1} date 6/27/2020 6:01:39 PM
; FORMAT={-:-/ absolute / inch / decimal}
; #@! TF.CreationDate,2020-06-27T18:01:39-05:00
; #@! TF.GenerationSoftware,Kicad,Pcbnew,(5.1.4)-1
; #@! TF.FileFunction,Plated,1,2,PTH
FMAT,2
INCH
T1C0.0157
T2C0.0236
T3C0.0335
T4C0.0394
T5C0.0866
%
G90
G05
T1
X3.9409Y-2.9882
X4.0827Y-2.5315
X4.1417Y-1.9606
X4.3858Y-2.4882
X4.4649Y-2.3704
X4.4685Y-2.4528
X4.4921Y-1.9252
X4.5157Y-2.3543
X4.5276Y-3.0551
X4.6299Y-2.378
X4.6575Y-2.3189
X4.6575Y-3.1575
X4.7244Y-2.1654
X4.7795Y-4.5079
X4.7992Y-2.2441
X4.8307Y-2.5236
X5.0197Y-4.2992
X5.2402Y-2.6535
X5.3583Y-3.3346
X5.3661Y-4.0079
X5.4291Y-2.185
X5.4685Y-2.7441
X5.4882Y-2.2638
X5.5118Y-2.9882
X5.5945Y-3.2165
X5.6732Y-3.2992
X5.7618Y-4.8327
X5.7913Y-3.1496
X5.7953Y-4.1732
X5.8819Y-3.1929
X5.8858Y-3.8622
X6.1614Y-3.8307
X6.2204Y-4.6655
X6.2795Y-3.4016
X6.4094Y-3.3465
X6.4882Y-1.9606
X6.5394Y-2.8504
X6.6209Y-2.4372
X6.6232Y-2.2865
T3
X6.548Y-5.0607
X6.548Y-5.2576
T4
X4.9724Y-3.5669
X4.9724Y-3.6654
X4.9724Y-3.7638
X5.5433Y-3.5669
X5.5433Y-3.7638
T5
X5.2677Y-3.4449
X5.2677Y-3.8858
T2
G00X6.6405Y-5.0214
M15
G01X6.6681Y-5.0214
M16
G05
G00X6.6681Y-5.297
M15
G01X6.6405Y-5.297
M16
G05
T0
M30
