G04 #@! TF.GenerationSoftware,KiCad,Pcbnew,(5.1.4)-1*
G04 #@! TF.CreationDate,2020-06-27T18:01:36-05:00*
G04 #@! TF.ProjectId,8266-dev,38323636-2d64-4657-962e-6b696361645f,rev?*
G04 #@! TF.SameCoordinates,Original*
G04 #@! TF.FileFunction,Legend,Top*
G04 #@! TF.FilePolarity,Positive*
%FSLAX46Y46*%
G04 Gerber Fmt 4.6, Leading zero omitted, Abs format (unit mm)*
G04 Created by KiCad (PCBNEW (5.1.4)-1) date 2020-06-27 18:01:36*
%MOMM*%
%LPD*%
G04 APERTURE LIST*
%ADD10C,0.300000*%
%ADD11C,0.120000*%
%ADD12C,0.150000*%
G04 APERTURE END LIST*
D10*
X167642060Y-62885031D02*
X167642060Y-61385031D01*
X168642060Y-61385031D02*
X168927774Y-61385031D01*
X169070631Y-61456460D01*
X169213488Y-61599317D01*
X169284917Y-61885031D01*
X169284917Y-62385031D01*
X169213488Y-62670745D01*
X169070631Y-62813602D01*
X168927774Y-62885031D01*
X168642060Y-62885031D01*
X168499202Y-62813602D01*
X168356345Y-62670745D01*
X168284917Y-62385031D01*
X168284917Y-61885031D01*
X168356345Y-61599317D01*
X168499202Y-61456460D01*
X168642060Y-61385031D01*
X170642060Y-61385031D02*
X169927774Y-61385031D01*
X169856345Y-62099317D01*
X169927774Y-62027888D01*
X170070631Y-61956460D01*
X170427774Y-61956460D01*
X170570631Y-62027888D01*
X170642060Y-62099317D01*
X170713488Y-62242174D01*
X170713488Y-62599317D01*
X170642060Y-62742174D01*
X170570631Y-62813602D01*
X170427774Y-62885031D01*
X170070631Y-62885031D01*
X169927774Y-62813602D01*
X169856345Y-62742174D01*
D11*
X136800000Y-93100000D02*
G75*
G03X136800000Y-93100000I-3000000J0D01*
G01*
X135600000Y-86800000D02*
X140500000Y-86800000D01*
X140500000Y-99400000D02*
X135600000Y-99400000D01*
X132000000Y-99400000D02*
X127100000Y-99400000D01*
X127100000Y-99400000D02*
X127100000Y-96600000D01*
X131900000Y-86800000D02*
X127100000Y-86800000D01*
X127100000Y-86800000D02*
X127100000Y-89300000D01*
X126300000Y-89300000D02*
X126000000Y-89000000D01*
X126000000Y-89000000D02*
X126600000Y-89000000D01*
X126600000Y-89000000D02*
X126300000Y-89300000D01*
X140500000Y-86800000D02*
X140500000Y-89400000D01*
X140500000Y-91800000D02*
X140500000Y-94400000D01*
X140500000Y-96800000D02*
X140500000Y-99400000D01*
X133800000Y-92600000D02*
X133800000Y-93600000D01*
X133300000Y-93100000D02*
X134300000Y-93100000D01*
D12*
X127766666Y-86304761D02*
X127909523Y-86352380D01*
X128147619Y-86352380D01*
X128242857Y-86304761D01*
X128290476Y-86257142D01*
X128338095Y-86161904D01*
X128338095Y-86066666D01*
X128290476Y-85971428D01*
X128242857Y-85923809D01*
X128147619Y-85876190D01*
X127957142Y-85828571D01*
X127861904Y-85780952D01*
X127814285Y-85733333D01*
X127766666Y-85638095D01*
X127766666Y-85542857D01*
X127814285Y-85447619D01*
X127861904Y-85400000D01*
X127957142Y-85352380D01*
X128195238Y-85352380D01*
X128338095Y-85400000D01*
X128671428Y-85352380D02*
X128909523Y-86352380D01*
X129100000Y-85638095D01*
X129290476Y-86352380D01*
X129528571Y-85352380D01*
X130433333Y-86352380D02*
X129861904Y-86352380D01*
X130147619Y-86352380D02*
X130147619Y-85352380D01*
X130052380Y-85495238D01*
X129957142Y-85590476D01*
X129861904Y-85638095D01*
M02*
