G04 #@! TF.GenerationSoftware,KiCad,Pcbnew,(5.1.4)-1*
G04 #@! TF.CreationDate,2020-06-27T18:01:36-05:00*
G04 #@! TF.ProjectId,8266-dev,38323636-2d64-4657-962e-6b696361645f,rev?*
G04 #@! TF.SameCoordinates,Original*
G04 #@! TF.FileFunction,Legend,Bot*
G04 #@! TF.FilePolarity,Positive*
%FSLAX46Y46*%
G04 Gerber Fmt 4.6, Leading zero omitted, Abs format (unit mm)*
G04 Created by KiCad (PCBNEW (5.1.4)-1) date 2020-06-27 18:01:36*
%MOMM*%
%LPD*%
G04 APERTURE LIST*
%ADD10C,0.120000*%
%ADD11C,0.127000*%
%ADD12C,0.150000*%
%ADD13C,0.050000*%
G04 APERTURE END LIST*
D10*
X126031342Y-82477765D02*
G75*
G03X128150000Y-82500000I1068658J877765D01*
G01*
X128168658Y-80722235D02*
G75*
G03X126050000Y-80700000I-1068658J-877765D01*
G01*
X125100000Y-80700000D02*
X126050000Y-80700000D01*
X133577765Y-80868658D02*
G75*
G03X133600000Y-78750000I-877765J1068658D01*
G01*
X131822235Y-78731342D02*
G75*
G03X131800000Y-80850000I877765J-1068658D01*
G01*
X131800000Y-81800000D02*
X131800000Y-80850000D01*
X137831342Y-82777765D02*
G75*
G03X139950000Y-82800000I1068658J877765D01*
G01*
X139968658Y-81022235D02*
G75*
G03X137850000Y-81000000I-1068658J-877765D01*
G01*
X136900000Y-81000000D02*
X137850000Y-81000000D01*
X142431342Y-86877765D02*
G75*
G03X144550000Y-86900000I1068658J877765D01*
G01*
X144568658Y-85122235D02*
G75*
G03X142450000Y-85100000I-1068658J-877765D01*
G01*
X141500000Y-85100000D02*
X142450000Y-85100000D01*
X144631342Y-93477765D02*
G75*
G03X146750000Y-93500000I1068658J877765D01*
G01*
X146768658Y-91722235D02*
G75*
G03X144650000Y-91700000I-1068658J-877765D01*
G01*
X143700000Y-91700000D02*
X144650000Y-91700000D01*
X142631342Y-100777765D02*
G75*
G03X144750000Y-100800000I1068658J877765D01*
G01*
X144768658Y-99022235D02*
G75*
G03X142650000Y-99000000I-1068658J-877765D01*
G01*
X141700000Y-99000000D02*
X142650000Y-99000000D01*
X137931342Y-105677765D02*
G75*
G03X140050000Y-105700000I1068658J877765D01*
G01*
X140068658Y-103922235D02*
G75*
G03X137950000Y-103900000I-1068658J-877765D01*
G01*
X137000000Y-103900000D02*
X137950000Y-103900000D01*
X133677765Y-107068658D02*
G75*
G03X133700000Y-104950000I-877765J1068658D01*
G01*
X131922235Y-104931342D02*
G75*
G03X131900000Y-107050000I877765J-1068658D01*
G01*
X131900000Y-108000000D02*
X131900000Y-107050000D01*
X124831342Y-105077765D02*
G75*
G03X126950000Y-105100000I1068658J877765D01*
G01*
X126968658Y-103322235D02*
G75*
G03X124850000Y-103300000I-1068658J-877765D01*
G01*
X123900000Y-103300000D02*
X124850000Y-103300000D01*
X120131342Y-100577765D02*
G75*
G03X122250000Y-100600000I1068658J877765D01*
G01*
X122268658Y-98822235D02*
G75*
G03X120150000Y-98800000I-1068658J-877765D01*
G01*
X119200000Y-98800000D02*
X120150000Y-98800000D01*
X118531342Y-93577765D02*
G75*
G03X120650000Y-93600000I1068658J877765D01*
G01*
X120668658Y-91822235D02*
G75*
G03X118550000Y-91800000I-1068658J-877765D01*
G01*
X117600000Y-91800000D02*
X118550000Y-91800000D01*
X120731342Y-86877765D02*
G75*
G03X122850000Y-86900000I1068658J877765D01*
G01*
X122868658Y-85122235D02*
G75*
G03X120750000Y-85100000I-1068658J-877765D01*
G01*
X119800000Y-85100000D02*
X120750000Y-85100000D01*
D11*
X159613220Y-54696580D02*
G75*
G03X159613220Y-54696580I-250000J0D01*
G01*
X142113220Y-71071580D02*
X144113220Y-71071580D01*
X142113220Y-70571580D02*
X142113220Y-71071580D01*
X158113220Y-71071580D02*
X156113220Y-71071580D01*
X158113220Y-70571580D02*
X158113220Y-71071580D01*
X142113220Y-47071580D02*
X142113220Y-54571580D01*
X158113220Y-47071580D02*
X142113220Y-47071580D01*
X158113220Y-54571580D02*
X158113220Y-47071580D01*
X156113220Y-69831580D02*
X156113220Y-54831580D01*
X144113220Y-69831580D02*
X156113220Y-69831580D01*
X144113220Y-54831580D02*
X144113220Y-69831580D01*
X156113220Y-54831580D02*
X144113220Y-54831580D01*
D10*
X104290000Y-54002064D02*
X104290000Y-52797936D01*
X106110000Y-54002064D02*
X106110000Y-52797936D01*
X119700000Y-55800000D02*
X116900000Y-55800000D01*
X116900000Y-55800000D02*
X116900000Y-57800000D01*
X116900000Y-57800000D02*
X119700000Y-57800000D01*
X119700000Y-57800000D02*
X119700000Y-55800000D01*
X136097936Y-60290000D02*
X137302064Y-60290000D01*
X136097936Y-62110000D02*
X137302064Y-62110000D01*
X133410000Y-54597936D02*
X133410000Y-55802064D01*
X131590000Y-54597936D02*
X131590000Y-55802064D01*
X102597936Y-57290000D02*
X103802064Y-57290000D01*
X102597936Y-59110000D02*
X103802064Y-59110000D01*
X102810000Y-62297936D02*
X102810000Y-63502064D01*
X100990000Y-62297936D02*
X100990000Y-63502064D01*
X106410000Y-62297936D02*
X106410000Y-63502064D01*
X104590000Y-62297936D02*
X104590000Y-63502064D01*
X169420000Y-110950000D02*
X168630000Y-110950000D01*
X168630000Y-104050000D02*
X169420000Y-104050000D01*
X167580000Y-105900000D02*
X167580000Y-107600000D01*
X170430000Y-104650000D02*
X170430000Y-110350000D01*
X171720000Y-107400000D02*
X170430000Y-107400000D01*
X171930000Y-106300000D02*
X171930000Y-107200000D01*
X170430000Y-106100000D02*
X171720000Y-106100000D01*
X171720000Y-107400000D02*
X171930000Y-107200000D01*
X171720000Y-106100000D02*
X171930000Y-106300000D01*
X167580000Y-108900000D02*
X167580000Y-109100000D01*
X120400000Y-51100000D02*
G75*
G03X120400000Y-51100000I-1200000J0D01*
G01*
X108840000Y-60010000D02*
X108290000Y-60010000D01*
X112510000Y-55790000D02*
X112510000Y-56340000D01*
X111960000Y-55790000D02*
X112510000Y-55790000D01*
X108290000Y-55790000D02*
X108290000Y-56340000D01*
X108840000Y-55790000D02*
X108290000Y-55790000D01*
X112510000Y-60010000D02*
X112510000Y-59460000D01*
X111960000Y-60010000D02*
X112510000Y-60010000D01*
X113190000Y-53102064D02*
X113190000Y-51897936D01*
X115010000Y-53102064D02*
X115010000Y-51897936D01*
X161670000Y-48770000D02*
X168130000Y-48770000D01*
X161670000Y-53300000D02*
X161670000Y-50700000D01*
X161670000Y-55230000D02*
X168130000Y-55230000D01*
X168130000Y-53300000D02*
X168130000Y-50700000D01*
X161670000Y-55200000D02*
X161670000Y-55230000D01*
X161670000Y-48770000D02*
X161670000Y-48800000D01*
X168130000Y-48770000D02*
X168130000Y-48800000D01*
X168130000Y-55230000D02*
X168130000Y-55200000D01*
X146502064Y-136890000D02*
X145297936Y-136890000D01*
X146502064Y-138710000D02*
X145297936Y-138710000D01*
X163290000Y-70331656D02*
X163290000Y-71535784D01*
X165110000Y-70331656D02*
X165110000Y-71535784D01*
X164755304Y-57178180D02*
X163551176Y-57178180D01*
X164755304Y-58998180D02*
X163551176Y-58998180D01*
X164922944Y-62871680D02*
X163718816Y-62871680D01*
X164922944Y-61051680D02*
X163718816Y-61051680D01*
X127002064Y-64610000D02*
X125797936Y-64610000D01*
X127002064Y-62790000D02*
X125797936Y-62790000D01*
X135754576Y-68285100D02*
X136958704Y-68285100D01*
X135754576Y-66465100D02*
X136958704Y-66465100D01*
X160190000Y-70376916D02*
X160190000Y-71581044D01*
X162010000Y-70376916D02*
X162010000Y-71581044D01*
X166019500Y-127142600D02*
X166019500Y-127592600D01*
X167869500Y-127142600D02*
X166019500Y-127142600D01*
X170419500Y-134942600D02*
X170169500Y-134942600D01*
X170419500Y-127142600D02*
X170169500Y-127142600D01*
X167869500Y-134942600D02*
X166019500Y-134942600D01*
X166019500Y-134942600D02*
X166019500Y-134492600D01*
X165469500Y-129342600D02*
X165469500Y-129792600D01*
X165469500Y-129342600D02*
X165919500Y-129342600D01*
X149805900Y-135650600D02*
X147855900Y-135650600D01*
X149805900Y-135650600D02*
X151755900Y-135650600D01*
X149805900Y-130530600D02*
X147855900Y-130530600D01*
X149805900Y-130530600D02*
X153255900Y-130530600D01*
X165346781Y-124536839D02*
X161286781Y-124536839D01*
X161286781Y-124536839D02*
X161286781Y-122266839D01*
X161286781Y-122266839D02*
X165346781Y-122266839D01*
X162929717Y-120971839D02*
X164133845Y-120971839D01*
X162929717Y-119151839D02*
X164133845Y-119151839D01*
X145297936Y-128910000D02*
X146502064Y-128910000D01*
X145297936Y-127090000D02*
X146502064Y-127090000D01*
X141402064Y-118610000D02*
X140197936Y-118610000D01*
X141402064Y-116790000D02*
X140197936Y-116790000D01*
X147590000Y-121110000D02*
X147590000Y-119850000D01*
X147590000Y-114290000D02*
X147590000Y-115550000D01*
X151350000Y-121110000D02*
X147590000Y-121110000D01*
X153600000Y-114290000D02*
X147590000Y-114290000D01*
X151690000Y-123997936D02*
X151690000Y-125202064D01*
X153510000Y-123997936D02*
X153510000Y-125202064D01*
D12*
X128314285Y-84352380D02*
X128314285Y-83352380D01*
X128076190Y-83352380D01*
X127933333Y-83400000D01*
X127838095Y-83495238D01*
X127790476Y-83590476D01*
X127742857Y-83780952D01*
X127742857Y-83923809D01*
X127790476Y-84114285D01*
X127838095Y-84209523D01*
X127933333Y-84304761D01*
X128076190Y-84352380D01*
X128314285Y-84352380D01*
X126790476Y-84352380D02*
X127361904Y-84352380D01*
X127076190Y-84352380D02*
X127076190Y-83352380D01*
X127171428Y-83495238D01*
X127266666Y-83590476D01*
X127361904Y-83638095D01*
X126409523Y-83447619D02*
X126361904Y-83400000D01*
X126266666Y-83352380D01*
X126028571Y-83352380D01*
X125933333Y-83400000D01*
X125885714Y-83447619D01*
X125838095Y-83542857D01*
X125838095Y-83638095D01*
X125885714Y-83780952D01*
X126457142Y-84352380D01*
X125838095Y-84352380D01*
X135452380Y-79061904D02*
X134452380Y-79061904D01*
X134452380Y-79300000D01*
X134500000Y-79442857D01*
X134595238Y-79538095D01*
X134690476Y-79585714D01*
X134880952Y-79633333D01*
X135023809Y-79633333D01*
X135214285Y-79585714D01*
X135309523Y-79538095D01*
X135404761Y-79442857D01*
X135452380Y-79300000D01*
X135452380Y-79061904D01*
X135452380Y-80585714D02*
X135452380Y-80014285D01*
X135452380Y-80300000D02*
X134452380Y-80300000D01*
X134595238Y-80204761D01*
X134690476Y-80109523D01*
X134738095Y-80014285D01*
X139638095Y-84652380D02*
X139638095Y-83652380D01*
X139400000Y-83652380D01*
X139257142Y-83700000D01*
X139161904Y-83795238D01*
X139114285Y-83890476D01*
X139066666Y-84080952D01*
X139066666Y-84223809D01*
X139114285Y-84414285D01*
X139161904Y-84509523D01*
X139257142Y-84604761D01*
X139400000Y-84652380D01*
X139638095Y-84652380D01*
X138685714Y-83747619D02*
X138638095Y-83700000D01*
X138542857Y-83652380D01*
X138304761Y-83652380D01*
X138209523Y-83700000D01*
X138161904Y-83747619D01*
X138114285Y-83842857D01*
X138114285Y-83938095D01*
X138161904Y-84080952D01*
X138733333Y-84652380D01*
X138114285Y-84652380D01*
X144238095Y-88752380D02*
X144238095Y-87752380D01*
X144000000Y-87752380D01*
X143857142Y-87800000D01*
X143761904Y-87895238D01*
X143714285Y-87990476D01*
X143666666Y-88180952D01*
X143666666Y-88323809D01*
X143714285Y-88514285D01*
X143761904Y-88609523D01*
X143857142Y-88704761D01*
X144000000Y-88752380D01*
X144238095Y-88752380D01*
X143333333Y-87752380D02*
X142714285Y-87752380D01*
X143047619Y-88133333D01*
X142904761Y-88133333D01*
X142809523Y-88180952D01*
X142761904Y-88228571D01*
X142714285Y-88323809D01*
X142714285Y-88561904D01*
X142761904Y-88657142D01*
X142809523Y-88704761D01*
X142904761Y-88752380D01*
X143190476Y-88752380D01*
X143285714Y-88704761D01*
X143333333Y-88657142D01*
X146438095Y-95352380D02*
X146438095Y-94352380D01*
X146200000Y-94352380D01*
X146057142Y-94400000D01*
X145961904Y-94495238D01*
X145914285Y-94590476D01*
X145866666Y-94780952D01*
X145866666Y-94923809D01*
X145914285Y-95114285D01*
X145961904Y-95209523D01*
X146057142Y-95304761D01*
X146200000Y-95352380D01*
X146438095Y-95352380D01*
X145009523Y-94685714D02*
X145009523Y-95352380D01*
X145247619Y-94304761D02*
X145485714Y-95019047D01*
X144866666Y-95019047D01*
X144438095Y-102652380D02*
X144438095Y-101652380D01*
X144200000Y-101652380D01*
X144057142Y-101700000D01*
X143961904Y-101795238D01*
X143914285Y-101890476D01*
X143866666Y-102080952D01*
X143866666Y-102223809D01*
X143914285Y-102414285D01*
X143961904Y-102509523D01*
X144057142Y-102604761D01*
X144200000Y-102652380D01*
X144438095Y-102652380D01*
X142961904Y-101652380D02*
X143438095Y-101652380D01*
X143485714Y-102128571D01*
X143438095Y-102080952D01*
X143342857Y-102033333D01*
X143104761Y-102033333D01*
X143009523Y-102080952D01*
X142961904Y-102128571D01*
X142914285Y-102223809D01*
X142914285Y-102461904D01*
X142961904Y-102557142D01*
X143009523Y-102604761D01*
X143104761Y-102652380D01*
X143342857Y-102652380D01*
X143438095Y-102604761D01*
X143485714Y-102557142D01*
X139738095Y-107552380D02*
X139738095Y-106552380D01*
X139500000Y-106552380D01*
X139357142Y-106600000D01*
X139261904Y-106695238D01*
X139214285Y-106790476D01*
X139166666Y-106980952D01*
X139166666Y-107123809D01*
X139214285Y-107314285D01*
X139261904Y-107409523D01*
X139357142Y-107504761D01*
X139500000Y-107552380D01*
X139738095Y-107552380D01*
X138309523Y-106552380D02*
X138500000Y-106552380D01*
X138595238Y-106600000D01*
X138642857Y-106647619D01*
X138738095Y-106790476D01*
X138785714Y-106980952D01*
X138785714Y-107361904D01*
X138738095Y-107457142D01*
X138690476Y-107504761D01*
X138595238Y-107552380D01*
X138404761Y-107552380D01*
X138309523Y-107504761D01*
X138261904Y-107457142D01*
X138214285Y-107361904D01*
X138214285Y-107123809D01*
X138261904Y-107028571D01*
X138309523Y-106980952D01*
X138404761Y-106933333D01*
X138595238Y-106933333D01*
X138690476Y-106980952D01*
X138738095Y-107028571D01*
X138785714Y-107123809D01*
X135552380Y-105261904D02*
X134552380Y-105261904D01*
X134552380Y-105500000D01*
X134600000Y-105642857D01*
X134695238Y-105738095D01*
X134790476Y-105785714D01*
X134980952Y-105833333D01*
X135123809Y-105833333D01*
X135314285Y-105785714D01*
X135409523Y-105738095D01*
X135504761Y-105642857D01*
X135552380Y-105500000D01*
X135552380Y-105261904D01*
X134552380Y-106166666D02*
X134552380Y-106833333D01*
X135552380Y-106404761D01*
X126638095Y-106952380D02*
X126638095Y-105952380D01*
X126400000Y-105952380D01*
X126257142Y-106000000D01*
X126161904Y-106095238D01*
X126114285Y-106190476D01*
X126066666Y-106380952D01*
X126066666Y-106523809D01*
X126114285Y-106714285D01*
X126161904Y-106809523D01*
X126257142Y-106904761D01*
X126400000Y-106952380D01*
X126638095Y-106952380D01*
X125495238Y-106380952D02*
X125590476Y-106333333D01*
X125638095Y-106285714D01*
X125685714Y-106190476D01*
X125685714Y-106142857D01*
X125638095Y-106047619D01*
X125590476Y-106000000D01*
X125495238Y-105952380D01*
X125304761Y-105952380D01*
X125209523Y-106000000D01*
X125161904Y-106047619D01*
X125114285Y-106142857D01*
X125114285Y-106190476D01*
X125161904Y-106285714D01*
X125209523Y-106333333D01*
X125304761Y-106380952D01*
X125495238Y-106380952D01*
X125590476Y-106428571D01*
X125638095Y-106476190D01*
X125685714Y-106571428D01*
X125685714Y-106761904D01*
X125638095Y-106857142D01*
X125590476Y-106904761D01*
X125495238Y-106952380D01*
X125304761Y-106952380D01*
X125209523Y-106904761D01*
X125161904Y-106857142D01*
X125114285Y-106761904D01*
X125114285Y-106571428D01*
X125161904Y-106476190D01*
X125209523Y-106428571D01*
X125304761Y-106380952D01*
X121938095Y-102452380D02*
X121938095Y-101452380D01*
X121700000Y-101452380D01*
X121557142Y-101500000D01*
X121461904Y-101595238D01*
X121414285Y-101690476D01*
X121366666Y-101880952D01*
X121366666Y-102023809D01*
X121414285Y-102214285D01*
X121461904Y-102309523D01*
X121557142Y-102404761D01*
X121700000Y-102452380D01*
X121938095Y-102452380D01*
X120890476Y-102452380D02*
X120700000Y-102452380D01*
X120604761Y-102404761D01*
X120557142Y-102357142D01*
X120461904Y-102214285D01*
X120414285Y-102023809D01*
X120414285Y-101642857D01*
X120461904Y-101547619D01*
X120509523Y-101500000D01*
X120604761Y-101452380D01*
X120795238Y-101452380D01*
X120890476Y-101500000D01*
X120938095Y-101547619D01*
X120985714Y-101642857D01*
X120985714Y-101880952D01*
X120938095Y-101976190D01*
X120890476Y-102023809D01*
X120795238Y-102071428D01*
X120604761Y-102071428D01*
X120509523Y-102023809D01*
X120461904Y-101976190D01*
X120414285Y-101880952D01*
X120814285Y-95452380D02*
X120814285Y-94452380D01*
X120576190Y-94452380D01*
X120433333Y-94500000D01*
X120338095Y-94595238D01*
X120290476Y-94690476D01*
X120242857Y-94880952D01*
X120242857Y-95023809D01*
X120290476Y-95214285D01*
X120338095Y-95309523D01*
X120433333Y-95404761D01*
X120576190Y-95452380D01*
X120814285Y-95452380D01*
X119290476Y-95452380D02*
X119861904Y-95452380D01*
X119576190Y-95452380D02*
X119576190Y-94452380D01*
X119671428Y-94595238D01*
X119766666Y-94690476D01*
X119861904Y-94738095D01*
X118671428Y-94452380D02*
X118576190Y-94452380D01*
X118480952Y-94500000D01*
X118433333Y-94547619D01*
X118385714Y-94642857D01*
X118338095Y-94833333D01*
X118338095Y-95071428D01*
X118385714Y-95261904D01*
X118433333Y-95357142D01*
X118480952Y-95404761D01*
X118576190Y-95452380D01*
X118671428Y-95452380D01*
X118766666Y-95404761D01*
X118814285Y-95357142D01*
X118861904Y-95261904D01*
X118909523Y-95071428D01*
X118909523Y-94833333D01*
X118861904Y-94642857D01*
X118814285Y-94547619D01*
X118766666Y-94500000D01*
X118671428Y-94452380D01*
X123014285Y-88752380D02*
X123014285Y-87752380D01*
X122776190Y-87752380D01*
X122633333Y-87800000D01*
X122538095Y-87895238D01*
X122490476Y-87990476D01*
X122442857Y-88180952D01*
X122442857Y-88323809D01*
X122490476Y-88514285D01*
X122538095Y-88609523D01*
X122633333Y-88704761D01*
X122776190Y-88752380D01*
X123014285Y-88752380D01*
X121490476Y-88752380D02*
X122061904Y-88752380D01*
X121776190Y-88752380D02*
X121776190Y-87752380D01*
X121871428Y-87895238D01*
X121966666Y-87990476D01*
X122061904Y-88038095D01*
X120538095Y-88752380D02*
X121109523Y-88752380D01*
X120823809Y-88752380D02*
X120823809Y-87752380D01*
X120919047Y-87895238D01*
X121014285Y-87990476D01*
X121109523Y-88038095D01*
D13*
X140662491Y-47351959D02*
X140662491Y-48162106D01*
X140614835Y-48257417D01*
X140567180Y-48305073D01*
X140471868Y-48352729D01*
X140281245Y-48352729D01*
X140185934Y-48305073D01*
X140138278Y-48257417D01*
X140090622Y-48162106D01*
X140090622Y-47351959D01*
X139661721Y-47447270D02*
X139614065Y-47399615D01*
X139518754Y-47351959D01*
X139280475Y-47351959D01*
X139185164Y-47399615D01*
X139137508Y-47447270D01*
X139089852Y-47542582D01*
X139089852Y-47637893D01*
X139137508Y-47780860D01*
X139709377Y-48352729D01*
X139089852Y-48352729D01*
X158955143Y-73628505D02*
X158621500Y-73628505D01*
X158478510Y-74152801D02*
X158955143Y-74152801D01*
X158955143Y-73151871D01*
X158478510Y-73151871D01*
X158097203Y-74105138D02*
X157954213Y-74152801D01*
X157715896Y-74152801D01*
X157620570Y-74105138D01*
X157572906Y-74057475D01*
X157525243Y-73962148D01*
X157525243Y-73866821D01*
X157572906Y-73771495D01*
X157620570Y-73723831D01*
X157715896Y-73676168D01*
X157906550Y-73628505D01*
X158001876Y-73580841D01*
X158049540Y-73533178D01*
X158097203Y-73437851D01*
X158097203Y-73342525D01*
X158049540Y-73247198D01*
X158001876Y-73199535D01*
X157906550Y-73151871D01*
X157668233Y-73151871D01*
X157525243Y-73199535D01*
X157096273Y-74152801D02*
X157096273Y-73151871D01*
X156714966Y-73151871D01*
X156619640Y-73199535D01*
X156571976Y-73247198D01*
X156524313Y-73342525D01*
X156524313Y-73485515D01*
X156571976Y-73580841D01*
X156619640Y-73628505D01*
X156714966Y-73676168D01*
X157096273Y-73676168D01*
X155952353Y-73580841D02*
X156047680Y-73533178D01*
X156095343Y-73485515D01*
X156143006Y-73390188D01*
X156143006Y-73342525D01*
X156095343Y-73247198D01*
X156047680Y-73199535D01*
X155952353Y-73151871D01*
X155761700Y-73151871D01*
X155666373Y-73199535D01*
X155618710Y-73247198D01*
X155571046Y-73342525D01*
X155571046Y-73390188D01*
X155618710Y-73485515D01*
X155666373Y-73533178D01*
X155761700Y-73580841D01*
X155952353Y-73580841D01*
X156047680Y-73628505D01*
X156095343Y-73676168D01*
X156143006Y-73771495D01*
X156143006Y-73962148D01*
X156095343Y-74057475D01*
X156047680Y-74105138D01*
X155952353Y-74152801D01*
X155761700Y-74152801D01*
X155666373Y-74105138D01*
X155618710Y-74057475D01*
X155571046Y-73962148D01*
X155571046Y-73771495D01*
X155618710Y-73676168D01*
X155666373Y-73628505D01*
X155761700Y-73580841D01*
X155189740Y-73247198D02*
X155142076Y-73199535D01*
X155046750Y-73151871D01*
X154808433Y-73151871D01*
X154713106Y-73199535D01*
X154665443Y-73247198D01*
X154617780Y-73342525D01*
X154617780Y-73437851D01*
X154665443Y-73580841D01*
X155237403Y-74152801D01*
X154617780Y-74152801D01*
X153759840Y-73151871D02*
X153950493Y-73151871D01*
X154045820Y-73199535D01*
X154093483Y-73247198D01*
X154188810Y-73390188D01*
X154236473Y-73580841D01*
X154236473Y-73962148D01*
X154188810Y-74057475D01*
X154141146Y-74105138D01*
X154045820Y-74152801D01*
X153855166Y-74152801D01*
X153759840Y-74105138D01*
X153712176Y-74057475D01*
X153664513Y-73962148D01*
X153664513Y-73723831D01*
X153712176Y-73628505D01*
X153759840Y-73580841D01*
X153855166Y-73533178D01*
X154045820Y-73533178D01*
X154141146Y-73580841D01*
X154188810Y-73628505D01*
X154236473Y-73723831D01*
X152806573Y-73151871D02*
X152997226Y-73151871D01*
X153092553Y-73199535D01*
X153140216Y-73247198D01*
X153235543Y-73390188D01*
X153283206Y-73580841D01*
X153283206Y-73962148D01*
X153235543Y-74057475D01*
X153187880Y-74105138D01*
X153092553Y-74152801D01*
X152901900Y-74152801D01*
X152806573Y-74105138D01*
X152758910Y-74057475D01*
X152711246Y-73962148D01*
X152711246Y-73723831D01*
X152758910Y-73628505D01*
X152806573Y-73580841D01*
X152901900Y-73533178D01*
X153092553Y-73533178D01*
X153187880Y-73580841D01*
X153235543Y-73628505D01*
X153283206Y-73723831D01*
X152282276Y-73771495D02*
X151519663Y-73771495D01*
X150518733Y-74152801D02*
X151090693Y-74152801D01*
X150804713Y-74152801D02*
X150804713Y-73151871D01*
X150900040Y-73294861D01*
X150995366Y-73390188D01*
X151090693Y-73437851D01*
X150137426Y-73247198D02*
X150089763Y-73199535D01*
X149994436Y-73151871D01*
X149756120Y-73151871D01*
X149660793Y-73199535D01*
X149613130Y-73247198D01*
X149565466Y-73342525D01*
X149565466Y-73437851D01*
X149613130Y-73580841D01*
X150185090Y-74152801D01*
X149565466Y-74152801D01*
X148802853Y-73628505D02*
X149136496Y-73628505D01*
X149136496Y-74152801D02*
X149136496Y-73151871D01*
X148659863Y-73151871D01*
X148516873Y-74248128D02*
X147754260Y-74248128D01*
X147515943Y-73628505D02*
X147182300Y-73628505D01*
X147039310Y-74152801D02*
X147515943Y-74152801D01*
X147515943Y-73151871D01*
X147039310Y-73151871D01*
X146658003Y-74105138D02*
X146515013Y-74152801D01*
X146276696Y-74152801D01*
X146181370Y-74105138D01*
X146133706Y-74057475D01*
X146086043Y-73962148D01*
X146086043Y-73866821D01*
X146133706Y-73771495D01*
X146181370Y-73723831D01*
X146276696Y-73676168D01*
X146467350Y-73628505D01*
X146562676Y-73580841D01*
X146610340Y-73533178D01*
X146658003Y-73437851D01*
X146658003Y-73342525D01*
X146610340Y-73247198D01*
X146562676Y-73199535D01*
X146467350Y-73151871D01*
X146229033Y-73151871D01*
X146086043Y-73199535D01*
X145657073Y-74152801D02*
X145657073Y-73151871D01*
X145275766Y-73151871D01*
X145180440Y-73199535D01*
X145132776Y-73247198D01*
X145085113Y-73342525D01*
X145085113Y-73485515D01*
X145132776Y-73580841D01*
X145180440Y-73628505D01*
X145275766Y-73676168D01*
X145657073Y-73676168D01*
X144656143Y-73771495D02*
X143893530Y-73771495D01*
X142892600Y-74152801D02*
X143464560Y-74152801D01*
X143178580Y-74152801D02*
X143178580Y-73151871D01*
X143273906Y-73294861D01*
X143369233Y-73390188D01*
X143464560Y-73437851D01*
X142511293Y-73247198D02*
X142463630Y-73199535D01*
X142368303Y-73151871D01*
X142129986Y-73151871D01*
X142034660Y-73199535D01*
X141986996Y-73247198D01*
X141939333Y-73342525D01*
X141939333Y-73437851D01*
X141986996Y-73580841D01*
X142558956Y-74152801D01*
X141939333Y-74152801D01*
X141176720Y-73628505D02*
X141510363Y-73628505D01*
X141510363Y-74152801D02*
X141510363Y-73151871D01*
X141033730Y-73151871D01*
D12*
X107472380Y-53233333D02*
X106996190Y-52900000D01*
X107472380Y-52661904D02*
X106472380Y-52661904D01*
X106472380Y-53042857D01*
X106520000Y-53138095D01*
X106567619Y-53185714D01*
X106662857Y-53233333D01*
X106805714Y-53233333D01*
X106900952Y-53185714D01*
X106948571Y-53138095D01*
X106996190Y-53042857D01*
X106996190Y-52661904D01*
X107472380Y-54185714D02*
X107472380Y-53614285D01*
X107472380Y-53900000D02*
X106472380Y-53900000D01*
X106615238Y-53804761D01*
X106710476Y-53709523D01*
X106758095Y-53614285D01*
X119133333Y-54452380D02*
X119133333Y-55166666D01*
X119180952Y-55309523D01*
X119276190Y-55404761D01*
X119419047Y-55452380D01*
X119514285Y-55452380D01*
X118657142Y-55452380D02*
X118657142Y-54452380D01*
X118276190Y-54452380D01*
X118180952Y-54500000D01*
X118133333Y-54547619D01*
X118085714Y-54642857D01*
X118085714Y-54785714D01*
X118133333Y-54880952D01*
X118180952Y-54928571D01*
X118276190Y-54976190D01*
X118657142Y-54976190D01*
X117133333Y-55452380D02*
X117704761Y-55452380D01*
X117419047Y-55452380D02*
X117419047Y-54452380D01*
X117514285Y-54595238D01*
X117609523Y-54690476D01*
X117704761Y-54738095D01*
X136866666Y-63472380D02*
X137200000Y-62996190D01*
X137438095Y-63472380D02*
X137438095Y-62472380D01*
X137057142Y-62472380D01*
X136961904Y-62520000D01*
X136914285Y-62567619D01*
X136866666Y-62662857D01*
X136866666Y-62805714D01*
X136914285Y-62900952D01*
X136961904Y-62948571D01*
X137057142Y-62996190D01*
X137438095Y-62996190D01*
X136533333Y-62472380D02*
X135866666Y-62472380D01*
X136295238Y-63472380D01*
X131132380Y-55033333D02*
X130656190Y-54700000D01*
X131132380Y-54461904D02*
X130132380Y-54461904D01*
X130132380Y-54842857D01*
X130180000Y-54938095D01*
X130227619Y-54985714D01*
X130322857Y-55033333D01*
X130465714Y-55033333D01*
X130560952Y-54985714D01*
X130608571Y-54938095D01*
X130656190Y-54842857D01*
X130656190Y-54461904D01*
X130560952Y-55604761D02*
X130513333Y-55509523D01*
X130465714Y-55461904D01*
X130370476Y-55414285D01*
X130322857Y-55414285D01*
X130227619Y-55461904D01*
X130180000Y-55509523D01*
X130132380Y-55604761D01*
X130132380Y-55795238D01*
X130180000Y-55890476D01*
X130227619Y-55938095D01*
X130322857Y-55985714D01*
X130370476Y-55985714D01*
X130465714Y-55938095D01*
X130513333Y-55890476D01*
X130560952Y-55795238D01*
X130560952Y-55604761D01*
X130608571Y-55509523D01*
X130656190Y-55461904D01*
X130751428Y-55414285D01*
X130941904Y-55414285D01*
X131037142Y-55461904D01*
X131084761Y-55509523D01*
X131132380Y-55604761D01*
X131132380Y-55795238D01*
X131084761Y-55890476D01*
X131037142Y-55938095D01*
X130941904Y-55985714D01*
X130751428Y-55985714D01*
X130656190Y-55938095D01*
X130608571Y-55890476D01*
X130560952Y-55795238D01*
X103366666Y-60472380D02*
X103700000Y-59996190D01*
X103938095Y-60472380D02*
X103938095Y-59472380D01*
X103557142Y-59472380D01*
X103461904Y-59520000D01*
X103414285Y-59567619D01*
X103366666Y-59662857D01*
X103366666Y-59805714D01*
X103414285Y-59900952D01*
X103461904Y-59948571D01*
X103557142Y-59996190D01*
X103938095Y-59996190D01*
X102890476Y-60472380D02*
X102700000Y-60472380D01*
X102604761Y-60424761D01*
X102557142Y-60377142D01*
X102461904Y-60234285D01*
X102414285Y-60043809D01*
X102414285Y-59662857D01*
X102461904Y-59567619D01*
X102509523Y-59520000D01*
X102604761Y-59472380D01*
X102795238Y-59472380D01*
X102890476Y-59520000D01*
X102938095Y-59567619D01*
X102985714Y-59662857D01*
X102985714Y-59900952D01*
X102938095Y-59996190D01*
X102890476Y-60043809D01*
X102795238Y-60091428D01*
X102604761Y-60091428D01*
X102509523Y-60043809D01*
X102461904Y-59996190D01*
X102414285Y-59900952D01*
X100437142Y-62733333D02*
X100484761Y-62685714D01*
X100532380Y-62542857D01*
X100532380Y-62447619D01*
X100484761Y-62304761D01*
X100389523Y-62209523D01*
X100294285Y-62161904D01*
X100103809Y-62114285D01*
X99960952Y-62114285D01*
X99770476Y-62161904D01*
X99675238Y-62209523D01*
X99580000Y-62304761D01*
X99532380Y-62447619D01*
X99532380Y-62542857D01*
X99580000Y-62685714D01*
X99627619Y-62733333D01*
X100532380Y-63685714D02*
X100532380Y-63114285D01*
X100532380Y-63400000D02*
X99532380Y-63400000D01*
X99675238Y-63304761D01*
X99770476Y-63209523D01*
X99818095Y-63114285D01*
X104037142Y-62733333D02*
X104084761Y-62685714D01*
X104132380Y-62542857D01*
X104132380Y-62447619D01*
X104084761Y-62304761D01*
X103989523Y-62209523D01*
X103894285Y-62161904D01*
X103703809Y-62114285D01*
X103560952Y-62114285D01*
X103370476Y-62161904D01*
X103275238Y-62209523D01*
X103180000Y-62304761D01*
X103132380Y-62447619D01*
X103132380Y-62542857D01*
X103180000Y-62685714D01*
X103227619Y-62733333D01*
X103227619Y-63114285D02*
X103180000Y-63161904D01*
X103132380Y-63257142D01*
X103132380Y-63495238D01*
X103180000Y-63590476D01*
X103227619Y-63638095D01*
X103322857Y-63685714D01*
X103418095Y-63685714D01*
X103560952Y-63638095D01*
X104132380Y-63066666D01*
X104132380Y-63685714D01*
X165904761Y-106166666D02*
X165952380Y-106309523D01*
X165952380Y-106547619D01*
X165904761Y-106642857D01*
X165857142Y-106690476D01*
X165761904Y-106738095D01*
X165666666Y-106738095D01*
X165571428Y-106690476D01*
X165523809Y-106642857D01*
X165476190Y-106547619D01*
X165428571Y-106357142D01*
X165380952Y-106261904D01*
X165333333Y-106214285D01*
X165238095Y-106166666D01*
X165142857Y-106166666D01*
X165047619Y-106214285D01*
X165000000Y-106261904D01*
X164952380Y-106357142D01*
X164952380Y-106595238D01*
X165000000Y-106738095D01*
X164952380Y-107071428D02*
X165952380Y-107309523D01*
X165238095Y-107500000D01*
X165952380Y-107690476D01*
X164952380Y-107928571D01*
X165047619Y-108261904D02*
X165000000Y-108309523D01*
X164952380Y-108404761D01*
X164952380Y-108642857D01*
X165000000Y-108738095D01*
X165047619Y-108785714D01*
X165142857Y-108833333D01*
X165238095Y-108833333D01*
X165380952Y-108785714D01*
X165952380Y-108214285D01*
X165952380Y-108833333D01*
X120461904Y-52550380D02*
X119890476Y-52550380D01*
X120176190Y-53550380D02*
X120176190Y-52550380D01*
X119557142Y-53550380D02*
X119557142Y-52550380D01*
X119176190Y-52550380D01*
X119080952Y-52598000D01*
X119033333Y-52645619D01*
X118985714Y-52740857D01*
X118985714Y-52883714D01*
X119033333Y-52978952D01*
X119080952Y-53026571D01*
X119176190Y-53074190D01*
X119557142Y-53074190D01*
X118033333Y-53550380D02*
X118604761Y-53550380D01*
X118319047Y-53550380D02*
X118319047Y-52550380D01*
X118414285Y-52693238D01*
X118509523Y-52788476D01*
X118604761Y-52836095D01*
X111161904Y-60652380D02*
X111161904Y-61461904D01*
X111114285Y-61557142D01*
X111066666Y-61604761D01*
X110971428Y-61652380D01*
X110780952Y-61652380D01*
X110685714Y-61604761D01*
X110638095Y-61557142D01*
X110590476Y-61461904D01*
X110590476Y-60652380D01*
X109590476Y-61652380D02*
X110161904Y-61652380D01*
X109876190Y-61652380D02*
X109876190Y-60652380D01*
X109971428Y-60795238D01*
X110066666Y-60890476D01*
X110161904Y-60938095D01*
X116277142Y-52333333D02*
X116324761Y-52285714D01*
X116372380Y-52142857D01*
X116372380Y-52047619D01*
X116324761Y-51904761D01*
X116229523Y-51809523D01*
X116134285Y-51761904D01*
X115943809Y-51714285D01*
X115800952Y-51714285D01*
X115610476Y-51761904D01*
X115515238Y-51809523D01*
X115420000Y-51904761D01*
X115372380Y-52047619D01*
X115372380Y-52142857D01*
X115420000Y-52285714D01*
X115467619Y-52333333D01*
X115372380Y-52666666D02*
X115372380Y-53285714D01*
X115753333Y-52952380D01*
X115753333Y-53095238D01*
X115800952Y-53190476D01*
X115848571Y-53238095D01*
X115943809Y-53285714D01*
X116181904Y-53285714D01*
X116277142Y-53238095D01*
X116324761Y-53190476D01*
X116372380Y-53095238D01*
X116372380Y-52809523D01*
X116324761Y-52714285D01*
X116277142Y-52666666D01*
X169933333Y-56704761D02*
X169790476Y-56752380D01*
X169552380Y-56752380D01*
X169457142Y-56704761D01*
X169409523Y-56657142D01*
X169361904Y-56561904D01*
X169361904Y-56466666D01*
X169409523Y-56371428D01*
X169457142Y-56323809D01*
X169552380Y-56276190D01*
X169742857Y-56228571D01*
X169838095Y-56180952D01*
X169885714Y-56133333D01*
X169933333Y-56038095D01*
X169933333Y-55942857D01*
X169885714Y-55847619D01*
X169838095Y-55800000D01*
X169742857Y-55752380D01*
X169504761Y-55752380D01*
X169361904Y-55800000D01*
X169028571Y-55752380D02*
X168790476Y-56752380D01*
X168600000Y-56038095D01*
X168409523Y-56752380D01*
X168171428Y-55752380D01*
X167885714Y-55752380D02*
X167266666Y-55752380D01*
X167600000Y-56133333D01*
X167457142Y-56133333D01*
X167361904Y-56180952D01*
X167314285Y-56228571D01*
X167266666Y-56323809D01*
X167266666Y-56561904D01*
X167314285Y-56657142D01*
X167361904Y-56704761D01*
X167457142Y-56752380D01*
X167742857Y-56752380D01*
X167838095Y-56704761D01*
X167885714Y-56657142D01*
X166352380Y-48302380D02*
X166685714Y-47826190D01*
X166923809Y-48302380D02*
X166923809Y-47302380D01*
X166542857Y-47302380D01*
X166447619Y-47350000D01*
X166400000Y-47397619D01*
X166352380Y-47492857D01*
X166352380Y-47635714D01*
X166400000Y-47730952D01*
X166447619Y-47778571D01*
X166542857Y-47826190D01*
X166923809Y-47826190D01*
X165923809Y-47778571D02*
X165590476Y-47778571D01*
X165447619Y-48302380D02*
X165923809Y-48302380D01*
X165923809Y-47302380D01*
X165447619Y-47302380D01*
X165066666Y-48254761D02*
X164923809Y-48302380D01*
X164685714Y-48302380D01*
X164590476Y-48254761D01*
X164542857Y-48207142D01*
X164495238Y-48111904D01*
X164495238Y-48016666D01*
X164542857Y-47921428D01*
X164590476Y-47873809D01*
X164685714Y-47826190D01*
X164876190Y-47778571D01*
X164971428Y-47730952D01*
X165019047Y-47683333D01*
X165066666Y-47588095D01*
X165066666Y-47492857D01*
X165019047Y-47397619D01*
X164971428Y-47350000D01*
X164876190Y-47302380D01*
X164638095Y-47302380D01*
X164495238Y-47350000D01*
X164066666Y-47778571D02*
X163733333Y-47778571D01*
X163590476Y-48302380D02*
X164066666Y-48302380D01*
X164066666Y-47302380D01*
X163590476Y-47302380D01*
X163304761Y-47302380D02*
X162733333Y-47302380D01*
X163019047Y-48302380D02*
X163019047Y-47302380D01*
X143766666Y-134557142D02*
X143814285Y-134604761D01*
X143957142Y-134652380D01*
X144052380Y-134652380D01*
X144195238Y-134604761D01*
X144290476Y-134509523D01*
X144338095Y-134414285D01*
X144385714Y-134223809D01*
X144385714Y-134080952D01*
X144338095Y-133890476D01*
X144290476Y-133795238D01*
X144195238Y-133700000D01*
X144052380Y-133652380D01*
X143957142Y-133652380D01*
X143814285Y-133700000D01*
X143766666Y-133747619D01*
X143290476Y-134652380D02*
X143100000Y-134652380D01*
X143004761Y-134604761D01*
X142957142Y-134557142D01*
X142861904Y-134414285D01*
X142814285Y-134223809D01*
X142814285Y-133842857D01*
X142861904Y-133747619D01*
X142909523Y-133700000D01*
X143004761Y-133652380D01*
X143195238Y-133652380D01*
X143290476Y-133700000D01*
X143338095Y-133747619D01*
X143385714Y-133842857D01*
X143385714Y-134080952D01*
X143338095Y-134176190D01*
X143290476Y-134223809D01*
X143195238Y-134271428D01*
X143004761Y-134271428D01*
X142909523Y-134223809D01*
X142861904Y-134176190D01*
X142814285Y-134080952D01*
X164366666Y-74657142D02*
X164414285Y-74704761D01*
X164557142Y-74752380D01*
X164652380Y-74752380D01*
X164795238Y-74704761D01*
X164890476Y-74609523D01*
X164938095Y-74514285D01*
X164985714Y-74323809D01*
X164985714Y-74180952D01*
X164938095Y-73990476D01*
X164890476Y-73895238D01*
X164795238Y-73800000D01*
X164652380Y-73752380D01*
X164557142Y-73752380D01*
X164414285Y-73800000D01*
X164366666Y-73847619D01*
X163509523Y-74085714D02*
X163509523Y-74752380D01*
X163747619Y-73704761D02*
X163985714Y-74419047D01*
X163366666Y-74419047D01*
X164319906Y-56720560D02*
X164653240Y-56244370D01*
X164891335Y-56720560D02*
X164891335Y-55720560D01*
X164510382Y-55720560D01*
X164415144Y-55768180D01*
X164367525Y-55815799D01*
X164319906Y-55911037D01*
X164319906Y-56053894D01*
X164367525Y-56149132D01*
X164415144Y-56196751D01*
X164510382Y-56244370D01*
X164891335Y-56244370D01*
X163462763Y-56053894D02*
X163462763Y-56720560D01*
X163700859Y-55672941D02*
X163938954Y-56387227D01*
X163319906Y-56387227D01*
X164487546Y-60594060D02*
X164820880Y-60117870D01*
X165058975Y-60594060D02*
X165058975Y-59594060D01*
X164678022Y-59594060D01*
X164582784Y-59641680D01*
X164535165Y-59689299D01*
X164487546Y-59784537D01*
X164487546Y-59927394D01*
X164535165Y-60022632D01*
X164582784Y-60070251D01*
X164678022Y-60117870D01*
X165058975Y-60117870D01*
X164154213Y-59594060D02*
X163535165Y-59594060D01*
X163868499Y-59975013D01*
X163725641Y-59975013D01*
X163630403Y-60022632D01*
X163582784Y-60070251D01*
X163535165Y-60165489D01*
X163535165Y-60403584D01*
X163582784Y-60498822D01*
X163630403Y-60546441D01*
X163725641Y-60594060D01*
X164011356Y-60594060D01*
X164106594Y-60546441D01*
X164154213Y-60498822D01*
X126566666Y-62332380D02*
X126900000Y-61856190D01*
X127138095Y-62332380D02*
X127138095Y-61332380D01*
X126757142Y-61332380D01*
X126661904Y-61380000D01*
X126614285Y-61427619D01*
X126566666Y-61522857D01*
X126566666Y-61665714D01*
X126614285Y-61760952D01*
X126661904Y-61808571D01*
X126757142Y-61856190D01*
X127138095Y-61856190D01*
X126185714Y-61427619D02*
X126138095Y-61380000D01*
X126042857Y-61332380D01*
X125804761Y-61332380D01*
X125709523Y-61380000D01*
X125661904Y-61427619D01*
X125614285Y-61522857D01*
X125614285Y-61618095D01*
X125661904Y-61760952D01*
X126233333Y-62332380D01*
X125614285Y-62332380D01*
X136523306Y-69647480D02*
X136856640Y-69171290D01*
X137094735Y-69647480D02*
X137094735Y-68647480D01*
X136713782Y-68647480D01*
X136618544Y-68695100D01*
X136570925Y-68742719D01*
X136523306Y-68837957D01*
X136523306Y-68980814D01*
X136570925Y-69076052D01*
X136618544Y-69123671D01*
X136713782Y-69171290D01*
X137094735Y-69171290D01*
X135666163Y-68647480D02*
X135856640Y-68647480D01*
X135951878Y-68695100D01*
X135999497Y-68742719D01*
X136094735Y-68885576D01*
X136142354Y-69076052D01*
X136142354Y-69457004D01*
X136094735Y-69552242D01*
X136047116Y-69599861D01*
X135951878Y-69647480D01*
X135761401Y-69647480D01*
X135666163Y-69599861D01*
X135618544Y-69552242D01*
X135570925Y-69457004D01*
X135570925Y-69218909D01*
X135618544Y-69123671D01*
X135666163Y-69076052D01*
X135761401Y-69028433D01*
X135951878Y-69028433D01*
X136047116Y-69076052D01*
X136094735Y-69123671D01*
X136142354Y-69218909D01*
X161266666Y-74657142D02*
X161314285Y-74704761D01*
X161457142Y-74752380D01*
X161552380Y-74752380D01*
X161695238Y-74704761D01*
X161790476Y-74609523D01*
X161838095Y-74514285D01*
X161885714Y-74323809D01*
X161885714Y-74180952D01*
X161838095Y-73990476D01*
X161790476Y-73895238D01*
X161695238Y-73800000D01*
X161552380Y-73752380D01*
X161457142Y-73752380D01*
X161314285Y-73800000D01*
X161266666Y-73847619D01*
X160361904Y-73752380D02*
X160838095Y-73752380D01*
X160885714Y-74228571D01*
X160838095Y-74180952D01*
X160742857Y-74133333D01*
X160504761Y-74133333D01*
X160409523Y-74180952D01*
X160361904Y-74228571D01*
X160314285Y-74323809D01*
X160314285Y-74561904D01*
X160361904Y-74657142D01*
X160409523Y-74704761D01*
X160504761Y-74752380D01*
X160742857Y-74752380D01*
X160838095Y-74704761D01*
X160885714Y-74657142D01*
X164121880Y-130709266D02*
X164836166Y-130709266D01*
X164979023Y-130661647D01*
X165074261Y-130566409D01*
X165121880Y-130423552D01*
X165121880Y-130328314D01*
X164121880Y-131661647D02*
X164121880Y-131185457D01*
X164598071Y-131137838D01*
X164550452Y-131185457D01*
X164502833Y-131280695D01*
X164502833Y-131518790D01*
X164550452Y-131614028D01*
X164598071Y-131661647D01*
X164693309Y-131709266D01*
X164931404Y-131709266D01*
X165026642Y-131661647D01*
X165074261Y-131614028D01*
X165121880Y-131518790D01*
X165121880Y-131280695D01*
X165074261Y-131185457D01*
X165026642Y-131137838D01*
X153061904Y-128352380D02*
X153061904Y-129161904D01*
X153014285Y-129257142D01*
X152966666Y-129304761D01*
X152871428Y-129352380D01*
X152680952Y-129352380D01*
X152585714Y-129304761D01*
X152538095Y-129257142D01*
X152490476Y-129161904D01*
X152490476Y-128352380D01*
X151585714Y-128685714D02*
X151585714Y-129352380D01*
X151823809Y-128304761D02*
X152061904Y-129019047D01*
X151442857Y-129019047D01*
X164961066Y-125674219D02*
X164961066Y-124674219D01*
X164722971Y-124674219D01*
X164580114Y-124721839D01*
X164484876Y-124817077D01*
X164437257Y-124912315D01*
X164389638Y-125102791D01*
X164389638Y-125245648D01*
X164437257Y-125436124D01*
X164484876Y-125531362D01*
X164580114Y-125626600D01*
X164722971Y-125674219D01*
X164961066Y-125674219D01*
X164008685Y-124769458D02*
X163961066Y-124721839D01*
X163865828Y-124674219D01*
X163627733Y-124674219D01*
X163532495Y-124721839D01*
X163484876Y-124769458D01*
X163437257Y-124864696D01*
X163437257Y-124959934D01*
X163484876Y-125102791D01*
X164056304Y-125674219D01*
X163437257Y-125674219D01*
X162484876Y-125674219D02*
X163056304Y-125674219D01*
X162770590Y-125674219D02*
X162770590Y-124674219D01*
X162865828Y-124817077D01*
X162961066Y-124912315D01*
X163056304Y-124959934D01*
X163698447Y-122334219D02*
X164031781Y-121858029D01*
X164269876Y-122334219D02*
X164269876Y-121334219D01*
X163888923Y-121334219D01*
X163793685Y-121381839D01*
X163746066Y-121429458D01*
X163698447Y-121524696D01*
X163698447Y-121667553D01*
X163746066Y-121762791D01*
X163793685Y-121810410D01*
X163888923Y-121858029D01*
X164269876Y-121858029D01*
X162793685Y-121334219D02*
X163269876Y-121334219D01*
X163317495Y-121810410D01*
X163269876Y-121762791D01*
X163174638Y-121715172D01*
X162936542Y-121715172D01*
X162841304Y-121762791D01*
X162793685Y-121810410D01*
X162746066Y-121905648D01*
X162746066Y-122143743D01*
X162793685Y-122238981D01*
X162841304Y-122286600D01*
X162936542Y-122334219D01*
X163174638Y-122334219D01*
X163269876Y-122286600D01*
X163317495Y-122238981D01*
X146066666Y-126057142D02*
X146114285Y-126104761D01*
X146257142Y-126152380D01*
X146352380Y-126152380D01*
X146495238Y-126104761D01*
X146590476Y-126009523D01*
X146638095Y-125914285D01*
X146685714Y-125723809D01*
X146685714Y-125580952D01*
X146638095Y-125390476D01*
X146590476Y-125295238D01*
X146495238Y-125200000D01*
X146352380Y-125152380D01*
X146257142Y-125152380D01*
X146114285Y-125200000D01*
X146066666Y-125247619D01*
X145209523Y-125152380D02*
X145400000Y-125152380D01*
X145495238Y-125200000D01*
X145542857Y-125247619D01*
X145638095Y-125390476D01*
X145685714Y-125580952D01*
X145685714Y-125961904D01*
X145638095Y-126057142D01*
X145590476Y-126104761D01*
X145495238Y-126152380D01*
X145304761Y-126152380D01*
X145209523Y-126104761D01*
X145161904Y-126057142D01*
X145114285Y-125961904D01*
X145114285Y-125723809D01*
X145161904Y-125628571D01*
X145209523Y-125580952D01*
X145304761Y-125533333D01*
X145495238Y-125533333D01*
X145590476Y-125580952D01*
X145638095Y-125628571D01*
X145685714Y-125723809D01*
X140966666Y-116237142D02*
X141014285Y-116284761D01*
X141157142Y-116332380D01*
X141252380Y-116332380D01*
X141395238Y-116284761D01*
X141490476Y-116189523D01*
X141538095Y-116094285D01*
X141585714Y-115903809D01*
X141585714Y-115760952D01*
X141538095Y-115570476D01*
X141490476Y-115475238D01*
X141395238Y-115380000D01*
X141252380Y-115332380D01*
X141157142Y-115332380D01*
X141014285Y-115380000D01*
X140966666Y-115427619D01*
X140395238Y-115760952D02*
X140490476Y-115713333D01*
X140538095Y-115665714D01*
X140585714Y-115570476D01*
X140585714Y-115522857D01*
X140538095Y-115427619D01*
X140490476Y-115380000D01*
X140395238Y-115332380D01*
X140204761Y-115332380D01*
X140109523Y-115380000D01*
X140061904Y-115427619D01*
X140014285Y-115522857D01*
X140014285Y-115570476D01*
X140061904Y-115665714D01*
X140109523Y-115713333D01*
X140204761Y-115760952D01*
X140395238Y-115760952D01*
X140490476Y-115808571D01*
X140538095Y-115856190D01*
X140585714Y-115951428D01*
X140585714Y-116141904D01*
X140538095Y-116237142D01*
X140490476Y-116284761D01*
X140395238Y-116332380D01*
X140204761Y-116332380D01*
X140109523Y-116284761D01*
X140061904Y-116237142D01*
X140014285Y-116141904D01*
X140014285Y-115951428D01*
X140061904Y-115856190D01*
X140109523Y-115808571D01*
X140204761Y-115760952D01*
X150261904Y-112652380D02*
X150261904Y-113461904D01*
X150214285Y-113557142D01*
X150166666Y-113604761D01*
X150071428Y-113652380D01*
X149880952Y-113652380D01*
X149785714Y-113604761D01*
X149738095Y-113557142D01*
X149690476Y-113461904D01*
X149690476Y-112652380D01*
X149309523Y-112652380D02*
X148690476Y-112652380D01*
X149023809Y-113033333D01*
X148880952Y-113033333D01*
X148785714Y-113080952D01*
X148738095Y-113128571D01*
X148690476Y-113223809D01*
X148690476Y-113461904D01*
X148738095Y-113557142D01*
X148785714Y-113604761D01*
X148880952Y-113652380D01*
X149166666Y-113652380D01*
X149261904Y-113604761D01*
X149309523Y-113557142D01*
X151137142Y-124433333D02*
X151184761Y-124385714D01*
X151232380Y-124242857D01*
X151232380Y-124147619D01*
X151184761Y-124004761D01*
X151089523Y-123909523D01*
X150994285Y-123861904D01*
X150803809Y-123814285D01*
X150660952Y-123814285D01*
X150470476Y-123861904D01*
X150375238Y-123909523D01*
X150280000Y-124004761D01*
X150232380Y-124147619D01*
X150232380Y-124242857D01*
X150280000Y-124385714D01*
X150327619Y-124433333D01*
X150232380Y-124766666D02*
X150232380Y-125433333D01*
X151232380Y-125004761D01*
M02*
