%TF.GenerationSoftware,KiCad,Pcbnew,(6.0.7)*%
%TF.CreationDate,2022-09-06T18:29:54-05:00*%
%TF.ProjectId,BsidesKC 2022 Poster - Simple,42736964-6573-44b4-9320-323032322050,rev?*%
%TF.SameCoordinates,Original*%
%TF.FileFunction,Legend,Bot*%
%TF.FilePolarity,Positive*%
%FSLAX46Y46*%
G04 Gerber Fmt 4.6, Leading zero omitted, Abs format (unit mm)*
G04 Created by KiCad (PCBNEW (6.0.7)) date 2022-09-06 18:29:54*
%MOMM*%
%LPD*%
G01*
G04 APERTURE LIST*
%ADD10C,0.150000*%
%ADD11C,0.500000*%
G04 APERTURE END LIST*
D10*
%TO.C,X1*%
X156093561Y-135558161D02*
X155998323Y-135605780D01*
X155807847Y-135605780D01*
X155712609Y-135558161D01*
X155664990Y-135462923D01*
X155664990Y-135415304D01*
X155712609Y-135320066D01*
X155807847Y-135272447D01*
X155950704Y-135272447D01*
X156045942Y-135224828D01*
X156093561Y-135129590D01*
X156093561Y-135081971D01*
X156045942Y-134986733D01*
X155950704Y-134939114D01*
X155807847Y-134939114D01*
X155712609Y-134986733D01*
X154807847Y-135605780D02*
X154807847Y-135081971D01*
X154855466Y-134986733D01*
X154950704Y-134939114D01*
X155141180Y-134939114D01*
X155236419Y-134986733D01*
X154807847Y-135558161D02*
X154903085Y-135605780D01*
X155141180Y-135605780D01*
X155236419Y-135558161D01*
X155284038Y-135462923D01*
X155284038Y-135367685D01*
X155236419Y-135272447D01*
X155141180Y-135224828D01*
X154903085Y-135224828D01*
X154807847Y-135177209D01*
X154188800Y-135605780D02*
X154284038Y-135558161D01*
X154331657Y-135510542D01*
X154379276Y-135415304D01*
X154379276Y-135129590D01*
X154331657Y-135034352D01*
X154284038Y-134986733D01*
X154188800Y-134939114D01*
X154045942Y-134939114D01*
X153950704Y-134986733D01*
X153903085Y-135034352D01*
X153855466Y-135129590D01*
X153855466Y-135415304D01*
X153903085Y-135510542D01*
X153950704Y-135558161D01*
X154045942Y-135605780D01*
X154188800Y-135605780D01*
X153664990Y-135701019D02*
X152903085Y-135701019D01*
X152760228Y-134939114D02*
X152522133Y-135605780D01*
X152284038Y-134939114D01*
X151379276Y-135605780D02*
X151950704Y-135605780D01*
X151664990Y-135605780D02*
X151664990Y-134605780D01*
X151760228Y-134748638D01*
X151855466Y-134843876D01*
X151950704Y-134891495D01*
X150522133Y-134605780D02*
X150712609Y-134605780D01*
X150807847Y-134653400D01*
X150855466Y-134701019D01*
X150950704Y-134843876D01*
X150998323Y-135034352D01*
X150998323Y-135415304D01*
X150950704Y-135510542D01*
X150903085Y-135558161D01*
X150807847Y-135605780D01*
X150617371Y-135605780D01*
X150522133Y-135558161D01*
X150474514Y-135510542D01*
X150426895Y-135415304D01*
X150426895Y-135177209D01*
X150474514Y-135081971D01*
X150522133Y-135034352D01*
X150617371Y-134986733D01*
X150807847Y-134986733D01*
X150903085Y-135034352D01*
X150950704Y-135081971D01*
X150998323Y-135177209D01*
X149950704Y-135605780D02*
X149760228Y-135605780D01*
X149664990Y-135558161D01*
X149617371Y-135510542D01*
X149522133Y-135367685D01*
X149474514Y-135177209D01*
X149474514Y-134796257D01*
X149522133Y-134701019D01*
X149569752Y-134653400D01*
X149664990Y-134605780D01*
X149855466Y-134605780D01*
X149950704Y-134653400D01*
X149998323Y-134701019D01*
X150045942Y-134796257D01*
X150045942Y-135034352D01*
X149998323Y-135129590D01*
X149950704Y-135177209D01*
X149855466Y-135224828D01*
X149664990Y-135224828D01*
X149569752Y-135177209D01*
X149522133Y-135129590D01*
X149474514Y-135034352D01*
X149045942Y-135605780D02*
X149045942Y-134605780D01*
X149045942Y-134986733D02*
X148950704Y-134939114D01*
X148760228Y-134939114D01*
X148664990Y-134986733D01*
X148617371Y-135034352D01*
X148569752Y-135129590D01*
X148569752Y-135415304D01*
X148617371Y-135510542D01*
X148664990Y-135558161D01*
X148760228Y-135605780D01*
X148950704Y-135605780D01*
X149045942Y-135558161D01*
X148141180Y-135605780D02*
X148141180Y-134939114D01*
X148141180Y-134605780D02*
X148188800Y-134653400D01*
X148141180Y-134701019D01*
X148093561Y-134653400D01*
X148141180Y-134605780D01*
X148141180Y-134701019D01*
X147712609Y-135558161D02*
X147617371Y-135605780D01*
X147426895Y-135605780D01*
X147331657Y-135558161D01*
X147284038Y-135462923D01*
X147284038Y-135415304D01*
X147331657Y-135320066D01*
X147426895Y-135272447D01*
X147569752Y-135272447D01*
X147664990Y-135224828D01*
X147712609Y-135129590D01*
X147712609Y-135081971D01*
X147664990Y-134986733D01*
X147569752Y-134939114D01*
X147426895Y-134939114D01*
X147331657Y-134986733D01*
X149767800Y-127224285D02*
X149517800Y-127974285D01*
X149267800Y-127224285D01*
X148589228Y-127902857D02*
X148624942Y-127938571D01*
X148732085Y-127974285D01*
X148803514Y-127974285D01*
X148910657Y-127938571D01*
X148982085Y-127867142D01*
X149017800Y-127795714D01*
X149053514Y-127652857D01*
X149053514Y-127545714D01*
X149017800Y-127402857D01*
X148982085Y-127331428D01*
X148910657Y-127260000D01*
X148803514Y-127224285D01*
X148732085Y-127224285D01*
X148624942Y-127260000D01*
X148589228Y-127295714D01*
X147839228Y-127902857D02*
X147874942Y-127938571D01*
X147982085Y-127974285D01*
X148053514Y-127974285D01*
X148160657Y-127938571D01*
X148232085Y-127867142D01*
X148267800Y-127795714D01*
X148303514Y-127652857D01*
X148303514Y-127545714D01*
X148267800Y-127402857D01*
X148232085Y-127331428D01*
X148160657Y-127260000D01*
X148053514Y-127224285D01*
X147982085Y-127224285D01*
X147874942Y-127260000D01*
X147839228Y-127295714D01*
X155742342Y-132873400D02*
X155813771Y-132837685D01*
X155920914Y-132837685D01*
X156028057Y-132873400D01*
X156099485Y-132944828D01*
X156135200Y-133016257D01*
X156170914Y-133159114D01*
X156170914Y-133266257D01*
X156135200Y-133409114D01*
X156099485Y-133480542D01*
X156028057Y-133551971D01*
X155920914Y-133587685D01*
X155849485Y-133587685D01*
X155742342Y-133551971D01*
X155706628Y-133516257D01*
X155706628Y-133266257D01*
X155849485Y-133266257D01*
X155385200Y-133587685D02*
X155385200Y-132837685D01*
X155099485Y-132837685D01*
X155028057Y-132873400D01*
X154992342Y-132909114D01*
X154956628Y-132980542D01*
X154956628Y-133087685D01*
X154992342Y-133159114D01*
X155028057Y-133194828D01*
X155099485Y-133230542D01*
X155385200Y-133230542D01*
X154635200Y-133587685D02*
X154635200Y-132837685D01*
X154135200Y-132837685D02*
X153992342Y-132837685D01*
X153920914Y-132873400D01*
X153849485Y-132944828D01*
X153813771Y-133087685D01*
X153813771Y-133337685D01*
X153849485Y-133480542D01*
X153920914Y-133551971D01*
X153992342Y-133587685D01*
X154135200Y-133587685D01*
X154206628Y-133551971D01*
X154278057Y-133480542D01*
X154313771Y-133337685D01*
X154313771Y-133087685D01*
X154278057Y-132944828D01*
X154206628Y-132873400D01*
X154135200Y-132837685D01*
X153528057Y-132909114D02*
X153492342Y-132873400D01*
X153420914Y-132837685D01*
X153242342Y-132837685D01*
X153170914Y-132873400D01*
X153135200Y-132909114D01*
X153099485Y-132980542D01*
X153099485Y-133051971D01*
X153135200Y-133159114D01*
X153563771Y-133587685D01*
X153099485Y-133587685D01*
X149390028Y-132898800D02*
X149461457Y-132863085D01*
X149568600Y-132863085D01*
X149675742Y-132898800D01*
X149747171Y-132970228D01*
X149782885Y-133041657D01*
X149818600Y-133184514D01*
X149818600Y-133291657D01*
X149782885Y-133434514D01*
X149747171Y-133505942D01*
X149675742Y-133577371D01*
X149568600Y-133613085D01*
X149497171Y-133613085D01*
X149390028Y-133577371D01*
X149354314Y-133541657D01*
X149354314Y-133291657D01*
X149497171Y-133291657D01*
X149032885Y-133613085D02*
X149032885Y-132863085D01*
X148604314Y-133613085D01*
X148604314Y-132863085D01*
X148247171Y-133613085D02*
X148247171Y-132863085D01*
X148068600Y-132863085D01*
X147961457Y-132898800D01*
X147890028Y-132970228D01*
X147854314Y-133041657D01*
X147818600Y-133184514D01*
X147818600Y-133291657D01*
X147854314Y-133434514D01*
X147890028Y-133505942D01*
X147961457Y-133577371D01*
X148068600Y-133613085D01*
X148247171Y-133613085D01*
X155615342Y-127234600D02*
X155686771Y-127198885D01*
X155793914Y-127198885D01*
X155901057Y-127234600D01*
X155972485Y-127306028D01*
X156008200Y-127377457D01*
X156043914Y-127520314D01*
X156043914Y-127627457D01*
X156008200Y-127770314D01*
X155972485Y-127841742D01*
X155901057Y-127913171D01*
X155793914Y-127948885D01*
X155722485Y-127948885D01*
X155615342Y-127913171D01*
X155579628Y-127877457D01*
X155579628Y-127627457D01*
X155722485Y-127627457D01*
X155258200Y-127948885D02*
X155258200Y-127198885D01*
X154972485Y-127198885D01*
X154901057Y-127234600D01*
X154865342Y-127270314D01*
X154829628Y-127341742D01*
X154829628Y-127448885D01*
X154865342Y-127520314D01*
X154901057Y-127556028D01*
X154972485Y-127591742D01*
X155258200Y-127591742D01*
X154508200Y-127948885D02*
X154508200Y-127198885D01*
X154008200Y-127198885D02*
X153865342Y-127198885D01*
X153793914Y-127234600D01*
X153722485Y-127306028D01*
X153686771Y-127448885D01*
X153686771Y-127698885D01*
X153722485Y-127841742D01*
X153793914Y-127913171D01*
X153865342Y-127948885D01*
X154008200Y-127948885D01*
X154079628Y-127913171D01*
X154151057Y-127841742D01*
X154186771Y-127698885D01*
X154186771Y-127448885D01*
X154151057Y-127306028D01*
X154079628Y-127234600D01*
X154008200Y-127198885D01*
X152972485Y-127948885D02*
X153401057Y-127948885D01*
X153186771Y-127948885D02*
X153186771Y-127198885D01*
X153258200Y-127306028D01*
X153329628Y-127377457D01*
X153401057Y-127413171D01*
X152472514Y-127913171D02*
X152365371Y-127948885D01*
X152186800Y-127948885D01*
X152115371Y-127913171D01*
X152079657Y-127877457D01*
X152043942Y-127806028D01*
X152043942Y-127734600D01*
X152079657Y-127663171D01*
X152115371Y-127627457D01*
X152186800Y-127591742D01*
X152329657Y-127556028D01*
X152401085Y-127520314D01*
X152436800Y-127484600D01*
X152472514Y-127413171D01*
X152472514Y-127341742D01*
X152436800Y-127270314D01*
X152401085Y-127234600D01*
X152329657Y-127198885D01*
X152151085Y-127198885D01*
X152043942Y-127234600D01*
X151722514Y-127948885D02*
X151722514Y-127198885D01*
X151543942Y-127198885D01*
X151436800Y-127234600D01*
X151365371Y-127306028D01*
X151329657Y-127377457D01*
X151293942Y-127520314D01*
X151293942Y-127627457D01*
X151329657Y-127770314D01*
X151365371Y-127841742D01*
X151436800Y-127913171D01*
X151543942Y-127948885D01*
X151722514Y-127948885D01*
X151008228Y-127734600D02*
X150651085Y-127734600D01*
X151079657Y-127948885D02*
X150829657Y-127198885D01*
X150579657Y-127948885D01*
X152200657Y-133577371D02*
X152093514Y-133613085D01*
X151914942Y-133613085D01*
X151843514Y-133577371D01*
X151807800Y-133541657D01*
X151772085Y-133470228D01*
X151772085Y-133398800D01*
X151807800Y-133327371D01*
X151843514Y-133291657D01*
X151914942Y-133255942D01*
X152057800Y-133220228D01*
X152129228Y-133184514D01*
X152164942Y-133148800D01*
X152200657Y-133077371D01*
X152200657Y-133005942D01*
X152164942Y-132934514D01*
X152129228Y-132898800D01*
X152057800Y-132863085D01*
X151879228Y-132863085D01*
X151772085Y-132898800D01*
X151022085Y-133541657D02*
X151057800Y-133577371D01*
X151164942Y-133613085D01*
X151236371Y-133613085D01*
X151343514Y-133577371D01*
X151414942Y-133505942D01*
X151450657Y-133434514D01*
X151486371Y-133291657D01*
X151486371Y-133184514D01*
X151450657Y-133041657D01*
X151414942Y-132970228D01*
X151343514Y-132898800D01*
X151236371Y-132863085D01*
X151164942Y-132863085D01*
X151057800Y-132898800D01*
X151022085Y-132934514D01*
X150343514Y-133613085D02*
X150700657Y-133613085D01*
X150700657Y-132863085D01*
D11*
X149428200Y-126238000D02*
X149428200Y-126746000D01*
X158318200Y-133985000D02*
X158318200Y-126873000D01*
X144983200Y-133985000D02*
X158318200Y-133985000D01*
X153746200Y-126746000D02*
X153746200Y-126238000D01*
X144983200Y-126873000D02*
X144983200Y-133985000D01*
X158191200Y-126873000D02*
X144983200Y-126873000D01*
X153746200Y-126238000D02*
X149428200Y-126238000D01*
X149428200Y-126619000D02*
X153746200Y-126619000D01*
X146177000Y-127711200D02*
G75*
G03*
X146177000Y-127711200I-254000J0D01*
G01*
%TD*%
M02*
