%TF.GenerationSoftware,KiCad,Pcbnew,(6.0.7)*%
%TF.CreationDate,2022-09-06T18:29:53-05:00*%
%TF.ProjectId,BsidesKC 2022 Poster - Simple,42736964-6573-44b4-9320-323032322050,rev?*%
%TF.SameCoordinates,Original*%
%TF.FileFunction,Copper,L2,Bot*%
%TF.FilePolarity,Positive*%
%FSLAX46Y46*%
G04 Gerber Fmt 4.6, Leading zero omitted, Abs format (unit mm)*
G04 Created by KiCad (PCBNEW (6.0.7)) date 2022-09-06 18:29:53*
%MOMM*%
%LPD*%
G01*
G04 APERTURE LIST*
%TA.AperFunction,EtchedComponent*%
%ADD10C,0.010000*%
%TD*%
%TA.AperFunction,ComponentPad*%
%ADD11O,1.727200X1.727200*%
%TD*%
%TA.AperFunction,ComponentPad*%
%ADD12R,1.727200X1.727200*%
%TD*%
%TA.AperFunction,ComponentPad*%
%ADD13C,1.727200*%
%TD*%
G04 APERTURE END LIST*
%TO.C,G\u002A\u002A\u002A*%
G36*
X140895172Y-79994540D02*
G01*
X140981360Y-80113494D01*
X141121194Y-80306489D01*
X141227654Y-80488692D01*
X141292235Y-80599222D01*
X141331392Y-80682621D01*
X141337540Y-80697103D01*
X141406340Y-80859166D01*
X141485882Y-81062583D01*
X141555782Y-81256623D01*
X141558270Y-81263530D01*
X141565031Y-81283340D01*
X141620262Y-81449945D01*
X141658120Y-81583099D01*
X141681949Y-81705123D01*
X141693018Y-81817308D01*
X141695092Y-81838336D01*
X141697760Y-81915000D01*
X141700894Y-82005061D01*
X141702697Y-82227616D01*
X141702975Y-82307551D01*
X141701948Y-82473718D01*
X141699746Y-82518148D01*
X141694877Y-82616445D01*
X141678104Y-82737436D01*
X141677202Y-82743943D01*
X141644366Y-82864423D01*
X141591809Y-82986096D01*
X141514972Y-83117173D01*
X141452881Y-83204539D01*
X141409298Y-83265865D01*
X141369937Y-83315257D01*
X141270226Y-83440383D01*
X141121062Y-83616109D01*
X141093197Y-83648937D01*
X140873654Y-83899740D01*
X140607037Y-84201000D01*
X140568874Y-84244310D01*
X140388696Y-84459460D01*
X140357753Y-84496409D01*
X140288100Y-84591769D01*
X140201717Y-84710034D01*
X140193267Y-84721603D01*
X140063520Y-84939509D01*
X140034734Y-85001504D01*
X139956619Y-85169744D01*
X139860668Y-85431923D01*
X139854191Y-85451462D01*
X139853969Y-85452134D01*
X139822526Y-85549154D01*
X139804614Y-85604426D01*
X139798038Y-85627308D01*
X139768598Y-85729760D01*
X139743494Y-85845653D01*
X139726873Y-85969621D01*
X139723450Y-86018077D01*
X139717376Y-86104080D01*
X139716310Y-86119183D01*
X139710633Y-86276924D01*
X139709377Y-86311855D01*
X139703646Y-86565154D01*
X139703542Y-86569555D01*
X139703347Y-86577816D01*
X139698886Y-86767134D01*
X139692441Y-86979708D01*
X139685515Y-87156919D01*
X139678675Y-87284506D01*
X139672489Y-87348209D01*
X139669980Y-87354908D01*
X139619752Y-87408960D01*
X139518483Y-87487587D01*
X139381520Y-87581092D01*
X139224208Y-87679777D01*
X139061895Y-87773944D01*
X138909925Y-87853894D01*
X138783646Y-87909929D01*
X138676184Y-87950450D01*
X138676184Y-87478631D01*
X138675598Y-87388900D01*
X138663445Y-87127165D01*
X138632383Y-86932483D01*
X138578214Y-86797162D01*
X138496739Y-86713509D01*
X138383759Y-86673833D01*
X138235076Y-86670442D01*
X138214817Y-86672022D01*
X138114354Y-86690138D01*
X138052031Y-86737308D01*
X137995606Y-86835796D01*
X137983886Y-86861412D01*
X137956795Y-86941294D01*
X137936316Y-87044947D01*
X137920784Y-87185966D01*
X137908538Y-87377948D01*
X137897913Y-87634487D01*
X137875108Y-88279767D01*
X137738338Y-88315513D01*
X137665005Y-88333874D01*
X137520340Y-88368117D01*
X137367108Y-88402715D01*
X137264103Y-88422794D01*
X137101493Y-88446679D01*
X136970316Y-88457278D01*
X136807987Y-88460385D01*
X136794470Y-87921259D01*
X136788080Y-87720201D01*
X136777830Y-87544655D01*
X136762930Y-87421548D01*
X136741603Y-87336996D01*
X136712075Y-87277111D01*
X136653126Y-87208486D01*
X136530478Y-87143460D01*
X136395285Y-87142448D01*
X136265478Y-87203862D01*
X136158988Y-87326112D01*
X136157656Y-87328403D01*
X136124013Y-87397244D01*
X136101453Y-87477184D01*
X136087826Y-87584974D01*
X136080982Y-87737371D01*
X136078770Y-87951128D01*
X136077569Y-88440846D01*
X135921261Y-88450813D01*
X135869332Y-88450478D01*
X135731860Y-88436877D01*
X135558339Y-88409727D01*
X135374184Y-88372659D01*
X134983415Y-88284539D01*
X134982546Y-87639769D01*
X134981784Y-87463940D01*
X134978232Y-87259153D01*
X134970713Y-87110281D01*
X134958021Y-87004039D01*
X134938949Y-86927147D01*
X134912290Y-86866321D01*
X134886193Y-86831698D01*
X137464800Y-86831698D01*
X137464801Y-86832137D01*
X137487300Y-86858136D01*
X137551435Y-86822915D01*
X137653206Y-86728662D01*
X137691525Y-86686935D01*
X137745701Y-86615517D01*
X137757513Y-86577816D01*
X137753124Y-86576213D01*
X137707103Y-86598212D01*
X137633595Y-86653552D01*
X137554264Y-86723441D01*
X137490777Y-86789087D01*
X137464800Y-86831698D01*
X134886193Y-86831698D01*
X134841503Y-86772409D01*
X134715251Y-86691154D01*
X134573091Y-86665735D01*
X134469557Y-86690550D01*
X134435504Y-86698712D01*
X134322971Y-86792648D01*
X134307966Y-86813993D01*
X134278161Y-86871174D01*
X134257474Y-86946003D01*
X134243629Y-87053608D01*
X134234347Y-87209114D01*
X134227350Y-87427648D01*
X134219287Y-87649096D01*
X134206799Y-87820032D01*
X134190085Y-87919905D01*
X134168735Y-87952379D01*
X134167506Y-87952308D01*
X134114175Y-87931936D01*
X134008702Y-87880491D01*
X133865785Y-87805443D01*
X133700124Y-87714261D01*
X133605094Y-87660183D01*
X133441671Y-87561392D01*
X133331693Y-87483199D01*
X133263395Y-87416654D01*
X133225010Y-87352805D01*
X133224319Y-87351126D01*
X133201571Y-87257139D01*
X133185875Y-87101741D01*
X133176865Y-86879427D01*
X133174957Y-86670173D01*
X133800524Y-86670173D01*
X133809348Y-86689457D01*
X133862849Y-86730633D01*
X133921011Y-86715763D01*
X133940695Y-86690550D01*
X133936762Y-86642674D01*
X133866467Y-86623769D01*
X133819786Y-86633302D01*
X133800524Y-86670173D01*
X133174957Y-86670173D01*
X133174177Y-86584692D01*
X134729415Y-86584692D01*
X134729863Y-86593536D01*
X134746648Y-86623769D01*
X134752916Y-86621971D01*
X134788031Y-86584692D01*
X134794137Y-86569555D01*
X134770798Y-86545616D01*
X134759456Y-86547117D01*
X134729415Y-86584692D01*
X133174177Y-86584692D01*
X133172684Y-86414692D01*
X137546139Y-86414692D01*
X137560885Y-86464862D01*
X137581153Y-86484541D01*
X137652721Y-86505296D01*
X137678492Y-86503879D01*
X137692404Y-86489442D01*
X137643499Y-86447084D01*
X137631095Y-86439788D01*
X137886060Y-86439788D01*
X137928147Y-86489442D01*
X137950411Y-86515709D01*
X137981235Y-86534378D01*
X138019236Y-86537140D01*
X138071109Y-86504648D01*
X138158415Y-86427790D01*
X138244788Y-86340720D01*
X138278108Y-86276924D01*
X138243997Y-86242993D01*
X138141954Y-86233000D01*
X138050794Y-86243064D01*
X137945991Y-86289090D01*
X137911606Y-86330692D01*
X137887833Y-86359456D01*
X137886060Y-86439788D01*
X137631095Y-86439788D01*
X137582585Y-86411255D01*
X137546139Y-86414692D01*
X133172684Y-86414692D01*
X133172106Y-86348887D01*
X133171272Y-86330692D01*
X134690338Y-86330692D01*
X134709877Y-86350231D01*
X134729415Y-86330692D01*
X134709877Y-86311154D01*
X134690338Y-86330692D01*
X133171272Y-86330692D01*
X133156087Y-85999453D01*
X133151247Y-85958484D01*
X133914137Y-85958484D01*
X133923312Y-86013568D01*
X133986954Y-86037616D01*
X134032379Y-86044943D01*
X134065108Y-86076692D01*
X134066243Y-86086033D01*
X134104184Y-86115769D01*
X134121440Y-86115351D01*
X134139431Y-86104080D01*
X134132641Y-86061292D01*
X134118113Y-86018077D01*
X138598031Y-86018077D01*
X138617569Y-86037616D01*
X138637108Y-86018077D01*
X138617569Y-85998539D01*
X138598031Y-86018077D01*
X134118113Y-86018077D01*
X134100559Y-85965858D01*
X134075212Y-85902913D01*
X134038375Y-85866830D01*
X133983328Y-85883248D01*
X133960030Y-85897955D01*
X133914137Y-85958484D01*
X133151247Y-85958484D01*
X133120648Y-85699454D01*
X133104731Y-85627308D01*
X134104184Y-85627308D01*
X134123723Y-85646846D01*
X134143261Y-85627308D01*
X139106031Y-85627308D01*
X139125569Y-85646846D01*
X139145108Y-85627308D01*
X139125569Y-85607769D01*
X139106031Y-85627308D01*
X134143261Y-85627308D01*
X134123723Y-85607769D01*
X134104184Y-85627308D01*
X133104731Y-85627308D01*
X133096618Y-85590537D01*
X137582031Y-85590537D01*
X137583047Y-85594437D01*
X137621108Y-85607769D01*
X137631818Y-85606179D01*
X137660184Y-85566386D01*
X137657116Y-85552252D01*
X137621108Y-85549154D01*
X137609413Y-85557174D01*
X137582031Y-85590537D01*
X133096618Y-85590537D01*
X133078106Y-85506628D01*
X138175887Y-85506628D01*
X138205056Y-85550929D01*
X138267957Y-85562074D01*
X138308344Y-85549154D01*
X138988800Y-85549154D01*
X139008338Y-85568692D01*
X139027877Y-85549154D01*
X139008338Y-85529616D01*
X138988800Y-85549154D01*
X138308344Y-85549154D01*
X138334777Y-85540698D01*
X138375702Y-85487440D01*
X138381996Y-85456216D01*
X138370687Y-85431138D01*
X139153456Y-85431138D01*
X139155986Y-85456216D01*
X139158133Y-85477513D01*
X139169887Y-85483626D01*
X139184184Y-85451462D01*
X139181364Y-85430774D01*
X139158133Y-85425410D01*
X139153456Y-85431138D01*
X138370687Y-85431138D01*
X138365760Y-85420213D01*
X138292462Y-85419853D01*
X138219974Y-85443334D01*
X138177083Y-85491685D01*
X138175887Y-85506628D01*
X133078106Y-85506628D01*
X133061522Y-85431462D01*
X132974442Y-85178046D01*
X132904990Y-85028858D01*
X133937752Y-85028858D01*
X134016762Y-85107869D01*
X134029544Y-85119362D01*
X134129740Y-85177092D01*
X134251942Y-85215437D01*
X134346737Y-85228843D01*
X134391823Y-85219533D01*
X134395907Y-85181651D01*
X134390726Y-85152388D01*
X134380713Y-85071362D01*
X134352840Y-85021620D01*
X134283008Y-84961358D01*
X134228083Y-84931392D01*
X135910216Y-84931392D01*
X135945641Y-85071990D01*
X136015318Y-85181651D01*
X136026834Y-85199777D01*
X136155087Y-85328430D01*
X136276750Y-85409134D01*
X136446566Y-85452213D01*
X136613359Y-85426053D01*
X136762267Y-85333735D01*
X136878431Y-85178345D01*
X136923822Y-85068557D01*
X136950664Y-84904435D01*
X137797932Y-84904435D01*
X137803827Y-84966820D01*
X137807716Y-84975164D01*
X137853303Y-85013529D01*
X137907514Y-85019509D01*
X137933723Y-84987323D01*
X137933225Y-84981171D01*
X137908874Y-84940174D01*
X138793415Y-84940174D01*
X138812774Y-84987323D01*
X138818317Y-85000824D01*
X138891283Y-85055480D01*
X138979031Y-85069775D01*
X139049622Y-85046406D01*
X139057392Y-85001504D01*
X138994451Y-84929037D01*
X138971899Y-84912487D01*
X138894245Y-84888148D01*
X138823999Y-84897973D01*
X138793415Y-84940174D01*
X137908874Y-84940174D01*
X137902672Y-84929733D01*
X137848898Y-84890321D01*
X137805820Y-84889006D01*
X137802810Y-84894893D01*
X137797932Y-84904435D01*
X136950664Y-84904435D01*
X136952225Y-84894893D01*
X136944687Y-84818550D01*
X138012118Y-84818550D01*
X138039656Y-84826231D01*
X138074546Y-84812710D01*
X138134092Y-84757846D01*
X138160185Y-84723638D01*
X138162713Y-84710034D01*
X138109569Y-84746789D01*
X138055846Y-84785990D01*
X138015133Y-84815173D01*
X138012118Y-84818550D01*
X136944687Y-84818550D01*
X136932513Y-84695243D01*
X136897810Y-84571445D01*
X139974072Y-84571445D01*
X139978749Y-84617821D01*
X139990502Y-84623934D01*
X140004800Y-84591769D01*
X140001980Y-84571082D01*
X139978749Y-84565718D01*
X139974072Y-84571445D01*
X136897810Y-84571445D01*
X136869998Y-84472232D01*
X137503877Y-84472232D01*
X137507911Y-84493875D01*
X137547407Y-84533482D01*
X137596119Y-84525579D01*
X137606728Y-84513412D01*
X137616385Y-84459460D01*
X137562492Y-84435462D01*
X137535562Y-84439599D01*
X137503877Y-84472232D01*
X136869998Y-84472232D01*
X136864348Y-84452075D01*
X136762080Y-84174702D01*
X136711946Y-84064231D01*
X137308492Y-84064231D01*
X137328031Y-84083769D01*
X137347569Y-84064231D01*
X137328031Y-84044692D01*
X137308492Y-84064231D01*
X136711946Y-84064231D01*
X136660164Y-83950127D01*
X136564439Y-83797891D01*
X136473181Y-83715291D01*
X136384666Y-83699621D01*
X136379368Y-83700729D01*
X136341856Y-83716452D01*
X136305502Y-83752549D01*
X136264680Y-83819615D01*
X136213763Y-83928246D01*
X136147124Y-84089037D01*
X136059135Y-84312583D01*
X135971499Y-84557054D01*
X135919266Y-84764305D01*
X135914853Y-84845769D01*
X135910216Y-84931392D01*
X134228083Y-84931392D01*
X134215101Y-84924309D01*
X134153042Y-84923994D01*
X134063023Y-84964078D01*
X133937752Y-85028858D01*
X132904990Y-85028858D01*
X132855140Y-84921776D01*
X132812323Y-84845769D01*
X134065108Y-84845769D01*
X134084646Y-84865308D01*
X134104184Y-84845769D01*
X134084646Y-84826231D01*
X134065108Y-84845769D01*
X132812323Y-84845769D01*
X132699350Y-84645223D01*
X132579053Y-84444676D01*
X132877274Y-84303051D01*
X133175496Y-84161427D01*
X133378975Y-84277846D01*
X133390500Y-84284386D01*
X133672116Y-84408420D01*
X133949532Y-84458252D01*
X134234372Y-84436030D01*
X134436141Y-84383482D01*
X134746453Y-84242321D01*
X135013446Y-84038106D01*
X135235245Y-83773282D01*
X135409978Y-83450293D01*
X135535773Y-83071584D01*
X135610756Y-82639598D01*
X135615201Y-82599093D01*
X135634380Y-82474827D01*
X135638683Y-82463518D01*
X137258326Y-82463518D01*
X137264652Y-82805638D01*
X137324460Y-83126385D01*
X137367553Y-83256002D01*
X137501992Y-83543136D01*
X137678108Y-83810796D01*
X137883843Y-84044380D01*
X137907815Y-84064231D01*
X138107137Y-84229289D01*
X138335928Y-84350920D01*
X138653269Y-84435893D01*
X138959336Y-84446908D01*
X139247533Y-84381881D01*
X139517204Y-84240960D01*
X139563402Y-84201000D01*
X140356492Y-84201000D01*
X140363105Y-84218977D01*
X140415108Y-84240077D01*
X140442072Y-84235668D01*
X140473723Y-84201000D01*
X140467110Y-84183024D01*
X140415108Y-84161923D01*
X140388143Y-84166332D01*
X140356492Y-84201000D01*
X139563402Y-84201000D01*
X139767695Y-84024294D01*
X139802834Y-83986397D01*
X139974882Y-83766096D01*
X140032697Y-83653795D01*
X140494719Y-83653795D01*
X140500038Y-83690409D01*
X140530816Y-83656387D01*
X140530990Y-83656110D01*
X140584191Y-83632943D01*
X140675155Y-83635450D01*
X140735975Y-83639340D01*
X140778818Y-83616109D01*
X140758993Y-83570543D01*
X140676349Y-83517657D01*
X140624853Y-83479319D01*
X140588316Y-83380888D01*
X140582790Y-83351502D01*
X140563880Y-83378804D01*
X140558057Y-83397617D01*
X140533156Y-83478077D01*
X140523161Y-83517154D01*
X140514816Y-83549787D01*
X140494719Y-83653795D01*
X140032697Y-83653795D01*
X140095067Y-83532646D01*
X140099813Y-83517154D01*
X140395569Y-83517154D01*
X140415108Y-83536692D01*
X140434646Y-83517154D01*
X140415108Y-83497616D01*
X140395569Y-83517154D01*
X140099813Y-83517154D01*
X140129032Y-83421768D01*
X140395569Y-83421768D01*
X140396688Y-83430492D01*
X140434646Y-83458539D01*
X140453321Y-83451083D01*
X140473723Y-83397617D01*
X140468100Y-83369705D01*
X140434646Y-83360846D01*
X140423974Y-83368845D01*
X140395569Y-83421768D01*
X140129032Y-83421768D01*
X140158059Y-83327010D01*
X140832327Y-83327010D01*
X140864492Y-83341308D01*
X140885179Y-83338488D01*
X140890543Y-83315257D01*
X140884816Y-83310580D01*
X140838441Y-83315257D01*
X140832327Y-83327010D01*
X140158059Y-83327010D01*
X140180235Y-83254615D01*
X140190508Y-83204539D01*
X140590954Y-83204539D01*
X140610492Y-83224077D01*
X140630031Y-83204539D01*
X140610492Y-83185000D01*
X140590954Y-83204539D01*
X140190508Y-83204539D01*
X140205640Y-83130781D01*
X140237074Y-82737436D01*
X140217216Y-82555765D01*
X140561188Y-82555765D01*
X140562343Y-82642341D01*
X140569249Y-82677000D01*
X140592084Y-82645601D01*
X140608093Y-82569594D01*
X140612256Y-82483447D01*
X140604873Y-82445083D01*
X141303919Y-82445083D01*
X141313877Y-82481616D01*
X141315148Y-82483447D01*
X141321905Y-82493183D01*
X141357566Y-82520692D01*
X141362911Y-82518148D01*
X141352954Y-82481616D01*
X141344925Y-82470048D01*
X141309264Y-82442539D01*
X141303919Y-82445083D01*
X140604873Y-82445083D01*
X140600367Y-82421669D01*
X140591554Y-82409595D01*
X140572245Y-82426743D01*
X140562245Y-82520839D01*
X140561188Y-82555765D01*
X140217216Y-82555765D01*
X140195068Y-82353152D01*
X140082160Y-81987129D01*
X140016378Y-81864266D01*
X140203139Y-81864266D01*
X140223354Y-81934874D01*
X140242600Y-81975489D01*
X140267696Y-81991212D01*
X140305807Y-81938724D01*
X140313418Y-81926158D01*
X140323130Y-81895462D01*
X140942646Y-81895462D01*
X140949259Y-81913438D01*
X141001261Y-81934539D01*
X141028226Y-81930130D01*
X141042039Y-81915000D01*
X141098954Y-81915000D01*
X141118492Y-81934539D01*
X141138031Y-81915000D01*
X141118492Y-81895462D01*
X141098954Y-81915000D01*
X141042039Y-81915000D01*
X141059877Y-81895462D01*
X141053264Y-81877485D01*
X141001261Y-81856385D01*
X140974297Y-81860793D01*
X140965728Y-81870178D01*
X140942646Y-81895462D01*
X140323130Y-81895462D01*
X140331129Y-81870178D01*
X140290445Y-81839402D01*
X140256600Y-81830152D01*
X140207991Y-81835552D01*
X140203139Y-81864266D01*
X140016378Y-81864266D01*
X139991236Y-81817308D01*
X140493261Y-81817308D01*
X140501260Y-81827980D01*
X140554183Y-81856385D01*
X140562907Y-81855266D01*
X140590954Y-81817308D01*
X140583498Y-81798633D01*
X140530032Y-81778231D01*
X140502120Y-81783854D01*
X140493261Y-81817308D01*
X139991236Y-81817308D01*
X139900889Y-81648565D01*
X139653793Y-81346657D01*
X139646506Y-81339378D01*
X139580787Y-81286070D01*
X140960643Y-81286070D01*
X140961127Y-81346673D01*
X140970533Y-81359968D01*
X141030086Y-81384079D01*
X141108808Y-81332948D01*
X141162703Y-81302943D01*
X141267907Y-81298426D01*
X141277777Y-81300221D01*
X141351442Y-81299419D01*
X141372492Y-81256623D01*
X141367138Y-81224224D01*
X141317554Y-81163474D01*
X141242540Y-81142595D01*
X141175558Y-81174845D01*
X141174950Y-81175138D01*
X141138705Y-81205225D01*
X141076012Y-81215717D01*
X141067078Y-81213160D01*
X141005366Y-81230844D01*
X140960643Y-81286070D01*
X139580787Y-81286070D01*
X139442566Y-81173953D01*
X140493938Y-81173953D01*
X140534537Y-81207052D01*
X140583803Y-81224426D01*
X140622613Y-81222398D01*
X140630031Y-81174845D01*
X140621121Y-81127725D01*
X140576372Y-81094842D01*
X140516230Y-81129328D01*
X140493938Y-81173953D01*
X139442566Y-81173953D01*
X139384069Y-81126503D01*
X139102427Y-80983471D01*
X138810755Y-80909431D01*
X138518228Y-80903532D01*
X138234021Y-80964924D01*
X137967308Y-81092754D01*
X137727264Y-81286171D01*
X137523065Y-81544325D01*
X137395050Y-81803402D01*
X137302716Y-82122087D01*
X137258326Y-82463518D01*
X135638683Y-82463518D01*
X135667420Y-82387993D01*
X135729661Y-82309374D01*
X135836444Y-82209752D01*
X135991607Y-82066187D01*
X136226180Y-81836409D01*
X136480727Y-81575699D01*
X136739641Y-81300703D01*
X136987312Y-81028069D01*
X137208132Y-80774447D01*
X137261805Y-80708856D01*
X140128943Y-80708856D01*
X140161108Y-80723154D01*
X140181795Y-80720334D01*
X140187159Y-80697103D01*
X140181431Y-80692426D01*
X140135056Y-80697103D01*
X140128943Y-80708856D01*
X137261805Y-80708856D01*
X137386492Y-80556483D01*
X137402477Y-80536294D01*
X137486152Y-80440474D01*
X137548824Y-80384800D01*
X137577967Y-80380769D01*
X137632437Y-80454207D01*
X137728569Y-80488094D01*
X137755519Y-80468369D01*
X137981149Y-80468369D01*
X137985826Y-80514744D01*
X137997579Y-80520857D01*
X138011877Y-80488692D01*
X138009057Y-80468005D01*
X137985826Y-80462641D01*
X137981149Y-80468369D01*
X137755519Y-80468369D01*
X137766056Y-80460657D01*
X137776077Y-80392535D01*
X137758284Y-80315662D01*
X137714649Y-80262066D01*
X137703390Y-80253309D01*
X137695949Y-80222794D01*
X137715770Y-80168602D01*
X137768152Y-80081322D01*
X137808722Y-80022976D01*
X140122031Y-80022976D01*
X140122098Y-80024337D01*
X140151852Y-80030503D01*
X140219421Y-79996835D01*
X140288894Y-79965133D01*
X140366234Y-79956482D01*
X140415626Y-79976509D01*
X140413632Y-80022157D01*
X140397971Y-80037912D01*
X140335858Y-80044295D01*
X140307837Y-80040482D01*
X140244704Y-80071826D01*
X140233719Y-80093149D01*
X140262767Y-80113422D01*
X140359078Y-80119238D01*
X140391666Y-80119107D01*
X140478120Y-80117118D01*
X140512800Y-80113494D01*
X140510522Y-80105436D01*
X140490205Y-80044883D01*
X140455675Y-79945840D01*
X140442798Y-79905748D01*
X140418956Y-79793640D01*
X140419549Y-79716235D01*
X140427499Y-79689925D01*
X140428627Y-79670323D01*
X140396578Y-79716923D01*
X140345524Y-79760437D01*
X140252301Y-79785308D01*
X140225739Y-79786023D01*
X140171988Y-79805267D01*
X140172420Y-79863423D01*
X140177656Y-79912880D01*
X140157439Y-79963421D01*
X140150268Y-79968635D01*
X140122031Y-80022976D01*
X137808722Y-80022976D01*
X137858392Y-79951544D01*
X137991791Y-79769858D01*
X138134566Y-79572691D01*
X138207261Y-79572691D01*
X138207642Y-79578154D01*
X138230262Y-79586759D01*
X138269608Y-79544809D01*
X138279116Y-79522971D01*
X138252376Y-79527576D01*
X138235017Y-79539639D01*
X138207261Y-79572691D01*
X138134566Y-79572691D01*
X138141530Y-79563074D01*
X138299644Y-79335923D01*
X138363569Y-79335923D01*
X138383108Y-79355462D01*
X138402646Y-79335923D01*
X138383108Y-79316385D01*
X138363569Y-79335923D01*
X138299644Y-79335923D01*
X138308646Y-79322991D01*
X138379778Y-79217162D01*
X139801572Y-79217162D01*
X139806973Y-79251419D01*
X139825979Y-79277958D01*
X139841806Y-79335923D01*
X139848492Y-79360415D01*
X139849130Y-79367596D01*
X139888972Y-79430499D01*
X139971727Y-79489369D01*
X140009294Y-79507495D01*
X140049463Y-79522971D01*
X140106647Y-79545003D01*
X140148191Y-79542617D01*
X140128451Y-79499967D01*
X140108767Y-79460243D01*
X140105999Y-79372967D01*
X140111734Y-79341978D01*
X140091079Y-79244508D01*
X140014060Y-79187675D01*
X139894730Y-79184045D01*
X139867475Y-79190015D01*
X139801572Y-79217162D01*
X138379778Y-79217162D01*
X138468691Y-79084880D01*
X138545925Y-78964692D01*
X139477261Y-78964692D01*
X139485282Y-78976387D01*
X139518645Y-79003769D01*
X139522544Y-79002753D01*
X139535877Y-78964692D01*
X139534287Y-78953982D01*
X139494494Y-78925616D01*
X139480360Y-78928684D01*
X139477261Y-78964692D01*
X138545925Y-78964692D01*
X138601236Y-78878619D01*
X138620305Y-78847929D01*
X138719930Y-78688466D01*
X138803199Y-78556596D01*
X138861877Y-78465288D01*
X138887727Y-78427509D01*
X138900137Y-78425529D01*
X138969098Y-78448420D01*
X139083825Y-78502857D01*
X139230681Y-78581151D01*
X139396025Y-78675618D01*
X139566220Y-78778570D01*
X139727626Y-78882321D01*
X139845812Y-78964692D01*
X139866605Y-78979184D01*
X140032513Y-79108506D01*
X140336302Y-79379038D01*
X140495286Y-79542617D01*
X140628698Y-79679886D01*
X140895172Y-79994540D01*
G37*
D10*
X140895172Y-79994540D02*
X140981360Y-80113494D01*
X141121194Y-80306489D01*
X141227654Y-80488692D01*
X141292235Y-80599222D01*
X141331392Y-80682621D01*
X141337540Y-80697103D01*
X141406340Y-80859166D01*
X141485882Y-81062583D01*
X141555782Y-81256623D01*
X141558270Y-81263530D01*
X141565031Y-81283340D01*
X141620262Y-81449945D01*
X141658120Y-81583099D01*
X141681949Y-81705123D01*
X141693018Y-81817308D01*
X141695092Y-81838336D01*
X141697760Y-81915000D01*
X141700894Y-82005061D01*
X141702697Y-82227616D01*
X141702975Y-82307551D01*
X141701948Y-82473718D01*
X141699746Y-82518148D01*
X141694877Y-82616445D01*
X141678104Y-82737436D01*
X141677202Y-82743943D01*
X141644366Y-82864423D01*
X141591809Y-82986096D01*
X141514972Y-83117173D01*
X141452881Y-83204539D01*
X141409298Y-83265865D01*
X141369937Y-83315257D01*
X141270226Y-83440383D01*
X141121062Y-83616109D01*
X141093197Y-83648937D01*
X140873654Y-83899740D01*
X140607037Y-84201000D01*
X140568874Y-84244310D01*
X140388696Y-84459460D01*
X140357753Y-84496409D01*
X140288100Y-84591769D01*
X140201717Y-84710034D01*
X140193267Y-84721603D01*
X140063520Y-84939509D01*
X140034734Y-85001504D01*
X139956619Y-85169744D01*
X139860668Y-85431923D01*
X139854191Y-85451462D01*
X139853969Y-85452134D01*
X139822526Y-85549154D01*
X139804614Y-85604426D01*
X139798038Y-85627308D01*
X139768598Y-85729760D01*
X139743494Y-85845653D01*
X139726873Y-85969621D01*
X139723450Y-86018077D01*
X139717376Y-86104080D01*
X139716310Y-86119183D01*
X139710633Y-86276924D01*
X139709377Y-86311855D01*
X139703646Y-86565154D01*
X139703542Y-86569555D01*
X139703347Y-86577816D01*
X139698886Y-86767134D01*
X139692441Y-86979708D01*
X139685515Y-87156919D01*
X139678675Y-87284506D01*
X139672489Y-87348209D01*
X139669980Y-87354908D01*
X139619752Y-87408960D01*
X139518483Y-87487587D01*
X139381520Y-87581092D01*
X139224208Y-87679777D01*
X139061895Y-87773944D01*
X138909925Y-87853894D01*
X138783646Y-87909929D01*
X138676184Y-87950450D01*
X138676184Y-87478631D01*
X138675598Y-87388900D01*
X138663445Y-87127165D01*
X138632383Y-86932483D01*
X138578214Y-86797162D01*
X138496739Y-86713509D01*
X138383759Y-86673833D01*
X138235076Y-86670442D01*
X138214817Y-86672022D01*
X138114354Y-86690138D01*
X138052031Y-86737308D01*
X137995606Y-86835796D01*
X137983886Y-86861412D01*
X137956795Y-86941294D01*
X137936316Y-87044947D01*
X137920784Y-87185966D01*
X137908538Y-87377948D01*
X137897913Y-87634487D01*
X137875108Y-88279767D01*
X137738338Y-88315513D01*
X137665005Y-88333874D01*
X137520340Y-88368117D01*
X137367108Y-88402715D01*
X137264103Y-88422794D01*
X137101493Y-88446679D01*
X136970316Y-88457278D01*
X136807987Y-88460385D01*
X136794470Y-87921259D01*
X136788080Y-87720201D01*
X136777830Y-87544655D01*
X136762930Y-87421548D01*
X136741603Y-87336996D01*
X136712075Y-87277111D01*
X136653126Y-87208486D01*
X136530478Y-87143460D01*
X136395285Y-87142448D01*
X136265478Y-87203862D01*
X136158988Y-87326112D01*
X136157656Y-87328403D01*
X136124013Y-87397244D01*
X136101453Y-87477184D01*
X136087826Y-87584974D01*
X136080982Y-87737371D01*
X136078770Y-87951128D01*
X136077569Y-88440846D01*
X135921261Y-88450813D01*
X135869332Y-88450478D01*
X135731860Y-88436877D01*
X135558339Y-88409727D01*
X135374184Y-88372659D01*
X134983415Y-88284539D01*
X134982546Y-87639769D01*
X134981784Y-87463940D01*
X134978232Y-87259153D01*
X134970713Y-87110281D01*
X134958021Y-87004039D01*
X134938949Y-86927147D01*
X134912290Y-86866321D01*
X134886193Y-86831698D01*
X137464800Y-86831698D01*
X137464801Y-86832137D01*
X137487300Y-86858136D01*
X137551435Y-86822915D01*
X137653206Y-86728662D01*
X137691525Y-86686935D01*
X137745701Y-86615517D01*
X137757513Y-86577816D01*
X137753124Y-86576213D01*
X137707103Y-86598212D01*
X137633595Y-86653552D01*
X137554264Y-86723441D01*
X137490777Y-86789087D01*
X137464800Y-86831698D01*
X134886193Y-86831698D01*
X134841503Y-86772409D01*
X134715251Y-86691154D01*
X134573091Y-86665735D01*
X134469557Y-86690550D01*
X134435504Y-86698712D01*
X134322971Y-86792648D01*
X134307966Y-86813993D01*
X134278161Y-86871174D01*
X134257474Y-86946003D01*
X134243629Y-87053608D01*
X134234347Y-87209114D01*
X134227350Y-87427648D01*
X134219287Y-87649096D01*
X134206799Y-87820032D01*
X134190085Y-87919905D01*
X134168735Y-87952379D01*
X134167506Y-87952308D01*
X134114175Y-87931936D01*
X134008702Y-87880491D01*
X133865785Y-87805443D01*
X133700124Y-87714261D01*
X133605094Y-87660183D01*
X133441671Y-87561392D01*
X133331693Y-87483199D01*
X133263395Y-87416654D01*
X133225010Y-87352805D01*
X133224319Y-87351126D01*
X133201571Y-87257139D01*
X133185875Y-87101741D01*
X133176865Y-86879427D01*
X133174957Y-86670173D01*
X133800524Y-86670173D01*
X133809348Y-86689457D01*
X133862849Y-86730633D01*
X133921011Y-86715763D01*
X133940695Y-86690550D01*
X133936762Y-86642674D01*
X133866467Y-86623769D01*
X133819786Y-86633302D01*
X133800524Y-86670173D01*
X133174957Y-86670173D01*
X133174177Y-86584692D01*
X134729415Y-86584692D01*
X134729863Y-86593536D01*
X134746648Y-86623769D01*
X134752916Y-86621971D01*
X134788031Y-86584692D01*
X134794137Y-86569555D01*
X134770798Y-86545616D01*
X134759456Y-86547117D01*
X134729415Y-86584692D01*
X133174177Y-86584692D01*
X133172684Y-86414692D01*
X137546139Y-86414692D01*
X137560885Y-86464862D01*
X137581153Y-86484541D01*
X137652721Y-86505296D01*
X137678492Y-86503879D01*
X137692404Y-86489442D01*
X137643499Y-86447084D01*
X137631095Y-86439788D01*
X137886060Y-86439788D01*
X137928147Y-86489442D01*
X137950411Y-86515709D01*
X137981235Y-86534378D01*
X138019236Y-86537140D01*
X138071109Y-86504648D01*
X138158415Y-86427790D01*
X138244788Y-86340720D01*
X138278108Y-86276924D01*
X138243997Y-86242993D01*
X138141954Y-86233000D01*
X138050794Y-86243064D01*
X137945991Y-86289090D01*
X137911606Y-86330692D01*
X137887833Y-86359456D01*
X137886060Y-86439788D01*
X137631095Y-86439788D01*
X137582585Y-86411255D01*
X137546139Y-86414692D01*
X133172684Y-86414692D01*
X133172106Y-86348887D01*
X133171272Y-86330692D01*
X134690338Y-86330692D01*
X134709877Y-86350231D01*
X134729415Y-86330692D01*
X134709877Y-86311154D01*
X134690338Y-86330692D01*
X133171272Y-86330692D01*
X133156087Y-85999453D01*
X133151247Y-85958484D01*
X133914137Y-85958484D01*
X133923312Y-86013568D01*
X133986954Y-86037616D01*
X134032379Y-86044943D01*
X134065108Y-86076692D01*
X134066243Y-86086033D01*
X134104184Y-86115769D01*
X134121440Y-86115351D01*
X134139431Y-86104080D01*
X134132641Y-86061292D01*
X134118113Y-86018077D01*
X138598031Y-86018077D01*
X138617569Y-86037616D01*
X138637108Y-86018077D01*
X138617569Y-85998539D01*
X138598031Y-86018077D01*
X134118113Y-86018077D01*
X134100559Y-85965858D01*
X134075212Y-85902913D01*
X134038375Y-85866830D01*
X133983328Y-85883248D01*
X133960030Y-85897955D01*
X133914137Y-85958484D01*
X133151247Y-85958484D01*
X133120648Y-85699454D01*
X133104731Y-85627308D01*
X134104184Y-85627308D01*
X134123723Y-85646846D01*
X134143261Y-85627308D01*
X139106031Y-85627308D01*
X139125569Y-85646846D01*
X139145108Y-85627308D01*
X139125569Y-85607769D01*
X139106031Y-85627308D01*
X134143261Y-85627308D01*
X134123723Y-85607769D01*
X134104184Y-85627308D01*
X133104731Y-85627308D01*
X133096618Y-85590537D01*
X137582031Y-85590537D01*
X137583047Y-85594437D01*
X137621108Y-85607769D01*
X137631818Y-85606179D01*
X137660184Y-85566386D01*
X137657116Y-85552252D01*
X137621108Y-85549154D01*
X137609413Y-85557174D01*
X137582031Y-85590537D01*
X133096618Y-85590537D01*
X133078106Y-85506628D01*
X138175887Y-85506628D01*
X138205056Y-85550929D01*
X138267957Y-85562074D01*
X138308344Y-85549154D01*
X138988800Y-85549154D01*
X139008338Y-85568692D01*
X139027877Y-85549154D01*
X139008338Y-85529616D01*
X138988800Y-85549154D01*
X138308344Y-85549154D01*
X138334777Y-85540698D01*
X138375702Y-85487440D01*
X138381996Y-85456216D01*
X138370687Y-85431138D01*
X139153456Y-85431138D01*
X139155986Y-85456216D01*
X139158133Y-85477513D01*
X139169887Y-85483626D01*
X139184184Y-85451462D01*
X139181364Y-85430774D01*
X139158133Y-85425410D01*
X139153456Y-85431138D01*
X138370687Y-85431138D01*
X138365760Y-85420213D01*
X138292462Y-85419853D01*
X138219974Y-85443334D01*
X138177083Y-85491685D01*
X138175887Y-85506628D01*
X133078106Y-85506628D01*
X133061522Y-85431462D01*
X132974442Y-85178046D01*
X132904990Y-85028858D01*
X133937752Y-85028858D01*
X134016762Y-85107869D01*
X134029544Y-85119362D01*
X134129740Y-85177092D01*
X134251942Y-85215437D01*
X134346737Y-85228843D01*
X134391823Y-85219533D01*
X134395907Y-85181651D01*
X134390726Y-85152388D01*
X134380713Y-85071362D01*
X134352840Y-85021620D01*
X134283008Y-84961358D01*
X134228083Y-84931392D01*
X135910216Y-84931392D01*
X135945641Y-85071990D01*
X136015318Y-85181651D01*
X136026834Y-85199777D01*
X136155087Y-85328430D01*
X136276750Y-85409134D01*
X136446566Y-85452213D01*
X136613359Y-85426053D01*
X136762267Y-85333735D01*
X136878431Y-85178345D01*
X136923822Y-85068557D01*
X136950664Y-84904435D01*
X137797932Y-84904435D01*
X137803827Y-84966820D01*
X137807716Y-84975164D01*
X137853303Y-85013529D01*
X137907514Y-85019509D01*
X137933723Y-84987323D01*
X137933225Y-84981171D01*
X137908874Y-84940174D01*
X138793415Y-84940174D01*
X138812774Y-84987323D01*
X138818317Y-85000824D01*
X138891283Y-85055480D01*
X138979031Y-85069775D01*
X139049622Y-85046406D01*
X139057392Y-85001504D01*
X138994451Y-84929037D01*
X138971899Y-84912487D01*
X138894245Y-84888148D01*
X138823999Y-84897973D01*
X138793415Y-84940174D01*
X137908874Y-84940174D01*
X137902672Y-84929733D01*
X137848898Y-84890321D01*
X137805820Y-84889006D01*
X137802810Y-84894893D01*
X137797932Y-84904435D01*
X136950664Y-84904435D01*
X136952225Y-84894893D01*
X136944687Y-84818550D01*
X138012118Y-84818550D01*
X138039656Y-84826231D01*
X138074546Y-84812710D01*
X138134092Y-84757846D01*
X138160185Y-84723638D01*
X138162713Y-84710034D01*
X138109569Y-84746789D01*
X138055846Y-84785990D01*
X138015133Y-84815173D01*
X138012118Y-84818550D01*
X136944687Y-84818550D01*
X136932513Y-84695243D01*
X136897810Y-84571445D01*
X139974072Y-84571445D01*
X139978749Y-84617821D01*
X139990502Y-84623934D01*
X140004800Y-84591769D01*
X140001980Y-84571082D01*
X139978749Y-84565718D01*
X139974072Y-84571445D01*
X136897810Y-84571445D01*
X136869998Y-84472232D01*
X137503877Y-84472232D01*
X137507911Y-84493875D01*
X137547407Y-84533482D01*
X137596119Y-84525579D01*
X137606728Y-84513412D01*
X137616385Y-84459460D01*
X137562492Y-84435462D01*
X137535562Y-84439599D01*
X137503877Y-84472232D01*
X136869998Y-84472232D01*
X136864348Y-84452075D01*
X136762080Y-84174702D01*
X136711946Y-84064231D01*
X137308492Y-84064231D01*
X137328031Y-84083769D01*
X137347569Y-84064231D01*
X137328031Y-84044692D01*
X137308492Y-84064231D01*
X136711946Y-84064231D01*
X136660164Y-83950127D01*
X136564439Y-83797891D01*
X136473181Y-83715291D01*
X136384666Y-83699621D01*
X136379368Y-83700729D01*
X136341856Y-83716452D01*
X136305502Y-83752549D01*
X136264680Y-83819615D01*
X136213763Y-83928246D01*
X136147124Y-84089037D01*
X136059135Y-84312583D01*
X135971499Y-84557054D01*
X135919266Y-84764305D01*
X135914853Y-84845769D01*
X135910216Y-84931392D01*
X134228083Y-84931392D01*
X134215101Y-84924309D01*
X134153042Y-84923994D01*
X134063023Y-84964078D01*
X133937752Y-85028858D01*
X132904990Y-85028858D01*
X132855140Y-84921776D01*
X132812323Y-84845769D01*
X134065108Y-84845769D01*
X134084646Y-84865308D01*
X134104184Y-84845769D01*
X134084646Y-84826231D01*
X134065108Y-84845769D01*
X132812323Y-84845769D01*
X132699350Y-84645223D01*
X132579053Y-84444676D01*
X132877274Y-84303051D01*
X133175496Y-84161427D01*
X133378975Y-84277846D01*
X133390500Y-84284386D01*
X133672116Y-84408420D01*
X133949532Y-84458252D01*
X134234372Y-84436030D01*
X134436141Y-84383482D01*
X134746453Y-84242321D01*
X135013446Y-84038106D01*
X135235245Y-83773282D01*
X135409978Y-83450293D01*
X135535773Y-83071584D01*
X135610756Y-82639598D01*
X135615201Y-82599093D01*
X135634380Y-82474827D01*
X135638683Y-82463518D01*
X137258326Y-82463518D01*
X137264652Y-82805638D01*
X137324460Y-83126385D01*
X137367553Y-83256002D01*
X137501992Y-83543136D01*
X137678108Y-83810796D01*
X137883843Y-84044380D01*
X137907815Y-84064231D01*
X138107137Y-84229289D01*
X138335928Y-84350920D01*
X138653269Y-84435893D01*
X138959336Y-84446908D01*
X139247533Y-84381881D01*
X139517204Y-84240960D01*
X139563402Y-84201000D01*
X140356492Y-84201000D01*
X140363105Y-84218977D01*
X140415108Y-84240077D01*
X140442072Y-84235668D01*
X140473723Y-84201000D01*
X140467110Y-84183024D01*
X140415108Y-84161923D01*
X140388143Y-84166332D01*
X140356492Y-84201000D01*
X139563402Y-84201000D01*
X139767695Y-84024294D01*
X139802834Y-83986397D01*
X139974882Y-83766096D01*
X140032697Y-83653795D01*
X140494719Y-83653795D01*
X140500038Y-83690409D01*
X140530816Y-83656387D01*
X140530990Y-83656110D01*
X140584191Y-83632943D01*
X140675155Y-83635450D01*
X140735975Y-83639340D01*
X140778818Y-83616109D01*
X140758993Y-83570543D01*
X140676349Y-83517657D01*
X140624853Y-83479319D01*
X140588316Y-83380888D01*
X140582790Y-83351502D01*
X140563880Y-83378804D01*
X140558057Y-83397617D01*
X140533156Y-83478077D01*
X140523161Y-83517154D01*
X140514816Y-83549787D01*
X140494719Y-83653795D01*
X140032697Y-83653795D01*
X140095067Y-83532646D01*
X140099813Y-83517154D01*
X140395569Y-83517154D01*
X140415108Y-83536692D01*
X140434646Y-83517154D01*
X140415108Y-83497616D01*
X140395569Y-83517154D01*
X140099813Y-83517154D01*
X140129032Y-83421768D01*
X140395569Y-83421768D01*
X140396688Y-83430492D01*
X140434646Y-83458539D01*
X140453321Y-83451083D01*
X140473723Y-83397617D01*
X140468100Y-83369705D01*
X140434646Y-83360846D01*
X140423974Y-83368845D01*
X140395569Y-83421768D01*
X140129032Y-83421768D01*
X140158059Y-83327010D01*
X140832327Y-83327010D01*
X140864492Y-83341308D01*
X140885179Y-83338488D01*
X140890543Y-83315257D01*
X140884816Y-83310580D01*
X140838441Y-83315257D01*
X140832327Y-83327010D01*
X140158059Y-83327010D01*
X140180235Y-83254615D01*
X140190508Y-83204539D01*
X140590954Y-83204539D01*
X140610492Y-83224077D01*
X140630031Y-83204539D01*
X140610492Y-83185000D01*
X140590954Y-83204539D01*
X140190508Y-83204539D01*
X140205640Y-83130781D01*
X140237074Y-82737436D01*
X140217216Y-82555765D01*
X140561188Y-82555765D01*
X140562343Y-82642341D01*
X140569249Y-82677000D01*
X140592084Y-82645601D01*
X140608093Y-82569594D01*
X140612256Y-82483447D01*
X140604873Y-82445083D01*
X141303919Y-82445083D01*
X141313877Y-82481616D01*
X141315148Y-82483447D01*
X141321905Y-82493183D01*
X141357566Y-82520692D01*
X141362911Y-82518148D01*
X141352954Y-82481616D01*
X141344925Y-82470048D01*
X141309264Y-82442539D01*
X141303919Y-82445083D01*
X140604873Y-82445083D01*
X140600367Y-82421669D01*
X140591554Y-82409595D01*
X140572245Y-82426743D01*
X140562245Y-82520839D01*
X140561188Y-82555765D01*
X140217216Y-82555765D01*
X140195068Y-82353152D01*
X140082160Y-81987129D01*
X140016378Y-81864266D01*
X140203139Y-81864266D01*
X140223354Y-81934874D01*
X140242600Y-81975489D01*
X140267696Y-81991212D01*
X140305807Y-81938724D01*
X140313418Y-81926158D01*
X140323130Y-81895462D01*
X140942646Y-81895462D01*
X140949259Y-81913438D01*
X141001261Y-81934539D01*
X141028226Y-81930130D01*
X141042039Y-81915000D01*
X141098954Y-81915000D01*
X141118492Y-81934539D01*
X141138031Y-81915000D01*
X141118492Y-81895462D01*
X141098954Y-81915000D01*
X141042039Y-81915000D01*
X141059877Y-81895462D01*
X141053264Y-81877485D01*
X141001261Y-81856385D01*
X140974297Y-81860793D01*
X140965728Y-81870178D01*
X140942646Y-81895462D01*
X140323130Y-81895462D01*
X140331129Y-81870178D01*
X140290445Y-81839402D01*
X140256600Y-81830152D01*
X140207991Y-81835552D01*
X140203139Y-81864266D01*
X140016378Y-81864266D01*
X139991236Y-81817308D01*
X140493261Y-81817308D01*
X140501260Y-81827980D01*
X140554183Y-81856385D01*
X140562907Y-81855266D01*
X140590954Y-81817308D01*
X140583498Y-81798633D01*
X140530032Y-81778231D01*
X140502120Y-81783854D01*
X140493261Y-81817308D01*
X139991236Y-81817308D01*
X139900889Y-81648565D01*
X139653793Y-81346657D01*
X139646506Y-81339378D01*
X139580787Y-81286070D01*
X140960643Y-81286070D01*
X140961127Y-81346673D01*
X140970533Y-81359968D01*
X141030086Y-81384079D01*
X141108808Y-81332948D01*
X141162703Y-81302943D01*
X141267907Y-81298426D01*
X141277777Y-81300221D01*
X141351442Y-81299419D01*
X141372492Y-81256623D01*
X141367138Y-81224224D01*
X141317554Y-81163474D01*
X141242540Y-81142595D01*
X141175558Y-81174845D01*
X141174950Y-81175138D01*
X141138705Y-81205225D01*
X141076012Y-81215717D01*
X141067078Y-81213160D01*
X141005366Y-81230844D01*
X140960643Y-81286070D01*
X139580787Y-81286070D01*
X139442566Y-81173953D01*
X140493938Y-81173953D01*
X140534537Y-81207052D01*
X140583803Y-81224426D01*
X140622613Y-81222398D01*
X140630031Y-81174845D01*
X140621121Y-81127725D01*
X140576372Y-81094842D01*
X140516230Y-81129328D01*
X140493938Y-81173953D01*
X139442566Y-81173953D01*
X139384069Y-81126503D01*
X139102427Y-80983471D01*
X138810755Y-80909431D01*
X138518228Y-80903532D01*
X138234021Y-80964924D01*
X137967308Y-81092754D01*
X137727264Y-81286171D01*
X137523065Y-81544325D01*
X137395050Y-81803402D01*
X137302716Y-82122087D01*
X137258326Y-82463518D01*
X135638683Y-82463518D01*
X135667420Y-82387993D01*
X135729661Y-82309374D01*
X135836444Y-82209752D01*
X135991607Y-82066187D01*
X136226180Y-81836409D01*
X136480727Y-81575699D01*
X136739641Y-81300703D01*
X136987312Y-81028069D01*
X137208132Y-80774447D01*
X137261805Y-80708856D01*
X140128943Y-80708856D01*
X140161108Y-80723154D01*
X140181795Y-80720334D01*
X140187159Y-80697103D01*
X140181431Y-80692426D01*
X140135056Y-80697103D01*
X140128943Y-80708856D01*
X137261805Y-80708856D01*
X137386492Y-80556483D01*
X137402477Y-80536294D01*
X137486152Y-80440474D01*
X137548824Y-80384800D01*
X137577967Y-80380769D01*
X137632437Y-80454207D01*
X137728569Y-80488094D01*
X137755519Y-80468369D01*
X137981149Y-80468369D01*
X137985826Y-80514744D01*
X137997579Y-80520857D01*
X138011877Y-80488692D01*
X138009057Y-80468005D01*
X137985826Y-80462641D01*
X137981149Y-80468369D01*
X137755519Y-80468369D01*
X137766056Y-80460657D01*
X137776077Y-80392535D01*
X137758284Y-80315662D01*
X137714649Y-80262066D01*
X137703390Y-80253309D01*
X137695949Y-80222794D01*
X137715770Y-80168602D01*
X137768152Y-80081322D01*
X137808722Y-80022976D01*
X140122031Y-80022976D01*
X140122098Y-80024337D01*
X140151852Y-80030503D01*
X140219421Y-79996835D01*
X140288894Y-79965133D01*
X140366234Y-79956482D01*
X140415626Y-79976509D01*
X140413632Y-80022157D01*
X140397971Y-80037912D01*
X140335858Y-80044295D01*
X140307837Y-80040482D01*
X140244704Y-80071826D01*
X140233719Y-80093149D01*
X140262767Y-80113422D01*
X140359078Y-80119238D01*
X140391666Y-80119107D01*
X140478120Y-80117118D01*
X140512800Y-80113494D01*
X140510522Y-80105436D01*
X140490205Y-80044883D01*
X140455675Y-79945840D01*
X140442798Y-79905748D01*
X140418956Y-79793640D01*
X140419549Y-79716235D01*
X140427499Y-79689925D01*
X140428627Y-79670323D01*
X140396578Y-79716923D01*
X140345524Y-79760437D01*
X140252301Y-79785308D01*
X140225739Y-79786023D01*
X140171988Y-79805267D01*
X140172420Y-79863423D01*
X140177656Y-79912880D01*
X140157439Y-79963421D01*
X140150268Y-79968635D01*
X140122031Y-80022976D01*
X137808722Y-80022976D01*
X137858392Y-79951544D01*
X137991791Y-79769858D01*
X138134566Y-79572691D01*
X138207261Y-79572691D01*
X138207642Y-79578154D01*
X138230262Y-79586759D01*
X138269608Y-79544809D01*
X138279116Y-79522971D01*
X138252376Y-79527576D01*
X138235017Y-79539639D01*
X138207261Y-79572691D01*
X138134566Y-79572691D01*
X138141530Y-79563074D01*
X138299644Y-79335923D01*
X138363569Y-79335923D01*
X138383108Y-79355462D01*
X138402646Y-79335923D01*
X138383108Y-79316385D01*
X138363569Y-79335923D01*
X138299644Y-79335923D01*
X138308646Y-79322991D01*
X138379778Y-79217162D01*
X139801572Y-79217162D01*
X139806973Y-79251419D01*
X139825979Y-79277958D01*
X139841806Y-79335923D01*
X139848492Y-79360415D01*
X139849130Y-79367596D01*
X139888972Y-79430499D01*
X139971727Y-79489369D01*
X140009294Y-79507495D01*
X140049463Y-79522971D01*
X140106647Y-79545003D01*
X140148191Y-79542617D01*
X140128451Y-79499967D01*
X140108767Y-79460243D01*
X140105999Y-79372967D01*
X140111734Y-79341978D01*
X140091079Y-79244508D01*
X140014060Y-79187675D01*
X139894730Y-79184045D01*
X139867475Y-79190015D01*
X139801572Y-79217162D01*
X138379778Y-79217162D01*
X138468691Y-79084880D01*
X138545925Y-78964692D01*
X139477261Y-78964692D01*
X139485282Y-78976387D01*
X139518645Y-79003769D01*
X139522544Y-79002753D01*
X139535877Y-78964692D01*
X139534287Y-78953982D01*
X139494494Y-78925616D01*
X139480360Y-78928684D01*
X139477261Y-78964692D01*
X138545925Y-78964692D01*
X138601236Y-78878619D01*
X138620305Y-78847929D01*
X138719930Y-78688466D01*
X138803199Y-78556596D01*
X138861877Y-78465288D01*
X138887727Y-78427509D01*
X138900137Y-78425529D01*
X138969098Y-78448420D01*
X139083825Y-78502857D01*
X139230681Y-78581151D01*
X139396025Y-78675618D01*
X139566220Y-78778570D01*
X139727626Y-78882321D01*
X139845812Y-78964692D01*
X139866605Y-78979184D01*
X140032513Y-79108506D01*
X140336302Y-79379038D01*
X140495286Y-79542617D01*
X140628698Y-79679886D01*
X140895172Y-79994540D01*
G36*
X137655040Y-79029745D02*
G01*
X137562927Y-79157896D01*
X137519229Y-79218692D01*
X137472797Y-79283291D01*
X137416670Y-79359142D01*
X137304508Y-79510720D01*
X137277602Y-79547082D01*
X137246297Y-79588205D01*
X137113935Y-79762085D01*
X137075293Y-79812848D01*
X136958928Y-79961154D01*
X136928106Y-80000437D01*
X136871705Y-80072320D01*
X136835020Y-80117462D01*
X136723874Y-80254231D01*
X136672677Y-80317231D01*
X136640374Y-80355522D01*
X136607203Y-80394843D01*
X136576709Y-80429736D01*
X136468873Y-80553133D01*
X136311578Y-80727646D01*
X136144206Y-80909077D01*
X135975649Y-81088124D01*
X135814793Y-81255480D01*
X135670530Y-81401843D01*
X135551748Y-81517907D01*
X135467336Y-81594368D01*
X135426183Y-81621923D01*
X135418211Y-81619246D01*
X135363449Y-81577223D01*
X135276058Y-81494790D01*
X135170870Y-81385670D01*
X135159215Y-81373201D01*
X135026877Y-81243775D01*
X134888561Y-81125912D01*
X134772394Y-81043747D01*
X134697483Y-81002317D01*
X134613179Y-80968055D01*
X134517252Y-80948664D01*
X134387539Y-80940040D01*
X134201877Y-80938077D01*
X134029843Y-80939597D01*
X133895775Y-80947515D01*
X133794841Y-80966400D01*
X133703565Y-81000810D01*
X133598475Y-81055308D01*
X133502094Y-81114780D01*
X133342304Y-81232289D01*
X133246707Y-81316360D01*
X133204272Y-81353679D01*
X133169663Y-81392789D01*
X133056919Y-81520197D01*
X132859968Y-81827052D01*
X132742374Y-82110385D01*
X132719407Y-82165724D01*
X132639418Y-82521357D01*
X132624180Y-82879093D01*
X132647466Y-83028692D01*
X132677877Y-83224077D01*
X132694976Y-83288236D01*
X132725015Y-83423091D01*
X132723380Y-83515039D01*
X132680592Y-83583702D01*
X132587174Y-83648699D01*
X132433646Y-83729651D01*
X132237829Y-83823658D01*
X132100204Y-83874921D01*
X132020029Y-83883032D01*
X131994031Y-83848880D01*
X131979008Y-83820376D01*
X131919622Y-83743650D01*
X131825584Y-83634684D01*
X131708161Y-83506956D01*
X131625128Y-83417810D01*
X131501657Y-83280545D01*
X131400280Y-83162297D01*
X131337163Y-83081602D01*
X131307289Y-83028692D01*
X131486031Y-83028692D01*
X131487166Y-83038033D01*
X131525108Y-83067769D01*
X131534448Y-83066634D01*
X131564184Y-83028692D01*
X131563049Y-83019352D01*
X131525108Y-82989616D01*
X131515767Y-82990751D01*
X131486031Y-83028692D01*
X131307289Y-83028692D01*
X131270115Y-82962852D01*
X131189273Y-82718632D01*
X131146932Y-82423918D01*
X131145529Y-82110385D01*
X131290646Y-82110385D01*
X131310184Y-82129923D01*
X131329723Y-82110385D01*
X131310184Y-82090846D01*
X131290646Y-82110385D01*
X131145529Y-82110385D01*
X131145442Y-82090846D01*
X131150982Y-82010005D01*
X131164275Y-81881164D01*
X131414789Y-81881164D01*
X131446954Y-81895462D01*
X131467641Y-81892642D01*
X131473005Y-81869410D01*
X131467278Y-81864734D01*
X131420902Y-81869410D01*
X131414789Y-81881164D01*
X131164275Y-81881164D01*
X131171225Y-81813802D01*
X131564184Y-81813802D01*
X131570085Y-81860783D01*
X131579087Y-81869410D01*
X131609862Y-81898907D01*
X131681715Y-81875666D01*
X131779273Y-81794066D01*
X131896168Y-81657112D01*
X131904126Y-81646602D01*
X131994456Y-81518199D01*
X132042323Y-81431812D01*
X132046923Y-81392789D01*
X132007451Y-81406480D01*
X131923100Y-81478234D01*
X131903688Y-81496319D01*
X131826809Y-81558411D01*
X131776969Y-81584146D01*
X131742535Y-81593060D01*
X131662287Y-81650061D01*
X131593419Y-81733806D01*
X131564184Y-81813802D01*
X131171225Y-81813802D01*
X131171505Y-81811089D01*
X131199970Y-81614463D01*
X131233356Y-81435234D01*
X131254244Y-81348385D01*
X131798646Y-81348385D01*
X131799874Y-81372358D01*
X131817999Y-81382506D01*
X131876800Y-81348385D01*
X131884285Y-81343489D01*
X131912282Y-81316360D01*
X131867031Y-81309906D01*
X131830866Y-81315541D01*
X131798646Y-81348385D01*
X131254244Y-81348385D01*
X131268645Y-81288509D01*
X131302817Y-81189395D01*
X131332855Y-81153000D01*
X131355854Y-81131462D01*
X131368800Y-81060558D01*
X131369496Y-81049962D01*
X131392743Y-80961219D01*
X131442313Y-80832404D01*
X131509171Y-80687531D01*
X131555153Y-80598275D01*
X131618497Y-80491539D01*
X131663978Y-80444144D01*
X131698381Y-80447481D01*
X131750159Y-80471000D01*
X131755145Y-80465555D01*
X134068022Y-80465555D01*
X134096199Y-80463477D01*
X134118676Y-80450729D01*
X135576902Y-80450729D01*
X135578589Y-80491109D01*
X135641328Y-80539524D01*
X135699063Y-80573746D01*
X135740977Y-80571905D01*
X135775359Y-80512670D01*
X135780718Y-80500479D01*
X135792727Y-80429736D01*
X135745490Y-80380577D01*
X135740587Y-80377577D01*
X135674827Y-80360390D01*
X135611458Y-80407431D01*
X135576902Y-80450729D01*
X134118676Y-80450729D01*
X134160009Y-80427286D01*
X134204542Y-80387850D01*
X134218501Y-80355522D01*
X134190323Y-80357600D01*
X134126514Y-80393791D01*
X134081981Y-80433228D01*
X134068022Y-80465555D01*
X131755145Y-80465555D01*
X131781322Y-80436971D01*
X131774640Y-80348035D01*
X131773888Y-80344728D01*
X131790649Y-80249083D01*
X131799320Y-80233907D01*
X132236841Y-80233907D01*
X132241518Y-80280282D01*
X132253271Y-80286396D01*
X132267569Y-80254231D01*
X132264749Y-80233544D01*
X132241518Y-80228180D01*
X132236841Y-80233907D01*
X131799320Y-80233907D01*
X131870204Y-80109851D01*
X131910763Y-80057763D01*
X134266306Y-80057763D01*
X134296060Y-80113233D01*
X134344911Y-80160771D01*
X134398146Y-80165192D01*
X134424585Y-80117462D01*
X136526954Y-80117462D01*
X136546492Y-80137000D01*
X136566031Y-80117462D01*
X136546492Y-80097923D01*
X136526954Y-80117462D01*
X134424585Y-80117462D01*
X134437587Y-80093990D01*
X134439833Y-80086545D01*
X134442043Y-80000437D01*
X134396710Y-79966184D01*
X134318482Y-79995856D01*
X134298989Y-80010795D01*
X134266306Y-80057763D01*
X131910763Y-80057763D01*
X131985990Y-79961154D01*
X132033108Y-79961154D01*
X132052646Y-79980692D01*
X132072184Y-79961154D01*
X132052646Y-79941616D01*
X132033108Y-79961154D01*
X131985990Y-79961154D01*
X132011503Y-79928389D01*
X132118981Y-79810087D01*
X133759404Y-79810087D01*
X133791569Y-79824385D01*
X133812256Y-79821565D01*
X133815569Y-79807217D01*
X134619679Y-79807217D01*
X134627986Y-79820454D01*
X134690338Y-79785308D01*
X134717823Y-79762085D01*
X134702414Y-79746829D01*
X134688792Y-79748155D01*
X134631723Y-79785308D01*
X134624562Y-79798333D01*
X134619679Y-79807217D01*
X133815569Y-79807217D01*
X133817620Y-79798333D01*
X133811893Y-79793657D01*
X133765518Y-79798333D01*
X133759404Y-79810087D01*
X132118981Y-79810087D01*
X132213494Y-79706055D01*
X132316126Y-79603336D01*
X136074556Y-79603336D01*
X136091003Y-79644765D01*
X136108168Y-79650927D01*
X136156936Y-79627038D01*
X136169691Y-79588205D01*
X136145587Y-79555966D01*
X136093051Y-79578349D01*
X136074556Y-79603336D01*
X132316126Y-79603336D01*
X132364457Y-79554964D01*
X134814984Y-79554964D01*
X134841453Y-79593821D01*
X134906444Y-79598928D01*
X134982952Y-79565891D01*
X134990613Y-79560178D01*
X135032871Y-79510720D01*
X135009547Y-79463655D01*
X134945270Y-79442416D01*
X134869309Y-79471421D01*
X134818013Y-79539054D01*
X134814984Y-79554964D01*
X132364457Y-79554964D01*
X132475124Y-79444204D01*
X132513878Y-79408373D01*
X136624768Y-79408373D01*
X136642563Y-79452152D01*
X136668402Y-79455983D01*
X136707903Y-79414869D01*
X136720443Y-79359142D01*
X136699542Y-79331938D01*
X136647855Y-79370577D01*
X136624768Y-79408373D01*
X132513878Y-79408373D01*
X132642373Y-79289568D01*
X132731579Y-79218692D01*
X136722338Y-79218692D01*
X136741877Y-79238231D01*
X136761415Y-79218692D01*
X136741877Y-79199154D01*
X136722338Y-79218692D01*
X132731579Y-79218692D01*
X132829945Y-79140539D01*
X133518031Y-79140539D01*
X133519165Y-79156111D01*
X133551423Y-79197937D01*
X133608148Y-79174165D01*
X133618049Y-79157896D01*
X133605829Y-79107779D01*
X133554801Y-79081923D01*
X133537908Y-79088518D01*
X133518031Y-79140539D01*
X132829945Y-79140539D01*
X132952425Y-79043227D01*
X136226532Y-79043227D01*
X136259150Y-79086294D01*
X136318978Y-79112780D01*
X136407955Y-79112495D01*
X136462931Y-79062385D01*
X136474820Y-79009890D01*
X136453167Y-78931566D01*
X136448156Y-78928269D01*
X137015050Y-78928269D01*
X137032229Y-78967815D01*
X137089459Y-78977289D01*
X137159486Y-78949270D01*
X137164872Y-78945259D01*
X137200951Y-78897524D01*
X137172762Y-78835953D01*
X137167729Y-78829253D01*
X137124979Y-78795822D01*
X137080940Y-78820998D01*
X137021724Y-78911752D01*
X137015050Y-78928269D01*
X136448156Y-78928269D01*
X136392801Y-78891847D01*
X136317428Y-78901092D01*
X136250756Y-78969662D01*
X136249335Y-78972333D01*
X136226532Y-79043227D01*
X132952425Y-79043227D01*
X133103434Y-78923248D01*
X133449122Y-78702956D01*
X134033750Y-78702956D01*
X134059868Y-78773660D01*
X134116514Y-78786707D01*
X134199447Y-78727269D01*
X134220344Y-78703559D01*
X134239110Y-78652077D01*
X137386646Y-78652077D01*
X137387094Y-78660920D01*
X137403878Y-78691154D01*
X137410147Y-78689356D01*
X137445261Y-78652077D01*
X137451367Y-78636940D01*
X137428029Y-78613000D01*
X137416687Y-78614502D01*
X137400697Y-78634502D01*
X137386646Y-78652077D01*
X134239110Y-78652077D01*
X134245517Y-78634502D01*
X134205921Y-78595269D01*
X134111229Y-78599835D01*
X134050922Y-78630851D01*
X134033750Y-78702956D01*
X133449122Y-78702956D01*
X133598715Y-78607627D01*
X134113216Y-78351609D01*
X134631938Y-78164096D01*
X134884392Y-78092380D01*
X135104670Y-78035845D01*
X135302645Y-77994506D01*
X135498407Y-77965395D01*
X135712047Y-77945547D01*
X135963658Y-77931996D01*
X136273330Y-77921775D01*
X136309634Y-77920778D01*
X136575679Y-77914309D01*
X136783634Y-77912071D01*
X136951383Y-77915184D01*
X137096809Y-77924771D01*
X137237796Y-77941951D01*
X137392226Y-77967848D01*
X137577982Y-78003581D01*
X137698040Y-78027421D01*
X137888631Y-78066401D01*
X138019309Y-78096238D01*
X138101339Y-78120655D01*
X138145985Y-78143372D01*
X138164512Y-78168113D01*
X138168185Y-78198599D01*
X138167689Y-78205094D01*
X138137757Y-78283384D01*
X138065690Y-78413263D01*
X137957323Y-78586463D01*
X137923672Y-78636940D01*
X137818494Y-78794713D01*
X137746993Y-78897524D01*
X137668848Y-79009890D01*
X137655040Y-79029745D01*
G37*
X137655040Y-79029745D02*
X137562927Y-79157896D01*
X137519229Y-79218692D01*
X137472797Y-79283291D01*
X137416670Y-79359142D01*
X137304508Y-79510720D01*
X137277602Y-79547082D01*
X137246297Y-79588205D01*
X137113935Y-79762085D01*
X137075293Y-79812848D01*
X136958928Y-79961154D01*
X136928106Y-80000437D01*
X136871705Y-80072320D01*
X136835020Y-80117462D01*
X136723874Y-80254231D01*
X136672677Y-80317231D01*
X136640374Y-80355522D01*
X136607203Y-80394843D01*
X136576709Y-80429736D01*
X136468873Y-80553133D01*
X136311578Y-80727646D01*
X136144206Y-80909077D01*
X135975649Y-81088124D01*
X135814793Y-81255480D01*
X135670530Y-81401843D01*
X135551748Y-81517907D01*
X135467336Y-81594368D01*
X135426183Y-81621923D01*
X135418211Y-81619246D01*
X135363449Y-81577223D01*
X135276058Y-81494790D01*
X135170870Y-81385670D01*
X135159215Y-81373201D01*
X135026877Y-81243775D01*
X134888561Y-81125912D01*
X134772394Y-81043747D01*
X134697483Y-81002317D01*
X134613179Y-80968055D01*
X134517252Y-80948664D01*
X134387539Y-80940040D01*
X134201877Y-80938077D01*
X134029843Y-80939597D01*
X133895775Y-80947515D01*
X133794841Y-80966400D01*
X133703565Y-81000810D01*
X133598475Y-81055308D01*
X133502094Y-81114780D01*
X133342304Y-81232289D01*
X133246707Y-81316360D01*
X133204272Y-81353679D01*
X133169663Y-81392789D01*
X133056919Y-81520197D01*
X132859968Y-81827052D01*
X132742374Y-82110385D01*
X132719407Y-82165724D01*
X132639418Y-82521357D01*
X132624180Y-82879093D01*
X132647466Y-83028692D01*
X132677877Y-83224077D01*
X132694976Y-83288236D01*
X132725015Y-83423091D01*
X132723380Y-83515039D01*
X132680592Y-83583702D01*
X132587174Y-83648699D01*
X132433646Y-83729651D01*
X132237829Y-83823658D01*
X132100204Y-83874921D01*
X132020029Y-83883032D01*
X131994031Y-83848880D01*
X131979008Y-83820376D01*
X131919622Y-83743650D01*
X131825584Y-83634684D01*
X131708161Y-83506956D01*
X131625128Y-83417810D01*
X131501657Y-83280545D01*
X131400280Y-83162297D01*
X131337163Y-83081602D01*
X131307289Y-83028692D01*
X131486031Y-83028692D01*
X131487166Y-83038033D01*
X131525108Y-83067769D01*
X131534448Y-83066634D01*
X131564184Y-83028692D01*
X131563049Y-83019352D01*
X131525108Y-82989616D01*
X131515767Y-82990751D01*
X131486031Y-83028692D01*
X131307289Y-83028692D01*
X131270115Y-82962852D01*
X131189273Y-82718632D01*
X131146932Y-82423918D01*
X131145529Y-82110385D01*
X131290646Y-82110385D01*
X131310184Y-82129923D01*
X131329723Y-82110385D01*
X131310184Y-82090846D01*
X131290646Y-82110385D01*
X131145529Y-82110385D01*
X131145442Y-82090846D01*
X131150982Y-82010005D01*
X131164275Y-81881164D01*
X131414789Y-81881164D01*
X131446954Y-81895462D01*
X131467641Y-81892642D01*
X131473005Y-81869410D01*
X131467278Y-81864734D01*
X131420902Y-81869410D01*
X131414789Y-81881164D01*
X131164275Y-81881164D01*
X131171225Y-81813802D01*
X131564184Y-81813802D01*
X131570085Y-81860783D01*
X131579087Y-81869410D01*
X131609862Y-81898907D01*
X131681715Y-81875666D01*
X131779273Y-81794066D01*
X131896168Y-81657112D01*
X131904126Y-81646602D01*
X131994456Y-81518199D01*
X132042323Y-81431812D01*
X132046923Y-81392789D01*
X132007451Y-81406480D01*
X131923100Y-81478234D01*
X131903688Y-81496319D01*
X131826809Y-81558411D01*
X131776969Y-81584146D01*
X131742535Y-81593060D01*
X131662287Y-81650061D01*
X131593419Y-81733806D01*
X131564184Y-81813802D01*
X131171225Y-81813802D01*
X131171505Y-81811089D01*
X131199970Y-81614463D01*
X131233356Y-81435234D01*
X131254244Y-81348385D01*
X131798646Y-81348385D01*
X131799874Y-81372358D01*
X131817999Y-81382506D01*
X131876800Y-81348385D01*
X131884285Y-81343489D01*
X131912282Y-81316360D01*
X131867031Y-81309906D01*
X131830866Y-81315541D01*
X131798646Y-81348385D01*
X131254244Y-81348385D01*
X131268645Y-81288509D01*
X131302817Y-81189395D01*
X131332855Y-81153000D01*
X131355854Y-81131462D01*
X131368800Y-81060558D01*
X131369496Y-81049962D01*
X131392743Y-80961219D01*
X131442313Y-80832404D01*
X131509171Y-80687531D01*
X131555153Y-80598275D01*
X131618497Y-80491539D01*
X131663978Y-80444144D01*
X131698381Y-80447481D01*
X131750159Y-80471000D01*
X131755145Y-80465555D01*
X134068022Y-80465555D01*
X134096199Y-80463477D01*
X134118676Y-80450729D01*
X135576902Y-80450729D01*
X135578589Y-80491109D01*
X135641328Y-80539524D01*
X135699063Y-80573746D01*
X135740977Y-80571905D01*
X135775359Y-80512670D01*
X135780718Y-80500479D01*
X135792727Y-80429736D01*
X135745490Y-80380577D01*
X135740587Y-80377577D01*
X135674827Y-80360390D01*
X135611458Y-80407431D01*
X135576902Y-80450729D01*
X134118676Y-80450729D01*
X134160009Y-80427286D01*
X134204542Y-80387850D01*
X134218501Y-80355522D01*
X134190323Y-80357600D01*
X134126514Y-80393791D01*
X134081981Y-80433228D01*
X134068022Y-80465555D01*
X131755145Y-80465555D01*
X131781322Y-80436971D01*
X131774640Y-80348035D01*
X131773888Y-80344728D01*
X131790649Y-80249083D01*
X131799320Y-80233907D01*
X132236841Y-80233907D01*
X132241518Y-80280282D01*
X132253271Y-80286396D01*
X132267569Y-80254231D01*
X132264749Y-80233544D01*
X132241518Y-80228180D01*
X132236841Y-80233907D01*
X131799320Y-80233907D01*
X131870204Y-80109851D01*
X131910763Y-80057763D01*
X134266306Y-80057763D01*
X134296060Y-80113233D01*
X134344911Y-80160771D01*
X134398146Y-80165192D01*
X134424585Y-80117462D01*
X136526954Y-80117462D01*
X136546492Y-80137000D01*
X136566031Y-80117462D01*
X136546492Y-80097923D01*
X136526954Y-80117462D01*
X134424585Y-80117462D01*
X134437587Y-80093990D01*
X134439833Y-80086545D01*
X134442043Y-80000437D01*
X134396710Y-79966184D01*
X134318482Y-79995856D01*
X134298989Y-80010795D01*
X134266306Y-80057763D01*
X131910763Y-80057763D01*
X131985990Y-79961154D01*
X132033108Y-79961154D01*
X132052646Y-79980692D01*
X132072184Y-79961154D01*
X132052646Y-79941616D01*
X132033108Y-79961154D01*
X131985990Y-79961154D01*
X132011503Y-79928389D01*
X132118981Y-79810087D01*
X133759404Y-79810087D01*
X133791569Y-79824385D01*
X133812256Y-79821565D01*
X133815569Y-79807217D01*
X134619679Y-79807217D01*
X134627986Y-79820454D01*
X134690338Y-79785308D01*
X134717823Y-79762085D01*
X134702414Y-79746829D01*
X134688792Y-79748155D01*
X134631723Y-79785308D01*
X134624562Y-79798333D01*
X134619679Y-79807217D01*
X133815569Y-79807217D01*
X133817620Y-79798333D01*
X133811893Y-79793657D01*
X133765518Y-79798333D01*
X133759404Y-79810087D01*
X132118981Y-79810087D01*
X132213494Y-79706055D01*
X132316126Y-79603336D01*
X136074556Y-79603336D01*
X136091003Y-79644765D01*
X136108168Y-79650927D01*
X136156936Y-79627038D01*
X136169691Y-79588205D01*
X136145587Y-79555966D01*
X136093051Y-79578349D01*
X136074556Y-79603336D01*
X132316126Y-79603336D01*
X132364457Y-79554964D01*
X134814984Y-79554964D01*
X134841453Y-79593821D01*
X134906444Y-79598928D01*
X134982952Y-79565891D01*
X134990613Y-79560178D01*
X135032871Y-79510720D01*
X135009547Y-79463655D01*
X134945270Y-79442416D01*
X134869309Y-79471421D01*
X134818013Y-79539054D01*
X134814984Y-79554964D01*
X132364457Y-79554964D01*
X132475124Y-79444204D01*
X132513878Y-79408373D01*
X136624768Y-79408373D01*
X136642563Y-79452152D01*
X136668402Y-79455983D01*
X136707903Y-79414869D01*
X136720443Y-79359142D01*
X136699542Y-79331938D01*
X136647855Y-79370577D01*
X136624768Y-79408373D01*
X132513878Y-79408373D01*
X132642373Y-79289568D01*
X132731579Y-79218692D01*
X136722338Y-79218692D01*
X136741877Y-79238231D01*
X136761415Y-79218692D01*
X136741877Y-79199154D01*
X136722338Y-79218692D01*
X132731579Y-79218692D01*
X132829945Y-79140539D01*
X133518031Y-79140539D01*
X133519165Y-79156111D01*
X133551423Y-79197937D01*
X133608148Y-79174165D01*
X133618049Y-79157896D01*
X133605829Y-79107779D01*
X133554801Y-79081923D01*
X133537908Y-79088518D01*
X133518031Y-79140539D01*
X132829945Y-79140539D01*
X132952425Y-79043227D01*
X136226532Y-79043227D01*
X136259150Y-79086294D01*
X136318978Y-79112780D01*
X136407955Y-79112495D01*
X136462931Y-79062385D01*
X136474820Y-79009890D01*
X136453167Y-78931566D01*
X136448156Y-78928269D01*
X137015050Y-78928269D01*
X137032229Y-78967815D01*
X137089459Y-78977289D01*
X137159486Y-78949270D01*
X137164872Y-78945259D01*
X137200951Y-78897524D01*
X137172762Y-78835953D01*
X137167729Y-78829253D01*
X137124979Y-78795822D01*
X137080940Y-78820998D01*
X137021724Y-78911752D01*
X137015050Y-78928269D01*
X136448156Y-78928269D01*
X136392801Y-78891847D01*
X136317428Y-78901092D01*
X136250756Y-78969662D01*
X136249335Y-78972333D01*
X136226532Y-79043227D01*
X132952425Y-79043227D01*
X133103434Y-78923248D01*
X133449122Y-78702956D01*
X134033750Y-78702956D01*
X134059868Y-78773660D01*
X134116514Y-78786707D01*
X134199447Y-78727269D01*
X134220344Y-78703559D01*
X134239110Y-78652077D01*
X137386646Y-78652077D01*
X137387094Y-78660920D01*
X137403878Y-78691154D01*
X137410147Y-78689356D01*
X137445261Y-78652077D01*
X137451367Y-78636940D01*
X137428029Y-78613000D01*
X137416687Y-78614502D01*
X137400697Y-78634502D01*
X137386646Y-78652077D01*
X134239110Y-78652077D01*
X134245517Y-78634502D01*
X134205921Y-78595269D01*
X134111229Y-78599835D01*
X134050922Y-78630851D01*
X134033750Y-78702956D01*
X133449122Y-78702956D01*
X133598715Y-78607627D01*
X134113216Y-78351609D01*
X134631938Y-78164096D01*
X134884392Y-78092380D01*
X135104670Y-78035845D01*
X135302645Y-77994506D01*
X135498407Y-77965395D01*
X135712047Y-77945547D01*
X135963658Y-77931996D01*
X136273330Y-77921775D01*
X136309634Y-77920778D01*
X136575679Y-77914309D01*
X136783634Y-77912071D01*
X136951383Y-77915184D01*
X137096809Y-77924771D01*
X137237796Y-77941951D01*
X137392226Y-77967848D01*
X137577982Y-78003581D01*
X137698040Y-78027421D01*
X137888631Y-78066401D01*
X138019309Y-78096238D01*
X138101339Y-78120655D01*
X138145985Y-78143372D01*
X138164512Y-78168113D01*
X138168185Y-78198599D01*
X138167689Y-78205094D01*
X138137757Y-78283384D01*
X138065690Y-78413263D01*
X137957323Y-78586463D01*
X137923672Y-78636940D01*
X137818494Y-78794713D01*
X137746993Y-78897524D01*
X137668848Y-79009890D01*
X137655040Y-79029745D01*
G36*
X139766709Y-82791776D02*
G01*
X139748543Y-82822400D01*
X139695775Y-82836555D01*
X139593901Y-82838937D01*
X139428415Y-82834244D01*
X139184184Y-82826191D01*
X139184184Y-83038160D01*
X139182117Y-83122765D01*
X139172660Y-83225395D01*
X139158133Y-83276180D01*
X139141906Y-83289771D01*
X139107722Y-83297274D01*
X139055074Y-83277025D01*
X138969535Y-83222303D01*
X138836681Y-83126385D01*
X138814260Y-83109942D01*
X138701153Y-83029023D01*
X138616917Y-82972069D01*
X138578382Y-82950539D01*
X138576710Y-82951016D01*
X138564115Y-82992188D01*
X138558954Y-83079492D01*
X138558941Y-83082550D01*
X138545092Y-83185428D01*
X138512991Y-83254409D01*
X138463550Y-83281846D01*
X138411900Y-83252865D01*
X138376626Y-83162492D01*
X138363569Y-83019897D01*
X138363569Y-82825286D01*
X138104307Y-82839066D01*
X138032507Y-82842218D01*
X137912240Y-82840472D01*
X137842297Y-82823391D01*
X137803727Y-82787737D01*
X137783498Y-82736981D01*
X137785402Y-82732057D01*
X138628319Y-82732057D01*
X138740175Y-82823691D01*
X138849284Y-82910780D01*
X138928137Y-82958949D01*
X138969756Y-82948491D01*
X138986018Y-82875153D01*
X138988800Y-82734684D01*
X138988215Y-82619622D01*
X138978578Y-82533450D01*
X138946349Y-82511029D01*
X138877929Y-82546342D01*
X138759713Y-82633375D01*
X138628319Y-82732057D01*
X137785402Y-82732057D01*
X137812297Y-82662516D01*
X137821423Y-82652665D01*
X137873858Y-82624686D01*
X137963764Y-82616478D01*
X138110764Y-82625617D01*
X138359344Y-82648830D01*
X138371226Y-82418684D01*
X138376883Y-82330724D01*
X138390794Y-82239859D01*
X138416598Y-82198400D01*
X138461261Y-82188539D01*
X138505884Y-82198427D01*
X138539126Y-82248045D01*
X138558954Y-82356788D01*
X138578492Y-82525038D01*
X138823028Y-82342955D01*
X138849088Y-82323696D01*
X138992248Y-82227247D01*
X139088891Y-82187306D01*
X139147463Y-82205813D01*
X139176412Y-82284710D01*
X139184184Y-82425936D01*
X139184184Y-82646247D01*
X139750800Y-82618385D01*
X139763165Y-82725846D01*
X139764176Y-82734684D01*
X139764781Y-82739985D01*
X139766709Y-82791776D01*
G37*
X139766709Y-82791776D02*
X139748543Y-82822400D01*
X139695775Y-82836555D01*
X139593901Y-82838937D01*
X139428415Y-82834244D01*
X139184184Y-82826191D01*
X139184184Y-83038160D01*
X139182117Y-83122765D01*
X139172660Y-83225395D01*
X139158133Y-83276180D01*
X139141906Y-83289771D01*
X139107722Y-83297274D01*
X139055074Y-83277025D01*
X138969535Y-83222303D01*
X138836681Y-83126385D01*
X138814260Y-83109942D01*
X138701153Y-83029023D01*
X138616917Y-82972069D01*
X138578382Y-82950539D01*
X138576710Y-82951016D01*
X138564115Y-82992188D01*
X138558954Y-83079492D01*
X138558941Y-83082550D01*
X138545092Y-83185428D01*
X138512991Y-83254409D01*
X138463550Y-83281846D01*
X138411900Y-83252865D01*
X138376626Y-83162492D01*
X138363569Y-83019897D01*
X138363569Y-82825286D01*
X138104307Y-82839066D01*
X138032507Y-82842218D01*
X137912240Y-82840472D01*
X137842297Y-82823391D01*
X137803727Y-82787737D01*
X137783498Y-82736981D01*
X137785402Y-82732057D01*
X138628319Y-82732057D01*
X138740175Y-82823691D01*
X138849284Y-82910780D01*
X138928137Y-82958949D01*
X138969756Y-82948491D01*
X138986018Y-82875153D01*
X138988800Y-82734684D01*
X138988215Y-82619622D01*
X138978578Y-82533450D01*
X138946349Y-82511029D01*
X138877929Y-82546342D01*
X138759713Y-82633375D01*
X138628319Y-82732057D01*
X137785402Y-82732057D01*
X137812297Y-82662516D01*
X137821423Y-82652665D01*
X137873858Y-82624686D01*
X137963764Y-82616478D01*
X138110764Y-82625617D01*
X138359344Y-82648830D01*
X138371226Y-82418684D01*
X138376883Y-82330724D01*
X138390794Y-82239859D01*
X138416598Y-82198400D01*
X138461261Y-82188539D01*
X138505884Y-82198427D01*
X138539126Y-82248045D01*
X138558954Y-82356788D01*
X138578492Y-82525038D01*
X138823028Y-82342955D01*
X138849088Y-82323696D01*
X138992248Y-82227247D01*
X139088891Y-82187306D01*
X139147463Y-82205813D01*
X139176412Y-82284710D01*
X139184184Y-82425936D01*
X139184184Y-82646247D01*
X139750800Y-82618385D01*
X139763165Y-82725846D01*
X139764176Y-82734684D01*
X139764781Y-82739985D01*
X139766709Y-82791776D01*
%TD*%
D11*
%TO.P,X1,1,VCC*%
%TO.N,unconnected-(X1-Pad1)*%
X149183400Y-129255200D03*
D12*
%TO.P,X1,2,GND*%
%TO.N,unconnected-(X1-Pad2)*%
X149183400Y-131795200D03*
D11*
%TO.P,X1,3,SDA*%
%TO.N,unconnected-(X1-Pad3)*%
X151723400Y-129255200D03*
%TO.P,X1,4,SCL*%
%TO.N,unconnected-(X1-Pad4)*%
X151723400Y-131795200D03*
D13*
%TO.P,X1,5,GPIO1*%
%TO.N,unconnected-(X1-Pad5)*%
X154263400Y-129255200D03*
%TO.P,X1,6,GPIO2*%
%TO.N,unconnected-(X1-Pad6)*%
X154263400Y-131795200D03*
%TD*%
%TA.AperFunction,NonConductor*%
G36*
X138625378Y-81419297D02*
G01*
X138727054Y-81421348D01*
X138755514Y-81425195D01*
X138830607Y-81444256D01*
X138902545Y-81462518D01*
X138963649Y-81498665D01*
X138995512Y-81562110D01*
X138988015Y-81632710D01*
X138943539Y-81688049D01*
X138921211Y-81700442D01*
X138887503Y-81714900D01*
X138886003Y-81715531D01*
X138863173Y-81724966D01*
X138851829Y-81729030D01*
X138849713Y-81729676D01*
X138840843Y-81731052D01*
X138832719Y-81734861D01*
X138824128Y-81737482D01*
X138823307Y-81734790D01*
X138767370Y-81743399D01*
X138729834Y-81729979D01*
X138729269Y-81731273D01*
X138721038Y-81727681D01*
X138713407Y-81722962D01*
X138704759Y-81720575D01*
X138704752Y-81720572D01*
X138674361Y-81712184D01*
X138662033Y-81708087D01*
X138660571Y-81707516D01*
X138660563Y-81707514D01*
X138656027Y-81705741D01*
X138636319Y-81701374D01*
X138633760Y-81700807D01*
X138627495Y-81699250D01*
X138580273Y-81686216D01*
X138580269Y-81686216D01*
X138571619Y-81683828D01*
X138562641Y-81683965D01*
X138558298Y-81683410D01*
X138546570Y-81681345D01*
X138517678Y-81674833D01*
X138455624Y-81640347D01*
X138422064Y-81577783D01*
X138427655Y-81507007D01*
X138470624Y-81450489D01*
X138518775Y-81428758D01*
X138535269Y-81425195D01*
X138553528Y-81421251D01*
X138582670Y-81418436D01*
X138625378Y-81419297D01*
G37*
%TD.AperFunction*%
%TA.AperFunction,NonConductor*%
G36*
X134202653Y-81451614D02*
G01*
X134364269Y-81453323D01*
X134371265Y-81453592D01*
X134435493Y-81457862D01*
X134488125Y-81473331D01*
X134492962Y-81476007D01*
X134504716Y-81483383D01*
X134568517Y-81528509D01*
X134577447Y-81535450D01*
X134674335Y-81618011D01*
X134677134Y-81620396D01*
X134683509Y-81626217D01*
X134743822Y-81685202D01*
X134782919Y-81723438D01*
X134787071Y-81727499D01*
X134789682Y-81730129D01*
X134797811Y-81738562D01*
X134799008Y-81739823D01*
X134820909Y-81763253D01*
X134823396Y-81765251D01*
X134826037Y-81767843D01*
X134836782Y-81778989D01*
X134882342Y-81826252D01*
X134891153Y-81836428D01*
X134894613Y-81840885D01*
X134898157Y-81844227D01*
X134898158Y-81844229D01*
X134912657Y-81857905D01*
X134916915Y-81862117D01*
X134931947Y-81877711D01*
X134935483Y-81880464D01*
X134935490Y-81880470D01*
X134937016Y-81881658D01*
X134946066Y-81889419D01*
X134998262Y-81938654D01*
X135002966Y-81943332D01*
X135015744Y-81956728D01*
X135015753Y-81956736D01*
X135019105Y-81960250D01*
X135024035Y-81964033D01*
X135025023Y-81964791D01*
X135034322Y-81972709D01*
X135034654Y-81972980D01*
X135037921Y-81976062D01*
X135041582Y-81978643D01*
X135041589Y-81978648D01*
X135057790Y-81990066D01*
X135061911Y-81993098D01*
X135077788Y-82005282D01*
X135088136Y-82014153D01*
X135116496Y-82041266D01*
X135124571Y-82045454D01*
X135124656Y-82045535D01*
X135131768Y-82050620D01*
X135131034Y-82051646D01*
X135175833Y-82094568D01*
X135192406Y-82163603D01*
X135185928Y-82192904D01*
X135186646Y-82193082D01*
X135180202Y-82219088D01*
X135171755Y-82242493D01*
X135167209Y-82249252D01*
X135154687Y-82288670D01*
X135150150Y-82302951D01*
X135147829Y-82309606D01*
X135144177Y-82319206D01*
X135141336Y-82326673D01*
X135140351Y-82331050D01*
X135139423Y-82335173D01*
X135136586Y-82345650D01*
X135132990Y-82356971D01*
X135132247Y-82361785D01*
X135132246Y-82361789D01*
X135130309Y-82374339D01*
X135128710Y-82382779D01*
X135119192Y-82425079D01*
X135119192Y-82425085D01*
X135117222Y-82433838D01*
X135117788Y-82442792D01*
X135117079Y-82451744D01*
X135116881Y-82451728D01*
X135116270Y-82465302D01*
X135113187Y-82485281D01*
X135113166Y-82485416D01*
X135110608Y-82497511D01*
X135110401Y-82498607D01*
X135109129Y-82503318D01*
X135108597Y-82508161D01*
X135108597Y-82508164D01*
X135106295Y-82529144D01*
X135105572Y-82534620D01*
X135102086Y-82557205D01*
X135102037Y-82561683D01*
X135101669Y-82566161D01*
X135101335Y-82566134D01*
X135100228Y-82578240D01*
X135055931Y-82833445D01*
X135037992Y-82936791D01*
X135033424Y-82954961D01*
X134940363Y-83235124D01*
X134931609Y-83255359D01*
X134857777Y-83391836D01*
X134814333Y-83472140D01*
X134800107Y-83493088D01*
X134665261Y-83654092D01*
X134645218Y-83673267D01*
X134523171Y-83766618D01*
X134492138Y-83790354D01*
X134467762Y-83804964D01*
X134273745Y-83893222D01*
X134253327Y-83900464D01*
X134159840Y-83924811D01*
X134137886Y-83928496D01*
X134065315Y-83934158D01*
X133991513Y-83939916D01*
X133959442Y-83938313D01*
X133837887Y-83916479D01*
X133809376Y-83907775D01*
X133627759Y-83827783D01*
X133615975Y-83821837D01*
X133443739Y-83723294D01*
X133438895Y-83720376D01*
X133395721Y-83693032D01*
X133395717Y-83693030D01*
X133388133Y-83688227D01*
X133379507Y-83685746D01*
X133379505Y-83685745D01*
X133347396Y-83676510D01*
X133335784Y-83672548D01*
X133317612Y-83665343D01*
X133261660Y-83621642D01*
X133238216Y-83554628D01*
X133239125Y-83531816D01*
X133240956Y-83517867D01*
X133240956Y-83517865D01*
X133242124Y-83508967D01*
X133240748Y-83500101D01*
X133240643Y-83491119D01*
X133240768Y-83491118D01*
X133240118Y-83474120D01*
X133240280Y-83472034D01*
X133242237Y-83463274D01*
X133239155Y-83415713D01*
X133238911Y-83405343D01*
X133239089Y-83395357D01*
X133236954Y-83378294D01*
X133236246Y-83370822D01*
X133235812Y-83364123D01*
X133234928Y-83350487D01*
X133232912Y-83341438D01*
X133230875Y-83329705D01*
X133225453Y-83286362D01*
X133220328Y-83274537D01*
X133212952Y-83251828D01*
X133204145Y-83212289D01*
X133202610Y-83202935D01*
X133201973Y-83199496D01*
X133201457Y-83194648D01*
X133194560Y-83168769D01*
X133193324Y-83163715D01*
X133189149Y-83144971D01*
X133189149Y-83144970D01*
X133188176Y-83140603D01*
X133186595Y-83136420D01*
X133185308Y-83132112D01*
X133185469Y-83132064D01*
X133180029Y-83111442D01*
X133162807Y-83000789D01*
X133161310Y-82980646D01*
X133161391Y-82967262D01*
X133161446Y-82958285D01*
X133152050Y-82925410D01*
X133148702Y-82910179D01*
X133141289Y-82862558D01*
X133139904Y-82837814D01*
X133150016Y-82600438D01*
X133152973Y-82578152D01*
X133181558Y-82451062D01*
X133203772Y-82352296D01*
X133210600Y-82332171D01*
X133213311Y-82327988D01*
X133215882Y-82319391D01*
X133215884Y-82319387D01*
X133225071Y-82288670D01*
X133229412Y-82276475D01*
X133312464Y-82076367D01*
X133322801Y-82056609D01*
X133462448Y-81839033D01*
X133474126Y-81823591D01*
X133489070Y-81806704D01*
X133525334Y-81765723D01*
X133537447Y-81753769D01*
X133553799Y-81739680D01*
X133553801Y-81739678D01*
X133560597Y-81733822D01*
X133565530Y-81726212D01*
X133589012Y-81699295D01*
X133632991Y-81661400D01*
X133632993Y-81661398D01*
X133637641Y-81657393D01*
X133638871Y-81655496D01*
X133640424Y-81653937D01*
X133660452Y-81636323D01*
X133669010Y-81629435D01*
X133785382Y-81543856D01*
X133793862Y-81538135D01*
X133804167Y-81531776D01*
X133847851Y-81504820D01*
X133856007Y-81500197D01*
X133906463Y-81474032D01*
X133919996Y-81467996D01*
X133922410Y-81467085D01*
X133923301Y-81466749D01*
X133944611Y-81460788D01*
X133945608Y-81460602D01*
X133950575Y-81459673D01*
X133966305Y-81457745D01*
X134040543Y-81453360D01*
X134044117Y-81453149D01*
X134050430Y-81452935D01*
X134076913Y-81452701D01*
X134200208Y-81451612D01*
X134202653Y-81451614D01*
G37*
%TD.AperFunction*%
%TA.AperFunction,NonConductor*%
G36*
X150542432Y-129962016D02*
G01*
X150562525Y-129986999D01*
X150609675Y-130063943D01*
X150609679Y-130063948D01*
X150612375Y-130068347D01*
X150760102Y-130238887D01*
X150933699Y-130383010D01*
X150938151Y-130385612D01*
X150938156Y-130385615D01*
X150987469Y-130414431D01*
X151036192Y-130466070D01*
X151049263Y-130535853D01*
X151022531Y-130601625D01*
X150991995Y-130628983D01*
X150989735Y-130630160D01*
X150809305Y-130765630D01*
X150805733Y-130769368D01*
X150745811Y-130832072D01*
X150684287Y-130867501D01*
X150613375Y-130864044D01*
X150555588Y-130822798D01*
X150536736Y-130789250D01*
X150500767Y-130693303D01*
X150497615Y-130684895D01*
X150410261Y-130568339D01*
X150293705Y-130480985D01*
X150285296Y-130477833D01*
X150285295Y-130477832D01*
X150189238Y-130441822D01*
X150132473Y-130399181D01*
X150107773Y-130332619D01*
X150122980Y-130263270D01*
X150144527Y-130234589D01*
X150228227Y-130151180D01*
X150231887Y-130147533D01*
X150352770Y-129979307D01*
X150408764Y-129935659D01*
X150479468Y-129929213D01*
X150542432Y-129962016D01*
G37*
%TD.AperFunction*%
%TA.AperFunction,NonConductor*%
G36*
X153082432Y-129962016D02*
G01*
X153102525Y-129986999D01*
X153149675Y-130063943D01*
X153149679Y-130063948D01*
X153152375Y-130068347D01*
X153300102Y-130238887D01*
X153473699Y-130383010D01*
X153478151Y-130385612D01*
X153478156Y-130385615D01*
X153527469Y-130414431D01*
X153576192Y-130466070D01*
X153589263Y-130535853D01*
X153562531Y-130601625D01*
X153531995Y-130628983D01*
X153529735Y-130630160D01*
X153349305Y-130765630D01*
X153193424Y-130928750D01*
X153190509Y-130933024D01*
X153190506Y-130933027D01*
X153096903Y-131070243D01*
X153041992Y-131115246D01*
X152971467Y-131123417D01*
X152907720Y-131092163D01*
X152887023Y-131067679D01*
X152817034Y-130959491D01*
X152817032Y-130959488D01*
X152814226Y-130955151D01*
X152662377Y-130788271D01*
X152658326Y-130785072D01*
X152658322Y-130785068D01*
X152489366Y-130651634D01*
X152489362Y-130651632D01*
X152485311Y-130648432D01*
X152461935Y-130635528D01*
X152411964Y-130585096D01*
X152397192Y-130515653D01*
X152422308Y-130449247D01*
X152449659Y-130422641D01*
X152607855Y-130309801D01*
X152607859Y-130309797D01*
X152612067Y-130306796D01*
X152771887Y-130147533D01*
X152892770Y-129979307D01*
X152948764Y-129935659D01*
X153019468Y-129929213D01*
X153082432Y-129962016D01*
G37*
%TD.AperFunction*%
%TA.AperFunction,NonConductor*%
G36*
X167071343Y-75072341D02*
G01*
X167213716Y-75079085D01*
X167226601Y-75080363D01*
X167347067Y-75098595D01*
X167359738Y-75101184D01*
X167476991Y-75131485D01*
X167488413Y-75135023D01*
X167600953Y-75175827D01*
X167612666Y-75180755D01*
X167717926Y-75231436D01*
X167728711Y-75237292D01*
X167830401Y-75299103D01*
X167839975Y-75305542D01*
X167864613Y-75323805D01*
X167933135Y-75374598D01*
X167943211Y-75382910D01*
X168028526Y-75461060D01*
X168036649Y-75469214D01*
X168116520Y-75557072D01*
X168124254Y-75566451D01*
X168193862Y-75659699D01*
X168200549Y-75669608D01*
X168261408Y-75769729D01*
X168267389Y-75780774D01*
X168318447Y-75887474D01*
X168318473Y-75887528D01*
X168323188Y-75898743D01*
X168364146Y-76011045D01*
X168367765Y-76022690D01*
X168397917Y-76139363D01*
X168400506Y-76152035D01*
X168418737Y-76272492D01*
X168420015Y-76285380D01*
X168425759Y-76406660D01*
X168426759Y-76427763D01*
X168426900Y-76433725D01*
X168426900Y-134284680D01*
X168426759Y-134290642D01*
X168420015Y-134433011D01*
X168418737Y-134445904D01*
X168400505Y-134566367D01*
X168397916Y-134579037D01*
X168397656Y-134580045D01*
X168367614Y-134696293D01*
X168364082Y-134707698D01*
X168323264Y-134820278D01*
X168318345Y-134831967D01*
X168267667Y-134937220D01*
X168261810Y-134948006D01*
X168199992Y-135049705D01*
X168193546Y-135059290D01*
X168124503Y-135152433D01*
X168116191Y-135162510D01*
X168037225Y-135248715D01*
X168029424Y-135256516D01*
X167943205Y-135335496D01*
X167933127Y-135343809D01*
X167839985Y-135412851D01*
X167830398Y-135419298D01*
X167728718Y-135481102D01*
X167717935Y-135486958D01*
X167612664Y-135537645D01*
X167600951Y-135542573D01*
X167488417Y-135583375D01*
X167476995Y-135586913D01*
X167359734Y-135617217D01*
X167347063Y-135619806D01*
X167299208Y-135627049D01*
X167226602Y-135638038D01*
X167213720Y-135639315D01*
X167071337Y-135646059D01*
X167065375Y-135646200D01*
X130917419Y-135646200D01*
X130911457Y-135646059D01*
X130769344Y-135639327D01*
X130756350Y-135638034D01*
X130636461Y-135619790D01*
X130624056Y-135617259D01*
X130506144Y-135586957D01*
X130494346Y-135583300D01*
X130383147Y-135542745D01*
X130371674Y-135537904D01*
X130265881Y-135486967D01*
X130255094Y-135481111D01*
X130153394Y-135419293D01*
X130143808Y-135412846D01*
X130049703Y-135343089D01*
X130039980Y-135335099D01*
X129953893Y-135256839D01*
X129945384Y-135248327D01*
X129888964Y-135186217D01*
X129867080Y-135162126D01*
X129859464Y-135152896D01*
X129788842Y-135058512D01*
X129782057Y-135048473D01*
X129763707Y-135018284D01*
X129720989Y-134948005D01*
X129715141Y-134937234D01*
X129664456Y-134831966D01*
X129659528Y-134820253D01*
X129619295Y-134709288D01*
X129615592Y-134697223D01*
X129585968Y-134580045D01*
X129583544Y-134568017D01*
X129583295Y-134566367D01*
X129573444Y-134501281D01*
X129564813Y-134444255D01*
X129563568Y-134432022D01*
X129556074Y-134289636D01*
X129555900Y-134283014D01*
X129555900Y-129221562D01*
X147807009Y-129221562D01*
X147807306Y-129226714D01*
X147807306Y-129226718D01*
X147813018Y-129325778D01*
X147819997Y-129446814D01*
X147821134Y-129451860D01*
X147821135Y-129451866D01*
X147842384Y-129546152D01*
X147869600Y-129666920D01*
X147871542Y-129671702D01*
X147871543Y-129671706D01*
X147908222Y-129762035D01*
X147954486Y-129875969D01*
X148072375Y-130068347D01*
X148217309Y-130235662D01*
X148217309Y-130235663D01*
X148220102Y-130238887D01*
X148219436Y-130239464D01*
X148251856Y-130297387D01*
X148247531Y-130368252D01*
X148205581Y-130425530D01*
X148173251Y-130443438D01*
X148081505Y-130477832D01*
X148081504Y-130477833D01*
X148073095Y-130480985D01*
X147956539Y-130568339D01*
X147869185Y-130684895D01*
X147818055Y-130821284D01*
X147811300Y-130883466D01*
X147811300Y-132706934D01*
X147818055Y-132769116D01*
X147869185Y-132905505D01*
X147956539Y-133022061D01*
X148073095Y-133109415D01*
X148209484Y-133160545D01*
X148271666Y-133167300D01*
X150095134Y-133167300D01*
X150157316Y-133160545D01*
X150293705Y-133109415D01*
X150410261Y-133022061D01*
X150497615Y-132905505D01*
X150535613Y-132804146D01*
X150578254Y-132747381D01*
X150644816Y-132722681D01*
X150714165Y-132737888D01*
X150748831Y-132765876D01*
X150760102Y-132778887D01*
X150933699Y-132923010D01*
X150938151Y-132925612D01*
X150938156Y-132925615D01*
X151027491Y-132977818D01*
X151128503Y-133036845D01*
X151339284Y-133117334D01*
X151344352Y-133118365D01*
X151344355Y-133118366D01*
X151452804Y-133140430D01*
X151560381Y-133162317D01*
X151565556Y-133162507D01*
X151565558Y-133162507D01*
X151780692Y-133170396D01*
X151780696Y-133170396D01*
X151785856Y-133170585D01*
X151790976Y-133169929D01*
X151790978Y-133169929D01*
X151885885Y-133157771D01*
X152009653Y-133141916D01*
X152014602Y-133140431D01*
X152014608Y-133140430D01*
X152220813Y-133078565D01*
X152220812Y-133078565D01*
X152225763Y-133077080D01*
X152352727Y-133014881D01*
X152423731Y-132980097D01*
X152423736Y-132980094D01*
X152428382Y-132977818D01*
X152432592Y-132974815D01*
X152432597Y-132974812D01*
X152607855Y-132849801D01*
X152607859Y-132849797D01*
X152612067Y-132846796D01*
X152771887Y-132687533D01*
X152892770Y-132519307D01*
X152948764Y-132475659D01*
X153019468Y-132469213D01*
X153082432Y-132502016D01*
X153102525Y-132526999D01*
X153149675Y-132603943D01*
X153149683Y-132603953D01*
X153152375Y-132608347D01*
X153300102Y-132778887D01*
X153473699Y-132923010D01*
X153478151Y-132925612D01*
X153478156Y-132925615D01*
X153567491Y-132977818D01*
X153668503Y-133036845D01*
X153879284Y-133117334D01*
X153884352Y-133118365D01*
X153884355Y-133118366D01*
X153992804Y-133140430D01*
X154100381Y-133162317D01*
X154105556Y-133162507D01*
X154105558Y-133162507D01*
X154320692Y-133170396D01*
X154320696Y-133170396D01*
X154325856Y-133170585D01*
X154330976Y-133169929D01*
X154330978Y-133169929D01*
X154425885Y-133157771D01*
X154549653Y-133141916D01*
X154554602Y-133140431D01*
X154554608Y-133140430D01*
X154760813Y-133078565D01*
X154760812Y-133078565D01*
X154765763Y-133077080D01*
X154892727Y-133014881D01*
X154963731Y-132980097D01*
X154963736Y-132980094D01*
X154968382Y-132977818D01*
X154972592Y-132974815D01*
X154972597Y-132974812D01*
X155147855Y-132849801D01*
X155147859Y-132849797D01*
X155152067Y-132846796D01*
X155311887Y-132687533D01*
X155443550Y-132504305D01*
X155543518Y-132302035D01*
X155609108Y-132086152D01*
X155638558Y-131862456D01*
X155640202Y-131795200D01*
X155621715Y-131570332D01*
X155566749Y-131351504D01*
X155476780Y-131144591D01*
X155428682Y-131070243D01*
X155357034Y-130959491D01*
X155357032Y-130959488D01*
X155354226Y-130955151D01*
X155202377Y-130788271D01*
X155198326Y-130785072D01*
X155198322Y-130785068D01*
X155029366Y-130651634D01*
X155029362Y-130651632D01*
X155025311Y-130648432D01*
X155001935Y-130635528D01*
X154951964Y-130585096D01*
X154937192Y-130515653D01*
X154962308Y-130449247D01*
X154989659Y-130422641D01*
X155147855Y-130309801D01*
X155147859Y-130309797D01*
X155152067Y-130306796D01*
X155311887Y-130147533D01*
X155443550Y-129964305D01*
X155543518Y-129762035D01*
X155609108Y-129546152D01*
X155638558Y-129322456D01*
X155640202Y-129255200D01*
X155621715Y-129030332D01*
X155566749Y-128811504D01*
X155476780Y-128604591D01*
X155428682Y-128530243D01*
X155357034Y-128419491D01*
X155357032Y-128419488D01*
X155354226Y-128415151D01*
X155202377Y-128248271D01*
X155198326Y-128245072D01*
X155198322Y-128245068D01*
X155029366Y-128111634D01*
X155029362Y-128111632D01*
X155025311Y-128108432D01*
X154827783Y-127999391D01*
X154615098Y-127924076D01*
X154564697Y-127915098D01*
X154398057Y-127885414D01*
X154398053Y-127885414D01*
X154392969Y-127884508D01*
X154320974Y-127883629D01*
X154172529Y-127881815D01*
X154172527Y-127881815D01*
X154167359Y-127881752D01*
X153944329Y-127915880D01*
X153729868Y-127985977D01*
X153529735Y-128090160D01*
X153525602Y-128093263D01*
X153525599Y-128093265D01*
X153501134Y-128111634D01*
X153349305Y-128225630D01*
X153193424Y-128388750D01*
X153190512Y-128393019D01*
X153190506Y-128393027D01*
X153096903Y-128530243D01*
X153041992Y-128575246D01*
X152971467Y-128583417D01*
X152907720Y-128552163D01*
X152887023Y-128527679D01*
X152817034Y-128419491D01*
X152817032Y-128419488D01*
X152814226Y-128415151D01*
X152662377Y-128248271D01*
X152658326Y-128245072D01*
X152658322Y-128245068D01*
X152489366Y-128111634D01*
X152489362Y-128111632D01*
X152485311Y-128108432D01*
X152287783Y-127999391D01*
X152075098Y-127924076D01*
X152024697Y-127915098D01*
X151858057Y-127885414D01*
X151858053Y-127885414D01*
X151852969Y-127884508D01*
X151780974Y-127883629D01*
X151632529Y-127881815D01*
X151632527Y-127881815D01*
X151627359Y-127881752D01*
X151404329Y-127915880D01*
X151189868Y-127985977D01*
X150989735Y-128090160D01*
X150985602Y-128093263D01*
X150985599Y-128093265D01*
X150961134Y-128111634D01*
X150809305Y-128225630D01*
X150653424Y-128388750D01*
X150650512Y-128393019D01*
X150650506Y-128393027D01*
X150556903Y-128530243D01*
X150501992Y-128575246D01*
X150431467Y-128583417D01*
X150367720Y-128552163D01*
X150347023Y-128527679D01*
X150277034Y-128419491D01*
X150277032Y-128419488D01*
X150274226Y-128415151D01*
X150122377Y-128248271D01*
X150118326Y-128245072D01*
X150118322Y-128245068D01*
X149949366Y-128111634D01*
X149949362Y-128111632D01*
X149945311Y-128108432D01*
X149747783Y-127999391D01*
X149535098Y-127924076D01*
X149484697Y-127915098D01*
X149318057Y-127885414D01*
X149318053Y-127885414D01*
X149312969Y-127884508D01*
X149240974Y-127883629D01*
X149092529Y-127881815D01*
X149092527Y-127881815D01*
X149087359Y-127881752D01*
X148864329Y-127915880D01*
X148649868Y-127985977D01*
X148449735Y-128090160D01*
X148445602Y-128093263D01*
X148445599Y-128093265D01*
X148421134Y-128111634D01*
X148269305Y-128225630D01*
X148113424Y-128388750D01*
X147986278Y-128575140D01*
X147984104Y-128579824D01*
X147984102Y-128579827D01*
X147912802Y-128733431D01*
X147891281Y-128779793D01*
X147830985Y-128997213D01*
X147807009Y-129221562D01*
X129555900Y-129221562D01*
X129555900Y-82092521D01*
X130630623Y-82092521D01*
X130631708Y-82107190D01*
X130632048Y-82115890D01*
X130633403Y-82418578D01*
X130633395Y-82420569D01*
X130632963Y-82457349D01*
X130633596Y-82461755D01*
X130633602Y-82463083D01*
X130640237Y-82507980D01*
X130667869Y-82700310D01*
X130670769Y-82720496D01*
X130671205Y-82725741D01*
X130670629Y-82730543D01*
X130677446Y-82771424D01*
X130681839Y-82797773D01*
X130682260Y-82800482D01*
X130686235Y-82828150D01*
X130687459Y-82832328D01*
X130688336Y-82836903D01*
X130688417Y-82837232D01*
X130689217Y-82842028D01*
X130697943Y-82868387D01*
X130699234Y-82872529D01*
X130717112Y-82933566D01*
X130721033Y-82939692D01*
X130724337Y-82948123D01*
X130760012Y-83055896D01*
X130762912Y-83066439D01*
X130763533Y-83074692D01*
X130766692Y-83083096D01*
X130785281Y-83132550D01*
X130786955Y-83137289D01*
X130794215Y-83159221D01*
X130796213Y-83163234D01*
X130797140Y-83165485D01*
X130800937Y-83174202D01*
X130803300Y-83180489D01*
X130814398Y-83200144D01*
X130817468Y-83205929D01*
X130839165Y-83249514D01*
X130839167Y-83249517D01*
X130843168Y-83257554D01*
X130849263Y-83264144D01*
X130853015Y-83269580D01*
X130859036Y-83279205D01*
X130885061Y-83325298D01*
X130885299Y-83325721D01*
X130908049Y-83366459D01*
X130917320Y-83378311D01*
X130927899Y-83391836D01*
X130928485Y-83392591D01*
X130975161Y-83453204D01*
X130974596Y-83453639D01*
X130978462Y-83458455D01*
X130978967Y-83458086D01*
X130981847Y-83462023D01*
X130984403Y-83466153D01*
X130987564Y-83469839D01*
X130987569Y-83469847D01*
X131001080Y-83485607D01*
X131004666Y-83489985D01*
X131015765Y-83504175D01*
X131015773Y-83504184D01*
X131018524Y-83507701D01*
X131022548Y-83511562D01*
X131030968Y-83520467D01*
X131077590Y-83574847D01*
X131086319Y-83585029D01*
X131090492Y-83590170D01*
X131093132Y-83594216D01*
X131096383Y-83597830D01*
X131096386Y-83597834D01*
X131114790Y-83618293D01*
X131116738Y-83620510D01*
X131135811Y-83642758D01*
X131139182Y-83645714D01*
X131140089Y-83646631D01*
X131144175Y-83650963D01*
X131217367Y-83732331D01*
X131220103Y-83735562D01*
X131222112Y-83738528D01*
X131225431Y-83742091D01*
X131225437Y-83742099D01*
X131245604Y-83763751D01*
X131247064Y-83765345D01*
X131268010Y-83788631D01*
X131270752Y-83790923D01*
X131273813Y-83794036D01*
X131299708Y-83821837D01*
X131331023Y-83855458D01*
X131331538Y-83856014D01*
X131387124Y-83916479D01*
X131440764Y-83974826D01*
X131443395Y-83977780D01*
X131519730Y-84066234D01*
X131523979Y-84071431D01*
X131538863Y-84090660D01*
X131550689Y-84109035D01*
X131554857Y-84116944D01*
X131554867Y-84116960D01*
X131556953Y-84120918D01*
X131558209Y-84122650D01*
X131558673Y-84123449D01*
X131558895Y-84123792D01*
X131561219Y-84128086D01*
X131564173Y-84131966D01*
X131564174Y-84131968D01*
X131567547Y-84136399D01*
X131569134Y-84138790D01*
X131570196Y-84141455D01*
X131574879Y-84147443D01*
X131574882Y-84147448D01*
X131591337Y-84168489D01*
X131594091Y-84172145D01*
X131621427Y-84209850D01*
X131625383Y-84212914D01*
X131628969Y-84217085D01*
X131631064Y-84219838D01*
X131631069Y-84219843D01*
X131633776Y-84223400D01*
X131635568Y-84225166D01*
X131637163Y-84227088D01*
X131660807Y-84257321D01*
X131677025Y-84268963D01*
X131680133Y-84271194D01*
X131695081Y-84283791D01*
X131712029Y-84300487D01*
X131740370Y-84315727D01*
X131754156Y-84324333D01*
X131780296Y-84343098D01*
X131802752Y-84350994D01*
X131820620Y-84358884D01*
X131841575Y-84370153D01*
X131873056Y-84376827D01*
X131888696Y-84381215D01*
X131919057Y-84391891D01*
X131934100Y-84392699D01*
X131942821Y-84393167D01*
X131962189Y-84395724D01*
X131969793Y-84397336D01*
X132032284Y-84431027D01*
X132066642Y-84493156D01*
X132068198Y-84501421D01*
X132068993Y-84506584D01*
X132069809Y-84512963D01*
X132075589Y-84569804D01*
X132078967Y-84578121D01*
X132080029Y-84582394D01*
X132081318Y-84586637D01*
X132082685Y-84595512D01*
X132086487Y-84603646D01*
X132086488Y-84603649D01*
X132106865Y-84647241D01*
X132109456Y-84653177D01*
X132118125Y-84674518D01*
X132120624Y-84678684D01*
X132120632Y-84678700D01*
X132121536Y-84680206D01*
X132127629Y-84691662D01*
X132144972Y-84728764D01*
X132150902Y-84735502D01*
X132150905Y-84735506D01*
X132155273Y-84740469D01*
X132168740Y-84758899D01*
X132254484Y-84901841D01*
X132256212Y-84904814D01*
X132395605Y-85152258D01*
X132400051Y-85160916D01*
X132494776Y-85364392D01*
X132499708Y-85376623D01*
X132564049Y-85563868D01*
X132567929Y-85577668D01*
X132612342Y-85778971D01*
X132614431Y-85791335D01*
X132643439Y-86036894D01*
X132644177Y-86045906D01*
X132655114Y-86284461D01*
X132658604Y-86360598D01*
X132658730Y-86365237D01*
X132660270Y-86540427D01*
X132660347Y-86549241D01*
X132660345Y-86549304D01*
X132660334Y-86549378D01*
X132660690Y-86588366D01*
X132661021Y-86626069D01*
X132661032Y-86626140D01*
X132661034Y-86626196D01*
X132663024Y-86844376D01*
X132662702Y-86850549D01*
X132662898Y-86850556D01*
X132662719Y-86855421D01*
X132662166Y-86860255D01*
X132662363Y-86865114D01*
X132662363Y-86865115D01*
X132663381Y-86890224D01*
X132663479Y-86894181D01*
X132663723Y-86920977D01*
X132664398Y-86925404D01*
X132664758Y-86929879D01*
X132664646Y-86929888D01*
X132665237Y-86936033D01*
X132671557Y-87091957D01*
X132671478Y-87103837D01*
X132671216Y-87108693D01*
X132671216Y-87108700D01*
X132670955Y-87113548D01*
X132671444Y-87118388D01*
X132673039Y-87134182D01*
X132673574Y-87141738D01*
X132674289Y-87159374D01*
X132675102Y-87163772D01*
X132676205Y-87169743D01*
X132677664Y-87179974D01*
X132689873Y-87300842D01*
X132690077Y-87303059D01*
X132693072Y-87339059D01*
X132694206Y-87343746D01*
X132694376Y-87345425D01*
X132695248Y-87348943D01*
X132695249Y-87348949D01*
X132704476Y-87386187D01*
X132704636Y-87386838D01*
X132715880Y-87433293D01*
X132718754Y-87450050D01*
X132721669Y-87478429D01*
X132725056Y-87486743D01*
X132725056Y-87486744D01*
X132733969Y-87508626D01*
X132734096Y-87508975D01*
X132734239Y-87509567D01*
X132745434Y-87536768D01*
X132747581Y-87542037D01*
X132747855Y-87542718D01*
X132771288Y-87601439D01*
X132771290Y-87601443D01*
X132774616Y-87609777D01*
X132780149Y-87616844D01*
X132780149Y-87616845D01*
X132787205Y-87625858D01*
X132800780Y-87650024D01*
X132801069Y-87649866D01*
X132805386Y-87657735D01*
X132808544Y-87666140D01*
X132813935Y-87673321D01*
X132833208Y-87698995D01*
X132838729Y-87707193D01*
X132839990Y-87708988D01*
X132842299Y-87712829D01*
X132857252Y-87731187D01*
X132860288Y-87735069D01*
X132876398Y-87756529D01*
X132879887Y-87759929D01*
X132883099Y-87763582D01*
X132883086Y-87763594D01*
X132888222Y-87769209D01*
X132911670Y-87797996D01*
X132919062Y-87803083D01*
X132919066Y-87803087D01*
X132927490Y-87808884D01*
X132943996Y-87822442D01*
X132981060Y-87858563D01*
X133001543Y-87878525D01*
X133005508Y-87881344D01*
X133005521Y-87881355D01*
X133028242Y-87897510D01*
X133029475Y-87898397D01*
X133051875Y-87914734D01*
X133088498Y-87941445D01*
X133091014Y-87942351D01*
X133093275Y-87943747D01*
X133122826Y-87964758D01*
X133130806Y-87970927D01*
X133141791Y-87980145D01*
X133145954Y-87982662D01*
X133145960Y-87982666D01*
X133155677Y-87988540D01*
X133163490Y-87993669D01*
X133174168Y-88001260D01*
X133178142Y-88003308D01*
X133178152Y-88003314D01*
X133187664Y-88008215D01*
X133195125Y-88012386D01*
X133220521Y-88027738D01*
X133305657Y-88079203D01*
X133311059Y-88082659D01*
X133312548Y-88083666D01*
X133316359Y-88086697D01*
X133343839Y-88102335D01*
X133346681Y-88104003D01*
X133370997Y-88118702D01*
X133375128Y-88120456D01*
X133378082Y-88121966D01*
X133383032Y-88124638D01*
X133412362Y-88141329D01*
X133415130Y-88143022D01*
X133417474Y-88144832D01*
X133421740Y-88147180D01*
X133421743Y-88147182D01*
X133448552Y-88161938D01*
X133450113Y-88162811D01*
X133478197Y-88178793D01*
X133480948Y-88179876D01*
X133483890Y-88181388D01*
X133560288Y-88223438D01*
X133584086Y-88236537D01*
X133588400Y-88239076D01*
X133591638Y-88241477D01*
X133621541Y-88257180D01*
X133623641Y-88258309D01*
X133646548Y-88270918D01*
X133646559Y-88270923D01*
X133650476Y-88273079D01*
X133654224Y-88274494D01*
X133658880Y-88276787D01*
X133734529Y-88316512D01*
X133739756Y-88319418D01*
X133743645Y-88321702D01*
X133747639Y-88324483D01*
X133775050Y-88337853D01*
X133778365Y-88339531D01*
X133798642Y-88350179D01*
X133798650Y-88350182D01*
X133802610Y-88352262D01*
X133806832Y-88353762D01*
X133810935Y-88355557D01*
X133810875Y-88355693D01*
X133816277Y-88357962D01*
X133841415Y-88370223D01*
X133869669Y-88384004D01*
X133876956Y-88387858D01*
X133893570Y-88397356D01*
X133898119Y-88399093D01*
X133898122Y-88399095D01*
X133904365Y-88401480D01*
X133914632Y-88405935D01*
X133918168Y-88407660D01*
X133918182Y-88407666D01*
X133922201Y-88409626D01*
X133926462Y-88410998D01*
X133930625Y-88412674D01*
X133930561Y-88412834D01*
X133938231Y-88415885D01*
X133945208Y-88420533D01*
X133953774Y-88423213D01*
X133954164Y-88423399D01*
X133975997Y-88432629D01*
X133979570Y-88434566D01*
X133979577Y-88434568D01*
X133987469Y-88438846D01*
X133996246Y-88440737D01*
X133996247Y-88440737D01*
X133997097Y-88440920D01*
X134034116Y-88448894D01*
X134045188Y-88451813D01*
X134085588Y-88464452D01*
X134094562Y-88464620D01*
X134099221Y-88465377D01*
X134114322Y-88467208D01*
X134117085Y-88467431D01*
X134125842Y-88469413D01*
X134162136Y-88467166D01*
X134168218Y-88466936D01*
X134171450Y-88466893D01*
X134175927Y-88467151D01*
X134180402Y-88466772D01*
X134183673Y-88466728D01*
X134192157Y-88466449D01*
X134223679Y-88467039D01*
X134232652Y-88467207D01*
X134241312Y-88464850D01*
X134241649Y-88464808D01*
X134256778Y-88462307D01*
X134263696Y-88460876D01*
X134272652Y-88460321D01*
X134277601Y-88458535D01*
X134285379Y-88457876D01*
X134323150Y-88443268D01*
X134335496Y-88439212D01*
X134366726Y-88430711D01*
X134437706Y-88432118D01*
X134496659Y-88471678D01*
X134518561Y-88510143D01*
X134524057Y-88525627D01*
X134530022Y-88533884D01*
X134542517Y-88555367D01*
X134546745Y-88564632D01*
X134576632Y-88599223D01*
X134583419Y-88607808D01*
X134604924Y-88637579D01*
X134604929Y-88637584D01*
X134610186Y-88644862D01*
X134618233Y-88651117D01*
X134636241Y-88668215D01*
X134642909Y-88675933D01*
X134681307Y-88700748D01*
X134690235Y-88707085D01*
X134719233Y-88729625D01*
X134719237Y-88729628D01*
X134726319Y-88735132D01*
X134734662Y-88738429D01*
X134734665Y-88738430D01*
X134735799Y-88738878D01*
X134757880Y-88750233D01*
X134766447Y-88755769D01*
X134775042Y-88758327D01*
X134775049Y-88758330D01*
X134810271Y-88768812D01*
X134820624Y-88772390D01*
X134826906Y-88774872D01*
X134826914Y-88774874D01*
X134831436Y-88776661D01*
X134836184Y-88777732D01*
X134836185Y-88777732D01*
X134848801Y-88780577D01*
X134857022Y-88782724D01*
X134898823Y-88795164D01*
X134898824Y-88795164D01*
X134907426Y-88797724D01*
X134916401Y-88797767D01*
X134925282Y-88799082D01*
X134925248Y-88799309D01*
X134938600Y-88800827D01*
X135223070Y-88864976D01*
X135229228Y-88866542D01*
X135233643Y-88868169D01*
X135261337Y-88873744D01*
X135265585Y-88874599D01*
X135268434Y-88875207D01*
X135292816Y-88880705D01*
X135292823Y-88880706D01*
X135297191Y-88881691D01*
X135301660Y-88882047D01*
X135302469Y-88882170D01*
X135308402Y-88883217D01*
X135421819Y-88906047D01*
X135433376Y-88909049D01*
X135434804Y-88909387D01*
X135439442Y-88910871D01*
X135444249Y-88911623D01*
X135444253Y-88911624D01*
X135465238Y-88914907D01*
X135470614Y-88915869D01*
X135493155Y-88920406D01*
X135497635Y-88920659D01*
X135497636Y-88920659D01*
X135498239Y-88920693D01*
X135510618Y-88922008D01*
X135584246Y-88933528D01*
X135621122Y-88939298D01*
X135633191Y-88941796D01*
X135636780Y-88942724D01*
X135636782Y-88942724D01*
X135641498Y-88943944D01*
X135646343Y-88944423D01*
X135646347Y-88944424D01*
X135657338Y-88945511D01*
X135663297Y-88946100D01*
X135670353Y-88947001D01*
X135688907Y-88949904D01*
X135698265Y-88950025D01*
X135709040Y-88950626D01*
X135753220Y-88954997D01*
X135781147Y-88957760D01*
X135798309Y-88959458D01*
X135806084Y-88960473D01*
X135826021Y-88963709D01*
X135830885Y-88963740D01*
X135830893Y-88963741D01*
X135836522Y-88963777D01*
X135848107Y-88964386D01*
X135851001Y-88964672D01*
X135851011Y-88964672D01*
X135855465Y-88965113D01*
X135859932Y-88964918D01*
X135859934Y-88964918D01*
X135863662Y-88964755D01*
X135876564Y-88964192D01*
X135882848Y-88964075D01*
X135887910Y-88964108D01*
X135890491Y-88964125D01*
X135901085Y-88964641D01*
X135909170Y-88965377D01*
X135909177Y-88965377D01*
X135914020Y-88965818D01*
X135931569Y-88964699D01*
X135940387Y-88964447D01*
X135950326Y-88964511D01*
X135950327Y-88964511D01*
X135954817Y-88964540D01*
X135959257Y-88963933D01*
X135959262Y-88963933D01*
X135968473Y-88962674D01*
X135977514Y-88961769D01*
X136073481Y-88955650D01*
X136086640Y-88954811D01*
X136095734Y-88954561D01*
X136146715Y-88954997D01*
X136164702Y-88949904D01*
X136195935Y-88941060D01*
X136204501Y-88938956D01*
X136219079Y-88935911D01*
X136254564Y-88928499D01*
X136262483Y-88924271D01*
X136270920Y-88921209D01*
X136270969Y-88921345D01*
X136271461Y-88921147D01*
X136271402Y-88921015D01*
X136279606Y-88917369D01*
X136288241Y-88914924D01*
X136331590Y-88887721D01*
X136339192Y-88883315D01*
X136367057Y-88868437D01*
X136369659Y-88867048D01*
X136439172Y-88852609D01*
X136494858Y-88870778D01*
X136497418Y-88872348D01*
X136513129Y-88883735D01*
X136531515Y-88899356D01*
X136539717Y-88903017D01*
X136560601Y-88912339D01*
X136575103Y-88919980D01*
X136594605Y-88931937D01*
X136602256Y-88936628D01*
X136610914Y-88938983D01*
X136610917Y-88938984D01*
X136625527Y-88942958D01*
X136643812Y-88949481D01*
X136644760Y-88949904D01*
X136665832Y-88959309D01*
X136674725Y-88960520D01*
X136674726Y-88960520D01*
X136697392Y-88963606D01*
X136713458Y-88966870D01*
X136735522Y-88972870D01*
X136735524Y-88972870D01*
X136744190Y-88975227D01*
X136753167Y-88975057D01*
X136753169Y-88975057D01*
X136890854Y-88972446D01*
X136890860Y-88972445D01*
X136891254Y-88972438D01*
X136891381Y-88972398D01*
X136891600Y-88972378D01*
X136918587Y-88971861D01*
X136949964Y-88971261D01*
X136961661Y-88971581D01*
X136971803Y-88972331D01*
X136976641Y-88971940D01*
X136976650Y-88971940D01*
X136992078Y-88970693D01*
X136999814Y-88970307D01*
X137012526Y-88970064D01*
X137012531Y-88970064D01*
X137017005Y-88969978D01*
X137027825Y-88968217D01*
X137037906Y-88966990D01*
X137113958Y-88960846D01*
X137125175Y-88960442D01*
X137136543Y-88960540D01*
X137141354Y-88959833D01*
X137141359Y-88959833D01*
X137155472Y-88957760D01*
X137163632Y-88956832D01*
X137175129Y-88955903D01*
X137179597Y-88955542D01*
X137191499Y-88952845D01*
X137201034Y-88951068D01*
X137304225Y-88935911D01*
X137317734Y-88934665D01*
X137318216Y-88934647D01*
X137318234Y-88934645D01*
X137323091Y-88934460D01*
X137327860Y-88933530D01*
X137327872Y-88933529D01*
X137347700Y-88929664D01*
X137353490Y-88928675D01*
X137358087Y-88928000D01*
X137375206Y-88925485D01*
X137381117Y-88923733D01*
X137392785Y-88920875D01*
X137419402Y-88915686D01*
X137426105Y-88914379D01*
X137432029Y-88913371D01*
X137436332Y-88912744D01*
X137441187Y-88912415D01*
X137445927Y-88911345D01*
X137445932Y-88911344D01*
X137470975Y-88905689D01*
X137474621Y-88904922D01*
X137497145Y-88900532D01*
X137497150Y-88900531D01*
X137501545Y-88899674D01*
X137505780Y-88898201D01*
X137510108Y-88897032D01*
X137510148Y-88897180D01*
X137515752Y-88895579D01*
X137595350Y-88877608D01*
X137597530Y-88877192D01*
X137599696Y-88877022D01*
X137635352Y-88868583D01*
X137636528Y-88868310D01*
X137669399Y-88860888D01*
X137671435Y-88860111D01*
X137673623Y-88859523D01*
X137745391Y-88842535D01*
X137748234Y-88841958D01*
X137750923Y-88841713D01*
X137755652Y-88840529D01*
X137785753Y-88832993D01*
X137787331Y-88832608D01*
X137799335Y-88829766D01*
X137819163Y-88825073D01*
X137821679Y-88824084D01*
X137824421Y-88823311D01*
X137825114Y-88823137D01*
X137827348Y-88822656D01*
X137829485Y-88822439D01*
X137865028Y-88813150D01*
X137866196Y-88812851D01*
X137898823Y-88804682D01*
X137900827Y-88803864D01*
X137902984Y-88803229D01*
X137912171Y-88800828D01*
X137997973Y-88778403D01*
X137999403Y-88778039D01*
X138030319Y-88770373D01*
X138061370Y-88762674D01*
X138061372Y-88762673D01*
X138070084Y-88760513D01*
X138097756Y-88744391D01*
X138112364Y-88737104D01*
X138133613Y-88728173D01*
X138141888Y-88724695D01*
X138160465Y-88709599D01*
X138176491Y-88698519D01*
X138197177Y-88686467D01*
X138219223Y-88663214D01*
X138231186Y-88652131D01*
X138256042Y-88631934D01*
X138269631Y-88612238D01*
X138281905Y-88597102D01*
X138292198Y-88586245D01*
X138292200Y-88586243D01*
X138298378Y-88579726D01*
X138313008Y-88551228D01*
X138321385Y-88537225D01*
X138334474Y-88518253D01*
X138339572Y-88510864D01*
X138342390Y-88502343D01*
X138345241Y-88496614D01*
X138393494Y-88444535D01*
X138462243Y-88426812D01*
X138494151Y-88432025D01*
X138506901Y-88435838D01*
X138515505Y-88438753D01*
X138562663Y-88456657D01*
X138571611Y-88457360D01*
X138580370Y-88459324D01*
X138580359Y-88459375D01*
X138582018Y-88459685D01*
X138582026Y-88459633D01*
X138590902Y-88460960D01*
X138599503Y-88463532D01*
X138608478Y-88463587D01*
X138608479Y-88463587D01*
X138624720Y-88463686D01*
X138649950Y-88463840D01*
X138659029Y-88464225D01*
X138709301Y-88468172D01*
X138718087Y-88466335D01*
X138727047Y-88465762D01*
X138727050Y-88465814D01*
X138728726Y-88465645D01*
X138728719Y-88465594D01*
X138737615Y-88464375D01*
X138746591Y-88464430D01*
X138795098Y-88450567D01*
X138803901Y-88448391D01*
X138819932Y-88445039D01*
X138824478Y-88443325D01*
X138824488Y-88443322D01*
X138832290Y-88440380D01*
X138842116Y-88437129D01*
X138846633Y-88435838D01*
X138888018Y-88424010D01*
X138895612Y-88419219D01*
X138895920Y-88419081D01*
X138918277Y-88407957D01*
X138935269Y-88401550D01*
X138946934Y-88397789D01*
X138955361Y-88395518D01*
X138975247Y-88386693D01*
X138981891Y-88383970D01*
X138995115Y-88378984D01*
X138995126Y-88378979D01*
X138999319Y-88377398D01*
X139007665Y-88372808D01*
X139017250Y-88368055D01*
X139092111Y-88334836D01*
X139102387Y-88330807D01*
X139108993Y-88328545D01*
X139108997Y-88328543D01*
X139113607Y-88326965D01*
X139130143Y-88318266D01*
X139137685Y-88314613D01*
X139147796Y-88310127D01*
X139147802Y-88310124D01*
X139151901Y-88308305D01*
X139162634Y-88301578D01*
X139170872Y-88296839D01*
X139268627Y-88245411D01*
X139277451Y-88241387D01*
X139280450Y-88239944D01*
X139284981Y-88238180D01*
X139308142Y-88224743D01*
X139312702Y-88222222D01*
X139333604Y-88211226D01*
X139337232Y-88208600D01*
X139337380Y-88208508D01*
X139347839Y-88201713D01*
X139448401Y-88143371D01*
X139454473Y-88140320D01*
X139454416Y-88140211D01*
X139458733Y-88137947D01*
X139463204Y-88136026D01*
X139487746Y-88120630D01*
X139491415Y-88118416D01*
X139513783Y-88105439D01*
X139517299Y-88102665D01*
X139521011Y-88100143D01*
X139521036Y-88100179D01*
X139526603Y-88096255D01*
X139622726Y-88035955D01*
X139629411Y-88032282D01*
X139629398Y-88032260D01*
X139633625Y-88029829D01*
X139638015Y-88027738D01*
X139660815Y-88012172D01*
X139664880Y-88009510D01*
X139685633Y-87996492D01*
X139689050Y-87993599D01*
X139690986Y-87992184D01*
X139698726Y-87986291D01*
X139783000Y-87928756D01*
X139792996Y-87922594D01*
X139801803Y-87917717D01*
X139817951Y-87905180D01*
X139824163Y-87900654D01*
X139834770Y-87893413D01*
X139834774Y-87893410D01*
X139838462Y-87890892D01*
X139846484Y-87883549D01*
X139854275Y-87876977D01*
X139877010Y-87859324D01*
X139878363Y-87858413D01*
X139879927Y-87857783D01*
X139940224Y-87810247D01*
X139940823Y-87809779D01*
X139949442Y-87803087D01*
X139963788Y-87791949D01*
X139964918Y-87790779D01*
X139968685Y-87787810D01*
X139976966Y-87778898D01*
X139990223Y-87764633D01*
X139991921Y-87762841D01*
X140036009Y-87717224D01*
X140036011Y-87717221D01*
X140040125Y-87712965D01*
X140040815Y-87711652D01*
X140046774Y-87704743D01*
X140074955Y-87677226D01*
X140074956Y-87677225D01*
X140081376Y-87670956D01*
X140085778Y-87663137D01*
X140085781Y-87663134D01*
X140102748Y-87633001D01*
X140109011Y-87623003D01*
X140128732Y-87594574D01*
X140128733Y-87594572D01*
X140133850Y-87587196D01*
X140137297Y-87576865D01*
X140143777Y-87562694D01*
X140147035Y-87554846D01*
X140151618Y-87547126D01*
X140161475Y-87508726D01*
X140163498Y-87502295D01*
X140163457Y-87502283D01*
X140164725Y-87497991D01*
X140166299Y-87493788D01*
X140167343Y-87489032D01*
X140170888Y-87476177D01*
X140177559Y-87456183D01*
X140177560Y-87456178D01*
X140180400Y-87447665D01*
X140180797Y-87437097D01*
X140183639Y-87414810D01*
X140187930Y-87395266D01*
X140187930Y-87395261D01*
X140189854Y-87386499D01*
X140188837Y-87371645D01*
X140189452Y-87351946D01*
X140189297Y-87351938D01*
X140189736Y-87343746D01*
X140190699Y-87325799D01*
X140191107Y-87320374D01*
X140192901Y-87301896D01*
X140193334Y-87297440D01*
X140193106Y-87292425D01*
X140193156Y-87279944D01*
X140196196Y-87223247D01*
X140196480Y-87219904D01*
X140197061Y-87216941D01*
X140198445Y-87181533D01*
X140198528Y-87179740D01*
X140199064Y-87169743D01*
X140200252Y-87147593D01*
X140199985Y-87144593D01*
X140200022Y-87141175D01*
X140200148Y-87137966D01*
X140204021Y-87038874D01*
X140204153Y-87037068D01*
X140204493Y-87035250D01*
X140205619Y-86998085D01*
X140205657Y-86996994D01*
X140206814Y-86967408D01*
X140206814Y-86967402D01*
X140206989Y-86962921D01*
X140206799Y-86961086D01*
X140206797Y-86959239D01*
X140210959Y-86821979D01*
X140211048Y-86820626D01*
X140211301Y-86819218D01*
X140212195Y-86781293D01*
X140212216Y-86780499D01*
X140213152Y-86749634D01*
X140213267Y-86745843D01*
X140213108Y-86744426D01*
X140213096Y-86743059D01*
X140215005Y-86662043D01*
X140215342Y-86658132D01*
X140216429Y-86654497D01*
X140216476Y-86646729D01*
X140216624Y-86646236D01*
X140216747Y-86626196D01*
X140216873Y-86605490D01*
X140217054Y-86575943D01*
X140217086Y-86573774D01*
X140217658Y-86549590D01*
X140217874Y-86540427D01*
X140217848Y-86540211D01*
X140217846Y-86540029D01*
X140221820Y-86364404D01*
X140222356Y-86358149D01*
X140223715Y-86353605D01*
X140224114Y-86288224D01*
X140224194Y-86284461D01*
X140227276Y-86198822D01*
X140228268Y-86188084D01*
X140230458Y-86180761D01*
X140230757Y-86131738D01*
X140233651Y-86112384D01*
X140232633Y-86112232D01*
X140233959Y-86103362D01*
X140236532Y-86094758D01*
X140236859Y-86041179D01*
X140237169Y-86033092D01*
X140237684Y-86025806D01*
X140238484Y-86017980D01*
X140249041Y-85939242D01*
X140250775Y-85929341D01*
X140265955Y-85859261D01*
X140268000Y-85851135D01*
X140289560Y-85776109D01*
X140289924Y-85774867D01*
X140290287Y-85773651D01*
X140292097Y-85768864D01*
X140293463Y-85766757D01*
X140312958Y-85701570D01*
X140313813Y-85698827D01*
X140315742Y-85692875D01*
X140315745Y-85692866D01*
X140320506Y-85678175D01*
X140322461Y-85673180D01*
X140325128Y-85669065D01*
X140327700Y-85660464D01*
X140327702Y-85660460D01*
X140343883Y-85606353D01*
X140346275Y-85599151D01*
X140429621Y-85371416D01*
X140433664Y-85361659D01*
X140481421Y-85258801D01*
X140489971Y-85243329D01*
X140500787Y-85226642D01*
X140505671Y-85219107D01*
X140508245Y-85210501D01*
X140512299Y-85196948D01*
X140524753Y-85168591D01*
X140616970Y-85013715D01*
X140619496Y-85009651D01*
X140623345Y-85003712D01*
X140627333Y-84997919D01*
X140659331Y-84954111D01*
X140666895Y-84945918D01*
X140666332Y-84945427D01*
X140672236Y-84938659D01*
X140679034Y-84932802D01*
X140709731Y-84885443D01*
X140713713Y-84879659D01*
X140724511Y-84864875D01*
X140724512Y-84864874D01*
X140741471Y-84841655D01*
X140749260Y-84830992D01*
X140768755Y-84809864D01*
X140779630Y-84800493D01*
X140798550Y-84771303D01*
X140807682Y-84758937D01*
X140957397Y-84580162D01*
X140959438Y-84577787D01*
X140963051Y-84573686D01*
X140975332Y-84561540D01*
X140997971Y-84542033D01*
X141002850Y-84534505D01*
X141002853Y-84534502D01*
X141012095Y-84520243D01*
X141023472Y-84505271D01*
X141232069Y-84269571D01*
X141232806Y-84268796D01*
X141233687Y-84268058D01*
X141258909Y-84239245D01*
X141259282Y-84238822D01*
X141269661Y-84227095D01*
X141282624Y-84212447D01*
X141283260Y-84211482D01*
X141283946Y-84210644D01*
X141453971Y-84016408D01*
X141456402Y-84013799D01*
X141458797Y-84011730D01*
X141480082Y-83986654D01*
X141493891Y-83972742D01*
X141511996Y-83957142D01*
X141529749Y-83929753D01*
X141539421Y-83916747D01*
X141539649Y-83916479D01*
X141635907Y-83803079D01*
X141640132Y-83798682D01*
X141639980Y-83798540D01*
X141643297Y-83794980D01*
X141646884Y-83791682D01*
X141665640Y-83768145D01*
X141668109Y-83765144D01*
X141682662Y-83747999D01*
X141682663Y-83747997D01*
X141685564Y-83744580D01*
X141687948Y-83740791D01*
X141690603Y-83737170D01*
X141690700Y-83737241D01*
X141694233Y-83732266D01*
X141734069Y-83682276D01*
X141750360Y-83665347D01*
X141754072Y-83662149D01*
X141754074Y-83662146D01*
X141760871Y-83656290D01*
X141765752Y-83648759D01*
X141765755Y-83648756D01*
X141783869Y-83620810D01*
X141799342Y-83601426D01*
X141804692Y-83595934D01*
X141807509Y-83591970D01*
X141807515Y-83591963D01*
X141817680Y-83577660D01*
X141821845Y-83572128D01*
X141831061Y-83560563D01*
X141833856Y-83557056D01*
X141835424Y-83554384D01*
X141839119Y-83549618D01*
X141843815Y-83545572D01*
X141876894Y-83494537D01*
X141879923Y-83490077D01*
X141920803Y-83432556D01*
X141925904Y-83425863D01*
X141934667Y-83415130D01*
X141934670Y-83415126D01*
X141937741Y-83411364D01*
X141940200Y-83407170D01*
X141940203Y-83407165D01*
X141943787Y-83401051D01*
X141949785Y-83391775D01*
X141950401Y-83390909D01*
X141954891Y-83384591D01*
X141963866Y-83367167D01*
X141967151Y-83361193D01*
X142029039Y-83255619D01*
X142031038Y-83252331D01*
X142047350Y-83226439D01*
X142049279Y-83221973D01*
X142049469Y-83221613D01*
X142051331Y-83217589D01*
X142053451Y-83213973D01*
X142065560Y-83184343D01*
X142066525Y-83182047D01*
X142085859Y-83137289D01*
X142112873Y-83074748D01*
X142113522Y-83073272D01*
X142127289Y-83042488D01*
X142127290Y-83042485D01*
X142129278Y-83038040D01*
X142130216Y-83034598D01*
X142130388Y-83034200D01*
X142158039Y-82932511D01*
X142170029Y-82888517D01*
X142170936Y-82885354D01*
X142178943Y-82858735D01*
X142178944Y-82858731D01*
X142180346Y-82854070D01*
X142180991Y-82849419D01*
X142183286Y-82840533D01*
X142184099Y-82837814D01*
X142191186Y-82814117D01*
X142191379Y-82782417D01*
X142192571Y-82765887D01*
X142200523Y-82708527D01*
X142201940Y-82700310D01*
X142204784Y-82686560D01*
X142205769Y-82681799D01*
X142206351Y-82670047D01*
X142207391Y-82658977D01*
X142208575Y-82650438D01*
X142208486Y-82630646D01*
X142208640Y-82623847D01*
X142209044Y-82615702D01*
X142210265Y-82603399D01*
X142212828Y-82594829D01*
X142212883Y-82585857D01*
X142213171Y-82538740D01*
X142214189Y-82526561D01*
X142214006Y-82526546D01*
X142214411Y-82521702D01*
X142215191Y-82516890D01*
X142215352Y-82490733D01*
X142215505Y-82485281D01*
X142216422Y-82466796D01*
X142216422Y-82466792D01*
X142216644Y-82462312D01*
X142216175Y-82457273D01*
X142215636Y-82444830D01*
X142215793Y-82419566D01*
X142216223Y-82349795D01*
X142216304Y-82347777D01*
X142216611Y-82345763D01*
X142216483Y-82308828D01*
X142216484Y-82307691D01*
X142216693Y-82273857D01*
X142216418Y-82271850D01*
X142216347Y-82269783D01*
X142216331Y-82265335D01*
X142216361Y-82264423D01*
X142216504Y-82263453D01*
X142216192Y-82224953D01*
X142216189Y-82224370D01*
X142216080Y-82193082D01*
X142216066Y-82188961D01*
X142215922Y-82187977D01*
X142215885Y-82187086D01*
X142215436Y-82131580D01*
X142214696Y-82040397D01*
X142214806Y-82034039D01*
X142214892Y-82032014D01*
X142215474Y-82027178D01*
X142214378Y-81995695D01*
X142214307Y-81992361D01*
X142214301Y-81991539D01*
X142214078Y-81964033D01*
X142213406Y-81959593D01*
X142213123Y-81956033D01*
X142212804Y-81950441D01*
X142211439Y-81911210D01*
X142211365Y-81906060D01*
X142211685Y-81853571D01*
X142211740Y-81844593D01*
X142210240Y-81839347D01*
X142209784Y-81833553D01*
X142209764Y-81832611D01*
X142210038Y-81827740D01*
X142208107Y-81808168D01*
X142207575Y-81800187D01*
X142206999Y-81783628D01*
X142207121Y-81783624D01*
X142206812Y-81777414D01*
X142206943Y-81755877D01*
X142206998Y-81746901D01*
X142202589Y-81731474D01*
X142198346Y-81709218D01*
X142198235Y-81708087D01*
X142196090Y-81686356D01*
X142194917Y-81674462D01*
X142194401Y-81666926D01*
X142193783Y-81650829D01*
X142193783Y-81650827D01*
X142193596Y-81645963D01*
X142191724Y-81636376D01*
X142189997Y-81624602D01*
X142189347Y-81618011D01*
X142184135Y-81596767D01*
X142182843Y-81590899D01*
X142166520Y-81507315D01*
X142165129Y-81498566D01*
X142163578Y-81485971D01*
X142163577Y-81485968D01*
X142162983Y-81481142D01*
X142159404Y-81468554D01*
X142156942Y-81458270D01*
X142155034Y-81448496D01*
X142148971Y-81431084D01*
X142146775Y-81424134D01*
X142145983Y-81421348D01*
X142124029Y-81344130D01*
X142121489Y-81332840D01*
X142121066Y-81331134D01*
X142120263Y-81326330D01*
X142112017Y-81301456D01*
X142110419Y-81296263D01*
X142105330Y-81278363D01*
X142104104Y-81274050D01*
X142102075Y-81269497D01*
X142097563Y-81257855D01*
X142064762Y-81158908D01*
X142064249Y-81157162D01*
X142063927Y-81155335D01*
X142056796Y-81134441D01*
X142055601Y-81130560D01*
X142054938Y-81127137D01*
X142052449Y-81120227D01*
X142052448Y-81120222D01*
X142046574Y-81103915D01*
X142045537Y-81100916D01*
X142045256Y-81100069D01*
X142043709Y-81095058D01*
X142029342Y-81044789D01*
X142024551Y-81037196D01*
X142020887Y-81029003D01*
X142021099Y-81028908D01*
X142015209Y-81016847D01*
X141982396Y-80925761D01*
X141980400Y-80919751D01*
X141979743Y-80917594D01*
X141978687Y-80912831D01*
X141967259Y-80883606D01*
X141966063Y-80880422D01*
X141959822Y-80863095D01*
X141956496Y-80853863D01*
X141954394Y-80849903D01*
X141952831Y-80846373D01*
X141950709Y-80841281D01*
X141899084Y-80709259D01*
X141897006Y-80703537D01*
X141895830Y-80700039D01*
X141894641Y-80695323D01*
X141882591Y-80666939D01*
X141881225Y-80663587D01*
X141872787Y-80642007D01*
X141872785Y-80642002D01*
X141871151Y-80637824D01*
X141868942Y-80633920D01*
X141867019Y-80629876D01*
X141867177Y-80629801D01*
X141864681Y-80624749D01*
X141825729Y-80532995D01*
X141820574Y-80518417D01*
X141811100Y-80485269D01*
X141799322Y-80466603D01*
X141793763Y-80455977D01*
X141793447Y-80456139D01*
X141791405Y-80452144D01*
X141789655Y-80448022D01*
X141787338Y-80444190D01*
X141785668Y-80440922D01*
X141781793Y-80433680D01*
X141766106Y-80400269D01*
X141762893Y-80392809D01*
X141755781Y-80374706D01*
X141753330Y-80370511D01*
X141753326Y-80370503D01*
X141750102Y-80364986D01*
X141744837Y-80354968D01*
X141743289Y-80351671D01*
X141743284Y-80351662D01*
X141741382Y-80347611D01*
X141730235Y-80330641D01*
X141726756Y-80325030D01*
X141725933Y-80323620D01*
X141707211Y-80291578D01*
X141703178Y-80283730D01*
X141701214Y-80276858D01*
X141667156Y-80222880D01*
X141664925Y-80219206D01*
X141661182Y-80212799D01*
X141661129Y-80212709D01*
X141652421Y-80197806D01*
X141652420Y-80197805D01*
X141582931Y-80078876D01*
X141573990Y-80063574D01*
X141570599Y-80057376D01*
X141560487Y-80037595D01*
X141555456Y-80030650D01*
X141548702Y-80020294D01*
X141548221Y-80019471D01*
X141545959Y-80015600D01*
X141531575Y-79997483D01*
X141528222Y-79993064D01*
X141420655Y-79844603D01*
X141420654Y-79844601D01*
X141409592Y-79829334D01*
X141405062Y-79822640D01*
X141381221Y-79784854D01*
X141376431Y-79777262D01*
X141369702Y-79771319D01*
X141363884Y-79764483D01*
X141364167Y-79764243D01*
X141355568Y-79754771D01*
X141326090Y-79714086D01*
X141320590Y-79705830D01*
X141315421Y-79697365D01*
X141315414Y-79697355D01*
X141312880Y-79693206D01*
X141302663Y-79681141D01*
X141296798Y-79673659D01*
X141289364Y-79663399D01*
X141286251Y-79660183D01*
X141286246Y-79660178D01*
X141278511Y-79652190D01*
X141272880Y-79645974D01*
X141245876Y-79614088D01*
X141038638Y-79369381D01*
X141032001Y-79360823D01*
X141027628Y-79354654D01*
X141024812Y-79350681D01*
X141012193Y-79337697D01*
X141006412Y-79331328D01*
X140996729Y-79319894D01*
X140986811Y-79311092D01*
X140980104Y-79304680D01*
X140910246Y-79232803D01*
X140898812Y-79218283D01*
X140895145Y-79213974D01*
X140890357Y-79206385D01*
X140883634Y-79200447D01*
X140883631Y-79200444D01*
X140853104Y-79173484D01*
X140846169Y-79166872D01*
X140723230Y-79040380D01*
X140716335Y-79032675D01*
X140707675Y-79022157D01*
X140695016Y-79010884D01*
X140688474Y-79004621D01*
X140681958Y-78997916D01*
X140681957Y-78997915D01*
X140678840Y-78994708D01*
X140667400Y-78985877D01*
X140660610Y-78980244D01*
X140395620Y-78744264D01*
X140387603Y-78736459D01*
X140379748Y-78728098D01*
X140375909Y-78725106D01*
X140375903Y-78725100D01*
X140364698Y-78716365D01*
X140358382Y-78711102D01*
X140346481Y-78700504D01*
X140336273Y-78693738D01*
X140328420Y-78688089D01*
X140208107Y-78594308D01*
X140198477Y-78585986D01*
X140196545Y-78584138D01*
X140193034Y-78580780D01*
X140189052Y-78578005D01*
X140189045Y-78577999D01*
X140174236Y-78567678D01*
X140168824Y-78563687D01*
X140160954Y-78557553D01*
X140155004Y-78552615D01*
X140137360Y-78537032D01*
X140137359Y-78537032D01*
X140130634Y-78531092D01*
X140113089Y-78522855D01*
X140094599Y-78512173D01*
X140052267Y-78482670D01*
X140046489Y-78478119D01*
X140046455Y-78478164D01*
X140042573Y-78475222D01*
X140038933Y-78471992D01*
X140034840Y-78469361D01*
X140034836Y-78469358D01*
X140015356Y-78456837D01*
X140011438Y-78454214D01*
X139994676Y-78442531D01*
X139994670Y-78442527D01*
X139990992Y-78439964D01*
X139986987Y-78437947D01*
X139983710Y-78435994D01*
X139976733Y-78432010D01*
X139877204Y-78368033D01*
X139872008Y-78364506D01*
X139869944Y-78363029D01*
X139866222Y-78359904D01*
X139839454Y-78343712D01*
X139836534Y-78341891D01*
X139816634Y-78329099D01*
X139816633Y-78329098D01*
X139812866Y-78326677D01*
X139808796Y-78324815D01*
X139805198Y-78322848D01*
X139800417Y-78320097D01*
X139695437Y-78256596D01*
X139689889Y-78253039D01*
X139689298Y-78252638D01*
X139685492Y-78249600D01*
X139657692Y-78233717D01*
X139654982Y-78232124D01*
X139634096Y-78219490D01*
X139634091Y-78219487D01*
X139630255Y-78217167D01*
X139626124Y-78215411D01*
X139624213Y-78214434D01*
X139619092Y-78211663D01*
X139520091Y-78155100D01*
X139514918Y-78151978D01*
X139511448Y-78149769D01*
X139507554Y-78146843D01*
X139503259Y-78144553D01*
X139503254Y-78144550D01*
X139480522Y-78132431D01*
X139477295Y-78130649D01*
X139457306Y-78119229D01*
X139453405Y-78117000D01*
X139449229Y-78115347D01*
X139445196Y-78113409D01*
X139445264Y-78113267D01*
X139440032Y-78110844D01*
X139356139Y-78066118D01*
X139344536Y-78059105D01*
X139344115Y-78058818D01*
X139344113Y-78058817D01*
X139340091Y-78056080D01*
X139317462Y-78045343D01*
X139312211Y-78042698D01*
X139296830Y-78034498D01*
X139296826Y-78034496D01*
X139292868Y-78032386D01*
X139288656Y-78030860D01*
X139288644Y-78030855D01*
X139287054Y-78030279D01*
X139275970Y-78025655D01*
X139199552Y-77989396D01*
X139196007Y-77987643D01*
X139173167Y-77975898D01*
X139173165Y-77975897D01*
X139168832Y-77973669D01*
X139164211Y-77972135D01*
X139163825Y-77971973D01*
X139159693Y-77970483D01*
X139155917Y-77968691D01*
X139131441Y-77961098D01*
X139119655Y-77956636D01*
X139113085Y-77952469D01*
X139104463Y-77949983D01*
X139104459Y-77949981D01*
X139053675Y-77935338D01*
X139048888Y-77933855D01*
X139031169Y-77927973D01*
X139031167Y-77927973D01*
X139026918Y-77926562D01*
X139022501Y-77925766D01*
X139020064Y-77925146D01*
X139010907Y-77923006D01*
X138991448Y-77917395D01*
X138971754Y-77911716D01*
X138956568Y-77911773D01*
X138933757Y-77909777D01*
X138918814Y-77907085D01*
X138885840Y-77910601D01*
X138878295Y-77911406D01*
X138865406Y-77912115D01*
X138859149Y-77912138D01*
X138858733Y-77912140D01*
X138858733Y-77912085D01*
X138851146Y-77912251D01*
X138849132Y-77912176D01*
X138833334Y-77911588D01*
X138810328Y-77917396D01*
X138792869Y-77920515D01*
X138772552Y-77922682D01*
X138754258Y-77930217D01*
X138737127Y-77935876D01*
X138735268Y-77936345D01*
X138730568Y-77937532D01*
X138659625Y-77934819D01*
X138601409Y-77894182D01*
X138597259Y-77888080D01*
X138596470Y-77886087D01*
X138591954Y-77880283D01*
X138591943Y-77880266D01*
X138589756Y-77877455D01*
X138581570Y-77865589D01*
X138569657Y-77846012D01*
X138564988Y-77838338D01*
X138558354Y-77832285D01*
X138558352Y-77832282D01*
X138555128Y-77829340D01*
X138539210Y-77811800D01*
X138537606Y-77809658D01*
X138537598Y-77809648D01*
X138534915Y-77806066D01*
X138532395Y-77803544D01*
X138529738Y-77800309D01*
X138511665Y-77777077D01*
X138511664Y-77777076D01*
X138506153Y-77769992D01*
X138488259Y-77757078D01*
X138472866Y-77743968D01*
X138457274Y-77728364D01*
X138449404Y-77724051D01*
X138427280Y-77711927D01*
X138422194Y-77708984D01*
X138418461Y-77706706D01*
X138414504Y-77703850D01*
X138398151Y-77695529D01*
X138392518Y-77692241D01*
X138388248Y-77688433D01*
X138362538Y-77676211D01*
X138356104Y-77672923D01*
X138328282Y-77657676D01*
X138321968Y-77656285D01*
X138314954Y-77653197D01*
X138301349Y-77646274D01*
X138297103Y-77644827D01*
X138294465Y-77643713D01*
X138291057Y-77642184D01*
X138290563Y-77641994D01*
X138286172Y-77639907D01*
X138281510Y-77638519D01*
X138281504Y-77638517D01*
X138260818Y-77632360D01*
X138256153Y-77630872D01*
X138197376Y-77610842D01*
X138192635Y-77610634D01*
X138181860Y-77607505D01*
X138181777Y-77607772D01*
X138177129Y-77606325D01*
X138172608Y-77604525D01*
X138167868Y-77603443D01*
X138167856Y-77603439D01*
X138153825Y-77600236D01*
X138145932Y-77598163D01*
X138130468Y-77593560D01*
X138118545Y-77591794D01*
X138108969Y-77589994D01*
X138041029Y-77574482D01*
X138035051Y-77572945D01*
X138030711Y-77571330D01*
X138025940Y-77570354D01*
X138025932Y-77570352D01*
X138003464Y-77565758D01*
X137998638Y-77564771D01*
X137995926Y-77564184D01*
X137966990Y-77557577D01*
X137962511Y-77557208D01*
X137962025Y-77557133D01*
X137956044Y-77556059D01*
X137839517Y-77532226D01*
X137838429Y-77531962D01*
X137837286Y-77531545D01*
X137799814Y-77524104D01*
X137799306Y-77524002D01*
X137764811Y-77516947D01*
X137763589Y-77516874D01*
X137762502Y-77516695D01*
X137716580Y-77507577D01*
X137715463Y-77507313D01*
X137714262Y-77506882D01*
X137710879Y-77506231D01*
X137710874Y-77506230D01*
X137694622Y-77503104D01*
X137676725Y-77499661D01*
X137676311Y-77499580D01*
X137641832Y-77492734D01*
X137640566Y-77492666D01*
X137639391Y-77492480D01*
X137527701Y-77470994D01*
X137521196Y-77469562D01*
X137516599Y-77468035D01*
X137484727Y-77462690D01*
X137481765Y-77462157D01*
X137457415Y-77457473D01*
X137457414Y-77457473D01*
X137453022Y-77456628D01*
X137448556Y-77456415D01*
X137447169Y-77456249D01*
X137441277Y-77455404D01*
X137357675Y-77441384D01*
X137344531Y-77438432D01*
X137344301Y-77438386D01*
X137339615Y-77437060D01*
X137334786Y-77436472D01*
X137334783Y-77436471D01*
X137314159Y-77433958D01*
X137308563Y-77433148D01*
X137290774Y-77430165D01*
X137290771Y-77430165D01*
X137286360Y-77429425D01*
X137280798Y-77429292D01*
X137268577Y-77428403D01*
X137190793Y-77418925D01*
X137178502Y-77416806D01*
X137175243Y-77416076D01*
X137175241Y-77416076D01*
X137170500Y-77415014D01*
X137148277Y-77413549D01*
X137141323Y-77412897D01*
X137126782Y-77411125D01*
X137126778Y-77411125D01*
X137122324Y-77410582D01*
X137117836Y-77410676D01*
X137117834Y-77410676D01*
X137113336Y-77410770D01*
X137102414Y-77410525D01*
X137059280Y-77407682D01*
X137019761Y-77405077D01*
X137006365Y-77403470D01*
X137000903Y-77402515D01*
X136984467Y-77402210D01*
X136976033Y-77402053D01*
X136970087Y-77401802D01*
X136956033Y-77400876D01*
X136948372Y-77400371D01*
X136942048Y-77400855D01*
X136930098Y-77401201D01*
X136833112Y-77399400D01*
X136827091Y-77399145D01*
X136822928Y-77398868D01*
X136818105Y-77398170D01*
X136813239Y-77398222D01*
X136813234Y-77398222D01*
X136787454Y-77398499D01*
X136783767Y-77398484D01*
X136760785Y-77398058D01*
X136760782Y-77398058D01*
X136756299Y-77397975D01*
X136751853Y-77398528D01*
X136747367Y-77398764D01*
X136747359Y-77398604D01*
X136741605Y-77398994D01*
X136682547Y-77399629D01*
X136609054Y-77400419D01*
X136605983Y-77400354D01*
X136603184Y-77399988D01*
X136598327Y-77400106D01*
X136598324Y-77400106D01*
X136567538Y-77400855D01*
X136565829Y-77400885D01*
X136550334Y-77401052D01*
X136533286Y-77401235D01*
X136530500Y-77401664D01*
X136527360Y-77401831D01*
X136356120Y-77405996D01*
X136336789Y-77406466D01*
X136336190Y-77406458D01*
X136335522Y-77406373D01*
X136333618Y-77406425D01*
X136333595Y-77406425D01*
X136298610Y-77407386D01*
X136297534Y-77407377D01*
X136296368Y-77407235D01*
X136285737Y-77407586D01*
X136272391Y-77408026D01*
X136271303Y-77408058D01*
X136262889Y-77408263D01*
X136260297Y-77408326D01*
X136260255Y-77406597D01*
X136259458Y-77406443D01*
X136259524Y-77408451D01*
X136258215Y-77408494D01*
X136257539Y-77408514D01*
X136225586Y-77409392D01*
X136225563Y-77409394D01*
X136222378Y-77409481D01*
X136221221Y-77409679D01*
X136220118Y-77409752D01*
X135985671Y-77417490D01*
X135980222Y-77417516D01*
X135975984Y-77417088D01*
X135971134Y-77417349D01*
X135971127Y-77417349D01*
X135942642Y-77418883D01*
X135940027Y-77418996D01*
X135925383Y-77419480D01*
X135909870Y-77419992D01*
X135905693Y-77420732D01*
X135900067Y-77421177D01*
X135870903Y-77422748D01*
X135721731Y-77430781D01*
X135714093Y-77430751D01*
X135714093Y-77430775D01*
X135709233Y-77430850D01*
X135704373Y-77430549D01*
X135699529Y-77430999D01*
X135699528Y-77430999D01*
X135676921Y-77433099D01*
X135672045Y-77433457D01*
X135669094Y-77433616D01*
X135647616Y-77434773D01*
X135643216Y-77435647D01*
X135640860Y-77435943D01*
X135631204Y-77437347D01*
X135490743Y-77450396D01*
X135483000Y-77451115D01*
X135470483Y-77451652D01*
X135467314Y-77451630D01*
X135467309Y-77451630D01*
X135462441Y-77451597D01*
X135440274Y-77454893D01*
X135433414Y-77455722D01*
X135431365Y-77455912D01*
X135418656Y-77457092D01*
X135418649Y-77457093D01*
X135414194Y-77457507D01*
X135409842Y-77458548D01*
X135409826Y-77458551D01*
X135405580Y-77459567D01*
X135394795Y-77461655D01*
X135257985Y-77482000D01*
X135245921Y-77483205D01*
X135236840Y-77483672D01*
X135226469Y-77485837D01*
X135215918Y-77488040D01*
X135208703Y-77489329D01*
X135190647Y-77492014D01*
X135181145Y-77494848D01*
X135170902Y-77497440D01*
X135077481Y-77516947D01*
X135034240Y-77525976D01*
X135020661Y-77528046D01*
X135020608Y-77528051D01*
X135020605Y-77528051D01*
X135015759Y-77528522D01*
X135011051Y-77529730D01*
X135011047Y-77529731D01*
X135006481Y-77530903D01*
X134991074Y-77534857D01*
X134985524Y-77536148D01*
X134968004Y-77539806D01*
X134967997Y-77539808D01*
X134963620Y-77540722D01*
X134959408Y-77542251D01*
X134959403Y-77542252D01*
X134958242Y-77542673D01*
X134946577Y-77546278D01*
X134794867Y-77585214D01*
X134788528Y-77586667D01*
X134787369Y-77586901D01*
X134782548Y-77587494D01*
X134751897Y-77596201D01*
X134748850Y-77597024D01*
X134725374Y-77603049D01*
X134725360Y-77603054D01*
X134721026Y-77604166D01*
X134716890Y-77605883D01*
X134714352Y-77606731D01*
X134708863Y-77608426D01*
X134518052Y-77662631D01*
X134507716Y-77665102D01*
X134494985Y-77667582D01*
X134490405Y-77669238D01*
X134490400Y-77669239D01*
X134478446Y-77673560D01*
X134470056Y-77676265D01*
X134456152Y-77680215D01*
X134443547Y-77685829D01*
X134435137Y-77689216D01*
X134192086Y-77777077D01*
X133951513Y-77864042D01*
X133946795Y-77865643D01*
X133920263Y-77874062D01*
X133915903Y-77876231D01*
X133912212Y-77877725D01*
X133912283Y-77877885D01*
X133908194Y-77879701D01*
X133903973Y-77881227D01*
X133878322Y-77894880D01*
X133875291Y-77896440D01*
X133384675Y-78140572D01*
X133379105Y-78143176D01*
X133360943Y-78151133D01*
X133360939Y-78151135D01*
X133356486Y-78153086D01*
X133351272Y-78156409D01*
X133344508Y-78160232D01*
X133340950Y-78162331D01*
X133336944Y-78164324D01*
X133333256Y-78166869D01*
X133315786Y-78178923D01*
X133311941Y-78181473D01*
X132841764Y-78481096D01*
X132836322Y-78484374D01*
X132819556Y-78493906D01*
X132815317Y-78496316D01*
X132810052Y-78500499D01*
X132802156Y-78506128D01*
X132800164Y-78507607D01*
X132796381Y-78510017D01*
X132792985Y-78512934D01*
X132792979Y-78512938D01*
X132777314Y-78526392D01*
X132773603Y-78529458D01*
X132764070Y-78537032D01*
X132343280Y-78871357D01*
X132335193Y-78877273D01*
X132327180Y-78882658D01*
X132327172Y-78882664D01*
X132323139Y-78885375D01*
X132319566Y-78888678D01*
X132319564Y-78888680D01*
X132311350Y-78896275D01*
X132304192Y-78902413D01*
X132297579Y-78907667D01*
X132297575Y-78907671D01*
X132294072Y-78910454D01*
X132290996Y-78913709D01*
X132283542Y-78921596D01*
X132277505Y-78927567D01*
X132153780Y-79041961D01*
X132147768Y-79046911D01*
X132147773Y-79046916D01*
X132144067Y-79050092D01*
X132140143Y-79052962D01*
X132120781Y-79072340D01*
X132117237Y-79075749D01*
X132099449Y-79092196D01*
X132096623Y-79095674D01*
X132095460Y-79096914D01*
X132088376Y-79104773D01*
X132022894Y-79170310D01*
X131874708Y-79318622D01*
X131864697Y-79327623D01*
X131860320Y-79331154D01*
X131857050Y-79334753D01*
X131857042Y-79334761D01*
X131843630Y-79349525D01*
X131839504Y-79353856D01*
X131824182Y-79369190D01*
X131820346Y-79374314D01*
X131812747Y-79383520D01*
X131648680Y-79564110D01*
X131641742Y-79571168D01*
X131630921Y-79581345D01*
X131621263Y-79593749D01*
X131615106Y-79601066D01*
X131606641Y-79610383D01*
X131597843Y-79623375D01*
X131592944Y-79630117D01*
X131469396Y-79788781D01*
X131468557Y-79789847D01*
X131444197Y-79820369D01*
X131442536Y-79823276D01*
X131442395Y-79823457D01*
X131441544Y-79824945D01*
X131441543Y-79824947D01*
X131430307Y-79844601D01*
X131387877Y-79918818D01*
X131387842Y-79918962D01*
X131387738Y-79919179D01*
X131359827Y-79968026D01*
X131353528Y-79977946D01*
X131328165Y-80014048D01*
X131325274Y-80022545D01*
X131318979Y-80041048D01*
X131298323Y-80078874D01*
X131292232Y-80086535D01*
X131278430Y-80101291D01*
X131276702Y-80102864D01*
X131269269Y-80107908D01*
X131263552Y-80114834D01*
X131263551Y-80114835D01*
X131237328Y-80146604D01*
X131231068Y-80153636D01*
X131222466Y-80162600D01*
X131219860Y-80166231D01*
X131219854Y-80166238D01*
X131213885Y-80174555D01*
X131208707Y-80181278D01*
X131197320Y-80195073D01*
X131194835Y-80199261D01*
X131194833Y-80199263D01*
X131191337Y-80205153D01*
X131185349Y-80214311D01*
X131179932Y-80221859D01*
X131158415Y-80251837D01*
X131155438Y-80260304D01*
X131155437Y-80260307D01*
X131154973Y-80261627D01*
X131144463Y-80284139D01*
X131129226Y-80309815D01*
X131122671Y-80319756D01*
X131119852Y-80323620D01*
X131119849Y-80323626D01*
X131116986Y-80327550D01*
X131108580Y-80343866D01*
X131107439Y-80346081D01*
X131103787Y-80352678D01*
X131097032Y-80364060D01*
X131097029Y-80364066D01*
X131094746Y-80367913D01*
X131093028Y-80372052D01*
X131093026Y-80372057D01*
X131090745Y-80377554D01*
X131086377Y-80386966D01*
X131069143Y-80420419D01*
X131063123Y-80430665D01*
X131062385Y-80431986D01*
X131059686Y-80436044D01*
X131049562Y-80457982D01*
X131048729Y-80459786D01*
X131046342Y-80464678D01*
X131035801Y-80485139D01*
X131034335Y-80489372D01*
X131034334Y-80489374D01*
X131034148Y-80489912D01*
X131029492Y-80501472D01*
X130988242Y-80590855D01*
X130983076Y-80600849D01*
X130977438Y-80610654D01*
X130975690Y-80615197D01*
X130970544Y-80628570D01*
X130967355Y-80636115D01*
X130960619Y-80650711D01*
X130959335Y-80655010D01*
X130959335Y-80655011D01*
X130957153Y-80662320D01*
X130954012Y-80671527D01*
X130918809Y-80763006D01*
X130916741Y-80768053D01*
X130906140Y-80792401D01*
X130904906Y-80797111D01*
X130904528Y-80798203D01*
X130903077Y-80802706D01*
X130903180Y-80802738D01*
X130901874Y-80807018D01*
X130900261Y-80811209D01*
X130894072Y-80838238D01*
X130893164Y-80841935D01*
X130890949Y-80850389D01*
X130888044Y-80859479D01*
X130884392Y-80866094D01*
X130882434Y-80874849D01*
X130881871Y-80877368D01*
X130870292Y-80908772D01*
X130858008Y-80931999D01*
X130854204Y-80938687D01*
X130826109Y-80984743D01*
X130823774Y-80993405D01*
X130823774Y-80993406D01*
X130812538Y-81035095D01*
X130809998Y-81043374D01*
X130789508Y-81102805D01*
X130786904Y-81109696D01*
X130778736Y-81129541D01*
X130776565Y-81138568D01*
X130773176Y-81150176D01*
X130771171Y-81155991D01*
X130770327Y-81160385D01*
X130770324Y-81160396D01*
X130766947Y-81177975D01*
X130765717Y-81183668D01*
X130741865Y-81282841D01*
X130738206Y-81295223D01*
X130737484Y-81297274D01*
X130737482Y-81297283D01*
X130735864Y-81301876D01*
X130734973Y-81306660D01*
X130731573Y-81324914D01*
X130730209Y-81331306D01*
X130725472Y-81351002D01*
X130724738Y-81358802D01*
X130723163Y-81370063D01*
X130701905Y-81484182D01*
X130699891Y-81492370D01*
X130698929Y-81496653D01*
X130697499Y-81501305D01*
X130696801Y-81506127D01*
X130693620Y-81528100D01*
X130692789Y-81533122D01*
X130688402Y-81556674D01*
X130688214Y-81561152D01*
X130688106Y-81562105D01*
X130687041Y-81573543D01*
X130668558Y-81701214D01*
X130666743Y-81710147D01*
X130666061Y-81713891D01*
X130664822Y-81718601D01*
X130662246Y-81743573D01*
X130662062Y-81745352D01*
X130661428Y-81750465D01*
X130658020Y-81774007D01*
X130658013Y-81778491D01*
X130657977Y-81778989D01*
X130657350Y-81791028D01*
X130652397Y-81839033D01*
X130644174Y-81918731D01*
X130643077Y-81925408D01*
X130643201Y-81925426D01*
X130642493Y-81930248D01*
X130641418Y-81934992D01*
X130641086Y-81939841D01*
X130641085Y-81939846D01*
X130639435Y-81963929D01*
X130639065Y-81968245D01*
X130638259Y-81976062D01*
X130636410Y-81993979D01*
X130636587Y-81998460D01*
X130636445Y-82002937D01*
X130636396Y-82002935D01*
X130636298Y-82009707D01*
X130635434Y-82022316D01*
X130634962Y-82029204D01*
X130633842Y-82039415D01*
X130632496Y-82048323D01*
X130632495Y-82048331D01*
X130631768Y-82053145D01*
X130631790Y-82058010D01*
X130631843Y-82069834D01*
X130631550Y-82078996D01*
X130630623Y-82092521D01*
X129555900Y-82092521D01*
X129555900Y-76435386D01*
X129556074Y-76428764D01*
X129563568Y-76286379D01*
X129564813Y-76274146D01*
X129579290Y-76178492D01*
X129583546Y-76150373D01*
X129585968Y-76138354D01*
X129615446Y-76021754D01*
X129619224Y-76009482D01*
X129659617Y-75898730D01*
X129664322Y-75887539D01*
X129715406Y-75780787D01*
X129721389Y-75769737D01*
X129781503Y-75670840D01*
X129788543Y-75660460D01*
X129859720Y-75566000D01*
X129866765Y-75557458D01*
X129886149Y-75535957D01*
X129945964Y-75469607D01*
X129954792Y-75460743D01*
X130039975Y-75383304D01*
X130049700Y-75375313D01*
X130143816Y-75305549D01*
X130153401Y-75299103D01*
X130255079Y-75237298D01*
X130265864Y-75231441D01*
X130270464Y-75229226D01*
X130371683Y-75180491D01*
X130383153Y-75175652D01*
X130494346Y-75135099D01*
X130506152Y-75131439D01*
X130624058Y-75101140D01*
X130636451Y-75098611D01*
X130710778Y-75087301D01*
X130756351Y-75080366D01*
X130769344Y-75079073D01*
X130911463Y-75072341D01*
X130917425Y-75072200D01*
X167065380Y-75072200D01*
X167071343Y-75072341D01*
G37*
%TD.AperFunction*%
M02*
