M48
; DRILL file {KiCad (6.0.1)} date Thu Aug 18 19:04:32 2022
; FORMAT={-:-/ absolute / inch / decimal}
; #@! TF.CreationDate,2022-08-18T19:04:32-05:00
; #@! TF.GenerationSoftware,Kicad,Pcbnew,(6.0.1)
; #@! TF.FileFunction,Plated,1,2,PTH
FMAT,2
INCH
; #@! TA.AperFunction,Plated,PTH,ViaDrill
T1C0.0157
; #@! TA.AperFunction,Plated,PTH,ComponentDrill
T2C0.0217
; #@! TA.AperFunction,Plated,PTH,ComponentDrill
T3C0.0335
; #@! TA.AperFunction,Plated,PTH,ComponentDrill
T4C0.0394
; #@! TA.AperFunction,Plated,PTH,ComponentDrill
T5C0.0400
; #@! TA.AperFunction,Plated,PTH,ComponentDrill
T6C0.0866
; #@! TA.AperFunction,Plated,PTH,ComponentDrill
T7C0.1575
%
G90
G05
T1
X3.897Y-5.728
X4.038Y-5.762
X4.156Y-5.817
X4.199Y-5.743
X4.8297Y-4.813
X4.875Y-5.478
X4.9587Y-5.2156
X4.967Y-5.723
X4.971Y-4.075
X4.991Y-4.741
X5.09Y-2.31
X5.1043Y-3.9419
X5.1289Y-3.8957
X5.2192Y-3.8996
X5.262Y-5.012
X5.3299Y-4.0647
X5.37Y-3.77
X5.3789Y-3.189
X5.383Y-5.013
X5.4Y-3.88
X5.5157Y-2.5089
X5.539Y-3.77
X5.559Y-4.0246
X5.609Y-4.645
X5.6132Y-2.6024
X5.6132Y-3.7982
X5.6368Y-3.4114
X5.6634Y-3.5039
X5.6841Y-2.314
X5.71Y-2.54
X5.7124Y-4.2076
X5.7136Y-3.751
X5.7224Y-4.2476
X5.77Y-4.7
X5.8868Y-4.2076
X5.8986Y-3.8297
X5.92Y-3.992
X5.9557Y-2.872
X5.9557Y-4.1954
X6.001Y-3.993
X6.0177Y-4.2165
X6.0404Y-4.2441
X6.045Y-3.906
X6.11Y-4.34
X6.1443Y-4.2654
X6.1555Y-3.1112
X6.2067Y-4.2126
X6.21Y-3.75
X6.2175Y-4.0719
X6.22Y-5.04
X6.2549Y-4.2028
X6.2687Y-3.9882
X6.27Y-2.85
X6.2726Y-3.5817
X6.2726Y-3.7451
X6.2854Y-4.1703
X6.304Y-3.789
X6.3248Y-2.4754
X6.3465Y-4.0994
X6.39Y-4.68
X6.452Y-4.061
X6.5Y-4.0994
X6.52Y-3.84
X6.5217Y-3.9154
X6.5329Y-4.3281
X6.5335Y-3.186
X6.5364Y-4.1683
X6.575Y-4.3701
X6.6004Y-4.2136
X6.66Y-3.71
X6.6831Y-3.8543
X6.6831Y-3.9094
X6.861Y-2.956
X6.887Y-2.977
X6.912Y-2.999
X6.935Y-2.871
X6.94Y-3.019
X6.989Y-2.871
X7.0154Y-3.798
X7.04Y-3.742
X7.042Y-2.871
X7.043Y-2.917
X7.098Y-3.913
X7.1545Y-4.1693
X7.182Y-4.255
X7.1909Y-4.71
X7.2677Y-4.0049
X7.279Y-4.389
X7.3061Y-4.5876
X7.307Y-1.7844
X7.312Y-3.712
X7.3297Y-4.5413
X7.3317Y-3.9075
X7.333Y-3.865
X7.345Y-3.805
X7.35Y-3.1
X7.378Y-3.362
X7.386Y-4.032
X7.3927Y-4.5844
X7.41Y-3.65
X7.437Y-2.001
X7.472Y-3.342
X7.52Y-4.09
X7.554Y-3.913
X7.557Y-3.6504
X7.61Y-3.97
X7.612Y-2.3844
X7.751Y-3.722
X7.76Y-3.563
X7.761Y-4.478
X7.77Y-3.979
X7.7854Y-4.327
X7.7854Y-4.385
X7.841Y-3.675
X7.846Y-4.477
T4
X3.8661Y-5.2465
X3.8661Y-5.3465
X4.2366Y-4.8071
X4.2667Y-3.2687
X4.3366Y-4.8071
X4.3667Y-3.2687
X5.565Y-3.3189
X5.565Y-3.5157
X6.1358Y-3.3189
X6.1358Y-3.4173
X6.1358Y-3.5157
X6.765Y-2.6948
X6.765Y-2.7948
X6.9174Y-2.471
X7.0174Y-2.471
X7.1174Y-2.471
X7.2174Y-2.471
X7.36Y-2.6958
X7.36Y-2.7958
T5
X6.9834Y-1.8558
X6.9834Y-1.9558
X7.0834Y-1.8558
X7.0834Y-1.9558
X7.1834Y-1.8558
X7.1834Y-1.9558
T6
X5.8406Y-3.1969
X5.8406Y-3.6378
T2
G00X3.9518Y-5.8051
M15
G01X3.9518Y-5.7795
M16
G05
G00X4.2569Y-5.8051
M15
G01X4.2569Y-5.7795
M16
G05
T3
G00X3.9577Y-5.6535
M15
G01X3.9577Y-5.6319
M16
G05
G00X4.251Y-5.6535
M15
G01X4.251Y-5.6319
M16
G05
T7
G00X5.7513Y-1.21
M15
G01X5.9087Y-1.21
M16
G05
T0
M30
