M48
; DRILL file {KiCad (6.0.1)} date Sun Jul  3 20:58:24 2022
; FORMAT={-:-/ absolute / inch / decimal}
; #@! TF.CreationDate,2022-07-03T20:58:24-05:00
; #@! TF.GenerationSoftware,Kicad,Pcbnew,(6.0.1)
; #@! TF.FileFunction,Plated,1,2,PTH
FMAT,2
INCH
; #@! TA.AperFunction,Plated,PTH,ViaDrill
T1C0.0157
; #@! TA.AperFunction,Plated,PTH,ComponentDrill
T2C0.0217
; #@! TA.AperFunction,Plated,PTH,ComponentDrill
T3C0.0335
; #@! TA.AperFunction,Plated,PTH,ComponentDrill
T4C0.0394
; #@! TA.AperFunction,Plated,PTH,ComponentDrill
T5C0.0400
; #@! TA.AperFunction,Plated,PTH,ComponentDrill
T6C0.0866
; #@! TA.AperFunction,Plated,PTH,ComponentDrill
T7C0.1575
%
G90
G05
T1
X4.038Y-5.762
X4.1604Y-5.7894
X4.199Y-5.743
X4.506Y-5.066
X4.62Y-5.1
X4.62Y-5.28
X4.82Y-5.79
X4.8297Y-4.813
X4.9Y-5.15
X4.927Y-4.0845
X4.9557Y-5.44
X4.9587Y-5.2156
X5.013Y-5.103
X5.06Y-5.76
X5.09Y-2.31
X5.1043Y-3.9419
X5.115Y-5.282
X5.117Y-4.05
X5.1289Y-3.8957
X5.2192Y-3.8996
X5.3299Y-4.0647
X5.348Y-3.973
X5.37Y-3.77
X5.3789Y-3.189
X5.38Y-4.7
X5.4Y-3.88
X5.5157Y-2.5089
X5.5758Y-4.0246
X5.6132Y-2.6024
X5.6132Y-3.7982
X5.6368Y-3.4114
X5.6634Y-3.5039
X5.6841Y-2.314
X5.71Y-2.54
X5.7124Y-4.2076
X5.7136Y-3.751
X5.7224Y-4.2476
X5.77Y-4.7
X5.7717Y-5.7844
X5.8868Y-4.2076
X5.8986Y-3.8297
X5.9557Y-2.872
X5.9557Y-4.1954
X6.001Y-3.993
X6.0177Y-4.2165
X6.0404Y-4.2441
X6.11Y-4.34
X6.1443Y-4.2654
X6.1555Y-3.1112
X6.2067Y-4.2126
X6.21Y-3.75
X6.2175Y-4.0719
X6.22Y-5.04
X6.2549Y-4.2028
X6.2687Y-3.9882
X6.27Y-2.85
X6.2726Y-3.5817
X6.2726Y-3.7451
X6.2854Y-4.1703
X6.3248Y-2.4754
X6.3465Y-4.0994
X6.39Y-4.68
X6.452Y-4.061
X6.4646Y-5.7943
X6.5Y-4.0994
X6.52Y-3.84
X6.5217Y-3.9154
X6.5329Y-4.3281
X6.5335Y-3.186
X6.5364Y-4.1683
X6.552Y-4.913
X6.575Y-4.3701
X6.6004Y-4.2136
X6.66Y-3.71
X6.6831Y-3.8543
X6.6831Y-3.9094
X6.815Y-4.222
X6.8366Y-3.8051
X6.8799Y-3.8583
X6.983Y-4.051
X6.992Y-3.856
X7.0Y-5.42
X7.035Y-4.209
X7.05Y-5.78
X7.1545Y-4.1693
X7.182Y-4.255
X7.1909Y-4.71
X7.2323Y-4.497
X7.267Y-4.532
X7.2677Y-4.0049
X7.268Y-4.436
X7.3061Y-4.5876
X7.321Y-3.747
X7.3297Y-4.5413
X7.3317Y-3.9075
X7.35Y-3.1
X7.358Y-4.037
X7.3701Y-3.9016
X7.374Y-4.28
X7.377Y-3.699
X7.378Y-3.362
X7.4Y-3.469
X7.41Y-3.65
X7.4449Y-4.8425
X7.5Y-3.94
X7.52Y-4.09
X7.55Y-3.94
X7.55Y-4.03
X7.556Y-3.846
X7.61Y-3.65
X7.61Y-3.91
X7.61Y-3.97
X7.612Y-4.081
X7.75Y-1.94
X7.75Y-4.33
X7.767Y-5.018
X7.78Y-1.83
X7.78Y-4.35
T4
X3.8661Y-5.2465
X3.8661Y-5.3465
X4.2366Y-4.8071
X4.2667Y-3.2687
X4.3366Y-4.8071
X4.3667Y-3.2687
X5.565Y-3.3189
X5.565Y-3.5157
X6.1358Y-3.3189
X6.1358Y-3.4173
X6.1358Y-3.5157
T5
X7.2559Y-1.4084
X7.2559Y-1.5084
X7.3559Y-1.4084
X7.3559Y-1.5084
X7.4559Y-1.4084
X7.4559Y-1.5084
T6
X5.8406Y-3.1969
X5.8406Y-3.6378
T2
G00X3.9518Y-5.8051
M15
G01X3.9518Y-5.7795
M16
G05
G00X4.2569Y-5.8051
M15
G01X4.2569Y-5.7795
M16
G05
T3
G00X3.9577Y-5.6535
M15
G01X3.9577Y-5.6319
M16
G05
G00X4.251Y-5.6535
M15
G01X4.251Y-5.6319
M16
G05
T7
G00X5.7906Y-1.21
M15
G01X5.8694Y-1.21
M16
G05
T0
M30
