G04 #@! TF.GenerationSoftware,KiCad,Pcbnew,(5.1.4)-1*
G04 #@! TF.CreationDate,2021-02-25T18:32:59-06:00*
G04 #@! TF.ProjectId,Bsides-KC-2021-Safe-Badge-SVG2Shenzen v1_00,42736964-6573-42d4-9b43-2d323032312d,rev?*
G04 #@! TF.SameCoordinates,Original*
G04 #@! TF.FileFunction,Profile,NP*
%FSLAX46Y46*%
G04 Gerber Fmt 4.6, Leading zero omitted, Abs format (unit mm)*
G04 Created by KiCad (PCBNEW (5.1.4)-1) date 2021-02-25 18:32:59*
%MOMM*%
%LPD*%
G04 APERTURE LIST*
%ADD10C,0.100000*%
G04 APERTURE END LIST*
D10*
X-28351800Y50863095D02*
X46280200Y50863095D01*
X46280200Y50863095D02*
X46573500Y50848381D01*
X46573500Y50848381D02*
X46858100Y50805182D01*
X46858100Y50805182D02*
X47132700Y50734914D01*
X47132700Y50734914D02*
X47395700Y50638994D01*
X47395700Y50638994D02*
X47645900Y50518838D01*
X47645900Y50518838D02*
X47881700Y50375862D01*
X47881700Y50375862D02*
X48101800Y50211483D01*
X48101800Y50211483D02*
X48304700Y50027117D01*
X48304700Y50027117D02*
X48489100Y49824185D01*
X48489100Y49824185D02*
X48653500Y49604085D01*
X48653500Y49604085D02*
X48796400Y49368255D01*
X48796400Y49368255D02*
X48916600Y49118105D01*
X48916600Y49118105D02*
X49012500Y48855060D01*
X49012500Y48855060D02*
X49082800Y48580510D01*
X49082800Y48580510D02*
X49126000Y48295890D01*
X49126000Y48295890D02*
X49140700Y48002610D01*
X49140700Y48002610D02*
X49140700Y-46276400D01*
X49140700Y-46276400D02*
X49126000Y-46569700D01*
X49126000Y-46569700D02*
X49082800Y-46854300D01*
X49082800Y-46854300D02*
X49012500Y-47128900D01*
X49012500Y-47128900D02*
X48916600Y-47391900D01*
X48916600Y-47391900D02*
X48796400Y-47642100D01*
X48796400Y-47642100D02*
X48653500Y-47877900D01*
X48653500Y-47877900D02*
X48489100Y-48098000D01*
X48489100Y-48098000D02*
X48304700Y-48300900D01*
X48304700Y-48300900D02*
X48101800Y-48485300D01*
X48101800Y-48485300D02*
X47881700Y-48649700D01*
X47881700Y-48649700D02*
X47645900Y-48792600D01*
X47645900Y-48792600D02*
X47395700Y-48912800D01*
X47395700Y-48912800D02*
X47132700Y-49008700D01*
X47132700Y-49008700D02*
X46858100Y-49079000D01*
X46858100Y-49079000D02*
X46573500Y-49122200D01*
X46573500Y-49122200D02*
X46280200Y-49136900D01*
X46280200Y-49136900D02*
X-28351800Y-49136900D01*
X-28351800Y-49136900D02*
X-28645000Y-49122200D01*
X-28645000Y-49122200D02*
X-28929600Y-49079000D01*
X-28929600Y-49079000D02*
X-29204200Y-49008700D01*
X-29204200Y-49008700D02*
X-29467300Y-48912800D01*
X-29467300Y-48912800D02*
X-29717400Y-48792600D01*
X-29717400Y-48792600D02*
X-29953200Y-48649700D01*
X-29953200Y-48649700D02*
X-30173300Y-48485300D01*
X-30173300Y-48485300D02*
X-30376300Y-48300900D01*
X-30376300Y-48300900D02*
X-30560600Y-48098000D01*
X-30560600Y-48098000D02*
X-30725000Y-47877900D01*
X-30725000Y-47877900D02*
X-30868000Y-47642100D01*
X-30868000Y-47642100D02*
X-30988100Y-47391900D01*
X-30988100Y-47391900D02*
X-31084100Y-47128900D01*
X-31084100Y-47128900D02*
X-31154300Y-46854300D01*
X-31154300Y-46854300D02*
X-31197500Y-46569700D01*
X-31197500Y-46569700D02*
X-31212200Y-46276400D01*
X-31212200Y-46276400D02*
X-31212200Y48002610D01*
X-31212200Y48002610D02*
X-31197500Y48295890D01*
X-31197500Y48295890D02*
X-31154300Y48580510D01*
X-31154300Y48580510D02*
X-31084100Y48855060D01*
X-31084100Y48855060D02*
X-30988100Y49118105D01*
X-30988100Y49118105D02*
X-30868000Y49368255D01*
X-30868000Y49368255D02*
X-30725000Y49604085D01*
X-30725000Y49604085D02*
X-30560600Y49824185D01*
X-30560600Y49824185D02*
X-30376300Y50027117D01*
X-30376300Y50027117D02*
X-30173300Y50211483D01*
X-30173300Y50211483D02*
X-29953200Y50375862D01*
X-29953200Y50375862D02*
X-29717400Y50518838D01*
X-29717400Y50518838D02*
X-29467300Y50638994D01*
X-29467300Y50638994D02*
X-29204200Y50734914D01*
X-29204200Y50734914D02*
X-28929600Y50805182D01*
X-28929600Y50805182D02*
X-28645000Y50848381D01*
X-28645000Y50848381D02*
X-28351800Y50863095D01*
X-28351800Y50863095D02*
X-28351800Y50863095D01*
X-28351800Y50863095D02*
X-28351800Y50863095D01*
M02*
