%TF.GenerationSoftware,KiCad,Pcbnew,(6.0.1)*%
%TF.CreationDate,2022-08-20T09:02:39-05:00*%
%TF.ProjectId,BsidesKC-2022-Safe-Badge,42736964-6573-44b4-932d-323032322d53,0-c*%
%TF.SameCoordinates,Original*%
%TF.FileFunction,Soldermask,Bot*%
%TF.FilePolarity,Negative*%
%FSLAX46Y46*%
G04 Gerber Fmt 4.6, Leading zero omitted, Abs format (unit mm)*
G04 Created by KiCad (PCBNEW (6.0.1)) date 2022-08-20 09:02:39*
%MOMM*%
%LPD*%
G01*
G04 APERTURE LIST*
G04 Aperture macros list*
%AMRoundRect*
0 Rectangle with rounded corners*
0 $1 Rounding radius*
0 $2 $3 $4 $5 $6 $7 $8 $9 X,Y pos of 4 corners*
0 Add a 4 corners polygon primitive as box body*
4,1,4,$2,$3,$4,$5,$6,$7,$8,$9,$2,$3,0*
0 Add four circle primitives for the rounded corners*
1,1,$1+$1,$2,$3*
1,1,$1+$1,$4,$5*
1,1,$1+$1,$6,$7*
1,1,$1+$1,$8,$9*
0 Add four rect primitives between the rounded corners*
20,1,$1+$1,$2,$3,$4,$5,0*
20,1,$1+$1,$4,$5,$6,$7,0*
20,1,$1+$1,$6,$7,$8,$9,0*
20,1,$1+$1,$8,$9,$2,$3,0*%
G04 Aperture macros list end*
%ADD10C,1.152495*%
%ADD11C,0.100000*%
%ADD12O,2.127200X2.127200*%
%ADD13RoundRect,0.200000X-0.863600X0.863600X-0.863600X-0.863600X0.863600X-0.863600X0.863600X0.863600X0*%
%ADD14C,2.127200*%
%ADD15R,2.463800X1.955800*%
%ADD16R,2.438400X1.930400*%
%ADD17O,8.900000X4.900000*%
%ADD18RoundRect,0.200000X-0.850000X0.850000X-0.850000X-0.850000X0.850000X-0.850000X0.850000X0.850000X0*%
%ADD19O,2.100000X2.100000*%
%ADD20RoundRect,0.450000X-0.625000X0.375000X-0.625000X-0.375000X0.625000X-0.375000X0.625000X0.375000X0*%
%ADD21RoundRect,0.450000X-0.375000X-0.625000X0.375000X-0.625000X0.375000X0.625000X-0.375000X0.625000X0*%
%ADD22RoundRect,0.450000X0.625000X-0.375000X0.625000X0.375000X-0.625000X0.375000X-0.625000X-0.375000X0*%
%ADD23RoundRect,0.200000X0.750000X1.100000X-0.750000X1.100000X-0.750000X-1.100000X0.750000X-1.100000X0*%
%ADD24RoundRect,0.200000X1.900000X1.100000X-1.900000X1.100000X-1.900000X-1.100000X1.900000X-1.100000X0*%
%ADD25RoundRect,0.200000X0.750000X0.450000X-0.750000X0.450000X-0.750000X-0.450000X0.750000X-0.450000X0*%
%ADD26RoundRect,0.200000X0.450000X-0.750000X0.450000X0.750000X-0.450000X0.750000X-0.450000X-0.750000X0*%
%ADD27RoundRect,0.200000X-0.750000X-0.450000X0.750000X-0.450000X0.750000X0.450000X-0.750000X0.450000X0*%
%ADD28RoundRect,0.200000X-0.550000X-0.550000X0.550000X-0.550000X0.550000X0.550000X-0.550000X0.550000X0*%
%ADD29RoundRect,0.200000X0.974000X0.850000X-0.974000X0.850000X-0.974000X-0.850000X0.974000X-0.850000X0*%
%ADD30RoundRect,0.443750X0.456250X-0.243750X0.456250X0.243750X-0.456250X0.243750X-0.456250X-0.243750X0*%
%ADD31RoundRect,0.200000X0.850000X0.850000X-0.850000X0.850000X-0.850000X-0.850000X0.850000X-0.850000X0*%
%ADD32RoundRect,0.200000X2.750000X1.750000X-2.750000X1.750000X-2.750000X-1.750000X2.750000X-1.750000X0*%
%ADD33RoundRect,0.200000X2.250000X2.750000X-2.250000X2.750000X-2.250000X-2.750000X2.250000X-2.750000X0*%
%ADD34RoundRect,0.070000X-0.875000X0.325000X-0.875000X-0.325000X0.875000X-0.325000X0.875000X0.325000X0*%
%ADD35O,1.200000X1.200000*%
%ADD36RoundRect,0.200000X0.220000X0.650000X-0.220000X0.650000X-0.220000X-0.650000X0.220000X-0.650000X0*%
%ADD37O,1.850000X2.400000*%
%ADD38O,1.550000X2.200000*%
%ADD39RoundRect,0.200000X0.300000X0.600000X-0.300000X0.600000X-0.300000X-0.600000X0.300000X-0.600000X0*%
%ADD40RoundRect,0.443750X0.243750X0.456250X-0.243750X0.456250X-0.243750X-0.456250X0.243750X-0.456250X0*%
%ADD41RoundRect,0.200000X-0.850000X-0.850000X0.850000X-0.850000X0.850000X0.850000X-0.850000X0.850000X0*%
%ADD42RoundRect,0.200000X1.000000X1.000000X-1.000000X1.000000X-1.000000X-1.000000X1.000000X-1.000000X0*%
%ADD43C,2.400000*%
%ADD44C,3.200000*%
%ADD45RoundRect,0.200000X0.850000X-0.850000X0.850000X0.850000X-0.850000X0.850000X-0.850000X-0.850000X0*%
%ADD46RoundRect,0.200000X-0.974000X-0.850000X0.974000X-0.850000X0.974000X0.850000X-0.974000X0.850000X0*%
%ADD47RoundRect,0.200000X-0.400000X0.500000X-0.400000X-0.500000X0.400000X-0.500000X0.400000X0.500000X0*%
%ADD48C,1.300000*%
%ADD49RoundRect,0.200000X-0.750000X0.350000X-0.750000X-0.350000X0.750000X-0.350000X0.750000X0.350000X0*%
G04 APERTURE END LIST*
%TO.C,D1*%
D10*
X129926247Y-51950000D02*
G75*
G03*
X129926247Y-51950000I-576247J0D01*
G01*
D11*
X130594600Y-55252000D02*
X130594600Y-53270800D01*
X130594600Y-53270800D02*
X128105400Y-53270800D01*
X128105400Y-53270800D02*
X128105400Y-55252000D01*
X128105400Y-55252000D02*
X130594600Y-55252000D01*
G36*
X130594600Y-55252000D02*
G01*
X128105400Y-55252000D01*
X128105400Y-53270800D01*
X130594600Y-53270800D01*
X130594600Y-55252000D01*
G37*
X130594600Y-55252000D02*
X128105400Y-55252000D01*
X128105400Y-53270800D01*
X130594600Y-53270800D01*
X130594600Y-55252000D01*
X130569200Y-50629200D02*
X130569200Y-48698800D01*
X130569200Y-48698800D02*
X128130800Y-48698800D01*
X128130800Y-48698800D02*
X128130800Y-50629200D01*
X128130800Y-50629200D02*
X130569200Y-50629200D01*
G36*
X130569200Y-50629200D02*
G01*
X128130800Y-50629200D01*
X128130800Y-48698800D01*
X130569200Y-48698800D01*
X130569200Y-50629200D01*
G37*
X130569200Y-50629200D02*
X128130800Y-50629200D01*
X128130800Y-48698800D01*
X130569200Y-48698800D01*
X130569200Y-50629200D01*
%TO.C,D5*%
D10*
X161451247Y-51650000D02*
G75*
G03*
X161451247Y-51650000I-576247J0D01*
G01*
D11*
X162119600Y-54952000D02*
X162119600Y-52970800D01*
X162119600Y-52970800D02*
X159630400Y-52970800D01*
X159630400Y-52970800D02*
X159630400Y-54952000D01*
X159630400Y-54952000D02*
X162119600Y-54952000D01*
G36*
X162119600Y-54952000D02*
G01*
X159630400Y-54952000D01*
X159630400Y-52970800D01*
X162119600Y-52970800D01*
X162119600Y-54952000D01*
G37*
X162119600Y-54952000D02*
X159630400Y-54952000D01*
X159630400Y-52970800D01*
X162119600Y-52970800D01*
X162119600Y-54952000D01*
X162094200Y-50329200D02*
X162094200Y-48398800D01*
X162094200Y-48398800D02*
X159655800Y-48398800D01*
X159655800Y-48398800D02*
X159655800Y-50329200D01*
X159655800Y-50329200D02*
X162094200Y-50329200D01*
G36*
X162094200Y-50329200D02*
G01*
X159655800Y-50329200D01*
X159655800Y-48398800D01*
X162094200Y-48398800D01*
X162094200Y-50329200D01*
G37*
X162094200Y-50329200D02*
X159655800Y-50329200D01*
X159655800Y-48398800D01*
X162094200Y-48398800D01*
X162094200Y-50329200D01*
%TO.C,D2*%
D10*
X138726247Y-51550000D02*
G75*
G03*
X138726247Y-51550000I-576247J0D01*
G01*
D11*
X139369200Y-50229200D02*
X139369200Y-48298800D01*
X139369200Y-48298800D02*
X136930800Y-48298800D01*
X136930800Y-48298800D02*
X136930800Y-50229200D01*
X136930800Y-50229200D02*
X139369200Y-50229200D01*
G36*
X139369200Y-50229200D02*
G01*
X136930800Y-50229200D01*
X136930800Y-48298800D01*
X139369200Y-48298800D01*
X139369200Y-50229200D01*
G37*
X139369200Y-50229200D02*
X136930800Y-50229200D01*
X136930800Y-48298800D01*
X139369200Y-48298800D01*
X139369200Y-50229200D01*
X139394600Y-54852000D02*
X139394600Y-52870800D01*
X139394600Y-52870800D02*
X136905400Y-52870800D01*
X136905400Y-52870800D02*
X136905400Y-54852000D01*
X136905400Y-54852000D02*
X139394600Y-54852000D01*
G36*
X139394600Y-54852000D02*
G01*
X136905400Y-54852000D01*
X136905400Y-52870800D01*
X139394600Y-52870800D01*
X139394600Y-54852000D01*
G37*
X139394600Y-54852000D02*
X136905400Y-54852000D01*
X136905400Y-52870800D01*
X139394600Y-52870800D01*
X139394600Y-54852000D01*
%TO.C,D15*%
D10*
X139876247Y-99975000D02*
G75*
G03*
X139876247Y-99975000I-576247J0D01*
G01*
D11*
X140519200Y-98654200D02*
X140519200Y-96723800D01*
X140519200Y-96723800D02*
X138080800Y-96723800D01*
X138080800Y-96723800D02*
X138080800Y-98654200D01*
X138080800Y-98654200D02*
X140519200Y-98654200D01*
G36*
X140519200Y-98654200D02*
G01*
X138080800Y-98654200D01*
X138080800Y-96723800D01*
X140519200Y-96723800D01*
X140519200Y-98654200D01*
G37*
X140519200Y-98654200D02*
X138080800Y-98654200D01*
X138080800Y-96723800D01*
X140519200Y-96723800D01*
X140519200Y-98654200D01*
X140544600Y-103277000D02*
X140544600Y-101295800D01*
X140544600Y-101295800D02*
X138055400Y-101295800D01*
X138055400Y-101295800D02*
X138055400Y-103277000D01*
X138055400Y-103277000D02*
X140544600Y-103277000D01*
G36*
X140544600Y-103277000D02*
G01*
X138055400Y-103277000D01*
X138055400Y-101295800D01*
X140544600Y-101295800D01*
X140544600Y-103277000D01*
G37*
X140544600Y-103277000D02*
X138055400Y-103277000D01*
X138055400Y-101295800D01*
X140544600Y-101295800D01*
X140544600Y-103277000D01*
%TO.C,D18*%
D10*
X131576247Y-86425000D02*
G75*
G03*
X131576247Y-86425000I-576247J0D01*
G01*
D11*
X132219200Y-85104200D02*
X132219200Y-83173800D01*
X132219200Y-83173800D02*
X129780800Y-83173800D01*
X129780800Y-83173800D02*
X129780800Y-85104200D01*
X129780800Y-85104200D02*
X132219200Y-85104200D01*
G36*
X132219200Y-85104200D02*
G01*
X129780800Y-85104200D01*
X129780800Y-83173800D01*
X132219200Y-83173800D01*
X132219200Y-85104200D01*
G37*
X132219200Y-85104200D02*
X129780800Y-85104200D01*
X129780800Y-83173800D01*
X132219200Y-83173800D01*
X132219200Y-85104200D01*
X132244600Y-89727000D02*
X132244600Y-87745800D01*
X132244600Y-87745800D02*
X129755400Y-87745800D01*
X129755400Y-87745800D02*
X129755400Y-89727000D01*
X129755400Y-89727000D02*
X132244600Y-89727000D01*
G36*
X132244600Y-89727000D02*
G01*
X129755400Y-89727000D01*
X129755400Y-87745800D01*
X132244600Y-87745800D01*
X132244600Y-89727000D01*
G37*
X132244600Y-89727000D02*
X129755400Y-89727000D01*
X129755400Y-87745800D01*
X132244600Y-87745800D01*
X132244600Y-89727000D01*
%TO.C,D17*%
D10*
X134051247Y-95400000D02*
G75*
G03*
X134051247Y-95400000I-576247J0D01*
G01*
D11*
X134719600Y-98702000D02*
X134719600Y-96720800D01*
X134719600Y-96720800D02*
X132230400Y-96720800D01*
X132230400Y-96720800D02*
X132230400Y-98702000D01*
X132230400Y-98702000D02*
X134719600Y-98702000D01*
G36*
X134719600Y-98702000D02*
G01*
X132230400Y-98702000D01*
X132230400Y-96720800D01*
X134719600Y-96720800D01*
X134719600Y-98702000D01*
G37*
X134719600Y-98702000D02*
X132230400Y-98702000D01*
X132230400Y-96720800D01*
X134719600Y-96720800D01*
X134719600Y-98702000D01*
X134694200Y-94079200D02*
X134694200Y-92148800D01*
X134694200Y-92148800D02*
X132255800Y-92148800D01*
X132255800Y-92148800D02*
X132255800Y-94079200D01*
X132255800Y-94079200D02*
X134694200Y-94079200D01*
G36*
X134694200Y-94079200D02*
G01*
X132255800Y-94079200D01*
X132255800Y-92148800D01*
X134694200Y-92148800D01*
X134694200Y-94079200D01*
G37*
X134694200Y-94079200D02*
X132255800Y-94079200D01*
X132255800Y-92148800D01*
X134694200Y-92148800D01*
X134694200Y-94079200D01*
%TO.C,D8*%
D10*
X157201247Y-73075000D02*
G75*
G03*
X157201247Y-73075000I-576247J0D01*
G01*
D11*
X157869600Y-76377000D02*
X157869600Y-74395800D01*
X157869600Y-74395800D02*
X155380400Y-74395800D01*
X155380400Y-74395800D02*
X155380400Y-76377000D01*
X155380400Y-76377000D02*
X157869600Y-76377000D01*
G36*
X157869600Y-76377000D02*
G01*
X155380400Y-76377000D01*
X155380400Y-74395800D01*
X157869600Y-74395800D01*
X157869600Y-76377000D01*
G37*
X157869600Y-76377000D02*
X155380400Y-76377000D01*
X155380400Y-74395800D01*
X157869600Y-74395800D01*
X157869600Y-76377000D01*
X157844200Y-71754200D02*
X157844200Y-69823800D01*
X157844200Y-69823800D02*
X155405800Y-69823800D01*
X155405800Y-69823800D02*
X155405800Y-71754200D01*
X155405800Y-71754200D02*
X157844200Y-71754200D01*
G36*
X157844200Y-71754200D02*
G01*
X155405800Y-71754200D01*
X155405800Y-69823800D01*
X157844200Y-69823800D01*
X157844200Y-71754200D01*
G37*
X157844200Y-71754200D02*
X155405800Y-71754200D01*
X155405800Y-69823800D01*
X157844200Y-69823800D01*
X157844200Y-71754200D01*
%TO.C,D20*%
D10*
X141701247Y-72925000D02*
G75*
G03*
X141701247Y-72925000I-576247J0D01*
G01*
D11*
X142369600Y-76227000D02*
X142369600Y-74245800D01*
X142369600Y-74245800D02*
X139880400Y-74245800D01*
X139880400Y-74245800D02*
X139880400Y-76227000D01*
X139880400Y-76227000D02*
X142369600Y-76227000D01*
G36*
X142369600Y-76227000D02*
G01*
X139880400Y-76227000D01*
X139880400Y-74245800D01*
X142369600Y-74245800D01*
X142369600Y-76227000D01*
G37*
X142369600Y-76227000D02*
X139880400Y-76227000D01*
X139880400Y-74245800D01*
X142369600Y-74245800D01*
X142369600Y-76227000D01*
X142344200Y-71604200D02*
X142344200Y-69673800D01*
X142344200Y-69673800D02*
X139905800Y-69673800D01*
X139905800Y-69673800D02*
X139905800Y-71604200D01*
X139905800Y-71604200D02*
X142344200Y-71604200D01*
G36*
X142344200Y-71604200D02*
G01*
X139905800Y-71604200D01*
X139905800Y-69673800D01*
X142344200Y-69673800D01*
X142344200Y-71604200D01*
G37*
X142344200Y-71604200D02*
X139905800Y-71604200D01*
X139905800Y-69673800D01*
X142344200Y-69673800D01*
X142344200Y-71604200D01*
%TO.C,D6*%
D10*
X169751247Y-51600000D02*
G75*
G03*
X169751247Y-51600000I-576247J0D01*
G01*
D11*
X170394200Y-50279200D02*
X170394200Y-48348800D01*
X170394200Y-48348800D02*
X167955800Y-48348800D01*
X167955800Y-48348800D02*
X167955800Y-50279200D01*
X167955800Y-50279200D02*
X170394200Y-50279200D01*
G36*
X170394200Y-50279200D02*
G01*
X167955800Y-50279200D01*
X167955800Y-48348800D01*
X170394200Y-48348800D01*
X170394200Y-50279200D01*
G37*
X170394200Y-50279200D02*
X167955800Y-50279200D01*
X167955800Y-48348800D01*
X170394200Y-48348800D01*
X170394200Y-50279200D01*
X170419600Y-54902000D02*
X170419600Y-52920800D01*
X170419600Y-52920800D02*
X167930400Y-52920800D01*
X167930400Y-52920800D02*
X167930400Y-54902000D01*
X167930400Y-54902000D02*
X170419600Y-54902000D01*
G36*
X170419600Y-54902000D02*
G01*
X167930400Y-54902000D01*
X167930400Y-52920800D01*
X170419600Y-52920800D01*
X170419600Y-54902000D01*
G37*
X170419600Y-54902000D02*
X167930400Y-54902000D01*
X167930400Y-52920800D01*
X170419600Y-52920800D01*
X170419600Y-54902000D01*
%TO.C,D14*%
D10*
X148901247Y-103350000D02*
G75*
G03*
X148901247Y-103350000I-576247J0D01*
G01*
D11*
X149569600Y-106652000D02*
X149569600Y-104670800D01*
X149569600Y-104670800D02*
X147080400Y-104670800D01*
X147080400Y-104670800D02*
X147080400Y-106652000D01*
X147080400Y-106652000D02*
X149569600Y-106652000D01*
G36*
X149569600Y-106652000D02*
G01*
X147080400Y-106652000D01*
X147080400Y-104670800D01*
X149569600Y-104670800D01*
X149569600Y-106652000D01*
G37*
X149569600Y-106652000D02*
X147080400Y-106652000D01*
X147080400Y-104670800D01*
X149569600Y-104670800D01*
X149569600Y-106652000D01*
X149544200Y-102029200D02*
X149544200Y-100098800D01*
X149544200Y-100098800D02*
X147105800Y-100098800D01*
X147105800Y-100098800D02*
X147105800Y-102029200D01*
X147105800Y-102029200D02*
X149544200Y-102029200D01*
G36*
X149544200Y-102029200D02*
G01*
X147105800Y-102029200D01*
X147105800Y-100098800D01*
X149544200Y-100098800D01*
X149544200Y-102029200D01*
G37*
X149544200Y-102029200D02*
X147105800Y-102029200D01*
X147105800Y-100098800D01*
X149544200Y-100098800D01*
X149544200Y-102029200D01*
%TO.C,D13*%
D10*
X156351247Y-101500000D02*
G75*
G03*
X156351247Y-101500000I-576247J0D01*
G01*
D11*
X156994200Y-100179200D02*
X156994200Y-98248800D01*
X156994200Y-98248800D02*
X154555800Y-98248800D01*
X154555800Y-98248800D02*
X154555800Y-100179200D01*
X154555800Y-100179200D02*
X156994200Y-100179200D01*
G36*
X156994200Y-100179200D02*
G01*
X154555800Y-100179200D01*
X154555800Y-98248800D01*
X156994200Y-98248800D01*
X156994200Y-100179200D01*
G37*
X156994200Y-100179200D02*
X154555800Y-100179200D01*
X154555800Y-98248800D01*
X156994200Y-98248800D01*
X156994200Y-100179200D01*
X157019600Y-104802000D02*
X157019600Y-102820800D01*
X157019600Y-102820800D02*
X154530400Y-102820800D01*
X154530400Y-102820800D02*
X154530400Y-104802000D01*
X154530400Y-104802000D02*
X157019600Y-104802000D01*
G36*
X157019600Y-104802000D02*
G01*
X154530400Y-104802000D01*
X154530400Y-102820800D01*
X157019600Y-102820800D01*
X157019600Y-104802000D01*
G37*
X157019600Y-104802000D02*
X154530400Y-104802000D01*
X154530400Y-102820800D01*
X157019600Y-102820800D01*
X157019600Y-104802000D01*
%TO.C,D7*%
D10*
X148801247Y-70375000D02*
G75*
G03*
X148801247Y-70375000I-576247J0D01*
G01*
D11*
X149469600Y-73677000D02*
X149469600Y-71695800D01*
X149469600Y-71695800D02*
X146980400Y-71695800D01*
X146980400Y-71695800D02*
X146980400Y-73677000D01*
X146980400Y-73677000D02*
X149469600Y-73677000D01*
G36*
X149469600Y-73677000D02*
G01*
X146980400Y-73677000D01*
X146980400Y-71695800D01*
X149469600Y-71695800D01*
X149469600Y-73677000D01*
G37*
X149469600Y-73677000D02*
X146980400Y-73677000D01*
X146980400Y-71695800D01*
X149469600Y-71695800D01*
X149469600Y-73677000D01*
X149444200Y-69054200D02*
X149444200Y-67123800D01*
X149444200Y-67123800D02*
X147005800Y-67123800D01*
X147005800Y-67123800D02*
X147005800Y-69054200D01*
X147005800Y-69054200D02*
X149444200Y-69054200D01*
G36*
X149444200Y-69054200D02*
G01*
X147005800Y-69054200D01*
X147005800Y-67123800D01*
X149444200Y-67123800D01*
X149444200Y-69054200D01*
G37*
X149444200Y-69054200D02*
X147005800Y-69054200D01*
X147005800Y-67123800D01*
X149444200Y-67123800D01*
X149444200Y-69054200D01*
%TO.C,D9*%
D10*
X163726247Y-78250000D02*
G75*
G03*
X163726247Y-78250000I-576247J0D01*
G01*
D11*
X164369200Y-76929200D02*
X164369200Y-74998800D01*
X164369200Y-74998800D02*
X161930800Y-74998800D01*
X161930800Y-74998800D02*
X161930800Y-76929200D01*
X161930800Y-76929200D02*
X164369200Y-76929200D01*
G36*
X164369200Y-76929200D02*
G01*
X161930800Y-76929200D01*
X161930800Y-74998800D01*
X164369200Y-74998800D01*
X164369200Y-76929200D01*
G37*
X164369200Y-76929200D02*
X161930800Y-76929200D01*
X161930800Y-74998800D01*
X164369200Y-74998800D01*
X164369200Y-76929200D01*
X164394600Y-81552000D02*
X164394600Y-79570800D01*
X164394600Y-79570800D02*
X161905400Y-79570800D01*
X161905400Y-79570800D02*
X161905400Y-81552000D01*
X161905400Y-81552000D02*
X164394600Y-81552000D01*
G36*
X164394600Y-81552000D02*
G01*
X161905400Y-81552000D01*
X161905400Y-79570800D01*
X164394600Y-79570800D01*
X164394600Y-81552000D01*
G37*
X164394600Y-81552000D02*
X161905400Y-81552000D01*
X161905400Y-79570800D01*
X164394600Y-79570800D01*
X164394600Y-81552000D01*
%TO.C,D3*%
D10*
X145176247Y-51575000D02*
G75*
G03*
X145176247Y-51575000I-576247J0D01*
G01*
D11*
X145819200Y-50254200D02*
X145819200Y-48323800D01*
X145819200Y-48323800D02*
X143380800Y-48323800D01*
X143380800Y-48323800D02*
X143380800Y-50254200D01*
X143380800Y-50254200D02*
X145819200Y-50254200D01*
G36*
X145819200Y-50254200D02*
G01*
X143380800Y-50254200D01*
X143380800Y-48323800D01*
X145819200Y-48323800D01*
X145819200Y-50254200D01*
G37*
X145819200Y-50254200D02*
X143380800Y-50254200D01*
X143380800Y-48323800D01*
X145819200Y-48323800D01*
X145819200Y-50254200D01*
X145844600Y-54877000D02*
X145844600Y-52895800D01*
X145844600Y-52895800D02*
X143355400Y-52895800D01*
X143355400Y-52895800D02*
X143355400Y-54877000D01*
X143355400Y-54877000D02*
X145844600Y-54877000D01*
G36*
X145844600Y-54877000D02*
G01*
X143355400Y-54877000D01*
X143355400Y-52895800D01*
X145844600Y-52895800D01*
X145844600Y-54877000D01*
G37*
X145844600Y-54877000D02*
X143355400Y-54877000D01*
X143355400Y-52895800D01*
X145844600Y-52895800D01*
X145844600Y-54877000D01*
%TO.C,D11*%
D10*
X162551247Y-96200000D02*
G75*
G03*
X162551247Y-96200000I-576247J0D01*
G01*
D11*
X163219600Y-99502000D02*
X163219600Y-97520800D01*
X163219600Y-97520800D02*
X160730400Y-97520800D01*
X160730400Y-97520800D02*
X160730400Y-99502000D01*
X160730400Y-99502000D02*
X163219600Y-99502000D01*
G36*
X163219600Y-99502000D02*
G01*
X160730400Y-99502000D01*
X160730400Y-97520800D01*
X163219600Y-97520800D01*
X163219600Y-99502000D01*
G37*
X163219600Y-99502000D02*
X160730400Y-99502000D01*
X160730400Y-97520800D01*
X163219600Y-97520800D01*
X163219600Y-99502000D01*
X163194200Y-94879200D02*
X163194200Y-92948800D01*
X163194200Y-92948800D02*
X160755800Y-92948800D01*
X160755800Y-92948800D02*
X160755800Y-94879200D01*
X160755800Y-94879200D02*
X163194200Y-94879200D01*
G36*
X163194200Y-94879200D02*
G01*
X160755800Y-94879200D01*
X160755800Y-92948800D01*
X163194200Y-92948800D01*
X163194200Y-94879200D01*
G37*
X163194200Y-94879200D02*
X160755800Y-94879200D01*
X160755800Y-92948800D01*
X163194200Y-92948800D01*
X163194200Y-94879200D01*
%TO.C,D10*%
D10*
X166176247Y-86975000D02*
G75*
G03*
X166176247Y-86975000I-576247J0D01*
G01*
D11*
X166844600Y-90277000D02*
X166844600Y-88295800D01*
X166844600Y-88295800D02*
X164355400Y-88295800D01*
X164355400Y-88295800D02*
X164355400Y-90277000D01*
X164355400Y-90277000D02*
X166844600Y-90277000D01*
G36*
X166844600Y-90277000D02*
G01*
X164355400Y-90277000D01*
X164355400Y-88295800D01*
X166844600Y-88295800D01*
X166844600Y-90277000D01*
G37*
X166844600Y-90277000D02*
X164355400Y-90277000D01*
X164355400Y-88295800D01*
X166844600Y-88295800D01*
X166844600Y-90277000D01*
X166819200Y-85654200D02*
X166819200Y-83723800D01*
X166819200Y-83723800D02*
X164380800Y-83723800D01*
X164380800Y-83723800D02*
X164380800Y-85654200D01*
X164380800Y-85654200D02*
X166819200Y-85654200D01*
G36*
X166819200Y-85654200D02*
G01*
X164380800Y-85654200D01*
X164380800Y-83723800D01*
X166819200Y-83723800D01*
X166819200Y-85654200D01*
G37*
X166819200Y-85654200D02*
X164380800Y-85654200D01*
X164380800Y-83723800D01*
X166819200Y-83723800D01*
X166819200Y-85654200D01*
%TO.C,D4*%
D10*
X153101247Y-51600000D02*
G75*
G03*
X153101247Y-51600000I-576247J0D01*
G01*
D11*
X153769600Y-54902000D02*
X153769600Y-52920800D01*
X153769600Y-52920800D02*
X151280400Y-52920800D01*
X151280400Y-52920800D02*
X151280400Y-54902000D01*
X151280400Y-54902000D02*
X153769600Y-54902000D01*
G36*
X153769600Y-54902000D02*
G01*
X151280400Y-54902000D01*
X151280400Y-52920800D01*
X153769600Y-52920800D01*
X153769600Y-54902000D01*
G37*
X153769600Y-54902000D02*
X151280400Y-54902000D01*
X151280400Y-52920800D01*
X153769600Y-52920800D01*
X153769600Y-54902000D01*
X153744200Y-50279200D02*
X153744200Y-48348800D01*
X153744200Y-48348800D02*
X151305800Y-48348800D01*
X151305800Y-48348800D02*
X151305800Y-50279200D01*
X151305800Y-50279200D02*
X153744200Y-50279200D01*
G36*
X153744200Y-50279200D02*
G01*
X151305800Y-50279200D01*
X151305800Y-48348800D01*
X153744200Y-48348800D01*
X153744200Y-50279200D01*
G37*
X153744200Y-50279200D02*
X151305800Y-50279200D01*
X151305800Y-48348800D01*
X153744200Y-48348800D01*
X153744200Y-50279200D01*
%TO.C,D19*%
D10*
X134801247Y-78300000D02*
G75*
G03*
X134801247Y-78300000I-576247J0D01*
G01*
D11*
X135444200Y-76979200D02*
X135444200Y-75048800D01*
X135444200Y-75048800D02*
X133005800Y-75048800D01*
X133005800Y-75048800D02*
X133005800Y-76979200D01*
X133005800Y-76979200D02*
X135444200Y-76979200D01*
G36*
X135444200Y-76979200D02*
G01*
X133005800Y-76979200D01*
X133005800Y-75048800D01*
X135444200Y-75048800D01*
X135444200Y-76979200D01*
G37*
X135444200Y-76979200D02*
X133005800Y-76979200D01*
X133005800Y-75048800D01*
X135444200Y-75048800D01*
X135444200Y-76979200D01*
X135469600Y-81602000D02*
X135469600Y-79620800D01*
X135469600Y-79620800D02*
X132980400Y-79620800D01*
X132980400Y-79620800D02*
X132980400Y-81602000D01*
X132980400Y-81602000D02*
X135469600Y-81602000D01*
G36*
X135469600Y-81602000D02*
G01*
X132980400Y-81602000D01*
X132980400Y-79620800D01*
X135469600Y-79620800D01*
X135469600Y-81602000D01*
G37*
X135469600Y-81602000D02*
X132980400Y-81602000D01*
X132980400Y-79620800D01*
X135469600Y-79620800D01*
X135469600Y-81602000D01*
%TD*%
D12*
%TO.C,X1*%
X177377400Y-47137000D03*
D13*
X177377400Y-49677000D03*
D12*
X179917400Y-47137000D03*
X179917400Y-49677000D03*
D14*
X182457400Y-47137000D03*
X182457400Y-49677000D03*
%TD*%
D15*
%TO.C,D1*%
X129350000Y-54236000D03*
D16*
X129350000Y-49664000D03*
%TD*%
D15*
%TO.C,D5*%
X160875000Y-53936000D03*
D16*
X160875000Y-49364000D03*
%TD*%
%TO.C,D2*%
X138150000Y-49264000D03*
D15*
X138150000Y-53836000D03*
%TD*%
D16*
%TO.C,D15*%
X139300000Y-97689000D03*
D15*
X139300000Y-102261000D03*
%TD*%
D16*
%TO.C,D18*%
X131000000Y-84139000D03*
D15*
X131000000Y-88711000D03*
%TD*%
D16*
%TO.C,D17*%
X133475000Y-93114000D03*
D15*
X133475000Y-97686000D03*
%TD*%
D16*
%TO.C,D8*%
X156625000Y-70789000D03*
D15*
X156625000Y-75361000D03*
%TD*%
%TO.C,D20*%
X141125000Y-75211000D03*
D16*
X141125000Y-70639000D03*
%TD*%
%TO.C,D6*%
X169175000Y-49314000D03*
D15*
X169175000Y-53886000D03*
%TD*%
D16*
%TO.C,D14*%
X148325000Y-101064000D03*
D15*
X148325000Y-105636000D03*
%TD*%
%TO.C,D13*%
X155775000Y-103786000D03*
D16*
X155775000Y-99214000D03*
%TD*%
%TO.C,D7*%
X148225000Y-68089000D03*
D15*
X148225000Y-72661000D03*
%TD*%
%TO.C,D9*%
X163150000Y-80536000D03*
D16*
X163150000Y-75964000D03*
%TD*%
%TO.C,D3*%
X144600000Y-49289000D03*
D15*
X144600000Y-53861000D03*
%TD*%
D16*
%TO.C,D11*%
X161975000Y-93914000D03*
D15*
X161975000Y-98486000D03*
%TD*%
D16*
%TO.C,D10*%
X165600000Y-84689000D03*
D15*
X165600000Y-89261000D03*
%TD*%
%TO.C,D4*%
X152525000Y-53886000D03*
D16*
X152525000Y-49314000D03*
%TD*%
%TO.C,D19*%
X134225000Y-76014000D03*
D15*
X134225000Y-80586000D03*
%TD*%
D17*
%TO.C,REF\u002A\u002A*%
X148082000Y-30734000D03*
%TD*%
D18*
%TO.C,J2*%
X108375000Y-83025000D03*
D19*
X110915000Y-83025000D03*
%TD*%
D20*
%TO.C,D16*%
X190398400Y-143684800D03*
X190398400Y-146484800D03*
%TD*%
%TO.C,D12*%
X112050000Y-141500000D03*
X112050000Y-144300000D03*
%TD*%
D21*
%TO.C,R1*%
X109275000Y-126225000D03*
X112075000Y-126225000D03*
%TD*%
D22*
%TO.C,R21*%
X153695400Y-77346000D03*
X153695400Y-74546000D03*
%TD*%
D23*
%TO.C,U4*%
X125000000Y-120025000D03*
X122700000Y-120025000D03*
X120400000Y-120025000D03*
D24*
X122700000Y-113725000D03*
%TD*%
D25*
%TO.C,ESP32-S2 ROVER*%
X189150000Y-94900000D03*
X189150000Y-96400000D03*
X189150000Y-97900000D03*
X189150000Y-99400000D03*
X189150000Y-100900000D03*
X189150000Y-102400000D03*
X189150000Y-103900000D03*
X189150000Y-105400000D03*
X189150000Y-106900000D03*
X189150000Y-108400000D03*
X189150000Y-109900000D03*
X189150000Y-111400000D03*
X189150000Y-112900000D03*
X189150000Y-114400000D03*
X189150000Y-115900000D03*
X189150000Y-117400000D03*
D26*
X187150000Y-118150000D03*
X185650000Y-118150000D03*
X184150000Y-118150000D03*
X182650000Y-118150000D03*
X181150000Y-118150000D03*
X179650000Y-118150000D03*
X178150000Y-118150000D03*
X176650000Y-118150000D03*
X175150000Y-118150000D03*
X173650000Y-118150000D03*
D27*
X171650000Y-117400000D03*
X171650000Y-115900000D03*
X171650000Y-114400000D03*
X171650000Y-112900000D03*
X171650000Y-111400000D03*
X171650000Y-109900000D03*
X171650000Y-108400000D03*
X171650000Y-106900000D03*
X171650000Y-105400000D03*
X171650000Y-103900000D03*
X171650000Y-102400000D03*
X171650000Y-100900000D03*
X171650000Y-99400000D03*
X171650000Y-97900000D03*
X171650000Y-96400000D03*
X171650000Y-94900000D03*
D28*
X181590000Y-101400000D03*
X183090000Y-104450000D03*
X183090000Y-102950000D03*
X181590000Y-102950000D03*
X180090000Y-102950000D03*
X180090000Y-104450000D03*
X183090000Y-101400000D03*
X180090000Y-101400000D03*
X181590000Y-104450000D03*
%TD*%
D22*
%TO.C,R23*%
X148437600Y-110645400D03*
X148437600Y-107845400D03*
%TD*%
D29*
%TO.C,SW2*%
X111400000Y-89350000D03*
X108000000Y-89350000D03*
%TD*%
D22*
%TO.C,R14*%
X160197800Y-80571800D03*
X160197800Y-77771800D03*
%TD*%
D20*
%TO.C,R3*%
X195046600Y-143583200D03*
X195046600Y-146383200D03*
%TD*%
D30*
%TO.C,C2*%
X193450000Y-96712500D03*
X193450000Y-94837500D03*
%TD*%
D22*
%TO.C,R17*%
X138353800Y-78006400D03*
X138353800Y-75206400D03*
%TD*%
D31*
%TO.C,J7*%
X186944000Y-68473400D03*
D19*
X186944000Y-71013400D03*
%TD*%
D22*
%TO.C,R15*%
X152730200Y-104270000D03*
X152730200Y-101470000D03*
%TD*%
%TO.C,R7*%
X129336800Y-59286600D03*
X129336800Y-56486600D03*
%TD*%
%TO.C,R24*%
X130581400Y-93881400D03*
X130581400Y-91081400D03*
%TD*%
D20*
%TO.C,R5*%
X181100000Y-121675000D03*
X181100000Y-124475000D03*
%TD*%
D22*
%TO.C,R11*%
X164871400Y-99342400D03*
X164871400Y-96542400D03*
%TD*%
%TO.C,R4*%
X128016000Y-107064000D03*
X128016000Y-104264000D03*
%TD*%
D32*
%TO.C,BT1*%
X173850000Y-126075000D03*
D33*
X160675000Y-126075000D03*
X130375000Y-126100000D03*
D32*
X117250000Y-126075000D03*
%TD*%
D22*
%TO.C,R18*%
X138201400Y-58880200D03*
X138201400Y-56080200D03*
%TD*%
D20*
%TO.C,R22*%
X162788600Y-85391800D03*
X162788600Y-88191800D03*
%TD*%
D22*
%TO.C,R10*%
X148310600Y-77727000D03*
X148310600Y-74927000D03*
%TD*%
D34*
%TO.C,U3*%
X124175000Y-142845000D03*
X124175000Y-144115000D03*
X124175000Y-145385000D03*
X124175000Y-146655000D03*
X118675000Y-146655000D03*
X118675000Y-145385000D03*
X118675000Y-144115000D03*
X118675000Y-142845000D03*
%TD*%
D35*
%TO.C,J4*%
X106750000Y-144375000D03*
X101750000Y-144375000D03*
D36*
X105550000Y-143275000D03*
X104900000Y-143275000D03*
X104250000Y-143275000D03*
X103600000Y-143275000D03*
X102950000Y-143275000D03*
D37*
X107975000Y-143325000D03*
X100525000Y-143325000D03*
D38*
X108125000Y-147125000D03*
X100375000Y-147125000D03*
%TD*%
D39*
%TO.C,U1*%
X109175000Y-133875000D03*
X108225000Y-133875000D03*
X107275000Y-133875000D03*
X107275000Y-131275000D03*
X109175000Y-131275000D03*
%TD*%
D22*
%TO.C,R8*%
X144602200Y-58905600D03*
X144602200Y-56105600D03*
%TD*%
D40*
%TO.C,C1*%
X118137500Y-110400000D03*
X116262500Y-110400000D03*
%TD*%
%TO.C,C5*%
X118137500Y-116000000D03*
X116262500Y-116000000D03*
%TD*%
D30*
%TO.C,C4*%
X118059200Y-106499900D03*
X118059200Y-104624900D03*
%TD*%
D41*
%TO.C,GND 5v*%
X98200000Y-135800000D03*
D19*
X98200000Y-133260000D03*
%TD*%
D21*
%TO.C,R6*%
X192825000Y-108500000D03*
X195625000Y-108500000D03*
%TD*%
D42*
%TO.C,SW3*%
X155850000Y-84300000D03*
D43*
X155850000Y-89300000D03*
X155850000Y-86800000D03*
D44*
X148350000Y-92400000D03*
X148350000Y-81200000D03*
D43*
X141350000Y-84300000D03*
X141350000Y-89300000D03*
%TD*%
D22*
%TO.C,R9*%
X160909000Y-58981800D03*
X160909000Y-56181800D03*
%TD*%
D45*
%TO.C,D- D+*%
X110150000Y-122100000D03*
D19*
X107610000Y-122100000D03*
%TD*%
D22*
%TO.C,R12*%
X139344400Y-107318000D03*
X139344400Y-104518000D03*
%TD*%
D46*
%TO.C,Reset*%
X108300000Y-102125000D03*
X111700000Y-102125000D03*
%TD*%
D47*
%TO.C,1/0*%
X199180000Y-131700000D03*
D48*
X198080000Y-136850000D03*
X198080000Y-133850000D03*
D47*
X196970000Y-131700000D03*
X196970000Y-139000000D03*
X199180000Y-139000000D03*
D49*
X196320000Y-133100000D03*
X196320000Y-136100000D03*
X196320000Y-137600000D03*
%TD*%
D22*
%TO.C,R16*%
X136601200Y-94999000D03*
X136601200Y-92199000D03*
%TD*%
%TO.C,R20*%
X169189400Y-58956400D03*
X169189400Y-56156400D03*
%TD*%
D18*
%TO.C,J1*%
X175701800Y-62763400D03*
D19*
X178241800Y-62763400D03*
X180781800Y-62763400D03*
X183321800Y-62763400D03*
%TD*%
D22*
%TO.C,R13*%
X135305800Y-85601000D03*
X135305800Y-82801000D03*
%TD*%
D30*
%TO.C,C3*%
X123748800Y-106550700D03*
X123748800Y-104675700D03*
%TD*%
D22*
%TO.C,R19*%
X152552400Y-58931000D03*
X152552400Y-56131000D03*
%TD*%
D31*
%TO.C,J6*%
X171831000Y-68448000D03*
D19*
X171831000Y-70988000D03*
%TD*%
D22*
%TO.C,R2*%
X109300000Y-139800000D03*
X109300000Y-137000000D03*
%TD*%
M02*
